<svg version="1.1" x="0" y="0" width="100%" height="100%" viewBox="0 0 903116.8 40550.4" xmlns="http://www.w3.org/2000/svg">
  <path d="M 81713.2 24105.2 L 81713.2 20590.4 L 75666.4 20590.4 L 75666.4 24105.2 L 81713.2 24105.2 Z M 75667.6 15381.2 L 75667.6 18894.8 L 81714.4 18894.8 L 81714.4 15381.2 L 75667.6 15381.2 Z M 83630.8 15381.2 L 83630.8 18894.8 L 89946.4 18894.8 L 89946.4 15381.2 L 83630.8 15381.2 Z M 89945.2 24105.2 L 89945.2 20590.4 L 83629.6 20590.4 L 83629.6 24105.2 L 89945.2 24105.2 Z M 90535.6 30249.2 Q 91543.6 30249.2 91888 29462 Q 92206 28724 92354.8 26266.4 Q 93017.2 26783.6 94148.8 27077.6 Q 93902.8 29952.8 93264.4 30960.8 Q 92526.4 32066 90659.2 32066 L 85253.2 32066 Q 83188 32066 82452.4 31354.4 Q 81714.4 30616.4 81714.4 28479.2 L 81714.4 25898 L 75667.6 25898 L 75667.6 27396.8 L 73800.4 27396.8 L 73800.4 13610 L 81714.4 13610 L 81714.4 10095.2 L 83630.8 10095.2 L 83630.8 13610 L 91765.6 13610 L 91765.6 25898 L 83630.8 25898 L 83630.8 28527.2 Q 83630.8 29608.4 83948.8 29928.8 Q 84269.2 30249.2 85374.4 30249.2 L 90535.6 30249.2 Z M 118528 22754 L 108500.8 22754 L 108500.8 30077.6 Q 108500.8 31773.2 107248 32141.6 Q 106264 32486 102430 32486 Q 102209.2 31553.6 101644 30618.8 Q 104322.4 30716 105968.8 30642.8 Q 106632.4 30618.8 106632.4 30053.6 L 106632.4 22754 L 96505.6 22754 L 96505.6 20934.8 L 106632.4 20934.8 L 106632.4 17396 Q 109901.2 15897.2 112776.4 13512.8 L 98939.2 13512.8 L 98939.2 11718.8 L 114766 11718.8 L 115159.6 11621.6 L 116536 12653.6 Q 113218 15922.4 108499.6 18330.8 L 108499.6 20936 L 118526.8 20936 L 118526.8 22755.2 L 118528 22754 Z M 130840 26366 L 127547.2 27028.4 L 127547.2 32386.4 L 125777.2 32386.4 L 125777.2 27371.6 L 121206.4 28256 L 120812.8 26462 Q 122311.6 26241.2 125777.2 25650.8 L 125777.2 22112 L 123616 22112 Q 122165.2 22112 121820.8 22456.4 Q 121550.8 21400.4 121256.8 20835.2 Q 121723.6 20735.6 122485.6 18892.4 Q 122976.4 17836.4 123911.2 14616.8 L 120962.8 14616.8 L 120962.8 12921.2 L 124328.8 12921.2 Q 124697.2 11396 124894 10070 L 126664 10438.4 Q 126492.4 11397.2 126074.8 12922.4 L 130006 12922.4 L 130006 14618 L 125557.6 14618 Q 124598.8 17811.2 123370 20441.6 L 125778.4 20441.6 L 125778.4 16731.2 L 127548.4 16731.2 L 127548.4 20441.6 L 130055.2 20441.6 L 130055.2 22112 L 127548.4 22112 L 127548.4 25356.8 L 130744 24791.6 L 130841.2 26364.8 L 130840 26366 Z M 135707.2 19214 L 134870.8 22040 L 140720.8 22040 L 141041.2 21942.8 L 142318 22606.4 Q 140180.8 25702.4 137846.8 28725.2 Q 139861.6 30126.8 140845.6 31109.6 L 139616.8 32535.2 Q 137011.6 29880.8 132834.4 27374 L 133987.6 26194.4 Q 135438.4 27078.8 136494.4 27766.4 Q 137551.6 26366 139418.8 23760.8 L 132366.4 23760.8 Q 132710.8 22826 133866.4 19212.8 L 130253.2 19212.8 L 130253.2 17517.2 L 134332 17517.2 Q 134554 16829.6 135168.4 14618 L 131185.6 14618 L 131185.6 12946.4 L 135610 12946.4 Q 136027.6 11423.6 136348 10071.2 L 138142 10317.2 L 137454.4 12946.4 L 142369.6 12946.4 L 142369.6 14618 L 137012.8 14618 L 136201.6 17517.2 L 143230 17517.2 L 143230 19212.8 L 135709.6 19212.8 L 135707.2 19214 Z M 153524.8 20934.8 L 153524.8 25726.4 L 159692.8 25726.4 L 159692.8 20934.8 L 153524.8 20934.8 Z M 153524.8 27372.8 L 153524.8 29118.8 L 151853.2 29118.8 L 151853.2 19288.4 L 161389.6 19288.4 L 161389.6 27372.8 L 153526 27372.8 L 153524.8 27372.8 Z M 166524.4 30052.4 Q 166524.4 31772 165395.2 32165.6 Q 164435.2 32483.6 160798 32483.6 Q 160601.2 31476.8 160134.4 30616.4 Q 162814 30740 164116 30666.8 Q 164705.2 30641.6 164705.2 30052.4 L 164705.2 16044.8 L 148633.6 16044.8 L 148633.6 32484.8 L 146839.6 32484.8 L 146839.6 14274.8 L 153548.8 14274.8 Q 154630 11964.8 155120.8 9998 L 157357.6 10391.6 Q 156473.2 12552.8 155564.8 14274.8 L 166524.4 14274.8 L 166524.4 30052.4 Z M 192132.4 30027.2 L 192132.4 31797.2 L 174684.4 31797.2 L 174684.4 30027.2 L 182671.6 30027.2 L 182671.6 22679.6 L 177190 22679.6 L 177190 21033.2 Q 174856 27372.8 170924.8 31035.2 Q 170431.6 30323.6 169720 29609.6 Q 174462.4 25284.8 176798.8 16240.4 L 170654.8 16240.4 L 170654.8 14470.4 L 177216.4 14470.4 Q 177658 12382.4 178027.6 10072.4 L 179918.8 10293.2 Q 179404 13168.4 179107.6 14470.4 L 191692 14470.4 L 191692 16240.4 L 178666 16240.4 Q 178148.8 18380 177240.4 20910.8 L 191051.2 20910.8 L 191051.2 22680.8 L 184489.6 22680.8 L 184489.6 30028.4 L 192132.4 30028.4 L 192132.4 30027.2 Z M 208697.2 16192.4 Q 207910 25088 202528 28480.4 Q 202086.4 27766.4 201202 27152 Q 206117.2 24227.6 206828.8 16192.4 L 201913.6 16192.4 L 201913.6 14422.4 L 206952.4 14422.4 Q 207025.6 13144.4 207074.8 10416.8 L 208967.2 10416.8 Q 208942 12456.8 208820.8 14423.6 L 216020.8 14423.6 Q 216020.8 15062 215996.8 15308 Q 215530 26294 214498 27546.8 Q 213810.4 28358 212629.6 28431.2 Q 211549.6 28528.4 209165.2 28407.2 Q 209065.6 27374 208524.4 26564 Q 209975.2 26685.2 211891.6 26685.2 Q 212530 26710.4 212874.4 26366 Q 213709.6 25481.6 214152.4 16192.4 L 208696 16192.4 L 208697.2 16192.4 Z M 199334.8 15602 Q 198080.8 13758.8 195599.2 11398.4 L 196999.6 10415.6 Q 199727.2 12946.4 200834.8 14445.2 L 199336 15600.8 L 199334.8 15602 Z M 199628.8 27866 L 200416 28455.2 Q 201005.2 28922 201496 29216 Q 203438.8 30444.8 208108 30444.8 Q 213048.4 30444.8 217300 29930 Q 216758.8 31158.8 216734.8 31970 Q 212015.2 32240 208058.8 32240 Q 203292.4 32240 201031.6 30863.6 Q 198769.6 29314.4 198648.4 29314.4 Q 197812 29314.4 195551.2 32558 L 194198.8 30814.4 Q 196362.4 28307.6 197837.2 27718.4 L 197837.2 20123.6 L 194617.6 20123.6 L 194617.6 18329.6 L 199630 18329.6 L 199630 27866 L 199628.8 27866 Z M 239171.2 13955.6 Q 237745.6 12579.2 235018 11277.2 L 236075.2 10145.6 Q 238826.8 11374.4 240301.6 12676.4 L 239170 13954.4 L 239171.2 13955.6 Z M 230618.8 28504.4 Q 222385.6 30274.4 220001.2 30815.6 L 219656.8 28972.4 Q 224990.8 27940.4 230471.2 26784.8 L 230618.8 28504.4 Z M 227891.2 19534.4 L 222902.8 19534.4 L 222902.8 23786 L 227891.2 23786 L 227891.2 19534.4 Z M 229685.2 17936 L 229685.2 25358 L 221207.2 25358 L 221207.2 17936 L 229685.2 17936 Z M 240006.4 17961.2 Q 238409.2 22924.4 235657.6 26562.8 Q 237107.2 30617.6 238877.2 30617.6 Q 239812 30617.6 240007.6 26070.8 Q 240697.6 26808.8 241606 27105.2 Q 241360 30225.2 240745.6 31380.8 Q 240131.2 32512.4 238705.6 32512.4 Q 236052.4 32512.4 234282.4 28259.6 Q 231996.4 30766.4 229097.2 32486 Q 228457.6 31674.8 227671.6 31085.6 Q 231112 29266.4 233569.6 26267.6 Q 232366 22263.2 231848.8 15774.8 L 219781.6 15774.8 L 219781.6 13979.6 L 231751.6 13979.6 Q 231676 12702.8 231628 10121.6 L 233544.4 10121.6 Q 233544.4 12088.4 233617.6 13979.6 L 240990.4 13979.6 L 240990.4 15774.8 L 233741.2 15774.8 Q 234133.6 20910.8 235018 24351.2 Q 237034 21304.4 238189.6 17518.4 L 240007.6 17961.2 L 240006.4 17961.2 Z M 253720 26366 L 250427.2 27028.4 L 250427.2 32386.4 L 248657.2 32386.4 L 248657.2 27371.6 L 244086.4 28256 L 243692.8 26462 Q 245191.6 26241.2 248657.2 25650.8 L 248657.2 22112 L 246496 22112 Q 245045.2 22112 244700.8 22456.4 Q 244430.8 21400.4 244136.8 20835.2 Q 244603.6 20735.6 245365.6 18892.4 Q 245856.4 17836.4 246791.2 14616.8 L 243842.8 14616.8 L 243842.8 12921.2 L 247208.8 12921.2 Q 247577.2 11396 247774 10070 L 249544 10438.4 Q 249372.4 11397.2 248954.8 12922.4 L 252886 12922.4 L 252886 14618 L 248437.6 14618 Q 247478.8 17811.2 246250 20441.6 L 248658.4 20441.6 L 248658.4 16731.2 L 250428.4 16731.2 L 250428.4 20441.6 L 252935.2 20441.6 L 252935.2 22112 L 250428.4 22112 L 250428.4 25356.8 L 253624 24791.6 L 253721.2 26364.8 L 253720 26366 Z M 258587.2 19214 L 257750.8 22040 L 263600.8 22040 L 263921.2 21942.8 L 265198 22606.4 Q 263060.8 25702.4 260726.8 28725.2 Q 262741.6 30126.8 263725.6 31109.6 L 262496.8 32535.2 Q 259891.6 29880.8 255714.4 27374 L 256867.6 26194.4 Q 258318.4 27078.8 259374.4 27766.4 Q 260431.6 26366 262298.8 23760.8 L 255246.4 23760.8 Q 255590.8 22826 256746.4 19212.8 L 253133.2 19212.8 L 253133.2 17517.2 L 257212 17517.2 Q 257434 16829.6 258048.4 14618 L 254065.6 14618 L 254065.6 12946.4 L 258490 12946.4 Q 258907.6 11423.6 259228 10071.2 L 261022 10317.2 L 260334.4 12946.4 L 265249.6 12946.4 L 265249.6 14618 L 259892.8 14618 L 259081.6 17517.2 L 266110 17517.2 L 266110 19212.8 L 258589.6 19212.8 L 258587.2 19214 Z M 276404.8 20934.8 L 276404.8 25726.4 L 282572.8 25726.4 L 282572.8 20934.8 L 276404.8 20934.8 Z M 276404.8 27372.8 L 276404.8 29118.8 L 274733.2 29118.8 L 274733.2 19288.4 L 284269.6 19288.4 L 284269.6 27372.8 L 276406 27372.8 L 276404.8 27372.8 Z M 289404.4 30052.4 Q 289404.4 31772 288275.2 32165.6 Q 287315.2 32483.6 283678 32483.6 Q 283481.2 31476.8 283014.4 30616.4 Q 285694 30740 286996 30666.8 Q 287585.2 30641.6 287585.2 30052.4 L 287585.2 16044.8 L 271513.6 16044.8 L 271513.6 32484.8 L 269719.6 32484.8 L 269719.6 14274.8 L 276428.8 14274.8 Q 277510 11964.8 278000.8 9998 L 280237.6 10391.6 Q 279353.2 12552.8 278444.8 14274.8 L 289404.4 14274.8 L 289404.4 30052.4 Z M 300217.6 22900.4 L 300217.6 29388.8 L 311105.2 29388.8 L 311105.2 22900.4 L 300217.6 22900.4 Z M 302012.8 16389.2 Q 301004.8 19042.4 299752 21155.6 L 312972.4 21155.6 L 312972.4 32411.6 L 311105.2 32411.6 L 311105.2 31134.8 L 300217.6 31134.8 L 300217.6 32535.2 L 298423.6 32535.2 L 298423.6 23171.6 Q 296383.6 25899.2 293878 27693.2 Q 293435.2 27005.6 292673.2 26243.6 Q 297440.8 22998.8 300046 16389.2 L 293459.2 16389.2 L 293459.2 14619.2 L 300710.8 14619.2 Q 301472.8 12234.8 301939.6 10047.2 L 303830.8 10391.6 Q 303241.6 12873.2 302651.2 14619.2 L 314767.6 14619.2 L 314767.6 16389.2 L 302012.8 16389.2 Z M 331577.2 16192.4 Q 330790 25088 325408 28480.4 Q 324966.4 27766.4 324082 27152 Q 328997.2 24227.6 329708.8 16192.4 L 324793.6 16192.4 L 324793.6 14422.4 L 329832.4 14422.4 Q 329905.6 13144.4 329954.8 10416.8 L 331847.2 10416.8 Q 331822 12456.8 331700.8 14423.6 L 338900.8 14423.6 Q 338900.8 15062 338876.8 15308 Q 338410 26294 337378 27546.8 Q 336690.4 28358 335509.6 28431.2 Q 334429.6 28528.4 332045.2 28407.2 Q 331945.6 27374 331404.4 26564 Q 332855.2 26685.2 334771.6 26685.2 Q 335410 26710.4 335754.4 26366 Q 336589.6 25481.6 337032.4 16192.4 L 331576 16192.4 L 331577.2 16192.4 Z M 322214.8 15602 Q 320960.8 13758.8 318479.2 11398.4 L 319879.6 10415.6 Q 322607.2 12946.4 323714.8 14445.2 L 322216 15600.8 L 322214.8 15602 Z M 322508.8 27866 L 323296 28455.2 Q 323885.2 28922 324376 29216 Q 326318.8 30444.8 330988 30444.8 Q 335928.4 30444.8 340180 29930 Q 339638.8 31158.8 339614.8 31970 Q 334895.2 32240 330938.8 32240 Q 326172.4 32240 323911.6 30863.6 Q 321649.6 29314.4 321528.4 29314.4 Q 320692 29314.4 318431.2 32558 L 317078.8 30814.4 Q 319242.4 28307.6 320717.2 27718.4 L 320717.2 20123.6 L 317497.6 20123.6 L 317497.6 18329.6 L 322510 18329.6 L 322510 27866 L 322508.8 27866 Z M 349984 15626 L 344824 15626 L 344824 20763.2 L 349984 20763.2 L 349984 15626 Z M 349984 28283.6 L 349984 22384.4 L 344824 22384.4 L 344824 28283.6 L 349984 28283.6 Z M 348854.8 10366.4 Q 347773.6 13463.6 347576.8 13978.4 L 351656.8 13978.4 L 351656.8 29928.8 L 344825.2 29928.8 L 344825.2 31869.2 L 343153.6 31869.2 L 343153.6 13978.4 L 345907.6 13978.4 Q 346645.6 11594 346890.4 9996.8 L 348857.2 10365.2 L 348854.8 10366.4 Z M 363673.6 14840 Q 363156.4 29585.6 361976.8 31035.2 Q 361289.2 31895.6 360036.4 32019.2 Q 359028.4 32140.4 356398 31992.8 Q 356300.8 30984.8 355783.6 30198.8 Q 357382 30346.4 359422 30346.4 Q 360133.6 30346.4 360427.6 29978 Q 361484.8 28846.4 361926.4 15599.6 L 355685.2 15599.6 Q 354553.6 18327.2 353374 19900.4 Q 353053.6 19606.4 351874 18868.4 Q 354282.4 15696.8 355634.8 9946.4 L 357380.8 10364 Q 356914 12280.4 356323.6 13902.8 L 363672.4 13902.8 L 363672.4 14837.6 L 363673.6 14840 Z M 358241.2 25923.2 Q 357112 23638.4 354506.8 20246 L 355932.4 19410.8 Q 358634.8 22851.2 359790.4 24964.4 L 358241.2 25923.2 Z M 379968.4 13538 L 375520 13538 L 375520 16904 L 379968.4 16904 L 379968.4 13538 Z M 381761.2 13538 L 381761.2 16904 L 387560.8 16904 L 387560.8 30176 Q 387560.8 31822.4 386455.6 32190.8 Q 385544.8 32511.2 381931.6 32511.2 Q 381736 31479.2 381269.2 30668 Q 383603.2 30791.6 385152.4 30716 Q 385766.8 30692 385766.8 30126.8 L 385766.8 18624.8 L 381736 18624.8 Q 381636.4 19977.2 381488.8 21058.4 Q 384364 24351.2 385469.2 26342 L 384364 27743.6 Q 383308 25800.8 381047.2 23049.2 Q 380136.4 26588 377704 29021.6 Q 377113.6 28210.4 376399.6 27743.6 Q 379668.4 24695.6 379938.4 18624.8 L 375490 18624.8 Q 375392.8 20026.4 375245.2 21131.6 Q 377088.4 23343.2 377776 24621.2 L 376694.8 26070.8 Q 376055.2 24794 374778.4 23171.6 Q 373867.6 26637.2 371459.2 29021.6 Q 370968.4 28283.6 370206.4 27742.4 Q 373426 24694.4 373696 18623.6 L 369886 18623.6 L 369886 32510 L 368092 32510 L 368092 16904 L 373718.8 16904 L 373718.8 13538 L 367060 13538 L 367060 11768 L 388564 11768 L 388564 13538 L 381756.4 13538 L 381761.2 13538 Z M 396998.8 19164.8 Q 398694.4 20984 400316.8 23244.8 L 399211.6 24670.4 Q 398448.4 23244.8 396998.8 21131.6 L 396998.8 32436.8 L 395228.8 32436.8 L 395228.8 21574.4 Q 393509.2 25826 391666 28013.6 Q 391372 27275.6 390732.4 26367.2 Q 393289.6 23492 394985.2 18650 L 391298.8 18650 L 391298.8 16928 L 395230 16928 L 395230 13217.6 Q 393362.8 13587.2 391840 13782.8 Q 391716.4 13144.4 391322.8 12358.4 Q 396606.4 11522 399137.2 10392.8 L 400244.8 11842.4 Q 398746 12432.8 397000 12825.2 L 397000 16929.2 L 400145.2 16929.2 L 400145.2 18651.2 L 397000 18651.2 L 397000 19166 L 396998.8 19164.8 Z M 411302.8 22803.2 L 411302.8 16977.2 L 407934.4 16977.2 L 407934.4 22803.2 L 411302.8 22803.2 Z M 406140.4 22803.2 L 406140.4 16977.2 L 402674.8 16977.2 L 402674.8 22803.2 L 406140.4 22803.2 Z M 413095.6 15208.4 L 413095.6 25923.2 L 411301.6 25923.2 L 411301.6 24546.8 L 407933.2 24546.8 L 407933.2 32436.8 L 406139.2 32436.8 L 406139.2 24546.8 L 402673.6 24546.8 L 402673.6 26045.6 L 400930 26045.6 L 400930 15207.2 L 406139.2 15207.2 L 406139.2 10120.4 L 407933.2 10120.4 L 407933.2 15207.2 L 413094.4 15207.2 L 413095.6 15208.4 Z M 420395.2 18968 L 420395.2 24570.8 L 426809.2 24570.8 L 426809.2 18968 L 420395.2 18968 Z M 420395.2 26316.8 L 420395.2 28283.6 L 418625.2 28283.6 L 418625.2 17199.2 L 428603.2 17199.2 L 428603.2 26318 L 420395.2 26318 L 420395.2 26316.8 Z M 437868.4 13611.2 L 434845.6 13611.2 L 434845.6 29879.6 Q 434845.6 31748 433591.6 32116.4 Q 432608.8 32460.8 428504.8 32460.8 Q 428282.8 31502 427717.6 30519.2 Q 430348 30640.4 432264.4 30567.2 Q 432976 30543.2 432976 29855.6 L 432976 13611.2 L 416117.2 13611.2 L 416117.2 11792 L 437867.2 11792 L 437867.2 13611.2 L 437868.4 13611.2 Z M 455686 20787.2 Q 453966.4 20787.2 453376 20246 Q 452785.6 19731.2 452785.6 18232.4 L 452785.6 10121.6 L 454555.6 10121.6 L 454555.6 14225.6 Q 457849.6 13144.4 460258 11915.6 L 461486.8 13241.6 Q 459152.8 14349.2 454555.6 15725.6 L 454555.6 18207.2 Q 454555.6 18797.6 454801.6 18969.2 Q 455046.4 19142 455857.6 19142 L 459766 19142 Q 460453.6 19142 460674.4 18624.8 Q 460895.2 18110 460994.8 16290.8 Q 461509.6 16733.6 462614.8 17003.6 Q 462443.2 19239.2 461902 20001.2 Q 461360.8 20788.4 459911.2 20788.4 L 455683.6 20788.4 L 455686 20787.2 Z M 448681.6 26070.8 L 448681.6 23835.2 L 443496.4 23835.2 L 443496.4 26070.8 L 448681.6 26070.8 Z M 443496.4 20296.4 L 443496.4 22384.4 L 448681.6 22384.4 L 448681.6 20296.4 L 443496.4 20296.4 Z M 450476.8 30396.8 Q 450476.8 31749.2 449616.4 32117.6 Q 448902.4 32438 446347.6 32438 Q 446176 31553.6 445757.2 30766.4 Q 447379.6 30839.6 448264 30766.4 Q 448681.6 30766.4 448681.6 30372.8 L 448681.6 27497.6 L 443496.4 27497.6 L 443496.4 32486 L 441800.8 32486 L 441800.8 18748.4 L 450478 18748.4 L 450478 30398 L 450476.8 30396.8 Z M 448436.8 11522 Q 450794.8 14619.2 451582 16830.8 L 449983.6 17542.4 Q 449762.8 16928 449442.4 16240.4 Q 442118.8 16781.6 441356.8 17051.6 Q 441036.4 15896 440766.4 15330.8 Q 441209.2 15207.2 441896.8 14372 Q 443446 12455.6 444452.8 9998 L 446321.2 10588.4 Q 445043.2 13046 443323.6 15183.2 L 448705.6 14862.8 Q 447967.6 13560.8 446935.6 12135.2 L 448434.4 11520.8 L 448436.8 11522 Z M 459888.4 30666.8 Q 460651.6 30666.8 460896.4 30076.4 Q 461117.2 29486 461216.8 27447.2 Q 461928.4 27938 462839.2 28109.6 Q 462666.4 30616.4 462125.2 31451.6 Q 461560 32286.8 460037.2 32286.8 L 455760.4 32286.8 Q 453990.4 32286.8 453400 31748 Q 452785.6 31230.8 452785.6 29708 L 452785.6 21474.8 L 454580.8 21474.8 L 454580.8 25334 Q 458684.8 24005.6 460552 22776.8 L 461756.8 24129.2 Q 459422.8 25529.6 454580.8 26858 L 454580.8 29709.2 Q 454580.8 30323.6 454825.6 30495.2 Q 455071.6 30668 455930.8 30668 L 459887.2 30668 L 459888.4 30666.8 Z M 464582.8 20984 Q 465517.6 18698 465862 14693.6 L 467238.4 14890.4 Q 467017.6 18674 466009.6 21476 L 464584 20985.2 L 464582.8 20984 Z M 468121.6 10048.4 L 469940.8 10048.4 L 469940.8 32484.8 L 468121.6 32484.8 L 468121.6 10048.4 Z M 471390.4 13979.6 Q 472668.4 16289.6 473183.2 18083.6 L 471806.8 18747.2 Q 471365.2 17051.6 470111.2 14570 L 471389.2 13979.6 L 471390.4 13979.6 Z M 487044.4 29906 L 487044.4 31649.6 L 472054 31649.6 L 472054 29906 L 479082.4 29906 L 479082.4 23762 L 473870.8 23762 L 473870.8 22066.4 L 479082.4 22066.4 L 479082.4 16978.4 L 475493.2 16978.4 Q 474731.2 19264.4 473772.4 20787.2 Q 473255.2 20442.8 472150 19952 Q 474140.8 16953.2 475124.8 11177.6 L 476894.8 11474 Q 476501.2 13512.8 476010.4 15234.8 L 479082.4 15234.8 L 479082.4 10146.8 L 480900.4 10146.8 L 480900.4 15234.8 L 486455.2 15234.8 L 486455.2 16978.4 L 480900.4 16978.4 L 480900.4 22066.4 L 485915.2 22066.4 L 485915.2 23762 L 480900.4 23762 L 480900.4 29906 L 487044.4 29906 Z M 507025.6 30323.6 Q 508696 30323.6 509262.4 29487.2 Q 509753.2 28701.2 509998 25997.6 Q 510661.6 26464.4 511693.6 26734.4 Q 511399.6 29806.4 510564.4 30838.4 Q 509629.6 31994 507048.4 31994 L 498446.8 31994 Q 495695.2 31994 494736.4 31208 Q 493728.4 30420.8 493728.4 28136 L 493728.4 20466.8 L 489721.6 21720.8 L 489230.8 20074.4 L 493728.4 18696.8 L 493728.4 11717.6 L 495498.4 11717.6 L 495498.4 18155.6 L 500586.4 16582.4 L 500586.4 10094 L 502380.4 10094 L 502380.4 16042.4 L 508081.6 14272.4 L 508598.8 13878.8 L 509876.8 14444 L 509777.2 14788.4 Q 509653.6 21916.4 508991.2 23783.6 Q 508376.8 25430 507024.4 25626.8 Q 505943.2 25798.4 504149.2 25750.4 Q 504025.6 24645.2 503681.2 24054.8 Q 504541.6 24128 506138.8 24128 Q 507047.2 24128 507416.8 22972.4 Q 507907.6 21572 507980.8 16042.4 L 502378 17786 L 502378 27272 L 500584 27272 L 500584 18350 L 495496 19923.2 L 495496 28180.4 Q 495496 29482.4 496037.2 29901.2 Q 496602.4 30318.8 498372.4 30318.8 L 507023.2 30318.8 L 507025.6 30323.6 Z M 534256 15578 Q 533518 13856 531798.4 11915.6 L 533027.2 11228 Q 534797.2 13095.2 535559.2 14766.8 L 534257.2 15578 L 534256 15578 Z M 525530.8 14716.4 L 514374.4 14716.4 L 514374.4 13094 L 519607.6 13094 Q 519410.8 12455.6 518502.4 10415.6 L 520172.8 10047.2 Q 521057.2 11717.6 521476 13094 L 525530.8 13094 L 525530.8 14716.4 Z M 518060.8 24203.6 Q 517224.4 27840.8 515603.2 30150.8 Q 515012.8 29709.2 514274.8 29266.4 Q 515797.6 27251.6 516535.6 23883.2 L 518060.8 24203.6 Z M 517297.6 21107.6 L 522827.2 21107.6 L 522827.2 18156.8 L 517297.6 18156.8 L 517297.6 21107.6 Z M 521033.2 22581.2 L 521033.2 30544.4 Q 521033.2 31724 520295.2 32068.4 Q 519607.6 32388.8 517640.8 32339.6 Q 517567.6 31676 517126 30840.8 Q 518624.8 30890 519042.4 30840.8 Q 519386.8 30840.8 519386.8 30522.8 L 519386.8 22583.6 L 515700.4 22583.6 L 515700.4 16661.6 L 524522.8 16661.6 L 524522.8 22583.6 L 521033.2 22583.6 L 521033.2 22581.2 Z M 523762 28528.4 Q 523368.4 26637.2 522016 24203.6 L 523320.4 23613.2 Q 524744.8 26022.8 525138.4 27890 L 523762 28528.4 Z M 530569.6 18059.6 Q 529658.8 28307.6 525040 32535.2 Q 524549.2 31896.8 523712.8 31430 Q 528137.2 27596 528899.2 18059.6 L 525754 18059.6 L 525754 16413.2 L 529022.8 16413.2 Q 529122.4 14840 529170.4 10121.6 L 530890 10121.6 Q 530842 14716.4 530718.4 16412 L 536321.2 16412 L 536321.2 18058.4 L 530570.8 18058.4 L 530569.6 18059.6 Z M 534108.4 30520.4 Q 534673.6 30520.4 534821.2 30396.8 Q 535115.2 30273.2 535188.4 29732 Q 535264 29241.2 535312 27077.6 Q 535853.2 27594.8 536737.6 27815.6 Q 536688.4 29979.2 536467.6 30714.8 Q 536270.8 31404.8 535705.6 31673.6 Q 535238.8 31919.6 534304 31919.6 L 532730.8 31919.6 Q 531724 31919.6 531206.8 31502 Q 530641.6 31084.4 530641.6 29265.2 L 530641.6 20000 L 532264 20000 L 532264 29462 Q 532264 30273.2 532459.6 30396.8 Q 532705.6 30520.4 533050 30520.4 L 534107.2 30520.4 L 534108.4 30520.4 Z M 559987.6 11177.6 Q 557333.2 14546 552983.2 16954.4 Q 552172 16019.6 551657.2 15675.2 Q 555932.8 13562 558293.2 10466 L 559988.8 11177.6 L 559987.6 11177.6 Z M 560675.2 17888 Q 557750.8 21525.2 553204 24080 Q 552516.4 23244.8 551927.2 22778 Q 556399.6 20517.2 559004.8 17175.2 L 560676.4 17889.2 L 560675.2 17888 Z M 547526.8 19607.6 L 547526.8 13290.8 L 543570.4 13290.8 L 543570.4 19607.6 L 547526.8 19607.6 Z M 549295.6 21304.4 L 549295.6 32484.8 L 547525.6 32484.8 L 547525.6 21304.4 L 543545.2 21304.4 Q 543372.4 28848.8 539908 32658.8 Q 539341.6 31896.8 538530.4 31430 Q 541651.6 28037.6 541824.4 21304.4 L 538652.8 21304.4 L 538652.8 19608.8 L 541848.4 19608.8 L 541848.4 13292 L 539022.4 13292 L 539022.4 11572.4 L 551604.4 11572.4 L 551604.4 13292 L 549294.4 13292 L 549294.4 19608.8 L 551972.8 19608.8 L 551972.8 21304.4 L 549294.4 21304.4 L 549295.6 21304.4 Z M 561264.4 24449.6 Q 558119.2 29634.8 551927.2 32484.8 Q 551360.8 31625.6 550649.2 31035.2 Q 556693.6 28528.4 559544.8 23786 L 561264.4 24449.6 Z M 579672.4 10169.6 Q 582547.6 11620.4 584070.4 12972.8 L 582941.2 14225.6 Q 581368 12776 578590 11277.2 L 579671.2 10169.6 L 579672.4 10169.6 Z M 583922.8 18378.8 Q 582325.6 23194.4 579598 26684 Q 581047.6 30494 582890.8 30494 Q 583801.6 30494 584046.4 25948.4 Q 584784.4 26684 585619.6 26930 Q 585374.8 30051.2 584760.4 31180.4 Q 584146 32312 582744.4 32312 Q 580040.8 32312 578246.8 28281.2 Q 576010 30713.6 573184 32361.2 Q 572520.4 31450.4 571858 30909.2 Q 575150.8 29139.2 577508.8 26363.6 Q 576232 22332.8 575714.8 16016 L 567236.8 16016 L 567236.8 19211.6 L 573504.4 19211.6 L 573504.4 19997.6 Q 573331.6 27446 572717.2 28208 Q 572250.4 28822.4 571243.6 28919.6 Q 570259.6 28992.8 568319.2 28919.6 Q 568270 27960.8 567803.2 27198.8 Q 569228.8 27322.4 570408.4 27322.4 Q 570974.8 27322.4 571146.4 27052.4 Q 571589.2 26585.6 571710.4 20908.4 L 567238 20908.4 L 567238 21105.2 Q 567238 28944.8 564656.8 32679.2 Q 563969.2 31893.2 563134 31450.4 Q 565370.8 28133.6 565370.8 21078.8 L 565370.8 14223.2 L 575618.8 14223.2 Q 575519.2 12870.8 575470 10092.8 L 577362.4 10092.8 Q 577362.4 12453.2 577462 14223.2 L 585400 14223.2 L 585400 16017.2 L 577584.4 16017.2 Q 577978 21153.2 578936.8 24545.6 Q 580952.8 21597.2 582082 17910.8 L 583925.2 18377.6 L 583922.8 18378.8 Z M 608573.2 12897.2 Q 605083.6 16756.4 600020.8 19484 L 600020.8 30100.4 Q 600020.8 31796 598742.8 32165.6 Q 597736 32483.6 593705.2 32483.6 Q 593532.4 31624.4 592967.2 30665.6 Q 595718.8 30762.8 597464.8 30689.6 Q 598127.2 30665.6 598127.2 30099.2 L 598127.2 18574.4 Q 601740.4 16804.4 604960 13756.4 L 589158.4 13756.4 L 589158.4 11962.4 L 606706 11962.4 L 607148.8 11838.8 L 608573.2 12894.8 L 608573.2 12897.2 Z M 625728.4 13538 L 621280 13538 L 621280 16904 L 625728.4 16904 L 625728.4 13538 Z M 627521.2 13538 L 627521.2 16904 L 633320.8 16904 L 633320.8 30176 Q 633320.8 31822.4 632215.6 32190.8 Q 631304.8 32511.2 627691.6 32511.2 Q 627496 31479.2 627029.2 30668 Q 629363.2 30791.6 630912.4 30716 Q 631526.8 30692 631526.8 30126.8 L 631526.8 18624.8 L 627496 18624.8 Q 627396.4 19977.2 627248.8 21058.4 Q 630124 24351.2 631229.2 26342 L 630124 27743.6 Q 629068 25800.8 626807.2 23049.2 Q 625896.4 26588 623464 29021.6 Q 622873.6 28210.4 622159.6 27743.6 Q 625428.4 24695.6 625698.4 18624.8 L 621250 18624.8 Q 621152.8 20026.4 621005.2 21131.6 Q 622848.4 23343.2 623536 24621.2 L 622454.8 26070.8 Q 621815.2 24794 620538.4 23171.6 Q 619627.6 26637.2 617219.2 29021.6 Q 616728.4 28283.6 615966.4 27742.4 Q 619186 24694.4 619456 18623.6 L 615646 18623.6 L 615646 32510 L 613852 32510 L 613852 16904 L 619478.8 16904 L 619478.8 13538 L 612820 13538 L 612820 11768 L 634324 11768 L 634324 13538 L 627516.4 13538 L 627521.2 13538 Z M 647182 17273.6 L 649049.2 17273.6 L 649049.2 32484.8 L 647182 32484.8 L 647182 17273.6 Z M 649886.8 10809.2 Q 649320.4 11768 649223.2 11891.6 Q 653254 16683.2 659569.6 19755.2 Q 658710.4 20393.6 658243.6 21377.6 Q 652320.4 18305.6 648167.2 13317.2 Q 644186.8 18428 638166.4 21352.4 Q 637625.2 20393.6 636814 19706 Q 644480.8 16389.2 648290.8 10048.4 L 649889.2 10810.4 L 649886.8 10809.2 Z M 683678.8 23883.2 L 673602.4 23883.2 L 673602.4 32484.8 L 671735.2 32484.8 L 671735.2 23883.2 L 661805.2 23883.2 L 661805.2 22089.2 L 671735.2 22089.2 L 671735.2 13511.6 L 663084.4 13511.6 L 663084.4 11717.6 L 682302.4 11717.6 L 682302.4 13511.6 L 673603.6 13511.6 L 673603.6 22089.2 L 683680 22089.2 L 683680 23883.2 L 683678.8 23883.2 Z M 666400 14716.4 Q 668219.2 17912 668736.4 20246 L 667014.4 20836.4 Q 666425.2 18305.6 664802.8 15208.4 L 666400 14717.6 L 666400 14716.4 Z M 676279.6 20393.6 Q 677804.8 17838.8 678934 14594 L 680850.4 15135.2 Q 679204 18797.6 677827.6 20910.8 L 676278.4 20393.6 L 676279.6 20393.6 Z M 707688.4 13266.8 L 695696.8 13266.8 L 695696.8 11547.2 L 707688.4 11547.2 L 707688.4 13266.8 Z M 693336.4 10736 Q 690805.6 14176.4 687046 16830.8 Q 686284 15725.6 685963.6 15381.2 Q 689526.4 12972.8 691590.4 10048.4 L 693336.4 10736 Z M 694294 15921.2 Q 693238 17664.8 691590.4 19631.6 L 691590.4 32558 L 689772.4 32558 L 689772.4 21647.6 Q 688199.2 23244.8 686994.4 24203.6 Q 686330.8 23268.8 685716.4 22679.6 Q 689896 19731.2 692598.4 15281.6 L 694294 15921.2 Z M 708401.2 20000 L 704689.6 20000 L 704689.6 30150.8 Q 704689.6 31749.2 703609.6 32141.6 Q 702773.2 32411.6 698989.6 32411.6 Q 698842 31503.2 698399.2 30642.8 Q 701201.2 30716 702233.2 30668 Q 702847.6 30642.8 702847.6 30128 L 702847.6 20001.2 L 694639.6 20001.2 L 694639.6 18257.6 L 708402.4 18257.6 L 708402.4 20001.2 L 708401.2 20000 Z M 718624 15626 L 713464 15626 L 713464 20763.2 L 718624 20763.2 L 718624 15626 Z M 718624 28283.6 L 718624 22384.4 L 713464 22384.4 L 713464 28283.6 L 718624 28283.6 Z M 717494.8 10366.4 Q 716413.6 13463.6 716216.8 13978.4 L 720296.8 13978.4 L 720296.8 29928.8 L 713465.2 29928.8 L 713465.2 31869.2 L 711793.6 31869.2 L 711793.6 13978.4 L 714547.6 13978.4 Q 715285.6 11594 715530.4 9996.8 L 717497.2 10365.2 L 717494.8 10366.4 Z M 732313.6 14840 Q 731796.4 29585.6 730616.8 31035.2 Q 729929.2 31895.6 728676.4 32019.2 Q 727668.4 32140.4 725038 31992.8 Q 724940.8 30984.8 724423.6 30198.8 Q 726022 30346.4 728062 30346.4 Q 728773.6 30346.4 729067.6 29978 Q 730124.8 28846.4 730566.4 15599.6 L 724325.2 15599.6 Q 723193.6 18327.2 722014 19900.4 Q 721693.6 19606.4 720514 18868.4 Q 722922.4 15696.8 724274.8 9946.4 L 726020.8 10364 Q 725554 12280.4 724963.6 13902.8 L 732312.4 13902.8 L 732312.4 14837.6 L 732313.6 14840 Z M 726881.2 25923.2 Q 725752 23638.4 723146.8 20246 L 724572.4 19410.8 Q 727274.8 22851.2 728430.4 24964.4 L 726881.2 25923.2 Z M 737794 18009.2 L 736000 18009.2 L 736000 12676.4 L 745633.6 12676.4 Q 745019.2 11300 744650.8 10661.6 L 746420.8 10120.4 Q 747132.4 11176.4 747746.8 12675.2 L 756839.2 12675.2 L 756839.2 18008 L 754996 18008 L 754996 14370.8 L 737792.8 14370.8 L 737792.8 18008 L 737794 18009.2 Z M 756962.8 24546.8 L 747500.8 24546.8 L 747500.8 30076.4 Q 747500.8 31649.6 746297.2 32043.2 Q 745338.4 32387.6 741749.2 32387.6 Q 741577.6 31649.6 740987.2 30568.4 Q 741871.6 30593.6 744967.6 30593.6 Q 745607.2 30568.4 745607.2 30053.6 L 745607.2 24548 L 735973.6 24548 L 735973.6 22804.4 L 745607.2 22804.4 L 745607.2 18945.2 L 739315.6 18945.2 L 739315.6 17225.6 L 753470.8 17225.6 L 753470.8 18945.2 L 747498.4 18945.2 L 747498.4 22804.4 L 756960.4 22804.4 L 756960.4 24548 L 756962.8 24546.8 Z M 771881.2 20934.8 L 771881.2 24351.2 L 777532 24351.2 L 777532 20934.8 L 771881.2 20934.8 Z M 777533.2 29609.6 L 777533.2 25948.4 L 771882.4 25948.4 L 771882.4 29609.6 L 777533.2 29609.6 Z M 764630.8 29609.6 L 770087.2 29609.6 L 770087.2 25948.4 L 764630.8 25948.4 L 764630.8 29609.6 Z M 764630.8 20934.8 L 764630.8 24351.2 L 770087.2 24351.2 L 770087.2 20934.8 L 764630.8 20934.8 Z M 771881.2 19238 L 779351.2 19238 L 779351.2 32460.8 L 777532 32460.8 L 777532 31305.2 L 764629.6 31305.2 L 764629.6 32460.8 L 762835.6 32460.8 L 762835.6 19238 L 770084.8 19238 L 770084.8 15551.6 L 771880 15551.6 L 771880 19238 L 771881.2 19238 Z M 781121.2 12873.2 L 781121.2 17985.2 L 779278 17985.2 L 779278 14568.8 L 762713.2 14568.8 L 762713.2 17985.2 L 760919.2 17985.2 L 760919.2 12873.2 L 770381.2 12873.2 Q 769814.8 11472.8 769200.4 10464.8 L 771068.8 9899.6 Q 772051.6 11520.8 772592.8 12873.2 L 781121.2 12873.2 Z M 796358.8 17936 L 796358.8 24006.8 L 801053.2 24006.8 L 801053.2 17936 L 796358.8 17936 Z M 794564.8 25702.4 L 794564.8 17936 L 790091.2 17936 L 790091.2 29118.8 L 805894 29118.8 L 805894 30912.8 L 788200 30912.8 L 788200 17937.2 L 784634.8 17937.2 L 784634.8 16167.2 L 788200 16167.2 L 788200 10737.2 L 790091.2 10737.2 L 790091.2 16167.2 L 794564.8 16167.2 L 794564.8 10170.8 L 796358.8 10170.8 L 796358.8 16167.2 L 801053.2 16167.2 L 801053.2 10466 L 802920.4 10466 L 802920.4 16167.2 L 806582.8 16167.2 L 806582.8 17937.2 L 802920.4 17937.2 L 802920.4 25703.6 L 794564.8 25703.6 L 794564.8 25702.4 Z M 815578 23956.4 L 817421.2 23956.4 L 817421.2 25455.2 Q 817421.2 30519.2 812112.4 32656.4 Q 811694.8 31942.4 810859.6 31206.8 Q 815578 29436.8 815578 25380.8 L 815578 23955.2 L 815578 23956.4 Z M 813611.2 19116.8 L 819238 19116.8 L 819238 16462.4 L 813611.2 16462.4 L 813611.2 19116.8 Z M 813611.2 15011.6 L 819238 15011.6 L 819238 12406.4 L 813611.2 12406.4 L 813611.2 15011.6 Z M 826710.4 12406.4 L 821033.2 12406.4 L 821033.2 15011.6 L 826710.4 15011.6 L 826710.4 12406.4 Z M 826710.4 16462.4 L 821033.2 16462.4 L 821033.2 19116.8 L 826710.4 19116.8 L 826710.4 16462.4 Z M 823762 20663.6 Q 826661.2 23686.4 831428.8 24891.2 Q 830690.8 25529.6 830224 26440.4 Q 827642.8 25629.2 825210.4 23982.8 L 825210.4 32460.8 L 823342 32460.8 L 823342 23956.4 L 825161.2 23956.4 Q 822924.4 22359.2 821622.4 20663.6 L 818920 20663.6 Q 815848 24570.8 810293.2 26537.6 Q 809704 25605.2 809064.4 25038.8 Q 813758.8 23686.4 816707.2 20663.6 L 811817.2 20663.6 L 811817.2 10858.4 L 828577.6 10858.4 L 828577.6 20663.6 L 823762 20663.6 Z " fill-rule="nonzero" style="fill:#ffffff;;fill-opacity:1;"/>
</svg>