<svg version="1.1" x="0" y="0" width="100%" height="100%" viewBox="0 0 406118.4 40550.4" xmlns="http://www.w3.org/2000/svg">
  <path d="M 26677.2 22727.6 L 26677.2 16215.2 L 19624.8 16215.2 L 19624.8 22727.6 L 26677.2 22727.6 Z M 17731.2 22727.6 L 17731.2 16215.2 L 10702.8 16215.2 L 10702.8 22727.6 L 17731.2 22727.6 Z M 28545.6 14422.4 L 28545.6 25923.2 L 26677.2 25923.2 L 26677.2 24522.8 L 19624.8 24522.8 L 19624.8 32484.8 L 17732.4 32484.8 L 17732.4 24522.8 L 10704 24522.8 L 10704 26045.6 L 8910 26045.6 L 8910 14421.2 L 17732.4 14421.2 L 17732.4 10047.2 L 19624.8 10047.2 L 19624.8 14421.2 L 28546.8 14421.2 L 28545.6 14422.4 Z M 50073.6 25775.6 L 50073.6 27324.8 L 36680.4 27324.8 L 36680.4 25775.6 L 42333.6 25775.6 L 42333.6 21647.6 L 37712.4 21647.6 L 37712.4 20074.4 L 42333.6 20074.4 L 42333.6 16583.6 L 37024.8 16583.6 L 37024.8 14937.2 L 49582.8 14937.2 L 49582.8 16583.6 L 44053.2 16583.6 L 44053.2 20074.4 L 48968.4 20074.4 L 48968.4 21647.6 L 44053.2 21647.6 L 44053.2 25775.6 L 50073.6 25775.6 Z M 46755.6 22089.2 Q 48451.2 23564 49238.4 24767.6 L 47984.4 25505.6 Q 47296.8 24376.4 45601.2 22728.8 L 46756.8 22090.4 L 46755.6 22089.2 Z M 51499.2 29585.6 L 51499.2 12873.2 L 35058 12873.2 L 35058 29585.6 L 51499.2 29585.6 Z M 53391.6 11177.6 L 53391.6 32510 L 51499.2 32510 L 51499.2 31281.2 L 35058 31281.2 L 35058 32510 L 33238.8 32510 L 33238.8 11177.6 L 53392.8 11177.6 L 53391.6 11177.6 Z M 71871.6 16289.6 Q 70692 14692.4 67964.4 12800 L 69120 11744 Q 71823.6 13463.6 73125.6 15110 L 71871.6 16289.6 Z M 71331.6 22778 Q 69907.2 21034.4 67006.8 19191.2 L 68138.4 18110 Q 71110.8 19928 72536.4 21575.6 L 71331.6 22779.2 L 71331.6 22778 Z M 64966.8 24743.6 Q 64425.6 23711.6 62682 21081.2 L 62682 32460.8 L 60886.8 32460.8 L 60886.8 21598.4 Q 59143.2 25826 57324 28013.6 Q 57079.2 27299.6 56415.6 26367.2 Q 59020.8 23418.8 60643.2 18651.2 L 56760 18651.2 L 56760 16929.2 L 60888 16929.2 L 60888 13218.8 Q 59094 13563.2 57520.8 13784 Q 57349.2 13096.4 56979.6 12360.8 Q 62264.4 11524.4 64795.2 10395.2 L 65900.4 11844.8 Q 64498.8 12410 62680.8 12827.6 L 62680.8 16931.6 L 66294 16931.6 L 66294 18653.6 L 62680.8 18653.6 L 62680.8 19095.2 Q 63540 20054 66070.8 23322.8 L 64965.6 24748.4 L 64966.8 24743.6 Z M 76075.2 26046.8 L 76075.2 32460.8 L 74281.2 32460.8 L 74281.2 26340.8 L 66268.8 27669.2 L 65974.8 25923.2 L 74282.4 24597.2 L 74282.4 10048.4 L 76076.4 10048.4 L 76076.4 24300.8 L 78951.6 23859.2 L 79221.6 25529.6 L 76076.4 26046.8 L 76075.2 26046.8 Z M 83962.8 18968 L 82219.2 18968 L 82219.2 14126 L 86274 14126 Q 85611.6 12725.6 84160.8 11006 L 85686 10292 Q 87380.4 12234.8 88020 13635.2 L 87085.2 14126 L 92467.2 14126 Q 91876.8 12332 90624 10464.8 L 92197.2 9874.4 Q 93720 11987.6 94186.8 13610 L 92934 14124.8 L 96940.8 14124.8 Q 98438.4 12257.6 99422.4 10217.6 L 101265.6 10857.2 Q 100110 12576.8 98881.2 14123.6 L 102888 14123.6 L 102888 18965.6 L 101092.8 18965.6 L 101092.8 15772.4 L 83962.8 15772.4 L 83962.8 18965.6 L 83962.8 18968 Z M 103329.6 25554.8 L 93327.6 25554.8 L 93327.6 30249.2 Q 93327.6 31772 92146.8 32140.4 Q 91188 32460.8 87625.2 32460.8 Q 87477.6 31870.4 86863.2 30690.8 Q 89935.2 30814.4 90870 30714.8 Q 91508.4 30690.8 91508.4 30224 L 91508.4 25554.8 L 81727.2 25554.8 L 81727.2 23859.2 L 91508.4 23859.2 L 91508.4 22089.2 Q 93621.6 21327.2 95758.8 19901.6 L 85831.2 19901.6 L 85831.2 18279.2 L 97849.2 18279.2 L 98193.6 18182 L 99398.4 19090.4 Q 97112.4 21179.6 93328.8 22875.2 L 93328.8 23858 L 103330.8 23858 L 103330.8 25553.6 L 103329.6 25554.8 Z M 113947.2 22457.6 L 110996.4 23342 L 110996.4 30297.2 Q 110996.4 31698.8 110088 32116.4 Q 109350 32484.8 106771.2 32436.8 Q 106647.6 31722.8 106180.8 30764 Q 108195.6 30813.2 108712.8 30764 Q 109203.6 30764 109203.6 30297.2 L 109203.6 23883.2 L 106255.2 24743.6 L 105738 22949.6 Q 107385.6 22580 109203.6 22065.2 L 109203.6 16707.2 L 106058.4 16707.2 L 106058.4 14987.6 L 109203.6 14987.6 L 109203.6 10072.4 L 110997.6 10072.4 L 110997.6 14987.6 L 113725.2 14987.6 L 113725.2 16707.2 L 110997.6 16707.2 L 110997.6 21574.4 Q 112251.6 21228.8 113725.2 20787.2 L 113947.2 22457.6 Z M 117092.4 20960 Q 118369.2 24252.8 120705.6 26610.8 Q 123384 24202.4 124662 20958.8 L 117092.4 20958.8 L 117092.4 20960 Z M 127021.2 19706 Q 125522.4 24572 122032.8 27792.8 Q 124687.2 29954 128373.6 30962 Q 127735.2 31576.4 127194 32535.2 Q 123334.8 31355.6 120632.4 28971.2 Q 117681.6 31208 113650.8 32484.8 Q 113258.4 31526 112668 30838.4 Q 116427.6 29830.4 119326.8 27718.4 Q 116748 24940.4 115297.2 20984 L 115372.8 20960 L 114561.6 20960 L 114561.6 19264.4 L 119821.2 19264.4 L 119821.2 15602 L 114069.6 15602 L 114069.6 13906.4 L 119821.2 13906.4 L 119821.2 10048.4 L 121615.2 10048.4 L 121615.2 13906.4 L 127489.2 13906.4 L 127489.2 15602 L 121615.2 15602 L 121615.2 19264.4 L 125522.4 19264.4 L 125818.8 19191.2 L 127022.4 19706 L 127021.2 19706 Z M 148598.4 15281.6 Q 147172.8 13758.8 144224.4 11621.6 L 145552.8 10516.4 Q 148452 12507.2 149974.8 13980.8 L 148598.4 15282.8 L 148598.4 15281.6 Z M 143389.2 18035.6 Q 147223.2 24376.4 152876.4 27914 Q 152065.2 28528.4 151426.8 29487.2 Q 146659.2 26070.8 142652.4 19902.8 L 142652.4 32511.2 L 140685.6 32511.2 L 140685.6 20640.8 Q 136902 26711.6 131666.4 29684 Q 131052 28775.6 130314 28137.2 Q 136581.6 24916.4 140170.8 18036.8 L 131052 18036.8 L 131052 16241.6 L 140685.6 16241.6 L 140685.6 10097.6 L 142652.4 10097.6 L 142652.4 16241.6 L 152041.2 16241.6 L 152041.2 18036.8 L 143390.4 18036.8 L 143389.2 18035.6 Z M 167718 18944 Q 170593.2 27963.2 177376.8 30741.2 Q 176565.6 31503.2 176000.4 32462 Q 169363.2 29316.8 166218 20297.6 Q 164056.8 28972.4 156414 32462 Q 155947.2 31601.6 155038.8 30963.2 Q 162705.6 27621.2 164598 18946.4 L 155529.6 18946.4 L 155529.6 17079.2 L 164893.2 17079.2 Q 165213.6 14915.6 165261.6 10097.6 L 167228.4 10097.6 Q 167179.2 14547.2 166834.8 17078 L 176985.6 17078 L 176985.6 18945.2 L 167720.4 18945.2 L 167718 18944 Z M 182266.8 18968 L 180523.2 18968 L 180523.2 14126 L 184578 14126 Q 183915.6 12725.6 182464.8 11006 L 183990 10292 Q 185684.4 12234.8 186324 13635.2 L 185389.2 14126 L 190771.2 14126 Q 190180.8 12332 188928 10464.8 L 190501.2 9874.4 Q 192024 11987.6 192490.8 13610 L 191238 14124.8 L 195244.8 14124.8 Q 196742.4 12257.6 197726.4 10217.6 L 199569.6 10857.2 Q 198414 12576.8 197185.2 14123.6 L 201192 14123.6 L 201192 18965.6 L 199396.8 18965.6 L 199396.8 15772.4 L 182266.8 15772.4 L 182266.8 18965.6 L 182266.8 18968 Z M 201633.6 25554.8 L 191631.6 25554.8 L 191631.6 30249.2 Q 191631.6 31772 190450.8 32140.4 Q 189492 32460.8 185929.2 32460.8 Q 185781.6 31870.4 185167.2 30690.8 Q 188239.2 30814.4 189174 30714.8 Q 189812.4 30690.8 189812.4 30224 L 189812.4 25554.8 L 180031.2 25554.8 L 180031.2 23859.2 L 189812.4 23859.2 L 189812.4 22089.2 Q 191925.6 21327.2 194062.8 19901.6 L 184135.2 19901.6 L 184135.2 18279.2 L 196153.2 18279.2 L 196497.6 18182 L 197702.4 19090.4 Q 195416.4 21179.6 191632.8 22875.2 L 191632.8 23858 L 201634.8 23858 L 201634.8 25553.6 L 201633.6 25554.8 Z M 209571.6 14322.8 Q 208368 13438.4 205296 11595.2 L 206328 10269.2 Q 209376 11988.8 210628.8 12824 L 209571.6 14322.8 Z M 208416 20763.2 Q 207015.6 19779.2 204067.2 18206 L 205075.2 16880 Q 207532.8 18035.6 209449.2 19239.2 L 208416 20764.4 L 208416 20763.2 Z M 204729.6 31035.2 Q 206548.8 28062.8 208491.6 23638.4 L 209892 24743.6 Q 208417.2 28306.4 206378.4 32165.6 L 204730.8 31034 L 204729.6 31035.2 Z M 224366.4 22876.4 Q 221197.2 21008 219033.6 18305.6 L 219033.6 22336.4 L 217314 22336.4 L 217314 18329.6 Q 215421.6 20934.8 212570.4 22877.6 L 224367.6 22877.6 L 224366.4 22876.4 Z M 222843.6 30176 L 222843.6 27914 L 219033.6 27914 L 219033.6 30176 L 222843.6 30176 Z M 213774 30176 L 217411.2 30176 L 217411.2 27914 L 213774 27914 L 213774 30176 Z M 217411.2 24326 L 213774 24326 L 213774 26537.6 L 217411.2 26537.6 L 217411.2 24326 Z M 222843.6 24326 L 219033.6 24326 L 219033.6 26537.6 L 222843.6 26537.6 L 222843.6 24326 Z M 220753.2 18132.8 Q 223260 20738 226822.8 22090.4 Q 226135.2 22631.6 225594 23540 Q 225103.2 23295.2 224586 22998.8 L 224586 32387.6 L 222842.4 32387.6 L 222842.4 31649.6 L 213774 31649.6 L 213774 32436.8 L 212102.4 32436.8 L 212102.4 23171.6 Q 211660.8 23465.6 210825.6 23908.4 Q 210334.8 23170.4 209620.8 22532 Q 213086.4 20982.8 215544 18131.6 L 210284.4 18131.6 L 210284.4 16558.4 L 217312.8 16558.4 L 217312.8 12651.2 Q 215002.8 12896 211292.4 13142 Q 211219.2 12576.8 210849.6 11716.4 Q 219771.6 11127.2 223802.4 10070 L 225031.2 11446.4 Q 222573.6 12060.8 219034.8 12454.4 L 219034.8 16558.4 L 220681.2 16558.4 Q 221860.8 14421.2 222427.2 12675.2 L 224146.8 13216.4 Q 223138.8 15280.4 222400.8 16558.4 L 226309.2 16558.4 L 226309.2 18131.6 L 220754.4 18131.6 L 220753.2 18132.8 Z M 213945.6 13120.4 Q 214905.6 14693.6 215444.4 15897.2 L 213945.6 16536.8 Q 213627.6 15725.6 212522.4 13636.4 L 213946.8 13121.6 L 213945.6 13120.4 Z M 243782.4 13635.2 L 243782.4 15430.4 L 247468.8 15430.4 L 247468.8 13635.2 L 243782.4 13635.2 Z M 247468.8 16928 L 243782.4 16928 L 243782.4 18747.2 L 247468.8 18747.2 L 247468.8 16928 Z M 242060.4 13635.2 L 237342 13635.2 L 237342 12185.6 L 242060.4 12185.6 L 242060.4 10169.6 L 243782.4 10169.6 L 243782.4 12185.6 L 249115.2 12185.6 L 249115.2 15430.4 L 250809.6 15430.4 L 250809.6 16928 L 249115.2 16928 L 249115.2 20222 L 243782.4 20222 L 243782.4 22065.2 L 249580.8 22065.2 L 249580.8 23465.6 L 243782.4 23465.6 L 243782.4 25456.4 L 250491.6 25456.4 L 250491.6 26955.2 L 243782.4 26955.2 L 243782.4 29388.8 L 242060.4 29388.8 L 242060.4 26955.2 L 235965.6 26955.2 L 235965.6 25456.4 L 242060.4 25456.4 L 242060.4 23465.6 L 236997.6 23465.6 L 236997.6 22065.2 L 242060.4 22065.2 L 242060.4 20222 L 237170.4 20222 L 237170.4 18747.2 L 242060.4 18747.2 L 242060.4 16928 L 235744.8 16928 L 235744.8 15430.4 L 242060.4 15430.4 L 242060.4 13635.2 Z M 235868.4 18650 Q 235278 23786 233755.2 27275.6 Q 236678.4 30224 243706.8 30224 Q 249950.4 30224 251203.2 30200 Q 250688.4 30986 250515.6 31896.8 L 243660 31896.8 Q 236214 31896.8 233018.4 28775.6 Q 231716.4 30987.2 229970.4 32364.8 Q 229282.8 31504.4 228619.2 31110.8 Q 230487.6 29784.8 231840 27424.4 Q 230511.6 25630.4 229627.2 22706 L 230979.6 22164.8 Q 231594 24278 232576.8 25800.8 Q 233584.8 23319.2 234051.6 20026.4 L 230071.2 20026.4 Q 231644.4 17348 233584.8 13218.8 L 229284 13218.8 L 229284 11596.4 L 236190 11596.4 Q 234446.4 15234.8 232774.8 18404 L 234520.8 18404 L 234838.8 18354.8 L 235872 18651.2 L 235868.4 18650 Z M 260689.2 10662.8 Q 259681.2 13365.2 258231.6 16068.8 L 258231.6 32534 L 256461.6 32534 L 256461.6 18944 Q 255553.2 20270 254300.4 21695.6 Q 253807.2 20590.4 253266 19926.8 Q 256928.4 16068.8 258968.4 10145.6 L 260688 10662.8 L 260689.2 10662.8 Z M 275361.6 22286 L 275312.4 23048 Q 274920 29044.4 274182 29830.4 Q 273739.2 30371.6 272904 30444.8 Q 272240.4 30544.4 270816 30471.2 Q 270716.4 29487.2 270372 28872.8 Q 271159.2 28948.4 272142 28948.4 Q 272583.6 28948.4 272805.6 28726.4 Q 273272.4 28112 273566.4 24008 L 268184.4 24008 L 268184.4 32486 L 266438.4 32486 L 266438.4 24008 L 259729.2 24008 L 259729.2 22288.4 L 266438.4 22288.4 L 266438.4 19462.4 L 261081.6 19462.4 L 261081.6 17766.8 L 266438.4 17766.8 L 266438.4 15039.2 L 260467.2 15039.2 L 260467.2 13319.6 L 266438.4 13319.6 L 266438.4 10074.8 L 268184.4 10074.8 L 268184.4 13319.6 L 274746 13319.6 L 274746 15039.2 L 268184.4 15039.2 L 268184.4 17766.8 L 274034.4 17766.8 L 274034.4 19462.4 L 268184.4 19462.4 L 268184.4 22288.4 L 275360.4 22288.4 L 275361.6 22286 Z M 280891.2 17812.4 L 279097.2 17812.4 L 279097.2 12849.2 L 288583.2 12849.2 Q 288066 11595.2 287354.4 10466 L 289148.4 9900.8 Q 290229.6 11571.2 290744.4 12849.2 L 299101.2 12849.2 L 299101.2 17812.4 L 297234 17812.4 L 297234 14568.8 L 280890 14568.8 L 280890 17812.4 L 280891.2 17812.4 Z M 286323.6 19804.4 Q 285118.8 18378.8 282734.4 16977.2 L 283839.6 15821.6 Q 286297.2 17174 287478 18502.4 L 286322.4 19804.4 L 286323.6 19804.4 Z M 281382 19534.4 Q 284036.4 20984 285216 22236.8 L 284110.8 23613.2 Q 282907.2 22263.2 280326 20764.4 L 281382 19535.6 L 281382 19534.4 Z M 290869.2 26586.8 Q 296374.8 28577.6 299570.4 30938 L 298465.2 32338.4 Q 295293.6 29930 289984.8 27914 L 290869.2 26588 L 290869.2 26586.8 Z M 299667.6 24300.8 L 299667.6 25899.2 L 289516.8 25899.2 Q 287355.6 30690.8 279909.6 32410.4 Q 279540 31502 278877.6 30838.4 Q 285366 29462 287406 25899.2 L 278631.6 25899.2 L 278631.6 24300.8 L 288141.6 24300.8 Q 288978 21819.2 289149.6 15798.8 L 291042 15798.8 Q 290869.2 21500 290083.2 24302 L 299667.6 24302 L 299667.6 24300.8 Z M 308883.6 26734.4 L 302592 28480.4 L 302247.6 26955.2 Q 303033.6 26783.6 308712 25334 L 308883.6 26734.4 Z M 311538 21474.8 Q 311538 22016 311514 22236.8 Q 310996.8 30470 310014 31502 Q 309423.6 32140.4 308391.6 32213.6 Q 307604.4 32286.8 305491.2 32189.6 Q 305394 31281.2 304976.4 30641.6 Q 306426 30790.4 307778.4 30790.4 Q 308392.8 30790.4 308638.8 30494 Q 309424.8 29708 309842.4 22973.6 L 303304.8 22973.6 Q 303798 19460 304068 14568.8 L 305641.2 14642 Q 305419.2 17837.6 305026.8 21474.8 L 308049.6 21474.8 Q 308540.4 17640.8 308860.8 12749.6 L 303034.8 12749.6 L 303034.8 11152.4 L 310531.2 11152.4 Q 309990 18425.6 309621.6 21473.6 L 311538 21473.6 L 311538 21474.8 Z M 319304.4 10415.6 L 318763.2 11520.8 Q 321318 15330.8 325201.2 17888 Q 324586.8 18674 324292.8 19582.4 Q 320630.4 16880 317878.8 13046 Q 315445.2 17002.4 311710.8 19631.6 Q 311217.6 18869.6 310628.4 18182 Q 315494.4 15060.8 317706 9875.6 L 319304.4 10416.8 L 319304.4 10415.6 Z M 321735.6 19214 L 314462.4 19214 L 314462.4 17640.8 L 321735.6 17640.8 L 321735.6 19214 Z M 318124.8 26955.2 Q 317976 24646.4 317140.8 21107.6 L 318590.4 20910.8 Q 319401.6 24203.6 319647.6 26734.4 L 318124.8 26955.2 Z M 314289.6 21377.6 Q 315470.4 24449.6 315912 27177.2 L 314413.2 27594.8 Q 314168.4 25234.4 312864 21720.8 L 314289.6 21376.4 L 314289.6 21377.6 Z M 324342 21671.6 Q 322202.4 27004.4 320752.8 29708 L 324512.4 29708 L 324512.4 31305.2 L 312076.8 31305.2 L 312076.8 29708 L 319179.6 29708 Q 321195.6 25922 322669.2 21227.6 L 324340.8 21670.4 L 324342 21671.6 Z M 329502 16535.6 L 327732 16535.6 L 327732 12209.6 L 337611.6 12209.6 Q 337218 11325.2 336652.8 10318.4 L 338398.8 9801.2 Q 339234 11177.6 339651.6 12209.6 L 348744 12209.6 L 348744 16535.6 L 346900.8 16535.6 L 346900.8 13905.2 L 329500.8 13905.2 L 329500.8 16535.6 L 329502 16535.6 Z M 345624 23441.6 Q 344912.4 22533.2 344224.8 21869.6 Q 331371.6 22877.6 330657.6 23171.6 Q 330387.6 22114.4 330117.6 21500 Q 330781.2 21402.8 331789.2 20615.6 Q 333288 19583.6 335179.2 17667.2 L 330216 17667.2 L 330216 16070 L 346411.2 16070 L 346411.2 17667.2 L 337539.6 17667.2 Q 335523.6 19683.2 333386.4 21230 L 342872.4 20567.6 Q 341913.6 19683.2 340881.6 18848 L 342234 17987.6 Q 345526.8 20568.8 347049.6 22436 L 345624 23444 L 345624 23441.6 Z M 349089.6 30150.8 L 349089.6 31797.2 L 327438 31797.2 L 327438 30150.8 L 337292.4 30150.8 L 337292.4 26907.2 L 329674.8 26907.2 L 329674.8 25284.8 L 337292.4 25284.8 L 337292.4 22703.6 L 339135.6 22703.6 L 339135.6 25284.8 L 346926 25284.8 L 346926 26907.2 L 339135.6 26907.2 L 339135.6 30150.8 L 349089.6 30150.8 Z M 354619.2 17812.4 L 352825.2 17812.4 L 352825.2 12849.2 L 362311.2 12849.2 Q 361794 11595.2 361082.4 10466 L 362876.4 9900.8 Q 363957.6 11571.2 364472.4 12849.2 L 372829.2 12849.2 L 372829.2 17812.4 L 370962 17812.4 L 370962 14568.8 L 354618 14568.8 L 354618 17812.4 L 354619.2 17812.4 Z M 360051.6 19804.4 Q 358846.8 18378.8 356462.4 16977.2 L 357567.6 15821.6 Q 360025.2 17174 361206 18502.4 L 360050.4 19804.4 L 360051.6 19804.4 Z M 355110 19534.4 Q 357764.4 20984 358944 22236.8 L 357838.8 23613.2 Q 356635.2 22263.2 354054 20764.4 L 355110 19535.6 L 355110 19534.4 Z M 364597.2 26586.8 Q 370102.8 28577.6 373298.4 30938 L 372193.2 32338.4 Q 369021.6 29930 363712.8 27914 L 364597.2 26588 L 364597.2 26586.8 Z M 373395.6 24300.8 L 373395.6 25899.2 L 363244.8 25899.2 Q 361083.6 30690.8 353637.6 32410.4 Q 353268 31502 352605.6 30838.4 Q 359094 29462 361134 25899.2 L 352359.6 25899.2 L 352359.6 24300.8 L 361869.6 24300.8 Q 362706 21819.2 362877.6 15798.8 L 364770 15798.8 Q 364597.2 21500 363811.2 24302 L 373395.6 24302 L 373395.6 24300.8 Z M 387452.4 24227.6 L 385708.8 24227.6 L 385708.8 11252 L 396668.4 11252 L 396668.4 24227.6 L 394874.4 24227.6 L 394874.4 12874.4 L 387452.4 12874.4 L 387452.4 24227.6 Z M 384970.8 27398 L 376639.2 29879.6 L 376245.6 28109.6 L 379784.4 27150.8 L 379784.4 20465.6 L 376884 20465.6 L 376884 18770 L 379784.4 18770 L 379784.4 13437.2 L 376539.6 13437.2 L 376539.6 11717.6 L 384600 11717.6 L 384600 13437.2 L 381553.2 13437.2 L 381553.2 18770 L 384108 18770 L 384108 20465.6 L 381553.2 20465.6 L 381553.2 26634.8 Q 382167.6 26487.2 384722.4 25700 L 384968.4 27395.6 L 384970.8 27398 Z M 395857.2 30470 Q 396496.8 30470 396717.6 29708 Q 396889.2 28994 396988.8 26339.6 Q 397726.8 26880.8 398462.4 27028.4 Q 398290.8 30052.4 397873.2 30887.6 Q 397382.4 31846.4 395857.2 31846.4 L 393620.4 31846.4 Q 392343.6 31846.4 391826.4 31428.8 Q 391285.2 30962 391285.2 29782.4 L 391285.2 24621.2 Q 389762.4 29806.4 384429.6 32558 Q 383839.2 31649.6 383274 31232 Q 387427.2 29118.8 389048.4 25702.4 Q 390204 23268.8 390204 19655.6 L 390204 14937.2 L 391926 14937.2 L 391926 19704.8 Q 391926 21990.8 391483.2 23834 L 392982 23834 L 392982 29608.4 Q 392982 30125.6 393178.8 30297.2 Q 393350.4 30470 393867.6 30470 L 395858.4 30470 L 395857.2 30470 Z " fill-rule="nonzero" style="fill:#ffffff;;fill-opacity:1;"/>
</svg>