<svg version="1.1" x="0" y="0" width="100%" height="100%" viewBox="0 0 629504 130099.2" xmlns="http://www.w3.org/2000/svg">
  <path d="M 16349 32132.35 Q 16277.25 33350.35 16492.5 34461.6 Q 5525.25 36433.85 4449 37007.85 Q 4162 35970.1 3553 34428.35 Q 4555.75 34213.1 6347.75 32134.1 Q 7924.5 30557.35 10145.25 27440.6 Q 4949.5 28014.6 4198.75 28408.35 Q 3518 26292.6 3266 25720.35 Q 4020.25 25575.1 5310 23641.35 Q 8178.25 19448.35 10112 13927.1 L 12800 15038.35 Q 10327.25 20738.1 7065.25 25433.35 L 11832.25 25001.1 Q 13052 23139.1 14089.75 21201.85 L 16490.75 22671.85 Q 12800 28693.6 8391.75 33458.85 L 16349 32134.1 L 16349 32132.35 Z M 3481.25 41701.35 Q 5632 41344.35 16419 39158.6 L 16636 41629.6 Q 12728.25 42525.6 3913.5 44427.85 L 3481.25 41703.1 L 3481.25 41701.35 Z M 21116 35180.85 L 21116 42455.6 L 31581 42455.6 L 31581 35180.85 L 21116 35180.85 Z M 18534.75 32741.35 L 34230.5 32741.35 L 34230.5 46253.1 L 31579.25 46253.1 L 31579.25 44889.85 L 21114.25 44889.85 L 21114.25 46394.85 L 18533 46394.85 L 18533 32739.6 L 18534.75 32741.35 Z M 27638.25 21021.6 L 27638.25 26577.85 L 35128.25 26577.85 L 35128.25 29124.1 L 17640.5 29124.1 L 17640.5 26577.85 L 24915.25 26577.85 L 24915.25 21021.6 L 16706 21021.6 L 16706 18443.85 L 24915.25 18443.85 L 24915.25 13676.85 L 27638.25 13676.85 L 27638.25 18443.85 L 35702.25 18443.85 L 35702.25 21021.6 L 27638.25 21021.6 Z M 54444.75 27258.6 L 54444.75 23567.85 L 46380.75 23567.85 L 46380.75 27258.6 L 54444.75 27258.6 Z M 46380.75 21380.35 L 54444.75 21380.35 L 54444.75 17724.6 L 46380.75 17724.6 L 46380.75 21380.35 Z M 65342 17724.6 L 57206.25 17724.6 L 57206.25 21380.35 L 65342 21380.35 L 65342 17724.6 Z M 65342 23567.85 L 57206.25 23567.85 L 57206.25 27258.6 L 65342 27258.6 L 65342 23567.85 Z M 59427 35035.6 Q 64696.25 40269.85 72366.5 42851.1 Q 71363.75 43747.1 70539.5 45071.85 Q 62725.75 41916.6 57208 35968.35 L 57208 46433.35 L 54448.25 46433.35 L 54448.25 36145.1 Q 49109 42201.85 41115 45211.85 Q 40436 44100.6 39323 43027.85 Q 47171.75 40481.6 52225.75 35033.85 L 40219 35033.85 L 40219 32561.1 L 54448.25 32561.1 L 54448.25 29551.1 L 43696.25 29551.1 L 43696.25 15395.35 L 68175.25 15395.35 L 68175.25 29551.1 L 57208 29551.1 L 57208 32561.1 L 71437.25 32561.1 L 71437.25 35033.85 L 59430.5 35033.85 L 59427 35035.6 Z M 18539.6 83294.4 L 25028 83294.4 L 25028 85014 L 10257.2 85014 L 10257.2 83294.4 L 16721.6 83294.4 L 16721.6 76388.4 L 11216 76388.4 L 11216 74668.8 L 16721.6 74668.8 L 16721.6 69974.4 L 18540.8 69974.4 L 18540.8 74668.8 L 24070.4 74668.8 L 24070.4 76388.4 L 18540.8 76388.4 L 18540.8 83294.4 L 18539.6 83294.4 Z M 25026.8 66950.4 L 25026.8 68696.4 L 11631.2 68696.4 Q 10254.8 71547.6 8657.6 73708.8 L 8657.6 85506 L 6863.6 85506 L 6863.6 75872.4 Q 5658.8 77174.4 4012.4 78355.2 Q 3742.4 77592 3078.8 76707.6 Q 7035.2 73905.6 9566 68696.4 L 3668 68696.4 L 3668 66950.4 L 10377.2 66950.4 Q 11139.2 65083.2 11680.4 63142.8 L 13547.6 63609.6 Q 13130 65034 12368 66950.4 L 25025.6 66950.4 L 25026.8 66950.4 Z M 46826 65526 L 38592.8 65526 L 38592.8 67516.8 L 46826 67516.8 L 46826 65526 Z M 46826 68869.2 L 38592.8 68869.2 L 38592.8 70860 L 46826 70860 L 46826 68869.2 Z M 48569.6 72259.2 L 36921.2 72259.2 L 36921.2 64124.4 L 48569.6 64124.4 L 48569.6 72259.2 Z M 32744 76388.4 L 32744 83318.4 Q 32744 84670.8 31956.8 85088.4 Q 31218.8 85482 29057.6 85432.8 Q 28934 84646.8 28516.4 83736 Q 29499.2 83761.2 30654.8 83761.2 Q 31048.4 83761.2 31048.4 83343.6 L 31048.4 76977.6 Q 30016.4 77347.2 28270.4 77888.4 L 27803.6 76142.4 Q 29156 75748.8 31048.4 75134.4 L 31048.4 69777.6 L 28025.6 69777.6 L 28025.6 68082 L 31048.4 68082 L 31048.4 63166.8 L 32744 63166.8 L 32744 68082 L 35349.2 68082 L 35349.2 69777.6 L 32744 69777.6 L 32744 74593.2 L 35249.6 73758 L 35495.6 75429.6 L 32744 76388.4 Z M 38346.8 77641.2 L 38346.8 81427.2 L 46604 81427.2 L 46604 82753.2 L 36797.6 82753.2 L 36797.6 77641.2 L 38346.8 77641.2 Z M 44048 76142.4 Q 43778 77077.2 43360.4 77764.8 Q 45179.6 78944.4 46383.2 80049.6 L 45524 81033.6 Q 44639.6 80149.2 42772.4 78772.8 Q 41664.8 80295.6 40118 81180 Q 39848 80737.2 39208.4 80198.4 Q 41888 78723.6 42698 75972 L 44050.4 76143.6 L 44048 76142.4 Z M 49774.4 74864.4 Q 49406 83736 48594.8 84793.2 Q 48104 85431.6 47193.2 85504.8 Q 46530.8 85578 44908.4 85480.8 Q 44908.4 84793.2 44514.8 84105.6 Q 45843.2 84229.2 46382 84180 Q 46848.8 84204 47070.8 83910 Q 47685.2 83098.8 48003.2 75553.2 L 38320.4 75553.2 Q 37191.2 77323.2 35741.6 78577.2 Q 35248.4 77815.2 34659.2 77396.4 Q 37017.2 75405.6 38148.8 72285.6 L 39795.2 72530.4 Q 39598.4 73071.6 39131.6 74079.6 L 49773.2 74079.6 L 49773.2 74865.6 L 49774.4 74864.4 Z M 67101.2 73464 L 67101.2 66508.8 L 60269.6 66508.8 L 60269.6 73464 L 67101.2 73464 Z M 74423.6 75234 L 68967.2 75234 L 68967.2 85629.6 L 67100 85629.6 L 67100 75234 L 60194 75234 Q 59554.4 82262.4 54098 85702.8 Q 53386.4 84843.6 52648.4 84350.4 Q 57711.2 81254.4 58325.6 75234 L 52575.2 75234 L 52575.2 73464 L 58398.8 73464 Q 58424 73094.4 58424 72406.8 L 58424 66508.8 L 53483.6 66508.8 L 53483.6 64762.8 L 73661.6 64762.8 L 73661.6 66508.8 L 68967.2 66508.8 L 68967.2 73464 L 74423.6 73464 L 74423.6 75234 Z M 98632.4 75110.4 L 77546 75110.4 L 77546 73635.6 L 87130.4 73635.6 L 87130.4 71400 L 79733.6 71400 L 79733.6 69949.2 L 87130.4 69949.2 L 87130.4 67812 L 78528.8 67812 L 78528.8 66362.4 L 83567.6 66362.4 Q 82977.2 65010 82018.4 63732 L 83616.8 63166.8 Q 84845.6 64716 85360.4 65968.8 L 84401.6 66362.4 L 90842 66362.4 Q 91947.2 64642.8 92537.6 63144 L 94355.6 63634.8 Q 93569.6 65133.6 92709.2 66362.4 L 97551.2 66362.4 L 97551.2 67812 L 88973.6 67812 L 88973.6 69949.2 L 96494 69949.2 L 96494 71400 L 88973.6 71400 L 88973.6 73635.6 L 98632.4 73635.6 L 98632.4 75110.4 Z M 81329.6 83270.4 L 84698 83270.4 L 84698 78576 L 81329.6 78576 L 81329.6 83270.4 Z M 86368.4 78576 L 86368.4 83270.4 L 89760.8 83270.4 L 89760.8 78576 L 86368.4 78576 Z M 91430 78576 L 91430 83270.4 L 94871.6 83270.4 L 94871.6 78576 L 91430 78576 Z M 99172.4 83270.4 L 99172.4 84891.6 L 76980.8 84891.6 L 76980.8 83270.4 L 79610 83270.4 L 79610 77002.8 L 96665.6 77002.8 L 96665.6 83270.4 L 99172.4 83270.4 Z M 123699.2 75848.4 L 113672 75848.4 L 113672 83172 Q 113672 84867.6 112419.2 85236 Q 111435.2 85580.4 107601.2 85580.4 Q 107380.4 84648 106815.2 83713.2 Q 109493.6 83810.4 111140 83737.2 Q 111803.6 83713.2 111803.6 83148 L 111803.6 75848.4 L 101676.8 75848.4 L 101676.8 74029.2 L 111803.6 74029.2 L 111803.6 70490.4 Q 115072.4 68991.6 117947.6 66607.2 L 104110.4 66607.2 L 104110.4 64813.2 L 119937.2 64813.2 L 120330.8 64716 L 121707.2 65748 Q 118389.2 69016.8 113670.8 71425.2 L 113670.8 74030.4 L 123698 74030.4 L 123698 75849.6 L 123699.2 75848.4 Z M 133971.2 68720.4 L 128811.2 68720.4 L 128811.2 73857.6 L 133971.2 73857.6 L 133971.2 68720.4 Z M 133971.2 81378 L 133971.2 75478.8 L 128811.2 75478.8 L 128811.2 81378 L 133971.2 81378 Z M 132842 63460.8 Q 131760.8 66558 131564 67072.8 L 135644 67072.8 L 135644 83023.2 L 128812.4 83023.2 L 128812.4 84963.6 L 127140.8 84963.6 L 127140.8 67072.8 L 129894.8 67072.8 Q 130632.8 64688.4 130877.6 63091.2 L 132844.4 63459.6 L 132842 63460.8 Z M 147660.8 67934.4 Q 147143.6 82680 145964 84129.6 Q 145276.4 84990 144023.6 85113.6 Q 143015.6 85234.8 140385.2 85087.2 Q 140288 84079.2 139770.8 83293.2 Q 141369.2 83440.8 143409.2 83440.8 Q 144120.8 83440.8 144414.8 83072.4 Q 145472 81940.8 145913.6 68694 L 139672.4 68694 Q 138540.8 71421.6 137361.2 72994.8 Q 137040.8 72700.8 135861.2 71962.8 Q 138269.6 68791.2 139622 63040.8 L 141368 63458.4 Q 140901.2 65374.8 140310.8 66997.2 L 147659.6 66997.2 L 147659.6 67932 L 147660.8 67934.4 Z M 142228.4 79017.6 Q 141099.2 76732.8 138494 73340.4 L 139919.6 72505.2 Q 142622 75945.6 143777.6 78058.8 L 142228.4 79017.6 Z M 172998.8 73143.6 L 172998.8 75134.4 L 150683.6 75134.4 L 150683.6 73143.6 L 172998.8 73143.6 Z M 196395.2 64616.4 Q 191724.8 65845.2 183123.2 65894.4 Q 183026 65156.4 182705.6 64567.2 Q 191456 64370.4 195486.8 63338.4 L 196395.2 64615.2 L 196395.2 64616.4 Z M 189612.8 69704.4 Q 189146 68008.8 188358.8 66289.2 L 189760.4 65748 Q 190644.8 67518 191086.4 69064.8 L 189612.8 69704.4 Z M 180248 79902 L 180248 76339.2 L 177372.8 76339.2 L 177372.8 79902 L 180248 79902 Z M 177372.8 71276.4 L 177372.8 74766 L 180248 74766 L 180248 71276.4 L 177372.8 71276.4 Z M 177372.8 66288 L 177372.8 69704.4 L 180248 69704.4 L 180248 66288 L 177372.8 66288 Z M 189513.2 74323.2 Q 188160.8 82262.4 182730.8 85358.4 Q 182337.2 84646.8 181772 84105.6 Q 184180.4 82900.8 185802.8 80370 Q 185064.8 79558.8 184106 78772.8 L 184941.2 77788.8 Q 185949.2 78576 186464 79141.2 Q 187275.2 77568 187742 75478.8 L 185457.2 75478.8 Q 184376 78036 182877.2 79706.4 Q 182386.4 79288.8 181722.8 78970.8 L 181722.8 81549.6 L 177372.8 81549.6 L 177372.8 83662.8 L 175923.2 83662.8 L 175923.2 64665.6 L 181722.8 64665.6 L 181722.8 78747.6 Q 184032.8 76363.2 185040.8 72111.6 L 186514.4 72381.6 Q 186269.6 73364.4 185999.6 74078.4 L 188260.4 74078.4 L 188505.2 74029.2 L 189513.2 74323.2 Z M 194699.6 79484.4 L 196911.2 79484.4 L 196911.2 80934 L 194699.6 80934 L 194699.6 85531.2 L 193224.8 85531.2 L 193224.8 80934 L 189465.2 80934 Q 189761.6 78820.8 189809.6 76412.4 L 191235.2 76412.4 L 191063.6 79484.4 L 193224.8 79484.4 L 193224.8 75674.4 L 189614 75674.4 L 189614 74200.8 L 193224.8 74200.8 L 193224.8 72210 L 194699.6 72210 L 194699.6 74200.8 L 196836.8 74200.8 L 196836.8 75674.4 L 194699.6 75674.4 L 194699.6 79484.4 Z M 197157.2 69777.6 L 197157.2 73340.4 L 195510.8 73340.4 L 195510.8 71227.2 L 184352 71227.2 L 184352 73340.4 L 182754.8 73340.4 L 182754.8 69777.6 L 185409.2 69777.6 Q 184818.8 68302.8 183959.6 66729.6 L 185312 66115.2 Q 186417.2 68007.6 186858.8 69163.2 L 185655.2 69777.6 L 192290 69777.6 Q 193592 67958.4 194600 65600.4 L 196173.2 66238.8 Q 194895.2 68352 193912.4 69777.6 L 197156 69777.6 L 197157.2 69777.6 Z M 200990 68672.4 L 202833.2 68672.4 L 202833.2 85605.6 L 200990 85605.6 L 200990 68672.4 Z M 202760 63486 Q 204923.6 65402.4 205782.8 66949.2 L 204309.2 67933.2 Q 203374.4 66334.8 201359.6 64344 L 202760 63484.8 L 202760 63486 Z M 207995.6 79731.6 L 213843.2 79731.6 L 213843.2 76437.6 L 207995.6 76437.6 L 207995.6 79731.6 Z M 207995.6 74913.6 L 213843.2 74913.6 L 213843.2 71644.8 L 207995.6 71644.8 L 207995.6 74913.6 Z M 206349.2 70122 L 215565.2 70122 L 215565.2 81254.4 L 206349.2 81254.4 L 206349.2 70122 Z M 220995.2 83367.6 Q 220995.2 84768 220136 85161.6 Q 219448.4 85506 216965.6 85506 Q 216794 84597.6 216376.4 83786.4 Q 216891.2 83810.4 218710.4 83810.4 Q 219128 83810.4 219128 83368.8 L 219128 66262.8 L 207330.8 66262.8 L 207330.8 64543.2 L 220995.2 64543.2 L 220995.2 83368.8 L 220995.2 83367.6 Z M 226550 85038 Q 229473.2 83834.4 229646 81426 Q 229498.4 81450 229228.4 81450 Q 228441.2 81450 227926.4 81007.2 Q 227385.2 80541.6 227385.2 79705.2 Q 227385.2 78870 227950.4 78379.2 Q 228467.6 77936.4 229253.6 77936.4 Q 231342.8 77936.4 231342.8 80763.6 Q 231342.8 84843.6 227091.2 86342.4 L 226550 85038 Z M 270761.6 69974.4 L 264200 69974.4 L 264200 82753.2 Q 264200 84499.2 263020.4 84916.8 Q 262012.4 85309.2 258326 85261.2 Q 258154.4 84350.4 257661.2 83367.6 Q 260340.8 83491.2 261569.6 83418 Q 262257.2 83392.8 262257.2 82754.4 L 262257.2 70590 Q 257415.2 78528 250166 82657.2 Q 249551.6 81673.2 248764.4 81034.8 Q 255792.8 77472 260462 69975.6 L 249551.6 69975.6 L 249551.6 68132.4 L 262257.2 68132.4 L 262257.2 63144 L 264197.6 63144 L 264197.6 68132.4 L 270759.2 68132.4 L 270759.2 69975.6 L 270761.6 69974.4 Z M 288825.2 73881.6 Q 287105.6 73881.6 286515.2 73340.4 Q 285924.8 72825.6 285924.8 71326.8 L 285924.8 63216 L 287694.8 63216 L 287694.8 67320 Q 290988.8 66238.8 293397.2 65010 L 294626 66336 Q 292292 67443.6 287694.8 68820 L 287694.8 71301.6 Q 287694.8 71892 287940.8 72063.6 Q 288185.6 72236.4 288996.8 72236.4 L 292905.2 72236.4 Q 293592.8 72236.4 293813.6 71719.2 Q 294034.4 71204.4 294134 69385.2 Q 294648.8 69828 295754 70098 Q 295582.4 72333.6 295041.2 73095.6 Q 294500 73882.8 293050.4 73882.8 L 288822.8 73882.8 L 288825.2 73881.6 Z M 281820.8 79165.2 L 281820.8 76929.6 L 276635.6 76929.6 L 276635.6 79165.2 L 281820.8 79165.2 Z M 276635.6 73390.8 L 276635.6 75478.8 L 281820.8 75478.8 L 281820.8 73390.8 L 276635.6 73390.8 Z M 283616 83491.2 Q 283616 84843.6 282755.6 85212 Q 282041.6 85532.4 279486.8 85532.4 Q 279315.2 84648 278896.4 83860.8 Q 280518.8 83934 281403.2 83860.8 Q 281820.8 83860.8 281820.8 83467.2 L 281820.8 80592 L 276635.6 80592 L 276635.6 85580.4 L 274940 85580.4 L 274940 71842.8 L 283617.2 71842.8 L 283617.2 83492.4 L 283616 83491.2 Z M 281576 64616.4 Q 283934 67713.6 284721.2 69925.2 L 283122.8 70636.8 Q 282902 70022.4 282581.6 69334.8 Q 275258 69876 274496 70146 Q 274175.6 68990.4 273905.6 68425.2 Q 274348.4 68301.6 275036 67466.4 Q 276585.2 65550 277592 63092.4 L 279460.4 63682.8 Q 278182.4 66140.4 276462.8 68277.6 L 281844.8 67957.2 Q 281106.8 66655.2 280074.8 65229.6 L 281573.6 64615.2 L 281576 64616.4 Z M 293027.6 83761.2 Q 293790.8 83761.2 294035.6 83170.8 Q 294256.4 82580.4 294356 80541.6 Q 295067.6 81032.4 295978.4 81204 Q 295805.6 83710.8 295264.4 84546 Q 294699.2 85381.2 293176.4 85381.2 L 288899.6 85381.2 Q 287129.6 85381.2 286539.2 84842.4 Q 285924.8 84325.2 285924.8 82802.4 L 285924.8 74569.2 L 287720 74569.2 L 287720 78428.4 Q 291824 77100 293691.2 75871.2 L 294896 77223.6 Q 292562 78624 287720 79952.4 L 287720 82803.6 Q 287720 83418 287964.8 83589.6 Q 288210.8 83762.4 289070 83762.4 L 293026.4 83762.4 L 293027.6 83761.2 Z M 301605.2 73611.6 L 301605.2 80860.8 L 304308.8 80860.8 L 304308.8 73611.6 L 301605.2 73611.6 Z M 301605.2 82507.2 L 301605.2 84474 L 300032 84474 L 300032 75602.4 Q 299417.6 76758 298754 77593.2 Q 298436 76513.2 297918.8 75652.8 Q 300228.8 72481.2 301358 66141.6 L 298434.8 66141.6 L 298434.8 64446 L 306617.6 64446 L 306617.6 66141.6 L 303080 66141.6 Q 302513.6 69213.6 301581.2 71989.2 L 305856.8 71989.2 L 305856.8 82507.2 L 301605.2 82507.2 Z M 317922.8 78058.8 L 317922.8 75134.4 L 314409.2 75134.4 L 314409.2 78058.8 L 317922.8 78058.8 Z M 312761.6 78058.8 L 312761.6 75134.4 L 309568.4 75134.4 L 309568.4 75872.4 Q 309568.4 76953.6 309495.2 78058.8 L 312762.8 78058.8 L 312761.6 78058.8 Z M 310673.6 66729.6 Q 309862.4 68254.8 309051.2 69384 L 313254.8 69384 Q 314286.8 68131.2 315048.8 66729.6 L 310674.8 66729.6 L 310673.6 66729.6 Z M 309568.4 73660.8 L 312761.6 73660.8 L 312761.6 70957.2 L 309568.4 70957.2 L 309568.4 73660.8 Z M 317922.8 70957.2 L 314409.2 70957.2 L 314409.2 73660.8 L 317922.8 73660.8 L 317922.8 70957.2 Z M 319668.8 83391.6 Q 319668.8 84720 318857.6 85088.4 Q 318243.2 85382.4 315686 85382.4 Q 315588.8 84572.4 315219.2 83761.2 Q 316914.8 83834.4 317529.2 83785.2 Q 317922.8 83785.2 317922.8 83367.6 L 317922.8 79657.2 L 314409.2 79657.2 L 314409.2 84693.6 L 312761.6 84693.6 L 312761.6 79657.2 L 309297.2 79657.2 Q 308682.8 83464.8 306617.6 85628.4 Q 306028.4 84964.8 305217.2 84596.4 Q 307871.6 81818.4 307871.6 75871.2 L 307871.6 70882.8 Q 307184 71644.8 306642.8 72162 Q 306273.2 71522.4 305537.6 70786.8 Q 308830.4 67886.4 310526 63070.8 L 312123.2 63488.4 L 311435.6 65184 L 316104.8 65184 L 316374.8 65108.4 L 317530.4 65895.6 Q 316719.2 67518 315196.4 69385.2 L 319670 69385.2 L 319670 83392.8 L 319668.8 83391.6 Z M 332078 76904.4 Q 332177.6 77815.2 332398.4 78477.6 Q 326009.6 81352.8 325295.6 81967.2 Q 324927.2 80935.2 324434 80370 Q 325515.2 79779.6 325515.2 78576 L 325515.2 71890.8 L 322616 72505.2 L 322295.6 70858.8 L 325515.2 70171.2 L 325515.2 64124.4 L 327285.2 64124.4 L 327285.2 69801.6 L 331906.4 68818.8 L 332226.8 70465.2 L 327286.4 71521.2 L 327286.4 78919.2 L 332078 76903.2 L 332078 76904.4 Z M 344538.8 65304 Q 344538.8 66067.2 344514.8 66312 Q 344072 82704 342916.4 84202.8 Q 342228.8 85113.6 341024 85261.2 Q 340017.2 85358.4 337559.6 85261.2 Q 337510.4 84229.2 336993.2 83392.8 Q 338418.8 83516.4 340262 83516.4 Q 340925.6 83516.4 341246 83074.8 Q 342278 81919.2 342695.6 67050 L 337632.8 67050 Q 337460 74202 336428 77740.8 Q 334854.8 83024.4 330554 85555.2 Q 330012.8 84620.4 329201.6 84129.6 Q 333305.6 81868.8 334756.4 76977.6 Q 335688.8 73784.4 335837.6 67050 L 331881.2 67050 L 331881.2 65304 L 344537.6 65304 L 344538.8 65304 Z M 352083.2 77862 Q 354222.8 76929.6 354886.4 76683.6 L 355254.8 78306 Q 353583.2 79092 347709.2 81697.2 L 346997.6 79879.2 Q 348350 79412.4 350364.8 78552 L 350364.8 70761.6 L 347219.6 70761.6 L 347219.6 69018 L 350364.8 69018 L 350364.8 63439.2 L 352084.4 63439.2 L 352084.4 69018 L 354960.8 69018 L 354960.8 70761.6 L 352084.4 70761.6 L 352084.4 77864.4 L 352083.2 77862 Z M 366239.6 83391.6 Q 367295.6 83391.6 367640 82704 Q 367960.4 82065.6 368084 79902 Q 368846 80443.2 369730.4 80616 Q 369509.6 83221.2 368870 84080.4 Q 368158.4 85039.2 366291.2 85039.2 L 360268.4 85039.2 Q 358155.2 85039.2 357419.6 84376.8 Q 356656.4 83689.2 356656.4 81746.4 L 356656.4 74005.2 L 354716 74816.4 L 354004.4 73243.2 L 356657.6 72111.6 L 356657.6 65426.4 L 358403.6 65426.4 L 358403.6 71373.6 L 361696.4 69973.2 L 361696.4 63141.6 L 363442.4 63141.6 L 363442.4 69260.4 L 366686 67884 L 367424 67269.6 L 368702 67760.4 L 368602.4 68104.8 Q 368602.4 76117.2 368357.6 77296.8 Q 368184.8 78622.8 367055.6 78919.2 Q 366368 79090.8 364745.6 79090.8 Q 364572.8 78009.6 364302.8 77518.8 Q 364893.2 77544 365950.4 77544 Q 366539.6 77544 366687.2 76904.4 Q 366860 76069.2 366860 69679.2 L 363443.6 71130 L 363443.6 80149.2 L 361697.6 80149.2 L 361697.6 71865.6 L 358404.8 73267.2 L 358404.8 81771.6 Q 358404.8 82754.4 358773.2 83074.8 Q 359142.8 83392.8 360322.4 83392.8 L 366245.6 83392.8 L 366239.6 83391.6 Z M 378748.4 72186 Q 378748.4 72727.2 378724.4 73021.2 L 383343.2 73021.2 L 383343.2 74767.2 L 378624.8 74767.2 Q 378576.8 75357.6 378380 76413.6 Q 379853.6 77863.2 383270 81746.4 L 382041.2 83295.6 Q 380739.2 81428.4 377963.6 78280.8 Q 376562 82902 372875.6 85532.4 Q 372358.4 84696 371596.4 84181.2 Q 376193.6 80912.4 376808 74768.4 L 371867.6 74768.4 L 371867.6 73022.4 L 376930.4 73022.4 L 376930.4 68132.4 L 375063.2 68132.4 Q 374080.4 70590 373072.4 71990.4 Q 372654.8 71572.8 371573.6 70934.4 Q 373588.4 68280 374621.6 63144 L 376391.6 63488.4 Q 376145.6 64840.8 375628.4 66438 L 382632.8 66438 L 382632.8 68133.6 L 378749.6 68133.6 L 378749.6 72188.4 L 378748.4 72186 Z M 391086.8 81230.4 L 391086.8 66999.6 L 385901.6 66999.6 L 385901.6 81230.4 L 391086.8 81230.4 Z M 392903.6 65280 L 392903.6 84646.8 L 391085.6 84646.8 L 391085.6 82951.2 L 385900.4 82951.2 L 385900.4 84891.6 L 384130.4 84891.6 L 384130.4 65280 L 392903.6 65280 Z M 414604.4 71374.8 L 406445.6 71374.8 L 406445.6 73390.8 L 414604.4 73390.8 L 414604.4 71374.8 Z M 414604.4 74668.8 L 406445.6 74668.8 L 406445.6 76732.8 L 414604.4 76732.8 L 414604.4 74668.8 Z M 414604.4 78009.6 L 406445.6 78009.6 L 406445.6 80074.8 L 414604.4 80074.8 L 414604.4 78009.6 Z M 408854 69974.4 Q 409271.6 68646 409395.2 67910.4 L 402957.2 67910.4 L 402957.2 66385.2 L 407110.4 66385.2 Q 406617.2 65229.6 405461.6 63682.8 L 406986.8 63043.2 Q 408263.6 64616.4 408756.8 65797.2 L 407478.8 66386.4 L 412000.4 66386.4 Q 413156 64813.2 413894 63166.8 L 415664 63684 Q 414410 65624.4 413871.2 66386.4 L 418466 66386.4 L 418466 67911.6 L 411437.6 67911.6 Q 410994.8 69016.8 410553.2 69975.6 L 416403.2 69975.6 L 416403.2 81452.4 L 404729.6 81452.4 L 404729.6 69975.6 L 408857.6 69975.6 L 408854 69974.4 Z M 400425.2 69090 Q 399344 67344 396959.6 64959.6 L 398336 64100.4 Q 400769.6 66336 401925.2 68082 L 400426.4 69090 L 400425.2 69090 Z M 401752.4 81205.2 Q 402022.4 81328.8 402563.6 81697.2 L 403619.6 82360.8 Q 405536 83392.8 409960.4 83392.8 Q 414948.8 83392.8 418808 82951.2 Q 418365.2 84007.2 418292 84769.2 Q 413943.2 85015.2 409936.4 85015.2 Q 405341.6 85015.2 403252.4 83810.4 Q 401015.6 82484.4 400868 82484.4 Q 399885.2 82484.4 397500.8 85286.4 L 396395.6 83811.6 Q 398508.8 81698.4 399982.4 81133.2 L 399982.4 73588.8 L 396590 73588.8 L 396590 71866.8 L 401751.2 71866.8 L 401751.2 81206.4 L 401752.4 81205.2 Z M 428441.6 64738.8 Q 427581.2 66213.6 426180.8 67860 Q 427803.2 70981.2 427803.2 76314 Q 427803.2 82654.8 426574.4 84349.2 Q 426033.2 84988.8 425196.8 85136.4 Q 424140.8 85357.2 422421.2 85233.6 Q 422421.2 84325.2 421904 83490 Q 423575.6 83587.2 424460 83514 Q 424974.8 83440.8 425244.8 83072.4 Q 426056 82015.2 426056 76288.8 Q 426056 75453.6 426032 75036 Q 424188.8 77838 422075.6 79557.6 Q 421534.4 78673.2 420846.8 78182.4 Q 423942.8 76093.2 425786 72309.6 Q 425492 70466.4 424926.8 69188.4 Q 423428 70687.2 421953.2 71719.2 Q 421659.2 71228.4 420774.8 70466.4 Q 422518.4 69237.6 424091.6 67591.2 Q 423084.8 66042 421586 64716 L 422862.8 63732 Q 424164.8 64863.6 425222 66289.2 Q 426401.6 64863.6 427040 63658.8 L 428441.6 64740 L 428441.6 64738.8 Z M 431145.2 74250 L 431145.2 77618.4 L 434904.8 77618.4 L 434904.8 74250 L 431145.2 74250 Z M 440361.2 74250 L 436575.2 74250 L 436575.2 77618.4 L 440361.2 77618.4 L 440361.2 74250 Z M 440361.2 82680 L 440361.2 79214.4 L 436575.2 79214.4 L 436575.2 82680 L 440361.2 82680 Z M 431145.2 82680 L 434904.8 82680 L 434904.8 79214.4 L 431145.2 79214.4 L 431145.2 82680 Z M 429473.6 72603.6 L 442106 72603.6 L 442106 85458 L 440362.4 85458 L 440362.4 84302.4 L 431146.4 84302.4 L 431146.4 85579.2 L 429474.8 85579.2 L 429474.8 72603.6 L 429473.6 72603.6 Z M 443014.4 66656.4 L 443014.4 68328 L 439697.6 68328 L 439697.6 71521.2 L 437927.6 71521.2 L 437927.6 68328 L 433626.8 68328 L 433626.8 71521.2 L 431856.8 71521.2 L 431856.8 68328 L 428391.2 68328 L 428391.2 66656.4 L 431856.8 66656.4 L 431856.8 63166.8 L 433626.8 63166.8 L 433626.8 66656.4 L 437927.6 66656.4 L 437927.6 63166.8 L 439697.6 63166.8 L 439697.6 66656.4 L 443014.4 66656.4 Z M 462995.6 65550 L 450290 65550 L 450290 67540.8 L 462995.6 67540.8 L 462995.6 65550 Z M 462995.6 68869.2 L 450290 68869.2 L 450290 70860 L 462995.6 70860 L 462995.6 68869.2 Z M 464814.8 72259.2 L 448496 72259.2 L 448496 64148.4 L 464814.8 64148.4 L 464814.8 72259.2 Z M 457809.2 83245.2 Q 459137.6 83392.8 460710.8 83392.8 Q 466707.2 83392.8 467960 83368.8 Q 467493.2 84154.8 467321.6 85114.8 L 460636.4 85114.8 Q 456680 85114.8 454516.4 84303.6 Q 452009.6 83368.8 450584 81008.4 Q 449158.4 83835.6 446750 85629.6 Q 446235.2 84942 445398.8 84327.6 Q 449134.4 81919.2 450166.4 76340.4 L 452009.6 76586.4 Q 451788.8 77742 451371.2 79044 Q 452673.2 82066.8 456015.2 82951.2 L 456015.2 75553.2 L 445938.8 75553.2 L 445938.8 73906.8 L 467516 73906.8 L 467516 75553.2 L 457809.2 75553.2 L 457809.2 78280.8 L 465920 78280.8 L 465920 79903.2 L 457809.2 79903.2 L 457809.2 83245.2 Z M 489660.8 83097.6 Q 490323.2 83097.6 490545.2 82386 Q 490766 81696 490839.2 79411.2 Q 491626.4 79976.4 492510.8 80149.2 Q 492338 82851.6 491820.8 83786.4 Q 491255.6 84794.4 489756.8 84794.4 L 486021.2 84794.4 Q 484374.8 84794.4 483809.6 84180 Q 483244.4 83540.4 483244.4 81796.8 L 483244.4 66460.8 L 477197.6 66460.8 Q 476535.2 68600.4 475624.4 70467.6 L 480368 70467.6 L 480712.4 70394.4 L 481841.6 70836 Q 479826.8 81625.2 471372.8 85263.6 Q 470758.4 84255.6 470070.8 83812.8 Q 474198.8 82166.4 476632.4 78973.2 Q 475280 77448 473240 75752.4 L 474345.2 74475.6 Q 476385.2 76096.8 477663.2 77474.4 Q 478991.6 75237.6 479727.2 72189.6 L 474738.8 72189.6 Q 473216 74941.2 471323.6 76687.2 Q 470585.6 75876 469996.4 75507.6 Q 473462 72336 475280 66462 L 470464.4 66462 L 470464.4 64692 L 492140 64692 L 492140 66462 L 485061.2 66462 L 485061.2 73982.4 Q 488429.6 71697.6 490199.6 69854.4 L 491576 71329.2 Q 489388.4 73196.4 485062.4 75825.6 L 485062.4 81798 Q 485062.4 82609.2 485284.4 82854 Q 485481.2 83100 486243.2 83100 L 489659.6 83100 L 489660.8 83097.6 Z M 512147.6 65550 L 499442 65550 L 499442 67540.8 L 512147.6 67540.8 L 512147.6 65550 Z M 512147.6 68869.2 L 499442 68869.2 L 499442 70860 L 512147.6 70860 L 512147.6 68869.2 Z M 513966.8 72259.2 L 497648 72259.2 L 497648 64148.4 L 513966.8 64148.4 L 513966.8 72259.2 Z M 506961.2 83245.2 Q 508289.6 83392.8 509862.8 83392.8 Q 515859.2 83392.8 517112 83368.8 Q 516645.2 84154.8 516473.6 85114.8 L 509788.4 85114.8 Q 505832 85114.8 503668.4 84303.6 Q 501161.6 83368.8 499736 81008.4 Q 498310.4 83835.6 495902 85629.6 Q 495387.2 84942 494550.8 84327.6 Q 498286.4 81919.2 499318.4 76340.4 L 501161.6 76586.4 Q 500940.8 77742 500523.2 79044 Q 501825.2 82066.8 505167.2 82951.2 L 505167.2 75553.2 L 495090.8 75553.2 L 495090.8 73906.8 L 516668 73906.8 L 516668 75553.2 L 506961.2 75553.2 L 506961.2 78280.8 L 515072 78280.8 L 515072 79903.2 L 506961.2 79903.2 L 506961.2 83245.2 Z M 524999.6 67467.6 Q 523526 66435.6 520454 64764 L 521462 63462 Q 524237.6 64790.4 526056.8 65994 L 524999.6 67468.8 L 524999.6 67467.6 Z M 523770.8 74127.6 Q 522003.2 72922.8 519249.2 71473.2 L 520257.2 70144.8 Q 523280 71643.6 524805.2 72627.6 L 523772 74126.4 L 523770.8 74127.6 Z M 519839.6 84032.4 Q 521952.8 81081.6 524483.6 76166.4 L 525809.6 77371.2 Q 523745.6 81548.4 521361.2 85260 L 519838.4 84031.2 L 519839.6 84032.4 Z M 538222.4 77788.8 L 529473.2 77788.8 L 529473.2 82851.6 L 538222.4 82851.6 L 538222.4 77788.8 Z M 534830 72062.4 L 534830 76093.2 L 539967.2 76093.2 L 539967.2 85458 L 538221.2 85458 L 538221.2 84547.2 L 529472 84547.2 L 529472 85579.2 L 527800.4 85579.2 L 527800.4 76093.2 L 533085.2 76093.2 L 533085.2 72062.4 L 526006.4 72062.4 L 526006.4 70292.4 L 533085.2 70292.4 L 533085.2 66312 Q 530578.4 66681.6 527679.2 66975.6 Q 527579.6 66385.2 527186 65426.4 Q 535395.2 64567.2 539081.6 63238.8 L 540531.2 64664.4 Q 538197.2 65451.6 534828.8 66040.8 L 534828.8 70292.4 L 541563.2 70292.4 L 541563.2 72062.4 L 534828.8 72062.4 L 534830 72062.4 Z M 550142 78796.8 Q 551247.2 79902 551247.2 81451.2 Q 551247.2 83000.4 550142 84105.6 Q 549060.8 85210.8 547487.6 85210.8 Q 545964.8 85210.8 544857.2 84105.6 Q 543752 83000.4 543752 81451.2 Q 543752 79902 544857.2 78796.8 Q 545964.8 77715.6 547487.6 77715.6 Q 549060.8 77715.6 550142 78796.8  Z M 549257.6 83221.2 Q 549969.2 82507.2 549969.2 81451.2 Q 549969.2 80419.2 549257.6 79705.2 Q 548519.6 78969.6 547487.6 78969.6 Q 546479.6 78969.6 545741.6 79705.2 Q 545003.6 80443.2 545003.6 81451.2 Q 545003.6 82483.2 545741.6 83221.2 Q 546479.6 83959.2 547487.6 83959.2 Q 548543.6 83959.2 549257.6 83221.2  Z M 580346 81278.4 L 580493.6 83097.6 L 568772 85285.2 L 568475.6 83344.8 Q 568697.6 83319.6 569409.2 83196 L 570441.2 83024.4 L 570441.2 68106 L 572211.2 68106 L 572211.2 82704 L 575013.2 82237.2 L 575013.2 63166.8 L 576832.4 63166.8 L 576832.4 70687.2 L 580346 70687.2 L 580346 72457.2 L 576832.4 72457.2 L 576832.4 81894 L 580346 81279.6 L 580346 81278.4 Z M 588012.8 83048.4 Q 588776 83048.4 588996.8 82164 Q 589217.6 81402 589317.2 78699.6 Q 590079.2 79214.4 591062 79508.4 Q 590890.4 82580.4 590349.2 83637.6 Q 589758.8 84817.2 588161.6 84817.2 L 584450 84817.2 Q 582754.4 84817.2 582165.2 84129.6 Q 581574.8 83442 581574.8 81451.2 L 581574.8 63166.8 L 583467.2 63166.8 L 583467.2 72088.8 Q 586907.6 70172.4 588726.8 68500.8 L 590225.6 69950.4 Q 587644.4 71893.2 583467.2 73933.2 L 583467.2 81502.8 Q 583467.2 82485.6 583688 82755.6 Q 583908.8 83049.6 584672 83049.6 L 588012.8 83049.6 L 588012.8 83048.4 Z M 5858 103307.6 L 5858 108665.6 L 10035.2 108665.6 L 10035.2 103307.6 L 5858 103307.6 Z M 10035.2 115865.6 L 10035.2 110312 L 5858 110312 L 5858 115865.6 L 10035.2 115865.6 Z M 11754.8 117536 L 5856.8 117536 L 5856.8 119478.8 L 4137.2 119478.8 L 4137.2 101661.2 L 11754.8 101661.2 L 11754.8 117536 Z M 25592 106305.2 L 22617.2 106305.2 L 22617.2 119331.2 Q 22617.2 121074.8 21388.4 121468.4 Q 20429.6 121836.8 16522.4 121788.8 Q 16301.6 120707.6 15858.8 119969.6 Q 18906.8 120042.8 20111.6 119993.6 Q 20799.2 119969.6 20799.2 119331.2 L 20799.2 106305.2 L 12860 106305.2 L 12860 104511.2 L 20799.2 104511.2 L 20799.2 99743.6 L 22617.2 99743.6 L 22617.2 104511.2 L 25592 104511.2 L 25592 106305.2 Z M 17432 115054.4 Q 16179.2 112670 13697.6 109056.8 L 15196.4 108270.8 Q 18119.6 112448 19030.4 114118.4 L 17432 115053.2 L 17432 115054.4 Z M 29942 121492.4 Q 32865.2 120288.8 33038 117880.4 Q 32890.4 117904.4 32620.4 117904.4 Q 31833.2 117904.4 31318.4 117461.6 Q 30777.2 116996 30777.2 116159.6 Q 30777.2 115324.4 31342.4 114833.6 Q 31859.6 114390.8 32645.6 114390.8 Q 34734.8 114390.8 34734.8 117218 Q 34734.8 121298 30483.2 122796.8 L 29942 121492.4 Z M 59801.6 101193.2 Q 58941.2 102668 57540.8 104314.4 Q 59163.2 107435.6 59163.2 112768.4 Q 59163.2 119109.2 57934.4 120803.6 Q 57393.2 121443.2 56556.8 121590.8 Q 55500.8 121811.6 53781.2 121688 Q 53781.2 120779.6 53264 119944.4 Q 54935.6 120041.6 55820 119968.4 Q 56334.8 119895.2 56604.8 119526.8 Q 57416 118469.6 57416 112743.2 Q 57416 111908 57392 111490.4 Q 55548.8 114292.4 53435.6 116012 Q 52894.4 115127.6 52206.8 114636.8 Q 55302.8 112547.6 57146 108764 Q 56852 106920.8 56286.8 105642.8 Q 54788 107141.6 53313.2 108173.6 Q 53019.2 107682.8 52134.8 106920.8 Q 53878.4 105692 55451.6 104045.6 Q 54444.8 102496.4 52946 101170.4 L 54222.8 100186.4 Q 55524.8 101318 56582 102743.6 Q 57761.6 101318 58400 100113.2 L 59801.6 101194.4 L 59801.6 101193.2 Z M 62505.2 110704.4 L 62505.2 114072.8 L 66264.8 114072.8 L 66264.8 110704.4 L 62505.2 110704.4 Z M 71721.2 110704.4 L 67935.2 110704.4 L 67935.2 114072.8 L 71721.2 114072.8 L 71721.2 110704.4 Z M 71721.2 119134.4 L 71721.2 115668.8 L 67935.2 115668.8 L 67935.2 119134.4 L 71721.2 119134.4 Z M 62505.2 119134.4 L 66264.8 119134.4 L 66264.8 115668.8 L 62505.2 115668.8 L 62505.2 119134.4 Z M 60833.6 109058 L 73466 109058 L 73466 121912.4 L 71722.4 121912.4 L 71722.4 120756.8 L 62506.4 120756.8 L 62506.4 122033.6 L 60834.8 122033.6 L 60834.8 109058 L 60833.6 109058 Z M 74374.4 103110.8 L 74374.4 104782.4 L 71057.6 104782.4 L 71057.6 107975.6 L 69287.6 107975.6 L 69287.6 104782.4 L 64986.8 104782.4 L 64986.8 107975.6 L 63216.8 107975.6 L 63216.8 104782.4 L 59751.2 104782.4 L 59751.2 103110.8 L 63216.8 103110.8 L 63216.8 99621.2 L 64986.8 99621.2 L 64986.8 103110.8 L 69287.6 103110.8 L 69287.6 99621.2 L 71057.6 99621.2 L 71057.6 103110.8 L 74374.4 103110.8 Z M 82485.2 107166.8 Q 83666 108665.6 85484 111588.8 L 84328.4 112941.2 Q 83886.8 111909.2 82485.2 109402.4 L 82485.2 122034.8 L 80715.2 122034.8 L 80715.2 110067.2 Q 79314.8 114638 77643.2 117071.6 Q 77225.6 116063.6 76636.4 115301.6 Q 79191.2 112032.8 80517.2 106036.4 L 77076.8 106036.4 L 77076.8 104316.8 L 80714 104316.8 L 80714 99598.4 L 82484 99598.4 L 82484 104316.8 L 85335.2 104316.8 L 85335.2 106036.4 L 82484 106036.4 L 82484 107168 L 82485.2 107166.8 Z M 93544.4 116921.6 Q 93347.6 116135.6 93029.6 115176.8 Q 86933.6 116405.6 86394.8 116726 Q 86098.4 115692.8 85804.4 115103.6 Q 86295.2 114980 86958.8 113654 Q 88605.2 110458.4 89391.2 106968.8 L 91161.2 107483.6 Q 89981.6 111243.2 88187.6 114561.2 L 92537.6 113774 Q 92192 112889.6 91283.6 110925.2 L 92660 110432 Q 94406 114143.6 94996.4 116304.8 L 93545.6 116919.2 L 93544.4 116921.6 Z M 98729.6 104560.4 Q 98214.8 119528 97107.2 121001.6 Q 96518 121836.8 95289.2 121985.6 Q 94330.4 122106.8 92142.8 121985.6 Q 92093.6 120977.6 91552.4 120166.4 Q 92880.8 120290 94575.2 120290 Q 95141.6 120314 95510 119896.4 Q 96492.8 118764.8 96911.6 105323.6 L 88407.2 105323.6 Q 87424.4 107511.2 86072 109354.4 Q 85384.4 108714.8 84573.2 108224 Q 87154.4 105225.2 88480.4 99598.4 L 90250.4 100016 Q 89759.6 101883.2 89096 103629.2 L 98729.6 103629.2 L 98729.6 104561.6 L 98729.6 104560.4 Z M 117899.6 99718.4 Q 120774.8 101169.2 122297.6 102521.6 L 121168.4 103774.4 Q 119595.2 102324.8 116817.2 100826 L 117898.4 99718.4 L 117899.6 99718.4 Z M 122150 107927.6 Q 120552.8 112743.2 117825.2 116232.8 Q 119274.8 120042.8 121118 120042.8 Q 122028.8 120042.8 122273.6 115497.2 Q 123011.6 116232.8 123846.8 116478.8 Q 123602 119600 122987.6 120729.2 Q 122373.2 121860.8 120971.6 121860.8 Q 118268 121860.8 116474 117830 Q 114237.2 120262.4 111411.2 121910 Q 110747.6 120999.2 110085.2 120458 Q 113378 118688 115736 115912.4 Q 114459.2 111881.6 113942 105564.8 L 105464 105564.8 L 105464 108760.4 L 111731.6 108760.4 L 111731.6 109546.4 Q 111558.8 116994.8 110944.4 117756.8 Q 110477.6 118371.2 109470.8 118468.4 Q 108486.8 118541.6 106546.4 118468.4 Q 106497.2 117509.6 106030.4 116747.6 Q 107456 116871.2 108635.6 116871.2 Q 109202 116871.2 109373.6 116601.2 Q 109816.4 116134.4 109937.6 110457.2 L 105465.2 110457.2 L 105465.2 110654 Q 105465.2 118493.6 102884 122228 Q 102196.4 121442 101361.2 120999.2 Q 103598 117682.4 103598 110627.6 L 103598 103772 L 113846 103772 Q 113746.4 102419.6 113697.2 99641.6 L 115589.6 99641.6 Q 115589.6 102002 115689.2 103772 L 123627.2 103772 L 123627.2 105566 L 115811.6 105566 Q 116205.2 110702 117164 114094.4 Q 119180 111146 120309.2 107459.6 L 122152.4 107926.4 L 122150 107927.6 Z M 133971.2 105174.8 L 128811.2 105174.8 L 128811.2 110312 L 133971.2 110312 L 133971.2 105174.8 Z M 133971.2 117832.4 L 133971.2 111933.2 L 128811.2 111933.2 L 128811.2 117832.4 L 133971.2 117832.4 Z M 132842 99915.2 Q 131760.8 103012.4 131564 103527.2 L 135644 103527.2 L 135644 119477.6 L 128812.4 119477.6 L 128812.4 121418 L 127140.8 121418 L 127140.8 103527.2 L 129894.8 103527.2 Q 130632.8 101142.8 130877.6 99545.6 L 132844.4 99914 L 132842 99915.2 Z M 147660.8 104388.8 Q 147143.6 119134.4 145964 120584 Q 145276.4 121444.4 144023.6 121568 Q 143015.6 121689.2 140385.2 121541.6 Q 140288 120533.6 139770.8 119747.6 Q 141369.2 119895.2 143409.2 119895.2 Q 144120.8 119895.2 144414.8 119526.8 Q 145472 118395.2 145913.6 105148.4 L 139672.4 105148.4 Q 138540.8 107876 137361.2 109449.2 Q 137040.8 109155.2 135861.2 108417.2 Q 138269.6 105245.6 139622 99495.2 L 141368 99912.8 Q 140901.2 101829.2 140310.8 103451.6 L 147659.6 103451.6 L 147659.6 104386.4 L 147660.8 104388.8 Z M 142228.4 115472 Q 141099.2 113187.2 138494 109794.8 L 139919.6 108959.6 Q 142622 112400 143777.6 114513.2 L 142228.4 115472 Z M 156065.6 103971.2 Q 154640 102669.2 151838 101144 L 152870 99842 Q 155721.2 101243.6 157122.8 102496.4 L 156065.6 103971.2 Z M 154836.8 110360 Q 153387.2 109156.4 150512 107730.8 L 151568 106402.4 Q 154443.2 107730.8 155894 108860 L 154836.8 110358.8 L 154836.8 110360 Z M 156532.4 113825.6 Q 154616 118299.2 152723.6 121715.6 L 151126.4 120608 Q 153190.4 117242 155130.8 112744.4 L 156532.4 113825.6 Z M 162309.2 110802.8 Q 163538 113874.8 165749.6 116208.8 Q 167886.8 113898.8 168968 110802.8 L 162309.2 110802.8 Z M 159998 104855.6 L 159998 109156.4 L 164151.2 109156.4 L 164151.2 104855.6 L 159998 104855.6 Z M 171204.8 109624.4 Q 169976 114195.2 167051.6 117388.4 Q 169706 119552 173195.6 120486.8 Q 172532 121076 171990.8 122060 Q 168428 120928.4 165773.6 118618.4 Q 163218.8 120831.2 159753.2 122108 Q 159212 121149.2 158573.6 120584 Q 162063.2 119404.4 164496.8 117388.4 Q 162063.2 114710 160588.4 110802.8 L 159974 110802.8 Q 159729.2 118224.8 156804.8 122032.4 Q 156141.2 121418 155282 121100 Q 158230.4 117364.4 158230.4 109328 L 158230.4 103136 L 164153.6 103136 L 164153.6 99597.2 L 165947.6 99597.2 L 165947.6 103136 L 171353.6 103136 L 171647.6 103060.4 L 172949.6 103430 Q 171844.4 106625.6 170861.6 108369.2 L 169312.4 107878.4 Q 169779.2 106970 170566.4 104856.8 L 165945.2 104856.8 L 165945.2 109157.6 L 169728.8 109157.6 L 170073.2 109084.4 L 171204.8 109625.6 L 171204.8 109624.4 Z M 185483.6 105297.2 Q 187844 104241.2 190276.4 102348.8 L 178628 102348.8 L 178628 100653.2 L 192192.8 100653.2 L 192610.4 100556 L 193839.2 101488.4 Q 190964 104168 187277.6 106011.2 L 187277.6 109377.2 L 187868 109844 Q 188261.6 110138 188482.4 110334.8 Q 190522.4 108171.2 192021.2 105861.2 L 193544 106648.4 Q 191529.2 109253.6 189537.2 111196.4 Q 192364.4 113604.8 193716.8 115178 L 192561.2 116430.8 Q 190618.4 114120.8 187276.4 111294.8 L 187276.4 115964 Q 187276.4 117341.6 186392 117686 Q 185729.6 117956 183002 117956 Q 182878.4 117168.8 182460.8 116333.6 Q 184377.2 116406.8 185040.8 116357.6 Q 185482.4 116333.6 185482.4 115940 L 185482.4 112056.8 Q 180984.8 115228.4 179632.4 116136.8 L 178724 114638 Q 180887.6 113385.2 185482.4 110410.4 L 185482.4 105298.4 L 185483.6 105297.2 Z M 182584.4 110729.6 Q 181158.8 108689.6 179266.4 107043.2 L 180446 106084.4 Q 182486 107804 183814.4 109598 L 182585.6 110729.6 L 182584.4 110729.6 Z M 196468.4 105027.2 L 196468.4 122058.8 L 194674.4 122058.8 L 194674.4 120706.4 L 176339.6 120706.4 L 176339.6 105100.4 L 178133.6 105100.4 L 178133.6 119034.8 L 194674.4 119034.8 L 194674.4 105027.2 L 196468.4 105027.2 Z M 211091.6 100751.6 Q 209568.8 103109.6 208905.2 103896.8 L 207725.6 103330.4 Q 208905.2 101636 209568.8 100062.8 L 211091.6 100750.4 L 211091.6 100751.6 Z M 202415.6 103971.2 Q 202022 102496.4 200892.8 100752.8 L 202218.8 100211.6 Q 203398.4 101858 203817.2 103380.8 L 202415.6 103971.2 Z M 205020.8 107288 Q 203006 109672.4 200696 110877.2 Q 200351.6 110139.2 199712 109500.8 Q 202439.6 108320 204455.6 105666.8 L 199958 105666.8 L 199958 104141.6 L 205020.8 104141.6 L 205020.8 99596 L 206716.4 99596 L 206716.4 104141.6 L 211731.2 104141.6 L 211731.2 105666.8 L 207110 105666.8 Q 209518.4 107067.2 211017.2 108172.4 L 210009.2 109500.8 Q 208928 108468.8 206716.4 106895.6 L 206716.4 110261.6 L 205020.8 110261.6 L 205020.8 107286.8 L 205020.8 107288 Z M 204776 113776.4 Q 204038 115154 203693.6 115719.2 Q 204971.6 116260.4 206469.2 117022.4 Q 207968 115646 208755.2 113777.6 L 204774.8 113777.6 L 204776 113776.4 Z M 208830.8 120263.6 Q 207822.8 119528 206693.6 118888.4 Q 204186.8 120904.4 200624 121836.8 Q 200230.4 120928.4 199763.6 120437.6 Q 202860.8 119750 205218.8 118078.4 Q 203154.8 116998.4 201459.2 116384 Q 202197.2 115326.8 203032.4 113777.6 L 200477.6 113777.6 L 200477.6 112230.8 L 203794.4 112230.8 Q 204237.2 111272 204434 110657.6 L 206055.2 110951.6 L 205810.4 111590 Q 205662.8 111983.6 205539.2 112229.6 L 209543.6 112229.6 L 209813.6 112156.4 L 210846.8 112574 Q 209912 115646 207896 117783.2 Q 209248.4 118545.2 209962.4 119062.4 L 208830.8 120266 L 208830.8 120263.6 Z M 214557.2 106035.2 Q 215295.2 110212.4 216647.6 113384 Q 217924.4 110409.2 218490.8 106035.2 L 214558.4 106035.2 L 214557.2 106035.2 Z M 220233.2 106035.2 Q 219348.8 111810.8 217554.8 115275.2 Q 219594.8 118888.4 222444.8 120413.6 Q 221733.2 121002.8 221242.4 121838 Q 218440.4 120143.6 216597.2 116922.8 Q 214384.4 120191.6 210771.2 122134.4 Q 210453.2 121396.4 209765.6 120658.4 Q 213623.6 118766 215712.8 115228.4 Q 214410.8 112574 213550.4 108666.8 Q 212812.4 110460.8 211880 111886.4 Q 211216.4 111222.8 210504.8 110780 Q 213010.4 107315.6 214091.6 99843.2 L 215763.2 100089.2 Q 215493.2 102080 214926.8 104340.8 L 221858 104340.8 L 221858 106036.4 L 220235.6 106036.4 L 220233.2 106035.2 Z M 243113.6 118740.8 L 243113.6 113284.4 L 236355.2 113284.4 L 236355.2 118740.8 L 243113.6 118740.8 Z M 227926.4 118740.8 L 234537.2 118740.8 L 234537.2 113284.4 L 227926.4 113284.4 L 227926.4 118740.8 Z M 227926.4 106182.8 L 227926.4 111491.6 L 234537.2 111491.6 L 234537.2 106182.8 L 227926.4 106182.8 Z M 236355.2 106182.8 L 236355.2 111491.6 L 243113.6 111491.6 L 243113.6 106182.8 L 236355.2 106182.8 Z M 244956.8 104364.8 L 244956.8 121936.4 L 243113.6 121936.4 L 243113.6 120534.8 L 227926.4 120534.8 L 227926.4 122060 L 226107.2 122060 L 226107.2 104366 L 234537.2 104366 L 234537.2 99646.4 L 236355.2 99646.4 L 236355.2 104366 L 244956.8 104366 L 244956.8 104364.8 Z M 268648.4 114219.2 L 268648.4 112155.2 L 251568.8 112155.2 L 251568.8 114219.2 L 249898.4 114219.2 L 249898.4 110926.4 L 270394.4 110926.4 L 270394.4 114219.2 L 268648.4 114219.2 Z M 259998.8 105617.6 L 268918.4 105617.6 L 269214.8 105568.4 L 270173.6 106059.2 Q 269238.8 107436.8 267101.6 108616.4 Q 268992.8 109181.6 270197.6 109698.8 L 269486 110657.6 Q 267887.6 109994 265577.6 109282.4 Q 263610.8 110068.4 260614.4 110585.6 Q 260368.4 110044.4 259827.2 109551.2 Q 261843.2 109282.4 263610.8 108741.2 Q 262113.2 108322.4 260514.8 108004.4 L 261080 107120 Q 263686.4 107661.2 265356.8 108128 Q 266906 107440.4 267668 106800.8 L 260001.2 106800.8 L 260001.2 105621.2 L 259998.8 105617.6 Z M 267419.6 105347.6 Q 265184 104536.4 261300.8 103774.4 Q 257932.4 104757.2 252452 105200 Q 252255.2 104633.6 251813.6 104044.4 Q 255426.8 103847.6 258425.6 103282.4 Q 255304.4 102839.6 253485.2 102692 L 253952 101783.6 Q 257662.4 102053.6 261104 102642.8 Q 263020.4 102101.6 264273.2 101366 L 252502.4 101366 L 252502.4 100258.4 L 265846.4 100258.4 L 266116.4 100185.2 L 267051.2 100799.6 Q 265674.8 102152 263340.8 103060.4 Q 266264 103700 268059.2 104314.4 L 267419.6 105346.4 L 267419.6 105347.6 Z M 258056 110532.8 Q 256950.8 109942.4 255058.4 109204.4 Q 253142 110015.6 250046 110606 Q 249825.2 110115.2 249284 109574 Q 251421.2 109253.6 253361.6 108639.2 Q 252084.8 108221.6 250559.6 107853.2 L 251126 106968.8 Q 253361.6 107483.6 254984 108024.8 Q 256409.6 107361.2 257244.8 106673.6 L 249971.6 106673.6 L 249971.6 105544.4 L 258400.4 105544.4 L 258670.4 105495.2 L 259605.2 105986 Q 258548 107484.8 256484 108566 Q 257836.4 109107.2 258771.2 109574 L 258057.2 110532.8 L 258056 110532.8 Z M 255008 120363.2 L 264962 120363.2 L 264962 119085.2 L 255008 119085.2 L 255008 120363.2 Z M 255008 114563.6 L 255008 115743.2 L 264962 115743.2 L 264962 114563.6 L 255008 114563.6 Z M 264962 116800.4 L 255008 116800.4 L 255008 118029.2 L 264962 118029.2 L 264962 116800.4 Z M 270958.4 120363.2 L 270958.4 121616 L 249257.6 121616 L 249257.6 120363.2 L 253313.6 120363.2 L 253313.6 113310.8 L 266730.8 113310.8 L 266730.8 120363.2 L 270958.4 120363.2 Z M 284475.2 105027.2 Q 283860.8 119010.8 282731.6 120460.4 Q 282117.2 121296.8 281060 121394 Q 280101.2 121541.6 278381.6 121418 Q 278282 120338 277840.4 119550.8 Q 279142.4 119674.4 280247.6 119674.4 Q 280788.8 119674.4 281109.2 119256.8 Q 282117.2 118101.2 282632 105861.2 L 279166.4 105861.2 Q 278625.2 117314 274890.8 121935.2 Q 274251.2 121148 273440 120706.4 Q 276905.6 116577.2 277372.4 105862.4 L 273980 105862.4 L 273980 104068.4 L 277421.6 104068.4 Q 277470.8 102569.6 277470.8 99670.4 L 279288.8 99670.4 Q 279288.8 101807.6 279215.6 104068.4 L 284475.2 104068.4 L 284475.2 105027.2 Z M 292880 118126.4 L 292880 104438 L 288112.4 104438 L 288112.4 118126.4 L 292880 118126.4 Z M 294748.4 102669.2 L 294748.4 121518.8 L 292880 121518.8 L 292880 119896.4 L 288112.4 119896.4 L 288112.4 121690.4 L 286318.4 121690.4 L 286318.4 102669.2 L 294748.4 102669.2 Z M 298361.6 120215.6 Q 299884.4 118052 300792.8 114218 L 302415.2 114759.2 Q 301235.6 119133.2 300006.8 121073.6 L 298360.4 120214.4 L 298361.6 120215.6 Z M 312786.8 119846 Q 313769.6 119846 314039.6 119355.2 Q 314309.6 118864.4 314433.2 116972 Q 315023.6 117414.8 316079.6 117659.6 Q 315882.8 119969.6 315293.6 120731.6 Q 314654 121493.6 312910.4 121493.6 L 307208 121493.6 Q 305094.8 121493.6 304356.8 120978.8 Q 303621.2 120488 303621.2 119013.2 L 303621.2 114221.6 L 305415.2 114221.6 L 305415.2 118989.2 Q 305415.2 119530.4 305759.6 119678 Q 306128 119849.6 307308.8 119849.6 L 312789.2 119849.6 L 312786.8 119846 Z M 307871.6 109131.2 Q 310526 110630 311926.4 112080.8 L 310280 113136.8 Q 309124.4 111760.4 306348.8 110088.8 L 307871.6 109130 L 307871.6 109131.2 Z M 308460.8 112793.6 Q 311188.4 115251.2 312417.2 116921.6 L 310943.6 117905.6 Q 309665.6 115989.2 307036.4 113628.8 L 308460.8 112793.6 Z M 316965.2 113849.6 Q 319226 117488 319988 120314 L 318244.4 120928.4 Q 317506.4 117929.6 315342.8 114366.8 L 316965.2 113849.6 Z M 311214.8 104757.2 Q 313869.2 110262.8 320430.8 111737.6 Q 319668.8 112499.6 319202 113432 Q 312123.2 111491.6 309321.2 104757.2 Q 307257.2 111368 299170.4 113531.6 Q 298802 112671.2 298163.6 112007.6 Q 305436.8 110189.6 307403.6 104757.2 L 298408.4 104757.2 L 298408.4 103037.6 L 307894.4 103037.6 Q 308214.8 101711.6 308435.6 99524 L 310302.8 99524 Q 310107.2 101367.2 309786.8 103037.6 L 320182.4 103037.6 L 320182.4 104757.2 L 311212.4 104757.2 L 311214.8 104757.2 Z M 333258.8 103946 Q 332962.4 102324.8 332078 99964.4 L 333848 99497.6 Q 334758.8 101807.6 335127.2 103404.8 L 333260 103946 L 333258.8 103946 Z M 343727.6 106035.2 L 323993.6 106035.2 L 323993.6 104241.2 L 343727.6 104241.2 L 343727.6 106035.2 Z M 329696 118126.4 Q 329202.8 114046.4 327384.8 107805.2 L 329202.8 107362.4 Q 330972.8 113458.4 331636.4 117659.6 L 329696 118126.4 Z M 344710.4 119183.6 L 344710.4 121001.6 L 322937.6 121001.6 L 322937.6 119183.6 L 334832 119183.6 Q 337019.6 114022.4 338469.2 107361.2 L 340533.2 107754.8 Q 338642 114612.8 336798.8 119183.6 L 344710.4 119183.6 Z M 350658.8 102545.6 L 350658.8 105741.2 L 356409.2 105741.2 L 356409.2 102545.6 L 350658.8 102545.6 Z M 356409.2 110777.6 L 356409.2 107387.6 L 350658.8 107387.6 L 350658.8 110777.6 L 356409.2 110777.6 Z M 355451.6 113678 Q 357761.6 117364.4 358866.8 119945.6 L 357220.4 120854 Q 356703.2 119625.2 356088.8 118396.4 Q 349233.2 120830 348569.6 121320.8 Q 348323.6 120263.6 347808.8 119453.6 Q 348840.8 118960.4 348840.8 117904.4 L 348840.8 100898 L 358204.4 100898 L 358204.4 112424 L 350660 112424 L 350660 118468.4 L 355353.2 116945.6 L 353903.6 114414.8 L 355452.8 113676.8 L 355451.6 113678 Z M 368500.4 115103.6 Q 368500.4 116553.2 367616 116946.8 Q 366878 117315.2 364052 117267.2 Q 363904.4 116259.2 363510.8 115521.2 Q 365550.8 115594.4 366238.4 115545.2 Q 366705.2 115545.2 366705.2 115103.6 L 366705.2 102766.4 L 362256.8 102766.4 L 362256.8 122058.8 L 360461.6 122058.8 L 360461.6 101045.6 L 368498 101045.6 L 368498 115103.6 L 368500.4 115103.6 Z M 379977.2 115300.4 Q 375455.6 117070.4 372162.8 118299.2 L 371596.4 116456 L 375012.8 115275.2 L 375012.8 107337.2 L 371990 107337.2 L 371990 105593.6 L 375012.8 105593.6 L 375012.8 99915.2 L 376758.8 99915.2 L 376758.8 105593.6 L 379510.4 105593.6 L 379510.4 107337.2 L 376758.8 107337.2 L 376758.8 114636.8 L 379658 113604.8 L 379978.4 115300.4 L 379977.2 115300.4 Z M 385727.6 103480.4 Q 388013.6 106035.2 388824.8 108075.2 L 387275.6 108861.2 Q 386488.4 106797.2 384276.8 104168 L 385726.4 103480.4 L 385727.6 103480.4 Z M 390496.4 109942.4 L 390496.4 102472.4 L 383223.2 102472.4 L 383223.2 109942.4 L 390496.4 109942.4 Z M 394208 111688.4 L 392289.2 111688.4 L 392289.2 119772.8 Q 392289.2 121271.6 391356.8 121714.4 Q 390496.4 122058.8 387597.2 122058.8 Q 387400.4 121026.8 387006.8 120263.6 Q 388826 120363.2 389981.6 120290 Q 390496.4 120290 390496.4 119748.8 L 390496.4 111688.4 L 383148.8 111688.4 Q 382607.6 118667.6 379068.8 122133.2 Q 378502.4 121346 377740.4 120879.2 Q 380936 117759.2 381353.6 111688.4 L 379092.8 111688.4 L 379092.8 109942.4 L 381426.8 109942.4 L 381426.8 100751.6 L 392289.2 100751.6 L 392289.2 109942.4 L 394208 109942.4 L 394208 111688.4 Z M 415218.8 101831.6 L 406863.2 101831.6 L 406863.2 103724 L 415218.8 103724 L 415218.8 101831.6 Z M 415218.8 105076.4 L 406863.2 105076.4 L 406863.2 107016.8 L 415218.8 107016.8 L 415218.8 105076.4 Z M 416964.8 108395.6 L 405191.6 108395.6 L 405191.6 100456.4 L 416964.8 100456.4 L 416964.8 108395.6 Z M 404332.4 115816.4 L 396812 118815.2 L 396221.6 116948 Q 398064.8 116357.6 399466.4 115816.4 L 399466.4 107288 L 396345.2 107288 L 396345.2 105568.4 L 399466.4 105568.4 L 399466.4 99891.2 L 401186 99891.2 L 401186 105568.4 L 404012 105568.4 L 404012 107288 L 401186 107288 L 401186 115178 L 403988 114146 L 404332.4 115816.4 Z M 406199.6 115989.2 Q 405488 114390.8 404135.6 112671.2 L 405388.4 112156.4 Q 406913.6 113999.6 407528 115400 L 406199.6 115990.4 L 406199.6 115989.2 Z M 410550.8 120166.4 Q 410550.8 121346 409788.8 121690.4 Q 409149.2 121960.4 406691.6 121960.4 Q 406618.4 121298 406250 120510.8 Q 408166.4 120560 408633.2 120510.8 Q 409026.8 120510.8 409026.8 120142.4 L 409026.8 116848.4 L 403914.8 119576 L 403176.8 118250 Q 404085.2 117856.4 409025.6 115398.8 L 409025.6 111564.8 L 404085.2 111564.8 L 404085.2 110066 L 410549.6 110066 L 410549.6 120166.4 L 410550.8 120166.4 Z M 418046 120215.6 Q 418046 121419.2 417258.8 121739.6 Q 416644.4 122009.6 414137.6 122009.6 Q 413966 121322 413597.6 120560 Q 415415.6 120633.2 416055.2 120584 Q 416472.8 120584 416472.8 120215.6 L 416472.8 116726 Q 414236 118002.8 411630.8 119355.2 L 410892.8 118029.2 Q 412686.8 117218 416472.8 115251.2 L 416472.8 111564.8 L 411434 111564.8 L 411434 110066 L 418044.8 110066 L 418044.8 120216.8 L 418046 120215.6 Z M 412884.8 112106 Q 414483.2 113876 415121.6 115325.6 L 413819.6 115940 Q 413205.2 114465.2 411656 112647.2 L 412884.8 112106 Z M 428835.2 117832.4 L 433947.2 116873.6 L 434068.4 118470.8 Q 423893.6 120413.6 421854.8 120831.2 L 421461.2 119111.6 L 427088 118127.6 L 427088 113999.6 L 422296.4 113999.6 L 422296.4 112377.2 L 427088 112377.2 L 427088 109722.8 L 428834 109722.8 L 428834 112377.2 L 433724 112377.2 L 433724 113999.6 L 428834 113999.6 L 428834 117833.6 L 428835.2 117832.4 Z M 421659.2 101217.2 L 434217.2 101217.2 L 434217.2 102839.6 L 427580 102839.6 Q 426230 105444.8 424755.2 107411.6 L 431022.8 106870.4 Q 430260.8 105741.2 429203.6 104439.2 L 430505.6 103652 Q 433160 106823.6 434217.2 108911.6 L 432815.6 109820 Q 432471.2 109084.4 431954 108297.2 Q 423452 109108.4 422837.6 109402.4 Q 422616.8 108518 422223.2 107682.8 Q 422690 107585.6 423401.6 106601.6 Q 424506.8 105128 425540 102842 L 421656.8 102842 L 421656.8 101219.6 L 421659.2 101217.2 Z M 437289.2 116504 L 435567.2 116504 L 435567.2 101734.4 L 437289.2 101734.4 L 437289.2 116504 Z M 442179.2 100014.8 L 442179.2 119184.8 Q 442179.2 120806 441171.2 121175.6 Q 440288 121520 437337.2 121520 Q 437216 120684.8 436674.8 119726 Q 438959.6 119799.2 439868 119750 Q 440385.2 119726 440385.2 119208.8 L 440385.2 100014.8 L 442179.2 100014.8 Z M 452182.4 109500.8 L 461102 109500.8 L 461102 107264 L 452182.4 107264 L 452182.4 109500.8 Z M 452182.4 103701.2 L 452182.4 105765.2 L 461102 105765.2 L 461102 103701.2 L 452182.4 103701.2 Z M 459210.8 114809.6 Q 462724.4 118323.2 468057.2 119969.6 Q 467394.8 120486.8 466828.4 121469.6 Q 461274.8 119454.8 457564.4 115325.6 L 457564.4 122060 L 455745.2 122060 L 455745.2 115325.6 Q 452156 119429.6 446626.4 121542.8 Q 445964 120534.8 445422.8 120069.2 Q 450632 118373.6 454121.6 114810.8 L 445889.6 114810.8 L 445889.6 113163.2 L 455744 113163.2 L 455744 111050 L 450386 111050 L 450386 103702.4 L 445937.6 103702.4 L 445937.6 102129.2 L 450386 102129.2 L 450386 99598.4 L 452181.2 99598.4 L 452181.2 102129.2 L 461100.8 102129.2 L 461100.8 99598.4 L 462944 99598.4 L 462944 102129.2 L 467514.8 102129.2 L 467514.8 103702.4 L 462944 103702.4 L 462944 111050 L 457563.2 111050 L 457563.2 113163.2 L 467541.2 113163.2 L 467541.2 114810.8 L 459209.6 114810.8 L 459210.8 114809.6 Z M 492486.8 109598 L 492486.8 111588.8 L 470171.6 111588.8 L 470171.6 109598 L 492486.8 109598 Z M 504897.2 106822.4 L 506764.4 106822.4 L 506764.4 122033.6 L 504897.2 122033.6 L 504897.2 106822.4 Z M 507602 100358 Q 507035.6 101316.8 506938.4 101440.4 Q 510969.2 106232 517284.8 109304 Q 516425.6 109942.4 515958.8 110926.4 Q 510035.6 107854.4 505882.4 102866 Q 501902 107976.8 495881.6 110901.2 Q 495340.4 109942.4 494529.2 109254.8 Q 502196 105938 506006 99597.2 L 507604.4 100359.2 L 507602 100358 Z M 533504 106576.4 Q 536478.8 113531.6 541762.4 116530.4 Q 540803.6 117341.6 540360.8 118077.2 Q 534783.2 114563.6 531711.2 106576.4 L 531366.8 106576.4 L 531366.8 115644.8 L 537068 115644.8 L 537068 117462.8 L 531366.8 117462.8 L 531366.8 122033.6 L 529474.4 122033.6 L 529474.4 117462.8 L 523772 117462.8 L 523772 115644.8 L 529474.4 115644.8 L 529474.4 106576.4 L 529080.8 106576.4 Q 525984.8 114390.8 520479.2 118150.4 Q 519914 117315.2 519176 116700.8 Q 524190.8 113628.8 527237.6 106576.4 L 519815.6 106576.4 L 519815.6 104757.2 L 529474.4 104757.2 L 529474.4 99621.2 L 531366.8 99621.2 L 531366.8 104757.2 L 541097.6 104757.2 L 541097.6 106576.4 L 533504 106576.4 Z M 550610 100332.8 Q 548373.2 103750.4 544883.6 106182.8 Q 544466 105396.8 543924.8 104709.2 Q 547193.6 102521.6 548888 99670.4 L 550610 100332.8 Z M 551001.2 105714.8 Q 550215.2 107140.4 548986.4 108786.8 L 548986.4 122033.6 L 547143.2 122033.6 L 547143.2 111023.6 Q 546038 112301.6 544563.2 113505.2 Q 544121.6 112473.2 543580.4 111737.6 Q 547266.8 108983.6 549404 105100.4 L 551001.2 105714.8 Z M 566288 119625.2 L 566288 121371.2 L 550583.6 121371.2 L 550583.6 119625.2 L 553017.2 119625.2 L 553017.2 107927.6 L 554787.2 107927.6 L 554787.2 119625.2 L 558203.6 119625.2 L 558203.6 103184 L 552132.8 103184 L 552132.8 101464.4 L 565476.8 101464.4 L 565476.8 103184 L 559996.4 103184 L 559996.4 110115.2 L 565084.4 110115.2 L 565084.4 111810.8 L 559996.4 111810.8 L 559996.4 119625.2 L 566288 119625.2 Z M 568697.6 120215.6 Q 570220.4 118052 571128.8 114218 L 572751.2 114759.2 Q 571571.6 119133.2 570342.8 121073.6 L 568696.4 120214.4 L 568697.6 120215.6 Z M 583122.8 119846 Q 584105.6 119846 584375.6 119355.2 Q 584645.6 118864.4 584769.2 116972 Q 585359.6 117414.8 586415.6 117659.6 Q 586218.8 119969.6 585629.6 120731.6 Q 584990 121493.6 583246.4 121493.6 L 577544 121493.6 Q 575430.8 121493.6 574692.8 120978.8 Q 573957.2 120488 573957.2 119013.2 L 573957.2 114221.6 L 575751.2 114221.6 L 575751.2 118989.2 Q 575751.2 119530.4 576095.6 119678 Q 576464 119849.6 577644.8 119849.6 L 583125.2 119849.6 L 583122.8 119846 Z M 578207.6 109131.2 Q 580862 110630 582262.4 112080.8 L 580616 113136.8 Q 579460.4 111760.4 576684.8 110088.8 L 578207.6 109130 L 578207.6 109131.2 Z M 578796.8 112793.6 Q 581524.4 115251.2 582753.2 116921.6 L 581279.6 117905.6 Q 580001.6 115989.2 577372.4 113628.8 L 578796.8 112793.6 Z M 587301.2 113849.6 Q 589562 117488 590324 120314 L 588580.4 120928.4 Q 587842.4 117929.6 585678.8 114366.8 L 587301.2 113849.6 Z M 581550.8 104757.2 Q 584205.2 110262.8 590766.8 111737.6 Q 590004.8 112499.6 589538 113432 Q 582459.2 111491.6 579657.2 104757.2 Q 577593.2 111368 569506.4 113531.6 Q 569138 112671.2 568499.6 112007.6 Q 575772.8 110189.6 577739.6 104757.2 L 568744.4 104757.2 L 568744.4 103037.6 L 578230.4 103037.6 Q 578550.8 101711.6 578771.6 99524 L 580638.8 99524 Q 580443.2 101367.2 580122.8 103037.6 L 590518.4 103037.6 L 590518.4 104757.2 L 581548.4 104757.2 L 581550.8 104757.2 Z " fill-rule="nonzero" style="fill:#ffffff;;fill-opacity:1;"/>
</svg>