<svg version="1.1" x="0" y="0" width="100%" height="100%" viewBox="0 0 723558.4 79974.4" xmlns="http://www.w3.org/2000/svg">
  <path d="M 29900.5 19454.9 L 29900.5 60157.4 Q 29900.5 63794.9 27340.5 64767.4 Q 25088 65534.9 17560.5 65432.4 Q 17100.5 63434.9 15973 61492.4 Q 21245.5 61694.9 24368 61542.4 Q 25850.5 61542.4 25850.5 60159.9 L 25850.5 19457.4 L 29898 19457.4 L 29900.5 19454.9 Z M 41678 30974.9 Q 49715.5 43774.9 51765.5 53554.9 L 47768 55244.9 Q 45720.5 45207.4 38090.5 32357.4 L 41678 30974.9 Z M 16690.5 32102.4 Q 13363 47102.4 7473 54374.9 Q 5733 53094.9 3890.5 52377.4 Q 10033 45157.4 12490.5 31334.9 L 16690.5 32102.4 Z M 80795.5 23449.9 Q 76648 29339.9 70248 34252.4 L 70248 41574.9 Q 73985.5 40652.4 80128 38912.4 L 80640.5 42494.9 L 70248 45362.4 L 70248 60722.4 Q 70248 63899.9 68300.5 64769.9 Q 66458 65537.4 60518 65434.9 Q 60210.5 63284.9 59288 61594.9 Q 62158 61697.4 65485.5 61697.4 Q 66563 61647.4 66563 60674.9 L 66563 46337.4 L 56013 49257.4 L 55195.5 45467.4 Q 60315.5 44187.4 66563 42547.4 L 66563 32717.4 Q 70655.5 29904.9 74548 25344.9 L 56320.5 25344.9 L 56320.5 21814.9 L 77463 21814.9 L 78233 21557.4 L 80793 23449.9 L 80795.5 23449.9 Z M 96665.5 61542.4 Q 98153 61542.4 98663 59649.9 Q 99073 57907.4 99280.5 51969.9 Q 100713 53147.4 102710.5 53659.9 Q 102403 60212.4 101325.5 62462.4 Q 100148 64972.4 96920.5 64972.4 L 89753 64972.4 Q 86423 64972.4 85245.5 63589.9 Q 84118 62259.9 84118 58369.9 L 84118 19917.4 L 87855.5 19917.4 L 87855.5 58469.9 Q 87855.5 60417.4 88318 60979.9 Q 88725.5 61542.4 90213 61542.4 L 96663 61542.4 L 96665.5 61542.4 Z M 141005.5 18942.4 Q 146995.5 21964.9 150168 24782.4 L 147815.5 27392.4 Q 144538 24372.4 138750.5 21249.9 L 141003 18942.4 L 141005.5 18942.4 Z M 149860.5 36044.9 Q 146533 46077.4 140850.5 53347.4 Q 143870.5 61284.9 147710.5 61284.9 Q 149608 61284.9 150118 51814.9 Q 151655.5 53347.4 153395.5 53859.9 Q 152885.5 60362.4 151605.5 62714.9 Q 150325.5 65072.4 147405.5 65072.4 Q 141773 65072.4 138035.5 56674.9 Q 133375.5 61742.4 127488 65174.9 Q 126105.5 63277.4 124725.5 62149.9 Q 131585.5 58462.4 136498 52679.9 Q 133838 44282.4 132760.5 31122.4 L 115098 31122.4 L 115098 37779.9 L 128155.5 37779.9 L 128155.5 39417.4 Q 127795.5 54934.9 126515.5 56522.4 Q 125543 57802.4 123445.5 58004.9 Q 121395.5 58157.4 117353 58004.9 Q 117250.5 56007.4 116278 54419.9 Q 119248 54677.4 121705.5 54677.4 Q 122885.5 54677.4 123243 54114.9 Q 124165.5 53142.4 124418 41314.9 L 115100.5 41314.9 L 115100.5 41724.9 Q 115100.5 58057.4 109723 65837.4 Q 108290.5 64199.9 106550.5 63277.4 Q 111210.5 56367.4 111210.5 41669.9 L 111210.5 27387.4 L 132560.5 27387.4 Q 132353 24569.9 132250.5 18782.4 L 136193 18782.4 Q 136193 23699.9 136400.5 27387.4 L 152938 27387.4 L 152938 31124.9 L 136655.5 31124.9 Q 137475.5 41824.9 139473 48892.4 Q 143673 42749.9 146025.5 35069.9 L 149865.5 36042.4 L 149860.5 36044.9 Z M 172800.5 20019.9 Q 170598 26062.4 167578 31434.9 L 167578 65332.4 L 163940.5 65332.4 L 163940.5 37324.9 Q 161893 40344.9 159535.5 42954.9 Q 158718 41112.4 157385.5 39219.9 Q 164863 31387.4 169213 18894.9 L 172800.5 20022.4 L 172800.5 20019.9 Z M 177458 37529.9 L 184475.5 37529.9 Q 185958 35329.9 186470.5 32409.9 L 177458 32409.9 L 177458 37529.9 Z M 180530.5 25342.4 Q 178483 28109.9 177150.5 29492.4 L 186673 29492.4 Q 187903 28212.4 189745.5 25342.4 L 180528 25342.4 L 180530.5 25342.4 Z M 197938 32409.9 L 189595.5 32409.9 Q 189388 35022.4 188160.5 37529.9 L 197938 37529.9 L 197938 32409.9 Z M 202035.5 45004.9 Q 199733 46487.4 196353 48227.4 Q 199120.5 56574.9 205160.5 59697.4 Q 203678 60824.9 202705.5 62564.9 Q 196563 58777.4 193593 49609.9 L 191083 50787.4 Q 192363 54729.9 191953 58467.4 Q 191595.5 62054.9 189905.5 63692.4 Q 188318 65432.4 185450.5 65432.4 Q 183450.5 65432.4 182328 65332.4 Q 182225.5 63384.9 181405.5 62054.9 Q 183198 62257.4 184785.5 62257.4 Q 186423 62257.4 187293 61284.9 Q 189190.5 59392.4 188473 54222.4 Q 181713 60364.9 172190.5 63642.4 Q 171063 61849.9 169990.5 60979.9 Q 181303 57549.9 187755.5 51099.9 Q 187293 49562.4 186525.5 48229.9 Q 180585.5 53299.9 172598 56219.9 Q 171678 54837.4 170498 53759.9 Q 179560.5 51047.4 185193 46079.9 Q 184220.5 44699.9 183043 43672.4 Q 178843 46744.9 172595.5 48792.4 Q 171623 47359.9 170445.5 46439.9 Q 177923 44032.4 181915.5 40449.9 L 174028 40449.9 L 174028 32562.4 Q 172800.5 33742.4 171313 34814.9 Q 170443 33382.4 168855.5 32409.9 Q 176433 27087.4 180633 18739.9 L 184215.5 19407.4 Q 183958 19917.4 183395.5 20889.9 L 182525.5 22377.4 L 191793 22377.4 L 192460.5 22169.9 L 194713 23809.9 Q 192970.5 26727.4 190618 29494.9 L 201470.5 29494.9 L 201470.5 40452.4 L 186318 40452.4 Q 185958 40912.4 185138 41732.4 Q 188315.5 44342.4 190158 48232.4 Q 195328 45572.4 199475.5 42652.4 L 202035.5 45009.9 L 202035.5 45004.9 Z " fill-rule="nonzero" style="fill:#ffffff;;fill-opacity:1;"/>
</svg>