<svg version="1.1" x="0" y="0" width="100%" height="100%" viewBox="0 0 25600 40550.4" xmlns="http://www.w3.org/2000/svg">
  <path d="M 4505.6 12603.2 L 9862.4 12603.2 Q 16055.6 12603.2 16055.6 17003.6 Q 16055.6 20075.6 13401.2 20910.8 L 13401.2 21034.4 Q 17087.6 21746 17087.6 25335.2 Q 17087.6 27914 15196.4 29291.6 Q 13377.2 30617.6 10256 30617.6 L 4505.6 30617.6 L 4505.6 12603.2 Z M 9470 20270 Q 13818.8 20270 13818.8 17297.6 Q 13818.8 14397.2 9567.2 14397.2 L 6789.2 14397.2 L 6789.2 20271.2 L 9468.8 20271.2 L 9470 20270 Z M 9938 28798.4 Q 14853.2 28798.4 14853.2 25260.8 Q 14853.2 22016 9938 22016 L 6790.4 22016 L 6790.4 28798.4 L 9938 28798.4 Z " fill-rule="nonzero" style="fill:#ffffff;;fill-opacity:1;"/>
</svg>