<svg version="1.1" x="0" y="0" width="100%" height="100%" viewBox="0 0 693248 40550.4" xmlns="http://www.w3.org/2000/svg">
  <path d="M 20382.8 11939.6 L 8216 11939.6 L 8216 13268 L 20382.8 13268 L 20382.8 11939.6 Z M 20382.8 14322.8 L 8216 14322.8 L 8216 15675.2 L 20382.8 15675.2 L 20382.8 14322.8 Z M 22175.6 16780.4 L 6471.2 16780.4 L 6471.2 10833.2 L 22175.6 10833.2 L 22175.6 16780.4 Z M 25298 19190 L 3424.4 19190 L 3424.4 17788.4 L 25298 17788.4 L 25298 19190 Z M 13427.6 25284.8 L 13427.6 23883.2 L 7725.2 23883.2 L 7725.2 25284.8 L 13427.6 25284.8 Z M 7725.2 22803.2 L 13427.6 22803.2 L 13427.6 21425.6 L 7725.2 21425.6 L 7725.2 22803.2 Z M 21118.4 21425.6 L 15171.2 21425.6 L 15171.2 22803.2 L 21118.4 22803.2 L 21118.4 21425.6 Z M 21118.4 23883.2 L 15171.2 23883.2 L 15171.2 25284.8 L 21118.4 25284.8 L 21118.4 23883.2 Z M 25419.2 30470 L 25419.2 31895.6 L 3276.8 31895.6 L 3276.8 30470 L 13427.6 30470 L 13427.6 29044.4 L 5316.8 29044.4 L 5316.8 27766.4 L 13427.6 27766.4 L 13427.6 26414 L 6029.6 26414 L 6029.6 20295.2 L 22914.8 20295.2 L 22914.8 26414 L 15172.4 26414 L 15172.4 27766.4 L 23429.6 27766.4 L 23429.6 29044.4 L 15172.4 29044.4 L 15172.4 30470 L 25420.4 30470 L 25419.2 30470 Z M 49971.2 22754 L 39944 22754 L 39944 30077.6 Q 39944 31773.2 38691.2 32141.6 Q 37707.2 32486 33873.2 32486 Q 33652.4 31553.6 33087.2 30618.8 Q 35765.6 30716 37412 30642.8 Q 38075.6 30618.8 38075.6 30053.6 L 38075.6 22754 L 27948.8 22754 L 27948.8 20934.8 L 38075.6 20934.8 L 38075.6 17396 Q 41344.4 15897.2 44219.6 13512.8 L 30382.4 13512.8 L 30382.4 11718.8 L 46209.2 11718.8 L 46602.8 11621.6 L 47979.2 12653.6 Q 44661.2 15922.4 39942.8 18330.8 L 39942.8 20936 L 49970 20936 L 49970 22755.2 L 49971.2 22754 Z M 58499.6 15503.6 Q 57197.6 13808 54640.4 11668.4 L 55821.2 10488.8 Q 58400 12552.8 59728.4 14151.2 L 58499.6 15503.6 Z M 61127.6 26144 Q 61227.2 26513.6 61718 27742.4 Q 56556.8 31404.8 56066 32043.2 Q 55772 31182.8 55108.4 30371.6 Q 56289.2 29561.6 56289.2 28332.8 L 56289.2 19534.4 L 52430 19534.4 L 52430 17739.2 L 58132.4 17739.2 L 58132.4 28160 L 61128.8 26144 L 61127.6 26144 Z M 74694.8 20025.2 L 68477.6 20025.2 L 68477.6 32510 L 66585.2 32510 L 66585.2 20025.2 L 60344 20025.2 L 60344 18182 L 66585.2 18182 L 66585.2 10145.6 L 68477.6 10145.6 L 68477.6 18182 L 74694.8 18182 L 74694.8 20025.2 Z M 91529.6 26834 L 91529.6 24720.8 L 85286 24720.8 L 85286 26318 Q 85286 26662.4 85262 26835.2 L 91529.6 26835.2 L 91529.6 26834 Z M 81993.2 23490.8 L 94527.2 23490.8 L 94527.2 22016 L 81993.2 22016 L 81993.2 23490.8 Z M 81993.2 20836.4 L 94527.2 20836.4 L 94527.2 19434.8 L 81993.2 19434.8 L 81993.2 20836.4 Z M 81993.2 18256.4 L 94527.2 18256.4 L 94527.2 16830.8 L 81993.2 16830.8 L 81993.2 18256.4 Z M 90080 13390.4 Q 89145.2 14716.4 88186.4 15600.8 L 93690.8 15600.8 Q 93076.4 14495.6 92044.4 13390.4 L 90080 13390.4 Z M 98999.6 28356.8 L 93372.8 28356.8 L 93372.8 32460.8 L 91529.6 32460.8 L 91529.6 28356.8 L 84918.8 28356.8 Q 83837.6 31059.2 78774.8 32534 Q 78308 31748 77644.4 31157.6 Q 81651.2 30149.6 82880 28355.6 L 77253.2 28355.6 L 77253.2 26832.8 L 83470.4 26832.8 Q 83494.4 26636 83494.4 26315.6 L 83494.4 24718.4 L 80201.6 24718.4 L 80201.6 15599.6 L 82856 15599.6 Q 82362.8 14420 81651.2 13388 L 80398.4 13388 Q 79317.2 14985.2 78236 16017.2 Q 77301.2 15279.2 76736 15034.4 Q 79120.4 13043.6 80349.2 9971.6 L 82019.6 10413.2 Q 81798.8 10904 81308 11888 L 87746 11888 L 87746 13386.8 L 83544.8 13386.8 Q 84232.4 14418.8 84477.2 15081.2 L 83151.2 15598.4 L 87969.2 15598.4 Q 87279.2 15107.6 86493.2 14787.2 Q 88827.2 12944 89908.4 9971.6 L 91654.4 10364 Q 91310 11248.4 90964.4 11888 L 98780 11888 L 98780 13386.8 L 94110.8 13386.8 Q 94822.4 14172.8 95264 15008 L 93962 15598.4 L 96395.6 15598.4 L 96395.6 24717.2 L 93372.8 24717.2 L 93372.8 26830.4 L 98999.6 26830.4 L 98999.6 28353.2 L 98999.6 28356.8 Z M 110158.4 23686.4 Q 109494.8 22533.2 107602.4 19706 L 107602.4 32484.8 L 105808.4 32484.8 L 105808.4 20566.4 Q 104136.8 25308.8 102318.8 27618.8 Q 102098 27104 101334.8 26022.8 Q 104162 22336.4 105587.6 16536.8 L 101704.4 16536.8 L 101704.4 14790.8 L 105808.4 14790.8 L 105808.4 10072.4 L 107602.4 10072.4 L 107602.4 14790.8 L 111018.8 14790.8 L 111018.8 16536.8 L 107602.4 16536.8 L 107602.4 17348 Q 108634.4 18503.6 111215.6 21944 L 110159.6 23687.6 L 110158.4 23686.4 Z M 121732.4 30520.4 Q 122028.8 30520.4 122200.4 30347.6 Q 122348 30176 122447.6 29412.8 Q 122520.8 27718.4 122520.8 25923.2 Q 122987.6 26366 123920 26710.4 Q 123920 29536.4 123723.2 30520.4 Q 123551.6 31479.2 123084.8 31871.6 Q 122594 32216 121806.8 32216 L 120603.2 32216 Q 119792 32216 119225.6 31725.2 Q 118710.8 31283.6 118710.8 28826 L 118710.8 13196 L 114213.2 13196 L 114213.2 19314.8 Q 114213.2 28383.2 110182.4 32560.4 Q 109617.2 31774.4 108756.8 31331.6 Q 112394 27597.2 112394 19289.6 L 112394 11450 L 120504.8 11450 L 120504.8 28997.6 Q 120504.8 30226.4 120652.4 30374 Q 120849.2 30522.8 121070 30522.8 L 121733.6 30522.8 L 121732.4 30520.4 Z M 131637.2 31994 Q 129228.8 28971.2 126206 26513.6 L 127803.2 25112 Q 130554.8 27324.8 133308.8 30568.4 L 131637.2 31994 Z M 167838.8 11939.6 L 155672 11939.6 L 155672 13268 L 167838.8 13268 L 167838.8 11939.6 Z M 167838.8 14322.8 L 155672 14322.8 L 155672 15675.2 L 167838.8 15675.2 L 167838.8 14322.8 Z M 169631.6 16780.4 L 153927.2 16780.4 L 153927.2 10833.2 L 169631.6 10833.2 L 169631.6 16780.4 Z M 172754 19190 L 150880.4 19190 L 150880.4 17788.4 L 172754 17788.4 L 172754 19190 Z M 160883.6 25284.8 L 160883.6 23883.2 L 155181.2 23883.2 L 155181.2 25284.8 L 160883.6 25284.8 Z M 155181.2 22803.2 L 160883.6 22803.2 L 160883.6 21425.6 L 155181.2 21425.6 L 155181.2 22803.2 Z M 168574.4 21425.6 L 162627.2 21425.6 L 162627.2 22803.2 L 168574.4 22803.2 L 168574.4 21425.6 Z M 168574.4 23883.2 L 162627.2 23883.2 L 162627.2 25284.8 L 168574.4 25284.8 L 168574.4 23883.2 Z M 172875.2 30470 L 172875.2 31895.6 L 150732.8 31895.6 L 150732.8 30470 L 160883.6 30470 L 160883.6 29044.4 L 152772.8 29044.4 L 152772.8 27766.4 L 160883.6 27766.4 L 160883.6 26414 L 153485.6 26414 L 153485.6 20295.2 L 170370.8 20295.2 L 170370.8 26414 L 162628.4 26414 L 162628.4 27766.4 L 170885.6 27766.4 L 170885.6 29044.4 L 162628.4 29044.4 L 162628.4 30470 L 172876.4 30470 L 172875.2 30470 Z M 197427.2 22754 L 187400 22754 L 187400 30077.6 Q 187400 31773.2 186147.2 32141.6 Q 185163.2 32486 181329.2 32486 Q 181108.4 31553.6 180543.2 30618.8 Q 183221.6 30716 184868 30642.8 Q 185531.6 30618.8 185531.6 30053.6 L 185531.6 22754 L 175404.8 22754 L 175404.8 20934.8 L 185531.6 20934.8 L 185531.6 17396 Q 188800.4 15897.2 191675.6 13512.8 L 177838.4 13512.8 L 177838.4 11718.8 L 193665.2 11718.8 L 194058.8 11621.6 L 195435.2 12653.6 Q 192117.2 15922.4 187398.8 18330.8 L 187398.8 20936 L 197426 20936 L 197426 22755.2 L 197427.2 22754 Z M 215810 12506 L 206052.8 12506 L 206052.8 14741.6 L 215810 14741.6 L 215810 12506 Z M 215810 16216.4 L 206052.8 16216.4 L 206052.8 18502.4 L 215810 18502.4 L 215810 16216.4 Z M 217605.2 20049.2 L 204284 20049.2 L 204284 10956.8 L 217605.2 10956.8 L 217605.2 20049.2 Z M 202710.8 23318 L 202710.8 25799.6 L 208092.8 25799.6 L 208092.8 23318 L 202710.8 23318 Z M 208092.8 30027.2 L 208092.8 27251.6 L 202710.8 27251.6 L 202710.8 30027.2 L 208092.8 30027.2 Z M 200990 21695.6 L 209888 21695.6 L 209888 32337.2 L 208092.8 32337.2 L 208092.8 31625.6 L 202710.8 31625.6 L 202710.8 32534 L 200991.2 32534 L 200991.2 21695.6 L 200990 21695.6 Z M 219225.2 30027.2 L 219225.2 27251.6 L 213795.2 27251.6 L 213795.2 30027.2 L 219225.2 30027.2 Z M 213795.2 23318 L 213795.2 25799.6 L 219225.2 25799.6 L 219225.2 23318 L 213795.2 23318 Z M 221044.4 21695.6 L 221044.4 32337.2 L 219225.2 32337.2 L 219225.2 31625.6 L 213795.2 31625.6 L 213795.2 32534 L 212025.2 32534 L 212025.2 21695.6 L 221044.4 21695.6 Z M 231170 10662.8 Q 230334.8 13168.4 228982.4 15848 L 228982.4 32460.8 L 227238.8 32460.8 L 227238.8 18870.8 Q 226254.8 20393.6 225149.6 21695.6 Q 224634.8 20614.4 224093.6 19902.8 Q 227483.6 16167.2 229474.4 10146.8 L 231170 10664 L 231170 10662.8 Z M 240435.2 16756.4 Q 242892.8 23711.6 247070 27077.6 Q 246258.8 27668 245693.6 28527.2 Q 241761.2 24940.4 239255.6 17764.4 L 239255.6 26292.8 L 243212 26292.8 L 243212 27963.2 L 239255.6 27963.2 L 239255.6 32363.6 L 237485.6 32363.6 L 237485.6 27963.2 L 233478.8 27963.2 L 233478.8 26292.8 L 237485.6 26292.8 L 237485.6 17936 Q 234855.2 25014.8 230972 28577.6 Q 230309.6 27718.4 229646 27201.2 Q 233799.2 23883.2 236380.4 16756.4 L 230604.8 16756.4 L 230604.8 14986.4 L 237486.8 14986.4 L 237486.8 10144.4 L 239256.8 10144.4 L 239256.8 14986.4 L 246580.4 14986.4 L 246580.4 16756.4 L 240436.4 16756.4 L 240435.2 16756.4 Z M 252502.4 13438.4 Q 251567.6 15257.6 250511.6 16389.2 Q 249773.6 15922.4 248962.4 15552.8 Q 251002.4 13439.6 251961.2 9999.2 L 253731.2 10293.2 Q 253485.2 11204 253116.8 12063.2 L 259678.4 12063.2 L 259678.4 13439.6 L 255942.8 13439.6 Q 256730 14717.6 257024 15578 L 255474.8 16143.2 Q 255180.8 15184.4 254198 13438.4 L 252502.4 13438.4 Z M 254886.8 27890 L 254886.8 30250.4 L 266708 30250.4 L 266708 27890 L 254886.8 27890 Z M 254886.8 21278 L 254886.8 23367.2 L 265428.8 23367.2 L 265428.8 21278 L 254886.8 21278 Z M 254886.8 26464.4 L 268500.8 26464.4 L 268500.8 32460.8 L 266706.8 32460.8 L 266706.8 31673.6 L 254885.6 31673.6 L 254885.6 32510 L 253066.4 32510 L 253066.4 19877.6 L 267221.6 19877.6 L 267221.6 24767.6 L 254885.6 24767.6 L 254885.6 26463.2 L 254886.8 26464.4 Z M 260268.8 15036.8 Q 260980.4 16216.4 261250.4 16928 L 270196.4 16928 L 270196.4 20934.8 L 268377.2 20934.8 L 268377.2 18380 L 252132.8 18380 L 252132.8 20934.8 L 250362.8 20934.8 L 250362.8 16928 L 259383.2 16928 Q 258940.4 15872 258646.4 15381.2 L 260268.8 15036.8 Z M 270810.8 12088.4 L 270810.8 13438.4 L 266436.8 13438.4 Q 267371.6 14667.2 267789.2 15527.6 L 266314.4 16215.2 Q 265823.6 15035.6 264570.8 13437.2 L 262848.8 13437.2 Q 262137.2 14739.2 261399.2 15550.4 Q 260908.4 15132.8 259900.4 14691.2 Q 261546.8 12971.6 262284.8 10020.8 L 264054.8 10317.2 Q 263834 11103.2 263464.4 12087.2 L 270813.2 12087.2 L 270810.8 12088.4 Z M 279093.2 31994 Q 276684.8 28971.2 273662 26513.6 L 275259.2 25112 Q 278010.8 27324.8 280764.8 30568.4 L 279093.2 31994 Z M 326354 11939.6 L 314187.2 11939.6 L 314187.2 13268 L 326354 13268 L 326354 11939.6 Z M 326354 14322.8 L 314187.2 14322.8 L 314187.2 15675.2 L 326354 15675.2 L 326354 14322.8 Z M 328146.8 16780.4 L 312442.4 16780.4 L 312442.4 10833.2 L 328146.8 10833.2 L 328146.8 16780.4 Z M 331269.2 19190 L 309395.6 19190 L 309395.6 17788.4 L 331269.2 17788.4 L 331269.2 19190 Z M 319398.8 25284.8 L 319398.8 23883.2 L 313696.4 23883.2 L 313696.4 25284.8 L 319398.8 25284.8 Z M 313696.4 22803.2 L 319398.8 22803.2 L 319398.8 21425.6 L 313696.4 21425.6 L 313696.4 22803.2 Z M 327089.6 21425.6 L 321142.4 21425.6 L 321142.4 22803.2 L 327089.6 22803.2 L 327089.6 21425.6 Z M 327089.6 23883.2 L 321142.4 23883.2 L 321142.4 25284.8 L 327089.6 25284.8 L 327089.6 23883.2 Z M 331390.4 30470 L 331390.4 31895.6 L 309248 31895.6 L 309248 30470 L 319398.8 30470 L 319398.8 29044.4 L 311288 29044.4 L 311288 27766.4 L 319398.8 27766.4 L 319398.8 26414 L 312000.8 26414 L 312000.8 20295.2 L 328886 20295.2 L 328886 26414 L 321143.6 26414 L 321143.6 27766.4 L 329400.8 27766.4 L 329400.8 29044.4 L 321143.6 29044.4 L 321143.6 30470 L 331391.6 30470 L 331390.4 30470 Z M 355942.4 22754 L 345915.2 22754 L 345915.2 30077.6 Q 345915.2 31773.2 344662.4 32141.6 Q 343678.4 32486 339844.4 32486 Q 339623.6 31553.6 339058.4 30618.8 Q 341736.8 30716 343383.2 30642.8 Q 344046.8 30618.8 344046.8 30053.6 L 344046.8 22754 L 333920 22754 L 333920 20934.8 L 344046.8 20934.8 L 344046.8 17396 Q 347315.6 15897.2 350190.8 13512.8 L 336353.6 13512.8 L 336353.6 11718.8 L 352180.4 11718.8 L 352574 11621.6 L 353950.4 12653.6 Q 350632.4 15922.4 345914 18330.8 L 345914 20936 L 355941.2 20936 L 355941.2 22755.2 L 355942.4 22754 Z M 367862 17591.6 L 367862 19755.2 L 371966 19755.2 L 371966 17591.6 L 367862 17591.6 Z M 373612.4 17591.6 L 373612.4 19755.2 L 377888 19755.2 L 377888 17591.6 L 373612.4 17591.6 Z M 377888 23342 L 377888 21106.4 L 373612.4 21106.4 L 373612.4 23342 L 377888 23342 Z M 371966 23342 L 371966 21106.4 L 367862 21106.4 L 367862 23342 L 371966 23342 Z M 367862 28847.6 L 366116 28847.6 L 366116 16191.2 L 373071.2 16191.2 Q 370540.4 14937.2 368303.6 14102 L 369435.2 13070 Q 371008.4 13635.2 372999.2 14495.6 Q 374694.8 13684.4 376464.8 12406.4 L 366141.2 12406.4 L 366141.2 10956.8 L 378135.2 10956.8 L 378503.6 10859.6 L 379611.2 11718.8 Q 377595.2 13685.6 374596.4 15234.8 Q 375580.4 15676.4 376415.6 16193.6 L 379635.2 16193.6 L 379635.2 27006.8 Q 379635.2 28259.6 378800 28604 Q 378112.4 28900.4 375482 28900.4 Q 375358.4 28113.2 374990 27375.2 Q 375580.4 27400.4 377471.6 27400.4 Q 377889.2 27400.4 377889.2 26982.8 L 377889.2 24746 L 373613.6 24746 L 373613.6 28752.8 L 371967.2 28752.8 L 371967.2 24746 L 367863.2 24746 L 367863.2 28850 L 367862 28847.6 Z M 362994.8 16265.6 Q 361692.8 14570 358817.6 12063.2 L 360095.6 11031.2 Q 363094.4 13512.8 364323.2 15062 L 362994.8 16266.8 L 362994.8 16265.6 Z M 363512 27914 Q 363732.8 28037.6 364298 28455.2 Q 364937.6 28898 365379.2 29168 Q 367346 30371.6 371819.6 30371.6 Q 376120.4 30371.6 380886.8 29906 Q 380445.2 30962 380372 31700 Q 376144.4 31944.8 371770.4 31944.8 Q 367223.6 31944.8 365012 30594.8 Q 362726 29193.2 362628.8 29193.2 Q 361646 29193.2 359360 32241.2 L 358204.4 30742.4 Q 360392 28432.4 361744.4 27867.2 L 361744.4 20936 L 358304 20936 L 358304 19216.4 L 363513.2 19216.4 L 363513.2 27915.2 L 363512 27914 Z M 396762.8 13955.6 Q 396296 12702.8 395067.2 10686.8 L 396616.4 10048.4 Q 397845.2 11818.4 398410.4 13242.8 L 396764 13956.8 L 396762.8 13955.6 Z M 389734.4 10636.4 Q 388923.2 13046 387670.4 15478.4 L 387670.4 32584.4 L 385974.8 32584.4 L 385974.8 18428 Q 385016 19977.2 383639.6 21599.6 Q 383246 20715.2 382631.6 19904 Q 386072 16193.6 388112 10146.8 L 389734.4 10637.6 L 389734.4 10636.4 Z M 392438 26144 L 392438 30027.2 L 401654 30027.2 L 401654 26144 L 392438 26144 Z M 390839.6 24621.2 L 403275.2 24621.2 L 403275.2 32436.8 L 401654 32436.8 L 401654 31552.4 L 392438 31552.4 L 392438 32511.2 L 390839.6 32511.2 L 390839.6 24621.2 Z M 391184 21057.2 L 403030.4 21057.2 L 403030.4 22556 L 391184 22556 L 391184 21057.2 Z M 403030.4 19116.8 L 391184 19116.8 L 391184 17618 L 403030.4 17618 L 403030.4 19116.8 Z M 404970.8 14102 L 404970.8 15651.2 L 389414 15651.2 L 389414 14102 L 404970.8 14102 Z M 413032.4 31994 Q 410624 28971.2 407601.2 26513.6 L 409198.4 25112 Q 411950 27324.8 414704 30568.4 L 413032.4 31994 Z M 449234 11939.6 L 437067.2 11939.6 L 437067.2 13268 L 449234 13268 L 449234 11939.6 Z M 449234 14322.8 L 437067.2 14322.8 L 437067.2 15675.2 L 449234 15675.2 L 449234 14322.8 Z M 451026.8 16780.4 L 435322.4 16780.4 L 435322.4 10833.2 L 451026.8 10833.2 L 451026.8 16780.4 Z M 454149.2 19190 L 432275.6 19190 L 432275.6 17788.4 L 454149.2 17788.4 L 454149.2 19190 Z M 442278.8 25284.8 L 442278.8 23883.2 L 436576.4 23883.2 L 436576.4 25284.8 L 442278.8 25284.8 Z M 436576.4 22803.2 L 442278.8 22803.2 L 442278.8 21425.6 L 436576.4 21425.6 L 436576.4 22803.2 Z M 449969.6 21425.6 L 444022.4 21425.6 L 444022.4 22803.2 L 449969.6 22803.2 L 449969.6 21425.6 Z M 449969.6 23883.2 L 444022.4 23883.2 L 444022.4 25284.8 L 449969.6 25284.8 L 449969.6 23883.2 Z M 454270.4 30470 L 454270.4 31895.6 L 432128 31895.6 L 432128 30470 L 442278.8 30470 L 442278.8 29044.4 L 434168 29044.4 L 434168 27766.4 L 442278.8 27766.4 L 442278.8 26414 L 434880.8 26414 L 434880.8 20295.2 L 451766 20295.2 L 451766 26414 L 444023.6 26414 L 444023.6 27766.4 L 452280.8 27766.4 L 452280.8 29044.4 L 444023.6 29044.4 L 444023.6 30470 L 454271.6 30470 L 454270.4 30470 Z M 478822.4 22754 L 468795.2 22754 L 468795.2 30077.6 Q 468795.2 31773.2 467542.4 32141.6 Q 466558.4 32486 462724.4 32486 Q 462503.6 31553.6 461938.4 30618.8 Q 464616.8 30716 466263.2 30642.8 Q 466926.8 30618.8 466926.8 30053.6 L 466926.8 22754 L 456800 22754 L 456800 20934.8 L 466926.8 20934.8 L 466926.8 17396 Q 470195.6 15897.2 473070.8 13512.8 L 459233.6 13512.8 L 459233.6 11718.8 L 475060.4 11718.8 L 475454 11621.6 L 476830.4 12653.6 Q 473512.4 15922.4 468794 18330.8 L 468794 20936 L 478821.2 20936 L 478821.2 22755.2 L 478822.4 22754 Z M 487227.2 13905.2 L 481574 13905.2 L 481574 12258.8 L 487227.2 12258.8 L 487227.2 10071.2 L 489094.4 10071.2 L 489094.4 12258.8 L 495558.8 12258.8 L 495558.8 10071.2 L 497427.2 10071.2 L 497427.2 12258.8 L 503152.4 12258.8 L 503152.4 13905.2 L 497427.2 13905.2 L 497427.2 16166 L 495558.8 16166 L 495558.8 13905.2 L 489094.4 13905.2 L 489094.4 16166 L 487227.2 16166 L 487227.2 13905.2 Z M 502538 21377.6 L 500694.8 21377.6 L 500694.8 18771.2 L 483861.2 18771.2 L 483861.2 21450.8 L 482091.2 21450.8 L 482091.2 17124.8 L 502538 17124.8 L 502538 21377.6 Z M 496098.8 25875.2 Q 497844.8 23786 499073.6 21401.6 L 500744 22139.6 Q 499270.4 24524 497548.4 26588 L 496098.8 25876.4 L 496098.8 25875.2 Z M 483296 25923.2 Q 485015.6 24376.4 486171.2 21401.6 L 487694 22016 Q 486219.2 25432.4 484818.8 26758.4 L 483296 25923.2 Z M 493592 19952 Q 493444.4 21328.4 493150.4 22484 Q 495508.4 29366 503619.2 30668 Q 502956.8 31330.4 502490 32363.6 Q 495190.4 30864.8 492388.4 24965.6 Q 490028 30741.2 482237.6 32436.8 Q 481770.8 31452.8 481156.4 30790.4 Q 486268.4 29757.2 488676.8 27299.6 Q 491159.6 24720.8 491674.4 19682 L 493590.8 19952 L 493592 19952 Z M 526058 12479.6 Q 524018 15651.2 522224 17666 L 520674.8 17003.6 Q 522738.8 14594 524189.6 11744 L 526056.8 12479.6 L 526058 12479.6 Z M 511631.6 17691.2 Q 510598.4 15527.6 508092.8 12479.6 L 509542.4 11668.4 Q 512000 14544.8 513204.8 16732.4 L 511631.6 17691.2 Z M 525148.4 30273.2 Q 525689.6 30273.2 525861.2 29879.6 Q 526034 29511.2 526107.2 28182.8 Q 526696.4 28625.6 527801.6 28870.4 Q 527630 30713.6 527112.8 31353.2 Q 526598 32016.8 525296 32016.8 L 521510 32016.8 Q 519839.6 32016.8 519274.4 31475.6 Q 518733.2 30958.4 518733.2 29409.2 L 518733.2 20856.8 L 514898 20856.8 Q 514529.6 25624.4 513153.2 28008.8 Q 511407.2 31104.8 507131.6 32579.6 Q 506714 31668.8 505976 31006.4 Q 509932.4 29752.4 511505.6 27074 Q 512709.2 25034 513005.6 20856.8 L 506295.2 20856.8 L 506295.2 19086.8 L 515930 19086.8 L 515930 10043.6 L 517821.2 10043.6 L 517821.2 19086.8 L 527406.8 19086.8 L 527406.8 20856.8 L 520548.8 20856.8 L 520548.8 29385.2 Q 520548.8 29950.4 520770.8 30123.2 Q 520966.4 30270.8 521704.4 30270.8 L 525146 30270.8 L 525148.4 30273.2 Z M 533897.6 22188.8 L 535544 22188.8 L 535544 24915.2 Q 535544 30027.2 531292.4 32411.6 Q 530825.6 31724 530186 31209.2 Q 533897.6 29169.2 533897.6 24892.4 L 533897.6 22190 L 533897.6 22188.8 Z M 539745.2 22212.8 L 541392.8 22212.8 L 541392.8 32411.6 L 539745.2 32411.6 L 539745.2 22212.8 Z M 537263.6 9998 Q 538246.4 11202.8 539033.6 12897.2 L 544218.8 12897.2 L 544218.8 14519.6 L 541908.8 14519.6 Q 541097.6 16805.6 539378 18476 Q 542523.2 20195.6 543948.8 21130.4 L 542966 22532 Q 541146.8 21278 538124 19582.4 Q 535444.4 21574.4 531168.8 22654.4 Q 530775.2 21770 530210 21204.8 Q 534093.2 20393.6 536598.8 18723.2 Q 534828.8 17788.4 532470.8 16632.8 L 533478.8 15429.2 Q 535173.2 16239.2 537951.2 17664.8 Q 539327.6 16362.8 540089.6 14519.6 L 530800.4 14519.6 L 530800.4 12897.2 L 537117.2 12897.2 Q 536600 11768 535740.8 10515.2 L 537263.6 9998 Z M 547168.4 25702.4 L 545498 25702.4 L 545498 13365.2 L 547168.4 13365.2 L 547168.4 25702.4 Z M 551690 10245.2 L 551690 30077.6 Q 551690 31576.4 550683.2 32019.2 Q 549798.8 32387.6 546653.6 32338.4 Q 546456.8 31454 546063.2 30642.8 Q 548570 30716 549429.2 30668 Q 550043.6 30642.8 550043.6 30077.6 L 550043.6 10245.2 L 551690 10245.2 Z " fill-rule="nonzero" style="fill:#ffffff;;fill-opacity:1;"/>
</svg>