<svg version="1.1" x="0" y="0" width="100%" height="100%" viewBox="0 0 221184 67840" xmlns="http://www.w3.org/2000/svg">
  <path d="M 9230 29610.1 L 6090.5 29610.1 L 6090.5 20924.5 L 22691 20924.5 Q 21785.9 18730 20540.6 16753.9 L 23680.1 15764.8 Q 25572.2 18688 26473.1 20924.5 L 41097.5 20924.5 L 41097.5 29610.1 L 37829.9 29610.1 L 37829.9 23933.8 L 9227.9 23933.8 L 9227.9 29610.1 L 9230 29610.1 Z M 18736.7 33096.1 Q 16628.3 30601.3 12455.6 28148.5 L 14389.7 26126.2 Q 18690.5 28492.9 20756.9 30817.6 L 18734.6 33096.1 L 18736.7 33096.1 Z M 10088.9 32623.6 Q 14734.1 35160.4 16798.4 37352.8 L 14864.3 39761.5 Q 12758 37399 8240.9 34776.1 L 10088.9 32625.7 L 10088.9 32623.6 Z M 26691.5 44965.3 Q 36326.3 48449.2 41918.6 52579.9 L 39984.5 55030.6 Q 34434.2 50815.9 25143.8 47287.9 L 26691.5 44967.4 L 26691.5 44965.3 Z M 42088.7 40964.8 L 42088.7 43762 L 24324.8 43762 Q 20542.7 52147.3 7512.2 55156.6 Q 6865.4 53566.9 5706.2 52405.6 Q 17060.9 49996.9 20630.9 43762 L 5275.7 43762 L 5275.7 40964.8 L 21918.2 40964.8 Q 23381.9 36622 23682.2 26086.3 L 26993.9 26086.3 Q 26691.5 36063.4 25316 40966.9 L 42088.7 40966.9 L 42088.7 40964.8 Z M 83546.9 22344.1 L 64924.1 22344.1 L 64924.1 19330.6 L 83546.9 19330.6 L 83546.9 22344.1 Z M 62173.1 18990.4 Q 59678.3 25699.9 57744.2 30084.7 Q 61744.7 34513.6 61744.7 39461.2 Q 61744.7 43159.3 59980.7 44404.6 Q 59163.8 45007.3 57616.1 45223.6 Q 56412.8 45351.7 54648.8 45265.6 Q 54564.8 43675.9 53789.9 42472.6 Q 55682 42558.7 56370.8 42514.6 Q 57187.7 42430.6 57702.2 42128.2 Q 58649.3 41483.5 58649.3 39158.8 Q 58649.3 34774 54692.9 30473.2 Q 56715.2 25441.6 58176.8 20796.4 L 51941.9 20796.4 L 51941.9 55286.8 L 48886.4 55286.8 L 48886.4 17871.1 L 59422.1 17871.1 L 59940.8 17743 L 62175.2 18992.5 L 62173.1 18990.4 Z M 69012.8 37955.5 Q 66862.4 45954.4 63206.3 51160.3 Q 61786.7 49957 60625.4 49484.5 Q 64109.3 44967.4 66089.6 37312.9 L 69014.9 37957.6 L 69012.8 37955.5 Z M 75419.9 32537.5 L 75419.9 51246.4 Q 75419.9 53911.3 73830.2 54556 Q 72452.6 55202.8 67637.3 55202.8 Q 67421 53655.1 66648.2 51933.1 Q 67765.4 51977.2 71421.5 51977.2 Q 72238.4 51933.1 72238.4 51246.4 L 72238.4 32537.5 L 63076.1 32537.5 L 63076.1 29528.2 L 85871.6 29528.2 L 85871.6 32537.5 L 75419.9 32537.5 Z M 81010.1 37224.7 Q 84708.2 44623 85911.5 50127.1 L 82944.2 51160.3 Q 81955.1 45526 78343.1 38041.6 L 81008 37224.7 L 81010.1 37224.7 Z M 96579.5 24578.5 L 96579.5 33224.2 Q 96579.5 48190.9 92537 55631.2 Q 91636.1 54642.1 89830.1 53867.2 Q 93400.1 47203.9 93400.1 33226.3 L 93400.1 21527.2 L 110475.2 21527.2 Q 109570.1 19118.5 108192.5 16495.6 L 111290 15720.7 Q 113054 18776.2 114087.2 21529.3 L 128451.2 21529.3 L 128451.2 24580.6 L 96581.6 24580.6 L 96579.5 24578.5 Z M 112321.1 43247.5 Q 111416 37310.8 108751.1 28581.1 L 111632.3 27806.2 Q 114385.4 36407.8 115332.5 42386.5 L 112323.2 43249.6 L 112321.1 43247.5 Z M 104105.9 45654.1 Q 102988.7 40150 99460.7 30987.7 L 102213.8 29870.5 Q 105699.8 38428 107075.3 44450.8 L 104108 45654.1 L 104105.9 45654.1 Z M 129007.7 50255.2 L 129007.7 53310.7 L 97138.1 53310.7 L 97138.1 50255.2 L 114125 50255.2 Q 120275.9 40408.3 123199.1 27547.9 L 126552.8 28751.2 Q 123110.9 40578.4 117392.6 50255.2 L 129003.5 50255.2 L 129007.7 50255.2 Z M 165950.9 39158.8 L 165950.9 32020.9 L 154382 32020.9 L 154382 39158.8 L 165950.9 39158.8 Z M 151198.4 39158.8 L 151198.4 32020.9 L 140918.9 32020.9 L 140918.9 34557.7 Q 140918.9 37052.5 140748.8 39158.8 L 151198.4 39158.8 Z M 140918.9 22129.9 L 140918.9 29009.5 L 151198.4 29009.5 L 151198.4 22129.9 L 140918.9 22129.9 Z M 165950.9 22129.9 L 154382 22129.9 L 154382 29009.5 L 165950.9 29009.5 L 165950.9 22129.9 Z M 169090.4 50986 Q 169090.4 53783.2 167156.3 54556 Q 165520.4 55158.7 159155.3 55074.7 Q 158939 53739.1 158080.1 51977.2 Q 160102.4 52061.2 164789.6 52061.2 Q 165950.9 52019.2 165950.9 50944 L 165950.9 42214.3 L 154382 42214.3 L 154382 54900.4 L 151198.4 54900.4 L 151198.4 42214.3 L 140446.4 42214.3 Q 139287.2 50857.9 135070.4 55547.2 Q 134169.5 54297.7 132621.8 53438.8 Q 137781.5 47632.3 137781.5 34559.8 L 137781.5 19076.5 L 169090.4 19076.5 L 169090.4 50988.1 L 169090.4 50986 Z " fill-rule="nonzero" style="fill:#ffffff;;fill-opacity:1;"/>
</svg>