<svg version="1.1" x="0" y="0" width="100%" height="100%" viewBox="0 0 723558.4 79974.4" xmlns="http://www.w3.org/2000/svg">
  <path d="M 32460.5 44032.4 L 42340.5 44032.4 L 42340.5 40039.9 L 32460.5 40039.9 L 32460.5 44032.4 Z M 32460.5 37172.4 L 42340.5 37172.4 L 42340.5 33432.4 L 32460.5 33432.4 L 32460.5 37172.4 Z M 48128 49819.9 Q 44545.5 52429.9 39475.5 55142.4 Q 44595.5 58622.4 51355.5 60109.9 Q 49973 61339.9 49103 63129.9 Q 38403 60262.4 32463 52684.9 L 32463 61082.4 Q 32463 64152.4 30260.5 64922.4 Q 28570.5 65484.9 21610.5 65484.9 Q 21300.5 63897.4 20380.5 62207.4 Q 24783 62409.9 27445.5 62257.4 Q 28673 62207.4 28673 61079.9 L 28673 55702.4 Q 21095.5 59082.4 13313 62359.9 L 11775.5 59237.4 Q 16643 57547.4 28673 52684.9 L 28673 46794.9 L 15155.5 46794.9 L 15155.5 44032.4 L 28673 44032.4 L 28673 40039.9 L 13160.5 40039.9 L 13160.5 37172.4 L 28673 37172.4 L 28673 33432.4 L 15615.5 33432.4 L 15615.5 30669.9 L 28673 30669.9 L 28673 26572.4 L 11930.5 26572.4 L 11930.5 38244.9 Q 11930.5 56574.9 6968 65484.9 Q 5738 64254.9 3895.5 63434.9 Q 8298 55294.9 8298 38244.9 L 8298 23192.4 L 28368 23192.4 Q 27088 20734.9 26115.5 19302.4 L 29753 18224.9 Q 31493 20684.9 32773 23192.4 L 50435.5 23192.4 L 50435.5 26572.4 L 32465.5 26572.4 L 32465.5 30669.9 L 45983 30669.9 L 45983 36917.4 L 51000.5 36917.4 L 51000.5 40244.9 L 45983 40244.9 L 45983 46797.4 L 32465.5 46797.4 L 32465.5 47617.4 Q 34155.5 50587.4 37073 53249.9 Q 42193 50177.4 45315.5 47567.4 L 48133 49819.9 L 48128 49819.9 Z M 16640.5 47309.9 Q 21503 50177.4 24165.5 52534.9 L 21963 54887.4 Q 19353 52379.9 14485.5 49409.9 L 16638 47309.9 L 16640.5 47309.9 Z M 66765.5 47462.4 L 66765.5 52479.9 L 91085.5 52479.9 L 91085.5 47462.4 L 66765.5 47462.4 Z M 91085.5 60622.4 L 91085.5 55449.9 L 66765.5 55449.9 L 66765.5 60622.4 L 91085.5 60622.4 Z M 63028 44389.9 L 94925.5 44389.9 L 94925.5 65229.9 L 91085.5 65229.9 L 91085.5 63692.4 L 66765.5 63692.4 L 66765.5 65432.4 L 63028 65432.4 L 63028 44389.9 Z M 75520.5 38092.4 L 82020.5 38092.4 L 82020.5 28109.9 L 75520.5 28109.9 L 75520.5 38092.4 Z M 101685.5 38092.4 L 101685.5 41264.9 L 56065.5 41264.9 L 56065.5 38092.4 L 71935.5 38092.4 L 71935.5 28109.9 L 58933 28109.9 L 58933 24937.4 L 68560.5 24937.4 Q 67380.5 22169.9 65333 19917.4 L 68560.5 18637.4 Q 71068 21097.4 72298 23964.9 L 70095.5 24937.4 L 84893 24937.4 Q 87145.5 21814.9 88528 18637.4 L 92265.5 19867.4 Q 90525.5 22989.9 89043 24937.4 L 99130.5 24937.4 L 99130.5 28109.9 L 85613 28109.9 L 85613 38092.4 L 101690.5 38092.4 L 101685.5 38092.4 Z M 64358 28774.9 Q 67328 32407.4 68505.5 36197.4 L 65128 37527.4 Q 64308 33994.9 61235.5 29952.4 L 64358 28774.9 Z M 88678 36554.9 Q 91188 32867.4 92928 28567.4 L 96308 29694.9 Q 93848 34507.4 91648 37579.9 L 88678 36552.4 L 88678 36554.9 Z M 137678 30054.9 Q 138598 27852.4 139520.5 24624.9 L 129330.5 24624.9 L 129330.5 21297.4 L 152883 21297.4 L 152883 24624.9 L 143153 24624.9 Q 141720.5 28517.4 141108 30054.9 L 151090.5 30054.9 L 151090.5 53247.4 L 147608 53247.4 L 147608 33177.4 L 134555.5 33177.4 L 134555.5 53347.4 L 131225.5 53347.4 L 131225.5 30054.9 L 137678 30054.9 Z M 127898 54119.9 Q 128050.5 55657.4 128510.5 57397.4 Q 117043 62927.4 115915.5 64054.9 Q 115298 62262.4 114070.5 60724.9 Q 116118 59547.4 116118 56987.4 L 116118 48999.9 L 108388 48999.9 L 108388 32359.9 L 111408 32359.9 L 111408 45669.9 L 116118 45669.9 L 116118 28417.4 L 107005.5 28417.4 L 107005.5 25037.4 L 116118 25037.4 L 116118 18789.9 L 119600.5 18789.9 L 119600.5 25037.4 L 127998 25037.4 L 127998 28417.4 L 119600.5 28417.4 L 119600.5 45669.9 L 124310.5 45669.9 L 124310.5 32359.9 L 127433 32359.9 L 127433 48999.9 L 119600.5 48999.9 L 119600.5 57807.4 L 127893 54119.9 L 127898 54119.9 Z M 143000.5 35992.4 Q 142743 50022.4 140490.5 55399.9 Q 137523 62412.4 128405.5 65432.4 Q 127998 64052.4 126408 62719.9 Q 134908 60059.9 137468 53812.4 Q 139415.5 49102.4 139618 35992.4 L 142998 35992.4 L 143000.5 35992.4 Z M 143515.5 54579.9 Q 150425.5 59597.4 153498 62824.9 L 151348 65384.9 Q 147865.5 61647.4 141365.5 56784.9 L 143515.5 54582.4 L 143515.5 54579.9 Z M 181860.5 29592.4 L 158770.5 29592.4 L 158770.5 26112.4 L 169728 26112.4 Q 168550.5 23142.4 166090.5 19914.9 L 169163 18634.9 Q 171723 21707.4 173155.5 24829.9 L 170393 26109.9 L 181860.5 26109.9 L 181860.5 29589.9 L 181860.5 29592.4 Z M 178430.5 41214.9 Q 176893 37117.4 172800.5 32254.9 L 175668 30772.4 Q 179815.5 35582.4 181453 39524.9 L 178433 41214.9 L 178430.5 41214.9 Z M 167730.5 31899.9 Q 164658 39017.4 160308 44187.4 Q 159028 42754.9 157595.5 41884.9 Q 161793 37377.4 164455.5 30874.9 L 167733 31902.4 L 167730.5 31899.9 Z M 176488 60212.4 Q 174898 57034.9 171315.5 52632.4 Q 167015.5 59649.9 160463 64207.4 Q 159130.5 62567.4 157800.5 61439.9 Q 164813 57089.9 168963 49717.4 Q 166195.5 46439.9 162868 43109.9 L 165630.5 41062.4 Q 168140.5 43572.4 170750.5 46334.9 Q 172338 42854.9 173365.5 39167.4 L 176895.5 39884.9 Q 175668 44387.4 173260.5 49199.9 Q 177663 54372.4 179555.5 57852.4 L 176485.5 60209.9 L 176488 60212.4 Z M 189185.5 31539.9 Q 188213 34509.9 187955.5 35122.4 Q 189595.5 42802.4 192665.5 48894.9 Q 196045.5 42292.4 197685.5 31539.9 L 189185.5 31539.9 Z M 201368 31539.9 Q 199370.5 44749.9 194713 52582.4 Q 199013 59289.9 204900.5 62362.4 Q 203570.5 63384.9 202240.5 65382.4 Q 196558 62054.9 192565.5 55857.4 Q 188058 61797.4 180788 65584.9 Q 179815.5 64204.9 178175.5 62772.4 Q 186008 59134.9 190568 52477.4 Q 187648 46897.4 185805.5 40087.4 Q 184628 42389.9 182988 44797.4 Q 181760.5 43057.4 180428 41979.9 Q 185958 34457.4 188620.5 18634.9 L 192153 19147.4 Q 191180.5 24419.9 190208 27952.4 L 204238 27952.4 L 204238 31534.9 L 201368 31534.9 L 201368 31539.9 Z M 216985.5 28874.9 L 216985.5 39167.4 Q 216985.5 56984.9 212173 65842.4 Q 211100.5 64664.9 208950.5 63742.4 Q 213200.5 55809.9 213200.5 39169.9 L 213200.5 25242.4 L 233528 25242.4 Q 232450.5 22374.9 230810.5 19252.4 L 234498 18329.9 Q 236598 21967.4 237828 25244.9 L 254928 25244.9 L 254928 28877.4 L 216988 28877.4 L 216985.5 28874.9 Z M 235725.5 51099.9 Q 234648 44032.4 231475.5 33639.9 L 234905.5 32717.4 Q 238183 42957.4 239310.5 50074.9 L 235728 51102.4 L 235725.5 51099.9 Z M 225945.5 53964.9 Q 224615.5 47412.4 220415.5 36504.9 L 223693 35174.9 Q 227843 45362.4 229480.5 52532.4 L 225948 53964.9 L 225945.5 53964.9 Z M 255590.5 59442.4 L 255590.5 63079.9 L 217650.5 63079.9 L 217650.5 59442.4 L 237873 59442.4 Q 245195.5 47719.9 248675.5 32409.9 L 252668 33842.4 Q 248570.5 47922.4 241763 59442.4 L 255585.5 59442.4 L 255590.5 59442.4 Z " fill-rule="nonzero" style="fill:#ffffff;;fill-opacity:1;"/>
</svg>