<svg version="1.1" x="0" y="0" width="100%" height="100%" viewBox="0 0 393267.2 54118.4" xmlns="http://www.w3.org/2000/svg">
  <path d="M 171017.75 17295.85 L 159656.75 17295.85 L 159656.75 19661.85 L 171017.75 19661.85 L 171017.75 17295.85 Z M 159656.75 28189.6 L 171017.75 27725.85 L 171017.75 25540.1 L 159656.75 25540.1 L 159656.75 28191.35 L 159656.75 28189.6 Z M 171017.75 21380.35 L 159656.75 21380.35 L 159656.75 23853.1 L 171017.75 23853.1 L 171017.75 21380.35 Z M 157255.75 17295.85 L 154496 17295.85 L 154496 15253.6 L 176574 15253.6 L 176574 17295.85 L 173418.75 17295.85 L 173418.75 27619.1 L 176967.75 27473.85 L 176931 29372.6 L 173418.75 29552.85 L 173418.75 31273.1 L 171017.75 31273.1 L 171017.75 29698.1 Q 160733 30270.35 155285.25 30450.6 L 154963.25 28336.6 L 157257.5 28264.85 L 157257.5 17297.6 L 157255.75 17295.85 Z M 151127.25 31810.35 L 151127.25 43278.1 Q 151127.25 45250.35 149981 45824.35 Q 149013.25 46326.6 145823 46326.6 Q 145677.75 45106.85 145068.75 43853.85 Q 147469.75 43925.6 148080.5 43853.85 Q 148652.75 43853.85 148652.75 43279.85 L 148652.75 32814.85 L 144927 34284.85 L 144172.75 31666.85 Q 146719 30916.1 148652.75 30235.35 L 148652.75 22638.6 L 144640 22638.6 L 144640 20127.35 L 148652.75 20127.35 L 148652.75 13713.6 L 151125.5 13713.6 L 151125.5 20127.35 L 154352.5 20127.35 L 154352.5 22638.6 L 151125.5 22638.6 L 151125.5 29412.85 L 153920.25 28445.1 L 154352.5 30524.1 L 151125.5 31813.85 L 151127.25 31810.35 Z M 164423.75 32814.85 Q 163421 36540.6 161126.75 39837.6 Q 163134 41414.35 163884.75 42240.35 L 162344.75 43852.1 Q 161916 43384.85 159800.25 41486.1 Q 157184 44567.85 153565 46394.85 Q 153132.75 45392.1 152166.75 44496.1 Q 155392 43062.85 158045 40087.85 Q 155070 37867.1 153887 37077.85 L 155392 35714.6 Q 158080 37541.6 159369.75 38474.35 Q 160659.5 36682.35 161555.5 34496.6 L 153958.75 34496.6 L 153958.75 32310.85 L 162560 32310.85 L 162988.75 32204.1 L 164423.75 32813.1 L 164423.75 32814.85 Z M 167614 34426.6 Q 168651.75 37294.85 170337 39445.6 Q 172274.25 37329.85 173492.25 34426.6 L 167614 34426.6 Z M 176215.25 32706.35 Q 174997.25 37473.35 171807 41020.6 Q 174173 43279.85 177363.25 44391.1 Q 176287 45393.85 175784.75 46470.1 Q 172594.5 45145.35 170193.5 42637.6 Q 167505.5 44966.85 163706.25 46436.85 Q 163347.5 45469.1 162451.5 44501.35 Q 166142.25 43283.35 168758.5 40954.1 Q 166786.25 38336.1 165533.25 34430.1 L 164637.25 34430.1 L 164637.25 32244.35 L 174458.25 32244.35 L 174887 32172.6 L 176211.75 32711.6 L 176215.25 32706.35 Z M 190694.75 14607.85 Q 189153 18837.6 187039 22598.35 L 187039 46326.6 L 184492.75 46326.6 L 184492.75 26721.35 Q 183059.5 28835.35 181409.25 30662.35 Q 180837 29372.6 179904.25 28047.85 Q 185138.5 22565.1 188183.5 13820.35 L 190694.75 14609.6 L 190694.75 14607.85 Z M 193955 26864.85 L 198867.25 26864.85 Q 199905 25324.85 200263.75 23280.85 L 193955 23280.85 L 193955 26864.85 Z M 196105.75 18333.6 Q 194672.5 20270.85 193739.75 21238.6 L 200405.5 21238.6 Q 201266.5 20342.6 202556.25 18333.6 L 196104 18333.6 L 196105.75 18333.6 Z M 208291 23280.85 L 202451.25 23280.85 Q 202306 25109.6 201446.75 26864.85 L 208291 26864.85 L 208291 23280.85 Z M 211159.25 32097.35 Q 209547.5 33135.1 207181.5 34353.1 Q 209118.75 40196.35 213346.75 42382.1 Q 212309 43171.35 211628.25 44389.35 Q 207328.5 41738.1 205249.5 35320.85 L 203492.5 36145.1 Q 204388.5 38904.85 204101.5 41521.1 Q 203851.25 44032.35 202668.25 45178.6 Q 201557 46396.6 199549.75 46396.6 Q 198149.75 46396.6 197364 46326.6 Q 197292.25 44963.35 196718.25 44032.35 Q 197973 44174.1 199084.25 44174.1 Q 200230.5 44174.1 200839.5 43493.35 Q 202167.75 42168.6 201665.5 38549.6 Q 196933.5 42849.35 190267.75 45143.6 Q 189478.5 43888.85 188727.75 43279.85 Q 196646.5 40878.85 201163.25 36363.85 Q 200839.5 35287.6 200302.25 34354.85 Q 196144.25 37903.85 190553 39947.85 Q 189909 38980.1 189083 38225.85 Q 195426.75 36327.1 199369.5 32849.85 Q 198688.75 31883.85 197864.5 31164.6 Q 194924.5 33315.35 190551.25 34748.6 Q 189870.5 33745.85 189046.25 33101.85 Q 194280.5 31416.6 197075.25 28908.85 L 191554 28908.85 L 191554 23387.6 Q 190694.75 24213.6 189653.5 24964.35 Q 189044.5 23961.6 187933.25 23280.85 Q 193237.5 19555.1 196177.5 13711.85 L 198685.25 14179.1 Q 198505 14536.1 198111.25 15216.85 L 197502.25 16258.1 L 203989.5 16258.1 L 204456.75 16112.85 L 206033.5 17260.85 Q 204813.75 19303.1 203167 21240.35 L 210763.75 21240.35 L 210763.75 28910.6 L 200157 28910.6 Q 199905 29232.6 199331 29806.6 Q 201555.25 31633.6 202845 34356.6 Q 206464 32494.6 209367.25 30450.6 L 211159.25 32100.85 L 211159.25 32097.35 Z M 228829 33565.6 Q 227861.25 31883.85 225101.5 27760.85 L 225101.5 46396.6 L 222485.25 46396.6 L 222485.25 29015.6 Q 220047.5 35931.6 217396.25 39300.35 Q 217074.25 38549.6 215961.25 36972.85 Q 220084.25 31596.85 222163.25 23139.1 L 216500.25 23139.1 L 216500.25 20592.85 L 222485.25 20592.85 L 222485.25 13711.85 L 225101.5 13711.85 L 225101.5 20592.85 L 230083.75 20592.85 L 230083.75 23139.1 L 225101.5 23139.1 L 225101.5 24322.1 Q 226606.5 26007.35 230370.75 31024.6 L 228830.75 33567.35 L 228829 33565.6 Z M 245707.75 43531.85 Q 246140 43531.85 246390.25 43279.85 Q 246605.5 43029.6 246750.75 41916.6 Q 246857.5 39445.6 246857.5 36827.6 Q 247538.25 37473.35 248898 37975.6 Q 248898 42096.85 248611 43531.85 Q 248360.75 44930.1 247680 45502.35 Q 246964.25 46004.6 245816.25 46004.6 L 244061 46004.6 Q 242878 46004.6 242052 45288.85 Q 241301.25 44644.85 241301.25 41060.85 L 241301.25 18267.1 L 234742.25 18267.1 L 234742.25 27190.35 Q 234742.25 40415.1 228864 46506.85 Q 228039.75 45360.6 226785 44714.85 Q 232089.25 39268.85 232089.25 27153.6 L 232089.25 15720.85 L 243917.5 15720.85 L 243917.5 41311.1 Q 243917.5 43103.1 244132.75 43318.35 Q 244419.75 43535.35 244741.75 43535.35 L 245709.5 43535.35 L 245707.75 43531.85 Z " fill-rule="nonzero" style="fill:#ffffff;;fill-opacity:1;"/>
</svg>