<svg version="1.1" x="0" y="0" width="100%" height="100%" viewBox="0 0 491212.8 64819.2" xmlns="http://www.w3.org/2000/svg">
  <path d="M 19866 27954 L 19866 31560 L 26706 31560 L 26706 27954 L 19866 27954 Z M 29450 27954 L 29450 31560 L 36576 31560 L 36576 27954 L 29450 27954 Z M 36576 37538 L 36576 33812 L 29450 33812 L 29450 37538 L 36576 37538 Z M 26706 37538 L 26706 33812 L 19866 33812 L 19866 37538 L 26706 37538 Z M 19866 46714 L 16956 46714 L 16956 25620 L 28548 25620 Q 24330 23530 20602 22138 L 22488 20418 Q 25110 21360 28428 22794 Q 31254 21442 34204 19312 L 16998 19312 L 16998 16896 L 36988 16896 L 37602 16734 L 39448 18166 Q 36088 21444 31090 24026 Q 32730 24762 34122 25624 L 39488 25624 L 39488 43646 Q 39488 45734 38096 46308 Q 36950 46802 32566 46802 Q 32360 45490 31746 44260 Q 32730 44302 35882 44302 Q 36578 44302 36578 43606 L 36578 39878 L 29452 39878 L 29452 46556 L 26708 46556 L 26708 39878 L 19868 39878 L 19868 46718 L 19866 46714 Z M 11754 25744 Q 9584 22918 4792 18740 L 6922 17020 Q 11920 21156 13968 23738 L 11754 25746 L 11754 25744 Z M 12616 45158 Q 12984 45364 13926 46060 Q 14992 46798 15728 47248 Q 19006 49254 26462 49254 Q 33630 49254 41574 48478 Q 40838 50238 40716 51468 Q 33670 51876 26380 51876 Q 18802 51876 15116 49626 Q 11306 47290 11144 47290 Q 9506 47290 5696 52370 L 3770 49872 Q 7416 46022 9670 45080 L 9670 33528 L 3936 33528 L 3936 30662 L 12618 30662 L 12618 45160 L 12616 45158 Z M 72458 25622 L 56730 25622 L 56730 22712 L 72458 22712 L 72458 15544 L 75488 15544 L 75488 22712 L 81142 22712 L 81142 25622 L 75488 25622 L 75488 41800 Q 75488 44584 73522 45200 Q 71884 45774 65780 45774 Q 65574 44340 64716 42702 Q 67666 42784 71352 42784 Q 72458 42742 72458 41800 L 72458 25622 Z M 61072 28856 Q 65454 34222 66928 36844 L 64350 38402 Q 62302 34594 58656 30170 L 61072 28858 L 61072 28856 Z M 52430 25048 Q 50544 21854 46408 18044 L 48742 16486 Q 53126 20502 54928 23286 L 52430 25048 Z M 53822 44382 Q 54110 44544 55092 45280 Q 56076 45978 56854 46468 Q 60006 48434 67502 48434 Q 74836 48434 82372 47656 Q 81510 49418 81430 50932 Q 75614 51342 67422 51342 Q 59680 51342 56158 49088 Q 52348 46672 52226 46672 Q 50712 46672 46818 51872 L 44690 49006 Q 48252 45156 50834 44174 L 50834 33524 L 45220 33524 L 45220 30658 L 53822 30658 L 53822 44380 L 53822 44382 Z M 88064 19640 L 96992 19640 Q 107314 19640 107314 26974 Q 107314 32094 102890 33486 L 102890 33692 Q 109034 34878 109034 40860 Q 109034 45158 105882 47454 Q 102850 49664 97648 49664 L 88064 49664 L 88064 19640 Z M 96338 32418 Q 103586 32418 103586 27464 Q 103586 22630 96500 22630 L 91870 22630 L 91870 32420 L 96336 32420 L 96338 32418 Z M 97118 46632 Q 105310 46632 105310 40736 Q 105310 35328 97118 35328 L 91872 35328 L 91872 46632 L 97118 46632 Z M 137073.2 21526 Q 138465.2 23532 140595.2 25252 Q 142931.2 23286 144363.2 20910 L 137563.2 20910 L 137073.2 21526 Z M 148009.2 19354 Q 146371.2 23572 142765.2 26724 Q 146165.2 28814 149811.2 29632 Q 148827.2 30574 148131.2 31926 Q 144117.2 30740 140717.2 28282 Q 137235.2 30780 132525.2 32172 Q 131869.2 30820 131051.2 29962 Q 135187.2 28938 138669.2 26644 Q 137155.2 25210 135597.2 23122 Q 134367.2 24352 132975.2 25416 Q 132319.2 24432 131255.2 23368 Q 135925.2 20174 138179.2 15260 L 140595.2 15956 Q 140145.2 17142 139161.2 18656 L 145755.2 18656 L 146289.2 18534 L 148009.2 19356 L 148009.2 19354 Z M 139203.2 48106 L 139203.2 44380 L 131789.2 44380 L 131789.2 42166 L 139203.2 42166 L 139203.2 39544 L 133345.2 39544 L 133345.2 37456 L 139203.2 37456 L 139203.2 35162 L 132565.2 35162 L 132565.2 32988 L 139203.2 32988 L 139203.2 30694 L 141987.2 30694 L 141987.2 32988 L 148131.2 32988 L 148131.2 35162 L 141987.2 35162 L 141987.2 37456 L 147149.2 37456 L 147149.2 39544 L 141987.2 39544 L 141987.2 42166 L 148869.2 42166 L 148869.2 44380 L 141987.2 44380 L 141987.2 48106 L 139203.2 48106 Z M 127897.2 26152 Q 126995.2 22834 124907.2 17756 L 127243.2 16978 Q 129331.2 21770 130395.2 25170 L 127897.2 26152 Z M 124825.2 36886 Q 124785.2 37704 124785.2 39424 Q 114791.2 41432 113727.2 42046 Q 113277.2 40532 112787.2 39386 Q 113769.2 39180 115531.2 36764 Q 117045.2 34878 119053.2 31356 Q 114135.2 32012 113439.2 32380 Q 112989.2 30782 112459.2 29596 Q 113237.2 29390 114587.2 27014 Q 117579.2 21812 119299.2 15422 L 122205.2 16652 Q 119667.2 23698 116309.2 29186 L 120607.2 28696 Q 122247.2 25542 122777.2 24272 L 125275.2 25664 Q 121345.2 33366 117535.2 38240 L 124825.2 36888 L 124825.2 36886 Z M 125523.2 46182 Q 114873.2 49624 113439.2 50114 L 112743.2 47164 Q 117167.2 46100 125031.2 43764 L 125525.2 46180 L 125523.2 46182 Z M 130395.2 45856 Q 130765.2 46058 131501.2 46632 Q 132363.2 47370 132853.2 47698 Q 135391.2 49418 140389.2 49418 Q 145837.2 49418 150099.2 48844 Q 149523.2 50442 149443.2 51752 Q 145101.2 52080 140307.2 52080 Q 135313.2 52080 132321.2 50074 Q 129577.2 47944 129169.2 47944 Q 127857.2 47944 124907.2 52530 L 123227.2 50032 Q 125849.2 46798 127775.2 45856 L 127775.2 32624 L 124129.2 32624 L 124129.2 30046 L 130395.2 30046 L 130395.2 45856 Z " fill-rule="nonzero" style="fill:#ffffff;;fill-opacity:1;"/>
</svg>