<svg version="1.1" x="0" y="0" width="100%" height="100%" viewBox="0 0 189235.2 61644.8" xmlns="http://www.w3.org/2000/svg">
  <path d="M 3760.85 23149 L 6931 23149 L 6931 12506.15 L 4403.05 12506.15 L 4403.05 11377.55 Q 6172.9 11046.95 7359.45 10365.8 L 8720.8 10365.8 L 8720.8 23149 L 11581.25 23149 L 11581.25 24627.2 L 3760.85 24627.2 L 3760.85 23149 Z M 20855.05 15988.85 Q 20563.4 11494.4 17740.95 11494.4 Q 16710.2 11494.4 16030 12369.35 Q 15329.85 13284.2 15329.85 14724.4 Q 15329.85 16202.6 15972.05 17039.55 Q 16633.25 17894.55 17878.7 17894.55 Q 19512.7 17894.55 20855.05 15987.9 L 20855.05 15988.85 Z M 14901.4 22312.05 Q 15874.2 23401.7 17294.45 23401.7 Q 20699.25 23401.7 20874.05 17448.05 Q 19453.8 19218.85 17587.05 19218.85 Q 15758.3 19218.85 14727.55 18071.25 Q 13656.9 16903.7 13656.9 14725.35 Q 13656.9 12700.9 14862.45 11378.5 Q 16030 10094.1 17740.95 10094.1 Q 19881.3 10094.1 21165.7 11786.05 Q 22527.05 13595.8 22527.05 16883.75 Q 22527.05 20949.75 20951 23051.15 Q 19568.75 24879.9 17350.5 24879.9 Q 15327.95 24879.9 13926.7 23420.7 L 14899.5 22311.1 L 14901.4 22312.05 Z M 25711.35 23810.2 Q 24426.95 22739.55 24426.95 21085.6 Q 24426.95 18576.65 27053.7 17156.4 L 27053.7 17058.55 Q 25127.1 15735.2 25127.1 13770.6 Q 25127.1 12155.6 26236.7 11144.8 Q 27345.35 10152.05 29039.2 10152.05 Q 30829 10152.05 31897.75 11203.7 Q 32949.4 12234.45 32949.4 13907.4 Q 32949.4 15872 31042.75 17350.2 L 31042.75 17448.05 Q 33454.8 18849.3 33454.8 21183.45 Q 33454.8 22759.5 32230.25 23811.15 Q 30964.85 24881.8 28980.3 24881.8 Q 27015.7 24881.8 25712.3 23811.15 L 25711.35 23810.2 Z M 31432.25 14003.35 Q 31432.25 12913.7 30790.05 12194.55 Q 30108.9 11454.5 29000.25 11454.5 Q 28007.5 11454.5 27385.25 12096.7 Q 26743.05 12738.9 26743.05 13769.65 Q 26743.05 14917.25 27715.85 15715.25 Q 28397 16259.6 29952.15 16882.8 Q 31431.3 15579.4 31431.3 14002.4 L 31432.25 14003.35 Z M 31003.8 22876.35 Q 31762.85 22214.2 31762.85 21145.45 Q 31762.85 19861.05 30634.25 19005.1 Q 29934.1 18479.75 27988.5 17701.7 Q 26042.9 18947.15 26042.9 20931.7 Q 26042.9 22059.35 26898.85 22819.35 Q 27734.85 23557.5 29019.25 23557.5 Q 30245.7 23557.5 31004.75 22877.3 L 31003.8 22876.35 Z M 40899.85 19276.8 L 40899.85 14899.2 Q 40899.85 14529.65 41016.7 12311.4 L 40939.75 12311.4 Q 40472.35 13245.25 39792.15 14412.8 L 36542.2 19276.8 L 40900.8 19276.8 L 40899.85 19276.8 Z M 44479.45 20697.05 L 42591.8 20697.05 L 42591.8 24627.2 L 40899.85 24627.2 L 40899.85 20697.05 L 34693.5 20697.05 L 34693.5 19530.45 L 40628.15 10365.8 L 42592.75 10365.8 L 42592.75 19276.8 L 44480.4 19276.8 L 44480.4 20697.05 L 44479.45 20697.05 Z M 55037.65 20268.6 L 55037.65 16416.35 L 50679.05 16416.35 L 50679.05 20268.6 L 55037.65 20268.6 Z M 63539.2 21669.85 L 56496.85 21669.85 L 56496.85 26126.3 L 55037.65 26126.3 L 55037.65 21669.85 L 46047.8 21669.85 L 46047.8 20268.6 L 49238.85 20268.6 L 49238.85 15055 L 55037.65 15055 L 55037.65 12097.65 L 50309.5 12097.65 Q 48987.1 14354.85 47352.15 15930.9 Q 46574.1 15249.75 46106.7 15017 Q 49025.1 12468.15 50484.3 8304.3 L 51943.5 8653.9 Q 51574.9 9588.7 51049.55 10697.35 L 62644.3 10697.35 L 62644.3 12098.6 L 56496.85 12098.6 L 56496.85 15055.95 L 62196.85 15055.95 L 62196.85 16417.3 L 56496.85 16417.3 L 56496.85 20269.55 L 63539.2 20269.55 L 63539.2 21670.8 L 63539.2 21669.85 Z M 82658 22078.35 L 70050.55 22078.35 L 70050.55 20696.1 L 82658 20696.1 L 82658 22078.35 Z M 86666.05 16981.6 Q 86647.05 17448.05 86608.1 17661.8 Q 86004.85 24452.4 84974.1 25463.2 Q 84429.75 26028.45 83418 26086.4 Q 82212.45 26163.35 80364.7 26046.5 Q 80325.75 25346.35 79916.3 24646.2 Q 81375.5 24783 82894.55 24783 Q 83516.8 24783 83749.55 24569.25 Q 84586.5 23829.2 85111.85 18323 L 72698.2 18323 Q 73067.75 15872 73319.5 12350.35 L 74740.7 12448.2 Q 74584.9 14393.8 74292.3 16981.6 L 81841.95 16981.6 Q 82153.55 14626.55 82523.1 10930.1 L 71529.7 10930.1 L 71529.7 9528.85 L 82774.85 9528.85 L 83009.5 9450 L 84059.25 9566.85 Q 83805.6 12933.65 83281.2 16980.65 L 86666.05 16980.65 L 86666.05 16981.6 Z M 92853.4 16495.2 L 97405.8 16495.2 L 97405.8 14101.2 L 92853.4 14101.2 L 92853.4 16495.2 Z M 92853.4 12816.8 L 97405.8 12816.8 L 97405.8 10463.65 L 92853.4 10463.65 L 92853.4 12816.8 Z M 103475.35 10463.65 L 98825.1 10463.65 L 98825.1 12816.8 L 103475.35 12816.8 L 103475.35 10463.65 Z M 103475.35 14101.2 L 98825.1 14101.2 L 98825.1 16495.2 L 103475.35 16495.2 L 103475.35 14101.2 Z M 106705.35 24140.8 L 106705.35 25561.05 L 89448.6 25561.05 L 89448.6 24140.8 L 97307.95 24140.8 L 97307.95 21455.15 L 90752 21455.15 L 90752 20034.9 L 97307.95 20034.9 L 97307.95 17856.55 L 91375.2 17856.55 L 91375.2 9101.35 L 105013.4 9101.35 L 105013.4 17856.55 L 98922.95 17856.55 L 98922.95 20034.9 L 105655.6 20034.9 L 105655.6 21455.15 L 98922.95 21455.15 L 98922.95 24140.8 L 106705.35 24140.8 Z M 114176.15 12467.2 Q 113553.9 10989 111938.9 9023.45 L 113144.45 8439.2 Q 114798.4 10307.85 115459.6 11786.05 L 114175.2 12467.2 L 114176.15 12467.2 Z M 125344.35 14140.15 L 109681.7 14140.15 L 109681.7 12719.9 L 119099.05 12719.9 Q 120558.25 10735.35 121685.9 8361.3 L 123145.1 8828.7 Q 121939.55 11026.05 120655.15 12719.9 L 125344.35 12719.9 L 125344.35 14140.15 Z M 110733.35 19451.6 L 110733.35 18031.35 L 124002 18031.35 L 124002 19451.6 L 110733.35 19451.6 Z M 126026.45 23712.35 L 126026.45 25132.6 L 108923.6 25132.6 L 108923.6 23712.35 L 126026.45 23712.35 Z M 138165.55 15385.6 Q 140441.75 22525.8 145812.1 24725.05 Q 145169.9 25328.3 144722.45 26087.35 Q 139468 23597.4 136978.05 16457.2 Q 135267.1 23324.75 129216.55 26087.35 Q 128847 25406.2 128127.85 24900.8 Q 134197.4 22255.05 135695.55 15387.5 L 128516.4 15387.5 L 128516.4 13909.3 L 135929.25 13909.3 Q 136182.9 12196.45 136220.9 8382.2 L 137777.95 8382.2 Q 137739 11904.8 137466.35 13908.35 L 145502.4 13908.35 L 145502.4 15386.55 L 138167.45 15386.55 L 138165.55 15385.6 Z M 149683.35 15404.6 L 148303 15404.6 L 148303 11571.35 L 151513.05 11571.35 Q 150988.65 10462.7 149840.1 9101.35 L 151047.55 8536.1 Q 152388.95 10074.15 152895.3 11182.8 L 152155.25 11571.35 L 156416 11571.35 Q 155948.6 10151.1 154956.8 8672.9 L 156202.25 8205.5 Q 157407.8 9878.45 157777.35 11162.85 L 156785.55 11570.4 L 159957.6 11570.4 Q 161143.2 10092.2 161922.2 8477.2 L 163381.4 8983.55 Q 162466.55 10344.9 161493.75 11569.45 L 164665.8 11569.45 L 164665.8 15402.7 L 163244.6 15402.7 L 163244.6 12874.75 L 149683.35 12874.75 L 149683.35 15402.7 L 149683.35 15404.6 Z M 165015.4 20619.15 L 157097.15 20619.15 L 157097.15 24335.55 Q 157097.15 25541.1 156162.35 25832.75 Q 155403.3 26086.4 152582.75 26086.4 Q 152465.9 25619 151979.5 24685.15 Q 154411.5 24783 155151.55 24704.15 Q 155656.95 24685.15 155656.95 24315.6 L 155656.95 20619.15 L 147913.5 20619.15 L 147913.5 19276.8 L 155656.95 19276.8 L 155656.95 17875.55 Q 157329.9 17272.3 159021.85 16143.7 L 151162.5 16143.7 L 151162.5 14859.3 L 160676.75 14859.3 L 160949.4 14782.35 L 161903.2 15501.5 Q 160093.45 17155.45 157098.1 18497.8 L 157098.1 19275.85 L 165016.35 19275.85 L 165016.35 20618.2 L 165015.4 20619.15 Z M 13177.25 47778.55 Q 17341.1 49354.6 19559.35 50464.2 L 18781.3 51747.65 Q 16426.25 50483.2 12418.2 48887.2 L 13177.25 47778.55 Z M 20433.35 44257.85 L 20433.35 45678.1 L 12145.55 45678.1 L 12145.55 54900.7 L 10647.4 54900.7 L 10647.4 45678.1 L 3137.65 45678.1 L 3137.65 44257.85 L 10589.45 44257.85 L 10589.45 37117.65 L 12087.6 37117.65 L 12087.6 39880.25 L 18468.75 39880.25 L 18468.75 41260.6 L 12087.6 41260.6 L 12087.6 44257.85 L 20433.35 44257.85 Z M 27108.05 40832.15 Q 25648.85 39626.6 23372.65 38342.2 L 24247.6 37350.4 Q 26640.65 38634.8 27983 39705.45 L 27108.05 40833.1 L 27108.05 40832.15 Z M 25958.55 45813.95 Q 24753 44899.1 22399.85 43712.55 L 23177.9 42641.9 Q 25609.9 43789.5 26757.5 44606.5 L 25959.5 45813.95 L 25958.55 45813.95 Z M 23040.15 53655.25 Q 24772 51223.25 26717.6 47428 L 27769.25 48381.8 Q 26096.3 51688.75 24248.55 54627.1 L 23041.1 53654.3 L 23040.15 53655.25 Z M 29967.55 48985.05 L 29967.55 52487.7 L 36932 52487.7 L 36932 48985.05 L 29967.55 48985.05 Z M 28605.25 47701.6 L 38353.2 47701.6 L 38353.2 54743.95 L 36932 54743.95 L 36932 53771.15 L 29967.55 53771.15 L 29967.55 54762.95 L 28604.3 54762.95 L 28604.3 47701.6 L 28605.25 47701.6 Z M 30396 40463.55 Q 31485.65 42311.3 33489.2 43712.55 Q 35570.65 42155.5 36641.3 40307.75 L 30473.9 40307.75 L 30396.95 40463.55 L 30396 40463.55 Z M 38644.85 39509.75 Q 37380.4 42330.3 34713.75 44470.65 Q 37049.8 45813 40026.15 46376.35 Q 39733.55 46901.7 39519.8 47718.7 Q 36270.8 46920.7 33587.05 45286.7 Q 31155.05 46901.7 27925.05 47912.5 Q 27652.4 47174.35 27146.05 46630 Q 30026.45 45870.95 32379.6 44449.75 Q 30745.6 43185.3 29655.95 41609.25 Q 28936.8 42621 28059.95 43514.95 Q 27671.4 42911.7 27166 42406.3 Q 29423.2 40304.9 30608.8 36977.05 L 31893.2 37327.6 Q 31641.45 37988.8 31174.05 39000.55 L 37478.25 39000.55 L 37750.9 38942.6 L 38644.85 39505.95 L 38644.85 39509.75 Z M 46115.65 41670.05 Q 44774.25 43985.2 43392 45444.4 Q 42828.65 44958 42088.6 44569.45 Q 44949.05 41805.9 46622 37097.7 L 48081.2 37488.15 Q 47536.85 38947.35 46855.7 40269.75 L 57984.95 40269.75 L 58257.6 40192.8 L 59328.25 40581.35 Q 58218.65 43362.95 56876.3 45075.8 L 55630.85 44589.4 Q 56486.8 43518.75 57284.8 41671 L 46116.6 41671 L 46115.65 41670.05 Z M 47574.85 45756 Q 46096.65 49549.35 43606.7 52175.15 Q 42906.55 51611.8 42343.2 51300.2 Q 44715.35 49140.85 46116.6 45405.45 L 47575.8 45756 L 47574.85 45756 Z M 50103.75 42777.75 L 51582.9 42777.75 L 51582.9 53052 Q 51582.9 54316.45 50687.05 54608.1 Q 50025.85 54861.75 47205.3 54861.75 Q 47068.5 54180.6 46698.95 53442.45 Q 48605.6 53500.4 49638.25 53442.45 Q 50104.7 53442.45 50104.7 53033 L 50104.7 42779.65 L 50103.75 42777.75 Z M 55007.65 45444.4 Q 57731.3 48966.05 58859.9 51495.9 L 57517.55 52118.15 Q 56369.95 49472.4 53763.15 45950.75 L 55008.6 45445.35 L 55007.65 45444.4 Z M 62224.8 53284.75 Q 61836.25 52896.2 61836.25 52311.95 Q 61836.25 51727.7 62224.8 51318.25 Q 62594.35 50929.7 63119.7 50929.7 Q 63645.05 50929.7 64033.6 51318.25 Q 64403.15 51727.7 64403.15 52311.95 Q 64403.15 52896.2 64033.6 53284.75 Q 63664.05 53654.3 63119.7 53654.3 Q 62575.35 53654.3 62224.8 53284.75  Z M 73022.35 38460 Q 71951.7 41514.25 71095.75 43478.85 Q 72847.55 45503.3 72847.55 47702.55 Q 72847.55 49434.4 72068.55 49958.8 Q 71718.95 50270.4 71076.75 50328.35 Q 70570.4 50407.2 69773.35 50368.25 Q 69734.4 49649.1 69403.8 49083.85 Q 70162.85 49141.8 70532.4 49102.85 Q 70939.95 49064.85 71134.7 48928.05 Q 71542.25 48636.4 71542.25 47565.75 Q 71542.25 45581.2 69791.4 43635.6 Q 70666.35 41476.25 71328.5 39278.9 L 68759.7 39278.9 L 68759.7 54901.65 L 67475.3 54901.65 L 67475.3 37954.6 L 71872.85 37954.6 L 72086.6 37896.65 L 73020.45 38461.9 L 73022.35 38460 Z M 75182.65 43790.45 L 75182.65 48284.9 L 78101.05 48284.9 L 78101.05 43790.45 L 75182.65 43790.45 Z M 75182.65 49549.35 L 75182.65 51027.55 L 73937.2 51027.55 L 73937.2 42526 L 79404.45 42526 L 79404.45 49549.35 L 75182.65 49549.35 Z M 84521.15 39801.4 L 82848.2 39801.4 L 82848.2 53071 Q 82848.2 54374.4 81894.4 54666.05 Q 81154.35 54919.7 78022.2 54880.75 Q 77905.35 54317.4 77535.8 53577.35 Q 80006.75 53635.3 80921.6 53597.3 Q 81484.95 53577.35 81484.95 53071.95 L 81484.95 39802.35 L 73276 39802.35 L 73276 38460.95 L 84521.15 38460.95 L 84521.15 39802.35 L 84521.15 39801.4 Z M 89890.55 48342.85 L 89890.55 50113.65 L 94268.15 50113.65 L 94268.15 48342.85 L 89890.55 48342.85 Z M 100202.8 48342.85 L 95688.4 48342.85 L 95688.4 50113.65 L 100202.8 50113.65 L 100202.8 48342.85 Z M 100202.8 53052 L 100202.8 51242.25 L 95688.4 51242.25 L 95688.4 53052 L 100202.8 53052 Z M 94268.15 53052 L 94268.15 51242.25 L 89890.55 51242.25 L 89890.55 53052 L 94268.15 53052 Z M 88490.25 47195.25 L 101623.05 47195.25 L 101623.05 54763.9 L 100202.8 54763.9 L 100202.8 54200.55 L 89890.55 54200.55 L 89890.55 54919.7 L 88489.3 54919.7 L 88489.3 47195.25 L 88490.25 47195.25 Z M 88685 44841.15 L 93314.35 44841.15 L 93314.35 45871.9 L 88685 45871.9 L 88685 44841.15 Z M 93295.35 42623.85 L 93295.35 43673.6 L 89112.5 43673.6 L 89112.5 42623.85 L 93295.35 42623.85 Z M 96642.2 44841.15 L 101427.35 44841.15 L 101427.35 45871.9 L 96642.2 45871.9 L 96642.2 44841.15 Z M 100940.95 42623.85 L 100940.95 43673.6 L 96642.2 43673.6 L 96642.2 42623.85 L 100940.95 42623.85 Z M 103238.05 40229.85 L 103238.05 44432.65 L 101876.7 44432.65 L 101876.7 41416.4 L 95689.35 41416.4 L 95689.35 46515.05 L 94269.1 46515.05 L 94269.1 41416.4 L 88159.65 41416.4 L 88159.65 44432.65 L 86836.3 44432.65 L 86836.3 40229.85 L 94269.1 40229.85 L 94269.1 38946.4 L 87984.85 38946.4 L 87984.85 37759.85 L 102070.5 37759.85 L 102070.5 38946.4 L 95689.35 38946.4 L 95689.35 40229.85 L 103239 40229.85 L 103238.05 40229.85 Z M 111020.45 42837.6 L 114406.25 42837.6 L 114406.25 44179 L 111020.45 44179 L 111020.45 44685.35 Q 112479.65 46221.5 114269.45 48439.75 L 113394.5 49626.3 Q 112829.25 48692.45 111020.45 46337.4 L 111020.45 54840.85 L 109600.2 54840.85 L 109600.2 46279.45 Q 108023.2 50034.8 106116.55 52078.25 Q 105864.8 51474.05 105318.55 50754.9 Q 107731.55 48341.9 109229.7 44178.05 L 105804.95 44178.05 L 105804.95 42836.65 L 109600.2 42836.65 L 109600.2 39606.65 Q 108102.05 39839.4 106389.2 40072.15 Q 106253.35 39430.9 105980.7 38924.55 Q 110940.65 38244.35 113295.7 37309.55 L 114268.5 38438.15 Q 112926.15 38924.55 111019.5 39334 L 111019.5 42836.65 L 111020.45 42837.6 Z M 120825.4 51027.55 L 120825.4 40307.75 L 116486.75 40307.75 L 116486.75 51027.55 L 120825.4 51027.55 Z M 122265.6 38926.45 L 122265.6 53888 L 120825.4 53888 L 120825.4 52428.8 L 116486.75 52428.8 L 116486.75 54024.8 L 115066.5 54024.8 L 115066.5 38926.45 L 122264.65 38926.45 L 122265.6 38926.45 Z M 130320.65 49393.55 L 137518.8 49393.55 L 137518.8 47273.15 L 130320.65 47273.15 L 130320.65 49393.55 Z M 130320.65 40755.2 L 130320.65 42681.8 L 137518.8 42681.8 L 137518.8 40755.2 L 130320.65 40755.2 Z M 130320.65 46028.65 L 137518.8 46028.65 L 137518.8 43927.25 L 130320.65 43927.25 L 130320.65 46028.65 Z M 142519.6 50736.85 L 125339.8 50736.85 L 125339.8 49394.5 L 128900.4 49394.5 L 128900.4 40756.15 L 125884.15 40756.15 L 125884.15 39394.8 L 128900.4 39394.8 L 128900.4 37156.6 L 130320.65 37156.6 L 130320.65 39394.8 L 137518.8 39394.8 L 137518.8 37156.6 L 138959 37156.6 L 138959 39394.8 L 142071.2 39394.8 L 142071.2 40756.15 L 138959 40756.15 L 138959 49394.5 L 142519.6 49394.5 L 142519.6 50736.85 Z M 132537.95 51981.35 Q 130008.1 53538.4 126097.9 54860.8 Q 125747.35 54355.4 125144.1 53751.2 Q 129055.25 52584.6 131252.6 51086.45 L 132537 51982.3 L 132537.95 51981.35 Z M 136332.25 51183.35 Q 140029.65 52486.75 142578.5 53869 L 141294.1 54821.85 Q 138920.05 53420.6 135359.45 52098.2 L 136332.25 51183.35 Z M 150846.35 46047.65 L 150846.35 49725.1 L 155943.1 49725.1 L 155943.1 46047.65 L 150846.35 46047.65 Z M 150846.35 50969.6 L 150846.35 52370.85 L 149504 52370.85 L 149504 44821.2 L 157305.4 44821.2 L 157305.4 50969.6 L 150846.35 50969.6 Z M 158336.15 42798.65 L 148531.2 42798.65 L 148531.2 41533.25 L 158336.15 41533.25 L 158336.15 42798.65 Z M 161391.35 53071 Q 161391.35 54297.45 160593.35 54647.05 Q 159893.2 54919.7 157344.35 54919.7 Q 157246.5 54200.55 156818.05 53500.4 Q 158783.6 53558.35 159502.75 53519.4 Q 159970.15 53500.4 159970.15 53071.95 L 159970.15 39510.7 L 146837.35 39510.7 L 146837.35 54938.7 L 145436.1 54938.7 L 145436.1 38128.45 L 161389.45 38128.45 L 161389.45 53071 L 161391.35 53071 Z M 178182.6 49373.6 L 173512.4 49373.6 L 173512.4 50832.8 L 178182.6 50832.8 L 178182.6 49373.6 Z M 173512.4 48226 L 178182.6 48226 L 178182.6 46864.65 L 173512.4 46864.65 L 173512.4 48226 Z M 172073.15 43419.95 L 172073.15 42018.7 L 167889.35 42018.7 L 167889.35 43419.95 L 172073.15 43419.95 Z M 173512.4 42019.65 L 173512.4 43420.9 L 177871 43420.9 L 177871 42019.65 L 173512.4 42019.65 Z M 181625.4 49373.6 L 179621.85 49373.6 L 179621.85 52817.35 L 178182.6 52817.35 L 178182.6 51942.4 L 173512.4 51942.4 L 173512.4 53284.75 Q 173512.4 54413.35 172656.45 54724 Q 171995.25 54958.65 169427.4 54958.65 Q 169309.6 54393.4 168921.05 53732.2 Q 169505.3 53751.2 171587.7 53751.2 Q 172074.1 53732.2 172074.1 53284.75 L 172074.1 51942.4 L 165788.9 51942.4 L 165788.9 50832.8 L 172074.1 50832.8 L 172074.1 49373.6 L 164115.95 49373.6 L 164115.95 48226 L 172074.1 48226 L 172074.1 46864.65 L 165964.65 46864.65 L 165964.65 45794 L 172074.1 45794 L 172074.1 44432.65 L 166509.95 44432.65 L 166509.95 41008.85 L 172074.1 41008.85 L 172074.1 39880.25 L 164485.5 39880.25 L 164485.5 38693.7 L 172074.1 38693.7 L 172074.1 37136.65 L 173513.35 37136.65 L 173513.35 38693.7 L 181257.75 38693.7 L 181257.75 39880.25 L 173513.35 39880.25 L 173513.35 41008.85 L 179312.15 41008.85 L 179312.15 44432.65 L 173513.35 44432.65 L 173513.35 45794 L 179622.8 45794 L 179622.8 48226 L 181626.35 48226 L 181626.35 49373.6 L 181625.4 49373.6 Z " fill-rule="nonzero" style="fill:#ffffff;;fill-opacity:1;"/>
</svg>