<svg version="1.1" x="0" y="0" width="100%" height="100%" viewBox="0 0 491059.2 52684.8" xmlns="http://www.w3.org/2000/svg">
  <path d="M 332262.4 18382.4 Q 331576 16547.2 329772.8 13761.6 L 331641.6 12844.8 Q 333377.6 15334.4 334228.8 17235.2 L 332262.4 18382.4 Z M 336228.8 33947.2 Q 335212.8 32276.8 333312 29491.2 L 333312 42630.4 L 331019.2 42630.4 L 331019.2 29883.2 Q 329184 32211.2 327347.2 33849.6 Q 326758.4 32308.8 326201.6 31654.4 Q 331313.6 27361.6 334198.4 20742.4 L 326563.2 20742.4 L 326563.2 18513.6 L 335344 18513.6 L 335704 18416 L 336918.4 19368 Q 335640 22971.2 333312 26608 L 333312 26740.8 L 334260.8 27920 Q 335737.6 26281.6 336819.2 24740.8 L 338292.8 26084.8 Q 336000 28441.6 335244.8 29099.2 Q 335835.2 29820.8 336620.8 30868.8 Q 337440 31982.4 337537.6 32080 L 336227.2 33948.8 L 336228.8 33947.2 Z M 343667.2 27656 Q 345172.8 31881.6 347892.8 34896 Q 350644.8 31849.6 352054.4 27656 L 343665.6 27656 L 343667.2 27656 Z M 341273.6 19825.6 L 341273.6 25494.4 L 345992 25494.4 L 345992 19825.6 L 341273.6 19825.6 Z M 354841.6 25984 Q 353400 32145.6 349532.8 36504 Q 352680 39289.6 356710.4 40468.8 Q 355694.4 41417.6 355201.6 42531.2 Q 350976 41089.6 347896 38140.8 Q 344784 40958.4 340590.4 42628.8 Q 340033.6 41417.6 339246.4 40664 Q 343276.8 39288 346324.8 36502.4 Q 343244.8 32963.2 341540.8 27656 L 341246.4 27656 Q 340984 37452.8 336985.6 42433.6 Q 336462.4 41648 335248 40860.8 Q 339017.6 36110.4 339017.6 26049.6 L 339017.6 17531.2 L 345995.2 17531.2 L 345995.2 12745.6 L 348291.2 12745.6 L 348291.2 17531.2 L 354155.2 17531.2 L 354547.2 17433.6 L 356251.2 17892.8 Q 355040 22315.2 354155.2 24446.4 L 352124.8 23953.6 Q 352745.6 22283.2 353336 19825.6 L 348291.2 19825.6 L 348291.2 25494.4 L 352944 25494.4 L 353403.2 25396.8 L 354844.8 25985.6 L 354841.6 25984 Z M 377516.8 23886.4 L 377516.8 28016 L 382758.4 28016 L 382758.4 23886.4 L 377516.8 23886.4 Z M 371454.4 22969.6 Q 371454.4 32145.6 368177.6 36766.4 Q 367456 35979.2 366310.4 35488 Q 369227.2 31392 369227.2 22937.6 L 369227.2 15924.8 L 378400 15924.8 Q 378008 14646.4 377123.2 13040 L 379384 12483.2 Q 380268.8 13992 380990.4 15924.8 L 388822.4 15924.8 L 388822.4 17990.4 L 371454.4 17990.4 L 371454.4 21888 L 375385.6 21888 L 375385.6 18776 L 377516.8 18776 L 377516.8 21888 L 382758.4 21888 L 382758.4 18776 L 384953.6 18776 L 384953.6 21888 L 388787.2 21888 L 388787.2 23886.4 L 384953.6 23886.4 L 384953.6 29916.8 L 375385.6 29916.8 L 375385.6 23886.4 L 371454.4 23886.4 L 371454.4 22969.6 Z M 385772.8 31097.6 Q 387968 33947.2 388985.6 36732.8 L 387214.4 37552 Q 386068.8 34504 384070.4 31784 L 385772.8 31097.6 Z M 381907.2 37715.2 Q 381612.8 35716.8 380203.2 32048 L 381939.2 31688 Q 383283.2 34932.8 383742.4 37225.6 L 381907.2 37716.8 L 381907.2 37715.2 Z M 376894.4 37651.2 Q 376960 35160 376435.2 31980.8 L 378238.4 31883.2 Q 378729.6 34340.8 378795.2 37520 L 376894.4 37652.8 L 376894.4 37651.2 Z M 370568 36864 Q 372240 34963.2 373385.6 31360 L 375121.6 32014.4 Q 373713.6 36142.4 372304 37780.8 L 370568 36864 Z M 364868.8 20545.6 Q 363360 18284.8 360148.8 15236.8 L 361952 14025.6 Q 365326.4 17008 366800 19105.6 L 364867.2 20547.2 L 364868.8 20545.6 Z M 366145.6 36601.6 Q 366537.6 36766.4 367324.8 37291.2 Q 368340.8 37977.6 368963.2 38305.6 Q 371484.8 39681.6 377417.6 39681.6 Q 383806.4 39681.6 389212.8 39124.8 Q 388590.4 40403.2 388558.4 41419.2 Q 383772.8 41747.2 377352 41747.2 Q 371289.6 41747.2 368408 40140.8 Q 365425.6 38404.8 365292.8 38404.8 Q 363884.8 38404.8 360640 42140.8 L 359198.4 40208 Q 361918.4 37553.6 363819.2 36798.4 L 363819.2 26281.6 L 359657.6 26281.6 L 359657.6 24020.8 L 366147.2 24020.8 L 366147.2 36603.2 L 366145.6 36601.6 Z M 401830.4 30016 Q 401371.2 28836.8 399470.4 25232 L 399470.4 42632 L 397177.6 42632 L 397177.6 26345.6 Q 395308.8 32737.6 393081.6 35980.8 Q 392556.8 34638.4 391835.2 33654.4 Q 395177.6 29492.8 397012.8 21300.8 L 392654.4 21300.8 L 392654.4 19008 L 397177.6 19008 L 397177.6 12716.8 L 399470.4 12716.8 L 399470.4 19008 L 403369.6 19008 L 403369.6 21300.8 L 399470.4 21300.8 L 399470.4 22284.8 Q 401403.2 24939.2 403272 28150.4 L 401830.4 30019.2 L 401830.4 30016 Z M 410187.2 24576 Q 411529.6 29753.6 413889.6 33422.4 Q 416512 29620.8 417659.2 24576 L 410188.8 24576 L 410187.2 24576 Z M 420409.6 22740.8 Q 419097.6 30310.4 415329.6 35488 Q 418312 39156.8 422211.2 40630.4 Q 421096 41614.4 420572.8 42728 Q 416673.6 40928 413824 37388.8 Q 410676.8 40763.2 406548.8 42664 Q 405891.2 41449.6 405072 40664 Q 409265.6 38960 412380.8 35355.2 Q 409627.2 31030.4 408022.4 24574.4 L 407070.4 24574.4 Q 406940.8 36665.6 402712 42760 Q 401763.2 41744 400747.2 41384 Q 404678.4 35747.2 404678.4 23721.6 L 404678.4 15792 Q 414900.8 15201.6 419324.8 13366.4 L 420963.2 15267.2 Q 416507.2 17102.4 407068.8 17788.8 L 407068.8 22345.6 L 418473.6 22345.6 L 418897.6 22280 L 420406.4 22739.2 L 420409.6 22740.8 Z M 453604.8 15499.2 Q 451736 20873.6 450457.6 23496 L 448491.2 22873.6 Q 450000 19400 451179.2 14844.8 L 453604.8 15499.2 Z M 439153.6 23232 Q 438464 20185.6 436728 15596.8 L 438758.4 14910.4 Q 440595.2 19235.2 441316.8 22414.4 L 439153.6 23233.6 L 439153.6 23232 Z M 431713.6 30376 L 431713.6 39649.6 Q 431713.6 41516.8 430534.4 42041.6 Q 429585.6 42532.8 426275.2 42468.8 Q 426177.6 41649.6 425555.2 40240 Q 426964.8 40272 428732.8 40272 Q 429323.2 40240 429323.2 39651.2 L 429323.2 31131.2 L 425129.6 32441.6 L 424440 30049.6 Q 426505.6 29492.8 429323.2 28641.6 L 429323.2 21595.2 L 424964.8 21595.2 L 424964.8 19302.4 L 429323.2 19302.4 L 429323.2 12748.8 L 431715.2 12748.8 L 431715.2 19302.4 L 435548.8 19302.4 L 435548.8 21595.2 L 431715.2 21595.2 L 431715.2 27920 Q 432632 27657.6 435352 26804.8 L 435646.4 29132.8 L 431715.2 30379.2 L 431713.6 30376 Z M 446196.8 24772.8 L 453243.2 24772.8 L 453243.2 42368 L 450849.6 42368 L 450849.6 40337.6 L 435515.2 40337.6 L 435515.2 37977.6 L 450849.6 37977.6 L 450849.6 33555.2 L 436660.8 33555.2 L 436660.8 31326.4 L 450849.6 31326.4 L 450849.6 27100.8 L 436268.8 27100.8 L 436268.8 24772.8 L 443838.4 24772.8 L 443838.4 12844.8 L 446198.4 12844.8 L 446198.4 24772.8 L 446196.8 24772.8 Z M 476836.8 18809.6 Q 476115.2 16449.6 474148.8 13401.6 L 476344 12582.4 Q 478441.6 15729.6 479196.8 17892.8 L 476836.8 18809.6 Z M 467923.2 13566.4 Q 466744 16745.6 464580.8 20579.2 L 464580.8 42600 L 462156.8 42600 L 462156.8 24380.8 Q 460715.2 26411.2 458912 28280 Q 458321.6 26838.4 457502.4 25854.4 Q 462648 20873.6 465596.8 12846.4 L 467924.8 13568 L 467923.2 13566.4 Z M 487584 39224 L 487584 41548.8 L 466513.6 41548.8 L 466513.6 39224 L 475984 39224 L 475984 30934.4 L 468449.6 30934.4 L 468449.6 28641.6 L 475984 28641.6 L 475984 21430.4 L 467368 21430.4 L 467368 19105.6 L 487126.4 19105.6 L 487126.4 21430.4 L 478409.6 21430.4 L 478409.6 28641.6 L 486142.4 28641.6 L 486142.4 30934.4 L 478409.6 30934.4 L 478409.6 39224 L 487585.6 39224 L 487584 39224 Z " fill-rule="nonzero" style="fill:#ffffff;;fill-opacity:1;"/>
</svg>