<svg version="1.1" x="0" y="0" width="100%" height="100%" viewBox="0 0 416102.4 54118.4" xmlns="http://www.w3.org/2000/svg">
  <path d="M 145340.6 28119.6 L 152079.85 28119.6 L 152079.85 24964.35 L 145340.6 24964.35 L 145340.6 28119.6 Z M 145340.6 21525.6 L 152079.85 21525.6 L 152079.85 18513.85 L 145340.6 18513.85 L 145340.6 21525.6 Z M 162758.35 18513.85 L 156199.35 18513.85 L 156199.35 21525.6 L 162758.35 21525.6 L 162758.35 18513.85 Z M 162758.35 24964.35 L 156199.35 24964.35 L 156199.35 28119.6 L 162758.35 28119.6 L 162758.35 24964.35 Z M 152545.35 31810.35 L 141326.1 31810.35 L 141326.1 14821.35 L 166988.1 14821.35 L 166988.1 31810.35 L 153441.35 31810.35 Q 157776.1 33996.1 160070.35 36362.1 L 157025.35 39265.35 Q 154517.6 36505.6 150037.6 34139.6 L 152545.35 31810.35 Z M 137743.85 42635.85 Q 140181.6 39445.6 141506.35 34319.85 L 145377.35 35718.1 Q 143620.35 41955.1 141578.1 44749.85 L 137742.1 42635.85 L 137743.85 42635.85 Z M 157991.35 42275.35 Q 159104.35 42275.35 159461.35 41559.6 Q 159820.1 40843.85 159961.85 38190.85 Q 161360.1 39228.6 163797.85 39767.6 Q 163439.1 43531.85 162292.85 44856.6 Q 161179.85 46146.35 158350.1 46146.35 L 152400.1 46146.35 Q 148922.85 46146.35 147669.85 45035.1 Q 146486.85 43993.85 146486.85 41090.6 L 146486.85 35212.35 L 150786.6 35212.35 L 150786.6 41055.6 Q 150786.6 41844.85 151180.35 42060.1 Q 151539.1 42275.35 152898.85 42275.35 L 157987.85 42275.35 L 157991.35 42275.35 Z M 166200.6 34104.6 Q 169856.35 38978.35 170929.1 42777.6 L 166772.85 44534.6 Q 165770.1 40518.35 162401.35 35681.35 L 166200.6 34104.6 Z M 194263.6 31057.85 L 200857.6 31057.85 L 200857.6 28908.85 L 194263.6 28908.85 L 194263.6 31057.85 Z M 194263.6 25788.6 L 200857.6 25788.6 L 200857.6 23709.6 L 194263.6 23709.6 L 194263.6 25788.6 Z M 194263.6 20557.85 L 200857.6 20557.85 L 200857.6 18478.85 L 194263.6 18478.85 L 194263.6 20557.85 Z M 189676.85 33423.85 L 190392.6 34069.6 L 190392.6 15108.35 L 204943.85 15108.35 L 204943.85 34391.6 L 190749.6 34391.6 Q 193367.6 36792.6 194550.6 38190.85 L 191468.85 40772.1 Q 189853.6 38693.1 186736.85 35789.85 L 189676.85 33423.85 Z M 179890.85 27760.85 Q 177992.1 31094.6 175843.1 32956.6 Q 174766.85 31344.85 173116.6 30020.1 Q 176880.85 27225.35 179211.85 22029.6 L 174012.6 22029.6 L 174012.6 18408.85 L 179890.85 18408.85 L 179890.85 13354.85 L 183942.1 13354.85 L 183942.1 18408.85 L 188996.1 18408.85 L 188996.1 22029.6 L 183942.1 22029.6 L 183942.1 23354.35 Q 186882.1 25039.6 189605.1 27295.35 L 187384.35 30702.6 Q 186129.6 29339.35 183943.85 27332.1 L 183943.85 34822.1 L 179892.6 34822.1 L 179892.6 27760.85 L 179890.85 27760.85 Z M 173368.6 42884.35 Q 175447.6 39802.6 176485.35 35502.85 L 180284.6 37007.85 Q 178779.6 42312.1 177274.6 44823.35 L 173368.6 42886.1 L 173368.6 42884.35 Z M 193831.35 42310.35 Q 195086.1 42310.35 195444.85 41594.6 Q 195801.85 40913.85 195982.1 38190.85 Q 197306.85 39228.6 199818.1 39695.85 Q 199424.35 43531.85 198276.35 44821.6 Q 197130.1 46074.6 194155.1 46074.6 L 187702.85 46074.6 Q 184083.85 46074.6 182829.1 44998.35 Q 181611.1 43995.6 181611.1 41165.85 L 181611.1 36253.6 L 185804.1 36253.6 L 185804.1 41092.35 Q 185804.1 41881.6 186232.85 42096.85 Q 186626.6 42312.1 188096.6 42312.1 L 193829.6 42312.1 L 193831.35 42310.35 Z M 202542.85 35035.6 Q 206520.6 41200.85 207022.85 42168.6 L 203045.1 44210.85 Q 202651.35 43351.6 198815.35 36757.6 L 202544.6 35035.6 L 202542.85 35035.6 Z M 215121.85 24857.6 L 210857.1 24857.6 L 210857.1 16686.85 L 223975.1 16686.85 Q 223366.1 15253.6 222757.1 14212.35 L 227021.85 12887.6 Q 228346.6 15001.6 229062.35 16686.85 L 241142.6 16686.85 L 241142.6 24857.6 L 236662.6 24857.6 L 236662.6 20664.6 L 215121.85 20664.6 L 215121.85 24857.6 Z M 221500.6 28154.6 Q 219925.6 26255.85 216411.6 24176.85 L 218884.35 21417.1 Q 222468.35 23174.1 224188.6 25111.35 L 221500.6 28156.35 L 221500.6 28154.6 Z M 215193.6 26649.6 Q 218884.35 28441.6 220604.6 30198.6 L 218061.85 33350.35 Q 216376.6 31488.35 212757.6 29516.1 L 215193.6 26647.85 L 215193.6 26649.6 Z M 227308.85 37401.6 Q 223940.1 44140.85 213188.1 46722.1 Q 212542.35 44784.85 210822.1 43064.6 Q 218992.85 41307.6 222109.6 37401.6 L 210533.35 37401.6 L 210533.35 33817.6 L 224010.1 33817.6 Q 225082.85 30735.85 225334.85 22204.6 L 229849.85 22204.6 Q 229599.6 30091.85 228596.85 33817.6 L 241569.6 33817.6 L 241569.6 37401.6 L 227305.35 37401.6 L 227308.85 37401.6 Z M 228992.35 38117.35 Q 236337.1 40161.35 241606.35 43206.35 L 238990.1 46613.6 Q 234475.1 43531.85 227020.1 41237.6 L 228992.35 38117.35 Z M 254223.85 38871.6 L 245370.6 40950.6 L 244689.85 37653.6 Q 246697.1 37294.85 253901.85 35718.1 L 254223.85 38873.35 L 254223.85 38871.6 Z M 272896.35 24248.6 Q 270063.1 21740.85 267842.35 19159.6 Q 266085.35 21595.6 263397.35 24248.6 L 272896.35 24248.6 Z M 262823.35 24785.85 Q 260854.6 26507.85 259277.85 27580.6 Q 258236.6 25753.6 256838.35 24141.85 Q 256623.1 27258.6 256336.1 29839.85 L 259095.85 29839.85 L 259024.1 31381.6 Q 258451.85 43421.6 257051.85 44998.35 Q 256120.85 46146.35 254328.85 46361.6 Q 252930.6 46503.35 249955.6 46396.6 Q 249883.85 44534.6 248917.85 42992.85 Q 250890.1 43173.1 252645.35 43173.1 Q 253469.6 43173.1 253901.85 42744.35 Q 254869.6 41668.1 255298.35 33175.35 L 246051.35 33175.35 Q 246695.35 28191.35 246982.35 20594.6 L 250603.1 20809.85 Q 250387.85 24826.1 249955.6 29878.35 L 252750.35 29878.35 Q 253289.35 25398.35 253683.1 18195.35 L 245582.35 18195.35 L 245582.35 14611.35 L 257410.6 14611.35 Q 257160.35 19450.1 256801.6 24145.35 Q 263754.35 19915.6 267193.1 12892.85 L 270883.85 14182.6 Q 270598.6 14754.85 269952.85 15902.85 Q 274110.85 20634.85 279058.1 23286.1 Q 278016.85 24862.85 277120.85 27515.85 Q 275400.6 26367.85 273858.85 25078.1 L 273858.85 27837.85 L 262819.85 27837.85 L 262819.85 24791.1 L 262823.35 24785.85 Z M 267915.85 38619.6 Q 267663.85 35502.85 266587.6 30161.85 L 269814.6 29698.1 Q 270997.6 34606.85 271319.6 38119.1 L 267915.85 38621.35 L 267915.85 38619.6 Z M 262287.85 39622.35 Q 261965.85 36540.6 260424.1 31164.6 L 263651.1 30305.35 Q 265084.35 34498.35 265730.1 38656.35 L 262287.85 39622.35 Z M 278165.6 30735.85 Q 275619.35 37868.85 273827.35 41629.6 L 278092.1 41629.6 L 278092.1 45213.6 L 259526.35 45213.6 L 259526.35 41629.6 L 270243.35 41629.6 Q 272966.35 35716.35 274294.6 29911.6 L 278165.6 30735.85 Z " fill-rule="nonzero" style="fill:#ffffff;;fill-opacity:1;"/>
</svg>