<svg version="1.1" x="0" y="0" width="100%" height="100%" viewBox="0 0 98969.6 79974.4" xmlns="http://www.w3.org/2000/svg">
  <path d="M 26776.9 57342.4 Q 23604.4 52222.4 23604.4 42649.9 Q 23604.4 33077.4 26776.9 28059.9 Q 29796.9 23297.4 35326.9 23297.4 Q 40806.9 23297.4 43826.9 28109.9 Q 46999.4 33127.4 46999.4 42649.9 Q 46999.4 52222.4 43826.9 57342.4 Q 40806.9 62209.9 35326.9 62209.9 Q 29849.4 62209.9 26776.9 57342.4  Z M 42444.4 42649.9 Q 42444.4 27087.4 35326.9 27087.4 Q 28159.4 27087.4 28159.4 42649.9 Q 28159.4 58469.9 35326.9 58469.9 Q 42444.4 58469.9 42444.4 42649.9  Z M 51711.7 58779.9 Q 68914.2 43727.4 68914.2 34559.9 Q 68914.2 31182.4 67224.2 29234.9 Q 65381.7 27134.9 62001.7 27134.9 Q 57854.2 27134.9 54216.7 31487.4 L 51504.2 28824.9 Q 56624.2 23294.9 62564.2 23294.9 Q 67581.7 23294.9 70551.7 26314.9 Q 73471.7 29337.4 73471.7 34404.9 Q 73471.7 43927.4 58779.2 57854.9 Q 63336.7 57497.4 64924.2 57497.4 L 75316.7 57497.4 L 75316.7 61539.9 L 51714.2 61539.9 L 51714.2 58777.4 L 51711.7 58779.9 Z " fill-rule="nonzero" style="fill:#c35954;;fill-opacity:1;"/>
</svg>