<svg version="1.1" x="0" y="0" width="100%" height="100%" viewBox="0 0 340275.2 147968" xmlns="http://www.w3.org/2000/svg">
  <path d="M 11940.75 18187.15 L 9566.7 18887.3 L 9566.7 24451.45 Q 9566.7 25501.2 8905.5 25831.8 Q 8321.25 26143.4 6608.4 26104.45 Q 6491.55 25385.3 6179.95 24782.05 Q 7483.35 24821 7814.9 24782.05 Q 8145.5 24782.05 8145.5 24451.45 L 8145.5 19333.8 L 5907.3 19995 L 5518.75 18614.65 Q 6920 18245.1 8146.45 17875.55 L 8146.45 13614.8 L 5810.4 13614.8 L 5810.4 12272.45 L 8146.45 12272.45 L 8146.45 8362.25 L 9566.7 8362.25 L 9566.7 12272.45 L 11570.25 12272.45 L 11570.25 13614.8 L 9566.7 13614.8 L 9566.7 17487 L 11745.05 16844.8 L 11939.8 18187.15 L 11940.75 18187.15 Z M 14120.05 10775.25 L 14120.05 16922.7 L 16863.65 16922.7 L 16863.65 10775.25 L 14120.05 10775.25 Z M 20987.6 10775.25 L 18225 10775.25 L 18225 16922.7 L 20987.6 16922.7 L 20987.6 10775.25 Z M 20638 24238.65 Q 21493.95 24238.65 21785.6 23673.4 Q 22039.25 23149 22175.1 21359.2 Q 22836.3 21806.65 23576.35 21942.5 Q 23382.55 24063.85 22836.3 24802 Q 22253.95 25619 20676.95 25619 L 15638.15 25619 Q 13906.3 25619 13303.05 25074.65 Q 12660.85 24511.3 12660.85 22877.3 L 12660.85 9354.05 L 22467.7 9354.05 L 22467.7 19568.45 L 20988.55 19568.45 L 20988.55 18304 L 14121 18304 L 14121 22895.35 Q 14121 23712.35 14413.6 23966 Q 14705.25 24238.65 15697.05 24238.65 L 20639.9 24238.65 L 20638 24238.65 Z M 42817.65 16260.55 L 42817.65 17836.6 L 25151.45 17836.6 L 25151.45 16260.55 L 42817.65 16260.55 Z M 49277.65 17136.45 Q 50736.85 19900 53479.5 21669.85 Q 56397.9 19822.1 57838.1 17136.45 L 49277.65 17136.45 Z M 59938.55 16281.45 Q 58362.5 20054.85 54820.9 22448.85 Q 58050.9 24101.85 62351.55 24627.2 Q 61826.2 25230.45 61456.65 26028.45 Q 56631.6 25288.4 53420.6 23342.8 Q 50094.65 25190.55 45249.65 26125.35 Q 44996 25404.3 44451.65 24743.1 Q 48966.05 24003.05 52098.2 22447.9 Q 49335.6 20444.35 47759.55 17291.3 L 48188 17135.5 L 46124.6 17135.5 L 46124.6 15715.25 L 52623.55 15715.25 L 52623.55 12738.9 L 45248.7 12738.9 L 45248.7 11318.65 L 52623.55 11318.65 L 52623.55 8361.3 L 54101.75 8361.3 L 54101.75 11318.65 L 61514.6 11318.65 L 61514.6 12738.9 L 54101.75 12738.9 L 54101.75 15715.25 L 58654.15 15715.25 L 58946.75 15657.3 L 59938.55 16280.5 L 59938.55 16281.45 Z M 65717.4 17700.75 L 67253.55 17700.75 L 67253.55 12953.6 L 65717.4 12953.6 L 65717.4 17700.75 Z M 69764.4 12953.6 L 68285.25 12953.6 L 68285.25 17700.75 L 69764.4 17700.75 L 69764.4 12953.6 Z M 70367.65 20035.85 Q 71535.2 22623.65 72001.65 24783 L 70893 25230.45 Q 70737.2 24432.45 70464.55 23577.45 Q 67332.4 24257.65 64219.25 24880.85 L 64025.45 23479.6 Q 65405.8 23265.85 67157.6 22915.3 L 67157.6 18928.15 L 65717.4 18928.15 L 65717.4 19919.95 L 64607.8 19919.95 L 64607.8 11749 L 67157.6 11749 L 67157.6 8440.15 L 68363.15 8440.15 L 68363.15 11749 L 70893 11749 L 70893 18928.15 L 68363.15 18928.15 L 68363.15 22682.55 L 70076 22370.95 Q 69920.2 21884.55 69335.95 20406.35 L 70366.7 20036.8 L 70367.65 20035.85 Z M 74180 18927.2 L 74180 20852.85 L 79180.8 20852.85 L 79180.8 18927.2 L 74180 18927.2 Z M 79180.8 24023.95 L 79180.8 21980.5 L 74180 21980.5 L 74180 24023.95 L 79180.8 24023.95 Z M 72838.6 17719.75 L 80563.05 17719.75 L 80563.05 26027.5 L 79180.8 26027.5 L 79180.8 25249.45 L 74180 25249.45 L 74180 26104.45 L 72838.6 26104.45 L 72838.6 17718.8 L 72838.6 17719.75 Z M 75366.55 14762.4 L 77935.35 14762.4 L 77935.35 11903.85 L 75366.55 11903.85 L 75366.55 14762.4 Z M 81729.65 14762.4 L 81729.65 16046.8 L 71535.2 16046.8 L 71535.2 14762.4 L 74025.15 14762.4 L 74025.15 11903.85 L 71942.75 11903.85 L 71942.75 10658.4 L 74025.15 10658.4 L 74025.15 8343.25 L 75366.55 8343.25 L 75366.55 10658.4 L 77935.35 10658.4 L 77935.35 8343.25 L 79277.7 8343.25 L 79277.7 10658.4 L 81359.15 10658.4 L 81359.15 11903.85 L 79277.7 11903.85 L 79277.7 14762.4 L 81728.7 14762.4 L 81729.65 14762.4 Z M 90173.25 12194.55 Q 90077.3 12467.2 89512.05 14276 Q 89104.5 15522.4 88850.85 16125.65 L 87955 15716.2 Q 88559.2 13965.35 88966.75 11669.2 L 90172.3 12194.55 L 90173.25 12194.55 Z M 85387.15 12409.25 Q 85231.35 15522.4 84531.2 17370.15 L 83481.45 16941.7 Q 84161.65 15209.85 84356.4 12271.5 L 85387.15 12408.3 L 85387.15 12409.25 Z M 88889.8 23712.35 Q 88285.6 22641.7 87002.15 20949.75 Q 86302 23966 84414.35 26067.4 Q 83966.9 25463.2 83382.65 25055.65 Q 86184.2 21904.5 86184.2 15055.95 L 86184.2 8500 L 87545.55 8500 L 87545.55 15055.95 Q 87545.55 17720.7 87291.9 19414.55 Q 88381.55 20620.1 89898.7 22682.55 L 88887.9 23713.3 L 88889.8 23712.35 Z M 92021.95 18050.35 L 94686.7 18050.35 L 94686.7 13440 L 92021.95 13440 L 92021.95 18050.35 Z M 98559.85 13440 L 96010.05 13440 L 96010.05 18050.35 L 98559.85 18050.35 L 98559.85 13440 Z M 100077 26067.4 Q 99921.2 25561.05 99492.75 24471.4 L 94278.2 25036.65 Q 91049.15 25405.25 89881.6 25523.05 L 89608.95 24101.85 Q 90349 24043.9 91885.15 23869.1 L 94647.75 23596.45 L 94647.75 19316.7 L 90698.6 19316.7 L 90698.6 12156.55 L 94608.8 12156.55 L 94608.8 8402.15 L 96068 8402.15 L 96068 12156.55 L 99940.2 12156.55 L 99940.2 19316.7 L 96068 19316.7 L 96068 23459.65 L 98948.4 23149 Q 98442.05 21941.55 97741.9 20521.3 L 98949.35 20053.9 Q 100681.2 23497.65 101381.35 25482.2 L 100077.95 26066.45 L 100077 26067.4 Z M 107100.35 11338.6 Q 106865.7 10365.8 106106.65 8692.85 L 107352.1 8323.3 Q 108092.15 9821.45 108403.75 10911.1 L 107100.35 11339.55 L 107100.35 11338.6 Z M 110679.95 15424.55 Q 110679.95 15891 110660 16085.75 Q 110485.2 24452.4 109900.95 25269.4 Q 109493.4 25813.75 108753.35 25890.7 Q 107975.3 25988.55 106671.9 25890.7 Q 106593.05 25112.65 106281.45 24549.3 Q 107274.2 24645.25 108110.2 24645.25 Q 108500.65 24645.25 108675.45 24372.6 Q 109103.9 23809.25 109259.7 16746 L 106632.95 16746 L 106632.95 16882.8 Q 106632.95 22952.35 103675.6 26103.5 Q 103287.05 25617.1 102605.9 25169.65 Q 105251.65 22349.1 105251.65 16861.9 L 105251.65 12834.85 L 102956.45 12834.85 L 102956.45 11492.5 L 111536.85 11492.5 L 111536.85 12834.85 L 106633.9 12834.85 L 106633.9 15422.65 L 110680.9 15422.65 L 110679.95 15424.55 Z M 114182.6 13303.2 L 114103.75 13497.95 Q 114764.95 17156.4 115951.5 19626.4 Q 117255.85 17136.45 117819.2 13303.2 L 114181.65 13303.2 L 114182.6 13303.2 Z M 119260.35 13303.2 Q 118520.3 18031.35 116769.45 21085.6 Q 118441.45 23712.35 120854.45 24840.95 Q 120251.2 25366.3 119841.75 26085.45 Q 117467.7 24840 115891.65 22389 Q 114140.8 24684.2 111280.35 26162.4 Q 111047.6 25580.05 110444.35 24898.9 Q 113400.75 23537.55 115113.6 21047.6 Q 114004 18867.35 113225.95 15638.3 Q 112681.6 16824.85 111825.65 18049.4 Q 111262.3 17388.2 110697.05 16959.75 Q 112896.3 14099.3 113946.05 8341.35 L 115405.25 8574.1 Q 114976.8 10636.55 114608.2 11959.9 L 120677.75 11959.9 L 120677.75 13301.3 L 119257.5 13301.3 L 119260.35 13303.2 Z M 134553.45 24296.6 L 139690.1 24296.6 L 139690.1 25657.95 L 127996.55 25657.95 L 127996.55 24296.6 L 133114.2 24296.6 L 133114.2 18829.35 L 128755.6 18829.35 L 128755.6 17468 L 133114.2 17468 L 133114.2 13751.6 L 134554.4 13751.6 L 134554.4 17468 L 138932 17468 L 138932 18829.35 L 134554.4 18829.35 L 134554.4 24296.6 L 134553.45 24296.6 Z M 139689.15 11357.6 L 139689.15 12739.85 L 129084.3 12739.85 Q 127994.65 14997.05 126730.2 16708 L 126730.2 26047.45 L 125309.95 26047.45 L 125309.95 18420.85 Q 124356.15 19451.6 123052.75 20386.4 Q 122839 19782.2 122313.65 19082.05 Q 125445.8 16863.8 127449.35 12739.85 L 122780.1 12739.85 L 122780.1 11357.6 L 128091.55 11357.6 Q 128694.8 9879.4 129123.25 8343.25 L 130601.45 8712.8 Q 130270.85 9840.45 129667.6 11357.6 L 139688.2 11357.6 L 139689.15 11357.6 Z M 159553.65 16260.55 L 159553.65 17836.6 L 141887.45 17836.6 L 141887.45 16260.55 L 159553.65 16260.55 Z M 178231.6 9625.75 Q 176343.95 13050.5 173132.95 15247.85 Q 172315.95 14509.7 172024.3 14295.95 Q 175137.45 12330.4 176809.45 9218.2 L 178230.65 9625.75 L 178231.6 9625.75 Z M 167530.8 17992.4 L 167491.85 18615.6 Q 167180.25 24646.2 166480.1 25367.25 Q 166072.55 25872.65 165176.7 25930.6 Q 164573.45 26009.45 162744.7 25930.6 Q 162667.75 25171.55 162298.2 24646.2 Q 163309.95 24725.05 164593.4 24725.05 Q 165060.8 24744.05 165274.55 24530.3 Q 165799.9 24004.95 166032.65 19316.7 L 162180.4 19316.7 Q 162549.95 16845.75 162763.7 13440.95 L 166031.7 13440.95 L 166031.7 10445.6 L 162277.3 10445.6 L 162277.3 9082.35 L 167432.95 9082.35 L 167432.95 14802.3 L 164009.15 14802.3 L 163697.55 17993.35 L 167530.8 17993.35 L 167530.8 17992.4 Z M 174573.15 17233.35 Q 175955.4 22681.6 179262.35 24685.15 Q 178659.1 25152.55 178268.65 25832.75 Q 174689.05 23439.7 173210.85 17233.35 L 171323.2 17233.35 L 171323.2 23868.15 L 174241.6 22758.55 Q 174241.6 23556.55 174339.45 24100.9 Q 169999.85 25890.7 169631.25 26241.25 Q 169475.45 25618.05 169027.05 24975.85 Q 169903.9 24568.3 169903.9 23672.45 L 169903.9 17232.4 L 167723.65 17232.4 L 167723.65 15852.05 L 169903.9 15852.05 L 169903.9 8730.85 L 171324.15 8730.85 L 171324.15 15852.05 L 178989.7 15852.05 L 178989.7 17232.4 L 174573.15 17232.4 L 174573.15 17233.35 Z M 192454.05 16514.2 L 192454.05 11008 L 187045.7 11008 L 187045.7 16514.2 L 192454.05 16514.2 Z M 198250.95 17915.45 L 193931.3 17915.45 L 193931.3 26145.3 L 192453.1 26145.3 L 192453.1 17915.45 L 186985.85 17915.45 Q 186479.5 23479.6 182159.85 26203.25 Q 181596.5 25523.05 181012.25 25132.6 Q 185020.3 22681.6 185506.7 17915.45 L 180954.3 17915.45 L 180954.3 16514.2 L 185564.65 16514.2 Q 185584.6 16221.6 185584.6 15677.25 L 185584.6 11008 L 181673.45 11008 L 181673.45 9625.75 L 197647.7 9625.75 L 197647.7 11008 L 193931.3 11008 L 193931.3 16514.2 L 198250.95 16514.2 L 198250.95 17915.45 Z M 216637.25 10598.55 Q 213874.65 13653.75 209866.6 15813.1 L 209866.6 24217.75 Q 209866.6 25560.1 208854.85 25852.7 Q 208057.8 26104.45 204866.75 26104.45 Q 204729.95 25424.25 204282.5 24665.2 Q 206460.85 24742.15 207843.1 24684.2 Q 208367.5 24665.2 208367.5 24216.8 L 208367.5 15093 Q 211227.95 13691.75 213776.8 11278.75 L 201267.2 11278.75 L 201267.2 9858.5 L 215159.05 9858.5 L 215509.6 9760.65 L 216637.25 10596.65 L 216637.25 10598.55 Z M 237377.65 16260.55 L 237377.65 17836.6 L 219711.45 17836.6 L 219711.45 16260.55 L 237377.65 16260.55 Z M 247202.55 14063.2 L 248680.75 14063.2 L 248680.75 26105.4 L 247202.55 26105.4 L 247202.55 14063.2 Z M 249343.85 8945.55 Q 248895.45 9704.6 248818.5 9802.45 Q 252009.55 13595.8 257009.4 16027.8 Q 256329.2 16533.2 255959.65 17312.2 Q 251270.45 14880.2 247982.5 10931.05 Q 244831.35 14977.1 240065.2 17292.25 Q 239636.75 16533.2 238994.55 15988.85 Q 245064.1 13363.05 248080.35 8343.25 L 249345.75 8946.5 L 249343.85 8945.55 Z M 268273.55 8633.95 L 268273.55 24100.9 Q 268273.55 25483.15 267300.75 25852.7 Q 266444.8 26144.35 263584.35 26105.4 Q 263409.55 25346.35 262981.1 24608.2 Q 264984.65 24685.15 266171.2 24627.2 Q 266734.55 24627.2 266734.55 24101.85 L 266734.55 8634.9 L 268272.6 8634.9 L 268273.55 8633.95 Z M 272749 13011.55 Q 275803.25 17875.55 276582.25 21591.95 L 275063.2 22234.15 Q 274285.15 18419.9 271385.75 13536.9 L 272749 13011.55 Z M 263253.75 13440 Q 261989.3 19140 259751.1 21903.55 Q 259089.9 21417.15 258389.75 21144.5 Q 260723.9 18400.9 261657.75 13148.35 L 263253.75 13440 Z M 287613.65 10152.05 Q 286037.6 12390.25 283605.6 14257 L 283605.6 17039.55 Q 285025.85 16689 287360 16027.8 L 287554.75 17389.15 L 283605.6 18478.8 L 283605.6 24315.6 Q 283605.6 25523.05 282865.55 25853.65 Q 282165.4 26145.3 279908.2 26106.35 Q 279791.35 25289.35 279440.8 24647.15 Q 280531.4 24686.1 281795.85 24686.1 Q 282205.3 24667.1 282205.3 24297.55 L 282205.3 18849.3 L 278196.3 19958.9 L 277885.65 18518.7 Q 279831.25 18032.3 282205.3 17409.1 L 282205.3 13673.7 Q 283760.45 12604.95 285239.6 10872.15 L 278313.15 10872.15 L 278313.15 9530.75 L 286347.3 9530.75 L 286639.9 9432.9 L 287612.7 10152.05 L 287613.65 10152.05 Z M 293644.25 24627.2 Q 294209.5 24627.2 294403.3 23908.05 Q 294559.1 23245.9 294637.95 20989.65 Q 295182.3 21437.1 295941.35 21631.85 Q 295824.5 24121.8 295415.05 24976.8 Q 294967.6 25930.6 293741.15 25930.6 L 291017.5 25930.6 Q 289752.1 25930.6 289304.65 25405.25 Q 288876.2 24899.85 288876.2 23421.65 L 288876.2 8809.7 L 290296.45 8809.7 L 290296.45 23459.65 Q 290296.45 24199.7 290472.2 24413.45 Q 290627.05 24627.2 291192.3 24627.2 L 293643.3 24627.2 L 293644.25 24627.2 Z M 303760.8 12758.85 L 299675.8 12758.85 L 299675.8 16825.8 L 303760.8 16825.8 L 303760.8 12758.85 Z M 303760.8 22779.45 L 303760.8 18109.25 L 299675.8 18109.25 L 299675.8 22779.45 L 303760.8 22779.45 Z M 302866.85 8595 Q 302010.9 11046.95 301855.1 11454.5 L 305085.1 11454.5 L 305085.1 24081.9 L 299676.75 24081.9 L 299676.75 25618.05 L 298353.4 25618.05 L 298353.4 11454.5 L 300533.65 11454.5 Q 301117.9 9566.85 301311.7 8302.4 L 302868.75 8594.05 L 302866.85 8595 Z M 314598.4 12136.6 Q 314188.95 23810.2 313255.1 24957.8 Q 312710.75 25638.95 311718.95 25736.8 Q 310920.95 25832.75 308838.55 25715.9 Q 308761.6 24917.9 308352.15 24295.65 Q 309617.55 24412.5 311232.55 24412.5 Q 311795.9 24412.5 312028.65 24120.85 Q 312865.6 23225 313215.2 12737.95 L 308274.25 12737.95 Q 307378.4 14897.3 306444.55 16142.75 Q 306190.9 15910 305257.05 15325.75 Q 307163.7 12814.9 308234.35 8262.5 L 309616.6 8593.1 Q 309247.05 10110.25 308779.65 11394.65 L 314597.45 11394.65 L 314597.45 12134.7 L 314598.4 12136.6 Z M 310297.75 20910.8 Q 309403.8 19102 307341.35 16416.35 L 308469.95 15755.15 Q 310609.35 18478.8 311524.2 20151.75 L 310297.75 20910.8 Z M 317011.4 23537.55 Q 317653.6 23420.7 323742.15 22078.35 L 323878.95 23283.9 L 317283.1 24956.85 L 317010.45 23536.6 L 317011.4 23537.55 Z M 323897.95 18342.95 Q 323840 18809.4 323897.95 19549.45 Q 318080.15 20717 317516.8 21047.6 Q 317303.05 20268.6 317070.3 19763.2 Q 317575.7 19646.35 318548.5 18517.75 Q 319229.65 17836.6 320668.9 15814.05 Q 317848.35 16183.6 317380.95 16416.35 Q 317168.15 15541.4 316894.55 15055 Q 317323 14957.15 318044.05 13848.5 Q 319601.1 11610.3 320786.7 8342.3 L 322110.05 8945.55 Q 320727.8 12194.55 318861.05 14801.35 L 321506.8 14528.7 Q 322032.15 13730.7 322693.35 12525.15 L 323879.9 13265.2 Q 321758.55 16727.95 319600.15 19140 L 323898.9 18342.95 L 323897.95 18342.95 Z M 329463.05 15853 Q 329327.2 13440 329288.25 10677.4 Q 327868 10931.05 326039.25 11163.8 L 326039.25 15853 L 329463.05 15853 Z M 330941.25 17194.4 Q 331485.6 24529.35 333042.65 24529.35 Q 333529.05 24529.35 333607.9 21455.15 Q 334171.25 21980.5 334774.5 22175.25 Q 334638.65 24353.6 334229.2 25151.6 Q 333840.65 25929.65 332906.8 25929.65 Q 330280.05 25929.65 329560.9 17193.45 L 326039.25 17193.45 L 326039.25 24062.9 L 329365.2 23011.25 Q 329404.15 23653.45 329521 24256.7 Q 325104.45 25773.85 324599.05 26162.4 Q 324404.3 25482.2 323977.75 25014.8 Q 324676.95 24548.35 324676.95 23652.5 L 324676.95 10110.25 Q 330145.15 9372.1 332926.75 8497.15 L 333957.5 9663.75 Q 332498.3 10092.2 330708.5 10442.75 Q 330689.5 13088.5 330845.3 15851.1 L 334230.15 15851.1 L 334230.15 17192.5 L 330942.2 17192.5 L 330941.25 17194.4 Z M 12757.75 49471.45 L 12757.75 47525.85 L 8457.1 47525.85 L 8457.1 49471.45 L 12757.75 49471.45 Z M 8458.05 44490.6 L 8458.05 46397.25 L 12758.7 46397.25 L 12758.7 44490.6 L 8458.05 44490.6 Z M 14159 53226.8 Q 14159 54257.55 13458.85 54569.15 Q 12914.5 54801.9 10755.15 54801.9 Q 10618.35 54178.7 10287.75 53537.45 Q 11844.8 53595.4 12389.15 53556.45 Q 12758.7 53537.45 12758.7 53205.9 L 12758.7 50619.05 L 8458.05 50619.05 L 8458.05 54801.9 L 7077.7 54801.9 L 7077.7 43245.15 L 14159.95 43245.15 L 14159.95 53226.8 L 14159 53226.8 Z M 20424.25 42856.6 L 21844.5 42856.6 L 21844.5 53071 Q 21844.5 54257.55 21066.45 54569.15 Q 20307.4 54860.8 17992.25 54821.85 Q 17855.45 54160.65 17466.9 53441.5 Q 19354.55 53499.45 19996.75 53460.5 Q 20425.2 53441.5 20425.2 53071.95 L 20425.2 42857.55 L 20424.25 42856.6 Z M 17855.45 51339.15 L 16513.1 51339.15 L 16513.1 43439.9 L 17855.45 43439.9 L 17855.45 51339.15 Z M 23146.95 40191.85 L 23146.95 41514.25 L 5871.2 41514.25 L 5871.2 40191.85 L 10637.35 40191.85 Q 10131 39082.25 8866.55 37604.05 L 10188.95 37097.7 Q 11493.3 38498.95 12134.55 39822.3 L 11181.7 40191.85 L 16979.55 40191.85 Q 18069.2 38653.8 18809.25 37038.8 L 20326.4 37545.15 Q 19645.25 38711.75 18595.5 40190.9 L 23147.9 40190.9 L 23146.95 40191.85 Z M 40132 43575.75 L 37213.6 43575.75 L 37213.6 52525.7 L 40132 52525.7 L 40132 43575.75 Z M 27699.35 52526.65 L 30462.9 52526.65 L 30462.9 43576.7 L 27699.35 43576.7 L 27699.35 52526.65 Z M 35891.2 43575.75 L 31786.25 43575.75 L 31786.25 45716.1 L 35891.2 45716.1 L 35891.2 43575.75 Z M 31786.25 52526.65 L 35891.2 52526.65 L 35891.2 50269.45 L 31786.25 50269.45 L 31786.25 52526.65 Z M 35891.2 46903.6 L 31786.25 46903.6 L 31786.25 49081.95 L 35891.2 49081.95 L 35891.2 46903.6 Z M 34548.85 39801.4 Q 34179.3 41104.8 33790.75 42233.4 L 41592.15 42233.4 L 41592.15 54899.75 L 40132.95 54899.75 L 40132.95 53869 L 27700.3 53869 L 27700.3 54899.75 L 26300.95 54899.75 L 26300.95 42233.4 L 32312.55 42233.4 Q 32585.2 41280.55 32876.85 39801.4 L 25425.05 39801.4 L 25425.05 38421.05 L 42527.9 38421.05 L 42527.9 39801.4 L 34550.75 39801.4 L 34548.85 39801.4 Z M 46300.35 54451.35 Q 48614.55 53498.5 48751.35 51591.85 Q 48634.5 51610.85 48420.75 51610.85 Q 47797.55 51610.85 47390 51260.3 Q 46961.55 50891.7 46961.55 50229.55 Q 46961.55 49568.35 47409 49179.8 Q 47818.45 48829.25 48440.7 48829.25 Q 50094.65 48829.25 50094.65 51067.45 Q 50094.65 54297.45 46728.8 55484 L 46300.35 54451.35 Z M 80893.65 38011.6 Q 78792.25 40678.25 75348.5 42584.9 Q 74706.3 41844.85 74298.75 41572.2 Q 77683.6 39899.25 79552.25 37448.25 L 80894.6 38011.6 L 80893.65 38011.6 Z M 81438 43324 Q 79122.85 46203.45 75523.3 48226 Q 74978.95 47564.8 74512.5 47195.25 Q 78053.15 45405.45 80115.6 42759.7 L 81438.95 43324.95 L 81438 43324 Z M 71028.85 44685.35 L 71028.85 39684.55 L 67896.7 39684.55 L 67896.7 44685.35 L 71028.85 44685.35 Z M 72429.15 46028.65 L 72429.15 54879.8 L 71027.9 54879.8 L 71027.9 46028.65 L 67876.75 46028.65 Q 67739.95 52001.3 64997.3 55017.55 Q 64548.9 54414.3 63906.7 54044.75 Q 66377.65 51359.1 66514.45 46028.65 L 64003.6 46028.65 L 64003.6 44686.3 L 66533.45 44686.3 L 66533.45 39685.5 L 64296.2 39685.5 L 64296.2 38324.15 L 74256.95 38324.15 L 74256.95 39685.5 L 72428.2 39685.5 L 72428.2 44686.3 L 74548.6 44686.3 L 74548.6 46028.65 L 72428.2 46028.65 L 72429.15 46028.65 Z M 81904.45 48518.6 Q 79414.5 52623.55 74512.5 54879.8 Q 74064.1 54199.6 73500.75 53732.2 Q 78285.9 51747.65 80543.1 47993.25 L 81904.45 48518.6 Z M 96477.45 37213.6 Q 98753.65 38362.15 99959.2 39432.8 L 99065.25 40424.6 Q 97819.8 39277 95620.55 38090.45 L 96476.5 37213.6 L 96477.45 37213.6 Z M 99842.35 43712.55 Q 98577.9 47524.9 96418.55 50287.5 Q 97566.15 53303.75 99025.35 53303.75 Q 99746.4 53303.75 99940.2 49705.15 Q 100524.45 50287.5 101185.65 50482.25 Q 100991.85 52953.2 100505.45 53847.15 Q 100019.05 54743 98909.45 54743 Q 96769.1 54743 95348.85 51551.95 Q 93578.05 53477.6 91340.8 54781.95 Q 90815.45 54060.9 90291.05 53632.45 Q 92897.85 52231.2 94764.6 50033.85 Q 93753.8 46842.8 93344.35 41842 L 86632.6 41842 L 86632.6 44371.85 L 91594.45 44371.85 L 91594.45 44994.1 Q 91457.65 50890.75 90971.25 51494 Q 90601.7 51980.4 89804.65 52057.35 Q 89025.65 52115.3 87489.5 52057.35 Q 87450.55 51298.3 87081 50695.05 Q 88209.6 50792.9 89143.45 50792.9 Q 89591.85 50792.9 89727.7 50579.15 Q 90078.25 50209.6 90174.2 45715.15 L 86633.55 45715.15 L 86633.55 45870.95 Q 86633.55 52077.3 84590.1 55033.7 Q 84045.75 54411.45 83384.55 54060.9 Q 85155.35 51435.1 85155.35 45850.05 L 85155.35 40422.7 L 93268.35 40422.7 Q 93189.5 39352.05 93150.55 37152.8 L 94648.7 37152.8 Q 94648.7 39021.45 94727.55 40422.7 L 101011.8 40422.7 L 101011.8 41842.95 L 94824.45 41842.95 Q 95136.05 45908.95 95895.1 48594.6 Q 97491.1 46260.45 98385.05 43342.05 L 99844.25 43711.6 L 99842.35 43712.55 Z M 120641.65 45034.95 L 120641.65 46611 L 102975.45 46611 L 102975.45 45034.95 L 120641.65 45034.95 Z M 130466.55 42837.6 L 131944.75 42837.6 L 131944.75 54879.8 L 130466.55 54879.8 L 130466.55 42837.6 Z M 132607.85 37719.95 Q 132159.45 38479 132082.5 38576.85 Q 135273.55 42370.2 140273.4 44802.2 Q 139593.2 45307.6 139223.65 46086.6 Q 134534.45 43654.6 131246.5 39705.45 Q 128095.35 43751.5 123329.2 46066.65 Q 122900.75 45307.6 122258.55 44763.25 Q 128328.1 42137.45 131344.35 37117.65 L 132609.75 37720.9 L 132607.85 37719.95 Z M 155701.4 44373.75 L 145603.85 44373.75 L 145603.85 47836.5 L 155701.4 47836.5 L 155701.4 44373.75 Z M 157160.6 49198.8 L 144221.6 49198.8 L 144221.6 43012.4 L 149806.65 43012.4 L 149806.65 37117.65 L 151245.9 37117.65 L 151245.9 39199.1 L 158601.75 39199.1 L 158601.75 40560.45 L 151245.9 40560.45 L 151245.9 43012.4 L 157161.55 43012.4 L 157161.55 49198.8 L 157160.6 49198.8 Z M 141828.55 54237.6 Q 143366.6 52934.2 144475.25 50366.35 L 145836.6 50715.95 Q 144708 53382.6 143152.85 54879.8 L 141829.5 54237.6 L 141828.55 54237.6 Z M 148968.75 50774.85 Q 149417.15 52974.1 149455.15 54531.15 L 148015.9 54724.95 Q 148015.9 52993.1 147587.45 50892.65 L 148967.8 50774.85 L 148968.75 50774.85 Z M 152880.85 50620 Q 153930.6 52661.55 154340.05 54334.5 L 152938.8 54665.1 Q 152588.25 52973.15 151577.45 50910.7 L 152880.85 50619.05 L 152880.85 50620 Z M 156791.05 50250.45 Q 158638.8 52545.65 159378.85 54179.65 L 158017.5 54724 Q 157296.45 52992.15 155526.6 50735.9 L 156791.05 50249.5 L 156791.05 50250.45 Z M 177375.65 39042.35 Q 175760.65 41553.2 174340.4 43148.25 L 173113.95 42623.85 Q 174747.95 40716.25 175896.5 38460 L 177374.7 39042.35 L 177375.65 39042.35 Z M 165954.75 43168.2 Q 165136.8 41455.35 163153.2 39042.35 L 164300.8 38400.15 Q 166246.4 40677.3 167200.2 42409.15 L 165954.75 43168.2 Z M 176655.55 53128.95 Q 177084 53128.95 177219.85 52817.35 Q 177356.65 52525.7 177414.6 51474.05 Q 177881.05 51824.6 178756 52018.4 Q 178620.15 53477.6 178210.7 53983.95 Q 177803.15 54509.3 176772.4 54509.3 L 173775.15 54509.3 Q 172452.75 54509.3 172005.3 54080.85 Q 171576.85 53671.4 171576.85 52444.95 L 171576.85 45674.3 L 168540.65 45674.3 Q 168249 49448.65 167159.35 51336.3 Q 165777.1 53787.3 162392.25 54954.85 Q 162061.65 54233.8 161477.4 53709.4 Q 164609.55 52716.65 165855 50596.25 Q 166807.85 48981.25 167042.5 45674.3 L 161730.1 45674.3 L 161730.1 44273.05 L 169357.65 44273.05 L 169357.65 37113.85 L 170854.85 37113.85 L 170854.85 44273.05 L 178443.45 44273.05 L 178443.45 45674.3 L 173014.2 45674.3 L 173014.2 52425.95 Q 173014.2 52873.4 173189.95 53010.2 Q 173344.8 53127.05 173929.05 53127.05 L 176653.65 53127.05 L 176655.55 53128.95 Z M 184846.45 40560.45 Q 183971.5 39860.3 181616.45 38343.15 L 182453.4 37351.35 Q 184652.65 38615.8 185702.4 39413.8 L 184846.45 40561.4 L 184846.45 40560.45 Z M 183931.6 45638.2 Q 182628.2 44646.4 180663.6 43556.75 L 181499.6 42545 Q 184068.4 43965.25 184787.55 44471.6 L 183931.6 45638.2 Z M 185158.05 48381.8 Q 183931.6 51532.95 182355.55 54607.15 L 181071.15 53810.1 Q 182492.35 51318.25 184028.5 47582.85 L 185157.1 48380.85 L 185158.05 48381.8 Z M 187880.75 43381.95 Q 187880.75 51106.4 185254.95 54821.85 Q 184845.5 54393.4 184067.45 54062.8 Q 186460.5 50677.95 186460.5 43381.95 L 186460.5 38069.55 L 198289.9 38069.55 L 198289.9 39392.9 L 187880.75 39392.9 L 187880.75 43381.95 Z M 190975.85 49743.15 Q 189964.1 52000.35 188523.9 53732.2 Q 188135.35 53420.6 187357.3 52992.15 Q 188718.65 51571.9 189671.5 49393.55 L 190975.85 49743.15 Z M 190293.75 47195.25 L 196207.5 47195.25 L 196207.5 45482.4 L 190293.75 45482.4 L 190293.75 47195.25 Z M 190293.75 44432.65 L 196207.5 44432.65 L 196207.5 42740.7 L 190293.75 42740.7 L 190293.75 44432.65 Z M 193854.35 48304.85 L 193854.35 53382.6 Q 193854.35 54432.35 193193.15 54686 Q 192648.8 54918.75 190547.4 54879.8 Q 190449.55 54297.45 190137.95 53635.3 Q 190605.35 53655.25 192141.5 53655.25 Q 192472.1 53635.3 192472.1 53362.65 L 192472.1 48304.85 L 188990.35 48304.85 L 188990.35 41631.1 L 191927.75 41631.1 Q 192316.3 40522.45 192492.05 39666.5 L 194107.05 39997.1 L 193309.05 41631.1 L 197549.85 41631.1 L 197549.85 48304.85 L 193853.4 48304.85 L 193854.35 48304.85 Z M 196403.2 49237.75 Q 197920.35 51630.8 198620.5 52954.15 L 197298.1 53538.4 Q 196751.85 52311.95 195156.8 49724.15 L 196402.25 49237.75 L 196403.2 49237.75 Z M 205197.35 49510.4 Q 206072.3 50385.35 206072.3 51611.8 Q 206072.3 52838.25 205197.35 53713.2 Q 204341.4 54588.15 203095.95 54588.15 Q 201890.4 54588.15 201013.55 53713.2 Q 200138.6 52838.25 200138.6 51611.8 Q 200138.6 50385.35 201013.55 49510.4 Q 201890.4 48654.45 203095.95 48654.45 Q 204341.4 48654.45 205197.35 49510.4  Z M 204497.2 53013.05 Q 205060.55 52447.8 205060.55 51611.8 Q 205060.55 50794.8 204497.2 50229.55 Q 203912.95 49647.2 203095.95 49647.2 Q 202297.95 49647.2 201713.7 50229.55 Q 201129.45 50813.8 201129.45 51611.8 Q 201129.45 52428.8 201713.7 53013.05 Q 202297.95 53597.3 203095.95 53597.3 Q 203931.95 53597.3 204497.2 53013.05  Z M 231833.45 53071 L 236970.1 53071 L 236970.1 54432.35 L 225276.55 54432.35 L 225276.55 53071 L 230394.2 53071 L 230394.2 47603.75 L 226035.6 47603.75 L 226035.6 46242.4 L 230394.2 46242.4 L 230394.2 42526 L 231834.4 42526 L 231834.4 46242.4 L 236212 46242.4 L 236212 47603.75 L 231834.4 47603.75 L 231834.4 53071 L 231833.45 53071 Z M 236969.15 40132 L 236969.15 41514.25 L 226364.3 41514.25 Q 225274.65 43771.45 224010.2 45482.4 L 224010.2 54821.85 L 222589.95 54821.85 L 222589.95 47195.25 Q 221636.15 48226 220332.75 49160.8 Q 220119 48556.6 219593.65 47856.45 Q 222725.8 45638.2 224729.35 41514.25 L 220060.1 41514.25 L 220060.1 40132 L 225371.55 40132 Q 225974.8 38653.8 226403.25 37117.65 L 227881.45 37487.2 Q 227550.85 38614.85 226947.6 40132 L 236968.2 40132 L 236969.15 40132 Z M 239187.4 52311.95 Q 239829.6 52195.1 245918.15 50852.75 L 246054.95 52058.3 L 239459.1 53731.25 L 239186.45 52311 L 239187.4 52311.95 Z M 246073.95 47117.35 Q 246016 47583.8 246073.95 48323.85 Q 240256.15 49491.4 239692.8 49822 Q 239479.05 49043 239246.3 48537.6 Q 239751.7 48420.75 240724.5 47292.15 Q 241405.65 46611 242844.9 44588.45 Q 240024.35 44958 239556.95 45190.75 Q 239344.15 44315.8 239070.55 43829.4 Q 239499 43731.55 240220.05 42622.9 Q 241777.1 40384.7 242962.7 37116.7 L 244286.05 37719.95 Q 242903.8 40968.95 241037.05 43575.75 L 243682.8 43303.1 Q 244208.15 42505.1 244869.35 41299.55 L 246055.9 42039.6 Q 243934.55 45502.35 241776.15 47914.4 L 246074.9 47117.35 L 246073.95 47117.35 Z M 251639.05 44627.4 Q 251503.2 42214.4 251464.25 39451.8 Q 250044 39705.45 248215.25 39938.2 L 248215.25 44627.4 L 251639.05 44627.4 Z M 253117.25 45968.8 Q 253661.6 53303.75 255218.65 53303.75 Q 255705.05 53303.75 255783.9 50229.55 Q 256347.25 50754.9 256950.5 50949.65 Q 256814.65 53128 256405.2 53926 Q 256016.65 54704.05 255082.8 54704.05 Q 252456.05 54704.05 251736.9 45967.85 L 248215.25 45967.85 L 248215.25 52837.3 L 251541.2 51785.65 Q 251580.15 52427.85 251697 53031.1 Q 247280.45 54548.25 246775.05 54936.8 Q 246580.3 54256.6 246153.75 53789.2 Q 246852.95 53322.75 246852.95 52426.9 L 246852.95 38884.65 Q 252321.15 38146.5 255102.75 37271.55 L 256133.5 38438.15 Q 254674.3 38866.6 252884.5 39217.15 Q 252865.5 41862.9 253021.3 44625.5 L 256406.15 44625.5 L 256406.15 45966.9 L 253118.2 45966.9 L 253117.25 45968.8 Z M 265218.35 47993.25 L 265218.35 52565.6 L 273254.4 52565.6 L 273254.4 47993.25 L 265218.35 47993.25 Z M 263780.05 46630.95 L 274753.5 46630.95 L 274753.5 54879.8 L 273255.35 54879.8 L 273255.35 53907 L 265219.3 53907 L 265219.3 54918.75 L 263780.05 54918.75 L 263780.05 46630.95 Z M 276191.8 42468.05 L 276191.8 43869.3 L 262144.15 43869.3 Q 262144.15 51282.15 259576.3 54938.7 Q 259031.95 54258.5 258389.75 53946.9 Q 260665.95 50736.85 260665.95 43869.3 L 260665.95 38868.5 Q 269557.95 38305.15 273623.95 37293.4 L 274829.5 38441 Q 270374.95 39530.65 262144.15 40075 L 262144.15 42469 L 276191.8 42469 L 276191.8 42468.05 Z M 293060 43575.75 L 290141.6 43575.75 L 290141.6 52525.7 L 293060 52525.7 L 293060 43575.75 Z M 280627.35 52526.65 L 283390.9 52526.65 L 283390.9 43576.7 L 280627.35 43576.7 L 280627.35 52526.65 Z M 288819.2 43575.75 L 284714.25 43575.75 L 284714.25 45716.1 L 288819.2 45716.1 L 288819.2 43575.75 Z M 284714.25 52526.65 L 288819.2 52526.65 L 288819.2 50269.45 L 284714.25 50269.45 L 284714.25 52526.65 Z M 288819.2 46903.6 L 284714.25 46903.6 L 284714.25 49081.95 L 288819.2 49081.95 L 288819.2 46903.6 Z M 287476.85 39801.4 Q 287107.3 41104.8 286718.75 42233.4 L 294520.15 42233.4 L 294520.15 54899.75 L 293060.95 54899.75 L 293060.95 53869 L 280628.3 53869 L 280628.3 54899.75 L 279228.95 54899.75 L 279228.95 42233.4 L 285240.55 42233.4 Q 285513.2 41280.55 285804.85 39801.4 L 278353.05 39801.4 L 278353.05 38421.05 L 295455.9 38421.05 L 295455.9 39801.4 L 287478.75 39801.4 L 287476.85 39801.4 Z M 311485.25 48868.2 L 311485.25 46475.15 L 306971.8 46475.15 L 306971.8 48868.2 L 311485.25 48868.2 Z M 301154 48868.2 L 305531.6 48868.2 L 305531.6 46475.15 L 301154 46475.15 L 301154 48868.2 Z M 301154 42856.6 L 301154 45209.75 L 305531.6 45209.75 L 305531.6 42856.6 L 301154 42856.6 Z M 306971.8 42856.6 L 306971.8 45209.75 L 311485.25 45209.75 L 311485.25 42856.6 L 306971.8 42856.6 Z M 315259.6 50210.55 L 312906.45 50210.55 L 312906.45 53128.95 Q 312906.45 54355.4 312069.5 54666.05 Q 311369.35 54919.7 308685.6 54919.7 Q 308548.8 54200.55 308160.25 53539.35 Q 310047.9 53597.3 311020.7 53539.35 Q 311487.15 53539.35 311487.15 53129.9 L 311487.15 50211.5 L 301155.9 50211.5 L 301155.9 54938.7 L 299735.65 54938.7 L 299735.65 50211.5 L 297439.5 50211.5 L 297439.5 48869.15 L 299735.65 48869.15 L 299735.65 41534.2 L 305533.5 41534.2 L 305533.5 39667.45 L 298160.55 39667.45 L 298160.55 38306.1 L 314542.35 38306.1 L 314542.35 39667.45 L 306973.7 39667.45 L 306973.7 41534.2 L 312908.35 41534.2 L 312908.35 48869.15 L 315261.5 48869.15 L 315261.5 50211.5 L 315259.6 50210.55 Z M 321116.35 40113 Q 320881.7 39140.2 320122.65 37467.25 L 321368.1 37097.7 Q 322108.15 38595.85 322419.75 39685.5 L 321116.35 40113.95 L 321116.35 40113 Z M 324695.95 44198.95 Q 324695.95 44665.4 324676 44860.15 Q 324501.2 53226.8 323916.95 54043.8 Q 323509.4 54588.15 322769.35 54665.1 Q 321991.3 54762.95 320687.9 54665.1 Q 320609.05 53887.05 320297.45 53323.7 Q 321290.2 53419.65 322126.2 53419.65 Q 322516.65 53419.65 322691.45 53147 Q 323119.9 52583.65 323275.7 45520.4 L 320648.95 45520.4 L 320648.95 45657.2 Q 320648.95 51726.75 317691.6 54877.9 Q 317303.05 54391.5 316621.9 53944.05 Q 319267.65 51123.5 319267.65 45636.3 L 319267.65 41609.25 L 316972.45 41609.25 L 316972.45 40266.9 L 325552.85 40266.9 L 325552.85 41609.25 L 320649.9 41609.25 L 320649.9 44197.05 L 324696.9 44197.05 L 324695.95 44198.95 Z M 328198.6 42077.6 L 328119.75 42272.35 Q 328780.95 45930.8 329967.5 48400.8 Q 331271.85 45910.85 331835.2 42077.6 L 328197.65 42077.6 L 328198.6 42077.6 Z M 333276.35 42077.6 Q 332536.3 46805.75 330785.45 49860 Q 332457.45 52486.75 334870.45 53615.35 Q 334267.2 54140.7 333857.75 54859.85 Q 331483.7 53614.4 329907.65 51163.4 Q 328156.8 53458.6 325296.35 54936.8 Q 325063.6 54354.45 324460.35 53673.3 Q 327416.75 52311.95 329129.6 49822 Q 328020 47641.75 327241.95 44412.7 Q 326697.6 45599.25 325841.65 46823.8 Q 325278.3 46162.6 324713.05 45734.15 Q 326912.3 42873.7 327962.05 37115.75 L 329421.25 37348.5 Q 328992.8 39410.95 328624.2 40734.3 L 334693.75 40734.3 L 334693.75 42075.7 L 333273.5 42075.7 L 333276.35 42077.6 Z M 23361.65 73809.35 L 23361.65 75385.4 L 5695.45 75385.4 L 5695.45 73809.35 L 23361.65 73809.35 Z M 42039.6 67174.55 Q 40151.95 70599.3 36940.95 72796.65 Q 36123.95 72058.5 35832.3 71844.75 Q 38945.45 69879.2 40617.45 66767 L 42038.65 67174.55 L 42039.6 67174.55 Z M 31338.8 75541.2 L 31299.85 76164.4 Q 30988.25 82195 30288.1 82916.05 Q 29880.55 83421.45 28984.7 83479.4 Q 28381.45 83558.25 26552.7 83479.4 Q 26475.75 82720.35 26106.2 82195 Q 27117.95 82273.85 28401.4 82273.85 Q 28868.8 82292.85 29082.55 82079.1 Q 29607.9 81553.75 29840.65 76865.5 L 25988.4 76865.5 Q 26357.95 74394.55 26571.7 70989.75 L 29839.7 70989.75 L 29839.7 67994.4 L 26085.3 67994.4 L 26085.3 66631.15 L 31240.95 66631.15 L 31240.95 72351.1 L 27817.15 72351.1 L 27505.55 75542.15 L 31338.8 75542.15 L 31338.8 75541.2 Z M 38381.15 74782.15 Q 39763.4 80230.4 43070.35 82233.95 Q 42467.1 82701.35 42076.65 83381.55 Q 38497.05 80988.5 37018.85 74782.15 L 35131.2 74782.15 L 35131.2 81416.95 L 38049.6 80307.35 Q 38049.6 81105.35 38147.45 81649.7 Q 33807.85 83439.5 33439.25 83790.05 Q 33283.45 83166.85 32835.05 82524.65 Q 33711.9 82117.1 33711.9 81221.25 L 33711.9 74781.2 L 31531.65 74781.2 L 31531.65 73400.85 L 33711.9 73400.85 L 33711.9 66279.65 L 35132.15 66279.65 L 35132.15 73400.85 L 42797.7 73400.85 L 42797.7 74781.2 L 38381.15 74781.2 L 38381.15 74782.15 Z M 56262.05 74063 L 56262.05 68556.8 L 50853.7 68556.8 L 50853.7 74063 L 56262.05 74063 Z M 62058.95 75464.25 L 57739.3 75464.25 L 57739.3 83694.1 L 56261.1 83694.1 L 56261.1 75464.25 L 50793.85 75464.25 Q 50287.5 81028.4 45967.85 83752.05 Q 45404.5 83071.85 44820.25 82681.4 Q 48828.3 80230.4 49314.7 75464.25 L 44762.3 75464.25 L 44762.3 74063 L 49372.65 74063 Q 49392.6 73770.4 49392.6 73226.05 L 49392.6 68556.8 L 45481.45 68556.8 L 45481.45 67174.55 L 61455.7 67174.55 L 61455.7 68556.8 L 57739.3 68556.8 L 57739.3 74063 L 62058.95 74063 L 62058.95 75464.25 Z M 80445.25 68147.35 Q 77682.65 71202.55 73674.6 73361.9 L 73674.6 81766.55 Q 73674.6 83108.9 72662.85 83401.5 Q 71865.8 83653.25 68674.75 83653.25 Q 68537.95 82973.05 68090.5 82214 Q 70268.85 82290.95 71651.1 82233 Q 72175.5 82214 72175.5 81765.6 L 72175.5 72641.8 Q 75035.95 71240.55 77584.8 68827.55 L 65075.2 68827.55 L 65075.2 67407.3 L 78967.05 67407.3 L 79317.6 67309.45 L 80445.25 68145.45 L 80445.25 68147.35 Z M 94026.45 68654.65 L 90504.8 68654.65 L 90504.8 71319.4 L 94026.45 71319.4 L 94026.45 68654.65 Z M 95445.75 68654.65 L 95445.75 71319.4 L 100037.1 71319.4 L 100037.1 81826.4 Q 100037.1 83129.8 99162.15 83421.45 Q 98441.1 83675.1 95580.65 83675.1 Q 95425.8 82858.1 95056.25 82215.9 Q 96904 82313.75 98130.45 82253.9 Q 98616.85 82234.9 98616.85 81787.45 L 98616.85 72681.7 L 95425.8 72681.7 Q 95346.95 73752.35 95230.1 74608.3 Q 97506.3 77215.1 98381.25 78791.15 L 97506.3 79900.75 Q 96670.3 78362.7 94880.5 76184.35 Q 94159.45 78985.9 92233.8 80912.5 Q 91766.4 80270.3 91201.15 79900.75 Q 93788.95 77487.75 94002.7 72681.7 L 90481.05 72681.7 Q 90404.1 73791.3 90287.25 74666.25 Q 91746.45 76417.1 92290.8 77428.85 L 91434.85 78576.45 Q 90928.5 77565.65 89917.7 76281.25 Q 89196.65 79024.85 87290 80912.5 Q 86901.45 80328.25 86298.2 79899.8 Q 88847.05 77486.8 89060.8 72680.75 L 86044.55 72680.75 L 86044.55 83674.15 L 84624.3 83674.15 L 84624.3 71319.4 L 89078.85 71319.4 L 89078.85 68654.65 L 83807.3 68654.65 L 83807.3 67253.4 L 100831.3 67253.4 L 100831.3 68654.65 L 95441.95 68654.65 L 95445.75 68654.65 Z M 117352.75 72409.05 L 110893.7 72409.05 L 110893.7 74005.05 L 117352.75 74005.05 L 117352.75 72409.05 Z M 117352.75 75016.8 L 110893.7 75016.8 L 110893.7 76650.8 L 117352.75 76650.8 L 117352.75 75016.8 Z M 117352.75 77661.6 L 110893.7 77661.6 L 110893.7 79296.55 L 117352.75 79296.55 L 117352.75 77661.6 Z M 112800.35 71300.4 Q 113130.95 70248.75 113228.8 69666.4 L 108132.05 69666.4 L 108132.05 68458.95 L 111420 68458.95 Q 111029.55 67544.1 110114.7 66319.55 L 111322.15 65813.2 Q 112332.95 67058.65 112723.4 67993.45 L 111711.65 68459.9 L 115291.25 68459.9 Q 116206.1 67214.45 116790.35 65911.05 L 118191.6 66320.5 Q 117198.85 67856.65 116772.3 68459.9 L 120409.85 68459.9 L 120409.85 69667.35 L 114845.7 69667.35 Q 114495.15 70542.3 114145.55 71301.35 L 118776.8 71301.35 L 118776.8 80387.15 L 109535.2 80387.15 L 109535.2 71301.35 L 112803.2 71301.35 L 112800.35 71300.4 Z M 106127.55 70600.25 Q 105271.6 69218 103383.95 67330.35 L 104473.6 66650.15 Q 106400.2 68420 107315.05 69802.25 L 106128.5 70600.25 L 106127.55 70600.25 Z M 107178.25 80191.45 Q 107392 80289.3 107820.45 80580.95 L 108656.45 81106.3 Q 110173.6 81923.3 113676.25 81923.3 Q 117625.4 81923.3 120680.6 81573.7 Q 120330.05 82409.7 120272.1 83012.95 Q 116829.3 83207.7 113657.25 83207.7 Q 110019.7 83207.7 108365.75 82253.9 Q 106594.95 81204.15 106478.1 81204.15 Q 105700.05 81204.15 103812.4 83422.4 L 102937.45 82254.85 Q 104610.4 80581.9 105777 80134.45 L 105777 74161.8 L 103091.35 74161.8 L 103091.35 72798.55 L 107177.3 72798.55 L 107177.3 80192.4 L 107178.25 80191.45 Z M 139903.85 76844.6 L 131926.7 76844.6 L 131926.7 83654.2 L 130448.5 83654.2 L 130448.5 76844.6 L 122587.25 76844.6 L 122587.25 75424.35 L 130448.5 75424.35 L 130448.5 68633.75 L 123599.95 68633.75 L 123599.95 67213.5 L 138814.2 67213.5 L 138814.2 68633.75 L 131927.65 68633.75 L 131927.65 75424.35 L 139904.8 75424.35 L 139904.8 76844.6 L 139903.85 76844.6 Z M 126224.8 69587.55 Q 127665 72117.4 128074.45 73965.15 L 126711.2 74432.55 Q 126244.75 72429 124960.35 69977.05 L 126224.8 69588.5 L 126224.8 69587.55 Z M 134046.15 74082 Q 135253.6 72059.45 136147.55 69490.65 L 137664.7 69919.1 Q 136361.3 72818.5 135271.65 74491.45 L 134045.2 74082 L 134046.15 74082 Z M 158911.45 68439.95 L 149418.1 68439.95 L 149418.1 67078.6 L 158911.45 67078.6 L 158911.45 68439.95 Z M 147549.45 66436.4 Q 145545.9 69160.05 142569.55 71261.45 Q 141966.3 70386.5 141712.65 70113.85 Q 144533.2 68207.2 146167.2 65892.05 L 147549.45 66436.4 Z M 148307.55 70541.35 Q 147471.55 71921.7 146167.2 73478.75 L 146167.2 83712.15 L 144727.95 83712.15 L 144727.95 75074.75 Q 143482.5 76339.2 142528.7 77098.25 Q 142003.35 76358.2 141516.95 75891.75 Q 144825.8 73557.6 146965.2 70035 L 148307.55 70541.35 Z M 159475.75 73770.4 L 156537.4 73770.4 L 156537.4 81806.45 Q 156537.4 83071.85 155682.4 83382.5 Q 155020.25 83596.25 152024.9 83596.25 Q 151908.05 82877.1 151557.5 82195.95 Q 153775.75 82253.9 154592.75 82215.9 Q 155079.15 82195.95 155079.15 81788.4 L 155079.15 73771.35 L 148581.15 73771.35 L 148581.15 72391 L 159476.7 72391 L 159476.7 73771.35 L 159475.75 73770.4 Z M 167549.8 66630.2 Q 166751.8 68051.4 165429.4 69548.6 Q 166751.8 72078.45 166751.8 76358.2 Q 166751.8 81456.85 165741 82896.1 Q 165292.6 83421.45 164592.45 83538.3 Q 163639.6 83713.1 162199.4 83655.15 Q 162160.45 82917 161771.9 82235.85 Q 163251.05 82352.7 164010.1 82254.85 Q 164457.55 82196.9 164690.3 81886.25 Q 165390.45 80971.4 165390.45 76340.15 Q 165390.45 75659 165371.45 75309.4 Q 163873.3 77487.75 162044.55 78908.95 Q 161539.15 78208.8 161071.75 77839.25 Q 163582.6 76224.25 165177.65 73227 Q 164944.9 71729.8 164439.5 70601.2 Q 163329.9 71709.85 162124.35 72624.7 Q 161812.75 72196.25 161131.6 71690.85 Q 162571.8 70679.1 163777.35 69356.7 Q 162902.4 68014.35 161501.15 66846.8 L 162493.9 66068.75 Q 163816.3 67158.4 164672.25 68344.95 Q 165664.05 67139.4 166287.25 65990.85 L 167551.7 66633.05 L 167549.8 66630.2 Z M 173911.95 76476 Q 175429.1 80814.65 179125.55 82350.8 Q 178543.2 82895.15 178152.75 83635.2 Q 174728.95 81962.25 173056 77701.5 Q 171673.75 81573.7 167413.95 83694.1 Q 167044.4 83090.85 166402.2 82565.5 Q 170954.6 80542.95 171927.4 76476.95 L 167472.85 76476.95 L 167472.85 75094.7 L 172200.05 75094.7 Q 172316.9 74024.05 172316.9 72487.9 L 172316.9 70035.95 L 168037.15 70035.95 L 168037.15 68674.6 L 172316.9 68674.6 L 172316.9 65912 L 173776.1 65912 L 173776.1 68674.6 L 178426.35 68674.6 L 178426.35 70035.95 L 173776.1 70035.95 L 173776.1 72487.9 Q 173776.1 73849.25 173640.25 75094.7 L 178815.85 75094.7 L 178815.85 76476.95 L 173912.9 76476.95 L 173911.95 76476 Z M 169749.05 70697.15 Q 170760.8 72759.6 171012.55 74354.65 L 169767.1 74724.2 Q 169455.5 72973.35 168540.65 71046.75 L 169748.1 70697.15 L 169749.05 70697.15 Z M 174924.65 74432.55 Q 175993.4 72429 176537.75 70579.35 L 177920 71007.8 Q 176849.35 73478.75 176111.2 74802.1 L 174924.65 74432.55 Z M 192298.25 68810.45 Q 192959.45 69763.3 193971.2 70580.3 Q 195080.8 69646.45 195761 68517.85 L 192531 68517.85 L 192298.25 68810.45 Z M 197492.85 67778.75 Q 196714.8 69782.3 195001.95 71279.5 Q 196616.95 72272.25 198348.8 72660.8 Q 197881.4 73108.25 197550.8 73750.45 Q 195644.15 73187.1 194029.15 72019.55 Q 192375.2 73206.1 190137.95 73867.3 Q 189826.35 73225.1 189437.8 72817.55 Q 191402.4 72331.15 193056.35 71241.5 Q 192337.2 70560.35 191597.15 69568.55 Q 191012.9 70152.8 190351.7 70658.2 Q 190040.1 70190.8 189534.7 69685.4 Q 191752.95 68168.25 192823.6 65834.1 L 193971.2 66164.7 Q 193757.45 66728.05 193290.05 67447.2 L 196422.2 67447.2 L 196675.85 67389.25 L 197492.85 67779.7 L 197492.85 67778.75 Z M 193310 81435.95 L 193310 79666.1 L 189788.35 79666.1 L 189788.35 78614.45 L 193310 78614.45 L 193310 77369 L 190527.45 77369 L 190527.45 76377.2 L 193310 76377.2 L 193310 75287.55 L 190156.95 75287.55 L 190156.95 74254.9 L 193310 74254.9 L 193310 73165.25 L 194632.4 73165.25 L 194632.4 74254.9 L 197550.8 74254.9 L 197550.8 75287.55 L 194632.4 75287.55 L 194632.4 76377.2 L 197084.35 76377.2 L 197084.35 77369 L 194632.4 77369 L 194632.4 78614.45 L 197901.35 78614.45 L 197901.35 79666.1 L 194632.4 79666.1 L 194632.4 81435.95 L 193310 81435.95 Z M 187939.65 71007.8 Q 187511.2 69431.75 186519.4 67019.7 L 187629 66650.15 Q 188620.8 68926.35 189126.2 70541.35 L 187939.65 71007.8 Z M 186480.45 76106.45 Q 186461.45 76495 186461.45 77312 Q 181714.3 78265.8 181208.9 78557.45 Q 180995.15 77838.3 180762.4 77293.95 Q 181228.85 77196.1 182065.8 76048.5 Q 182784.95 75152.65 183738.75 73479.7 Q 181402.7 73791.3 181072.1 73966.1 Q 180858.35 73207.05 180606.6 72643.7 Q 180976.15 72545.85 181617.4 71417.25 Q 183038.6 68946.3 183855.6 65911.05 L 185235.95 66495.3 Q 184030.4 69842.15 182435.35 72448.95 L 184476.9 72216.2 Q 185255.9 70718.05 185507.65 70114.8 L 186694.2 70776 Q 184827.45 74434.45 183017.7 76749.6 L 186480.45 76107.4 L 186480.45 76106.45 Z M 186812 80522.05 Q 181753.25 82157 181072.1 82389.75 L 180741.5 80988.5 Q 182842.9 80483.1 186578.3 79373.5 L 186812.95 80521.1 L 186812 80522.05 Z M 189126.2 80367.2 Q 189301.95 80463.15 189651.55 80735.8 Q 190061 81086.35 190293.75 81242.15 Q 191499.3 82059.15 193873.35 82059.15 Q 196461.15 82059.15 198485.6 81786.5 Q 198212 82545.55 198174 83167.8 Q 196111.55 83323.6 193834.4 83323.6 Q 191462.25 83323.6 190041.05 82370.75 Q 188737.65 81359 188543.85 81359 Q 187920.65 81359 186519.4 83537.35 L 185721.4 82350.8 Q 186966.85 80814.65 187881.7 80367.2 L 187881.7 74082 L 186149.85 74082 L 186149.85 72857.45 L 189126.2 72857.45 L 189126.2 80367.2 Z M 206480.8 70307.65 L 202395.8 70307.65 L 202395.8 74374.6 L 206480.8 74374.6 L 206480.8 70307.65 Z M 206480.8 80328.25 L 206480.8 75658.05 L 202395.8 75658.05 L 202395.8 80328.25 L 206480.8 80328.25 Z M 205586.85 66143.8 Q 204730.9 68595.75 204575.1 69003.3 L 207805.1 69003.3 L 207805.1 81630.7 L 202396.75 81630.7 L 202396.75 83166.85 L 201073.4 83166.85 L 201073.4 69003.3 L 203253.65 69003.3 Q 203837.9 67115.65 204031.7 65851.2 L 205588.75 66142.85 L 205586.85 66143.8 Z M 217318.4 69685.4 Q 216908.95 81359 215975.1 82506.6 Q 215430.75 83187.75 214438.95 83285.6 Q 213640.95 83381.55 211558.55 83264.7 Q 211481.6 82466.7 211072.15 81844.45 Q 212337.55 81961.3 213952.55 81961.3 Q 214515.9 81961.3 214748.65 81669.65 Q 215585.6 80773.8 215935.2 70286.75 L 210994.25 70286.75 Q 210098.4 72446.1 209164.55 73691.55 Q 208910.9 73458.8 207977.05 72874.55 Q 209883.7 70363.7 210954.35 65811.3 L 212336.6 66141.9 Q 211967.05 67659.05 211499.65 68943.45 L 217317.45 68943.45 L 217317.45 69683.5 L 217318.4 69685.4 Z M 213017.75 78459.6 Q 212123.8 76650.8 210061.35 73965.15 L 211189.95 73303.95 Q 213329.35 76027.6 214244.2 77700.55 L 213017.75 78459.6 Z M 219731.4 81086.35 Q 220373.6 80969.5 226462.15 79627.15 L 226598.95 80832.7 L 220003.1 82505.65 L 219730.45 81085.4 L 219731.4 81086.35 Z M 226617.95 75891.75 Q 226560 76358.2 226617.95 77098.25 Q 220800.15 78265.8 220236.8 78596.4 Q 220023.05 77817.4 219790.3 77312 Q 220295.7 77195.15 221268.5 76066.55 Q 221949.65 75385.4 223388.9 73362.85 Q 220568.35 73732.4 220100.95 73965.15 Q 219888.15 73090.2 219614.55 72603.8 Q 220043 72505.95 220764.05 71397.3 Q 222321.1 69159.1 223506.7 65891.1 L 224830.05 66494.35 Q 223447.8 69743.35 221581.05 72350.15 L 224226.8 72077.5 Q 224752.15 71279.5 225413.35 70073.95 L 226599.9 70814 Q 224478.55 74276.75 222320.15 76688.8 L 226618.9 75891.75 L 226617.95 75891.75 Z M 232183.05 73401.8 Q 232047.2 70988.8 232008.25 68226.2 Q 230588 68479.85 228759.25 68712.6 L 228759.25 73401.8 L 232183.05 73401.8 Z M 233661.25 74743.2 Q 234205.6 82078.15 235762.65 82078.15 Q 236249.05 82078.15 236327.9 79003.95 Q 236891.25 79529.3 237494.5 79724.05 Q 237358.65 81902.4 236949.2 82700.4 Q 236560.65 83478.45 235626.8 83478.45 Q 233000.05 83478.45 232280.9 74742.25 L 228759.25 74742.25 L 228759.25 81611.7 L 232085.2 80560.05 Q 232124.15 81202.25 232241 81805.5 Q 227824.45 83322.65 227319.05 83711.2 Q 227124.3 83031 226697.75 82563.6 Q 227396.95 82097.15 227396.95 81201.3 L 227396.95 67659.05 Q 232865.15 66920.9 235646.75 66045.95 L 236677.5 67212.55 Q 235218.3 67641 233428.5 67991.55 Q 233409.5 70637.3 233565.3 73399.9 L 236950.15 73399.9 L 236950.15 74741.3 L 233662.2 74741.3 L 233661.25 74743.2 Z M 244109.35 78284.8 Q 244984.3 79159.75 244984.3 80386.2 Q 244984.3 81612.65 244109.35 82487.6 Q 243253.4 83362.55 242007.95 83362.55 Q 240802.4 83362.55 239925.55 82487.6 Q 239050.6 81612.65 239050.6 80386.2 Q 239050.6 79159.75 239925.55 78284.8 Q 240802.4 77428.85 242007.95 77428.85 Q 243253.4 77428.85 244109.35 78284.8  Z M 243409.2 81787.45 Q 243972.55 81222.2 243972.55 80386.2 Q 243972.55 79569.2 243409.2 79003.95 Q 242824.95 78421.6 242007.95 78421.6 Q 241209.95 78421.6 240625.7 79003.95 Q 240041.45 79588.2 240041.45 80386.2 Q 240041.45 81203.2 240625.7 81787.45 Q 241209.95 82371.7 242007.95 82371.7 Q 242843.95 82371.7 243409.2 81787.45  Z M 266542.65 78984.95 Q 265530.9 76902.55 263624.25 74353.7 Q 262631.5 80404.25 259947.75 83634.25 Q 259578.2 83245.7 258547.45 82642.45 Q 262282.85 78693.3 262827.2 66357.55 L 264384.25 66415.5 Q 264209.45 69840.25 263897.85 72466.05 Q 266387.8 75423.4 267633.25 77953.25 L 266543.6 78984 L 266542.65 78984.95 Z M 271795.2 66397.45 Q 271541.55 70230.7 271134 72760.55 Q 272612.2 79668 276249.75 82138 Q 275608.5 82741.25 275199.05 83422.4 Q 272163.8 81067.35 270567.8 75678.95 Q 269284.35 80815.6 266306.1 83578.2 Q 265879.55 83149.75 264906.75 82565.5 Q 267611.4 80308.3 268856.85 76009.55 Q 269887.6 72525.9 270237.2 66320.5 L 271794.25 66397.45 L 271795.2 66397.45 Z M 287729.55 66182.75 L 287729.55 81649.7 Q 287729.55 83031.95 286756.75 83401.5 Q 285900.8 83693.15 283040.35 83654.2 Q 282865.55 82895.15 282437.1 82157 Q 284440.65 82233.95 285627.2 82176 Q 286190.55 82176 286190.55 81650.65 L 286190.55 66183.7 L 287728.6 66183.7 L 287729.55 66182.75 Z M 292205 70560.35 Q 295259.25 75424.35 296038.25 79140.75 L 294519.2 79782.95 Q 293741.15 75968.7 290841.75 71085.7 L 292205 70560.35 Z M 282709.75 70988.8 Q 281445.3 76688.8 279207.1 79452.35 Q 278545.9 78965.95 277845.75 78693.3 Q 280179.9 75949.7 281113.75 70697.15 L 282709.75 70988.8 Z M 307069.65 67700.85 Q 305493.6 69939.05 303061.6 71805.8 L 303061.6 74588.35 Q 304481.85 74237.8 306816 73576.6 L 307010.75 74937.95 L 303061.6 76027.6 L 303061.6 81864.4 Q 303061.6 83071.85 302321.55 83402.45 Q 301621.4 83694.1 299364.2 83655.15 Q 299247.35 82838.15 298896.8 82195.95 Q 299987.4 82234.9 301251.85 82234.9 Q 301661.3 82215.9 301661.3 81846.35 L 301661.3 76398.1 L 297652.3 77507.7 L 297341.65 76067.5 Q 299287.25 75581.1 301661.3 74957.9 L 301661.3 71222.5 Q 303216.45 70153.75 304695.6 68420.95 L 297769.15 68420.95 L 297769.15 67079.55 L 305803.3 67079.55 L 306095.9 66981.7 L 307068.7 67700.85 L 307069.65 67700.85 Z M 313100.25 82176 Q 313665.5 82176 313859.3 81456.85 Q 314015.1 80794.7 314093.95 78538.45 Q 314638.3 78985.9 315397.35 79180.65 Q 315280.5 81670.6 314871.05 82525.6 Q 314423.6 83479.4 313197.15 83479.4 L 310473.5 83479.4 Q 309208.1 83479.4 308760.65 82954.05 Q 308332.2 82448.65 308332.2 80970.45 L 308332.2 66358.5 L 309752.45 66358.5 L 309752.45 81008.45 Q 309752.45 81748.5 309928.2 81962.25 Q 310083.05 82176 310648.3 82176 L 313099.3 82176 L 313100.25 82176 Z M 332069.85 75929.75 L 332069.85 70774.1 L 326486.7 70774.1 L 326486.7 75929.75 L 332069.85 75929.75 Z M 324987.6 75929.75 L 324987.6 70774.1 L 319423.45 70774.1 L 319423.45 75929.75 L 324987.6 75929.75 Z M 333549 69354.8 L 333549 78459.6 L 332069.85 78459.6 L 332069.85 77350.95 L 326486.7 77350.95 L 326486.7 83654.2 L 324988.55 83654.2 L 324988.55 77350.95 L 319424.4 77350.95 L 319424.4 78556.5 L 318004.15 78556.5 L 318004.15 69353.85 L 324988.55 69353.85 L 324988.55 65891.1 L 326486.7 65891.1 L 326486.7 69353.85 L 333549.95 69353.85 L 333549 69354.8 Z M 8516 104996.75 L 12369.2 104996.75 L 12369.2 103362.75 L 8516 103362.75 L 8516 104996.75 Z M 8516 98012.35 L 8516 99588.4 L 12369.2 99588.4 L 12369.2 98012.35 L 8516 98012.35 Z M 12369.2 100678.05 L 8516 100678.05 L 8516 102273.1 L 12369.2 102273.1 L 12369.2 100678.05 Z M 13711.55 110813.6 Q 13711.55 111923.2 13011.4 112214.85 Q 12388.2 112468.5 10228.85 112468.5 Q 10073.05 111768.35 9781.4 111205 Q 11201.65 111262.95 11980.65 111205 Q 12369.2 111185.05 12369.2 110815.5 L 12369.2 106283.05 L 12330.25 106283.05 Q 10170.9 109493.1 6396.55 111555.55 Q 5891.15 110855.4 5443.7 110524.8 Q 8692.7 108967.75 10774.15 106284 L 5812.3 106284 L 5812.3 104999.6 L 7213.55 104999.6 L 7213.55 96847.65 L 9238 96847.65 Q 9666.45 95758 9939.1 94668.35 L 11378.35 94882.1 Q 10872.95 96185.5 10561.35 96846.7 L 13714.4 96846.7 L 13714.4 110815.5 L 13711.55 110813.6 Z M 23342.65 100522.25 L 21222.25 100522.25 L 21222.25 110619.8 Q 21222.25 111846.25 20424.25 112156.9 Q 19703.2 112468.5 17271.2 112429.55 Q 17175.25 111768.35 16784.8 111068.2 Q 17389 111088.15 19372.6 111088.15 Q 19840 111068.2 19840 110620.75 L 19840 100523.2 L 14450.65 100523.2 L 14450.65 99140.95 L 19840 99140.95 L 19840 94744.35 L 21222.25 94744.35 L 21222.25 99140.95 L 23342.65 99140.95 L 23342.65 100523.2 L 23342.65 100522.25 Z M 17389 107312.85 Q 16726.85 105055.65 15112.8 102779.45 L 16260.4 102273.1 Q 17933.35 104588.25 18613.55 106768.5 L 17389 107312.85 Z M 41572.2 104335.55 L 41572.2 112409.6 L 40015.15 112409.6 L 40015.15 111300 L 26319 111300 L 26319 104335.55 L 27876.05 104335.55 L 27876.05 109879.75 L 33128.6 109879.75 L 33128.6 103109.1 L 27174.95 103109.1 L 27174.95 96455.3 L 28672.15 96455.3 L 28672.15 101688.85 L 33128.6 101688.85 L 33128.6 94684.5 L 34685.65 94684.5 L 34685.65 101688.85 L 39257.05 101688.85 L 39257.05 96434.4 L 40814.1 96434.4 L 40814.1 103108.15 L 34685.65 103108.15 L 34685.65 109878.8 L 40016.1 109878.8 L 40016.1 104334.6 L 41573.15 104334.6 L 41572.2 104335.55 Z M 50832.8 99082.05 L 46747.8 99082.05 L 46747.8 103149 L 50832.8 103149 L 50832.8 99082.05 Z M 50832.8 109102.65 L 50832.8 104432.45 L 46747.8 104432.45 L 46747.8 109102.65 L 50832.8 109102.65 Z M 49938.85 94918.2 Q 49082.9 97370.15 48927.1 97777.7 L 52157.1 97777.7 L 52157.1 110405.1 L 46748.75 110405.1 L 46748.75 111941.25 L 45425.4 111941.25 L 45425.4 97777.7 L 47605.65 97777.7 Q 48189.9 95890.05 48383.7 94625.6 L 49940.75 94917.25 L 49938.85 94918.2 Z M 61670.4 98459.8 Q 61260.95 110133.4 60327.1 111281 Q 59782.75 111962.15 58790.95 112060 Q 57992.95 112155.95 55910.55 112039.1 Q 55833.6 111241.1 55424.15 110618.85 Q 56689.55 110735.7 58304.55 110735.7 Q 58867.9 110735.7 59100.65 110444.05 Q 59937.6 109548.2 60287.2 99061.15 L 55346.25 99061.15 Q 54450.4 101220.5 53516.55 102465.95 Q 53262.9 102233.2 52329.05 101648.95 Q 54235.7 99138.1 55306.35 94585.7 L 56688.6 94916.3 Q 56319.05 96433.45 55851.65 97717.85 L 61669.45 97717.85 L 61669.45 98457.9 L 61670.4 98459.8 Z M 57369.75 107234 Q 56475.8 105425.2 54413.35 102739.55 L 55541.95 102078.35 Q 57681.35 104802 58596.2 106474.95 L 57369.75 107234 Z M 80095.65 96591.15 Q 78480.65 99102 77060.4 100697.05 L 75833.95 100172.65 Q 77467.95 98265.05 78616.5 96008.8 L 80094.7 96591.15 L 80095.65 96591.15 Z M 68674.75 100717 Q 67856.8 99004.15 65873.2 96591.15 L 67020.8 95948.95 Q 68966.4 98226.1 69920.2 99957.95 L 68674.75 100717 Z M 79375.55 110677.75 Q 79804 110677.75 79939.85 110366.15 Q 80076.65 110074.5 80134.6 109022.85 Q 80601.05 109373.4 81476 109567.2 Q 81340.15 111026.4 80930.7 111532.75 Q 80523.15 112058.1 79492.4 112058.1 L 76495.15 112058.1 Q 75172.75 112058.1 74725.3 111629.65 Q 74296.85 111220.2 74296.85 109993.75 L 74296.85 103223.1 L 71260.65 103223.1 Q 70969 106997.45 69879.35 108885.1 Q 68497.1 111336.1 65112.25 112503.65 Q 64781.65 111782.6 64197.4 111258.2 Q 67329.55 110265.45 68575 108145.05 Q 69527.85 106530.05 69762.5 103223.1 L 64450.1 103223.1 L 64450.1 101821.85 L 72077.65 101821.85 L 72077.65 94662.65 L 73574.85 94662.65 L 73574.85 101821.85 L 81163.45 101821.85 L 81163.45 103223.1 L 75734.2 103223.1 L 75734.2 109974.75 Q 75734.2 110422.2 75909.95 110559 Q 76064.8 110675.85 76649.05 110675.85 L 79373.65 110675.85 L 79375.55 110677.75 Z M 96204.8 105872.65 L 100505.45 105872.65 L 100505.45 107137.1 L 96204.8 107137.1 L 96204.8 110736.65 Q 96204.8 111865.25 95426.75 112156.9 Q 94745.6 112429.55 92352.55 112391.55 Q 92273.7 111826.3 91845.25 111067.25 Q 93869.7 111125.2 94375.1 111067.25 Q 94784.55 111048.25 94784.55 110717.65 L 94784.55 107137.1 L 94667.7 107137.1 Q 91028.25 110250.25 84511.25 111632.5 Q 84120.8 110911.45 83634.4 110445 Q 89219.45 109414.25 92799.05 107137.1 L 85580 107137.1 Q 86066.4 105581.95 86435.95 103694.3 L 87876.15 103830.15 Q 87759.3 104355.5 87349.85 105872.65 L 94782.65 105872.65 L 94782.65 103265.85 L 85327.3 103265.85 L 85327.3 102000.45 L 85444.15 102000.45 L 84763 101066.6 Q 87623.45 100132.75 89978.5 98575.7 L 91068.15 99236.9 Q 88617.15 100949.75 85950.5 101999.5 L 98927.5 101999.5 Q 96962.9 100716.05 93732.9 99489.6 L 94375.1 98574.75 Q 97644.05 99722.35 99706.5 100987.75 L 99064.3 101998.55 L 99958.25 101998.55 L 99958.25 103263.95 L 96203.85 103263.95 L 96203.85 105870.75 L 96204.8 105872.65 Z M 100505.45 96631.05 L 100505.45 99705.25 L 99046.25 99705.25 L 99046.25 97876.5 L 85601.85 97876.5 L 85601.85 99724.25 L 84181.6 99724.25 L 84181.6 96631.05 L 91788.25 96631.05 Q 91340.8 95795.05 90815.45 95055 L 92197.7 94568.6 Q 93150.55 95853 93520.1 96631.05 L 100505.45 96631.05 Z M 116030.35 99530.45 L 108559.55 99530.45 L 108559.55 98148.2 L 116030.35 98148.2 L 116030.35 94743.4 L 117469.6 94743.4 L 117469.6 98148.2 L 120155.25 98148.2 L 120155.25 99530.45 L 117469.6 99530.45 L 117469.6 107215 Q 117469.6 108537.4 116535.75 108830 Q 115757.7 109102.65 112858.3 109102.65 Q 112760.45 108421.5 112352.9 107643.45 Q 113754.15 107682.4 115505 107682.4 Q 116030.35 107662.45 116030.35 107215 L 116030.35 99530.45 Z M 110622 101066.6 Q 112703.45 103615.45 113403.6 104860.9 L 112179.05 105600.95 Q 111206.25 103792.15 109474.4 101690.75 L 110622 101067.55 L 110622 101066.6 Z M 106517.05 99257.8 Q 105621.2 97740.65 103656.6 95930.9 L 104765.25 95190.85 Q 106847.65 97098.45 107703.6 98420.85 L 106517.05 99257.8 Z M 107178.25 108441.45 Q 107315.05 108518.4 107781.5 108868 Q 108248.9 109199.55 108618.45 109432.3 Q 110115.65 110366.15 113676.25 110366.15 Q 117159.9 110366.15 120739.5 109996.6 Q 120330.05 110833.55 120292.05 111552.7 Q 117529.45 111747.45 113638.25 111747.45 Q 109960.8 111747.45 108287.85 110676.8 Q 106478.1 109529.2 106420.15 109529.2 Q 105701 109529.2 103851.35 111999.2 L 102840.55 110637.85 Q 104532.5 108809.1 105758.95 108342.65 L 105758.95 103283.9 L 103092.3 103283.9 L 103092.3 101922.55 L 107178.25 101922.55 L 107178.25 108440.5 L 107178.25 108441.45 Z M 132938.45 97429.05 L 129416.8 97429.05 L 129416.8 100093.8 L 132938.45 100093.8 L 132938.45 97429.05 Z M 134357.75 97429.05 L 134357.75 100093.8 L 138949.1 100093.8 L 138949.1 110600.8 Q 138949.1 111904.2 138074.15 112195.85 Q 137353.1 112449.5 134492.65 112449.5 Q 134337.8 111632.5 133968.25 110990.3 Q 135816 111088.15 137042.45 111028.3 Q 137528.85 111009.3 137528.85 110561.85 L 137528.85 101456.1 L 134337.8 101456.1 Q 134258.95 102526.75 134142.1 103382.7 Q 136418.3 105989.5 137293.25 107565.55 L 136418.3 108675.15 Q 135582.3 107137.1 133792.5 104958.75 Q 133071.45 107760.3 131145.8 109686.9 Q 130678.4 109044.7 130113.15 108675.15 Q 132700.95 106262.15 132914.7 101456.1 L 129393.05 101456.1 Q 129316.1 102565.7 129199.25 103440.65 Q 130658.45 105191.5 131202.8 106203.25 L 130346.85 107350.85 Q 129840.5 106340.05 128829.7 105055.65 Q 128108.65 107799.25 126202 109686.9 Q 125813.45 109102.65 125210.2 108674.2 Q 127759.05 106261.2 127972.8 101455.15 L 124956.55 101455.15 L 124956.55 112448.55 L 123536.3 112448.55 L 123536.3 100093.8 L 127990.85 100093.8 L 127990.85 97429.05 L 122719.3 97429.05 L 122719.3 96027.8 L 139743.3 96027.8 L 139743.3 97429.05 L 134353.95 97429.05 L 134357.75 97429.05 Z M 156264.75 101183.45 L 149805.7 101183.45 L 149805.7 102779.45 L 156264.75 102779.45 L 156264.75 101183.45 Z M 156264.75 103791.2 L 149805.7 103791.2 L 149805.7 105425.2 L 156264.75 105425.2 L 156264.75 103791.2 Z M 156264.75 106436 L 149805.7 106436 L 149805.7 108070.95 L 156264.75 108070.95 L 156264.75 106436 Z M 151712.35 100074.8 Q 152042.95 99023.15 152140.8 98440.8 L 147044.05 98440.8 L 147044.05 97233.35 L 150332 97233.35 Q 149941.55 96318.5 149026.7 95093.95 L 150234.15 94587.6 Q 151244.95 95833.05 151635.4 96767.85 L 150623.65 97234.3 L 154203.25 97234.3 Q 155118.1 95988.85 155702.35 94685.45 L 157103.6 95094.9 Q 156110.85 96631.05 155684.3 97234.3 L 159321.85 97234.3 L 159321.85 98441.75 L 153757.7 98441.75 Q 153407.15 99316.7 153057.55 100075.75 L 157688.8 100075.75 L 157688.8 109161.55 L 148447.2 109161.55 L 148447.2 100075.75 L 151715.2 100075.75 L 151712.35 100074.8 Z M 145039.55 99374.65 Q 144183.6 97992.4 142295.95 96104.75 L 143385.6 95424.55 Q 145312.2 97194.4 146227.05 98576.65 L 145040.5 99374.65 L 145039.55 99374.65 Z M 146090.25 108965.85 Q 146304 109063.7 146732.45 109355.35 L 147568.45 109880.7 Q 149085.6 110697.7 152588.25 110697.7 Q 156537.4 110697.7 159592.6 110348.1 Q 159242.05 111184.1 159184.1 111787.35 Q 155741.3 111982.1 152569.25 111982.1 Q 148931.7 111982.1 147277.75 111028.3 Q 145506.95 109978.55 145390.1 109978.55 Q 144612.05 109978.55 142724.4 112196.8 L 141849.45 111029.25 Q 143522.4 109356.3 144689 108908.85 L 144689 102936.2 L 142003.35 102936.2 L 142003.35 101572.95 L 146089.3 101572.95 L 146089.3 108966.8 L 146090.25 108965.85 Z M 167549.8 95404.6 Q 166751.8 96825.8 165429.4 98323 Q 166751.8 100852.85 166751.8 105132.6 Q 166751.8 110231.25 165741 111670.5 Q 165292.6 112195.85 164592.45 112312.7 Q 163639.6 112487.5 162199.4 112429.55 Q 162160.45 111691.4 161771.9 111010.25 Q 163251.05 111127.1 164010.1 111029.25 Q 164457.55 110971.3 164690.3 110660.65 Q 165390.45 109745.8 165390.45 105114.55 Q 165390.45 104433.4 165371.45 104083.8 Q 163873.3 106262.15 162044.55 107683.35 Q 161539.15 106983.2 161071.75 106613.65 Q 163582.6 104998.65 165177.65 102001.4 Q 164944.9 100504.2 164439.5 99375.6 Q 163329.9 100484.25 162124.35 101399.1 Q 161812.75 100970.65 161131.6 100465.25 Q 162571.8 99453.5 163777.35 98131.1 Q 162902.4 96788.75 161501.15 95621.2 L 162493.9 94843.15 Q 163816.3 95932.8 164672.25 97119.35 Q 165664.05 95913.8 166287.25 94765.25 L 167551.7 95407.45 L 167549.8 95404.6 Z M 173911.95 105250.4 Q 175429.1 109589.05 179125.55 111125.2 Q 178543.2 111669.55 178152.75 112409.6 Q 174728.95 110736.65 173056 106475.9 Q 171673.75 110348.1 167413.95 112468.5 Q 167044.4 111865.25 166402.2 111339.9 Q 170954.6 109317.35 171927.4 105251.35 L 167472.85 105251.35 L 167472.85 103869.1 L 172200.05 103869.1 Q 172316.9 102798.45 172316.9 101262.3 L 172316.9 98810.35 L 168037.15 98810.35 L 168037.15 97449 L 172316.9 97449 L 172316.9 94686.4 L 173776.1 94686.4 L 173776.1 97449 L 178426.35 97449 L 178426.35 98810.35 L 173776.1 98810.35 L 173776.1 101262.3 Q 173776.1 102623.65 173640.25 103869.1 L 178815.85 103869.1 L 178815.85 105251.35 L 173912.9 105251.35 L 173911.95 105250.4 Z M 169749.05 99471.55 Q 170760.8 101534 171012.55 103129.05 L 169767.1 103498.6 Q 169455.5 101747.75 168540.65 99821.15 L 169748.1 99471.55 L 169749.05 99471.55 Z M 174924.65 103206.95 Q 175993.4 101203.4 176537.75 99353.75 L 177920 99782.2 Q 176849.35 102253.15 176111.2 103576.5 L 174924.65 103206.95 Z M 192298.25 97584.85 Q 192959.45 98537.7 193971.2 99354.7 Q 195080.8 98420.85 195761 97292.25 L 192531 97292.25 L 192298.25 97584.85 Z M 197492.85 96553.15 Q 196714.8 98556.7 195001.95 100053.9 Q 196616.95 101046.65 198348.8 101435.2 Q 197881.4 101882.65 197550.8 102524.85 Q 195644.15 101961.5 194029.15 100793.95 Q 192375.2 101980.5 190137.95 102641.7 Q 189826.35 101999.5 189437.8 101591.95 Q 191402.4 101105.55 193056.35 100015.9 Q 192337.2 99334.75 191597.15 98342.95 Q 191012.9 98927.2 190351.7 99432.6 Q 190040.1 98965.2 189534.7 98459.8 Q 191752.95 96942.65 192823.6 94608.5 L 193971.2 94939.1 Q 193757.45 95502.45 193290.05 96221.6 L 196422.2 96221.6 L 196675.85 96163.65 L 197492.85 96554.1 L 197492.85 96553.15 Z M 193310 110210.35 L 193310 108440.5 L 189788.35 108440.5 L 189788.35 107388.85 L 193310 107388.85 L 193310 106143.4 L 190527.45 106143.4 L 190527.45 105151.6 L 193310 105151.6 L 193310 104061.95 L 190156.95 104061.95 L 190156.95 103029.3 L 193310 103029.3 L 193310 101939.65 L 194632.4 101939.65 L 194632.4 103029.3 L 197550.8 103029.3 L 197550.8 104061.95 L 194632.4 104061.95 L 194632.4 105151.6 L 197084.35 105151.6 L 197084.35 106143.4 L 194632.4 106143.4 L 194632.4 107388.85 L 197901.35 107388.85 L 197901.35 108440.5 L 194632.4 108440.5 L 194632.4 110210.35 L 193310 110210.35 Z M 187939.65 99782.2 Q 187511.2 98206.15 186519.4 95794.1 L 187629 95424.55 Q 188620.8 97700.75 189126.2 99315.75 L 187939.65 99782.2 Z M 186480.45 104880.85 Q 186461.45 105269.4 186461.45 106086.4 Q 181714.3 107040.2 181208.9 107331.85 Q 180995.15 106612.7 180762.4 106068.35 Q 181228.85 105970.5 182065.8 104822.9 Q 182784.95 103927.05 183738.75 102254.1 Q 181402.7 102565.7 181072.1 102740.5 Q 180858.35 101981.45 180606.6 101418.1 Q 180976.15 101320.25 181617.4 100191.65 Q 183038.6 97720.7 183855.6 94685.45 L 185235.95 95269.7 Q 184030.4 98616.55 182435.35 101223.35 L 184476.9 100990.6 Q 185255.9 99492.45 185507.65 98889.2 L 186694.2 99550.4 Q 184827.45 103208.85 183017.7 105524 L 186480.45 104881.8 L 186480.45 104880.85 Z M 186812 109296.45 Q 181753.25 110931.4 181072.1 111164.15 L 180741.5 109762.9 Q 182842.9 109257.5 186578.3 108147.9 L 186812.95 109295.5 L 186812 109296.45 Z M 189126.2 109141.6 Q 189301.95 109237.55 189651.55 109510.2 Q 190061 109860.75 190293.75 110016.55 Q 191499.3 110833.55 193873.35 110833.55 Q 196461.15 110833.55 198485.6 110560.9 Q 198212 111319.95 198174 111942.2 Q 196111.55 112098 193834.4 112098 Q 191462.25 112098 190041.05 111145.15 Q 188737.65 110133.4 188543.85 110133.4 Q 187920.65 110133.4 186519.4 112311.75 L 185721.4 111125.2 Q 186966.85 109589.05 187881.7 109141.6 L 187881.7 102856.4 L 186149.85 102856.4 L 186149.85 101631.85 L 189126.2 101631.85 L 189126.2 109141.6 Z M 209885.6 97544.95 Q 209885.6 101047.6 206967.2 102739.55 Q 206694.55 102272.15 206033.35 101668.9 Q 208523.3 100288.55 208523.3 97506 L 208523.3 95366.6 L 214652.7 95366.6 L 214652.7 99861.05 Q 214652.7 100599.2 215022.25 100599.2 L 216519.45 100599.2 Q 217063.8 100599.2 217492.25 100503.25 Q 217531.2 101339.25 217608.15 101748.7 Q 217297.5 101846.55 216557.45 101846.55 L 214923.45 101846.55 Q 213950.65 101846.55 213600.1 101379.15 Q 213269.5 100969.7 213269.5 99841.1 L 213269.5 96728.9 L 209883.7 96728.9 L 209883.7 97545.9 L 209885.6 97544.95 Z M 204341.4 105132.6 L 204341.4 110600.8 Q 204341.4 111709.45 203622.25 112021.05 Q 203057 112293.7 200994.55 112293.7 Q 200917.6 111749.35 200548.05 110951.35 Q 201014.5 110970.35 202552.55 110970.35 Q 202922.1 110970.35 202922.1 110601.75 L 202922.1 105581.95 L 200470.15 106301.1 L 200041.7 104899.85 Q 201112.35 104646.2 202922.1 104121.8 L 202922.1 99938 L 200276.35 99938 L 200276.35 98576.65 L 202922.1 98576.65 L 202922.1 94685.45 L 204342.35 94685.45 L 204342.35 98576.65 L 206755.35 98576.65 L 206755.35 99938 L 204342.35 99938 L 204342.35 103731.35 L 206151.15 103206.95 L 206345.9 104529.35 L 204342.35 105132.6 L 204341.4 105132.6 Z M 208602.15 104569.25 Q 209593.95 106612.7 211558.55 108285.65 Q 213621.95 106650.7 214594.75 104569.25 L 208602.15 104569.25 Z M 216540.35 103577.45 Q 215430.75 106884.4 212745.1 109141.6 Q 214963.35 110521.95 217901.7 111145.15 Q 217395.35 111631.55 216987.8 112467.55 Q 213815.75 111689.5 211539.55 110035.55 Q 209205.4 111631.55 205839.55 112486.55 Q 205566.9 111669.55 205118.5 111164.15 Q 208075.85 110521.95 210371.05 109101.7 Q 208367.5 107253.95 207200.9 104646.2 L 207394.7 104569.25 L 206635.65 104569.25 L 206635.65 103207.9 L 215332.9 103207.9 L 215605.55 103149.95 L 216540.35 103578.4 L 216540.35 103577.45 Z M 225898.8 109102.65 L 229945.8 108343.6 L 230041.75 109608.05 Q 221986.7 111146.1 220372.65 111476.7 L 220061.05 110115.35 L 224515.6 109336.35 L 224515.6 106068.35 L 220722.25 106068.35 L 220722.25 104783.95 L 224515.6 104783.95 L 224515.6 102682.55 L 225897.85 102682.55 L 225897.85 104783.95 L 229769.1 104783.95 L 229769.1 106068.35 L 225897.85 106068.35 L 225897.85 109103.6 L 225898.8 109102.65 Z M 220217.8 95948.95 L 230159.55 95948.95 L 230159.55 97233.35 L 224905.1 97233.35 Q 223836.35 99295.8 222668.8 100852.85 L 227630.65 100424.4 Q 227027.4 99530.45 226190.45 98499.7 L 227221.2 97876.5 Q 229322.6 100387.35 230159.55 102040.35 L 229049.95 102759.5 Q 228777.3 102177.15 228367.85 101553.95 Q 221637.1 102196.15 221150.7 102428.9 Q 220975.9 101728.75 220664.3 101067.55 Q 221033.85 100990.6 221597.2 100211.6 Q 222472.15 99045 223290.1 97235.25 L 220215.9 97235.25 L 220215.9 95950.85 L 220217.8 95948.95 Z M 232591.55 108051 L 231228.3 108051 L 231228.3 96358.4 L 232591.55 96358.4 L 232591.55 108051 Z M 236462.8 94997.05 L 236462.8 110173.3 Q 236462.8 111456.75 235664.8 111749.35 Q 234965.6 112022 232629.55 112022 Q 232533.6 111360.8 232105.15 110601.75 Q 233913.95 110659.7 234633.1 110620.75 Q 235042.55 110601.75 235042.55 110192.3 L 235042.55 94997.05 L 236462.8 94997.05 Z M 242378.45 96863.8 L 242378.45 98848.35 L 254052.05 98848.35 L 254052.05 96863.8 L 242378.45 96863.8 Z M 242378.45 100112.8 L 242378.45 102000.45 Q 242378.45 109160.6 240179.2 112486.55 Q 239594.95 111981.15 238933.75 111689.5 Q 240937.3 108673.25 240937.3 101999.5 L 240937.3 95599.35 L 255548.3 95599.35 L 255548.3 100112.8 L 242377.5 100112.8 L 242378.45 100112.8 Z M 246171.8 102662.6 Q 245666.4 101669.85 245043.2 100736 L 246346.6 100326.55 Q 247046.75 101299.35 247514.15 102155.3 L 246171.8 102661.65 L 246171.8 102662.6 Z M 251464.25 106670.65 L 251464.25 104004 L 247612 104004 L 247612 105930.6 Q 247612 106417 247592.05 106670.65 L 251464.25 106670.65 Z M 256599.95 107934.15 L 252883.55 107934.15 L 252883.55 112467.55 L 251463.3 112467.55 L 251463.3 107934.15 L 247435.3 107934.15 Q 246851.05 110950.4 243427.25 112486.55 Q 243019.7 111825.35 242473.45 111417.8 Q 245333.9 110172.35 245976.1 107934.15 L 242669.15 107934.15 L 242669.15 106669.7 L 246190.8 106669.7 Q 246210.75 106416.05 246210.75 105910.65 L 246210.75 104003.05 L 243174.55 104003.05 L 243174.55 102778.5 L 251307.5 102778.5 Q 252105.5 101494.1 252571.95 100267.65 L 254089.1 100696.1 Q 253388.95 101844.65 252708.75 102778.5 L 256034.7 102778.5 L 256034.7 104003.05 L 252883.55 104003.05 L 252883.55 106669.7 L 256599.95 106669.7 L 256599.95 107934.15 Z M 263468.45 97117.45 L 258896.1 97117.45 L 258896.1 95930.9 L 263468.45 95930.9 L 263468.45 94685.45 L 264869.7 94685.45 L 264869.7 95930.9 L 269869.55 95930.9 L 269869.55 94685.45 L 271290.75 94685.45 L 271290.75 95930.9 L 275941 95930.9 L 275941 97117.45 L 271290.75 97117.45 L 271290.75 98013.3 L 269869.55 98013.3 L 269869.55 97117.45 L 264869.7 97117.45 L 264869.7 98013.3 L 263468.45 98013.3 L 263468.45 97117.45 Z M 271872.15 107428.75 Q 270919.3 106786.55 270160.25 105930.6 L 264693 105930.6 Q 263875.05 106747.6 262941.2 107428.75 L 266638.6 107428.75 L 266638.6 106300.15 L 268058.85 106300.15 L 268058.85 107428.75 L 271871.2 107428.75 L 271872.15 107428.75 Z M 262476.65 102779.45 L 272496.3 102779.45 L 272496.3 101495.05 L 262476.65 101495.05 L 262476.65 102779.45 Z M 262476.65 100580.2 L 272496.3 100580.2 L 272496.3 99315.75 L 262476.65 99315.75 L 262476.65 100580.2 Z M 271718.25 105930.6 Q 273721.8 107545.6 276426.45 108245.75 Q 275882.1 108713.15 275570.5 109335.4 Q 274286.1 108927.85 273196.45 108285.65 L 273196.45 110580.85 Q 273196.45 111476.7 272593.2 111749.35 Q 272125.8 111924.15 270180.2 111924.15 Q 270103.25 111437.75 269772.65 110814.55 Q 271056.1 110874.4 271523.5 110835.45 Q 271796.15 110815.5 271796.15 110563.75 L 271796.15 108579.2 L 268060.75 108579.2 L 268060.75 112412.45 L 266640.5 112412.45 L 266640.5 108579.2 L 263215.75 108579.2 L 263215.75 111984 L 261835.4 111984 L 261835.4 108150.75 Q 260725.8 108811.95 259305.55 109396.2 Q 259072.8 108851.85 258488.55 108326.5 Q 260997.5 107411.65 262826.25 105933.45 L 258779.25 105933.45 L 258779.25 104766.85 L 264031.8 104766.85 Q 264518.2 104182.6 264829.8 103715.2 L 261094.4 103715.2 L 261094.4 98383.8 L 273915.6 98383.8 L 273915.6 103715.2 L 266405.85 103715.2 Q 266075.25 104299.45 265705.7 104766.85 L 276056.9 104766.85 L 276056.9 105933.45 L 271718.25 105933.45 L 271718.25 105930.6 Z M 295551.85 110075.45 L 295551.85 111514.7 L 278216.25 111514.7 L 278216.25 110075.45 L 285473.3 110075.45 L 285473.3 94977.1 L 286990.45 94977.1 L 286990.45 100931.7 L 294228.5 100931.7 L 294228.5 102370.95 L 286990.45 102370.95 L 286990.45 110076.4 L 295551.85 110076.4 L 295551.85 110075.45 Z M 299228.35 112000.15 Q 301542.55 111047.3 301679.35 109140.65 Q 301562.5 109159.65 301348.75 109159.65 Q 300725.55 109159.65 300318 108809.1 Q 299889.55 108440.5 299889.55 107778.35 Q 299889.55 107117.15 300337 106728.6 Q 300746.45 106378.05 301368.7 106378.05 Q 303022.65 106378.05 303022.65 108616.25 Q 303022.65 111846.25 299656.8 113032.8 L 299228.35 112000.15 Z M 332906.8 99044.05 Q 332322.55 97680.8 330961.2 96144.65 L 331934 95600.3 Q 333335.25 97078.5 333938.5 98401.85 L 332907.75 99044.05 L 332906.8 99044.05 Z M 325999.35 98361.95 L 317167.2 98361.95 L 317167.2 97077.55 L 321310.15 97077.55 Q 321154.35 96572.15 320435.2 94957.15 L 321757.6 94665.5 Q 322457.75 95987.9 322789.3 97077.55 L 325999.35 97077.55 L 325999.35 98361.95 Z M 320085.6 105872.65 Q 319423.45 108752.1 318140 110580.85 Q 317672.6 110231.25 317088.35 109880.7 Q 318293.9 108285.65 318878.15 105619 L 320085.6 105872.65 Z M 319481.4 103421.65 L 323859 103421.65 L 323859 101085.6 L 319481.4 101085.6 L 319481.4 103421.65 Z M 322438.75 104588.25 L 322438.75 110892.45 Q 322438.75 111826.3 321854.5 112098.95 Q 321310.15 112352.6 319753.1 112313.65 Q 319695.15 111788.3 319345.55 111127.1 Q 320532.1 111166.05 320862.7 111127.1 Q 321135.35 111127.1 321135.35 110875.35 L 321135.35 104590.15 L 318216.95 104590.15 L 318216.95 99901.9 L 325201.35 99901.9 L 325201.35 104590.15 L 322438.75 104590.15 L 322438.75 104588.25 Z M 324599.05 109296.45 Q 324287.45 107799.25 323216.8 105872.65 L 324249.45 105405.25 Q 325377.1 107312.85 325688.7 108791.05 L 324599.05 109296.45 Z M 329988.4 101008.65 Q 329267.35 109121.65 325610.8 112468.5 Q 325222.25 111963.1 324560.1 111593.55 Q 328062.75 108558.3 328666 101008.65 L 326176.05 101008.65 L 326176.05 99705.25 L 328763.85 99705.25 Q 328842.7 98459.8 328880.7 94724.4 L 330242.05 94724.4 Q 330204.05 98361.95 330106.2 99704.3 L 334541.75 99704.3 L 334541.75 101007.7 L 329989.35 101007.7 L 329988.4 101008.65 Z M 332789.95 110873.45 Q 333237.4 110873.45 333354.25 110775.6 Q 333587 110677.75 333644.95 110249.3 Q 333704.8 109860.75 333742.8 108147.9 Q 334171.25 108557.35 334871.4 108732.15 Q 334832.45 110445 334657.65 111027.35 Q 334501.85 111573.6 334054.4 111786.4 Q 333684.85 111981.15 332944.8 111981.15 L 331699.35 111981.15 Q 330902.3 111981.15 330492.85 111650.55 Q 330045.4 111319.95 330045.4 109879.75 L 330045.4 102544.8 L 331329.8 102544.8 L 331329.8 110035.55 Q 331329.8 110677.75 331484.65 110775.6 Q 331679.4 110873.45 331952.05 110873.45 L 332789 110873.45 L 332789.95 110873.45 Z M 26026.4 133168.85 L 42000.65 133168.85 L 42000.65 134570.1 L 33518.1 134570.1 Q 31474.65 137274.75 29549 138985.7 L 38381.15 138324.5 Q 37331.4 137098.05 36123.95 135989.4 L 37350.4 135328.2 Q 40385.65 138070.85 41767.9 140406.9 L 40483.5 141203.95 Q 40016.1 140406.9 39412.85 139608.9 Q 28011.9 140542.75 27331.7 140796.4 Q 26981.15 139648.8 26845.3 139298.25 Q 27331.7 139200.4 28284.55 138285.55 Q 29666.8 137137.95 31554.45 134570.1 L 26028.3 134570.1 L 26028.3 133168.85 L 26026.4 133168.85 Z M 35404.8 124062.15 Q 35151.15 124392.75 34840.5 124841.15 Q 38166.45 128245.95 42894.6 129860 Q 42329.35 130346.4 41881.9 131144.4 Q 37465.35 129354.6 34002.6 125813.95 Q 32173.85 127817.5 29625 129451.5 L 38612.95 129451.5 L 38612.95 130793.85 L 29371.35 130793.85 L 29371.35 129607.3 Q 27795.3 130599.1 26161.3 131339.15 Q 25713.85 130620 25110.6 130113.65 Q 31373.95 127428 34019.7 123459.85 L 35401.95 124063.1 L 35404.8 124062.15 Z M 61437.65 124334.8 Q 59336.25 127001.45 55892.5 128908.1 Q 55250.3 128168.05 54842.75 127895.4 Q 58227.6 126222.45 60096.25 123771.45 L 61438.6 124334.8 L 61437.65 124334.8 Z M 61982 129647.2 Q 59666.85 132526.65 56067.3 134549.2 Q 55522.95 133888 55056.5 133518.45 Q 58597.15 131728.65 60659.6 129082.9 L 61982.95 129648.15 L 61982 129647.2 Z M 51572.85 131008.55 L 51572.85 126007.75 L 48440.7 126007.75 L 48440.7 131008.55 L 51572.85 131008.55 Z M 52973.15 132351.85 L 52973.15 141203 L 51571.9 141203 L 51571.9 132351.85 L 48420.75 132351.85 Q 48283.95 138324.5 45541.3 141340.75 Q 45092.9 140737.5 44450.7 140367.95 Q 46921.65 137682.3 47058.45 132351.85 L 44547.6 132351.85 L 44547.6 131009.5 L 47077.45 131009.5 L 47077.45 126008.7 L 44840.2 126008.7 L 44840.2 124647.35 L 54800.95 124647.35 L 54800.95 126008.7 L 52972.2 126008.7 L 52972.2 131009.5 L 55092.6 131009.5 L 55092.6 132351.85 L 52972.2 132351.85 L 52973.15 132351.85 Z M 62448.45 134841.8 Q 59958.5 138946.75 55056.5 141203 Q 54608.1 140522.8 54044.75 140055.4 Q 58829.9 138070.85 61087.1 134316.45 L 62448.45 134841.8 Z M 77021.45 123536.8 Q 79297.65 124685.35 80503.2 125756 L 79609.25 126747.8 Q 78363.8 125600.2 76164.55 124413.65 L 77020.5 123536.8 L 77021.45 123536.8 Z M 80386.35 130035.75 Q 79121.9 133848.1 76962.55 136610.7 Q 78110.15 139626.95 79569.35 139626.95 Q 80290.4 139626.95 80484.2 136028.35 Q 81068.45 136610.7 81729.65 136805.45 Q 81535.85 139276.4 81049.45 140170.35 Q 80563.05 141066.2 79453.45 141066.2 Q 77313.1 141066.2 75892.85 137875.15 Q 74122.05 139800.8 71884.8 141105.15 Q 71359.45 140384.1 70835.05 139955.65 Q 73441.85 138554.4 75308.6 136357.05 Q 74297.8 133166 73888.35 128165.2 L 67176.6 128165.2 L 67176.6 130695.05 L 72138.45 130695.05 L 72138.45 131317.3 Q 72001.65 137213.95 71515.25 137817.2 Q 71145.7 138303.6 70348.65 138380.55 Q 69569.65 138438.5 68033.5 138380.55 Q 67994.55 137621.5 67625 137018.25 Q 68753.6 137116.1 69687.45 137116.1 Q 70135.85 137116.1 70271.7 136902.35 Q 70622.25 136532.8 70718.2 132038.35 L 67177.55 132038.35 L 67177.55 132194.15 Q 67177.55 138400.5 65134.1 141356.9 Q 64589.75 140734.65 63928.55 140384.1 Q 65699.35 137758.3 65699.35 132173.25 L 65699.35 126745.9 L 73812.35 126745.9 Q 73733.5 125675.25 73694.55 123476 L 75192.7 123476 Q 75192.7 125344.65 75271.55 126745.9 L 81555.8 126745.9 L 81555.8 128166.15 L 75368.45 128166.15 Q 75680.05 132232.15 76439.1 134917.8 Q 78035.1 132583.65 78929.05 129665.25 L 80388.25 130034.8 L 80386.35 130035.75 Z M 101185.65 131358.15 L 101185.65 132934.2 L 83519.45 132934.2 L 83519.45 131358.15 L 101185.65 131358.15 Z M 109083.95 135852.6 Q 107275.15 138265.6 104745.3 140055.4 Q 104005.25 139355.25 103480.85 139101.6 Q 106008.8 137584.45 107643.75 135347.2 L 109083 135852.6 L 109083.95 135852.6 Z M 112684.45 134101.75 L 112684.45 139296.35 Q 112684.45 140443.95 111867.45 140736.55 Q 111244.25 140988.3 108851.2 140988.3 Q 108774.25 140366.05 108306.85 139568.05 Q 109474.4 139607 110835.75 139607 Q 111224.3 139587.05 111224.3 139276.4 L 111224.3 134217.65 Q 105348.55 134646.1 104610.4 134937.75 Q 104492.6 134315.5 104162 133596.35 Q 104960 133498.5 106866.65 132544.7 Q 108132.05 131941.45 110622 130443.3 Q 106165.55 130715.95 105679.15 130910.7 Q 105427.4 130014.85 105251.65 129607.3 Q 105758 129568.35 106672.85 128828.3 Q 107956.3 128031.25 109863.9 126046.7 Q 107218.15 126279.45 104551.5 126396.3 Q 104493.55 125774.05 104182.9 125131.85 Q 113462.5 124626.45 117607.35 123595.7 L 118638.1 124782.25 Q 115875.5 125443.45 111867.45 125851 Q 109863.9 127952.4 107801.45 129431.55 L 112509.65 129196.9 Q 114201.6 128068.3 115602.85 126920.7 L 116711.5 127854.55 Q 112547.65 131026.6 107995.25 133204.95 L 116496.8 132660.6 Q 115991.4 132078.25 114941.65 131085.5 L 116031.3 130522.15 Q 118619.1 132778.4 119999.45 134802.85 L 118851.85 135503 Q 118346.45 134762.95 117490.5 133751.2 L 112684.45 134101.75 Z M 115543.95 135249.35 Q 118383.5 137331.75 120174.25 139219.4 L 118947.8 140094.35 Q 117351.8 138265.6 114395.4 135989.4 L 115543 135249.35 L 115543.95 135249.35 Z M 122762.05 124490.6 L 132568.9 124490.6 L 132568.9 125891.85 L 127335.35 125891.85 Q 127004.75 127293.1 126537.35 128810.25 L 130876.95 128810.25 L 131128.7 128752.3 L 132003.65 129024.95 Q 130681.25 138266.55 123969.5 141340.75 Q 123657.9 140640.6 123094.55 140115.25 Q 126089.9 138928.7 127996.55 136166.1 Q 126693.15 134960.55 125059.15 133850.95 L 125876.15 132780.3 Q 127589 133870.9 128755.6 134939.65 Q 129904.15 132858.2 130448.5 130153.55 L 126031.95 130153.55 Q 125001.2 132760.35 123716.8 134336.4 Q 123211.4 133792.05 122588.2 133384.5 Q 124747.55 130873.65 125895.15 125892.8 L 122763 125892.8 L 122763 124491.55 L 122762.05 124490.6 Z M 135389.45 136514.75 L 133969.2 136514.75 L 133969.2 125716.1 L 135389.45 125716.1 L 135389.45 136514.75 Z M 139396.55 123536.8 L 139396.55 139336.25 Q 139396.55 140522.8 138598.55 140872.4 Q 137995.3 141145.05 135642.15 141145.05 Q 135544.3 140541.8 135155.75 139743.8 Q 136226.4 139763.75 137529.8 139763.75 Q 137958.25 139743.8 137958.25 139336.25 L 137958.25 123536.8 L 139397.5 123536.8 L 139396.55 123536.8 Z M 143929.95 125968.8 L 143929.95 129647.2 L 147102 129647.2 L 147102 125968.8 L 143929.95 125968.8 Z M 147102 134821.85 L 147102 130969.6 L 143929.95 130969.6 L 143929.95 134821.85 L 147102 134821.85 Z M 143929.95 136164.2 L 143929.95 137954 L 142568.6 137954 L 142568.6 124646.4 L 148463.35 124646.4 L 148463.35 136164.2 L 143929.95 136164.2 Z M 157354.4 133693.25 L 157354.4 130288.45 L 152217.75 130288.45 L 152217.75 131165.3 Q 152217.75 132643.5 152100.9 133693.25 L 157353.45 133693.25 L 157354.4 133693.25 Z M 152217.75 125638.2 L 152217.75 128966.05 L 157354.4 128966.05 L 157354.4 125638.2 L 152217.75 125638.2 Z M 158775.6 139315.35 Q 158775.6 140560.8 157958.6 140911.35 Q 157218.55 141184 154591.8 141184 Q 154495.85 140502.85 154086.4 139764.7 Q 154709.6 139783.7 156887.95 139783.7 Q 157354.4 139764.7 157354.4 139316.3 L 157354.4 135017.55 L 151908.05 135017.55 Q 151187 139102.55 148444.35 141321.75 Q 148015.9 140737.5 147373.7 140367.95 Q 150797.5 137566.4 150797.5 131166.25 L 150797.5 124277.8 L 158774.65 124277.8 L 158774.65 139317.25 L 158775.6 139315.35 Z M 165721.05 140814.45 Q 163814.4 138421.4 161421.35 136475.8 L 162685.8 135366.2 Q 164864.15 137118 167044.4 139685.85 L 165721.05 140814.45 Z M 197862.4 127001.45 L 187784.8 127001.45 L 187784.8 125717.05 L 192337.2 125717.05 Q 191986.65 124549.5 191637.05 123771.45 L 192959.45 123440.85 Q 193562.7 124665.4 193835.35 125717.05 L 197863.35 125717.05 L 197863.35 127001.45 L 197862.4 127001.45 Z M 182707.05 126222.45 L 182707.05 130483.2 L 185274.9 130483.2 L 185274.9 126222.45 L 182707.05 126222.45 Z M 185273.95 136281.05 L 185273.95 131805.6 L 182706.1 131805.6 L 182706.1 136281.05 L 185273.95 136281.05 Z M 186558.35 137604.4 L 182706.1 137604.4 L 182706.1 139121.55 L 181440.7 139121.55 L 181440.7 124879.15 L 186558.35 124879.15 L 186558.35 137604.4 Z M 189885.25 134062.8 L 189885.25 135989.4 L 195877.85 135989.4 L 195877.85 134062.8 L 189885.25 134062.8 Z M 195877.85 139140.55 L 195877.85 137137 L 189885.25 137137 L 189885.25 139140.55 L 195877.85 139140.55 Z M 188543.85 132857.25 L 197260.1 132857.25 L 197260.1 141165 L 195877.85 141165 L 195877.85 140386 L 189885.25 140386 L 189885.25 141203 L 188543.85 141203 L 188543.85 132857.25 Z M 198465.65 130094.65 L 198465.65 131379.05 L 187239.5 131379.05 L 187239.5 130094.65 L 190041.05 130094.65 Q 189847.25 129198.8 189185.1 127447.95 L 190392.55 127097.4 Q 191053.75 128556.6 191365.35 129822 L 190509.4 130094.65 L 194146.95 130094.65 Q 194731.2 128791.25 195198.6 127118.3 L 196676.8 127409.95 Q 196113.45 128792.2 195471.25 130095.6 L 198466.6 130095.6 L 198465.65 130094.65 Z M 217376.35 127545.8 L 200682.95 127545.8 L 200682.95 126124.6 L 208757.95 126124.6 Q 208407.4 125249.65 207473.55 123732.5 L 208815.9 123265.1 Q 209807.7 124666.35 210255.15 125775.95 L 209380.2 126125.55 L 217376.35 126125.55 L 217376.35 127546.75 L 217376.35 127545.8 Z M 212454.4 128109.15 Q 215878.2 130443.3 217455.2 132311.95 L 216268.65 133245.8 Q 214653.65 131202.35 211344.8 128946.1 L 212454.4 128109.15 Z M 206929.2 128693.4 Q 204963.65 131183.35 201870.45 133186.9 Q 201326.1 132544.7 200762.75 132097.25 Q 203777.1 130384.4 205547.9 128147.15 L 206930.15 128691.5 L 206929.2 128693.4 Z M 213446.2 131825.55 Q 212259.65 134762.95 210197.2 136747.5 Q 213252.4 139062.65 217881.75 139781.8 Q 217357.35 140307.15 216987.8 141085.2 Q 212142.8 140151.35 209107.55 137680.4 Q 206208.15 139976.55 201169.35 141260 Q 200857.75 140559.85 200294.4 139956.6 Q 205158.4 138945.8 208057.8 136727.55 Q 206112.2 134839.9 204904.75 131921.5 L 206189.15 131531.05 Q 207180.95 134022.9 209107.55 135831.7 Q 211034.15 134002.95 211968 131415.15 L 213446.2 131824.6 L 213446.2 131825.55 Z M 226734.8 132545.65 Q 225936.8 131805.6 224030.15 130406.25 Q 222999.4 132351.85 220646.25 133674.25 Q 220120.9 132993.1 219692.45 132682.45 Q 222260.3 131398.05 223097.25 129198.8 L 220023.05 129198.8 L 220023.05 128012.25 L 223427.85 128012.25 Q 223564.65 127312.1 223564.65 126320.3 L 220607.3 126320.3 L 220607.3 125152.75 L 223564.65 125152.75 L 223564.65 123441.8 L 224945 123441.8 L 224945 125152.75 L 227532.8 125152.75 L 227532.8 126320.3 L 224945 126320.3 Q 224945 127195.25 224809.15 128012.25 L 227863.4 128012.25 L 227863.4 129198.8 L 224537.45 129198.8 L 224517.5 129256.75 Q 226697.75 130715.95 227650.6 131571.9 L 226735.75 132544.7 L 226734.8 132545.65 Z M 223855.35 134276.55 L 223855.35 136145.2 L 233096.95 136145.2 L 233096.95 134276.55 L 223855.35 134276.55 Z M 233096.95 139257.4 L 233096.95 137273.8 L 223855.35 137273.8 L 223855.35 139257.4 L 233096.95 139257.4 Z M 222455.05 133032.05 L 234538.1 133032.05 L 234538.1 141145.05 L 233097.9 141145.05 L 233097.9 140502.85 L 223856.3 140502.85 L 223856.3 141223.9 L 222455.05 141223.9 L 222455.05 133032.05 Z M 233758.15 129198.8 Q 235061.55 131532.95 237493.55 132409.8 Q 236930.2 132817.35 236579.65 133498.5 Q 234030.8 132388.9 232629.55 129665.25 Q 231656.75 131746.7 228973 133012.1 Q 228622.45 132446.85 228078.1 131980.4 Q 230471.15 131007.6 231367 129197.85 L 228604.4 129197.85 L 228604.4 128011.3 L 231736.55 128011.3 Q 231872.4 127389.05 231872.4 126514.1 L 231872.4 126319.35 L 228992.95 126319.35 L 228992.95 125151.8 L 231872.4 125151.8 L 231872.4 123440.85 L 233273.65 123440.85 L 233273.65 125151.8 L 236405.8 125151.8 L 236405.8 126319.35 L 233273.65 126319.35 L 233273.65 126514.1 Q 233273.65 127252.25 233156.8 128011.3 L 236990.05 128011.3 L 236990.05 129197.85 L 233760.05 129197.85 L 233758.15 129198.8 Z M 245392.8 127856.45 L 241307.8 127856.45 L 241307.8 131923.4 L 245392.8 131923.4 L 245392.8 127856.45 Z M 245392.8 137877.05 L 245392.8 133206.85 L 241307.8 133206.85 L 241307.8 137877.05 L 245392.8 137877.05 Z M 244498.85 123692.6 Q 243642.9 126144.55 243487.1 126552.1 L 246717.1 126552.1 L 246717.1 139179.5 L 241308.75 139179.5 L 241308.75 140715.65 L 239985.4 140715.65 L 239985.4 126552.1 L 242165.65 126552.1 Q 242749.9 124664.45 242943.7 123400 L 244500.75 123691.65 L 244498.85 123692.6 Z M 256230.4 127234.2 Q 255820.95 138907.8 254887.1 140055.4 Q 254342.75 140736.55 253350.95 140834.4 Q 252552.95 140930.35 250470.55 140813.5 Q 250393.6 140015.5 249984.15 139393.25 Q 251249.55 139510.1 252864.55 139510.1 Q 253427.9 139510.1 253660.65 139218.45 Q 254497.6 138322.6 254847.2 127835.55 L 249906.25 127835.55 Q 249010.4 129994.9 248076.55 131240.35 Q 247822.9 131007.6 246889.05 130423.35 Q 248795.7 127912.5 249866.35 123360.1 L 251248.6 123690.7 Q 250879.05 125207.85 250411.65 126492.25 L 256229.45 126492.25 L 256229.45 127232.3 L 256230.4 127234.2 Z M 251929.75 136008.4 Q 251035.8 134199.6 248973.35 131513.95 L 250101.95 130852.75 Q 252241.35 133576.4 253156.2 135249.35 L 251929.75 136008.4 Z M 264712.95 136689.55 Q 263000.1 138926.8 260588.05 140502.85 Q 260159.6 139880.6 259615.25 139471.15 Q 262047.25 138109.8 263564.4 136145.2 L 264712 136689.55 L 264712.95 136689.55 Z M 268117.75 135405.15 L 268117.75 139626.95 Q 268117.75 140638.7 267475.55 140930.35 Q 266950.2 141144.1 265122.4 141144.1 Q 265024.55 140521.85 264674 139879.65 Q 265395.05 139898.65 266386.85 139898.65 Q 266678.5 139879.65 266678.5 139607 L 266678.5 135404.2 L 260589.95 135404.2 L 260589.95 134139.75 L 266678.5 134139.75 L 266678.5 132077.3 L 268118.7 132077.3 L 268118.7 134139.75 L 274209.15 134139.75 L 274209.15 135404.2 L 268118.7 135404.2 L 268117.75 135405.15 Z M 270939.25 136125.25 Q 273410.2 138109.8 274636.65 139724.8 L 273546.05 140580.75 Q 272321.5 138809.95 269908.5 136864.35 L 270939.25 136124.3 L 270939.25 136125.25 Z M 264382.35 126573 Q 265587.9 127993.25 267456.55 129101.9 Q 269440.15 127935.3 270626.7 126476.1 L 264479.25 126476.1 L 264381.4 126573.95 L 264382.35 126573 Z M 272844.95 125756 Q 271503.55 128090.15 268836.9 129822 Q 272105.85 131319.2 276366.6 131825.55 Q 275782.35 132486.75 275509.7 133128.95 Q 270897.45 132467.75 267454.65 130639 Q 263991.9 132447.8 259107.95 133264.8 Q 258972.1 132682.45 258465.75 131982.3 Q 262629.6 131417.05 266132.25 129822 Q 264575.2 128751.35 263427.6 127447.95 Q 262007.35 128653.5 260236.55 129626.3 Q 259711.2 128907.15 259205.8 128576.55 Q 263252.8 126592 265081.55 123419.95 L 266657.6 123712.55 Q 266054.35 124646.4 265586.95 125209.75 L 271618.5 125209.75 L 271891.15 125151.8 L 272844 125756 L 272844.95 125756 Z M 284364.65 133557.4 Q 284304.8 134024.8 284364.65 134802.85 Q 278954.4 135873.5 278468 136184.15 Q 278332.15 135503.95 278040.5 134919.7 Q 278545.9 134783.85 279460.75 133693.25 Q 280160.9 132955.1 281522.25 130930.65 Q 278778.65 131300.2 278371.1 131513.95 Q 278254.25 130929.7 277903.7 130132.65 Q 278313.15 130053.8 278993.35 128964.15 Q 280531.4 126649 281600.15 123457.95 L 282942.5 124081.15 Q 281541.25 127426.1 279790.4 129994.9 L 282299.35 129703.25 Q 282883.6 128788.4 283351 127892.55 L 284498.6 128573.7 Q 282572 131841.7 280509.55 134254.7 L 284362.75 133554.55 L 284364.65 133557.4 Z M 284674.35 138148.75 L 281348.4 139082.6 Q 279382.85 139647.85 278372.05 139920.5 L 278099.4 138578.15 Q 280608.35 137993.9 284499.55 136944.15 L 284674.35 138149.7 L 284674.35 138148.75 Z M 287496.8 128614.55 Q 288274.85 132759.4 290064.65 135445.05 Q 291777.5 132934.2 292457.7 128614.55 L 287497.75 128614.55 L 287496.8 128614.55 Z M 293915.95 128614.55 Q 293079.95 133751.2 290959.55 136592.65 Q 293001.1 138888.8 296037.3 139801.75 Q 295550.9 140250.15 295102.5 141009.2 Q 292048.25 139957.55 290044.7 137681.35 Q 288020.25 139840.7 284421.65 141144.1 Q 283973.25 140424.95 283467.85 139919.55 Q 287126.3 138809.95 289167.85 136591.7 Q 287145.3 133712.25 286095.55 128613.6 L 284557.5 128613.6 L 284557.5 127214.25 L 290161.55 127214.25 Q 289558.3 125774.05 288157.05 123905.4 L 289381.6 123438.95 Q 290840.8 125286.7 291464 126726.9 L 290316.4 127213.3 L 295704.8 127213.3 L 295704.8 128612.65 L 293915 128612.65 L 293915.95 128614.55 Z M 302477.35 135833.6 Q 303352.3 136708.55 303352.3 137935 Q 303352.3 139161.45 302477.35 140036.4 Q 301621.4 140911.35 300375.95 140911.35 Q 299170.4 140911.35 298293.55 140036.4 Q 297418.6 139161.45 297418.6 137935 Q 297418.6 136708.55 298293.55 135833.6 Q 299170.4 134977.65 300375.95 134977.65 Q 301621.4 134977.65 302477.35 135833.6  Z M 301777.2 139336.25 Q 302340.55 138771 302340.55 137935 Q 302340.55 137118 301777.2 136552.75 Q 301192.95 135970.4 300375.95 135970.4 Q 299577.95 135970.4 298993.7 136552.75 Q 298409.45 137137 298409.45 137935 Q 298409.45 138752 298993.7 139336.25 Q 299577.95 139920.5 300375.95 139920.5 Q 301211.95 139920.5 301777.2 139336.25  Z " fill-rule="nonzero" style="fill:#ffffff;;fill-opacity:1;"/>
</svg>