<svg version="1.1" x="0" y="0" width="100%" height="100%" viewBox="0 0 391168 40550.4" xmlns="http://www.w3.org/2000/svg">
  <path d="M 4211.6 28750.4 L 8216 28750.4 L 8216 15306.8 L 5022.8 15306.8 L 5022.8 13881.2 Q 7258.4 13463.6 8757.2 12603.2 L 10476.8 12603.2 L 10476.8 28750.4 L 14090 28750.4 L 14090 30617.6 L 4211.6 30617.6 L 4211.6 28750.4 Z M 25790.8 19706 Q 25422.4 14028.8 21857.2 14028.8 Q 20555.2 14028.8 19696 15134 Q 18811.6 16289.6 18811.6 18108.8 Q 18811.6 19976 19622.8 21033.2 Q 20458 22113.2 22031.2 22113.2 Q 24095.2 22113.2 25790.8 19704.8 L 25790.8 19706 Z M 18270.4 27693.2 Q 19499.2 29069.6 21293.2 29069.6 Q 25594 29069.6 25814.8 21549.2 Q 24020.8 23786 21662.8 23786 Q 19352.8 23786 18050.8 22336.4 Q 16698.4 20861.6 16698.4 18110 Q 16698.4 15552.8 18221.2 13882.4 Q 19696 12260 21857.2 12260 Q 24560.8 12260 26183.2 14397.2 Q 27902.8 16683.2 27902.8 20836.4 Q 27902.8 25972.4 25912 28626.8 Q 24166 30936.8 21364 30936.8 Q 18809.2 30936.8 17039.2 29093.6 L 18268 27692 L 18270.4 27693.2 Z M 29895.6 28480.4 L 31027.2 27005.6 Q 32994 29069.6 35500.8 29069.6 Q 37122 29069.6 38130 28161.2 Q 39162 27252.8 39162 25727.6 Q 39162 22114.4 33559.2 22114.4 L 33559.2 20394.8 Q 38547.6 20394.8 38547.6 16954.4 Q 38547.6 15652.4 37736.4 14865.2 Q 36901.2 14103.2 35500.8 14054 Q 33484.8 14127.2 31765.2 15849.2 L 30560.4 14423.6 Q 32894.4 12260 35598 12260 Q 37932 12260 39357.6 13439.6 Q 40832.4 14668.4 40832.4 16781.6 Q 40832.4 19926.8 37611.6 21131.6 L 37611.6 21228.8 Q 39283.2 21622.4 40339.2 22778 Q 41446.8 24032 41446.8 25799.6 Q 41446.8 28160 39751.2 29585.6 Q 38152.8 30938 35671.2 30938 Q 32157.6 30938 29895.6 28480.4  Z M 43439.6 28553.6 L 44544.8 27078.8 Q 46535.6 29069.6 48969.2 29069.6 Q 50591.6 29069.6 51672.8 27940.4 Q 52802 26735.6 52802 24819.2 Q 52802 22902.8 51794 21797.6 Q 50787.2 20716.4 49067.6 20716.4 Q 47666 20716.4 46068.8 21772.4 L 44864 21036.8 L 45429.2 12606.8 L 54203.6 12606.8 L 54203.6 14523.2 L 47396 14523.2 L 46954.4 19734.8 Q 48231.2 19020.8 49632.8 19020.8 Q 52017.2 19020.8 53466.8 20397.2 Q 55064 21922.4 55064 24748.4 Q 55064 27599.6 53270 29319.2 Q 51574.4 30941.6 49166 30941.6 Q 45824 30941.6 43439.6 28557.2 L 43439.6 28553.6 Z M 68928.4 25112 L 68928.4 20246 L 63422.8 20246 L 63422.8 25112 L 68928.4 25112 Z M 79667.2 26882 L 70771.6 26882 L 70771.6 32511.2 L 68928.4 32511.2 L 68928.4 26882 L 57572.8 26882 L 57572.8 25112 L 61603.6 25112 L 61603.6 18526.4 L 68928.4 18526.4 L 68928.4 14790.8 L 62956 14790.8 Q 61285.6 17642 59220.4 19632.8 Q 58237.6 18772.4 57647.2 18478.4 Q 61333.6 15258.8 63176.8 9999.2 L 65020 10440.8 Q 64554.4 11621.6 63890.8 13022 L 78536.8 13022 L 78536.8 14792 L 70771.6 14792 L 70771.6 18527.6 L 77971.6 18527.6 L 77971.6 20247.2 L 70771.6 20247.2 L 70771.6 25113.2 L 79667.2 25113.2 L 79667.2 26883.2 L 79667.2 26882 Z M 97608.4 23735.6 L 95888.8 23735.6 L 95888.8 12185.6 L 102523.6 12185.6 Q 103014.4 11080.4 103358.8 9975.2 L 105349.6 10319.6 Q 105473.2 10023.2 104490.4 12186.8 L 112625.2 12186.8 L 112625.2 23736.8 L 110830 23736.8 L 110830 13734.8 L 97609.6 13734.8 L 97609.6 23736.8 L 97608.4 23735.6 Z M 103382.8 22581.2 L 103382.8 19805.6 Q 101466.4 22090.4 99305.2 23319.2 Q 98764 22631.6 98246.8 22214 Q 100410.4 21206 102180.4 19215.2 L 98665.6 19215.2 L 98665.6 17889.2 L 103384 17889.2 L 103384 14300 L 104982.4 14300 L 104982.4 17889.2 L 109724.8 17889.2 L 109724.8 19215.2 L 104982.4 19215.2 L 104982.4 22581.2 L 103384 22581.2 L 103382.8 22581.2 Z M 100507.6 14667.2 Q 101736.4 16289.6 102203.2 17150 L 100974.4 17764.4 Q 100163.2 16362.8 99328 15207.2 L 100507.6 14666 L 100507.6 14667.2 Z M 109085.2 15184.4 Q 107462.8 17321.6 107094.4 17739.2 L 106013.2 17198 Q 107168.8 15624.8 107683.6 14519.6 L 109085.2 15183.2 L 109085.2 15184.4 Z M 108912.4 22950.8 Q 107659.6 21869.6 105472 20493.2 L 106380.4 19608.8 Q 108911.2 21206 109822 21944 L 108911.2 22952 L 108912.4 22950.8 Z M 106210 26340.8 Q 108642.4 30126.8 115549.6 30838.4 Q 114762.4 31673.6 114442 32558 Q 106897.6 31428.8 104292.4 26340.8 Q 103308.4 28847.6 101047.6 30273.2 Q 98566 31846.4 93871.6 32534 Q 93601.6 31673.6 92987.2 30962 Q 100483.6 29954 102253.6 26340.8 L 93406 26340.8 L 93406 24743.6 L 102842.8 24743.6 Q 103015.6 24056 103163.2 23244.8 L 105079.6 23244.8 Q 104982.4 23956.4 104785.6 24743.6 L 115033.6 24743.6 L 115033.6 26340.8 L 106211.2 26340.8 L 106210 26340.8 Z M 122502.4 24767.6 Q 124642 23835.2 125305.6 23589.2 L 125674 25211.6 Q 124002.4 25997.6 118128.4 28602.8 L 117416.8 26784.8 Q 118769.2 26318 120784 25457.6 L 120784 17667.2 L 117638.8 17667.2 L 117638.8 15923.6 L 120784 15923.6 L 120784 10344.8 L 122503.6 10344.8 L 122503.6 15923.6 L 125380 15923.6 L 125380 17667.2 L 122503.6 17667.2 L 122503.6 24770 L 122502.4 24767.6 Z M 136658.8 30297.2 Q 137714.8 30297.2 138059.2 29609.6 Q 138379.6 28971.2 138503.2 26807.6 Q 139265.2 27348.8 140149.6 27521.6 Q 139928.8 30126.8 139289.2 30986 Q 138577.6 31944.8 136710.4 31944.8 L 130687.6 31944.8 Q 128574.4 31944.8 127838.8 31282.4 Q 127075.6 30594.8 127075.6 28652 L 127075.6 20910.8 L 125135.2 21722 L 124423.6 20148.8 L 127076.8 19017.2 L 127076.8 12332 L 128822.8 12332 L 128822.8 18279.2 L 132115.6 16878.8 L 132115.6 10047.2 L 133861.6 10047.2 L 133861.6 16166 L 137105.2 14789.6 L 137843.2 14175.2 L 139121.2 14666 L 139021.6 15010.4 Q 139021.6 23022.8 138776.8 24202.4 Q 138604 25528.4 137474.8 25824.8 Q 136787.2 25996.4 135164.8 25996.4 Q 134992 24915.2 134722 24424.4 Q 135312.4 24449.6 136369.6 24449.6 Q 136958.8 24449.6 137106.4 23810 Q 137279.2 22974.8 137279.2 16584.8 L 133862.8 18035.6 L 133862.8 27054.8 L 132116.8 27054.8 L 132116.8 18771.2 L 128824 20172.8 L 128824 28677.2 Q 128824 29660 129192.4 29980.4 Q 129562 30298.4 130741.6 30298.4 L 136664.8 30298.4 L 136658.8 30297.2 Z M 149488 17421.2 L 154526.8 17421.2 L 154526.8 19116.8 L 149488 19116.8 L 149488 19779.2 Q 150667.6 20884.4 154230.4 24449.6 L 153149.2 25948.4 Q 152314 24867.2 149488 21843.2 L 149488 32460.8 L 147668.8 32460.8 L 147668.8 21918.8 Q 145555.6 26537.6 143024.8 29118.8 Q 142704.4 28407.2 142016.8 27399.2 Q 145310.8 24327.2 147301.6 19118 L 142510 19118 L 142510 17422.4 L 147670 17422.4 L 147670 13242.8 Q 145826.8 13612.4 142951.6 14030 Q 142854.4 13391.6 142387.6 12580.4 Q 149514.4 11523.2 152537.2 10197.2 L 153889.6 11597.6 Q 152194 12261.2 149491.6 12899.6 L 149491.6 17422.4 L 149488 17421.2 Z M 158237.2 26440.4 L 156443.2 26440.4 L 156443.2 12972.8 L 158237.2 12972.8 L 158237.2 26440.4 Z M 163446.4 10342.4 L 163446.4 29954 Q 163446.4 31625.6 162341.2 32043.2 Q 161432.8 32411.6 157967.2 32411.6 Q 157673.2 31232 157303.6 30568.4 Q 158164 30593.6 161015.2 30593.6 Q 161653.6 30568.4 161653.6 29954 L 161653.6 10342.4 L 163447.6 10342.4 L 163446.4 10342.4 Z M 172883.2 23565.2 L 172883.2 32511.2 L 171188.8 32511.2 L 171188.8 24106.4 L 167132.8 25359.2 L 166642 23613.2 Q 169811.2 22754 171188.8 22311.2 L 171188.8 16830.8 L 168952 16830.8 Q 168461.2 19116.8 167870.8 20466.8 Q 166962.4 19852.4 166471.6 19655.6 Q 167600.8 17100.8 168166 11474 L 169764.4 11744 Q 169616.8 13020.8 169296.4 15060.8 L 171188.8 15060.8 L 171188.8 10072.4 L 172883.2 10072.4 L 172883.2 15060.8 L 175416.4 15060.8 L 175416.4 16830.8 L 172883.2 16830.8 L 172883.2 21843.2 L 175734.4 20960 L 175980.4 22581.2 L 172883.2 23565.2 Z M 188957.2 14176.4 Q 188957.2 14864 188933.2 15084.8 Q 188219.2 29561.6 186866.8 31256 Q 186252.4 32092.4 185171.2 32189.6 Q 184288 32313.2 182369.2 32189.6 Q 182321.2 31108.4 181854.4 30396.8 Q 183230.8 30520.4 184435.6 30520.4 Q 185000.8 30520.4 185345.2 30101.6 Q 186500.8 28824.8 187164.4 15873.2 L 185983.6 15873.2 Q 183772 27473.6 177972.4 32094.8 Q 177431.2 31480.4 176448.4 30987.2 Q 182125.6 26908.4 184410.4 15873.2 L 182395.6 15873.2 Q 180404.8 23492 176348.8 27005.6 Q 175807.6 26415.2 174899.2 25949.6 Q 178806.4 22901.6 180822.4 15873.2 L 178709.2 15873.2 Q 177407.2 18772.4 175908.4 20542.4 Q 175538.8 20174 174506.8 19486.4 Q 177431.2 16290.8 178807.6 10049.6 L 180479.2 10394 Q 180012.4 12408.8 179374 14178.8 L 187237.6 14178.8 L 187237.6 14154.8 L 188957.2 14178.8 L 188957.2 14176.4 Z M 199254.4 27422 L 191635.6 29979.2 L 191218 28136 Q 193037.2 27594.8 194510.8 27104 L 194510.8 20493.2 L 191708.8 20493.2 L 191708.8 18771.2 L 194510.8 18771.2 L 194510.8 13438.4 L 191464 13438.4 L 191464 11718.8 L 199081.6 11718.8 L 199081.6 13438.4 L 196255.6 13438.4 L 196255.6 18771.2 L 198737.2 18771.2 L 198737.2 20493.2 L 196255.6 20493.2 L 196255.6 26564 L 198934 25679.6 L 199254.4 27423.2 L 199254.4 27422 Z M 201956.8 20517.2 L 205692.4 20517.2 L 205692.4 17372 L 201956.8 17372 L 201956.8 20517.2 Z M 201956.8 15872 L 205692.4 15872 L 205692.4 12776 L 201956.8 12776 L 201956.8 15872 Z M 211025.2 12776 L 207265.6 12776 L 207265.6 15872 L 211025.2 15872 L 211025.2 12776 Z M 211025.2 17370.8 L 207265.6 17370.8 L 207265.6 20516 L 211025.2 20516 L 211025.2 17370.8 Z M 213926.8 30027.2 L 213926.8 31698.8 L 198100 31698.8 L 198100 30027.2 L 205570 30027.2 L 205570 26661.2 L 199992.4 26661.2 L 199992.4 24990.8 L 205570 24990.8 L 205570 22114.4 L 200286.4 22114.4 L 200286.4 11178.8 L 212771.2 11178.8 L 212771.2 22114.4 L 207413.2 22114.4 L 207413.2 24990.8 L 213139.6 24990.8 L 213139.6 26661.2 L 207413.2 26661.2 L 207413.2 30027.2 L 213926.8 30027.2 Z M 218618.8 18968 L 216875.2 18968 L 216875.2 14126 L 220930 14126 Q 220267.6 12725.6 218816.8 11006 L 220342 10292 Q 222036.4 12234.8 222676 13635.2 L 221741.2 14126 L 227123.2 14126 Q 226532.8 12332 225280 10464.8 L 226853.2 9874.4 Q 228376 11987.6 228842.8 13610 L 227590 14124.8 L 231596.8 14124.8 Q 233094.4 12257.6 234078.4 10217.6 L 235921.6 10857.2 Q 234766 12576.8 233537.2 14123.6 L 237544 14123.6 L 237544 18965.6 L 235748.8 18965.6 L 235748.8 15772.4 L 218618.8 15772.4 L 218618.8 18965.6 L 218618.8 18968 Z M 237985.6 25554.8 L 227983.6 25554.8 L 227983.6 30249.2 Q 227983.6 31772 226802.8 32140.4 Q 225844 32460.8 222281.2 32460.8 Q 222133.6 31870.4 221519.2 30690.8 Q 224591.2 30814.4 225526 30714.8 Q 226164.4 30690.8 226164.4 30224 L 226164.4 25554.8 L 216383.2 25554.8 L 216383.2 23859.2 L 226164.4 23859.2 L 226164.4 22089.2 Q 228277.6 21327.2 230414.8 19901.6 L 220487.2 19901.6 L 220487.2 18279.2 L 232505.2 18279.2 L 232849.6 18182 L 234054.4 19090.4 Q 231768.4 21179.6 227984.8 22875.2 L 227984.8 23858 L 237986.8 23858 L 237986.8 25553.6 L 237985.6 25554.8 Z M 243318.4 17273.6 L 241548.4 17273.6 L 241548.4 12234.8 L 250764.4 12234.8 Q 250322.8 11226.8 249856 10439.6 L 251723.2 9900.8 Q 252510.4 11104.4 252928 12236 L 261996.4 12236 L 261996.4 17274.8 L 260153.2 17274.8 L 260153.2 13932.8 L 243318.4 13932.8 L 243318.4 17274.8 L 243318.4 17273.6 Z M 260276.8 20000 Q 258654.4 21352.4 256490.8 22778 Q 258383.2 28184 263028.4 29979.2 Q 262316.8 30617.6 261850 31478 Q 257204.8 29388.8 255065.2 23686.4 Q 254524 24056 253909.6 24376.4 Q 254524 26685.2 254179.6 28798.4 Q 253835.2 30814.4 252803.2 31600.4 Q 251795.2 32460.8 250296.4 32460.8 Q 249757.6 32460.8 248184.4 32411.6 Q 248184.4 31552.4 247717.6 30692 Q 249191.2 30815.6 249929.2 30815.6 Q 250961.2 30815.6 251502.4 30298.4 Q 252830.8 29339.6 252461.2 26070.8 Q 248012.8 29463.2 241942 31330.4 Q 241621.6 30544.4 240983.2 29782.4 Q 247938.4 28184 252115.6 24376.4 Q 251795.2 23295.2 251450.8 22655.6 Q 247592.8 25310 242333.2 26932.4 Q 241866.4 26024 241399.6 25506.8 Q 247076.8 24154.4 250715.2 21426.8 Q 250272.4 20715.2 249534.4 19977.2 Q 246610 21623.6 242458 22877.6 Q 242113.6 22139.6 241450 21425.6 Q 246930.4 20123.6 250223.2 17862.8 L 244620.4 17862.8 L 244620.4 16265.6 L 258751.6 16265.6 L 258751.6 17862.8 L 252656.8 17862.8 Q 251894.8 18526.4 250910.8 19164.8 Q 252632.8 20884.4 253418.8 22924.4 Q 256490.8 20960 258776.8 18820.4 L 260275.6 20000 L 260276.8 20000 Z M 282295.6 13438.4 L 276569.2 13438.4 L 276569.2 11792 L 282295.6 11792 L 282295.6 10072.4 L 284089.6 10072.4 L 284089.6 11792 L 290479.6 11792 L 290479.6 10072.4 L 292273.6 10072.4 L 292273.6 11792 L 298196.8 11792 L 298196.8 13438.4 L 292273.6 13438.4 L 292273.6 15134 L 292397.2 15084.8 Q 292790.8 15748.4 293381.2 17076.8 L 297829.6 17076.8 L 297829.6 18674 L 286818.4 18674 L 286818.4 17076.8 L 291316 17076.8 Q 290923.6 16068.8 290653.6 15626 L 292226.8 15135.2 L 290480.8 15135.2 L 290480.8 13439.6 L 284090.8 13439.6 L 284090.8 15135.2 L 282296.8 15135.2 L 282296.8 13439.6 L 282295.6 13438.4 Z M 279101.2 26292.8 L 279101.2 29315.6 L 284336.8 29315.6 L 284336.8 26292.8 L 279101.2 26292.8 Z M 279101.2 18771.2 L 279101.2 21574.4 L 283598.8 21574.4 L 283598.8 18771.2 L 279101.2 18771.2 Z M 279101.2 24842 L 285959.2 24842 L 285959.2 31822.4 L 284336.8 31822.4 L 284336.8 30790.4 L 279101.2 30790.4 L 279101.2 32288 L 277406.8 32288 L 277406.8 17297.6 L 279961.6 17297.6 Q 280478.8 15921.2 280674.4 14986.4 L 282617.2 15280.4 L 281782 17296.4 L 285295.6 17296.4 L 285295.6 23022.8 L 279102.4 23022.8 L 279102.4 24840.8 L 279101.2 24842 Z M 293036.8 23786 L 293036.8 26415.2 L 297803.2 26415.2 L 297803.2 28013.6 L 293036.8 28013.6 L 293036.8 32511.2 L 291266.8 32511.2 L 291266.8 28013.6 L 286793.2 28013.6 L 286793.2 26415.2 L 291266.8 26415.2 L 291266.8 23786 L 286031.2 23786 L 286031.2 22163.6 L 289423.6 22163.6 Q 289103.2 20640.8 288242.8 19191.2 L 289619.2 18724.4 Q 290627.2 20346.8 290873.2 21696.8 L 289571.2 22163.6 L 293060.8 22163.6 Q 293945.2 20640.8 294656.8 18772.4 L 296303.2 19239.2 Q 295320.4 21182 294755.2 22164.8 L 298441.6 22164.8 L 298441.6 23787.2 L 293035.6 23787.2 L 293036.8 23786 Z M 303505.6 18156.8 L 301711.6 18156.8 L 301711.6 12824 L 311245.6 12824 Q 310778.8 11620.4 310116.4 10415.6 L 311886.4 9900.8 Q 312869.2 11571.2 313336 12824 L 322085.2 12824 L 322085.2 18156.8 L 320242 18156.8 L 320242 14570 L 303505.6 14570 L 303505.6 18156.8 Z M 312818.8 29979.2 Q 314417.2 30297.2 316849.6 30297.2 Q 321937.6 30297.2 323117.2 30249.2 Q 322626.4 31035.2 322429.6 32092.4 L 316752.4 32092.4 Q 312548.8 32092.4 310164.4 31133.6 Q 307314.4 29978 305741.2 27027.2 Q 304463.2 30518 302078.8 32582 Q 301440.4 31844 300604 31326.8 Q 304315.6 28476.8 305200 21324.8 L 307018 21521.6 Q 306821.2 23094.8 306452.8 24692 Q 307730.8 28254.8 310950.4 29483.6 L 310950.4 19335.2 L 304855.6 19335.2 L 304855.6 17589.2 L 319084 17589.2 L 319084 19335.2 L 312816.4 19335.2 L 312816.4 23339.6 L 320092 23339.6 L 320092 25061.6 L 312816.4 25061.6 L 312816.4 29976.8 L 312818.8 29979.2 Z M 345064 12431.6 L 342040 12431.6 L 342040 15773.6 L 345064 15773.6 L 345064 12431.6 Z M 346537.6 17198 L 340614.4 17198 L 340614.4 11006 L 346537.6 11006 L 346537.6 17198 Z M 333905.2 18723.2 L 345702.4 18723.2 L 345702.4 20246 L 333905.2 20246 L 333905.2 18723.2 Z M 337567.6 12431.6 L 334840 12431.6 L 334840 15773.6 L 337567.6 15773.6 L 337567.6 12431.6 Z M 339116.8 17198 L 333365.2 17198 L 333365.2 11006 L 339116.8 11006 L 339116.8 17198 Z M 330269.2 15381.2 Q 329334.4 14152.4 326753.2 11744 L 327934 10636.4 Q 330612.4 12996.8 331520.8 14102 L 330268 15380 L 330269.2 15381.2 Z M 333463.6 26414 Q 333733.6 27545.6 334003.6 27987.2 Q 329236 31526 328818.4 32067.2 Q 328448.8 31329.2 327810.4 30790.4 Q 329015.2 29709.2 329015.2 28258.4 L 329015.2 19386.8 L 325376.8 19386.8 L 325376.8 17692.4 L 330758.8 17692.4 L 330758.8 28308.8 L 333462.4 26416.4 L 333463.6 26414 Z M 338035.6 23613.2 L 337494.4 25529.6 L 345554.8 25529.6 L 345505.6 26316.8 Q 345088 30887.6 344227.6 31649.6 Q 343589.2 32264 342236.8 32288 Q 340541.2 32337.2 337838.8 32189.6 Q 337789.6 31378.4 337224.4 30592.4 Q 339337.6 30789.2 341622.4 30789.2 Q 342506.8 30789.2 342752.8 30567.2 Q 343294 30076.4 343612 27077.6 L 335134 27077.6 Q 335675.2 25652 336192.4 23612 L 332209.6 23612 L 332209.6 22038.8 L 347496.4 22038.8 L 347496.4 23612 L 338035.6 23612 L 338035.6 23613.2 Z " fill-rule="nonzero" style="fill:#ffffff;;fill-opacity:1;"/>
</svg>