<svg version="1.1" x="0" y="0" width="100%" height="100%" viewBox="0 0 266444.8 67840" xmlns="http://www.w3.org/2000/svg">
  <path d="M 9230 29610.1 L 6090.5 29610.1 L 6090.5 20924.5 L 22691 20924.5 Q 21785.9 18730 20540.6 16753.9 L 23680.1 15764.8 Q 25572.2 18688 26473.1 20924.5 L 41097.5 20924.5 L 41097.5 29610.1 L 37829.9 29610.1 L 37829.9 23933.8 L 9227.9 23933.8 L 9227.9 29610.1 L 9230 29610.1 Z M 18736.7 33096.1 Q 16628.3 30601.3 12455.6 28148.5 L 14389.7 26126.2 Q 18690.5 28492.9 20756.9 30817.6 L 18734.6 33096.1 L 18736.7 33096.1 Z M 10088.9 32623.6 Q 14734.1 35160.4 16798.4 37352.8 L 14864.3 39761.5 Q 12758 37399 8240.9 34776.1 L 10088.9 32625.7 L 10088.9 32623.6 Z M 26691.5 44965.3 Q 36326.3 48449.2 41918.6 52579.9 L 39984.5 55030.6 Q 34434.2 50815.9 25143.8 47287.9 L 26691.5 44967.4 L 26691.5 44965.3 Z M 42088.7 40964.8 L 42088.7 43762 L 24324.8 43762 Q 20542.7 52147.3 7512.2 55156.6 Q 6865.4 53566.9 5706.2 52405.6 Q 17060.9 49996.9 20630.9 43762 L 5275.7 43762 L 5275.7 40964.8 L 21918.2 40964.8 Q 23381.9 36622 23682.2 26086.3 L 26993.9 26086.3 Q 26691.5 36063.4 25316 40966.9 L 42088.7 40966.9 L 42088.7 40964.8 Z M 58216.7 45223.6 L 47206.4 48279.1 L 46603.7 45610 Q 47979.2 45309.7 57916.4 42772.9 L 58216.7 45223.6 Z M 62861.9 36019.3 Q 62861.9 36966.4 62819.9 37352.8 Q 61914.8 51760.9 60194.9 53566.9 Q 59161.7 54684.1 57355.7 54812.2 Q 55978.1 54940.3 52280 54770.2 Q 52109.9 53180.5 51379.1 52061.2 Q 53915.9 52321.6 56282.6 52321.6 Q 57357.8 52321.6 57788.3 51802.9 Q 59163.8 50427.4 59894.6 38642.2 L 48453.8 38642.2 Q 49316.9 32493.4 49789.4 23933.8 L 52542.5 24061.9 Q 52154 29654.2 51467.3 36019.3 L 56757.2 36019.3 Q 57616.1 29309.8 58176.8 20750.2 L 47981.3 20750.2 L 47981.3 17955.1 L 61100 17955.1 Q 60152.9 30683.2 59508.2 36017.2 L 62861.9 36017.2 L 62861.9 36019.3 Z M 76453.1 16665.7 L 75506 18599.8 Q 79976.9 25267.3 86772.5 29742.4 Q 85697.3 31117.9 85182.8 32707.6 Q 78773.6 27978.4 73958.3 21268.9 Q 69699.5 28192.6 63164.3 32793.7 Q 62301.2 31460.2 61270.1 30256.9 Q 69785.6 24794.8 73655.9 15720.7 L 76453.1 16667.8 L 76453.1 16665.7 Z M 80707.7 32062.9 L 67979.6 32062.9 L 67979.6 29309.8 L 80707.7 29309.8 L 80707.7 32062.9 Z M 74388.8 45610 Q 74128.4 41569.6 72666.8 35376.7 L 75203.6 35032.3 Q 76623.2 40794.7 77053.7 45223.6 L 74388.8 45610 Z M 67677.2 35849.2 Q 69743.6 41225.2 70516.4 45998.5 L 67893.5 46729.3 Q 67465.1 42598.6 65182.4 36449.8 L 67677.2 35847.1 L 67677.2 35849.2 Z M 85268.9 36363.7 Q 81524.6 45696.1 78987.8 50427.4 L 85567.1 50427.4 L 85567.1 53222.5 L 63804.8 53222.5 L 63804.8 50427.4 L 76234.7 50427.4 Q 79762.7 43801.9 82341.5 35586.7 L 85266.8 36361.6 L 85268.9 36363.7 Z M 105225.2 38169.7 Q 105139.1 39631.3 105397.4 40964.8 Q 92236.7 43331.5 90945.2 44020.3 Q 90600.8 42775 89870 40924.9 Q 91073.3 40666.6 93223.7 38171.8 Q 95115.8 36279.7 97780.7 32539.6 Q 91545.8 33228.4 90644.9 33700.9 Q 89828 31162 89525.6 30475.3 Q 90430.7 30301 91978.4 27980.5 Q 95420.3 22948.9 97740.8 16323.4 L 100966.4 17656.9 Q 97999.1 24496.6 94084.7 30130.9 L 99805.1 29612.2 Q 101268.8 27377.8 102514.1 25053.1 L 105395.3 26817.1 Q 100966.4 34043.2 95676.5 39761.5 L 105225.2 38171.8 L 105225.2 38169.7 Z M 89783.9 49652.5 Q 92364.8 49224.1 105309.2 46601.2 L 105569.6 49566.4 Q 100880.3 50641.6 90302.6 52924.3 L 89783.9 49654.6 L 89783.9 49652.5 Z M 110945.6 41827.9 L 110945.6 50557.6 L 123503.6 50557.6 L 123503.6 41827.9 L 110945.6 41827.9 Z M 107848.1 38900.5 L 126683 38900.5 L 126683 55114.6 L 123501.5 55114.6 L 123501.5 53478.7 L 110943.5 53478.7 L 110943.5 55284.7 L 107846 55284.7 L 107846 38898.4 L 107848.1 38900.5 Z M 118772.3 24836.8 L 118772.3 31504.3 L 127760.3 31504.3 L 127760.3 34559.8 L 106775 34559.8 L 106775 31504.3 L 115504.7 31504.3 L 115504.7 24836.8 L 105653.6 24836.8 L 105653.6 21743.5 L 115504.7 21743.5 L 115504.7 16023.1 L 118772.3 16023.1 L 118772.3 21743.5 L 128449.1 21743.5 L 128449.1 24836.8 L 118772.3 24836.8 Z M 150940.1 32321.2 L 150940.1 27892.3 L 141263.3 27892.3 L 141263.3 32321.2 L 150940.1 32321.2 Z M 141263.3 25267.3 L 150940.1 25267.3 L 150940.1 20880.4 L 141263.3 20880.4 L 141263.3 25267.3 Z M 164016.8 20880.4 L 154253.9 20880.4 L 154253.9 25267.3 L 164016.8 25267.3 L 164016.8 20880.4 Z M 164016.8 27892.3 L 154253.9 27892.3 L 154253.9 32321.2 L 164016.8 32321.2 L 164016.8 27892.3 Z M 156918.8 41653.6 Q 163241.9 47934.7 172446.2 51032.2 Q 171242.9 52107.4 170253.8 53697.1 Q 160877.3 49910.8 154256 42772.9 L 154256 55330.9 L 150944.3 55330.9 L 150944.3 42985 Q 144537.2 50253.1 134944.4 53865.1 Q 134129.6 52531.6 132794 51244.3 Q 142212.5 48188.8 148277.3 41651.5 L 133869.2 41651.5 L 133869.2 38684.2 L 150944.3 38684.2 L 150944.3 35072.2 L 138041.9 35072.2 L 138041.9 18085.3 L 167416.7 18085.3 L 167416.7 35072.2 L 154256 35072.2 L 154256 38684.2 L 171331.1 38684.2 L 171331.1 41651.5 L 156923 41651.5 L 156918.8 41653.6 Z M 191241.2 38169.7 Q 191155.1 39631.3 191413.4 40964.8 Q 178252.7 43331.5 176961.2 44020.3 Q 176616.8 42775 175886 40924.9 Q 177089.3 40666.6 179239.7 38171.8 Q 181131.8 36279.7 183796.7 32539.6 Q 177561.8 33228.4 176660.9 33700.9 Q 175844 31162 175541.6 30475.3 Q 176446.7 30301 177994.4 27980.5 Q 181436.3 22948.9 183756.8 16323.4 L 186982.4 17656.9 Q 184015.1 24496.6 180100.7 30130.9 L 185821.1 29612.2 Q 187284.8 27377.8 188530.1 25053.1 L 191411.3 26817.1 Q 186982.4 34043.2 181692.5 39761.5 L 191241.2 38171.8 L 191241.2 38169.7 Z M 175799.9 49652.5 Q 178380.8 49224.1 191325.2 46601.2 L 191585.6 49566.4 Q 186896.3 50641.6 176318.6 52924.3 L 175799.9 49654.6 L 175799.9 49652.5 Z M 196961.6 41827.9 L 196961.6 50557.6 L 209519.6 50557.6 L 209519.6 41827.9 L 196961.6 41827.9 Z M 193864.1 38900.5 L 212699 38900.5 L 212699 55114.6 L 209517.5 55114.6 L 209517.5 53478.7 L 196959.5 53478.7 L 196959.5 55284.7 L 193862 55284.7 L 193862 38898.4 L 193864.1 38900.5 Z M 204788.3 24836.8 L 204788.3 31504.3 L 213776.3 31504.3 L 213776.3 34559.8 L 192791 34559.8 L 192791 31504.3 L 201520.7 31504.3 L 201520.7 24836.8 L 191669.6 24836.8 L 191669.6 21743.5 L 201520.7 21743.5 L 201520.7 16023.1 L 204788.3 16023.1 L 204788.3 21743.5 L 214465.1 21743.5 L 214465.1 24836.8 L 204788.3 24836.8 Z M 229259.6 26256.4 Q 227067.2 23461.3 221861.3 19118.5 L 223841.6 17010.1 Q 229001.3 21052.6 231410 23847.7 L 229259.6 26256.4 Z M 232999.7 44276.5 Q 233430.2 45696.1 234161 46899.4 Q 225989.9 53524.9 225343.1 54425.8 Q 224654.3 53134.3 223579.1 52145.2 Q 225645.5 50425.3 225645.5 48016.6 L 225645.5 32575.3 L 218978 32575.3 L 218978 29477.8 L 228740.9 29477.8 L 228740.9 47586.1 L 232997.6 44274.4 L 232999.7 44276.5 Z M 251452.4 51288.4 Q 253000.1 51288.4 253514.6 50171.2 Q 253987.1 49138 254203.4 45351.7 Q 255406.7 46256.8 257126.6 46601.2 Q 256782.2 51114.1 255751.1 52619.8 Q 254631.8 54167.5 251622.5 54167.5 L 242762.6 54167.5 Q 239320.7 54167.5 238117.4 53178.4 Q 236914.1 52145.2 236914.1 49264 L 236914.1 31802.5 L 240053.6 31802.5 L 240053.6 40446.1 Q 246891.2 37134.4 251622.5 33696.7 L 253730.9 36361.6 Q 248010.5 40101.7 240053.6 43629.7 L 240053.6 49306 Q 240053.6 50555.5 240572.3 50899.9 Q 241128.8 51286.3 242978.9 51286.3 L 251452.4 51286.3 L 251452.4 51288.4 Z M 247193.6 16579.6 Q 246763.1 17612.8 246462.8 18127.3 Q 251150 26470.6 258934.7 31285.9 Q 257775.5 32277.1 256656.2 33780.7 Q 249946.7 29135.5 244873.1 21006.4 Q 240053.6 29093.5 232871.6 34169.2 Q 231796.4 32491.3 230721.2 31802.5 Q 239753.3 25737.7 243795.8 15974.8 L 247191.5 16577.5 L 247193.6 16579.6 Z " fill-rule="nonzero" style="fill:#ffffff;;fill-opacity:1;"/>
</svg>