<svg version="1.1" x="0" y="0" width="100%" height="100%" viewBox="0 0 43264 54118.4" xmlns="http://www.w3.org/2000/svg">
  <path d="M 15313.15 40663.6 Q 11764.15 36934.35 11764.15 30520.6 Q 11764.15 24176.85 15419.9 20305.85 Q 18862.15 16651.85 24092.9 16651.85 Q 28609.65 16651.85 31869.9 20055.6 L 29075.15 23424.35 Q 26780.9 21200.1 24199.65 21200.1 Q 21117.9 21200.1 19184.15 23637.85 Q 17176.9 26145.6 17176.9 30338.6 Q 17176.9 34638.35 19075.65 37111.1 Q 20939.4 39583.85 24091.15 39583.85 Q 27137.9 39583.85 29573.9 36967.6 L 32368.65 40264.6 Q 29001.65 44170.6 23910.9 44170.6 Q 18680.15 44170.6 15311.4 40658.35 L 15313.15 40663.6 Z " fill-rule="nonzero" style="fill:#ffffff;;fill-opacity:1;"/>
</svg>