<svg version="1.1" x="0" y="0" width="100%" height="100%" viewBox="0 0 231372.8 67840" xmlns="http://www.w3.org/2000/svg">
  <path d="M 34133.9 19332.7 L 12842 19332.7 L 12842 21657.4 L 34133.9 21657.4 L 34133.9 19332.7 Z M 34133.9 23503.3 L 12842 23503.3 L 12842 25870 L 34133.9 25870 L 34133.9 23503.3 Z M 37271.3 27804.1 L 9788.6 27804.1 L 9788.6 17396.5 L 37271.3 17396.5 L 37271.3 27804.1 Z M 42735.5 32020.9 L 4456.7 32020.9 L 4456.7 29568.1 L 42735.5 29568.1 L 42735.5 32020.9 Z M 21962.3 42686.8 L 21962.3 40234 L 11983.1 40234 L 11983.1 42686.8 L 21962.3 42686.8 Z M 11983.1 38344 L 21962.3 38344 L 21962.3 35933.2 L 11983.1 35933.2 L 11983.1 38344 Z M 35421.2 35933.2 L 25013.6 35933.2 L 25013.6 38344 L 35421.2 38344 L 35421.2 35933.2 Z M 35421.2 40234 L 25013.6 40234 L 25013.6 42686.8 L 35421.2 42686.8 L 35421.2 40234 Z M 42947.6 51760.9 L 42947.6 54255.7 L 4198.4 54255.7 L 4198.4 51760.9 L 21962.3 51760.9 L 21962.3 49266.1 L 7768.4 49266.1 L 7768.4 47029.6 L 21962.3 47029.6 L 21962.3 44662.9 L 9015.8 44662.9 L 9015.8 33955 L 38564.9 33955 L 38564.9 44662.9 L 25015.7 44662.9 L 25015.7 47029.6 L 39465.8 47029.6 L 39465.8 49266.1 L 25015.7 49266.1 L 25015.7 51760.9 L 42949.7 51760.9 L 42947.6 51760.9 Z M 85913.6 38257.9 L 68366 38257.9 L 68366 51074.2 Q 68366 54041.5 66173.6 54686.2 Q 64451.6 55288.9 57742.1 55288.9 Q 57355.7 53657.2 56366.6 52021.3 Q 61053.8 52191.4 63935 52063.3 Q 65096.3 52021.3 65096.3 51032.2 L 65096.3 38257.9 L 47374.4 38257.9 L 47374.4 35074.3 L 65096.3 35074.3 L 65096.3 28881.4 Q 70816.7 26258.5 75848.3 22085.8 L 51633.2 22085.8 L 51633.2 18946.3 L 79330.1 18946.3 L 80018.9 18776.2 L 82427.6 20582.2 Q 76621.1 26302.6 68363.9 30517.3 L 68363.9 35076.4 L 85911.5 35076.4 L 85911.5 38260 L 85913.6 38257.9 Z M 90172.4 49740.7 Q 93482 49180 106300.4 46685.2 L 106558.7 49652.5 Q 103247 50383.3 98129.3 51416.5 Q 91461.8 52792 90731 52966.3 L 90174.5 49740.7 L 90172.4 49740.7 Z M 106856.9 26987.2 Q 101739.2 34385.5 96321.2 39805.6 L 106470.5 38344 Q 106470.5 40063.9 106598.6 41181.1 Q 92707.1 43375.6 91373.6 43978.3 Q 91115.3 42817 90298.4 40882.9 Q 91457.6 40666.6 93910.4 38171.8 Q 95890.7 36279.7 98855.9 32497.6 Q 92018.3 33312.4 91071.2 33742.9 Q 90726.8 32497.6 89996 30647.5 Q 91029.2 30389.2 92749.1 28022.5 Q 96577.4 23463.4 99761 16153.3 L 102900.5 17486.8 Q 99246.5 24754.9 94771.4 30130.9 L 101052.5 29570.2 Q 102428 27722.2 104021.9 25183.3 L 106859 26989.3 L 106856.9 26987.2 Z M 125866.1 16409.5 L 125866.1 55286.8 L 122598.5 55286.8 L 122598.5 43459.6 Q 110987.6 46298.8 109351.7 47374 Q 108923.3 46128.7 107673.8 44795.2 Q 110254.7 43375.6 110254.7 41139.1 L 110254.7 19935.4 L 113436.2 19935.4 L 113436.2 42514.6 L 122598.5 40408.3 L 122598.5 16409.5 L 125866.1 16409.5 Z M 145265.9 37913.5 Q 145265.9 39247 145436 40624.6 Q 135114.5 43377.7 134125.4 44108.5 Q 133865 42989.2 133178.3 41399.5 Q 134125.4 41229.4 136189.7 38518.3 Q 137995.7 36109.6 140060 32667.7 Q 134728.1 33398.5 133865 33871 Q 133564.7 32709.7 132833.9 30989.8 Q 133823 30773.5 135156.5 28322.8 Q 138123.8 23847.7 140576.6 16151.2 L 143371.7 17442.7 Q 140490.5 24794.8 136834.4 30429.1 L 141607.7 29956.6 Q 142899.2 27636.1 144060.5 25099.3 L 146597.3 26518.9 Q 142769 34087.3 138554.3 39549.4 L 145263.8 37913.5 L 145265.9 37913.5 Z M 145564.1 47846.5 L 133823 52405.6 L 133050.2 49396.3 Q 137006.6 48235 145047.5 45183.7 L 145562 47848.6 L 145564.1 47846.5 Z M 150898.1 33826.9 Q 150898.1 48491.2 146683.4 55589.2 Q 145736.3 54514 144358.7 53697.1 Q 148014.8 47462.2 148014.8 33829 L 148014.8 19378.9 L 159025.1 19378.9 Q 158510.6 17785 157863.8 16195.3 L 160703 15550.6 Q 161263.7 16709.8 162252.8 19378.9 L 171499.1 19378.9 L 171499.1 22218.1 L 150900.2 22218.1 L 150900.2 33829 L 150898.1 33826.9 Z M 160230.5 37224.7 L 160230.5 33182.2 L 155713.4 33182.2 L 155713.4 37224.7 L 160230.5 37224.7 Z M 155715.5 30945.7 L 160232.6 30945.7 L 160232.6 26987.2 L 155715.5 26987.2 L 155715.5 30945.7 Z M 166984.1 26987.2 L 162683.3 26987.2 L 162683.3 30945.7 L 166984.1 30945.7 L 166984.1 26987.2 Z M 166984.1 33180.1 L 162683.3 33180.1 L 162683.3 37222.6 L 166984.1 37222.6 L 166984.1 33180.1 Z M 171887.6 51246.4 L 171887.6 54041.5 L 150511.7 54041.5 L 150511.7 51246.4 L 160060.4 51246.4 L 160060.4 46384.9 L 152534 46384.9 L 152534 43631.8 L 160060.4 43631.8 L 160060.4 40103.8 L 160230.5 40103.8 L 160230.5 39589.3 L 153218.6 39589.3 L 153218.6 24578.5 L 169562.9 24578.5 L 169562.9 39589.3 L 162683.3 39589.3 L 162683.3 40103.8 L 162853.4 40103.8 L 162853.4 43631.8 L 170337.8 43631.8 L 170337.8 46384.9 L 162853.4 46384.9 L 162853.4 51246.4 L 171885.5 51246.4 L 171887.6 51246.4 Z " fill-rule="nonzero" style="fill:#ffffff;;fill-opacity:1;"/>
</svg>