<svg version="1.1" x="0" y="0" width="100%" height="100%" viewBox="0 0 678912 40550.4" xmlns="http://www.w3.org/2000/svg">
  <path d="M 3129.2 29291.6 Q 11386.4 22066.4 11386.4 17666 Q 11386.4 16044.8 10575.2 15110 Q 9690.8 14102 8068.4 14102 Q 6077.6 14102 4331.6 16191.2 L 3029.6 14913.2 Q 5487.2 12258.8 8338.4 12258.8 Q 10746.8 12258.8 12172.4 13708.4 Q 13574 15159.2 13574 17591.6 Q 13574 22162.4 6521.6 28847.6 Q 8709.2 28676 9471.2 28676 L 14459.6 28676 L 14459.6 30616.4 L 3130.4 30616.4 L 3130.4 29290.4 L 3129.2 29291.6 Z M 18343.6 28601.6 Q 16820.8 26144 16820.8 21549.2 Q 16820.8 16954.4 18343.6 14546 Q 19793.2 12260 22447.6 12260 Q 25078 12260 26527.6 14570 Q 28050.4 16978.4 28050.4 21549.2 Q 28050.4 26144 26527.6 28601.6 Q 25078 30938 22447.6 30938 Q 19818.4 30938 18343.6 28601.6  Z M 25864 21549.2 Q 25864 14079.2 22447.6 14079.2 Q 19007.2 14079.2 19007.2 21549.2 Q 19007.2 29142.8 22447.6 29142.8 Q 25864 29142.8 25864 21549.2  Z M 31347.6 28750.4 L 35352 28750.4 L 35352 15306.8 L 32158.8 15306.8 L 32158.8 13881.2 Q 34394.4 13463.6 35893.2 12603.2 L 37612.8 12603.2 L 37612.8 28750.4 L 41226 28750.4 L 41226 30617.6 L 31347.6 30617.6 L 31347.6 28750.4 Z M 45479.6 29585.6 Q 43857.2 28233.2 43857.2 26144 Q 43857.2 22974.8 47175.2 21180.8 L 47175.2 21057.2 Q 44741.6 19385.6 44741.6 16904 Q 44741.6 14864 46143.2 13587.2 Q 47543.6 12333.2 49683.2 12333.2 Q 51944 12333.2 53294 13661.6 Q 54622.4 14963.6 54622.4 17076.8 Q 54622.4 19558.4 52214 21425.6 L 52214 21549.2 Q 55260.8 23319.2 55260.8 26267.6 Q 55260.8 28258.4 53714 29586.8 Q 52115.6 30939.2 49608.8 30939.2 Q 47127.2 30939.2 45480.8 29586.8 L 45479.6 29585.6 Z M 52706 17198 Q 52706 15821.6 51894.8 14913.2 Q 51034.4 13978.4 49634 13978.4 Q 48380 13978.4 47594 14789.6 Q 46782.8 15600.8 46782.8 16902.8 Q 46782.8 18352.4 48011.6 19360.4 Q 48872 20048 50836.4 20835.2 Q 52704.8 19188.8 52704.8 17196.8 L 52706 17198 Z M 52164.8 28406 Q 53123.6 27569.6 53123.6 26219.6 Q 53123.6 24597.2 51698 23516 Q 50813.6 22852.4 48356 21869.6 Q 45898.4 23442.8 45898.4 25949.6 Q 45898.4 27374 46979.6 28334 Q 48035.6 29266.4 49658 29266.4 Q 51207.2 29266.4 52166 28407.2 L 52164.8 28406 Z M 68928.4 25112 L 68928.4 20246 L 63422.8 20246 L 63422.8 25112 L 68928.4 25112 Z M 79667.2 26882 L 70771.6 26882 L 70771.6 32511.2 L 68928.4 32511.2 L 68928.4 26882 L 57572.8 26882 L 57572.8 25112 L 61603.6 25112 L 61603.6 18526.4 L 68928.4 18526.4 L 68928.4 14790.8 L 62956 14790.8 Q 61285.6 17642 59220.4 19632.8 Q 58237.6 18772.4 57647.2 18478.4 Q 61333.6 15258.8 63176.8 9999.2 L 65020 10440.8 Q 64554.4 11621.6 63890.8 13022 L 78536.8 13022 L 78536.8 14792 L 70771.6 14792 L 70771.6 18527.6 L 77971.6 18527.6 L 77971.6 20247.2 L 70771.6 20247.2 L 70771.6 25113.2 L 79667.2 25113.2 L 79667.2 26883.2 L 79667.2 26882 Z M 85762 30617.6 Q 86179.6 21033.2 90824.8 14519.6 L 82102 14519.6 L 82102 12603.2 L 93382 12603.2 L 93382 13955.6 Q 90383.2 17813.6 89251.6 21672.8 Q 88319.2 24892.4 88097.2 30618.8 L 85763.2 30618.8 L 85762 30617.6 Z M 112675.2 23097.2 L 112675.2 18968 L 101443.2 18968 Q 101443.2 21107.6 101173.2 23098.4 L 112675.2 23098.4 L 112675.2 23097.2 Z M 101443.2 13144.4 L 101443.2 17224.4 L 112675.2 17224.4 L 112675.2 13144.4 L 101443.2 13144.4 Z M 114566.4 29830.4 Q 114566.4 31625.6 113289.6 32043.2 Q 112281.6 32387.6 108104.4 32387.6 Q 107858.4 31379.6 107317.2 30495.2 Q 108693.6 30544.4 111914.4 30544.4 Q 112676.4 30520.4 112676.4 29806.4 L 112676.4 24891.2 L 100879.2 24891.2 Q 99798 29782.4 96652.8 32534 Q 96259.2 31919.6 95300.4 31208 Q 99601.2 27422 99601.2 18869.6 L 99601.2 11349.2 L 114567.6 11349.2 L 114567.6 29829.2 L 114566.4 29830.4 Z M 144795.6 22727.6 L 144795.6 16215.2 L 137743.2 16215.2 L 137743.2 22727.6 L 144795.6 22727.6 Z M 135849.6 22727.6 L 135849.6 16215.2 L 128821.2 16215.2 L 128821.2 22727.6 L 135849.6 22727.6 Z M 146664 14422.4 L 146664 25923.2 L 144795.6 25923.2 L 144795.6 24522.8 L 137743.2 24522.8 L 137743.2 32484.8 L 135850.8 32484.8 L 135850.8 24522.8 L 128822.4 24522.8 L 128822.4 26045.6 L 127028.4 26045.6 L 127028.4 14421.2 L 135850.8 14421.2 L 135850.8 10047.2 L 137743.2 10047.2 L 137743.2 14421.2 L 146665.2 14421.2 L 146664 14422.4 Z M 168192 25775.6 L 168192 27324.8 L 154798.8 27324.8 L 154798.8 25775.6 L 160452 25775.6 L 160452 21647.6 L 155830.8 21647.6 L 155830.8 20074.4 L 160452 20074.4 L 160452 16583.6 L 155143.2 16583.6 L 155143.2 14937.2 L 167701.2 14937.2 L 167701.2 16583.6 L 162171.6 16583.6 L 162171.6 20074.4 L 167086.8 20074.4 L 167086.8 21647.6 L 162171.6 21647.6 L 162171.6 25775.6 L 168192 25775.6 Z M 164874 22089.2 Q 166569.6 23564 167356.8 24767.6 L 166102.8 25505.6 Q 165415.2 24376.4 163719.6 22728.8 L 164875.2 22090.4 L 164874 22089.2 Z M 169617.6 29585.6 L 169617.6 12873.2 L 153176.4 12873.2 L 153176.4 29585.6 L 169617.6 29585.6 Z M 171510 11177.6 L 171510 32510 L 169617.6 32510 L 169617.6 31281.2 L 153176.4 31281.2 L 153176.4 32510 L 151357.2 32510 L 151357.2 11177.6 L 171511.2 11177.6 L 171510 11177.6 Z M 189990 16289.6 Q 188810.4 14692.4 186082.8 12800 L 187238.4 11744 Q 189942 13463.6 191244 15110 L 189990 16289.6 Z M 189450 22778 Q 188025.6 21034.4 185125.2 19191.2 L 186256.8 18110 Q 189229.2 19928 190654.8 21575.6 L 189450 22779.2 L 189450 22778 Z M 183085.2 24743.6 Q 182544 23711.6 180800.4 21081.2 L 180800.4 32460.8 L 179005.2 32460.8 L 179005.2 21598.4 Q 177261.6 25826 175442.4 28013.6 Q 175197.6 27299.6 174534 26367.2 Q 177139.2 23418.8 178761.6 18651.2 L 174878.4 18651.2 L 174878.4 16929.2 L 179006.4 16929.2 L 179006.4 13218.8 Q 177212.4 13563.2 175639.2 13784 Q 175467.6 13096.4 175098 12360.8 Q 180382.8 11524.4 182913.6 10395.2 L 184018.8 11844.8 Q 182617.2 12410 180799.2 12827.6 L 180799.2 16931.6 L 184412.4 16931.6 L 184412.4 18653.6 L 180799.2 18653.6 L 180799.2 19095.2 Q 181658.4 20054 184189.2 23322.8 L 183084 24748.4 L 183085.2 24743.6 Z M 194193.6 26046.8 L 194193.6 32460.8 L 192399.6 32460.8 L 192399.6 26340.8 L 184387.2 27669.2 L 184093.2 25923.2 L 192400.8 24597.2 L 192400.8 10048.4 L 194194.8 10048.4 L 194194.8 24300.8 L 197070 23859.2 L 197340 25529.6 L 194194.8 26046.8 L 194193.6 26046.8 Z M 202081.2 18968 L 200337.6 18968 L 200337.6 14126 L 204392.4 14126 Q 203730 12725.6 202279.2 11006 L 203804.4 10292 Q 205498.8 12234.8 206138.4 13635.2 L 205203.6 14126 L 210585.6 14126 Q 209995.2 12332 208742.4 10464.8 L 210315.6 9874.4 Q 211838.4 11987.6 212305.2 13610 L 211052.4 14124.8 L 215059.2 14124.8 Q 216556.8 12257.6 217540.8 10217.6 L 219384 10857.2 Q 218228.4 12576.8 216999.6 14123.6 L 221006.4 14123.6 L 221006.4 18965.6 L 219211.2 18965.6 L 219211.2 15772.4 L 202081.2 15772.4 L 202081.2 18965.6 L 202081.2 18968 Z M 221448 25554.8 L 211446 25554.8 L 211446 30249.2 Q 211446 31772 210265.2 32140.4 Q 209306.4 32460.8 205743.6 32460.8 Q 205596 31870.4 204981.6 30690.8 Q 208053.6 30814.4 208988.4 30714.8 Q 209626.8 30690.8 209626.8 30224 L 209626.8 25554.8 L 199845.6 25554.8 L 199845.6 23859.2 L 209626.8 23859.2 L 209626.8 22089.2 Q 211740 21327.2 213877.2 19901.6 L 203949.6 19901.6 L 203949.6 18279.2 L 215967.6 18279.2 L 216312 18182 L 217516.8 19090.4 Q 215230.8 21179.6 211447.2 22875.2 L 211447.2 23858 L 221449.2 23858 L 221449.2 25553.6 L 221448 25554.8 Z M 232065.6 22457.6 L 229114.8 23342 L 229114.8 30297.2 Q 229114.8 31698.8 228206.4 32116.4 Q 227468.4 32484.8 224889.6 32436.8 Q 224766 31722.8 224299.2 30764 Q 226314 30813.2 226831.2 30764 Q 227322 30764 227322 30297.2 L 227322 23883.2 L 224373.6 24743.6 L 223856.4 22949.6 Q 225504 22580 227322 22065.2 L 227322 16707.2 L 224176.8 16707.2 L 224176.8 14987.6 L 227322 14987.6 L 227322 10072.4 L 229116 10072.4 L 229116 14987.6 L 231843.6 14987.6 L 231843.6 16707.2 L 229116 16707.2 L 229116 21574.4 Q 230370 21228.8 231843.6 20787.2 L 232065.6 22457.6 Z M 235210.8 20960 Q 236487.6 24252.8 238824 26610.8 Q 241502.4 24202.4 242780.4 20958.8 L 235210.8 20958.8 L 235210.8 20960 Z M 245139.6 19706 Q 243640.8 24572 240151.2 27792.8 Q 242805.6 29954 246492 30962 Q 245853.6 31576.4 245312.4 32535.2 Q 241453.2 31355.6 238750.8 28971.2 Q 235800 31208 231769.2 32484.8 Q 231376.8 31526 230786.4 30838.4 Q 234546 29830.4 237445.2 27718.4 Q 234866.4 24940.4 233415.6 20984 L 233491.2 20960 L 232680 20960 L 232680 19264.4 L 237939.6 19264.4 L 237939.6 15602 L 232188 15602 L 232188 13906.4 L 237939.6 13906.4 L 237939.6 10048.4 L 239733.6 10048.4 L 239733.6 13906.4 L 245607.6 13906.4 L 245607.6 15602 L 239733.6 15602 L 239733.6 19264.4 L 243640.8 19264.4 L 243937.2 19191.2 L 245140.8 19706 L 245139.6 19706 Z M 266716.8 15281.6 Q 265291.2 13758.8 262342.8 11621.6 L 263671.2 10516.4 Q 266570.4 12507.2 268093.2 13980.8 L 266716.8 15282.8 L 266716.8 15281.6 Z M 261507.6 18035.6 Q 265341.6 24376.4 270994.8 27914 Q 270183.6 28528.4 269545.2 29487.2 Q 264777.6 26070.8 260770.8 19902.8 L 260770.8 32511.2 L 258804 32511.2 L 258804 20640.8 Q 255020.4 26711.6 249784.8 29684 Q 249170.4 28775.6 248432.4 28137.2 Q 254700 24916.4 258289.2 18036.8 L 249170.4 18036.8 L 249170.4 16241.6 L 258804 16241.6 L 258804 10097.6 L 260770.8 10097.6 L 260770.8 16241.6 L 270159.6 16241.6 L 270159.6 18036.8 L 261508.8 18036.8 L 261507.6 18035.6 Z M 285836.4 18944 Q 288711.6 27963.2 295495.2 30741.2 Q 294684 31503.2 294118.8 32462 Q 287481.6 29316.8 284336.4 20297.6 Q 282175.2 28972.4 274532.4 32462 Q 274065.6 31601.6 273157.2 30963.2 Q 280824 27621.2 282716.4 18946.4 L 273648 18946.4 L 273648 17079.2 L 283011.6 17079.2 Q 283332 14915.6 283380 10097.6 L 285346.8 10097.6 Q 285297.6 14547.2 284953.2 17078 L 295104 17078 L 295104 18945.2 L 285838.8 18945.2 L 285836.4 18944 Z M 300385.2 18968 L 298641.6 18968 L 298641.6 14126 L 302696.4 14126 Q 302034 12725.6 300583.2 11006 L 302108.4 10292 Q 303802.8 12234.8 304442.4 13635.2 L 303507.6 14126 L 308889.6 14126 Q 308299.2 12332 307046.4 10464.8 L 308619.6 9874.4 Q 310142.4 11987.6 310609.2 13610 L 309356.4 14124.8 L 313363.2 14124.8 Q 314860.8 12257.6 315844.8 10217.6 L 317688 10857.2 Q 316532.4 12576.8 315303.6 14123.6 L 319310.4 14123.6 L 319310.4 18965.6 L 317515.2 18965.6 L 317515.2 15772.4 L 300385.2 15772.4 L 300385.2 18965.6 L 300385.2 18968 Z M 319752 25554.8 L 309750 25554.8 L 309750 30249.2 Q 309750 31772 308569.2 32140.4 Q 307610.4 32460.8 304047.6 32460.8 Q 303900 31870.4 303285.6 30690.8 Q 306357.6 30814.4 307292.4 30714.8 Q 307930.8 30690.8 307930.8 30224 L 307930.8 25554.8 L 298149.6 25554.8 L 298149.6 23859.2 L 307930.8 23859.2 L 307930.8 22089.2 Q 310044 21327.2 312181.2 19901.6 L 302253.6 19901.6 L 302253.6 18279.2 L 314271.6 18279.2 L 314616 18182 L 315820.8 19090.4 Q 313534.8 21179.6 309751.2 22875.2 L 309751.2 23858 L 319753.2 23858 L 319753.2 25553.6 L 319752 25554.8 Z M 327690 14322.8 Q 326486.4 13438.4 323414.4 11595.2 L 324446.4 10269.2 Q 327494.4 11988.8 328747.2 12824 L 327690 14322.8 Z M 326534.4 20763.2 Q 325134 19779.2 322185.6 18206 L 323193.6 16880 Q 325651.2 18035.6 327567.6 19239.2 L 326534.4 20764.4 L 326534.4 20763.2 Z M 322848 31035.2 Q 324667.2 28062.8 326610 23638.4 L 328010.4 24743.6 Q 326535.6 28306.4 324496.8 32165.6 L 322849.2 31034 L 322848 31035.2 Z M 342484.8 22876.4 Q 339315.6 21008 337152 18305.6 L 337152 22336.4 L 335432.4 22336.4 L 335432.4 18329.6 Q 333540 20934.8 330688.8 22877.6 L 342486 22877.6 L 342484.8 22876.4 Z M 340962 30176 L 340962 27914 L 337152 27914 L 337152 30176 L 340962 30176 Z M 331892.4 30176 L 335529.6 30176 L 335529.6 27914 L 331892.4 27914 L 331892.4 30176 Z M 335529.6 24326 L 331892.4 24326 L 331892.4 26537.6 L 335529.6 26537.6 L 335529.6 24326 Z M 340962 24326 L 337152 24326 L 337152 26537.6 L 340962 26537.6 L 340962 24326 Z M 338871.6 18132.8 Q 341378.4 20738 344941.2 22090.4 Q 344253.6 22631.6 343712.4 23540 Q 343221.6 23295.2 342704.4 22998.8 L 342704.4 32387.6 L 340960.8 32387.6 L 340960.8 31649.6 L 331892.4 31649.6 L 331892.4 32436.8 L 330220.8 32436.8 L 330220.8 23171.6 Q 329779.2 23465.6 328944 23908.4 Q 328453.2 23170.4 327739.2 22532 Q 331204.8 20982.8 333662.4 18131.6 L 328402.8 18131.6 L 328402.8 16558.4 L 335431.2 16558.4 L 335431.2 12651.2 Q 333121.2 12896 329410.8 13142 Q 329337.6 12576.8 328968 11716.4 Q 337890 11127.2 341920.8 10070 L 343149.6 11446.4 Q 340692 12060.8 337153.2 12454.4 L 337153.2 16558.4 L 338799.6 16558.4 Q 339979.2 14421.2 340545.6 12675.2 L 342265.2 13216.4 Q 341257.2 15280.4 340519.2 16558.4 L 344427.6 16558.4 L 344427.6 18131.6 L 338872.8 18131.6 L 338871.6 18132.8 Z M 332064 13120.4 Q 333024 14693.6 333562.8 15897.2 L 332064 16536.8 Q 331746 15725.6 330640.8 13636.4 L 332065.2 13121.6 L 332064 13120.4 Z M 361900.8 13635.2 L 361900.8 15430.4 L 365587.2 15430.4 L 365587.2 13635.2 L 361900.8 13635.2 Z M 365587.2 16928 L 361900.8 16928 L 361900.8 18747.2 L 365587.2 18747.2 L 365587.2 16928 Z M 360178.8 13635.2 L 355460.4 13635.2 L 355460.4 12185.6 L 360178.8 12185.6 L 360178.8 10169.6 L 361900.8 10169.6 L 361900.8 12185.6 L 367233.6 12185.6 L 367233.6 15430.4 L 368928 15430.4 L 368928 16928 L 367233.6 16928 L 367233.6 20222 L 361900.8 20222 L 361900.8 22065.2 L 367699.2 22065.2 L 367699.2 23465.6 L 361900.8 23465.6 L 361900.8 25456.4 L 368610 25456.4 L 368610 26955.2 L 361900.8 26955.2 L 361900.8 29388.8 L 360178.8 29388.8 L 360178.8 26955.2 L 354084 26955.2 L 354084 25456.4 L 360178.8 25456.4 L 360178.8 23465.6 L 355116 23465.6 L 355116 22065.2 L 360178.8 22065.2 L 360178.8 20222 L 355288.8 20222 L 355288.8 18747.2 L 360178.8 18747.2 L 360178.8 16928 L 353863.2 16928 L 353863.2 15430.4 L 360178.8 15430.4 L 360178.8 13635.2 Z M 353986.8 18650 Q 353396.4 23786 351873.6 27275.6 Q 354796.8 30224 361825.2 30224 Q 368068.8 30224 369321.6 30200 Q 368806.8 30986 368634 31896.8 L 361778.4 31896.8 Q 354332.4 31896.8 351136.8 28775.6 Q 349834.8 30987.2 348088.8 32364.8 Q 347401.2 31504.4 346737.6 31110.8 Q 348606 29784.8 349958.4 27424.4 Q 348630 25630.4 347745.6 22706 L 349098 22164.8 Q 349712.4 24278 350695.2 25800.8 Q 351703.2 23319.2 352170 20026.4 L 348189.6 20026.4 Q 349762.8 17348 351703.2 13218.8 L 347402.4 13218.8 L 347402.4 11596.4 L 354308.4 11596.4 Q 352564.8 15234.8 350893.2 18404 L 352639.2 18404 L 352957.2 18354.8 L 353990.4 18651.2 L 353986.8 18650 Z M 378807.6 10662.8 Q 377799.6 13365.2 376350 16068.8 L 376350 32534 L 374580 32534 L 374580 18944 Q 373671.6 20270 372418.8 21695.6 Q 371925.6 20590.4 371384.4 19926.8 Q 375046.8 16068.8 377086.8 10145.6 L 378806.4 10662.8 L 378807.6 10662.8 Z M 393480 22286 L 393430.8 23048 Q 393038.4 29044.4 392300.4 29830.4 Q 391857.6 30371.6 391022.4 30444.8 Q 390358.8 30544.4 388934.4 30471.2 Q 388834.8 29487.2 388490.4 28872.8 Q 389277.6 28948.4 390260.4 28948.4 Q 390702 28948.4 390924 28726.4 Q 391390.8 28112 391684.8 24008 L 386302.8 24008 L 386302.8 32486 L 384556.8 32486 L 384556.8 24008 L 377847.6 24008 L 377847.6 22288.4 L 384556.8 22288.4 L 384556.8 19462.4 L 379200 19462.4 L 379200 17766.8 L 384556.8 17766.8 L 384556.8 15039.2 L 378585.6 15039.2 L 378585.6 13319.6 L 384556.8 13319.6 L 384556.8 10074.8 L 386302.8 10074.8 L 386302.8 13319.6 L 392864.4 13319.6 L 392864.4 15039.2 L 386302.8 15039.2 L 386302.8 17766.8 L 392152.8 17766.8 L 392152.8 19462.4 L 386302.8 19462.4 L 386302.8 22288.4 L 393478.8 22288.4 L 393480 22286 Z M 399009.6 17812.4 L 397215.6 17812.4 L 397215.6 12849.2 L 406701.6 12849.2 Q 406184.4 11595.2 405472.8 10466 L 407266.8 9900.8 Q 408348 11571.2 408862.8 12849.2 L 417219.6 12849.2 L 417219.6 17812.4 L 415352.4 17812.4 L 415352.4 14568.8 L 399008.4 14568.8 L 399008.4 17812.4 L 399009.6 17812.4 Z M 404442 19804.4 Q 403237.2 18378.8 400852.8 16977.2 L 401958 15821.6 Q 404415.6 17174 405596.4 18502.4 L 404440.8 19804.4 L 404442 19804.4 Z M 399500.4 19534.4 Q 402154.8 20984 403334.4 22236.8 L 402229.2 23613.2 Q 401025.6 22263.2 398444.4 20764.4 L 399500.4 19535.6 L 399500.4 19534.4 Z M 408987.6 26586.8 Q 414493.2 28577.6 417688.8 30938 L 416583.6 32338.4 Q 413412 29930 408103.2 27914 L 408987.6 26588 L 408987.6 26586.8 Z M 417786 24300.8 L 417786 25899.2 L 407635.2 25899.2 Q 405474 30690.8 398028 32410.4 Q 397658.4 31502 396996 30838.4 Q 403484.4 29462 405524.4 25899.2 L 396750 25899.2 L 396750 24300.8 L 406260 24300.8 Q 407096.4 21819.2 407268 15798.8 L 409160.4 15798.8 Q 408987.6 21500 408201.6 24302 L 417786 24302 L 417786 24300.8 Z M 427002 26734.4 L 420710.4 28480.4 L 420366 26955.2 Q 421152 26783.6 426830.4 25334 L 427002 26734.4 Z M 429656.4 21474.8 Q 429656.4 22016 429632.4 22236.8 Q 429115.2 30470 428132.4 31502 Q 427542 32140.4 426510 32213.6 Q 425722.8 32286.8 423609.6 32189.6 Q 423512.4 31281.2 423094.8 30641.6 Q 424544.4 30790.4 425896.8 30790.4 Q 426511.2 30790.4 426757.2 30494 Q 427543.2 29708 427960.8 22973.6 L 421423.2 22973.6 Q 421916.4 19460 422186.4 14568.8 L 423759.6 14642 Q 423537.6 17837.6 423145.2 21474.8 L 426168 21474.8 Q 426658.8 17640.8 426979.2 12749.6 L 421153.2 12749.6 L 421153.2 11152.4 L 428649.6 11152.4 Q 428108.4 18425.6 427740 21473.6 L 429656.4 21473.6 L 429656.4 21474.8 Z M 437422.8 10415.6 L 436881.6 11520.8 Q 439436.4 15330.8 443319.6 17888 Q 442705.2 18674 442411.2 19582.4 Q 438748.8 16880 435997.2 13046 Q 433563.6 17002.4 429829.2 19631.6 Q 429336 18869.6 428746.8 18182 Q 433612.8 15060.8 435824.4 9875.6 L 437422.8 10416.8 L 437422.8 10415.6 Z M 439854 19214 L 432580.8 19214 L 432580.8 17640.8 L 439854 17640.8 L 439854 19214 Z M 436243.2 26955.2 Q 436094.4 24646.4 435259.2 21107.6 L 436708.8 20910.8 Q 437520 24203.6 437766 26734.4 L 436243.2 26955.2 Z M 432408 21377.6 Q 433588.8 24449.6 434030.4 27177.2 L 432531.6 27594.8 Q 432286.8 25234.4 430982.4 21720.8 L 432408 21376.4 L 432408 21377.6 Z M 442460.4 21671.6 Q 440320.8 27004.4 438871.2 29708 L 442630.8 29708 L 442630.8 31305.2 L 430195.2 31305.2 L 430195.2 29708 L 437298 29708 Q 439314 25922 440787.6 21227.6 L 442459.2 21670.4 L 442460.4 21671.6 Z M 447620.4 16535.6 L 445850.4 16535.6 L 445850.4 12209.6 L 455730 12209.6 Q 455336.4 11325.2 454771.2 10318.4 L 456517.2 9801.2 Q 457352.4 11177.6 457770 12209.6 L 466862.4 12209.6 L 466862.4 16535.6 L 465019.2 16535.6 L 465019.2 13905.2 L 447619.2 13905.2 L 447619.2 16535.6 L 447620.4 16535.6 Z M 463742.4 23441.6 Q 463030.8 22533.2 462343.2 21869.6 Q 449490 22877.6 448776 23171.6 Q 448506 22114.4 448236 21500 Q 448899.6 21402.8 449907.6 20615.6 Q 451406.4 19583.6 453297.6 17667.2 L 448334.4 17667.2 L 448334.4 16070 L 464529.6 16070 L 464529.6 17667.2 L 455658 17667.2 Q 453642 19683.2 451504.8 21230 L 460990.8 20567.6 Q 460032 19683.2 459000 18848 L 460352.4 17987.6 Q 463645.2 20568.8 465168 22436 L 463742.4 23444 L 463742.4 23441.6 Z M 467208 30150.8 L 467208 31797.2 L 445556.4 31797.2 L 445556.4 30150.8 L 455410.8 30150.8 L 455410.8 26907.2 L 447793.2 26907.2 L 447793.2 25284.8 L 455410.8 25284.8 L 455410.8 22703.6 L 457254 22703.6 L 457254 25284.8 L 465044.4 25284.8 L 465044.4 26907.2 L 457254 26907.2 L 457254 30150.8 L 467208 30150.8 Z M 481856.4 28750.4 L 485860.8 28750.4 L 485860.8 15306.8 L 482667.6 15306.8 L 482667.6 13881.2 Q 484903.2 13463.6 486402 12603.2 L 488121.6 12603.2 L 488121.6 28750.4 L 491734.8 28750.4 L 491734.8 30617.6 L 481856.4 30617.6 L 481856.4 28750.4 Z M 495988.4 29585.6 Q 494366 28233.2 494366 26144 Q 494366 22974.8 497684 21180.8 L 497684 21057.2 Q 495250.4 19385.6 495250.4 16904 Q 495250.4 14864 496652 13587.2 Q 498052.4 12333.2 500192 12333.2 Q 502452.8 12333.2 503802.8 13661.6 Q 505131.2 14963.6 505131.2 17076.8 Q 505131.2 19558.4 502722.8 21425.6 L 502722.8 21549.2 Q 505769.6 23319.2 505769.6 26267.6 Q 505769.6 28258.4 504222.8 29586.8 Q 502624.4 30939.2 500117.6 30939.2 Q 497636 30939.2 495989.6 29586.8 L 495988.4 29585.6 Z M 503214.8 17198 Q 503214.8 15821.6 502403.6 14913.2 Q 501543.2 13978.4 500142.8 13978.4 Q 498888.8 13978.4 498102.8 14789.6 Q 497291.6 15600.8 497291.6 16902.8 Q 497291.6 18352.4 498520.4 19360.4 Q 499380.8 20048 501345.2 20835.2 Q 503213.6 19188.8 503213.6 17196.8 L 503214.8 17198 Z M 502673.6 28406 Q 503632.4 27569.6 503632.4 26219.6 Q 503632.4 24597.2 502206.8 23516 Q 501322.4 22852.4 498864.8 21869.6 Q 496407.2 23442.8 496407.2 25949.6 Q 496407.2 27374 497488.4 28334 Q 498544.4 29266.4 500166.8 29266.4 Q 501716 29266.4 502674.8 28407.2 L 502673.6 28406 Z M 511153.6 29241.2 L 511080.4 29241.2 L 510883.6 30617.6 L 509089.6 30617.6 L 509089.6 11054 L 511326.4 11054 L 511326.4 16412 L 511253.2 18820.4 Q 513414.4 16928 515430.4 16928 Q 517985.2 16928 519386.8 18796.4 Q 520763.2 20590.4 520763.2 23711.6 Q 520763.2 27028.4 519019.6 29044.4 Q 517372 30936.8 514963.6 30936.8 Q 512996.8 30936.8 511153.6 29241.2  Z M 517346.8 27669.2 Q 518428 26194.4 518428 23762 Q 518428 18821.6 514913.2 18821.6 Q 513292 18821.6 511325.2 20664.8 L 511325.2 27669.2 Q 512922.4 29069.6 514594 29069.6 Q 516289.6 29069.6 517345.6 27669.2 L 517346.8 27669.2 Z M 524193.6 17273.6 L 526430.4 17273.6 L 526430.4 30617.6 L 524193.6 30617.6 L 524193.6 17273.6 Z M 524217.6 14102 Q 523776 13684.4 523776 13070 Q 523776 11620.4 525325.2 11620.4 Q 526872 11620.4 526872 13070 Q 526872 13684.4 526430.4 14102 Q 525987.6 14519.6 525325.2 14519.6 Q 524661.6 14519.6 524218.8 14102 L 524217.6 14102 Z M 531345.6 26489.6 L 531345.6 19091.6 L 529354.8 19091.6 L 529354.8 17396 L 531442.8 17274.8 L 531712.8 13539.2 L 533581.2 13539.2 L 533581.2 17274.8 L 537194.4 17274.8 L 537194.4 19092.8 L 533581.2 19092.8 L 533581.2 26538.8 Q 533581.2 29120 535645.2 29120 Q 536283.6 29120 537168 28775.6 L 537610.8 30446 Q 536085.6 30939.2 535153.2 30939.2 Q 531343.2 30939.2 531343.2 26490.8 L 531345.6 26489.6 Z M 557838 12209.6 L 549753.6 12209.6 L 549753.6 14176.4 L 557838 14176.4 L 557838 12209.6 Z M 557838 15503.6 L 549753.6 15503.6 L 549753.6 17494.4 L 557838 17494.4 L 557838 15503.6 Z M 559657.2 18894.8 L 547983.6 18894.8 L 547983.6 10834.4 L 559657.2 10834.4 L 559657.2 18894.8 Z M 545870.4 10809.2 Q 543534 14175.2 539872.8 16632.8 Q 539503.2 15821.6 538914 15159.2 Q 542379.6 12922.4 544123.2 10144.4 L 545869.2 10808 L 545870.4 10809.2 Z M 546164.4 16142 Q 545426.4 17468 544148.4 19163.6 L 544148.4 32483.6 L 542354.4 32483.6 L 542354.4 21227.6 Q 540928.8 22776.8 539479.2 23882 Q 539110.8 22949.6 538520.4 22138.4 Q 542403.6 19287.2 544567.2 15503.6 L 546164.4 16142 Z M 549334.8 26193.2 Q 551424 28036.4 552456 29609.6 L 551055.6 30593.6 Q 550171.2 29118.8 548031.6 27029.6 L 549333.6 26194.4 L 549334.8 26193.2 Z M 561254.4 25775.6 L 557592 25775.6 L 557592 30494 Q 557592 31846.4 556659.6 32240 Q 555848.4 32534 552924 32534 Q 552826.8 31846.4 552333.6 30863.6 Q 554521.2 30936.8 555284.4 30887.6 Q 555775.2 30863.6 555775.2 30444.8 L 555775.2 25775.6 L 545919.6 25775.6 L 545919.6 24202.4 L 555775.2 24202.4 L 555775.2 22113.2 L 546486 22113.2 L 546486 20540 L 560814 20540 L 560814 22113.2 L 557593.2 22113.2 L 557593.2 24202.4 L 561255.6 24202.4 L 561255.6 25775.6 L 561254.4 25775.6 Z M 580818 11939.6 L 568651.2 11939.6 L 568651.2 13268 L 580818 13268 L 580818 11939.6 Z M 580818 14322.8 L 568651.2 14322.8 L 568651.2 15675.2 L 580818 15675.2 L 580818 14322.8 Z M 582610.8 16780.4 L 566906.4 16780.4 L 566906.4 10833.2 L 582610.8 10833.2 L 582610.8 16780.4 Z M 585733.2 19190 L 563859.6 19190 L 563859.6 17788.4 L 585733.2 17788.4 L 585733.2 19190 Z M 573862.8 25284.8 L 573862.8 23883.2 L 568160.4 23883.2 L 568160.4 25284.8 L 573862.8 25284.8 Z M 568160.4 22803.2 L 573862.8 22803.2 L 573862.8 21425.6 L 568160.4 21425.6 L 568160.4 22803.2 Z M 581553.6 21425.6 L 575606.4 21425.6 L 575606.4 22803.2 L 581553.6 22803.2 L 581553.6 21425.6 Z M 581553.6 23883.2 L 575606.4 23883.2 L 575606.4 25284.8 L 581553.6 25284.8 L 581553.6 23883.2 Z M 585854.4 30470 L 585854.4 31895.6 L 563712 31895.6 L 563712 30470 L 573862.8 30470 L 573862.8 29044.4 L 565752 29044.4 L 565752 27766.4 L 573862.8 27766.4 L 573862.8 26414 L 566464.8 26414 L 566464.8 20295.2 L 583350 20295.2 L 583350 26414 L 575607.6 26414 L 575607.6 27766.4 L 583864.8 27766.4 L 583864.8 29044.4 L 575607.6 29044.4 L 575607.6 30470 L 585855.6 30470 L 585854.4 30470 Z M 610406.4 22754 L 600379.2 22754 L 600379.2 30077.6 Q 600379.2 31773.2 599126.4 32141.6 Q 598142.4 32486 594308.4 32486 Q 594087.6 31553.6 593522.4 30618.8 Q 596200.8 30716 597847.2 30642.8 Q 598510.8 30618.8 598510.8 30053.6 L 598510.8 22754 L 588384 22754 L 588384 20934.8 L 598510.8 20934.8 L 598510.8 17396 Q 601779.6 15897.2 604654.8 13512.8 L 590817.6 13512.8 L 590817.6 11718.8 L 606644.4 11718.8 L 607038 11621.6 L 608414.4 12653.6 Q 605096.4 15922.4 600378 18330.8 L 600378 20936 L 610405.2 20936 L 610405.2 22755.2 L 610406.4 22754 Z M 612840 29315.6 Q 614731.2 28995.2 622056 27569.6 L 622203.6 29265.2 Q 620311.2 29682.8 617386.8 30273.2 Q 613576.8 31059.2 613159.2 31158.8 L 612841.2 29315.6 L 612840 29315.6 Z M 622374 16313.6 Q 619449.6 20541.2 616353.6 23638.4 L 622153.2 22803.2 Q 622153.2 23786 622226.4 24424.4 Q 614288.4 25678.4 613526.4 26022.8 Q 613378.8 25359.2 612912 24254 Q 613574.4 24130.4 614976 22704.8 Q 616107.6 21623.6 617802 19462.4 Q 613894.8 19928 613353.6 20174 Q 613156.8 19462.4 612739.2 18405.2 Q 613329.6 18257.6 614312.4 16905.2 Q 616500 14300 618319.2 10122.8 L 620113.2 10884.8 Q 618025.2 15038 615468 18110 L 619057.2 17789.6 Q 619843.2 16733.6 620754 15282.8 L 622375.2 16314.8 L 622374 16313.6 Z M 633236.4 10269.2 L 633236.4 32484.8 L 631369.2 32484.8 L 631369.2 25726.4 Q 624734.4 27348.8 623799.6 27963.2 Q 623554.8 27251.6 622840.8 26489.6 Q 624315.6 25678.4 624315.6 24400.4 L 624315.6 12284 L 626133.6 12284 L 626133.6 25186.4 L 631369.2 23982.8 L 631369.2 10269.2 L 633236.4 10269.2 Z M 644322 22557.2 Q 644322 23319.2 644419.2 24106.4 Q 638521.2 25679.6 637956 26097.2 Q 637807.2 25457.6 637414.8 24549.2 Q 637956 24452 639135.6 22902.8 Q 640167.6 21526.4 641347.2 19559.6 Q 638300.4 19977.2 637807.2 20247.2 Q 637635.6 19583.6 637218 18600.8 Q 637783.2 18477.2 638545.2 17076.8 Q 640240.8 14519.6 641642.4 10121.6 L 643239.6 10859.6 Q 641593.2 15060.8 639504 18280.4 L 642231.6 18010.4 Q 642969.6 16684.4 643633.2 15234.8 L 645082.8 16046 Q 642895.2 20370.8 640486.8 23492 L 644320.8 22557.2 L 644322 22557.2 Z M 644492.4 28233.2 L 637783.2 30838.4 L 637341.6 29118.8 Q 639602.4 28455.2 644197.2 26711.6 L 644491.2 28234.4 L 644492.4 28233.2 Z M 647540.4 20222 Q 647540.4 28601.6 645132 32657.6 Q 644590.8 32043.2 643803.6 31576.4 Q 645892.8 28013.6 645892.8 20223.2 L 645892.8 11966 L 652184.4 11966 Q 651890.4 11055.2 651520.8 10146.8 L 653143.2 9778.4 Q 653463.6 10440.8 654028.8 11966 L 659312.4 11966 L 659312.4 13588.4 L 647541.6 13588.4 L 647541.6 20223.2 L 647540.4 20222 Z M 652873.2 22163.6 L 652873.2 19853.6 L 650292 19853.6 L 650292 22163.6 L 652873.2 22163.6 Z M 650293.2 18575.6 L 652874.4 18575.6 L 652874.4 16313.6 L 650293.2 16313.6 L 650293.2 18575.6 Z M 656732.4 16313.6 L 654274.8 16313.6 L 654274.8 18575.6 L 656732.4 18575.6 L 656732.4 16313.6 Z M 656732.4 19852.4 L 654274.8 19852.4 L 654274.8 22162.4 L 656732.4 22162.4 L 656732.4 19852.4 Z M 659534.4 30176 L 659534.4 31773.2 L 647319.6 31773.2 L 647319.6 30176 L 652776 30176 L 652776 27398 L 648475.2 27398 L 648475.2 25824.8 L 652776 25824.8 L 652776 23808.8 L 652873.2 23808.8 L 652873.2 23514.8 L 648866.4 23514.8 L 648866.4 14937.2 L 658206 14937.2 L 658206 23514.8 L 654274.8 23514.8 L 654274.8 23808.8 L 654372 23808.8 L 654372 25824.8 L 658648.8 25824.8 L 658648.8 27398 L 654372 27398 L 654372 30176 L 659533.2 30176 L 659534.4 30176 Z " fill-rule="nonzero" style="fill:#ffffff;;fill-opacity:1;"/>
</svg>