<svg version="1.1" x="0" y="0" width="100%" height="100%" viewBox="0 0 280268.8 54118.4" xmlns="http://www.w3.org/2000/svg">
  <path d="M 171365.35 29731.35 Q 172476.6 26112.35 172835.35 20377.6 L 175845.35 20771.35 Q 175703.6 26112.35 174448.85 30769.1 L 171367.1 29731.35 L 171365.35 29731.35 Z M 198784.35 38512.85 L 198784.35 36866.1 L 188067.35 36866.1 L 188067.35 38512.85 L 198784.35 38512.85 Z M 188067.35 32167.35 L 188067.35 33852.6 L 198784.35 33852.6 L 198784.35 32167.35 L 188067.35 32167.35 Z M 202798.85 42705.85 Q 202798.85 45430.6 201148.6 46146.35 Q 199895.6 46755.35 195630.85 46755.35 Q 195378.85 44998.35 194482.85 43136.35 Q 195450.6 43206.35 198103.6 43206.35 Q 198784.35 43206.35 198784.35 42634.1 L 198784.35 41451.1 L 188067.35 41451.1 L 188067.35 46827.1 L 184124.6 46827.1 L 184124.6 29048.85 L 202798.85 29048.85 L 202798.85 42704.1 L 202798.85 42705.85 Z M 205199.85 24642.35 L 205199.85 27687.35 L 181723.6 27687.35 L 181723.6 24642.35 L 191222.6 24642.35 L 191222.6 23100.6 L 183802.6 23100.6 L 183874.35 23280.85 L 181079.6 24644.1 Q 180647.35 22923.85 179751.35 20699.6 L 179751.35 46755.35 L 175917.1 46755.35 L 175917.1 13316.35 L 179751.35 13316.35 L 179751.35 19051.1 L 181795.35 18190.1 Q 183050.1 20771.35 183800.85 23065.6 L 183800.85 20235.85 L 191220.85 20235.85 L 191220.85 18800.85 L 182833.1 18800.85 L 182833.1 15755.85 L 191220.85 15755.85 L 191220.85 13318.1 L 195448.85 13318.1 L 195448.85 15755.85 L 204121.85 15755.85 L 204121.85 18800.85 L 195448.85 18800.85 L 195448.85 20235.85 L 203155.85 20235.85 L 203155.85 23100.6 L 195448.85 23100.6 L 195448.85 24642.35 L 205198.1 24642.35 L 205199.85 24642.35 Z M 213729.35 24498.85 Q 212079.1 21417.1 207921.1 16760.35 L 211219.85 14466.1 Q 215734.85 19374.85 217274.85 21882.6 L 213727.6 24498.85 L 213729.35 24498.85 Z M 217383.35 33565.6 Q 214231.6 40089.6 211111.35 45358.85 L 207420.6 42599.1 Q 210647.6 37868.85 214231.6 30770.85 L 217383.35 33565.6 Z M 223835.6 26220.85 L 234265.6 26220.85 L 234265.6 18837.6 L 223835.6 18837.6 L 223835.6 26220.85 Z M 236773.35 42525.6 Q 237275.6 42525.6 237455.85 41594.6 Q 237636.1 40698.6 237707.85 37473.35 Q 238960.85 38476.1 241433.6 39156.85 Q 241181.6 43278.1 240250.6 44854.85 Q 239354.6 46359.85 237205.6 46359.85 L 234445.85 46359.85 Q 231938.1 46359.85 231077.1 45211.85 Q 230252.85 44139.1 230252.85 41127.35 L 230252.85 30160.1 L 227206.1 30160.1 Q 226884.1 37006.1 225379.1 40339.85 Q 223441.85 44602.85 218424.6 46753.6 Q 217456.85 44674.6 215916.85 43311.35 Q 220144.85 41664.6 221649.85 38330.85 Q 222797.85 35823.1 223013.1 30160.1 L 219609.35 30160.1 L 219609.35 14893.1 L 238819.1 14893.1 L 238819.1 30160.1 L 234519.35 30160.1 L 234519.35 41127.35 Q 234519.35 42060.1 234626.1 42275.35 Q 234767.85 42525.6 235235.1 42525.6 L 236775.1 42525.6 L 236773.35 42525.6 Z M 276771.35 27403.85 L 276771.35 32025.6 L 243799.6 32025.6 L 243799.6 27403.85 L 276771.35 27403.85 Z " fill-rule="nonzero" style="fill:#c35954;;fill-opacity:1;"/>
</svg>