<svg version="1.1" x="0" y="0" width="100%" height="100%" viewBox="0 0 393318.4 54118.4" xmlns="http://www.w3.org/2000/svg">
  <path d="M 117630.95 18620.6 L 109279.95 18620.6 L 109279.95 16219.6 L 117630.95 16219.6 L 117630.95 13711.85 L 120247.2 13711.85 L 120247.2 16219.6 L 129565.95 16219.6 L 129565.95 13711.85 L 132182.2 13711.85 L 132182.2 16219.6 L 140820.2 16219.6 L 140820.2 18620.6 L 132182.2 18620.6 L 132182.2 21093.35 L 132362.45 21021.6 Q 132936.45 21989.35 133797.45 23926.6 L 140284.7 23926.6 L 140284.7 26255.85 L 124226.7 26255.85 L 124226.7 23926.6 L 130785.7 23926.6 Q 130213.45 22456.6 129819.7 21810.85 L 132113.95 21095.1 L 129567.7 21095.1 L 129567.7 18622.35 L 120248.95 18622.35 L 120248.95 21095.1 L 117632.7 21095.1 L 117632.7 18622.35 L 117630.95 18620.6 Z M 112972.45 37366.6 L 112972.45 41774.85 L 120607.7 41774.85 L 120607.7 37366.6 L 112972.45 37366.6 Z M 112972.45 26397.6 L 112972.45 30485.6 L 119531.45 30485.6 L 119531.45 26397.6 L 112972.45 26397.6 Z M 112972.45 35250.85 L 122973.7 35250.85 L 122973.7 45430.6 L 120607.7 45430.6 L 120607.7 43925.6 L 112972.45 43925.6 L 112972.45 46109.6 L 110501.45 46109.6 L 110501.45 24248.6 L 114227.2 24248.6 Q 114981.45 22241.35 115266.7 20878.1 L 118099.95 21306.85 L 116881.95 24246.85 L 122005.95 24246.85 L 122005.95 32597.85 L 112974.2 32597.85 L 112974.2 35249.1 L 112972.45 35250.85 Z M 133295.2 33710.85 L 133295.2 37545.1 L 140246.2 37545.1 L 140246.2 39876.1 L 133295.2 39876.1 L 133295.2 46435.1 L 130713.95 46435.1 L 130713.95 39876.1 L 124189.95 39876.1 L 124189.95 37545.1 L 130713.95 37545.1 L 130713.95 33710.85 L 123078.7 33710.85 L 123078.7 31344.85 L 128025.95 31344.85 Q 127558.7 29124.1 126303.95 27010.1 L 128311.2 26329.35 Q 129781.2 28695.35 130139.95 30664.1 L 128241.2 31344.85 L 133330.2 31344.85 Q 134619.95 29124.1 135657.7 26399.35 L 138058.7 27080.1 Q 136625.45 29913.35 135801.2 31346.6 L 141177.2 31346.6 L 141177.2 33712.6 L 133293.45 33712.6 L 133295.2 33710.85 Z M 148562.2 25501.6 L 145945.95 25501.6 L 145945.95 17724.6 L 159849.7 17724.6 Q 159168.95 15969.35 158202.95 14212.35 L 160784.2 13461.6 Q 162217.45 15897.6 162898.2 17724.6 L 175657.45 17724.6 L 175657.45 25501.6 L 172969.45 25501.6 L 172969.45 20270.85 L 148562.2 20270.85 L 148562.2 25501.6 Z M 162143.95 42742.6 Q 164474.95 43206.35 168022.2 43206.35 Q 175442.2 43206.35 177162.45 43136.35 Q 176446.7 44282.6 176159.7 45824.35 L 167880.45 45824.35 Q 161750.2 45824.35 158272.95 44426.1 Q 154116.7 42740.85 151822.45 38437.6 Q 149958.7 43528.35 146481.45 46538.35 Q 145550.45 45462.1 144330.7 44707.85 Q 149743.45 40551.6 151033.2 30121.6 L 153684.45 30408.6 Q 153397.45 32702.85 152860.2 35032.1 Q 154723.95 40227.85 159419.2 42019.85 L 159419.2 27220.1 L 150530.95 27220.1 L 150530.95 24673.85 L 171280.7 24673.85 L 171280.7 27220.1 L 162140.45 27220.1 L 162140.45 33059.85 L 172750.7 33059.85 L 172750.7 35571.1 L 162140.45 35571.1 L 162140.45 42739.1 L 162143.95 42742.6 Z M 209168.2 17152.35 L 204758.2 17152.35 L 204758.2 22026.1 L 209168.2 22026.1 L 209168.2 17152.35 Z M 211317.2 24103.35 L 202679.2 24103.35 L 202679.2 15073.35 L 211317.2 15073.35 L 211317.2 24103.35 Z M 192894.95 26327.6 L 210099.2 26327.6 L 210099.2 28548.35 L 192894.95 28548.35 L 192894.95 26327.6 Z M 198235.95 17152.35 L 194258.2 17152.35 L 194258.2 22026.1 L 198235.95 22026.1 L 198235.95 17152.35 Z M 200495.2 24103.35 L 192107.45 24103.35 L 192107.45 15073.35 L 200495.2 15073.35 L 200495.2 24103.35 Z M 187592.45 21453.85 Q 186229.2 19661.85 182464.95 16149.6 L 184186.95 14534.35 Q 188092.95 17976.6 189417.7 19588.35 L 187590.7 21452.1 L 187592.45 21453.85 Z M 192250.95 37543.35 Q 192644.7 39193.6 193038.45 39837.6 Q 186085.7 44998.35 185476.7 45787.6 Q 184937.7 44711.35 184006.7 43925.6 Q 185763.7 42348.85 185763.7 40233.1 L 185763.7 27295.35 L 180457.7 27295.35 L 180457.7 24824.35 L 188306.45 24824.35 L 188306.45 40306.6 L 192249.2 37546.85 L 192250.95 37543.35 Z M 198918.45 33458.85 L 198129.2 36253.6 L 209883.95 36253.6 L 209812.2 37401.6 Q 209203.2 44067.35 207948.45 45178.6 Q 207017.45 46074.6 205045.2 46109.6 Q 202572.45 46181.35 198631.45 45966.1 Q 198559.7 44783.1 197735.45 43636.85 Q 200817.2 43923.85 204149.2 43923.85 Q 205438.95 43923.85 205797.7 43600.1 Q 206586.95 42884.35 207050.7 38511.1 L 194686.95 38511.1 Q 195476.2 36432.1 196230.45 33457.1 L 190422.2 33457.1 L 190422.2 31162.85 L 212715.45 31162.85 L 212715.45 33457.1 L 198918.45 33457.1 L 198918.45 33458.85 Z M 233253.45 20736.35 Q 232177.2 18405.35 229524.2 14714.6 L 231818.45 13531.6 Q 234651.7 17115.6 235689.45 19339.85 L 233253.45 20738.1 L 233253.45 20736.35 Z M 245617.2 21954.35 Q 238342.45 32778.1 225940.2 40448.35 Q 226514.2 40877.1 226871.2 41092.35 Q 229524.2 42777.6 236048.2 42777.6 Q 242748.95 42777.6 248949.2 42133.6 Q 248233.45 43673.6 248161.7 44998.35 Q 242321.95 45392.1 235943.2 45392.1 Q 229384.2 45392.1 226337.45 43458.35 Q 223075.45 41379.35 222968.7 41379.35 Q 221608.95 41379.35 218453.7 45824.35 L 216481.45 43386.6 Q 220639.45 38871.6 223005.45 38871.6 Q 223182.2 38871.6 223469.2 38941.6 Q 234114.45 32779.85 241067.2 23352.6 L 218308.45 23352.6 L 218308.45 20771.35 L 243039.45 20771.35 L 243613.45 20591.1 L 245620.7 21954.35 L 245617.2 21954.35 Z M 262963.2 16004.35 Q 261708.45 18155.1 259666.2 20556.1 Q 262032.2 25107.85 262032.2 32884.85 Q 262032.2 42131.85 260240.2 44602.85 Q 259450.95 45535.6 258231.2 45750.85 Q 256691.2 46072.85 254183.45 45892.6 Q 254183.45 44567.85 253429.2 43349.85 Q 255866.95 43491.6 257156.7 43384.85 Q 257907.45 43278.1 258301.2 42740.85 Q 259484.2 41199.1 259484.2 32848.1 Q 259484.2 31630.1 259449.2 31021.1 Q 256761.2 35107.35 253679.45 37615.1 Q 252890.2 36325.35 251887.45 35609.6 Q 256402.45 32562.85 259090.45 27045.1 Q 258661.7 24357.1 257837.45 22493.35 Q 255651.7 24679.1 253500.95 26184.1 Q 253072.2 25468.35 251782.45 24357.1 Q 254325.2 22565.1 256619.45 20164.1 Q 255151.2 17904.85 252965.45 15971.1 L 254827.45 14536.1 Q 256726.2 16186.35 258267.95 18265.35 Q 259988.2 16186.35 260919.2 14429.35 L 262963.2 16006.1 L 262963.2 16004.35 Z M 266905.95 29874.85 L 266905.95 34787.1 L 272388.7 34787.1 L 272388.7 29874.85 L 266905.95 29874.85 Z M 280345.95 29874.85 L 274824.7 29874.85 L 274824.7 34787.1 L 280345.95 34787.1 L 280345.95 29874.85 Z M 280345.95 42168.6 L 280345.95 37114.6 L 274824.7 37114.6 L 274824.7 42168.6 L 280345.95 42168.6 Z M 266905.95 42168.6 L 272388.7 42168.6 L 272388.7 37114.6 L 266905.95 37114.6 L 266905.95 42168.6 Z M 264468.2 27473.85 L 282890.45 27473.85 L 282890.45 46219.85 L 280347.7 46219.85 L 280347.7 44534.6 L 266907.7 44534.6 L 266907.7 46396.6 L 264469.95 46396.6 L 264469.95 27473.85 L 264468.2 27473.85 Z M 284215.2 18800.85 L 284215.2 21238.6 L 279378.2 21238.6 L 279378.2 25895.35 L 276796.95 25895.35 L 276796.95 21238.6 L 270524.95 21238.6 L 270524.95 25895.35 L 267943.7 25895.35 L 267943.7 21238.6 L 262889.7 21238.6 L 262889.7 18800.85 L 267943.7 18800.85 L 267943.7 13711.85 L 270524.95 13711.85 L 270524.95 18800.85 L 276796.95 18800.85 L 276796.95 13711.85 L 279378.2 13711.85 L 279378.2 18800.85 L 284215.2 18800.85 Z " fill-rule="nonzero" style="fill:#ffffff;;fill-opacity:1;"/>
</svg>