<svg version="1.1" x="0" y="0" width="100%" height="100%" viewBox="0 0 416051.2 54118.4" xmlns="http://www.w3.org/2000/svg">
  <path d="M 114232.6 41916.6 Q 113478.35 40269.85 111758.1 37510.1 Q 108889.85 43173.1 104409.85 46757.1 Q 102939.85 44497.85 101364.85 43314.85 Q 105879.85 40089.6 108889.85 33315.35 Q 106060.1 29444.35 102369.35 25251.35 L 105521.1 22705.1 Q 109250.35 26934.85 110648.6 28620.1 Q 111901.6 24390.35 112512.35 20017.1 L 102619.6 20017.1 L 102619.6 15969.35 L 113586.85 15969.35 L 114341.1 15789.1 L 117100.85 16578.35 Q 116239.85 25932.1 113838.85 32632.85 Q 116742.1 36684.1 117818.35 38904.85 L 114234.35 41914.85 L 114232.6 41916.6 Z M 122296.6 20018.85 Q 123372.85 27116.85 125558.6 32169.1 Q 128174.85 26973.35 129286.1 20020.6 L 122298.35 20020.6 L 122296.6 20018.85 Z M 133909.6 16541.6 Q 132689.85 29050.6 128068.1 36757.6 Q 130862.85 40985.6 134984.1 43136.35 Q 133298.85 44569.6 131974.1 46828.85 Q 127996.35 44462.85 125308.35 40591.85 Q 122118.1 44282.6 117603.1 46683.6 Q 116274.85 44282.6 114769.85 42992.85 Q 119536.85 40807.1 122870.6 36433.85 Q 119930.6 30377.1 118283.85 20270.85 L 119930.6 20018.85 L 118138.6 20018.85 L 118138.6 15971.1 L 130395.6 15971.1 L 131111.35 15790.85 L 133909.6 16541.6 Z M 150896.85 23317.6 Q 150287.85 20592.85 148602.6 15645.6 L 151719.35 14499.35 Q 153763.35 20234.1 154230.6 21915.85 L 150896.85 23315.85 L 150896.85 23317.6 Z M 149031.35 40913.85 Q 145699.35 42277.1 138673.1 45071.85 L 137777.1 41020.6 Q 139499.1 40556.85 148352.35 37653.6 L 149031.35 40913.85 Z M 154123.85 40089.6 Q 155805.6 41200.85 155663.85 41129.1 Q 157814.6 42599.1 162329.6 42599.1 Q 167168.35 42599.1 171002.6 41990.1 Q 170213.35 44249.35 170106.6 45934.6 Q 166380.85 46221.6 162257.85 46221.6 Q 157814.6 46221.6 155196.6 44464.6 Q 152688.85 42779.35 152438.6 42779.35 Q 151362.35 42779.35 149211.6 46722.1 L 147025.85 43138.1 Q 148711.1 41129.1 150539.85 40017.85 L 150539.85 29124.1 L 148028.6 29124.1 L 148028.6 25646.85 Q 145986.35 29411.1 143765.6 32562.85 L 148817.85 31703.6 Q 148602.6 33315.35 148674.35 35179.1 Q 140143.1 36864.35 138960.1 37508.35 Q 138531.35 35823.1 137742.1 34031.1 Q 138673.1 33780.85 140214.85 31665.1 Q 141075.85 30627.35 142474.1 28226.35 Q 139462.35 28620.1 138711.6 29013.85 Q 138244.35 27185.1 137313.35 25216.35 Q 138209.35 24929.35 139175.35 22992.1 Q 141361.1 18727.35 142474.1 13209.6 L 146486.85 14929.85 Q 144875.1 20125.6 142115.35 24822.6 L 144374.6 24677.35 Q 145377.35 22705.1 146166.6 20662.85 L 149533.6 22635.1 Q 148854.6 24140.1 148028.6 25645.1 L 154123.85 25645.1 L 154123.85 40087.85 L 154123.85 40089.6 Z M 160644.35 36433.85 L 160644.35 35035.6 L 155949.1 35035.6 L 155949.1 32384.35 L 160644.35 32384.35 L 160644.35 31201.35 L 155340.1 31201.35 L 155340.1 28441.6 L 160644.35 28441.6 L 160644.35 26829.85 L 164480.35 26829.85 L 164480.35 28441.6 L 169497.6 28441.6 L 169497.6 31201.35 L 164480.35 31201.35 L 164480.35 32384.35 L 168493.1 32384.35 L 168493.1 35035.6 L 164480.35 35035.6 L 164480.35 36433.85 L 169856.35 36433.85 L 169856.35 39267.1 L 164480.35 39267.1 L 164480.35 41739.85 L 160644.35 41739.85 L 160644.35 39267.1 L 154909.6 39267.1 L 154909.6 36433.85 L 160644.35 36433.85 Z M 160178.85 19052.85 Q 161111.6 20235.85 162436.35 21201.85 Q 163619.35 20270.85 164695.6 18765.85 L 160465.85 18765.85 L 160178.85 19052.85 Z M 169749.6 16721.85 Q 168349.6 20486.1 165554.85 23102.35 Q 168207.85 24392.1 171254.6 24931.1 Q 169926.35 26114.1 168960.35 27941.1 Q 165770.1 27116.85 162723.35 25253.1 Q 159783.35 27010.1 155770.6 28082.85 Q 155019.85 26327.6 153836.85 25072.85 Q 157240.6 24392.1 159856.85 22923.85 Q 159212.85 22313.1 158136.6 21023.35 Q 156846.85 22029.6 156166.1 22458.35 Q 155235.1 20773.1 154015.35 19555.1 Q 158460.35 16973.85 160397.6 13174.6 L 163657.85 14177.35 Q 163194.1 15108.35 162691.85 15862.6 L 166704.6 15862.6 L 167385.35 15755.85 L 169751.35 16721.85 L 169749.6 16721.85 Z M 206268.6 32167.35 L 192364.85 32167.35 L 192364.85 46790.35 L 187597.85 46790.35 L 187597.85 32167.35 L 174051.1 32167.35 L 174051.1 27687.35 L 187597.85 27687.35 L 187597.85 19982.1 L 175878.1 19982.1 L 175878.1 15573.85 L 204621.85 15573.85 L 204621.85 19982.1 L 192364.85 19982.1 L 192364.85 27687.35 L 206268.6 27687.35 L 206268.6 32167.35 Z M 217307.6 20771.35 Q 215587.35 18979.35 211035.6 16828.6 L 213329.85 13711.85 Q 217594.6 15397.1 219780.35 17295.85 L 217307.6 20773.1 L 217307.6 20771.35 Z M 215515.6 30091.85 Q 213366.6 28154.6 209136.85 26327.6 L 211431.1 23100.6 Q 215695.85 24750.85 217955.1 26542.85 L 215517.35 30091.85 L 215515.6 30091.85 Z M 218812.6 34893.85 Q 216196.35 41416.1 213615.1 46363.35 L 209780.85 43855.6 Q 212645.6 38943.35 215405.35 32421.1 L 218809.1 34893.85 L 218812.6 34893.85 Z M 232971.85 27545.6 L 232971.85 37294.85 Q 236016.85 34461.6 237558.6 29589.6 L 241751.6 30770.85 Q 239420.6 38010.6 234331.6 41774.85 Q 229529.6 45287.1 220641.35 46898.85 Q 219887.1 44534.6 218488.85 42957.85 Q 228344.85 41594.6 232859.85 37401.6 L 228451.6 37401.6 L 228451.6 27545.6 L 219062.85 27545.6 L 219062.85 23819.85 L 222037.85 23819.85 L 222037.85 16793.6 L 226159.1 16793.6 L 226159.1 23819.85 L 228883.85 23819.85 L 228883.85 13353.1 L 233292.1 13353.1 L 233292.1 17295.85 L 241210.85 17295.85 L 241210.85 20808.1 L 233292.1 20808.1 L 233292.1 23819.85 L 242502.35 23819.85 L 242502.35 27545.6 L 232970.1 27545.6 L 232971.85 27545.6 Z M 227056.85 29981.6 Q 225658.6 34713.6 223509.6 38404.35 Q 222181.35 37401.6 220067.35 36325.35 Q 222039.6 33173.6 223077.35 28943.85 L 227055.1 29981.6 L 227056.85 29981.6 Z M 250961.85 24857.6 L 246697.1 24857.6 L 246697.1 16686.85 L 259815.1 16686.85 Q 259206.1 15253.6 258597.1 14212.35 L 262861.85 12887.6 Q 264186.6 15001.6 264902.35 16686.85 L 276982.6 16686.85 L 276982.6 24857.6 L 272502.6 24857.6 L 272502.6 20664.6 L 250961.85 20664.6 L 250961.85 24857.6 Z M 257340.6 28154.6 Q 255765.6 26255.85 252251.6 24176.85 L 254724.35 21417.1 Q 258308.35 23174.1 260028.6 25111.35 L 257340.6 28156.35 L 257340.6 28154.6 Z M 251033.6 26649.6 Q 254724.35 28441.6 256444.6 30198.6 L 253901.85 33350.35 Q 252216.6 31488.35 248597.6 29516.1 L 251033.6 26647.85 L 251033.6 26649.6 Z M 263148.85 37401.6 Q 259780.1 44140.85 249028.1 46722.1 Q 248382.35 44784.85 246662.1 43064.6 Q 254832.85 41307.6 257949.6 37401.6 L 246373.35 37401.6 L 246373.35 33817.6 L 259850.1 33817.6 Q 260922.85 30735.85 261174.85 22204.6 L 265689.85 22204.6 Q 265439.6 30091.85 264436.85 33817.6 L 277409.6 33817.6 L 277409.6 37401.6 L 263145.35 37401.6 L 263148.85 37401.6 Z M 264832.35 38117.35 Q 272177.1 40161.35 277446.35 43206.35 L 274830.1 46613.6 Q 270315.1 43531.85 262860.1 41237.6 L 264832.35 38117.35 Z M 290063.85 38871.6 L 281210.6 40950.6 L 280529.85 37653.6 Q 282537.1 37294.85 289741.85 35718.1 L 290063.85 38873.35 L 290063.85 38871.6 Z M 308736.35 24248.6 Q 305903.1 21740.85 303682.35 19159.6 Q 301925.35 21595.6 299237.35 24248.6 L 308736.35 24248.6 Z M 298663.35 24785.85 Q 296694.6 26507.85 295117.85 27580.6 Q 294076.6 25753.6 292678.35 24141.85 Q 292463.1 27258.6 292176.1 29839.85 L 294935.85 29839.85 L 294864.1 31381.6 Q 294291.85 43421.6 292891.85 44998.35 Q 291960.85 46146.35 290168.85 46361.6 Q 288770.6 46503.35 285795.6 46396.6 Q 285723.85 44534.6 284757.85 42992.85 Q 286730.1 43173.1 288485.35 43173.1 Q 289309.6 43173.1 289741.85 42744.35 Q 290709.6 41668.1 291138.35 33175.35 L 281891.35 33175.35 Q 282535.35 28191.35 282822.35 20594.6 L 286443.1 20809.85 Q 286227.85 24826.1 285795.6 29878.35 L 288590.35 29878.35 Q 289129.35 25398.35 289523.1 18195.35 L 281422.35 18195.35 L 281422.35 14611.35 L 293250.6 14611.35 Q 293000.35 19450.1 292641.6 24145.35 Q 299594.35 19915.6 303033.1 12892.85 L 306723.85 14182.6 Q 306438.6 14754.85 305792.85 15902.85 Q 309950.85 20634.85 314898.1 23286.1 Q 313856.85 24862.85 312960.85 27515.85 Q 311240.6 26367.85 309698.85 25078.1 L 309698.85 27837.85 L 298659.85 27837.85 L 298659.85 24791.1 L 298663.35 24785.85 Z M 303755.85 38619.6 Q 303503.85 35502.85 302427.6 30161.85 L 305654.6 29698.1 Q 306837.6 34606.85 307159.6 38119.1 L 303755.85 38621.35 L 303755.85 38619.6 Z M 298127.85 39622.35 Q 297805.85 36540.6 296264.1 31164.6 L 299491.1 30305.35 Q 300924.35 34498.35 301570.1 38656.35 L 298127.85 39622.35 Z M 314005.6 30735.85 Q 311459.35 37868.85 309667.35 41629.6 L 313932.1 41629.6 L 313932.1 45213.6 L 295366.35 45213.6 L 295366.35 41629.6 L 306083.35 41629.6 Q 308806.35 35716.35 310134.6 29911.6 L 314005.6 30735.85 Z " fill-rule="nonzero" style="fill:#ffffff;;fill-opacity:1;"/>
</svg>