<svg version="1.1" x="0" y="0" width="100%" height="100%" viewBox="0 0 310579.2 77004.8" xmlns="http://www.w3.org/2000/svg">
  <path d="M 59200.4 28750.4 L 63204.8 28750.4 L 63204.8 15306.8 L 60011.6 15306.8 L 60011.6 13881.2 Q 62247.2 13463.6 63746 12603.2 L 65465.6 12603.2 L 65465.6 28750.4 L 69078.8 28750.4 L 69078.8 30617.6 L 59200.4 30617.6 L 59200.4 28750.4 Z M 73332.4 29585.6 Q 71710 28233.2 71710 26144 Q 71710 22974.8 75028 21180.8 L 75028 21057.2 Q 72594.4 19385.6 72594.4 16904 Q 72594.4 14864 73996 13587.2 Q 75396.4 12333.2 77536 12333.2 Q 79796.8 12333.2 81146.8 13661.6 Q 82475.2 14963.6 82475.2 17076.8 Q 82475.2 19558.4 80066.8 21425.6 L 80066.8 21549.2 Q 83113.6 23319.2 83113.6 26267.6 Q 83113.6 28258.4 81566.8 29586.8 Q 79968.4 30939.2 77461.6 30939.2 Q 74980 30939.2 73333.6 29586.8 L 73332.4 29585.6 Z M 80558.8 17198 Q 80558.8 15821.6 79747.6 14913.2 Q 78887.2 13978.4 77486.8 13978.4 Q 76232.8 13978.4 75446.8 14789.6 Q 74635.6 15600.8 74635.6 16902.8 Q 74635.6 18352.4 75864.4 19360.4 Q 76724.8 20048 78689.2 20835.2 Q 80557.6 19188.8 80557.6 17196.8 L 80558.8 17198 Z M 80017.6 28406 Q 80976.4 27569.6 80976.4 26219.6 Q 80976.4 24597.2 79550.8 23516 Q 78666.4 22852.4 76208.8 21869.6 Q 73751.2 23442.8 73751.2 25949.6 Q 73751.2 27374 74832.4 28334 Q 75888.4 29266.4 77510.8 29266.4 Q 79060 29266.4 80018.8 28407.2 L 80017.6 28406 Z M 86900.4 28601.6 Q 85377.6 26144 85377.6 21549.2 Q 85377.6 16954.4 86900.4 14546 Q 88350 12260 91004.4 12260 Q 93634.8 12260 95084.4 14570 Q 96607.2 16978.4 96607.2 21549.2 Q 96607.2 26144 95084.4 28601.6 Q 93634.8 30938 91004.4 30938 Q 88375.2 30938 86900.4 28601.6  Z M 94420.8 21549.2 Q 94420.8 14079.2 91004.4 14079.2 Q 87564 14079.2 87564 21549.2 Q 87564 29142.8 91004.4 29142.8 Q 94420.8 29142.8 94420.8 21549.2  Z M 102606.8 30617.6 Q 103024.4 21033.2 107669.6 14519.6 L 98946.8 14519.6 L 98946.8 12603.2 L 110226.8 12603.2 L 110226.8 13955.6 Q 107228 17813.6 106096.4 21672.8 Q 105164 24892.4 104942 30618.8 L 102608 30618.8 L 102606.8 30617.6 Z M 123917.2 25112 L 123917.2 20246 L 118411.6 20246 L 118411.6 25112 L 123917.2 25112 Z M 134656 26882 L 125760.4 26882 L 125760.4 32511.2 L 123917.2 32511.2 L 123917.2 26882 L 112561.6 26882 L 112561.6 25112 L 116592.4 25112 L 116592.4 18526.4 L 123917.2 18526.4 L 123917.2 14790.8 L 117944.8 14790.8 Q 116274.4 17642 114209.2 19632.8 Q 113226.4 18772.4 112636 18478.4 Q 116322.4 15258.8 118165.6 9999.2 L 120008.8 10440.8 Q 119543.2 11621.6 118879.6 13022 L 133525.6 13022 L 133525.6 14792 L 125760.4 14792 L 125760.4 18527.6 L 132960.4 18527.6 L 132960.4 20247.2 L 125760.4 20247.2 L 125760.4 25113.2 L 134656 25113.2 L 134656 26883.2 L 134656 26882 Z M 150924.4 22336.4 Q 150506.8 22484 147704.8 23319.2 L 147704.8 30177.2 Q 147704.8 31577.6 146796.4 31971.2 Q 146082.4 32315.6 143477.2 32315.6 Q 143380 31628 142913.2 30620 Q 143503.6 30644 145420 30644 Q 145910.8 30644 145910.8 30178.4 L 145910.8 23861.6 L 142862.8 24746 L 142321.6 22952 Q 143623.6 22655.6 145909.6 22041.2 L 145909.6 16708.4 L 142616.8 16708.4 L 142616.8 15012.8 L 145909.6 15012.8 L 145909.6 10073.6 L 147703.6 10073.6 L 147703.6 15012.8 L 150800.8 15012.8 L 150800.8 16708.4 L 147703.6 16708.4 L 147703.6 21550.4 L 150702.4 20666 L 150923.2 22337.6 L 150924.4 22336.4 Z M 162206.8 30297.2 Q 162796 30297.2 162992.8 29511.2 Q 163165.6 28823.6 163238.8 26366 Q 164000.8 26955.2 164935.6 27177.2 Q 164762.8 30003.2 164272 30962 Q 163754.8 32019.2 162329.2 32019.2 L 159012.4 32019.2 Q 157487.2 32019.2 156948.4 31404.8 Q 156431.2 30790.4 156431.2 29044.4 L 156431.2 21941.6 L 151516 22703.6 L 151222 20984 L 156431.2 20222 L 156431.2 13757.6 Q 153776.8 14322.8 151933.6 14568.8 Q 151736.8 13806.8 151343.2 13092.8 Q 158347.6 11937.2 161592.4 10414.4 L 163165.6 11790.8 Q 161052.4 12675.2 158225.2 13338.8 L 158225.2 19949.6 L 164516.8 19014.8 L 164786.8 20686.4 L 158225.2 21693.2 L 158225.2 29066 Q 158225.2 29853.2 158398 30074 Q 158594.8 30294.8 159233.2 30294.8 L 162208 30294.8 L 162206.8 30297.2 Z M 183414.4 27398 L 167489.2 27398 L 167489.2 25652 L 183414.4 25652 L 183414.4 27398 Z M 188477.2 20960 Q 188453.2 21549.2 188404 21819.2 Q 187642 30396.8 186340 31673.6 Q 185652.4 32387.6 184374.4 32460.8 Q 182851.6 32558 180517.6 32410.4 Q 180468.4 31526 179951.2 30641.6 Q 181794.4 30814.4 183713.2 30814.4 Q 184499.2 30814.4 184793.2 30544.4 Q 185850.4 29609.6 186514 22654.4 L 170833.6 22654.4 Q 171300.4 19558.4 171618.4 15110 L 173413.6 15233.6 Q 173216.8 17691.2 172847.2 20960 L 182383.6 20960 Q 182777.2 17985.2 183244 13316 L 169357.6 13316 L 169357.6 11546 L 183562 11546 L 183858.4 11446.4 L 185184.4 11594 Q 184864 15846.8 184201.6 20958.8 L 188477.2 20958.8 L 188477.2 20960 Z M 195605.2 24915.2 L 200102.8 24915.2 L 200102.8 22409.6 L 195605.2 22409.6 L 195605.2 24915.2 Z M 195605.2 14937.2 L 195605.2 17174 L 200102.8 17174 L 200102.8 14937.2 L 195605.2 14937.2 Z M 195605.2 20934.8 L 200102.8 20934.8 L 200102.8 18650 L 195605.2 18650 L 195605.2 20934.8 Z M 203714.8 26562.8 L 191598.4 26562.8 L 191598.4 24915.2 L 193932.4 24915.2 L 193932.4 14937.2 L 191968 14937.2 L 191968 13290.8 L 193932.4 13290.8 L 193932.4 10292 L 195604 10292 L 195604 13290.8 L 200101.6 13290.8 L 200101.6 10292 L 201797.2 10292 L 201797.2 13290.8 L 203591.2 13290.8 L 203591.2 14937.2 L 201797.2 14937.2 L 201797.2 24915.2 L 203713.6 24915.2 L 203713.6 26562.8 L 203714.8 26562.8 Z M 196759.6 27545.6 Q 195530.8 30323.6 193367.2 32288 Q 192900.4 31797.2 191917.6 31208 Q 193932.4 29561.6 195040 27078.8 L 196759.6 27545.6 Z M 199806.4 27104 Q 201305.2 28725.2 202067.2 30176 L 200544.4 30986 Q 199906 29585.6 198380.8 27791.6 L 199806.4 27104 Z M 214110.4 19976 L 211529.2 19976 L 211529.2 32534 L 209809.6 32534 L 209809.6 19976 L 206172.4 19976 L 206172.4 21057.2 Q 206172.4 29020.4 202583.2 32854.4 Q 202165.6 32363.6 201257.2 31673.6 Q 204476.8 28257.2 204476.8 21033.2 L 204476.8 12603.2 Q 209785.6 11447.6 212438.8 10095.2 L 213913.6 11423.6 Q 211406.8 12603.2 206173.6 13782.8 L 206173.6 18256.4 L 214111.6 18256.4 L 214111.6 19976 L 214110.4 19976 Z M 220795.6 22900.4 Q 220304.8 22433.6 220304.8 21695.6 Q 220304.8 20933.6 220795.6 20442.8 Q 221237.2 19952 221924.8 19952 Q 222612.4 19952 223079.2 20442.8 Q 223546 20933.6 223546 21695.6 Q 223546 22433.6 223079.2 22900.4 Q 222588.4 23391.2 221924.8 23391.2 Q 221262.4 23391.2 220795.6 22900.4  Z M 237077.2 23072 Q 236756.8 22310 235207.6 19311.2 L 235207.6 32483.6 L 233488 32483.6 L 233488 20786 Q 232284.4 25110.8 230785.6 27495.2 Q 230416 26536.4 229850.8 25750.4 Q 232211.2 22284.8 233316.4 16485.2 L 230244.4 16485.2 L 230244.4 14765.6 L 233488 14765.6 L 233488 10047.2 L 235207.6 10047.2 L 235207.6 14765.6 L 238034.8 14765.6 L 238034.8 16485.2 L 235207.6 16485.2 L 235207.6 16952 L 238255.6 21719.6 L 237076 23069.6 L 237077.2 23072 Z M 252116.8 17912 Q 252092.8 18550.4 252067.6 18820.4 Q 251405.2 29952.8 250151.2 31403.6 Q 249536.8 32165.6 248504.8 32238.8 Q 247572.4 32362.4 245876.8 32238.8 Q 245876.8 31378.4 245410 30519.2 Q 246662.8 30640.4 247768 30640.4 Q 248334.4 30640.4 248604.4 30272 Q 249587.2 29240 250250.8 19654.4 L 248579.2 19654.4 Q 245974 28355.6 239485.6 32508.8 Q 238871.2 31942.4 238085.2 31451.6 Q 244450 27814.4 246907.6 19654.4 L 244253.2 19654.4 Q 242557.6 24374 238550.8 27224 Q 238133.2 26709.2 237200.8 26168 Q 240887.2 23858 242508.4 19654.4 L 241304.8 19654.4 Q 239509.6 19654.4 239165.2 19950.8 Q 238944.4 19212.8 238403.2 18230 Q 239165.2 18106.4 240960.4 17001.2 Q 243565.6 15402.8 246293.2 12945.2 L 238306 12945.2 L 238306 11201.6 L 248260 11201.6 L 248652.4 11028.8 L 250030 12060.8 Q 245826.4 15772.4 242434 17909.6 L 252116.8 17909.6 L 252116.8 17912 Z M 95017.2 54046 L 95017.2 56209.6 L 99121.2 56209.6 L 99121.2 54046 L 95017.2 54046 Z M 100767.6 54046 L 100767.6 56209.6 L 105043.2 56209.6 L 105043.2 54046 L 100767.6 54046 Z M 105043.2 59796.4 L 105043.2 57560.8 L 100767.6 57560.8 L 100767.6 59796.4 L 105043.2 59796.4 Z M 99121.2 59796.4 L 99121.2 57560.8 L 95017.2 57560.8 L 95017.2 59796.4 L 99121.2 59796.4 Z M 95017.2 65302 L 93271.2 65302 L 93271.2 52645.6 L 100226.4 52645.6 Q 97695.6 51391.6 95458.8 50556.4 L 96590.4 49524.4 Q 98163.6 50089.6 100154.4 50950 Q 101850 50138.8 103620 48860.8 L 93296.4 48860.8 L 93296.4 47411.2 L 105290.4 47411.2 L 105658.8 47314 L 106766.4 48173.2 Q 104750.4 50140 101751.6 51689.2 Q 102735.6 52130.8 103570.8 52648 L 106790.4 52648 L 106790.4 63461.2 Q 106790.4 64714 105955.2 65058.4 Q 105267.6 65354.8 102637.2 65354.8 Q 102513.6 64567.6 102145.2 63829.6 Q 102735.6 63854.8 104626.8 63854.8 Q 105044.4 63854.8 105044.4 63437.2 L 105044.4 61200.4 L 100768.8 61200.4 L 100768.8 65207.2 L 99122.4 65207.2 L 99122.4 61200.4 L 95018.4 61200.4 L 95018.4 65304.4 L 95017.2 65302 Z M 90150 52720 Q 88848 51024.4 85972.8 48517.6 L 87250.8 47485.6 Q 90249.6 49967.2 91478.4 51516.4 L 90150 52721.2 L 90150 52720 Z M 90667.2 64368.4 Q 90888 64492 91453.2 64909.6 Q 92092.8 65352.4 92534.4 65622.4 Q 94501.2 66826 98974.8 66826 Q 103275.6 66826 108042 66360.4 Q 107600.4 67416.4 107527.2 68154.4 Q 103299.6 68399.2 98925.6 68399.2 Q 94378.8 68399.2 92167.2 67049.2 Q 89881.2 65647.6 89784 65647.6 Q 88801.2 65647.6 86515.2 68695.6 L 85359.6 67196.8 Q 87547.2 64886.8 88899.6 64321.6 L 88899.6 57390.4 L 85459.2 57390.4 L 85459.2 55670.8 L 90668.4 55670.8 L 90668.4 64369.6 L 90667.2 64368.4 Z M 126572.4 52646.8 L 117135.6 52646.8 L 117135.6 50900.8 L 126572.4 50900.8 L 126572.4 46600 L 128390.4 46600 L 128390.4 50900.8 L 131782.8 50900.8 L 131782.8 52646.8 L 128390.4 52646.8 L 128390.4 62353.6 Q 128390.4 64024 127210.8 64393.6 Q 126228 64738 122565.6 64738 Q 122442 63877.6 121927.2 62894.8 Q 123697.2 62944 125908.8 62944 Q 126572.4 62918.8 126572.4 62353.6 L 126572.4 52646.8 Z M 119740.8 54587.2 Q 122370 57806.8 123254.4 59380 L 121707.6 60314.8 Q 120478.8 58030 118291.2 55375.6 L 119740.8 54588.4 L 119740.8 54587.2 Z M 114555.6 52302.4 Q 113424 50386 110942.4 48100 L 112342.8 47165.2 Q 114973.2 49574.8 116054.4 51245.2 L 114555.6 52302.4 Z M 115390.8 63902.8 Q 115563.6 64000 116152.8 64441.6 Q 116743.2 64860.4 117210 65154.4 Q 119101.2 66334 123598.8 66334 Q 127999.2 66334 132520.8 65867.2 Q 132003.6 66924.4 131955.6 67832.8 Q 128466 68078.8 123550.8 68078.8 Q 118905.6 68078.8 116792.4 66726.4 Q 114506.4 65276.8 114433.2 65276.8 Q 113524.8 65276.8 111188.4 68396.8 L 109911.6 66677.2 Q 112048.8 64367.2 113598 63778 L 113598 57388 L 110229.6 57388 L 110229.6 55668.4 L 115390.8 55668.4 L 115390.8 63901.6 L 115390.8 63902.8 Z M 136747.2 58322.8 L 138687.6 58322.8 L 138687.6 52326.4 L 136747.2 52326.4 L 136747.2 58322.8 Z M 141859.2 52326.4 L 139990.8 52326.4 L 139990.8 58322.8 L 141859.2 58322.8 L 141859.2 52326.4 Z M 142621.2 61272.4 Q 144096 64541.2 144685.2 67268.8 L 143284.8 67834 Q 143088 66826 142743.6 65746 Q 138787.2 66605.2 134854.8 67392.4 L 134610 65622.4 Q 136353.6 65352.4 138566.4 64909.6 L 138566.4 59873.2 L 136747.2 59873.2 L 136747.2 61126 L 135345.6 61126 L 135345.6 50804.8 L 138566.4 50804.8 L 138566.4 46625.2 L 140089.2 46625.2 L 140089.2 50804.8 L 143284.8 50804.8 L 143284.8 59873.2 L 140089.2 59873.2 L 140089.2 64615.6 L 142252.8 64222 Q 142056 63607.6 141318 61740.4 L 142620 61273.6 L 142621.2 61272.4 Z M 147436.8 59872 L 147436.8 62304.4 L 153753.6 62304.4 L 153753.6 59872 L 147436.8 59872 Z M 153753.6 66310 L 153753.6 63728.8 L 147436.8 63728.8 L 147436.8 66310 L 153753.6 66310 Z M 145742.4 58346.8 L 155499.6 58346.8 L 155499.6 68840.8 L 153753.6 68840.8 L 153753.6 67858 L 147436.8 67858 L 147436.8 68938 L 145742.4 68938 L 145742.4 58345.6 L 145742.4 58346.8 Z M 148935.6 54611.2 L 152180.4 54611.2 L 152180.4 51000.4 L 148935.6 51000.4 L 148935.6 54611.2 Z M 156973.2 54611.2 L 156973.2 56233.6 L 144096 56233.6 L 144096 54611.2 L 147241.2 54611.2 L 147241.2 51000.4 L 144610.8 51000.4 L 144610.8 49427.2 L 147241.2 49427.2 L 147241.2 46502.8 L 148935.6 46502.8 L 148935.6 49427.2 L 152180.4 49427.2 L 152180.4 46502.8 L 153876 46502.8 L 153876 49427.2 L 156505.2 49427.2 L 156505.2 51000.4 L 153876 51000.4 L 153876 54611.2 L 156972 54611.2 L 156973.2 54611.2 Z M 167638.8 51367.6 Q 167517.6 51712 166803.6 53996.8 Q 166288.8 55571.2 165968.4 56333.2 L 164836.8 55816 Q 165600 53604.4 166114.8 50704 L 167637.6 51367.6 L 167638.8 51367.6 Z M 161593.2 51638.8 Q 161396.4 55571.2 160512 57905.2 L 159186 57364 Q 160045.2 55176.4 160291.2 51464.8 L 161593.2 51637.6 L 161593.2 51638.8 Z M 166017.6 65916.4 Q 165254.4 64564 163633.2 62426.8 Q 162748.8 66236.8 160364.4 68891.2 Q 159799.2 68128 159061.2 67613.2 Q 162600 63632.8 162600 54982 L 162600 46700.8 L 164319.6 46700.8 L 164319.6 54982 Q 164319.6 58348 163999.2 60487.6 Q 165375.6 62010.4 167292 64615.6 L 166015.2 65917.6 L 166017.6 65916.4 Z M 169974 58764.4 L 173340 58764.4 L 173340 52940.8 L 169974 52940.8 L 169974 58764.4 Z M 178232.4 52940.8 L 175011.6 52940.8 L 175011.6 58764.4 L 178232.4 58764.4 L 178232.4 52940.8 Z M 180148.8 68891.2 Q 179952 68251.6 179410.8 66875.2 L 172824 67589.2 Q 168745.2 68054.8 167270.4 68203.6 L 166926 66408.4 Q 167860.8 66335.2 169801.2 66114.4 L 173290.8 65770 L 173290.8 60364 L 168302.4 60364 L 168302.4 51319.6 L 173241.6 51319.6 L 173241.6 46577.2 L 175084.8 46577.2 L 175084.8 51319.6 L 179976 51319.6 L 179976 60364 L 175084.8 60364 L 175084.8 65597.2 L 178723.2 65204.8 Q 178083.6 63679.6 177199.2 61885.6 L 178724.4 61295.2 Q 180912 65645.2 181796.4 68152 L 180150 68890 L 180148.8 68891.2 Z M 193198.8 52277.2 L 191649.6 52277.2 L 191649.6 47852.8 L 205314 47852.8 L 205314 52178.8 L 203692.8 52178.8 L 203692.8 49451.2 L 193198.8 49451.2 L 193198.8 52277.2 Z M 200545.2 50900.8 Q 203716.8 53628.4 205215.6 55816 L 203839.2 56824 Q 202340.4 54587.2 199243.2 51809.2 L 200545.2 50900.8 Z M 197548.8 51588.4 Q 195680.4 54784 192657.6 56971.6 Q 192019.2 56209.6 191329.2 55718.8 Q 194304 53850.4 195901.2 51024.4 L 197548.8 51589.6 L 197548.8 51588.4 Z M 191084.4 58618 L 189806.4 59108.8 Q 188971.2 59405.2 188528.4 59602 L 188528.4 66778 Q 188528.4 68104 187718.4 68473.6 Q 187028.4 68818 184792.8 68818 Q 184645.2 67957.6 184251.6 67195.6 Q 185947.2 67244.8 186412.8 67195.6 Q 186831.6 67195.6 186831.6 66802 L 186831.6 60240.4 L 184225.2 61223.2 L 183710.4 59453.2 Q 184422 59257.6 186831.6 58397.2 L 186831.6 53137.6 L 183931.2 53137.6 L 183931.2 51442 L 186831.6 51442 L 186831.6 46526.8 L 188526 46526.8 L 188526 51442 L 190886.4 51442 L 190886.4 53137.6 L 188526 53137.6 L 188526 57782.8 L 190738.8 56947.6 L 191083.2 58618 L 191084.4 58618 Z M 200398.8 60092.8 Q 202732.8 64147.6 206298 65990.8 Q 205560 66630.4 205069.2 67416.4 Q 201676.8 65303.2 199292.4 61051.6 L 199292.4 68768.8 L 197548.8 68768.8 L 197548.8 61150 Q 195139.2 65450.8 191256 67490.8 Q 190814.4 66679.6 190100.4 66065.2 Q 194131.2 64295.2 196467.6 60094 L 191404.8 60094 L 191404.8 58422.4 L 197548.8 58422.4 L 197548.8 55768 L 199292.4 55768 L 199292.4 58422.4 L 205609.2 58422.4 L 205609.2 60094 L 200397.6 60094 L 200398.8 60092.8 Z M 216054 64320.4 Q 213472.8 66826 210204 68473.6 Q 209638.8 67859.2 208802.4 67268.8 Q 212244 65770 214357.2 63680.8 L 216052.8 64320.4 L 216054 64320.4 Z M 220747.2 62402.8 L 220747.2 66824.8 Q 220747.2 68177.2 219740.4 68546.8 Q 218880 68840.8 215955.6 68840.8 Q 215832 68102.8 215290.8 67144 Q 217675.2 67217.2 218462.4 67168 Q 218977.2 67144 218977.2 66775.6 L 218977.2 62498.8 Q 211113.6 63016 210278.4 63260.8 Q 210032.4 62228.8 209787.6 61687.6 Q 210943.2 61540 213104.4 60655.6 Q 214726.8 60090.4 217627.2 58664.8 Q 212612.4 58985.2 212047.2 59206 Q 211850.4 58345.6 211556.4 57634 Q 212244 57534.4 213325.2 56969.2 Q 215733.6 55813.6 217921.2 54118 L 210645.6 54118 L 210645.6 57116.8 L 208926 57116.8 L 208926 52546 L 218559.6 52546 L 218559.6 50261.2 L 209172 50261.2 L 209172 48662.8 L 218559.6 48662.8 L 218559.6 46501.6 L 220428 46501.6 L 220428 48662.8 L 229815.6 48662.8 L 229815.6 50261.2 L 220428 50261.2 L 220428 52546 L 230134.8 52546 L 230134.8 57116.8 L 228340.8 57116.8 L 228340.8 54118 L 219001.2 54118 L 219739.2 54684.4 Q 217429.2 56354.8 214824 57607.6 L 220304.4 57289.6 Q 222024 56405.2 223743.6 55300 L 225021.6 56405.2 Q 220033.2 59404 214824 61344.4 L 225513.6 60779.2 Q 224310 59623.6 223522.8 58985.2 L 224824.8 58174 Q 228142.8 60876.4 229764 62965.6 L 228387.6 63924.4 Q 227798.4 63137.2 226766.4 62008 L 220743.6 62401.6 L 220747.2 62402.8 Z M 224115.6 63558.4 Q 227923.2 65522.8 230160 67366 L 228710.4 68398 Q 226646.4 66580 222739.2 64466.8 L 224115.6 63558.4 Z " fill-rule="nonzero" style="fill:#ffffff;;fill-opacity:1;"/>
</svg>