<svg version="1.1" x="0" y="0" width="100%" height="100%" viewBox="0 0 93696 79974.4" xmlns="http://www.w3.org/2000/svg">
  <path d="M 24165.7 57342.4 Q 20993.2 52222.4 20993.2 42649.9 Q 20993.2 33077.4 24165.7 28059.9 Q 27185.7 23297.4 32715.7 23297.4 Q 38195.7 23297.4 41215.7 28109.9 Q 44388.2 33127.4 44388.2 42649.9 Q 44388.2 52222.4 41215.7 57342.4 Q 38195.7 62209.9 32715.7 62209.9 Q 27238.2 62209.9 24165.7 57342.4  Z M 39833.2 42649.9 Q 39833.2 27087.4 32715.7 27087.4 Q 25548.2 27087.4 25548.2 42649.9 Q 25548.2 58469.9 32715.7 58469.9 Q 39833.2 58469.9 39833.2 42649.9  Z M 51355.5 57652.4 L 59698 57652.4 L 59698 29644.9 L 53045.5 29644.9 L 53045.5 26674.9 Q 57703 25804.9 60825.5 24012.4 L 64408 24012.4 L 64408 57652.4 L 71935.5 57652.4 L 71935.5 61542.4 L 51355.5 61542.4 L 51355.5 57652.4 Z " fill-rule="nonzero" style="fill:#c35954;;fill-opacity:1;"/>
</svg>