<svg version="1.1" x="0" y="0" width="100%" height="100%" viewBox="0 0 48691.2 54118.4" xmlns="http://www.w3.org/2000/svg">
  <path d="M 17111.25 40663.6 Q 13455.5 36972.85 13455.5 30520.6 Q 13455.5 24141.85 17184.75 20305.85 Q 20697 16651.85 26179.75 16651.85 Q 31053.5 16651.85 34387.25 20055.6 L 31554 23424.35 Q 29259.75 21200.1 26356.5 21200.1 Q 22987.75 21200.1 20945.5 23637.85 Q 18866.5 26110.6 18866.5 30338.6 Q 18866.5 34746.85 20838.75 37112.85 Q 22881 39585.6 26717 39585.6 Q 28866 39585.6 30049 38582.85 L 30049 33348.6 L 25353.75 33348.6 L 25353.75 29013.85 L 34781 29013.85 L 34781 40983.85 Q 31519 44174.1 26178 44174.1 Q 20551.75 44174.1 17109.5 40661.85 L 17111.25 40663.6 Z " fill-rule="nonzero" style="fill:#ffffff;;fill-opacity:1;"/>
</svg>