<svg version="1.1" x="0" y="0" width="100%" height="100%" viewBox="0 0 416102.4 54118.4" xmlns="http://www.w3.org/2000/svg">
  <path d="M 162149.35 24320.35 Q 161505.35 27724.1 160537.6 31271.35 Q 161039.85 31630.1 162007.6 32419.35 Q 162973.6 33173.6 163440.85 33565.6 Q 165126.1 29589.6 165841.85 24320.35 L 162151.1 24320.35 L 162149.35 24320.35 Z M 170251.85 20879.85 Q 169462.6 30342.1 166737.85 36327.1 Q 169319.1 38621.35 170682.35 40413.35 L 167887.6 44069.1 Q 166776.35 42457.35 164590.6 40271.6 Q 161830.85 44249.35 157566.1 46757.1 Q 156313.1 44606.35 154913.1 43388.35 Q 158855.85 41416.1 161508.85 37368.35 Q 158211.85 34500.1 155917.6 32814.85 Q 157063.85 29230.85 158066.6 24322.1 L 155523.85 24322.1 L 155523.85 20414.35 L 158820.85 20414.35 Q 159429.85 16867.1 159786.85 13389.85 L 164016.6 13711.85 Q 163549.35 17008.85 162940.35 20412.6 L 166918.1 20412.6 L 167633.85 20305.85 L 170251.85 20879.85 Z M 188922.6 32097.35 L 181754.6 32097.35 L 181754.6 42168.6 Q 181754.6 45213.6 179782.35 46109.6 Q 178027.1 46863.85 173510.35 46792.1 Q 173153.35 44749.85 172042.1 42742.6 Q 173869.1 42777.6 176522.1 42777.6 Q 177307.85 42777.6 177307.85 42096.85 L 177307.85 32099.1 L 169747.85 32099.1 L 169747.85 28047.85 L 177307.85 28047.85 L 177307.85 24644.1 Q 179458.6 22745.35 181679.35 19376.6 L 171179.35 19376.6 L 171179.35 15505.6 L 184474.1 15505.6 L 185480.35 15290.35 L 188345.1 17369.35 Q 185370.1 21991.1 181751.1 25359.85 L 181751.1 28047.85 L 188919.1 28047.85 L 188919.1 32099.1 L 188922.6 32097.35 Z M 205946.6 19983.85 L 202075.6 19983.85 L 202075.6 16328.1 L 205946.6 16328.1 L 205946.6 13533.35 L 209959.35 13533.35 L 209959.35 16328.1 L 215909.35 16328.1 L 215909.35 13533.35 L 219925.6 13533.35 L 219925.6 16328.1 L 224081.85 16328.1 L 224081.85 19983.85 L 219925.6 19983.85 L 219925.6 23174.1 L 215909.35 23174.1 L 215909.35 19983.85 L 209959.35 19983.85 L 209959.35 23174.1 L 205946.6 23174.1 L 205946.6 19983.85 Z M 208634.6 38225.85 L 208634.6 41916.6 L 217414.35 41916.6 L 217414.35 38225.85 L 208634.6 38225.85 Z M 204656.85 34713.6 L 221574.1 34713.6 L 221574.1 46720.35 L 217416.1 46720.35 L 217416.1 45430.6 L 208636.35 45430.6 L 208636.35 46720.35 L 204658.6 46720.35 L 204658.6 34713.6 L 204656.85 34713.6 Z M 217127.35 29409.35 Q 214656.35 27652.35 212934.35 26112.35 Q 211644.6 27472.1 209208.6 29409.35 L 217127.35 29409.35 Z M 215874.35 22598.35 L 215120.1 23601.1 Q 219530.1 27115.1 225012.85 29444.35 Q 223362.6 30877.6 222179.6 32599.6 Q 220674.6 31810.35 218667.35 30485.6 L 218667.35 32886.6 L 206984.35 32886.6 L 206984.35 30987.85 Q 205262.35 32099.1 203470.35 32995.1 Q 203183.35 32492.85 202432.6 31596.85 Q 201893.6 31812.1 200855.85 32279.35 Q 199779.6 32708.1 199242.35 32958.35 L 199242.35 41811.6 Q 199242.35 44714.85 197772.35 45610.85 Q 196374.1 46471.85 192790.1 46471.85 Q 192538.1 44392.85 191607.1 42385.6 Q 193827.85 42457.35 194582.1 42385.6 Q 195191.1 42385.6 195191.1 41776.6 L 195191.1 34608.6 L 192609.85 35646.35 L 191498.6 31311.6 Q 192968.6 30844.35 195189.35 30055.1 L 195189.35 24035.1 L 191785.6 24035.1 L 191785.6 20092.35 L 195189.35 20092.35 L 195189.35 13353.1 L 199240.6 13353.1 L 199240.6 20092.35 L 202000.35 20092.35 L 202000.35 24035.1 L 199240.6 24035.1 L 199240.6 28550.1 L 201606.6 27654.1 L 201928.6 29195.85 Q 208809.6 25788.6 212248.35 21166.85 L 215869.1 22600.1 L 215874.35 22598.35 Z M 259851.85 16686.85 Q 257557.6 22384.85 256015.85 25218.1 L 252647.1 24176.85 Q 254654.35 20305.85 255767.35 15645.6 L 259853.6 16686.85 L 259851.85 16686.85 Z M 242682.6 25037.85 Q 241893.35 21704.1 239744.35 16760.35 L 243183.1 15505.6 Q 245262.1 20020.6 246299.85 23569.6 L 242680.85 25039.6 L 242682.6 25037.85 Z M 238309.35 35467.85 Q 237807.1 34104.6 236160.35 31094.6 L 236160.35 46755.35 L 232144.1 46755.35 L 232144.1 32706.35 Q 230388.85 38082.35 228631.85 40590.1 Q 228164.6 39156.85 226696.35 36645.6 Q 229813.1 32237.35 231498.35 24640.6 L 227555.6 24640.6 L 227555.6 20697.85 L 232142.35 20697.85 L 232142.35 13314.6 L 236158.6 13314.6 L 236158.6 20697.85 L 240206.35 20697.85 L 240206.35 24640.6 L 236158.6 24640.6 L 236158.6 25823.6 Q 237843.85 27902.6 240708.6 32202.35 L 238307.6 35464.35 L 238309.35 35467.85 Z M 251642.6 26542.85 L 259204.35 26542.85 L 259204.35 46326.6 L 255011.35 46326.6 L 255011.35 44821.6 L 239170.35 44821.6 L 239170.35 40733.6 L 255011.35 40733.6 L 255011.35 37473.35 L 240495.1 37473.35 L 240495.1 33674.1 L 255011.35 33674.1 L 255011.35 30592.35 L 239994.6 30592.35 L 239994.6 26541.1 L 247556.35 26541.1 L 247556.35 13459.85 L 251642.6 13459.85 L 251642.6 26541.1 L 251642.6 26542.85 Z " fill-rule="nonzero" style="fill:#ffffff;;fill-opacity:1;"/>
</svg>