<svg version="1.1" x="0" y="0" width="100%" height="100%" viewBox="0 0 418816 57190.4" xmlns="http://www.w3.org/2000/svg">
  <path d="M 18534.75 31883.85 L 18534.75 28047.85 L 10077 28047.85 L 10077 31883.85 L 18534.75 31883.85 Z M 10077 25895.35 L 18534.75 25895.35 L 18534.75 22134.6 L 10077 22134.6 L 10077 25895.35 Z M 30111 22134.6 L 21222.75 22134.6 L 21222.75 25895.35 L 30111 25895.35 L 30111 22134.6 Z M 30111 28047.85 L 21222.75 28047.85 L 21222.75 31883.85 L 30111 31883.85 L 30111 28047.85 Z M 35880.75 40017.85 L 21222.75 40017.85 L 21222.75 46396.6 L 18534.75 46396.6 L 18534.75 40017.85 L 4092 40017.85 L 4092 37545.1 L 18534.75 37545.1 L 18534.75 34141.35 L 7459 34141.35 L 7459 19877.1 L 14054.75 19877.1 Q 12584.75 17224.1 10577.5 14929.85 L 12798.25 13853.6 Q 15521.25 16758.6 16669.25 19122.85 L 15199.25 19877.1 L 23837.25 19877.1 Q 25879.5 17082.35 27421.25 13855.35 L 30251 14823.1 Q 28782.75 17224.1 26810.5 19877.1 L 32795.5 19877.1 L 32795.5 34141.35 L 21219.25 34141.35 L 21219.25 37545.1 L 35877.25 37545.1 L 35877.25 40017.85 L 35880.75 40017.85 Z M 69141.25 17222.35 Q 66166.25 21847.6 63550 24785.85 L 61290.75 23819.85 Q 64300.75 20305.85 66416.5 16149.6 L 69139.5 17222.35 L 69141.25 17222.35 Z M 48102.75 24822.6 Q 46596 21667.35 42942 17222.35 L 45056 16039.35 Q 48640 20234.1 50397 23424.35 L 48102.75 24822.6 Z M 67814.75 43171.35 Q 68604 43171.35 68854.25 42597.35 Q 69106.25 42060.1 69213 40122.85 Q 70072.25 40768.6 71684 41125.6 Q 71433.75 43813.6 70679.5 44746.35 Q 69928.75 45714.1 68030 45714.1 L 62508.75 45714.1 Q 60072.75 45714.1 59248.5 44924.85 Q 58459.25 44170.6 58459.25 41911.35 L 58459.25 29439.1 L 52866.25 29439.1 Q 52329 36391.85 50321.75 39869.1 Q 47775.5 44384.1 41540.25 46534.85 Q 40931.25 45206.6 39855 44240.6 Q 45624.75 42411.85 47919 38505.85 Q 49674.25 35530.85 50106.5 29439.1 L 40320.5 29439.1 L 40320.5 26857.85 L 54371.25 26857.85 L 54371.25 13669.85 L 57129.25 13669.85 L 57129.25 26857.85 L 71108.25 26857.85 L 71108.25 29439.1 L 61107 29439.1 L 61107 41876.35 Q 61107 42700.6 61430.75 42952.6 Q 61716 43167.85 62792.25 43167.85 L 67811.25 43167.85 L 67814.75 43171.35 Z M 107776 32205.85 L 93153 32205.85 L 93153 42886.1 Q 93153 45358.85 91326 45896.1 Q 89891 46398.35 84299.75 46398.35 Q 83977.75 45038.6 83153.5 43675.35 Q 87059.5 43817.1 89460.5 43710.35 Q 90428.25 43675.35 90428.25 42851.1 L 90428.25 32205.85 L 75660 32205.85 L 75660 29552.85 L 90428.25 29552.85 L 90428.25 24392.1 Q 95195.25 22206.35 99388.25 18729.1 L 79209 18729.1 L 79209 16112.85 L 102289.75 16112.85 L 102863.75 15971.1 L 104871 17476.1 Q 100032.25 22243.1 93151.25 25755.35 L 93151.25 29554.6 L 107774.25 29554.6 L 107774.25 32207.6 L 107776 32205.85 Z M 124084.25 41774.85 Q 123081.5 39515.6 120857.25 35968.35 Q 117740.5 42562.35 112901.75 46396.6 Q 111829 44856.6 110968 44317.6 Q 115985.25 40626.85 119105.5 33317.1 Q 115663.25 28156.35 112331.25 24250.35 L 114303.5 22780.35 Q 117493.75 26579.6 120288.5 30378.85 Q 122115.5 25148.1 122939.75 19017.85 L 112007.5 19017.85 L 112007.5 16475.1 L 123620.5 16475.1 L 124049.25 16368.35 L 125734.5 16832.1 Q 124838.5 26150.85 122150.5 32996.85 Q 125055.5 37261.6 126343.5 39984.6 L 124087.75 41776.6 L 124084.25 41774.85 Z M 130713.25 19014.35 Q 131896.25 27687.35 134621 33637.35 Q 138133.25 27437.1 139496.5 19014.35 L 130713.25 19014.35 Z M 142398 16865.35 Q 140928 28800.35 136089.25 36505.6 Q 139171 41739.85 143903 44282.6 Q 142935.25 45036.85 142004.25 46505.1 Q 137417.5 43782.1 134405.75 38943.35 Q 130858.5 43568.6 125769.5 46398.35 Q 125015.25 44930.1 123977.5 44140.85 Q 129246.75 41559.6 132937.5 36253.6 Q 129817.25 29766.35 128132 19014.35 L 127272.75 19014.35 L 127272.75 16471.6 L 140210.5 16471.6 L 140674.25 16364.85 L 142396.25 16867.1 L 142398 16865.35 Z M 168310.25 19052.85 Q 169528.25 20808.1 171392 22313.1 Q 173436 20592.85 174689 18513.85 L 168739 18513.85 L 168310.25 19052.85 Z M 177879.25 17152.35 Q 176446 20843.1 173290.75 23601.1 Q 176265.75 25429.85 179456 26145.6 Q 178595 26969.85 177986 28152.85 Q 174473.75 27115.1 171498.75 24964.35 Q 168452 27150.1 164330.75 28368.1 Q 163756.75 27185.1 163041 26434.35 Q 166660 25538.35 169706.75 23531.1 Q 168382 22276.35 167018.75 20449.35 Q 165942.5 21525.6 164724.5 22456.6 Q 164150.5 21595.6 163219.5 20664.6 Q 167305.75 17869.85 169278 13570.1 L 171392 14179.1 Q 170998.25 15216.85 170137.25 16541.6 L 175907 16541.6 L 176374.25 16434.85 L 177879.25 17154.1 L 177879.25 17152.35 Z M 170174 42310.35 L 170174 39050.1 L 163686.75 39050.1 L 163686.75 37112.85 L 170174 37112.85 L 170174 34818.6 L 165048.25 34818.6 L 165048.25 32991.6 L 170174 32991.6 L 170174 30984.35 L 164365.75 30984.35 L 164365.75 29082.1 L 170174 29082.1 L 170174 27074.85 L 172610 27074.85 L 172610 29082.1 L 177986 29082.1 L 177986 30984.35 L 172610 30984.35 L 172610 32991.6 L 177126.75 32991.6 L 177126.75 34818.6 L 172610 34818.6 L 172610 37112.85 L 178631.75 37112.85 L 178631.75 39050.1 L 172610 39050.1 L 172610 42310.35 L 170174 42310.35 Z M 160281.25 23100.6 Q 159492 20197.35 157665 15754.1 L 159709 15073.35 Q 161536 19266.35 162467 22241.35 L 160281.25 23100.6 Z M 157593.25 32492.85 Q 157558.25 33208.6 157558.25 34713.6 Q 148813.5 36470.6 147882.5 37007.85 Q 147488.75 35683.1 147060 34680.35 Q 147919.25 34500.1 149461 32386.1 Q 150785.75 30735.85 152542.75 27654.1 Q 148239.5 28228.1 147630.5 28550.1 Q 147236.75 27151.85 146773 26114.1 Q 147453.75 25933.85 148635 23854.85 Q 151253 19303.1 152758 13711.85 L 155300.75 14788.1 Q 153080 20953.35 150141.75 25755.35 L 153902.5 25326.6 Q 155337.5 22566.85 155801.25 21455.6 L 157987 22673.6 Q 154548.25 29412.85 151214.5 33677.6 L 157593.25 32494.6 L 157593.25 32492.85 Z M 158204 40626.85 Q 148885.25 43638.6 147630.5 44067.35 L 147021.5 41486.1 Q 150892.5 40555.1 157773.5 38511.1 L 158205.75 40625.1 L 158204 40626.85 Z M 162467 40341.6 Q 162790.75 40518.35 163434.75 41020.6 Q 164189 41666.35 164617.75 41953.35 Q 166838.5 43458.35 171211.75 43458.35 Q 175978.75 43458.35 179708 42956.1 Q 179204 44354.35 179134 45500.6 Q 175334.75 45787.6 171140 45787.6 Q 166770.25 45787.6 164152.25 44032.35 Q 161751.25 42168.6 161394.25 42168.6 Q 160246.25 42168.6 157665 46181.35 L 156195 43995.6 Q 158489.25 41165.85 160174.5 40341.6 L 160174.5 28763.6 L 156984.25 28763.6 L 156984.25 26507.85 L 162467 26507.85 L 162467 40341.6 Z M 215080.75 30877.6 L 200492.75 30877.6 L 200492.75 46361.6 L 197589.5 46361.6 L 197589.5 30877.6 L 183290.25 30877.6 L 183290.25 28154.6 L 197589.5 28154.6 L 197589.5 18944.35 L 185117.25 18944.35 L 185117.25 16256.35 L 213430.5 16256.35 L 213430.5 18944.35 L 200492.75 18944.35 L 200492.75 28154.6 L 215080.75 28154.6 L 215080.75 30877.6 Z M 224830 29444.35 Q 222751 27365.35 218558 25573.35 L 220028 23601.1 Q 224221 25286.35 226370 27223.6 L 224830 29444.35 Z M 219417.25 44317.6 Q 222285.5 39587.35 225153.75 32886.6 L 227232.75 34461.6 Q 224544.75 40805.35 221785 45894.35 L 219419 44317.6 L 219417.25 44317.6 Z M 221890 14140.6 Q 225976.25 16004.35 228092 18011.6 L 226515.25 20162.35 Q 224543 18118.35 220420 16039.35 L 221890 14140.6 Z M 249702.75 30198.6 Q 247730.5 37114.6 243035.25 40950.6 Q 238410 44821.6 230024 46503.35 Q 229595.25 45143.6 228627.5 44067.35 Q 236546.25 42669.1 240919.5 39191.85 Q 245257.75 35749.6 247121.5 29442.6 L 249702.75 30196.85 L 249702.75 30198.6 Z M 235797.25 29479.35 Q 234327.25 34461.6 231532.5 37975.6 Q 230671.5 37186.35 229381.75 36577.35 Q 231963 33602.35 233326.25 28870.35 L 235799 29479.35 L 235797.25 29479.35 Z M 251316.25 24605.6 L 251316.25 26971.6 L 241353.5 26971.6 L 241353.5 37436.6 L 238593.75 37436.6 L 238593.75 26971.6 L 228702.75 26971.6 L 228702.75 24605.6 L 232215 24605.6 L 232215 17115.6 L 234831.25 17115.6 L 234831.25 24605.6 L 238917.5 24605.6 L 238917.5 13746.85 L 241605.5 13746.85 L 241605.5 18156.85 L 249599.5 18156.85 L 249599.5 20412.6 L 241605.5 20412.6 L 241605.5 24605.6 L 251319.75 24605.6 L 251316.25 24605.6 Z M 258913 24999.35 L 256296.75 24999.35 L 256296.75 17761.35 L 270130.5 17761.35 Q 269376.25 15932.6 268338.5 14285.85 L 270954.75 13461.6 Q 272531.5 15897.6 273282.25 17761.35 L 285469.25 17761.35 L 285469.25 24999.35 L 282746.25 24999.35 L 282746.25 20269.1 L 258911.25 20269.1 L 258911.25 24999.35 L 258913 24999.35 Z M 266835.25 27904.35 Q 265078.25 25825.35 261601 23781.35 L 263212.75 22096.1 Q 266796.75 24068.35 268518.75 26005.6 L 266833.5 27904.35 L 266835.25 27904.35 Z M 259628.75 27510.6 Q 263499.75 29624.6 265220 31451.6 L 263608.25 33458.85 Q 261853 31490.1 258088.75 29304.35 L 259628.75 27512.35 L 259628.75 27510.6 Z M 273464.25 37795.35 Q 281493.25 40698.6 286153.5 44140.85 L 284541.75 46183.1 Q 279916.5 42670.85 272174.5 39730.85 L 273464.25 37797.1 L 273464.25 37795.35 Z M 286295.25 34461.6 L 286295.25 36792.6 L 271492 36792.6 Q 268340.25 43780.35 257481.5 46288.1 Q 256942.5 44963.35 255976.5 43995.6 Q 265438.75 41988.35 268413.75 36792.6 L 255617.75 36792.6 L 255617.75 34461.6 L 269486.5 34461.6 Q 270706.25 30842.6 270956.5 22062.85 L 273716.25 22062.85 Q 273464.25 30377.1 272318 34463.35 L 286295.25 34463.35 L 286295.25 34461.6 Z M 299735.25 38010.6 L 290560 40556.85 L 290057.75 38332.6 Q 291204 38082.35 299485 35968.35 L 299735.25 38010.6 Z M 303606.25 30340.35 Q 303606.25 31129.6 303571.25 31451.6 Q 302817 43458.35 301383.75 44963.35 Q 300522.75 45894.35 299017.75 46001.1 Q 297869.75 46107.85 294788 45966.1 Q 294646.25 44641.35 294037.25 43708.6 Q 296151.25 43925.6 298123.5 43925.6 Q 299019.5 43925.6 299378.25 43493.35 Q 300524.5 42347.1 301133.5 32526.1 L 291599.5 32526.1 Q 292318.75 27402.1 292712.5 20269.1 L 295006.75 20375.85 Q 294683 25036.1 294110.75 30340.35 L 298519 30340.35 Q 299234.75 24749.1 299702 17616.1 L 291205.75 17616.1 L 291205.75 15286.85 L 302138 15286.85 Q 301348.75 25893.6 300811.5 30338.6 L 303606.25 30338.6 L 303606.25 30340.35 Z M 314932.25 14212.35 L 314143 15824.1 Q 317868.75 21380.35 323531.75 25109.6 Q 322635.75 26255.85 322207 27580.6 Q 316866 23639.6 312853.25 18048.35 Q 309304.25 23818.1 303858.25 27652.35 Q 303139 26541.1 302279.75 25538.35 Q 309376 20986.6 312601.25 13424.85 L 314932.25 14214.1 L 314932.25 14212.35 Z M 318477.75 27043.35 L 307871 27043.35 L 307871 24749.1 L 318477.75 24749.1 L 318477.75 27043.35 Z M 313212 38332.6 Q 312995 34965.6 311777 29804.85 L 313891 29517.85 Q 315074 34319.85 315432.75 38010.6 L 313212 38332.6 Z M 307619 30198.6 Q 309341 34678.6 309985 38656.35 L 307799.25 39265.35 Q 307442.25 35823.1 305540 30699.1 L 307619 30196.85 L 307619 30198.6 Z M 322278.75 30627.35 Q 319158.5 38404.35 317044.5 42347.1 L 322527.25 42347.1 L 322527.25 44676.35 L 304392 44676.35 L 304392 42347.1 L 314750.25 42347.1 Q 317690.25 36825.85 319839.25 29979.85 L 322277 30625.6 L 322278.75 30627.35 Z " fill-rule="nonzero" style="fill:#ffffff;;fill-opacity:1;"/>
</svg>