<svg version="1.1" x="0" y="0" width="100%" height="100%" viewBox="0 0 280268.8 54118.4" xmlns="http://www.w3.org/2000/svg">
  <path d="M 2763.75 29731.35 Q 3875 26112.35 4233.75 20377.6 L 7243.75 20771.35 Q 7102 26112.35 5847.25 30769.1 L 2765.5 29731.35 L 2763.75 29731.35 Z M 30182.75 38512.85 L 30182.75 36866.1 L 19465.75 36866.1 L 19465.75 38512.85 L 30182.75 38512.85 Z M 19465.75 32167.35 L 19465.75 33852.6 L 30182.75 33852.6 L 30182.75 32167.35 L 19465.75 32167.35 Z M 34197.25 42705.85 Q 34197.25 45430.6 32547 46146.35 Q 31294 46755.35 27029.25 46755.35 Q 26777.25 44998.35 25881.25 43136.35 Q 26849 43206.35 29502 43206.35 Q 30182.75 43206.35 30182.75 42634.1 L 30182.75 41451.1 L 19465.75 41451.1 L 19465.75 46827.1 L 15523 46827.1 L 15523 29048.85 L 34197.25 29048.85 L 34197.25 42704.1 L 34197.25 42705.85 Z M 36598.25 24642.35 L 36598.25 27687.35 L 13122 27687.35 L 13122 24642.35 L 22621 24642.35 L 22621 23100.6 L 15201 23100.6 L 15272.75 23280.85 L 12478 24644.1 Q 12045.75 22923.85 11149.75 20699.6 L 11149.75 46755.35 L 7315.5 46755.35 L 7315.5 13316.35 L 11149.75 13316.35 L 11149.75 19051.1 L 13193.75 18190.1 Q 14448.5 20771.35 15199.25 23065.6 L 15199.25 20235.85 L 22619.25 20235.85 L 22619.25 18800.85 L 14231.5 18800.85 L 14231.5 15755.85 L 22619.25 15755.85 L 22619.25 13318.1 L 26847.25 13318.1 L 26847.25 15755.85 L 35520.25 15755.85 L 35520.25 18800.85 L 26847.25 18800.85 L 26847.25 20235.85 L 34554.25 20235.85 L 34554.25 23100.6 L 26847.25 23100.6 L 26847.25 24642.35 L 36596.5 24642.35 L 36598.25 24642.35 Z M 45127.75 24498.85 Q 43477.5 21417.1 39319.5 16760.35 L 42618.25 14466.1 Q 47133.25 19374.85 48673.25 21882.6 L 45126 24498.85 L 45127.75 24498.85 Z M 48781.75 33565.6 Q 45630 40089.6 42509.75 45358.85 L 38819 42599.1 Q 42046 37868.85 45630 30770.85 L 48781.75 33565.6 Z M 55234 26220.85 L 65664 26220.85 L 65664 18837.6 L 55234 18837.6 L 55234 26220.85 Z M 68171.75 42525.6 Q 68674 42525.6 68854.25 41594.6 Q 69034.5 40698.6 69106.25 37473.35 Q 70359.25 38476.1 72832 39156.85 Q 72580 43278.1 71649 44854.85 Q 70753 46359.85 68604 46359.85 L 65844.25 46359.85 Q 63336.5 46359.85 62475.5 45211.85 Q 61651.25 44139.1 61651.25 41127.35 L 61651.25 30160.1 L 58604.5 30160.1 Q 58282.5 37006.1 56777.5 40339.85 Q 54840.25 44602.85 49823 46753.6 Q 48855.25 44674.6 47315.25 43311.35 Q 51543.25 41664.6 53048.25 38330.85 Q 54196.25 35823.1 54411.5 30160.1 L 51007.75 30160.1 L 51007.75 14893.1 L 70217.5 14893.1 L 70217.5 30160.1 L 65917.75 30160.1 L 65917.75 41127.35 Q 65917.75 42060.1 66024.5 42275.35 Q 66166.25 42525.6 66633.5 42525.6 L 68173.5 42525.6 L 68171.75 42525.6 Z M 104585.75 18226.85 L 104585.75 22923.85 L 78708.5 22923.85 L 78708.5 18226.85 L 104585.75 18226.85 Z M 107560.75 38906.6 L 107560.75 43815.35 L 75733.5 43815.35 L 75733.5 38906.6 L 107560.75 38906.6 Z " fill-rule="nonzero" style="fill:#c35954;;fill-opacity:1;"/>
</svg>