<svg version="1.1" x="0" y="0" width="100%" height="100%" viewBox="0 0 408524.8 82124.8" xmlns="http://www.w3.org/2000/svg">
  <path d="M 164416.4 28750.4 L 168420.8 28750.4 L 168420.8 15306.8 L 165227.6 15306.8 L 165227.6 13881.2 Q 167463.2 13463.6 168962 12603.2 L 170681.6 12603.2 L 170681.6 28750.4 L 174294.8 28750.4 L 174294.8 30617.6 L 164416.4 30617.6 L 164416.4 28750.4 Z M 179572.4 29585.6 Q 177950 28233.2 177950 26144 Q 177950 22974.8 181268 21180.8 L 181268 21057.2 Q 178834.4 19385.6 178834.4 16904 Q 178834.4 14864 180236 13587.2 Q 181636.4 12333.2 183776 12333.2 Q 186036.8 12333.2 187386.8 13661.6 Q 188715.2 14963.6 188715.2 17076.8 Q 188715.2 19558.4 186306.8 21425.6 L 186306.8 21549.2 Q 189353.6 23319.2 189353.6 26267.6 Q 189353.6 28258.4 187806.8 29586.8 Q 186208.4 30939.2 183701.6 30939.2 Q 181220 30939.2 179573.6 29586.8 L 179572.4 29585.6 Z M 186798.8 17198 Q 186798.8 15821.6 185987.6 14913.2 Q 185127.2 13978.4 183726.8 13978.4 Q 182472.8 13978.4 181686.8 14789.6 Q 180875.6 15600.8 180875.6 16902.8 Q 180875.6 18352.4 182104.4 19360.4 Q 182964.8 20048 184929.2 20835.2 Q 186797.6 19188.8 186797.6 17196.8 L 186798.8 17198 Z M 186257.6 28406 Q 187216.4 27569.6 187216.4 26219.6 Q 187216.4 24597.2 185790.8 23516 Q 184906.4 22852.4 182448.8 21869.6 Q 179991.2 23442.8 179991.2 25949.6 Q 179991.2 27374 181072.4 28334 Q 182128.4 29266.4 183750.8 29266.4 Q 185300 29266.4 186258.8 28407.2 L 186257.6 28406 Z M 194164.4 28601.6 Q 192641.6 26144 192641.6 21549.2 Q 192641.6 16954.4 194164.4 14546 Q 195614 12260 198268.4 12260 Q 200898.8 12260 202348.4 14570 Q 203871.2 16978.4 203871.2 21549.2 Q 203871.2 26144 202348.4 28601.6 Q 200898.8 30938 198268.4 30938 Q 195639.2 30938 194164.4 28601.6  Z M 201684.8 21549.2 Q 201684.8 14079.2 198268.4 14079.2 Q 194828 14079.2 194828 21549.2 Q 194828 29142.8 198268.4 29142.8 Q 201684.8 29142.8 201684.8 21549.2  Z M 210894.8 30617.6 Q 211312.4 21033.2 215957.6 14519.6 L 207234.8 14519.6 L 207234.8 12603.2 L 218514.8 12603.2 L 218514.8 13955.6 Q 215516 17813.6 214384.4 21672.8 Q 213452 24892.4 213230 30618.8 L 210896 30618.8 L 210894.8 30617.6 Z M 233229.2 25112 L 233229.2 20246 L 227723.6 20246 L 227723.6 25112 L 233229.2 25112 Z M 243968 26882 L 235072.4 26882 L 235072.4 32511.2 L 233229.2 32511.2 L 233229.2 26882 L 221873.6 26882 L 221873.6 25112 L 225904.4 25112 L 225904.4 18526.4 L 233229.2 18526.4 L 233229.2 14790.8 L 227256.8 14790.8 Q 225586.4 17642 223521.2 19632.8 Q 222538.4 18772.4 221948 18478.4 Q 225634.4 15258.8 227477.6 9999.2 L 229320.8 10440.8 Q 228855.2 11621.6 228191.6 13022 L 242837.6 13022 L 242837.6 14792 L 235072.4 14792 L 235072.4 18527.6 L 242272.4 18527.6 L 242272.4 20247.2 L 235072.4 20247.2 L 235072.4 25113.2 L 243968 25113.2 L 243968 26883.2 L 243968 26882 Z M 155122.8 63910.8 Q 154705.2 64058.4 151903.2 64893.6 L 151903.2 71751.6 Q 151903.2 73152 150994.8 73545.6 Q 150280.8 73890 147675.6 73890 Q 147578.4 73202.4 147111.6 72194.4 Q 147702 72218.4 149618.4 72218.4 Q 150109.2 72218.4 150109.2 71752.8 L 150109.2 65436 L 147061.2 66320.4 L 146520 64526.4 Q 147822 64230 150108 63615.6 L 150108 58282.8 L 146815.2 58282.8 L 146815.2 56587.2 L 150108 56587.2 L 150108 51648 L 151902 51648 L 151902 56587.2 L 154999.2 56587.2 L 154999.2 58282.8 L 151902 58282.8 L 151902 63124.8 L 154900.8 62240.4 L 155121.6 63912 L 155122.8 63910.8 Z M 166405.2 71871.6 Q 166994.4 71871.6 167191.2 71085.6 Q 167364 70398 167437.2 67940.4 Q 168199.2 68529.6 169134 68751.6 Q 168961.2 71577.6 168470.4 72536.4 Q 167953.2 73593.6 166527.6 73593.6 L 163210.8 73593.6 Q 161685.6 73593.6 161146.8 72979.2 Q 160629.6 72364.8 160629.6 70618.8 L 160629.6 63516 L 155714.4 64278 L 155420.4 62558.4 L 160629.6 61796.4 L 160629.6 55332 Q 157975.2 55897.2 156132 56143.2 Q 155935.2 55381.2 155541.6 54667.2 Q 162546 53511.6 165790.8 51988.8 L 167364 53365.2 Q 165250.8 54249.6 162423.6 54913.2 L 162423.6 61524 L 168715.2 60589.2 L 168985.2 62260.8 L 162423.6 63267.6 L 162423.6 70640.4 Q 162423.6 71427.6 162596.4 71648.4 Q 162793.2 71869.2 163431.6 71869.2 L 166406.4 71869.2 L 166405.2 71871.6 Z M 188636.8 68972.4 L 172711.6 68972.4 L 172711.6 67226.4 L 188636.8 67226.4 L 188636.8 68972.4 Z M 193699.6 62534.4 Q 193675.6 63123.6 193626.4 63393.6 Q 192864.4 71971.2 191562.4 73248 Q 190874.8 73962 189596.8 74035.2 Q 188074 74132.4 185740 73984.8 Q 185690.8 73100.4 185173.6 72216 Q 187016.8 72388.8 188935.6 72388.8 Q 189721.6 72388.8 190015.6 72118.8 Q 191072.8 71184 191736.4 64228.8 L 176056 64228.8 Q 176522.8 61132.8 176840.8 56684.4 L 178636 56808 Q 178439.2 59265.6 178069.6 62534.4 L 187606 62534.4 Q 187999.6 59559.6 188466.4 54890.4 L 174580 54890.4 L 174580 53120.4 L 188784.4 53120.4 L 189080.8 53020.8 L 190406.8 53168.4 Q 190086.4 57421.2 189424 62533.2 L 193699.6 62533.2 L 193699.6 62534.4 Z M 201851.6 66489.6 L 206349.2 66489.6 L 206349.2 63984 L 201851.6 63984 L 201851.6 66489.6 Z M 201851.6 56511.6 L 201851.6 58748.4 L 206349.2 58748.4 L 206349.2 56511.6 L 201851.6 56511.6 Z M 201851.6 62509.2 L 206349.2 62509.2 L 206349.2 60224.4 L 201851.6 60224.4 L 201851.6 62509.2 Z M 209961.2 68137.2 L 197844.8 68137.2 L 197844.8 66489.6 L 200178.8 66489.6 L 200178.8 56511.6 L 198214.4 56511.6 L 198214.4 54865.2 L 200178.8 54865.2 L 200178.8 51866.4 L 201850.4 51866.4 L 201850.4 54865.2 L 206348 54865.2 L 206348 51866.4 L 208043.6 51866.4 L 208043.6 54865.2 L 209837.6 54865.2 L 209837.6 56511.6 L 208043.6 56511.6 L 208043.6 66489.6 L 209960 66489.6 L 209960 68137.2 L 209961.2 68137.2 Z M 203006 69120 Q 201777.2 71898 199613.6 73862.4 Q 199146.8 73371.6 198164 72782.4 Q 200178.8 71136 201286.4 68653.2 L 203006 69120 Z M 206052.8 68678.4 Q 207551.6 70299.6 208313.6 71750.4 L 206790.8 72560.4 Q 206152.4 71160 204627.2 69366 L 206052.8 68678.4 Z M 220356.8 61550.4 L 217775.6 61550.4 L 217775.6 74108.4 L 216056 74108.4 L 216056 61550.4 L 212418.8 61550.4 L 212418.8 62631.6 Q 212418.8 70594.8 208829.6 74428.8 Q 208412 73938 207503.6 73248 Q 210723.2 69831.6 210723.2 62607.6 L 210723.2 54177.6 Q 216032 53022 218685.2 51669.6 L 220160 52998 Q 217653.2 54177.6 212420 55357.2 L 212420 59830.8 L 220358 59830.8 L 220358 61550.4 L 220356.8 61550.4 Z M 228066 64474.8 Q 227575.2 64008 227575.2 63270 Q 227575.2 62508 228066 62017.2 Q 228507.6 61526.4 229195.2 61526.4 Q 229882.8 61526.4 230349.6 62017.2 Q 230816.4 62508 230816.4 63270 Q 230816.4 64008 230349.6 64474.8 Q 229858.8 64965.6 229195.2 64965.6 Q 228532.8 64965.6 228066 64474.8  Z M 245371.6 64646.4 Q 245051.2 63884.4 243502 60885.6 L 243502 74058 L 241782.4 74058 L 241782.4 62360.4 Q 240578.8 66685.2 239080 69069.6 Q 238710.4 68110.8 238145.2 67324.8 Q 240505.6 63859.2 241610.8 58059.6 L 238538.8 58059.6 L 238538.8 56340 L 241782.4 56340 L 241782.4 51621.6 L 243502 51621.6 L 243502 56340 L 246329.2 56340 L 246329.2 58059.6 L 243502 58059.6 L 243502 58526.4 L 246550 63294 L 245370.4 64644 L 245371.6 64646.4 Z M 260411.2 59486.4 Q 260387.2 60124.8 260362 60394.8 Q 259699.6 71527.2 258445.6 72978 Q 257831.2 73740 256799.2 73813.2 Q 255866.8 73936.8 254171.2 73813.2 Q 254171.2 72952.8 253704.4 72093.6 Q 254957.2 72214.8 256062.4 72214.8 Q 256628.8 72214.8 256898.8 71846.4 Q 257881.6 70814.4 258545.2 61228.8 L 256873.6 61228.8 Q 254268.4 69930 247780 74083.2 Q 247165.6 73516.8 246379.6 73026 Q 252744.4 69388.8 255202 61228.8 L 252547.6 61228.8 Q 250852 65948.4 246845.2 68798.4 Q 246427.6 68283.6 245495.2 67742.4 Q 249181.6 65432.4 250802.8 61228.8 L 249599.2 61228.8 Q 247804 61228.8 247459.6 61525.2 Q 247238.8 60787.2 246697.6 59804.4 Q 247459.6 59680.8 249254.8 58575.6 Q 251860 56977.2 254587.6 54519.6 L 246600.4 54519.6 L 246600.4 52776 L 256554.4 52776 L 256946.8 52603.2 L 258324.4 53635.2 Q 254120.8 57346.8 250728.4 59484 L 260411.2 59484 L 260411.2 59486.4 Z " fill-rule="nonzero" style="fill:#ffffff;;fill-opacity:1;"/>
</svg>