<svg version="1.1" x="0" y="0" width="100%" height="100%" viewBox="0 0 885964.8 227276.8" xmlns="http://www.w3.org/2000/svg">
  <path d="M 25772.75 22778.6 Q 24052.5 20449.35 20074.75 17689.6 L 21760 16149.6 Q 25702.75 18657.35 27601.5 21058.35 L 25772.75 22778.6 Z M 24985.25 32240.85 Q 22908 29698.1 18678.25 27010.1 L 20328.5 25433.35 Q 24663.25 28084.6 26742.25 30487.35 L 24985.25 32242.6 L 24985.25 32240.85 Z M 15703.25 35107.35 Q 14914 33602.35 12371.25 29766.35 L 12371.25 46361.6 L 9753.25 46361.6 L 9753.25 30520.6 Q 7210.5 36685.85 4557.5 39876.1 Q 4200.5 38834.85 3232.75 37475.1 Q 7032 33175.35 9398 26222.6 L 3735 26222.6 L 3735 23711.35 L 9755 23711.35 L 9755 18300.35 Q 7138.75 18802.6 4844.5 19124.6 Q 4594.25 18121.85 4055.25 17049.1 Q 11762.25 15829.35 15453 14182.6 L 17064.75 16296.6 Q 15020.75 17120.85 12369.5 17729.85 L 12369.5 23714.85 L 17638.75 23714.85 L 17638.75 26226.1 L 12369.5 26226.1 L 12369.5 26870.1 Q 13622.5 28268.35 17313.25 33035.35 L 15701.5 35114.35 L 15703.25 35107.35 Z M 31903 37007.85 L 31903 46361.6 L 29286.75 46361.6 L 29286.75 37436.6 L 17602 39373.85 L 17173.25 36827.6 L 29288.5 34893.85 L 29288.5 13676.85 L 31904.75 13676.85 L 31904.75 34461.6 L 36097.75 33817.6 L 36491.5 36253.6 L 31904.75 37007.85 L 31903 37007.85 Z M 53155 33280.35 Q 56417 39407.1 57528.25 43923.85 L 55127.25 44996.6 Q 54770.25 43204.6 53909.25 40910.35 Q 42154.5 43026.1 41043.25 43635.1 Q 40828 42415.35 40108.75 41017.1 Q 41111.5 40730.1 43335.75 37826.85 Q 45378 35497.6 49068.75 29260.6 Q 41900.75 29906.35 40828 30263.35 Q 40182.25 28294.6 39895.25 27683.85 Q 40649.5 27507.1 42117.75 25176.1 Q 45344.75 20409.1 47604 13780.1 L 50255.25 14891.35 Q 47280.25 22094.35 43696.25 27255.1 L 50470.5 26787.85 Q 51690.25 24567.1 52586.25 22594.85 L 55167.5 23814.6 Q 50507.25 32881.35 44737.5 39977.6 L 53016.75 38614.35 Q 52120.75 36428.6 50972.75 34134.35 L 53158.5 33275.1 L 53155 33280.35 Z M 70933.25 18620.6 Q 70252.5 41559.6 68532.25 43673.6 Q 67564.5 44998.35 65630.75 45213.6 Q 64160.75 45393.85 60037.75 45178.6 Q 59967.75 43708.6 59178.5 42525.6 Q 61579.5 42705.85 64626.25 42705.85 Q 65592.25 42742.6 66131.25 42133.6 Q 67671.25 40448.35 68245.25 19733.6 L 54985.5 19733.6 L 54985.5 17187.35 L 70933.25 17187.35 L 70933.25 18620.6 Z M 93224.75 14212.35 L 93224.75 42704.1 Q 93224.75 45250.35 91432.75 45931.1 Q 89856 46468.35 84586.75 46396.6 Q 84264.75 44998.35 83475.5 43638.6 Q 87166.25 43780.35 89352 43673.6 Q 90389.75 43673.6 90389.75 42705.85 L 90389.75 14214.1 L 93223 14214.1 L 93224.75 14212.35 Z M 101469 22276.35 Q 107095.25 31236.35 108530.25 38082.35 L 105732 39265.35 Q 104298.75 32239.1 98957.75 23244.1 L 101469 22276.35 Z M 83977.75 23065.6 Q 81648.5 33565.6 77525.5 38656.35 Q 76307.5 37760.35 75017.75 37258.1 Q 79317.5 32204.1 81037.75 22528.35 L 83977.75 23065.6 Z M 119102 21882.6 Q 117416.75 19481.6 113726 16077.85 L 115481.25 14466.1 Q 119567.5 18085.1 120965.75 19983.85 L 119103.75 21882.6 L 119102 21882.6 Z M 123223.25 36253.6 Q 123582 37508.35 124156 38619.6 Q 116629.25 44140.85 115983.5 45000.1 Q 115339.5 43531.85 114443.5 42635.85 Q 116522.5 41237.6 116522.5 39335.35 L 116522.5 27472.1 L 111326.75 27472.1 L 111326.75 24890.85 L 119173.75 24890.85 L 119173.75 39120.1 L 123225 36251.85 L 123223.25 36253.6 Z M 125948 29731.35 L 138059.75 29731.35 L 138059.75 23244.1 L 125948 23244.1 L 125948 29731.35 Z M 140319 43421.6 Q 140963 43421.6 141180 42670.85 Q 141395.25 41881.6 141430.25 39051.85 Q 142361.25 39730.85 143796.25 40089.6 Q 143616 43566.85 142935.25 44749.85 Q 142291.25 45932.85 140569.25 45932.85 L 137022 45932.85 Q 135084.75 45932.85 134404 45178.6 Q 133760 44462.85 133760 42383.85 L 133760 32134.1 L 130534.75 32134.1 Q 130067.5 37832.1 128490.75 40843.85 Q 126518.5 44569.6 121896.75 46468.35 Q 121216 45143.6 120285 44427.85 Q 124406.25 42851.1 126163.25 39624.1 Q 127523 37042.85 127881.75 32134.1 L 123366.75 32134.1 L 123366.75 20844.85 L 128097 20844.85 Q 127094.25 17798.1 124835 14716.35 L 127094.25 13785.35 Q 129532 16937.1 130463 19842.1 L 128168.75 20844.85 L 134188.75 20844.85 Q 136161 17080.6 137237.25 13711.85 L 139997 14607.85 Q 138098.25 18872.6 137022 20844.85 L 140712.75 20844.85 L 140712.75 32134.1 L 136374.5 32134.1 L 136374.5 42348.85 Q 136374.5 43029.6 136554.75 43244.85 Q 136735 43421.6 137379 43421.6 L 140319 43421.6 Z M 21856.4 85382.4 L 20530.4 85825.2 L 15074 74372.4 L 20530.4 62919.6 L 21856.4 63362.4 L 16572.8 74372.4 L 21856.4 85382.4 Z M 25739.6 85382.4 L 24413.6 85825.2 L 18957.2 74372.4 L 24413.6 62919.6 L 25739.6 63362.4 L 20456 74372.4 L 25739.6 85382.4 Z M 28614.8 71350.8 L 49234.4 71350.8 L 49234.4 76339.2 L 47391.2 76339.2 L 47391.2 72922.8 L 39748.4 72922.8 L 39748.4 75700.8 L 46924.4 75700.8 L 46924.4 81451.2 Q 46924.4 82777.2 46065.2 83121.6 Q 45377.6 83418 42599.6 83418 Q 42452 82581.6 41985.2 81795.6 Q 44001.2 81868.8 44688.8 81819.6 Q 45106.4 81795.6 45106.4 81451.2 L 45106.4 77322 L 39748.4 77322 L 39748.4 85605.6 L 37905.2 85605.6 L 37905.2 77322 L 33113.6 77322 L 33113.6 83418 L 31294.4 83418 L 31294.4 75700.8 L 37905.2 75700.8 L 37905.2 72922.8 L 30384.8 72922.8 L 30384.8 76339.2 L 28614.8 76339.2 L 28614.8 71350.8 Z M 49874 66091.2 L 49874 67664.4 L 45990.8 67664.4 L 45990.8 70219.2 L 44195.6 70219.2 L 44195.6 67664.4 L 39747.2 67664.4 L 39747.2 70098 L 37953.2 70098 L 37953.2 67664.4 L 33749.6 67664.4 L 33749.6 70146 L 31955.6 70146 L 31955.6 67664.4 L 27975.2 67664.4 L 27975.2 66091.2 L 31955.6 66091.2 L 31955.6 63289.2 L 33749.6 63289.2 L 33749.6 66091.2 L 37953.2 66091.2 L 37953.2 63264 L 39747.2 63264 L 39747.2 66091.2 L 44195.6 66091.2 L 44195.6 63289.2 L 45990.8 63289.2 L 45990.8 66091.2 L 49874 66091.2 Z M 74450 82606.8 L 74450 84424.8 L 52552.4 84424.8 L 52552.4 82606.8 L 61719.2 82606.8 L 61719.2 63535.2 L 63635.6 63535.2 L 63635.6 71056.8 L 72778.4 71056.8 L 72778.4 72874.8 L 63635.6 72874.8 L 63635.6 82608 L 74450 82608 L 74450 82606.8 Z M 80788.4 69901.2 Q 80174 73094.4 79364 76166.4 Q 81107.6 77420.4 81771.2 77961.6 Q 83049.2 74716.8 83466.8 69901.2 L 80787.2 69901.2 L 80788.4 69901.2 Z M 85262 68302.8 Q 84868.4 74964 83198 79117.2 Q 85016 80690.4 85827.2 81722.4 L 84722 83221.2 Q 83960 82262.4 82410.8 80836.8 Q 80740.4 83884.8 77938.4 85628.4 Q 77495.6 84793.2 76832 84129.6 Q 79413.2 82704 81011.6 79632 Q 79095.2 77985.6 77349.2 76856.4 Q 78233.6 74102.4 79094 69901.2 L 77102 69901.2 L 77102 68205.6 L 79412 68205.6 Q 79953.2 64936.8 80126 63166.8 L 81869.6 63290.4 Q 81575.6 65527.2 81084.8 68205.6 L 83886.8 68205.6 L 84180.8 68156.4 L 85262 68304 L 85262 68302.8 Z M 96075.2 83539.2 Q 96986 83539.2 97304 82827.6 Q 97600.4 82189.2 97721.6 79952.4 Q 98411.6 80443.2 99320 80664 Q 99099.2 83318.4 98508.8 84229.2 Q 97870.4 85212 96124.4 85212 L 90791.6 85212 Q 88899.2 85212 88211.6 84548.4 Q 87524 83886 87524 81993.6 L 87524 73416 L 85704.8 74079.6 L 85214 72457.2 L 87524 71598 L 87524 65404.8 L 89219.6 65404.8 L 89219.6 70983.6 L 92070.8 69926.4 L 92070.8 63291.6 L 93741.2 63291.6 L 93741.2 69312 L 96862.4 68156.4 L 97329.2 67788 L 98558 68302.8 L 98484.8 68623.2 Q 98435.6 76216.8 98214.8 77421.6 Q 97968.8 78871.2 96936.8 79092 Q 96298.4 79288.8 94847.6 79288.8 Q 94750.4 78133.2 94456.4 77494.8 Q 94947.2 77544 95930 77544 Q 96420.8 77544 96569.6 76929.6 Q 96741.2 76242 96790.4 69974.4 L 93742.4 71103.6 L 93742.4 80074.8 L 92072 80074.8 L 92072 71718 L 89220.8 72775.2 L 89220.8 81991.2 Q 89220.8 82950 89514.8 83244 Q 89835.2 83538 90867.2 83538 L 96076.4 83538 L 96075.2 83539.2 Z M 109395.2 68720.4 L 104235.2 68720.4 L 104235.2 73857.6 L 109395.2 73857.6 L 109395.2 68720.4 Z M 109395.2 81378 L 109395.2 75478.8 L 104235.2 75478.8 L 104235.2 81378 L 109395.2 81378 Z M 108266 63460.8 Q 107184.8 66558 106988 67072.8 L 111068 67072.8 L 111068 83023.2 L 104236.4 83023.2 L 104236.4 84963.6 L 102564.8 84963.6 L 102564.8 67072.8 L 105318.8 67072.8 Q 106056.8 64688.4 106301.6 63091.2 L 108268.4 63459.6 L 108266 63460.8 Z M 123084.8 67934.4 Q 122567.6 82680 121388 84129.6 Q 120700.4 84990 119447.6 85113.6 Q 118439.6 85234.8 115809.2 85087.2 Q 115712 84079.2 115194.8 83293.2 Q 116793.2 83440.8 118833.2 83440.8 Q 119544.8 83440.8 119838.8 83072.4 Q 120896 81940.8 121337.6 68694 L 115096.4 68694 Q 113964.8 71421.6 112785.2 72994.8 Q 112464.8 72700.8 111285.2 71962.8 Q 113693.6 68791.2 115046 63040.8 L 116792 63458.4 Q 116325.2 65374.8 115734.8 66997.2 L 123083.6 66997.2 L 123083.6 67932 L 123084.8 67934.4 Z M 117652.4 79017.6 Q 116523.2 76732.8 113918 73340.4 L 115343.6 72505.2 Q 118046 75945.6 119201.6 78058.8 L 117652.4 79017.6 Z M 128417.6 66336 L 128417.6 69753.6 L 132030.8 69753.6 L 132030.8 66336 L 128417.6 66336 Z M 132030.8 79928.4 L 132030.8 76363.2 L 128417.6 76363.2 L 128417.6 79928.4 L 132030.8 79928.4 Z M 128417.6 74766 L 132030.8 74766 L 132030.8 71325.6 L 128417.6 71325.6 L 128417.6 74766 Z M 133553.6 81574.8 L 128417.6 81574.8 L 128417.6 83712 L 126820.4 83712 L 126820.4 64689.6 L 133553.6 64689.6 L 133553.6 81574.8 Z M 137436.8 73364.4 L 145055.6 73364.4 L 145055.6 70317.6 L 137436.8 70317.6 L 137436.8 73364.4 Z M 137436.8 65845.2 L 137436.8 68793.6 L 145055.6 68793.6 L 145055.6 65845.2 L 137436.8 65845.2 Z M 148178 77026.8 Q 146259.2 78576 143850.8 79952.4 Q 145743.2 82704 148521.2 83859.6 Q 147783.2 84474 147266 85408.8 Q 141982.4 82827.6 140039.6 74964 L 137434.4 74964 L 137434.4 83048.4 L 141760.4 81992.4 Q 141760.4 83148 141857.6 83662.8 Q 136180.4 85212 135566 85605.6 Q 135345.2 84867.6 134754.8 84105.6 Q 135639.2 83638.8 135639.2 82386 L 135639.2 64224 L 146822 64224 L 146822 74962.8 L 141636.8 74962.8 Q 142251.2 77150.4 143062.4 78649.2 Q 145347.2 77199.6 146969.6 75748.8 L 148174.4 77026.8 L 148178 77026.8 Z M 153017.6 66288 L 153017.6 69678 L 156065.6 69678 L 156065.6 66288 L 153017.6 66288 Z M 156065.6 79902 L 156065.6 76339.2 L 153017.6 76339.2 L 153017.6 79902 L 156065.6 79902 Z M 156065.6 71251.2 L 153017.6 71251.2 L 153017.6 74766 L 156065.6 74766 L 156065.6 71251.2 Z M 157688 81548.4 L 153017.6 81548.4 L 153017.6 83661.6 L 151396.4 83661.6 L 151396.4 64664.4 L 157688 64664.4 L 157688 81547.2 L 157688 81548.4 Z M 169288.4 80295.6 L 169288.4 78476.4 L 161842.4 78476.4 L 161842.4 80295.6 L 169288.4 80295.6 Z M 161841.2 75331.2 L 161841.2 77150.4 L 169287.2 77150.4 L 169287.2 75331.2 L 161841.2 75331.2 Z M 171008 83712 Q 171008 84964.8 170172.8 85309.2 Q 169458.8 85579.2 167001.2 85579.2 Q 166904 84940.8 166461.2 84056.4 Q 167568.8 84080.4 168894.8 84080.4 Q 169288.4 84080.4 169288.4 83712 L 169288.4 81598.8 L 161842.4 81598.8 L 161842.4 85579.2 L 160146.8 85579.2 L 160146.8 73930.8 L 171009.2 73930.8 L 171009.2 83712 L 171008 83712 Z M 172827.2 71055.6 L 172827.2 72456 L 158426 72456 L 158426 71055.6 L 164570 71055.6 L 164570 69384 L 159728 69384 L 159728 68058 L 164570 68058 L 164570 66559.2 L 159137.6 66559.2 L 159137.6 65157.6 L 164570 65157.6 L 164570 63190.8 L 166313.6 63190.8 L 166313.6 65157.6 L 172187.6 65157.6 L 172187.6 66559.2 L 166313.6 66559.2 L 166313.6 68058 L 171646.4 68058 L 171646.4 69384 L 166313.6 69384 L 166313.6 71055.6 L 172827.2 71055.6 Z M 178847.6 85382.4 L 184131.2 74372.4 L 178847.6 63362.4 L 180173.6 62919.6 L 185630 74372.4 L 180173.6 85825.2 L 178847.6 85382.4 Z M 174964.4 85382.4 L 180248 74372.4 L 174964.4 63362.4 L 176290.4 62919.6 L 181746.8 74372.4 L 176290.4 85825.2 L 174964.4 85382.4 Z M 218464.4 85382.4 L 217138.4 85825.2 L 211682 74372.4 L 217138.4 62919.6 L 218464.4 63362.4 L 213180.8 74372.4 L 218464.4 85382.4 Z M 222347.6 85382.4 L 221021.6 85825.2 L 215565.2 74372.4 L 221021.6 62919.6 L 222347.6 63362.4 L 217064 74372.4 L 222347.6 85382.4 Z M 244342.4 67099.2 Q 243359.6 65746.8 241443.2 64394.4 L 242499.2 63435.6 Q 244466 64812 245448.8 65991.6 L 244343.6 67099.2 L 244342.4 67099.2 Z M 232398.8 80542.8 Q 226500.8 82410 224558 83048.4 L 224165.6 81278.4 Q 225615.2 80886 227385.2 80344.8 L 227385.2 73586.4 L 224633.6 73586.4 L 224633.6 71864.4 L 227385.2 71864.4 L 227385.2 66531.6 L 224436.8 66531.6 L 224436.8 64812 L 231930.8 64812 L 231930.8 66531.6 L 229104.8 66531.6 L 229104.8 71864.4 L 231586.4 71864.4 L 231586.4 73586.4 L 229104.8 73586.4 L 229104.8 79827.6 L 232127.6 78868.8 L 232397.6 80540.4 L 232398.8 80542.8 Z M 246358.4 71350.8 Q 243924.8 74743.2 242081.6 76634.4 Q 243680 80100 247096.4 82460.4 Q 246309.2 83049.6 245940.8 83836.8 Q 241910 80838 240262.4 76437.6 L 240262.4 83319.6 Q 240262.4 84818.4 239303.6 85236 Q 238493.6 85629.6 235569.2 85629.6 Q 235396.4 84745.2 234905.6 83860.8 Q 235617.2 83886 237953.6 83886 Q 238494.8 83860.8 238494.8 83319.6 L 238494.8 77520 Q 235791.2 80274 232719.2 83149.2 L 231587.6 81576 Q 233676.8 79854 238494.8 75505.2 L 238494.8 69115.2 L 232546.4 69115.2 L 232546.4 67419.6 L 238494.8 67419.6 L 238494.8 63168 L 240262.4 63168 L 240262.4 67419.6 L 246702.8 67419.6 L 246702.8 69115.2 L 240262.4 69115.2 L 240262.4 69999.6 Q 240779.6 73171.2 241467.2 75135.6 Q 243410 72850.8 244760 70490.4 L 246358.4 71350.8 Z M 234315.2 70636.8 Q 236307.2 73194 236994.8 75184.8 L 235496 75898.8 Q 234732.8 73785.6 232889.6 71302.8 L 234315.2 70639.2 L 234315.2 70636.8 Z M 268894.4 69114 Q 267837.2 67099.2 265970 64762.8 L 267346.4 63976.8 Q 269410.4 66410.4 270345.2 68204.4 L 268895.6 69112.8 L 268894.4 69114 Z M 252182 71768.4 Q 251273.6 69876 249086 67221.6 L 250511.6 66337.2 Q 252747.2 68943.6 253682 70786.8 L 252183.2 71769.6 L 252182 71768.4 Z M 253928 63116.4 L 255722 63116.4 L 255722 85555.2 L 253928 85555.2 L 253928 76536 Q 251715.2 78673.2 249724.4 80467.2 L 248692.4 78920.4 Q 251370.8 76732.8 253928 74323.2 L 253928 63116.4 Z M 264347.6 72162 Q 266314.4 81132 271623.2 84032.4 Q 270788 84720 270294.8 85555.2 Q 265676 82680 263488.4 75234 Q 262210.4 81525.6 257344.4 85556.4 Q 256877.6 85065.6 255869.6 84402 Q 261375.2 79880.4 262137.2 72163.2 L 256558.4 72163.2 L 256558.4 70369.2 L 262260.8 70369.2 Q 262284.8 69852 262284.8 68869.2 L 262284.8 63190.8 L 264078.8 63190.8 L 264078.8 68869.2 Q 264078.8 69852 264054.8 70369.2 L 271107.2 70369.2 L 271107.2 72163.2 L 264348.8 72163.2 L 264347.6 72162 Z M 279118.4 68869.2 Q 277937.6 66853.2 275456 64224 L 276857.6 63363.6 Q 279486.8 66042 280618.4 67861.2 L 279119.6 68869.2 L 279118.4 68869.2 Z M 274473.2 68745.6 L 276267.2 68745.6 L 276267.2 85579.2 L 274473.2 85579.2 L 274473.2 68745.6 Z M 289857.2 81033.6 Q 288014 78109.2 284424.8 74546.4 Q 282410 78798 278871.2 81255.6 Q 278477.6 80420.4 277739.6 79585.2 Q 282851.6 76340.4 284450 68450.4 L 286317.2 68746.8 Q 285826.4 70958.4 285138.8 72826.8 Q 289145.6 76437.6 291184.4 79585.2 L 289858.4 81034.8 L 289857.2 81033.6 Z M 294870.8 83146.8 Q 294870.8 84842.4 293765.6 85234.8 Q 292881.2 85579.2 289318.4 85579.2 Q 289121.6 84572.4 288654.8 83712 Q 290915.6 83809.2 292464.8 83736 Q 293079.2 83736 293079.2 83146.8 L 293079.2 65967.6 L 281184.8 65967.6 L 281184.8 64197.6 L 294873.2 64197.6 L 294873.2 83146.8 L 294870.8 83146.8 Z M 308068.4 77199.6 L 308068.4 73684.8 L 302021.6 73684.8 L 302021.6 77199.6 L 308068.4 77199.6 Z M 302022.8 68475.6 L 302022.8 71989.2 L 308069.6 71989.2 L 308069.6 68475.6 L 302022.8 68475.6 Z M 309986 68475.6 L 309986 71989.2 L 316301.6 71989.2 L 316301.6 68475.6 L 309986 68475.6 Z M 316300.4 77199.6 L 316300.4 73684.8 L 309984.8 73684.8 L 309984.8 77199.6 L 316300.4 77199.6 Z M 316890.8 83343.6 Q 317898.8 83343.6 318243.2 82556.4 Q 318561.2 81818.4 318710 79360.8 Q 319372.4 79878 320504 80172 Q 320258 83047.2 319619.6 84055.2 Q 318881.6 85160.4 317014.4 85160.4 L 311608.4 85160.4 Q 309543.2 85160.4 308807.6 84448.8 Q 308069.6 83710.8 308069.6 81573.6 L 308069.6 78992.4 L 302022.8 78992.4 L 302022.8 80491.2 L 300155.6 80491.2 L 300155.6 66704.4 L 308069.6 66704.4 L 308069.6 63189.6 L 309986 63189.6 L 309986 66704.4 L 318120.8 66704.4 L 318120.8 78992.4 L 309986 78992.4 L 309986 81621.6 Q 309986 82702.8 310304 83023.2 Q 310624.4 83343.6 311729.6 83343.6 L 316890.8 83343.6 Z M 326303.6 85382.4 L 331587.2 74372.4 L 326303.6 63362.4 L 327629.6 62919.6 L 333086 74372.4 L 327629.6 85825.2 L 326303.6 85382.4 Z M 322420.4 85382.4 L 327704 74372.4 L 322420.4 63362.4 L 323746.4 62919.6 L 329202.8 74372.4 L 323746.4 85825.2 L 322420.4 85382.4 Z M 365920.4 85382.4 L 364594.4 85825.2 L 359138 74372.4 L 364594.4 62919.6 L 365920.4 63362.4 L 360636.8 74372.4 L 365920.4 85382.4 Z M 369803.6 85382.4 L 368477.6 85825.2 L 363021.2 74372.4 L 368477.6 62919.6 L 369803.6 63362.4 L 364520 74372.4 L 369803.6 85382.4 Z M 392216 65526 L 392216 67344 L 373784 67344 L 373784 65526 L 392216 65526 Z M 390299.6 73488 L 390299.6 75331.2 L 375357.2 75331.2 L 375357.2 73488 L 390299.6 73488 Z M 393544.4 81966 L 393544.4 83809.2 L 372384.8 83809.2 L 372384.8 81966 L 393544.4 81966 Z M 403202 63757.2 Q 402366.8 66262.8 401014.4 68942.4 L 401014.4 85555.2 L 399270.8 85555.2 L 399270.8 71965.2 Q 398286.8 73488 397181.6 74790 Q 396666.8 73708.8 396125.6 72997.2 Q 399515.6 69261.6 401506.4 63241.2 L 403202 63758.4 L 403202 63757.2 Z M 412467.2 69850.8 Q 414924.8 76806 419102 80172 Q 418290.8 80762.4 417725.6 81621.6 Q 413793.2 78034.8 411287.6 70858.8 L 411287.6 79387.2 L 415244 79387.2 L 415244 81057.6 L 411287.6 81057.6 L 411287.6 85458 L 409517.6 85458 L 409517.6 81057.6 L 405510.8 81057.6 L 405510.8 79387.2 L 409517.6 79387.2 L 409517.6 71030.4 Q 406887.2 78109.2 403004 81672 Q 402341.6 80812.8 401678 80295.6 Q 405831.2 76977.6 408412.4 69850.8 L 402636.8 69850.8 L 402636.8 68080.8 L 409518.8 68080.8 L 409518.8 63238.8 L 411288.8 63238.8 L 411288.8 68080.8 L 418612.4 68080.8 L 418612.4 69850.8 L 412468.4 69850.8 L 412467.2 69850.8 Z M 424607.6 85382.4 L 429891.2 74372.4 L 424607.6 63362.4 L 425933.6 62919.6 L 431390 74372.4 L 425933.6 85825.2 L 424607.6 85382.4 Z M 420724.4 85382.4 L 426008 74372.4 L 420724.4 63362.4 L 422050.4 62919.6 L 427506.8 74372.4 L 422050.4 85825.2 L 420724.4 85382.4 Z M 464224.4 85382.4 L 462898.4 85825.2 L 457442 74372.4 L 462898.4 62919.6 L 464224.4 63362.4 L 458940.8 74372.4 L 464224.4 85382.4 Z M 468107.6 85382.4 L 466781.6 85825.2 L 461325.2 74372.4 L 466781.6 62919.6 L 468107.6 63362.4 L 462824 74372.4 L 468107.6 85382.4 Z M 485678 79608 L 470490.8 79608 L 470490.8 77838 L 485678 77838 L 485678 79608 Z M 490790 72676.8 Q 490766 73316.4 490716.8 73561.2 Q 489808.4 82924.8 488235.2 84423.6 Q 487473.2 85210.8 485948 85284 Q 484253.6 85381.2 481574 85185.6 Q 481476.8 84177.6 480886.4 83390.4 Q 482802.8 83563.2 485408 83563.2 Q 486368 83563.2 486662 83269.2 Q 487988 82261.2 488775.2 74397.6 L 474618.8 74397.6 L 473096 74372.4 Q 474324.8 70047.6 475430 63682.8 L 477273.2 63878.4 L 476758.4 66532.8 L 490422.8 66532.8 L 490422.8 68278.8 L 476415.2 68278.8 L 475431.2 72676.8 L 490791.2 72676.8 L 490790 72676.8 Z M 499809.2 78969.6 L 499809.2 82876.8 L 511949.6 82876.8 L 511949.6 78969.6 L 499809.2 78969.6 Z M 498016.4 77395.2 L 513794 77395.2 L 513794 85652.4 L 511950.8 85652.4 L 511950.8 84472.8 L 499810.4 84472.8 L 499810.4 85701.6 L 498016.4 85701.6 L 498016.4 77394 L 498016.4 77395.2 Z M 503792 70047.6 Q 503301.2 72087.6 502931.6 73364.4 L 510280.4 73364.4 Q 510477.2 71694 510550.4 70047.6 L 503792 70047.6 Z M 516939.2 73364.4 L 516939.2 74986.8 L 494796.8 74986.8 L 494796.8 73364.4 L 501014 73364.4 Q 501358.4 72211.2 501899.6 70047.6 L 497771.6 70047.6 L 497771.6 68498.4 L 502293.2 68498.4 Q 502734.8 66531.6 502907.6 65623.2 L 496664 65623.2 L 496664 64026 L 515244.8 64026 L 515244.8 65623.2 L 504800 65623.2 L 504136.4 68498.4 L 510821.6 68498.4 L 511139.6 68401.2 L 512417.6 68498.4 Q 512368.4 70366.8 512074.4 73363.2 L 516940.4 73363.2 L 516939.2 73364.4 Z M 527212.4 74422.8 L 527212.4 79068 L 533650.4 79068 L 533650.4 74422.8 L 527212.4 74422.8 Z M 527212.4 80640 L 527212.4 82410 L 525516.8 82410 L 525516.8 72873.6 L 535371.2 72873.6 L 535371.2 80640 L 527212.4 80640 Z M 536673.2 70318.8 L 524288 70318.8 L 524288 68720.4 L 536673.2 68720.4 L 536673.2 70318.8 Z M 540532.4 83294.4 Q 540532.4 84843.6 539524.4 85285.2 Q 538640 85629.6 535420.4 85629.6 Q 535296.8 84721.2 534755.6 83836.8 Q 537238.4 83910 538146.8 83860.8 Q 538737.2 83836.8 538737.2 83295.6 L 538737.2 66165.6 L 522148.4 66165.6 L 522148.4 85653.6 L 520378.4 85653.6 L 520378.4 64419.6 L 540530 64419.6 L 540530 83294.4 L 540532.4 83294.4 Z M 559211.6 83294.4 L 565700 83294.4 L 565700 85014 L 550929.2 85014 L 550929.2 83294.4 L 557393.6 83294.4 L 557393.6 76388.4 L 551888 76388.4 L 551888 74668.8 L 557393.6 74668.8 L 557393.6 69974.4 L 559212.8 69974.4 L 559212.8 74668.8 L 564742.4 74668.8 L 564742.4 76388.4 L 559212.8 76388.4 L 559212.8 83294.4 L 559211.6 83294.4 Z M 565698.8 66950.4 L 565698.8 68696.4 L 552303.2 68696.4 Q 550926.8 71547.6 549329.6 73708.8 L 549329.6 85506 L 547535.6 85506 L 547535.6 75872.4 Q 546330.8 77174.4 544684.4 78355.2 Q 544414.4 77592 543750.8 76707.6 Q 547707.2 73905.6 550238 68696.4 L 544340 68696.4 L 544340 66950.4 L 551049.2 66950.4 Q 551811.2 65083.2 552352.4 63142.8 L 554219.6 63609.6 Q 553802 65034 553040 66950.4 L 565697.6 66950.4 L 565698.8 66950.4 Z M 572063.6 85382.4 L 577347.2 74372.4 L 572063.6 63362.4 L 573389.6 62919.6 L 578846 74372.4 L 573389.6 85825.2 L 572063.6 85382.4 Z M 568180.4 85382.4 L 573464 74372.4 L 568180.4 63362.4 L 569506.4 62919.6 L 574962.8 74372.4 L 569506.4 85825.2 L 568180.4 85382.4 Z M 617210 85382.4 L 615884 85825.2 L 610427.6 74372.4 L 615884 62919.6 L 617210 63362.4 L 611926.4 74372.4 L 617210 85382.4 Z M 621093.2 85382.4 L 619767.2 85825.2 L 614310.8 74372.4 L 619767.2 62919.6 L 621093.2 63362.4 L 615809.6 74372.4 L 621093.2 85382.4 Z M 630358.4 63730.8 Q 629177.6 66705.6 627728 69187.2 L 627728 85555.2 L 625984.4 85555.2 L 625984.4 71865.6 Q 624730.4 73587.6 623601.2 74767.2 Q 623231.6 73858.8 622544 72948 Q 626427.2 69164.4 628614.8 63192 L 630360.8 63733.2 L 630358.4 63730.8 Z M 644193.2 73267.2 Q 644193.2 73832.4 644169.2 74102.4 Q 643875.2 83245.2 643014.8 84302.4 Q 642473.6 84964.8 641294 85088.4 Q 640236.8 85188 637779.2 85064.4 Q 637731.2 84129.6 637214 83367.6 Q 638960 83515.2 640557.2 83515.2 Q 641220.8 83515.2 641490.8 83194.8 Q 642129.2 82507.2 642399.2 74962.8 L 637115.6 74962.8 Q 636058.4 82777.2 630504.8 85677.6 Q 630087.2 84915.6 629325.2 84301.2 Q 634361.6 81794.4 635345.6 74962.8 L 630454.4 74962.8 L 630454.4 73267.2 L 635542.4 73267.2 Q 635666 72062.4 635763.2 69678 L 637557.2 69678 Q 637484 71670 637312.4 73267.2 L 644192 73267.2 L 644193.2 73267.2 Z M 644759.6 66778.8 L 644759.6 68524.8 L 633527.6 68524.8 Q 632324 70588.8 630825.2 72135.6 Q 630431.6 71694 629350.4 71006.4 Q 632349.2 68228.4 633946.4 63216 L 635692.4 63609.6 Q 635151.2 65329.2 634439.6 66778.8 L 644760.8 66778.8 L 644759.6 66778.8 Z M 656211.2 64002 Q 660708.8 67099.2 662822 69433.2 L 661520 70785.6 Q 659259.2 68228.4 655007.6 65205.6 L 656211.2 64000.8 L 656211.2 64002 Z M 666902 71154 Q 669335.6 76142.4 670194.8 80370 L 668400.8 81081.6 Q 667565.6 76732.8 665205.2 71817.6 L 666900.8 71154 L 666902 71154 Z M 651714.8 72135.6 Q 650854.4 78379.2 649552.4 81771.6 L 647733.2 81008.4 Q 649282.4 77347.2 649946 71792.4 L 651716 72136.8 L 651714.8 72135.6 Z M 655696.4 69949.2 L 655696.4 82065.6 Q 655696.4 82900.8 656016.8 83170.8 Q 656334.8 83416.8 657392 83416.8 L 662086.4 83416.8 Q 663215.6 83416.8 663560 82458 Q 663880.4 81573.6 664028 78328.8 Q 664666.4 78846 665747.6 79140 Q 665550.8 82729.2 664888.4 83884.8 Q 664174.4 85137.6 662183.6 85137.6 L 657244.4 85137.6 Q 655252.4 85137.6 654564.8 84499.2 Q 653853.2 83859.6 653853.2 82041.6 L 653853.2 69949.2 L 655696.4 69949.2 Z M 684473.6 71006.4 Q 686465.6 69531.6 688209.2 67861.2 L 682752.8 67861.2 L 682752.8 71006.4 L 684472.4 71006.4 L 684473.6 71006.4 Z M 689414 76756.8 L 679460 76756.8 L 679460 79190.4 L 689414 79190.4 L 689414 76756.8 Z M 689414 83194.8 L 689414 80640 L 679460 80640 L 679460 83194.8 L 689414 83194.8 Z M 685088 72652.8 Q 683123.6 74054.4 681132.8 75207.6 L 691281.2 75207.6 L 691281.2 85480.8 L 689414 85480.8 L 689414 84793.2 L 679460 84793.2 L 679460 85579.2 L 677666 85579.2 L 677666 77077.2 Q 675356 78182.4 673168.4 79017.6 Q 672798.8 78355.2 672012.8 77518.8 Q 677591.6 75552 682113.2 72652.8 L 672552.8 72652.8 L 672552.8 71006.4 L 680957.6 71006.4 L 680957.6 67861.2 L 674690 67861.2 L 674690 66238.8 L 680957.6 66238.8 L 680957.6 63166.8 L 682751.6 63166.8 L 682751.6 66238.8 L 688822.4 66238.8 L 688822.4 67246.8 Q 690371.6 65697.6 691624.4 64002 L 693173.6 64838.4 Q 690642.8 68179.2 687201.2 71006.4 L 694280 71006.4 L 694280 72652.8 L 685088 72652.8 Z M 700473.2 85382.4 L 705756.8 74372.4 L 700473.2 63362.4 L 701799.2 62919.6 L 707255.6 74372.4 L 701799.2 85825.2 L 700473.2 85382.4 Z M 696590 85382.4 L 701873.6 74372.4 L 696590 63362.4 L 697916 62919.6 L 703372.4 74372.4 L 697916 85825.2 L 696590 85382.4 Z M 740090 85382.4 L 738764 85825.2 L 733307.6 74372.4 L 738764 62919.6 L 740090 63362.4 L 734806.4 74372.4 L 740090 85382.4 Z M 743973.2 85382.4 L 742647.2 85825.2 L 737190.8 74372.4 L 742647.2 62919.6 L 743973.2 63362.4 L 738689.6 74372.4 L 743973.2 85382.4 Z M 745889.6 82386 Q 747929.6 82041.6 754540.4 80664 L 754712 82386 Q 749969.6 83392.8 746234 84253.2 L 745889.6 82386 Z M 754688 76018.8 Q 754614.8 76658.4 754738.4 77641.2 Q 747292.4 78772.8 746578.4 79141.2 Q 746260.4 77985.6 745940 77395.2 Q 746578.4 77247.6 747930.8 75798 Q 748766 75012 750561.2 72627.6 Q 746874.8 73020 746408 73290 Q 746014.4 72061.2 745768.4 71520 Q 746334.8 71372.4 747267.2 70020 Q 749307.2 67317.6 750953.6 63164.4 L 752772.8 63926.4 Q 750856.4 68006.4 748448 71226 L 751790 70905.6 Q 752428.4 69997.2 753436.4 68277.6 L 755057.6 69285.6 Q 752255.6 73683.6 749256.8 76755.6 L 754689.2 76017.6 L 754688 76018.8 Z M 768278 82189.2 L 768278 84007.2 L 754934 84007.2 L 754934 82189.2 L 760584.8 82189.2 L 760584.8 67270.8 L 755228 67270.8 L 755228 65476.8 L 767762 65476.8 L 767762 67270.8 L 762526.4 67270.8 L 762526.4 82189.2 L 768276.8 82189.2 L 768278 82189.2 Z M 777714.8 66926.4 Q 776708 68278.8 775060.4 69925.2 L 781548.8 69925.2 Q 782950.4 68647.2 784130 66927.6 L 777716 66927.6 L 777714.8 66926.4 Z M 788726 71620.8 L 782852 71620.8 L 782852 75897.6 L 788726 75897.6 L 788726 71620.8 Z M 775430 75897.6 L 781083.2 75897.6 L 781083.2 71620.8 L 775430 71620.8 L 775430 75897.6 Z M 788159.6 83515.2 Q 789954.8 83515.2 790520 82777.2 Q 791034.8 82089.6 791256.8 79608 Q 792018.8 80098.8 793001.6 80271.6 Q 792683.6 83220 791799.2 84152.4 Q 790864.4 85185.6 788160.8 85185.6 L 778724 85185.6 Q 775775.6 85185.6 774743.6 84498 Q 773662.4 83760 773662.4 81670.8 L 773662.4 71202 Q 772827.2 71964 771474.8 72898.8 Q 771254 72235.2 770490.8 71178 Q 775578.8 68058 778160 63069.6 L 779782.4 63684 Q 779363.6 64446 778872.8 65281.2 L 785337.2 65281.2 L 785705.6 65184 L 786910.4 66043.2 Q 785558 68107.2 783764 69926.4 L 790522.4 69926.4 L 790522.4 78724.8 L 788728.4 78724.8 L 788728.4 77643.6 L 775432.4 77643.6 L 775432.4 81698.4 Q 775432.4 82806 776021.6 83150.4 Q 776636 83518.8 778602.8 83518.8 L 788163.2 83518.8 L 788159.6 83515.2 Z M 799121.6 74398.8 Q 797598.8 73046.4 795116 71865.6 L 796124 70612.8 Q 798654.8 71718 800153.6 72972 L 799121.6 74397.6 L 799121.6 74398.8 Z M 795828.8 84178.8 Q 797598.8 80737.2 799220 76215.6 L 800621.6 77247.6 Q 799023.2 81696 797426 85186.8 L 795828.8 84178.8 Z M 797450 63486 Q 800031.2 64567.2 801702.8 65943.6 L 800621.6 67344 Q 799098.8 65991.6 796419.2 64738.8 L 797451.2 63486 L 797450 63486 Z M 804971.6 67590 Q 803840 69900 802341.2 71718 Q 801579.2 71103.6 800744 70711.2 Q 803398.4 67860 804872 63141.6 L 806666 63583.2 Q 806348 64518 805757.6 65918.4 L 816989.6 65918.4 L 816989.6 67590 L 804971.6 67590 Z M 808116.8 76707.6 Q 810107.6 78256.8 811090.4 79658.4 L 809961.2 80420.4 Q 809002.4 79018.8 807059.6 77372.4 L 808116.8 76708.8 L 808116.8 76707.6 Z M 813522.8 80419.2 Q 813743.6 78699.6 813867.2 76634.4 L 804995.6 76634.4 Q 804822.8 78060 804454.4 80420.4 L 813522.8 80420.4 L 813522.8 80419.2 Z M 805683.2 71547.6 L 805241.6 74964 L 810401.6 74964 Q 809542.4 73611.6 807699.2 72211.2 L 808706 71547.6 Q 810574.4 72924 811482.8 74250 L 810450.8 74964 L 813940.4 74964 Q 814037.6 73735.2 814110.8 71547.6 L 805682 71547.6 L 805683.2 71547.6 Z M 815586.8 76633.2 L 815266.4 80419.2 L 816914 80419.2 L 816914 82041.6 L 815045.6 82041.6 Q 814701.2 83908.8 814210.4 84499.2 Q 813645.2 85234.8 812513.6 85358.4 Q 811653.2 85458 809417.6 85309.2 Q 809318 84424.8 808949.6 83762.4 Q 810522.8 83886 811800.8 83886 Q 812463.2 83886 812709.2 83540.4 Q 813003.2 83246.4 813273.2 82042.8 L 802410.8 82042.8 Q 802877.6 79732.8 803295.2 76635.6 L 801034.4 76635.6 L 801034.4 74965.2 L 803541.2 74965.2 Q 803982.8 71475.6 804130.4 69950.4 L 815877.2 69950.4 L 815656.4 74965.2 L 817599.2 74965.2 L 817599.2 76635.6 L 815583.2 76635.6 L 815586.8 76633.2 Z M 824288 74275.2 Q 822713.6 72922.8 819690.8 71448 L 820722.8 70122 Q 823794.8 71547.6 825368 72800.4 L 824288 74275.2 Z M 820208 83908.8 Q 822419.6 80319.6 824312 75994.8 L 825737.6 77100 Q 823942.4 81204 821854.4 85038 L 820208 83908.8 Z M 821903.6 63657.6 Q 824902.4 65230.8 826425.2 66632.4 L 825269.6 68058 Q 823746.8 66559.2 820846.4 64912.8 L 821903.6 63658.8 L 821903.6 63657.6 Z M 842056.4 79976.4 L 835150.4 79976.4 L 835150.4 85605.6 L 833307.2 85605.6 L 833307.2 79976.4 L 826449.2 79976.4 L 826449.2 78232.8 L 833307.2 78232.8 L 833307.2 74643.6 L 827925.2 74643.6 L 827925.2 72924 L 833307.2 72924 L 833307.2 69434.4 L 827211.2 69434.4 L 827211.2 67714.8 L 831046.4 67714.8 Q 830332.4 65822.4 828857.6 63758.4 L 830432 63144 Q 832175.6 65331.6 832766 67125.6 L 831488 67716 L 835739.6 67716 Q 837041.6 65602.8 838073.6 63072 L 839843.6 63661.2 Q 838763.6 65874 837608 67717.2 L 841491.2 67717.2 L 841491.2 69436.8 L 835150.4 69436.8 L 835150.4 72926.4 L 840704 72926.4 L 840704 74646 L 835150.4 74646 L 835150.4 78235.2 L 842056.4 78235.2 L 842056.4 79978.8 L 842056.4 79976.4 Z M 847929.2 85382.4 L 853212.8 74372.4 L 847929.2 63362.4 L 849255.2 62919.6 L 854711.6 74372.4 L 849255.2 85825.2 L 847929.2 85382.4 Z M 844046 85382.4 L 849329.6 74372.4 L 844046 63362.4 L 845372 62919.6 L 850828.4 74372.4 L 845372 85825.2 L 844046 85382.4 Z M 23739.2 147040 Q 22166.4 144910.4 18529.6 142387.2 L 20070.4 140979.2 Q 23675.2 143272 25411.2 145467.2 L 23739.2 147040 Z M 23019.2 155691.2 Q 21120 153366.4 17252.8 150908.8 L 18761.6 149467.2 Q 22724.8 151891.2 24625.6 154088 L 23019.2 155692.8 L 23019.2 155691.2 Z M 14532.8 158312 Q 13811.2 156936 11486.4 153428.8 L 11486.4 168601.6 L 9092.8 168601.6 L 9092.8 154118.4 Q 6768 159755.2 4342.4 162672 Q 4016 161720 3131.2 160476.8 Q 6604.8 156545.6 8768 150188.8 L 3590.4 150188.8 L 3590.4 147892.8 L 9094.4 147892.8 L 9094.4 142945.6 Q 6702.4 143404.8 4604.8 143699.2 Q 4376 142782.4 3883.2 141801.6 Q 10929.6 140686.4 14304 139180.8 L 15777.6 141113.6 Q 13908.8 141867.2 11484.8 142424 L 11484.8 147896 L 16302.4 147896 L 16302.4 150192 L 11484.8 150192 L 11484.8 150780.8 Q 12630.4 152059.2 16004.8 156417.6 L 14531.2 158318.4 L 14532.8 158312 Z M 29344 160049.6 L 29344 168601.6 L 26952 168601.6 L 26952 160441.6 L 16268.8 162212.8 L 15876.8 159884.8 L 26953.6 158116.8 L 26953.6 138718.4 L 29345.6 138718.4 L 29345.6 157721.6 L 33179.2 157132.8 L 33539.2 159360 L 29345.6 160049.6 L 29344 160049.6 Z M 48774.4 156641.6 Q 51756.8 162243.2 52772.8 166372.8 L 50577.6 167353.6 Q 50251.2 165715.2 49464 163617.6 Q 38716.8 165552 37700.8 166108.8 Q 37504 164993.6 36846.4 163715.2 Q 37763.2 163452.8 39796.8 160798.4 Q 41664 158668.8 45038.4 152966.4 Q 38484.8 153556.8 37504 153883.2 Q 36913.6 152083.2 36651.2 151524.8 Q 37340.8 151363.2 38683.2 149232 Q 41633.6 144873.6 43699.2 138812.8 L 46123.2 139828.8 Q 43403.2 146414.4 40126.4 151132.8 L 46320 150705.6 Q 47435.2 148675.2 48254.4 146872 L 50614.4 147987.2 Q 46353.6 156276.8 41078.4 162764.8 L 48648 161518.4 Q 47828.8 159520 46779.2 157422.4 L 48777.6 156636.8 L 48774.4 156641.6 Z M 65028.8 143238.4 Q 64406.4 164211.2 62833.6 166144 Q 61948.8 167355.2 60180.8 167552 Q 58836.8 167716.8 55067.2 167520 Q 55003.2 166176 54281.6 165094.4 Q 56476.8 165259.2 59262.4 165259.2 Q 60145.6 165292.8 60638.4 164736 Q 62046.4 163195.2 62571.2 144256 L 50448 144256 L 50448 141928 L 65028.8 141928 L 65028.8 143238.4 Z M 82395.2 157460.8 L 82395.2 152774.4 L 74332.8 152774.4 L 74332.8 157460.8 L 82395.2 157460.8 Z M 74334.4 145828.8 L 74334.4 150513.6 L 82396.8 150513.6 L 82396.8 145828.8 L 74334.4 145828.8 Z M 84952 145828.8 L 84952 150513.6 L 93372.8 150513.6 L 93372.8 145828.8 L 84952 145828.8 Z M 93371.2 157460.8 L 93371.2 152774.4 L 84950.4 152774.4 L 84950.4 157460.8 L 93371.2 157460.8 Z M 94158.4 165652.8 Q 95502.4 165652.8 95961.6 164603.2 Q 96385.6 163619.2 96584 160342.4 Q 97467.2 161032 98976 161424 Q 98648 165257.6 97796.8 166601.6 Q 96812.8 168075.2 94323.2 168075.2 L 87115.2 168075.2 Q 84361.6 168075.2 83380.8 167126.4 Q 82396.8 166142.4 82396.8 163292.8 L 82396.8 159851.2 L 74334.4 159851.2 L 74334.4 161849.6 L 71844.8 161849.6 L 71844.8 143467.2 L 82396.8 143467.2 L 82396.8 138780.8 L 84952 138780.8 L 84952 143467.2 L 95798.4 143467.2 L 95798.4 159851.2 L 84952 159851.2 L 84952 163356.8 Q 84952 164798.4 85376 165225.6 Q 85803.2 165652.8 87276.8 165652.8 L 94158.4 165652.8 Z M 130073.6 140356.8 Q 126664 144876.8 121486.4 148024 Q 120502.4 146876.8 119716.8 146353.6 Q 124926.4 143436.8 127811.2 139404.8 L 130072 140356.8 L 130073.6 140356.8 Z M 131089.6 149105.6 Q 127550.4 153856 121456 157230.4 Q 120636.8 156148.8 119752 155494.4 Q 125651.2 152609.6 128896 148187.2 L 131091.2 149104 L 131089.6 149105.6 Z M 116244.8 141568 L 106316.8 141568 L 106316.8 143500.8 L 116244.8 143500.8 L 116244.8 141568 Z M 116244.8 145107.2 L 106316.8 145107.2 L 106316.8 147105.6 L 116244.8 147105.6 L 116244.8 145107.2 Z M 118636.8 148744 L 103988.8 148744 L 103988.8 139897.6 L 118636.8 139897.6 L 118636.8 148744 Z M 119750.4 152806.4 L 102382.4 152806.4 L 102382.4 150841.6 L 110017.6 150841.6 L 109264 149368 L 111491.2 148811.2 Q 112180.8 149827.2 112608 150843.2 L 119750.4 150843.2 L 119750.4 152808 L 119750.4 152806.4 Z M 107560 162016 Q 106249.6 165094.4 104020.8 167390.4 Q 102777.6 166340.8 102284.8 166046.4 Q 104318.4 164145.6 105497.6 161393.6 L 107560 162016 Z M 106545.6 158936 L 115884.8 158936 L 115884.8 156184 L 106545.6 156184 L 106545.6 158936 Z M 112377.6 160672 L 112377.6 166078.4 Q 112377.6 167684.8 111329.6 168112 Q 110542.4 168472 107494.4 168472 Q 107265.6 167422.4 106740.8 166473.6 Q 108969.6 166537.6 109526.4 166473.6 Q 109985.6 166473.6 109985.6 166046.4 L 109985.6 160672 L 104283.2 160672 L 104283.2 154444.8 L 118275.2 154444.8 L 118275.2 160672 L 112376 160672 L 112377.6 160672 Z M 115752 161358.4 Q 117883.2 164014.4 118832 166076.8 L 116996.8 167028.8 Q 115947.2 164736 114046.4 162177.6 L 115750.4 161358.4 L 115752 161358.4 Z M 131776 158443.2 Q 127942.4 164768 120472 168472 Q 119817.6 167454.4 118768 166603.2 Q 126076.8 163358.4 129550.4 157560 L 131777.6 158443.2 L 131776 158443.2 Z M 18555 216124.8 L 17450 216493.8 L 12903 206949.8 L 17450 197405.8 L 18555 197774.8 L 14152 206949.8 L 18555 216124.8 Z M 21791 216124.8 L 20686 216493.8 L 16139 206949.8 L 20686 197405.8 L 21791 197774.8 L 17388 206949.8 L 21791 216124.8 Z M 25519 212889.8 Q 23716 210738.8 23716 207174.8 Q 23716 203611.8 25519 201500.8 Q 27259 199432.8 30127 199432.8 Q 32994 199432.8 34755 201500.8 Q 36536 203611.8 36536 207174.8 Q 36536 210738.8 34755 212889.8 Q 32994 214998.8 30127 214998.8 Q 27259 214998.8 25519 212889.8  Z M 33361 211660.8 Q 34590 209980.8 34590 207175.8 Q 34590 204370.8 33361 202711.8 Q 32153 201092.8 30126 201092.8 Q 28078 201092.8 26890 202711.8 Q 25661 204370.8 25661 207175.8 Q 25661 209980.8 26890 211660.8 Q 28098 213340.8 30126 213340.8 Q 32153 213340.8 33361 211660.8  Z M 39567.2 203612.8 L 41103.2 203612.8 L 41267.2 205639.8 L 41328.2 205639.8 Q 42597.2 203324.8 44482.2 203324.8 Q 45198.2 203324.8 45669.2 203571.8 L 45321.2 205210.8 Q 44850.2 205025.8 44235.2 205025.8 Q 42412.2 205025.8 41429.2 207585.8 L 41429.2 214733.8 L 39565.2 214733.8 L 39565.2 203613.8 L 39567.2 203612.8 Z M 47728.2 214179.8 Q 46807.2 213319.8 46807.2 211844.8 Q 46807.2 210043.8 48446.2 209059.8 Q 50063.2 208096.8 53647.2 207687.8 Q 53647.2 204882.8 51354.2 204882.8 Q 49777.2 204882.8 48016.2 206070.8 L 47279.2 204779.8 Q 49552.2 203324.8 51661.2 203324.8 Q 55512.2 203324.8 55512.2 207892.8 L 55512.2 214732.8 L 53976.2 214732.8 L 53812.2 213401.8 L 53751.2 213401.8 Q 51826.2 214998.8 50065.2 214998.8 Q 48632.2 214998.8 47731.2 214178.8 L 47728.2 214179.8 Z M 53647.2 212028.8 L 53647.2 208916.8 Q 48630.2 209509.8 48630.2 211721.8 Q 48630.2 213502.8 50595.2 213502.8 Q 51988.2 213502.8 53647.2 212027.8 L 53647.2 212028.8 Z M 59023.2 203612.8 L 60559.2 203612.8 L 60723.2 205209.8 L 60784.2 205209.8 Q 62709.2 203324.8 64512.2 203324.8 Q 67911.2 203324.8 67911.2 207687.8 L 67911.2 214732.8 L 66048.2 214732.8 L 66048.2 207932.8 Q 66048.2 204963.8 63939.2 204963.8 Q 62587.2 204963.8 60887.2 206663.8 L 60887.2 214732.8 L 59023.2 214732.8 L 59023.2 203612.8 Z M 71998.2 219073.8 Q 70707.2 218274.8 70707.2 216861.8 Q 70707.2 215408.8 72366.2 214343.8 L 72366.2 214262.8 Q 71342.2 213667.8 71342.2 212439.8 Q 71342.2 211271.8 72591.2 210370.8 L 72591.2 210289.8 Q 71138.2 209121.8 71138.2 207298.8 Q 71138.2 205517.8 72387.2 204390.8 Q 73574.2 203325.8 75315.2 203325.8 Q 76094.2 203325.8 76871.2 203613.8 L 80742.2 203613.8 L 80742.2 205046.8 L 78469.2 205046.8 Q 79370.2 205906.8 79370.2 207339.8 Q 79370.2 209080.8 78182.2 210165.8 Q 77057.2 211209.8 75316.2 211209.8 Q 74436.2 211209.8 73657.2 210820.8 Q 72940.2 211435.8 72940.2 212152.8 Q 72940.2 213360.8 74885.2 213360.8 L 77057.2 213360.8 Q 80928.2 213360.8 80928.2 216001.8 Q 80928.2 217598.8 79412.2 218705.8 Q 77815.2 219852.8 75316.2 219852.8 Q 73227.2 219852.8 71999.2 219073.8 L 71998.2 219073.8 Z M 76974.2 209223.8 Q 77670.2 208486.8 77670.2 207298.8 Q 77670.2 206110.8 76995.2 205394.8 Q 76319.2 204698.8 75315.2 204698.8 Q 74291.2 204698.8 73635.2 205373.8 Q 72939.2 206110.8 72939.2 207298.8 Q 72939.2 208486.8 73635.2 209223.8 Q 74311.2 209940.8 75315.2 209940.8 Q 76298.2 209940.8 76974.2 209223.8  Z M 78162.2 217865.8 Q 79125.2 217210.8 79125.2 216287.8 Q 79125.2 214915.8 76852.2 214915.8 L 74927.2 214915.8 Q 74231.2 214915.8 73494.2 214731.8 Q 72347.2 215550.8 72347.2 216615.8 Q 72347.2 217516.8 73207.2 218048.8 Q 74067.2 218581.8 75583.2 218581.8 Q 77119.2 218581.8 78163.2 217864.8 L 78162.2 217865.8 Z M 83804.2 213463.8 Q 82247.2 211844.8 82247.2 209181.8 Q 82247.2 206581.8 83783.2 204901.8 Q 85238.2 203324.8 87266.2 203324.8 Q 89354.2 203324.8 90542.2 204737.8 Q 91689.2 206130.8 91689.2 208546.8 Q 91689.2 209079.8 91608.2 209611.8 L 84112.2 209611.8 Q 84195.2 211392.8 85219.2 212437.8 Q 86222.2 213501.8 87799.2 213501.8 Q 89274.2 213501.8 90585.2 212621.8 L 91261.2 213850.8 Q 89478.2 214997.8 87574.2 214997.8 Q 85281.2 214997.8 83806.2 213461.8 L 83804.2 213463.8 Z M 90051.2 208281.8 Q 90051.2 204820.8 87286.2 204820.8 Q 86057.2 204820.8 85177.2 205721.8 Q 84256.2 206684.8 84092.2 208281.8 L 90052.2 208281.8 L 90051.2 208281.8 Z M 96491.4 216124.8 L 100894.4 206949.8 L 96491.4 197774.8 L 97596.4 197405.8 L 102143.4 206949.8 L 97596.4 216493.8 L 96491.4 216124.8 Z M 93255.4 216124.8 L 97658.4 206949.8 L 93255.4 197774.8 L 94360.4 197405.8 L 98907.4 206949.8 L 94360.4 216493.8 L 93255.4 216124.8 Z M 129505.4 216124.8 L 128400.4 216493.8 L 123853.4 206949.8 L 128400.4 197405.8 L 129505.4 197774.8 L 125102.4 206949.8 L 129505.4 216124.8 Z M 132741.4 216124.8 L 131636.4 216493.8 L 127089.4 206949.8 L 131636.4 197405.8 L 132741.4 197774.8 L 128338.4 206949.8 L 132741.4 216124.8 Z M 136509.4 204225.8 L 135014.4 204225.8 L 135014.4 199781.8 L 143042.4 199781.8 Q 142530.4 198634.8 142223.4 198102.8 L 143698.4 197651.8 Q 144291.4 198531.8 144803.4 199780.8 L 152380.4 199780.8 L 152380.4 204224.8 L 150844.4 204224.8 L 150844.4 201193.8 L 136508.4 201193.8 L 136508.4 204224.8 L 136509.4 204225.8 Z M 152483.4 209673.8 L 144598.4 209673.8 L 144598.4 214281.8 Q 144598.4 215592.8 143595.4 215920.8 Q 142796.4 216207.8 139805.4 216207.8 Q 139662.4 215592.8 139170.4 214691.8 Q 139907.4 214712.8 142487.4 214712.8 Q 143020.4 214691.8 143020.4 214262.8 L 143020.4 209674.8 L 134992.4 209674.8 L 134992.4 208221.8 L 143020.4 208221.8 L 143020.4 205005.8 L 137777.4 205005.8 L 137777.4 203572.8 L 149573.4 203572.8 L 149573.4 205005.8 L 144596.4 205005.8 L 144596.4 208221.8 L 152481.4 208221.8 L 152481.4 209674.8 L 152483.4 209673.8 Z M 164915.4 206663.8 L 164915.4 209510.8 L 169624.4 209510.8 L 169624.4 206663.8 L 164915.4 206663.8 Z M 169625.4 213892.8 L 169625.4 210841.8 L 164916.4 210841.8 L 164916.4 213892.8 L 169625.4 213892.8 Z M 158873.4 213892.8 L 163420.4 213892.8 L 163420.4 210841.8 L 158873.4 210841.8 L 158873.4 213892.8 Z M 158873.4 206663.8 L 158873.4 209510.8 L 163420.4 209510.8 L 163420.4 206663.8 L 158873.4 206663.8 Z M 164915.4 205249.8 L 171140.4 205249.8 L 171140.4 216268.8 L 169624.4 216268.8 L 169624.4 215305.8 L 158872.4 215305.8 L 158872.4 216268.8 L 157377.4 216268.8 L 157377.4 205249.8 L 163418.4 205249.8 L 163418.4 202177.8 L 164914.4 202177.8 L 164914.4 205249.8 L 164915.4 205249.8 Z M 172615.4 199945.8 L 172615.4 204205.8 L 171079.4 204205.8 L 171079.4 201358.8 L 157275.4 201358.8 L 157275.4 204205.8 L 155780.4 204205.8 L 155780.4 199945.8 L 163665.4 199945.8 Q 163193.4 198778.8 162681.4 197938.8 L 164238.4 197467.8 Q 165057.4 198818.8 165508.4 199945.8 L 172615.4 199945.8 Z M 183347.4 203877.8 L 183347.4 205680.8 L 186767.4 205680.8 L 186767.4 203877.8 L 183347.4 203877.8 Z M 188139.4 203877.8 L 188139.4 205680.8 L 191702.4 205680.8 L 191702.4 203877.8 L 188139.4 203877.8 Z M 191702.4 208669.8 L 191702.4 206806.8 L 188139.4 206806.8 L 188139.4 208669.8 L 191702.4 208669.8 Z M 186767.4 208669.8 L 186767.4 206806.8 L 183347.4 206806.8 L 183347.4 208669.8 L 186767.4 208669.8 Z M 183347.4 213257.8 L 181892.4 213257.8 L 181892.4 202710.8 L 187688.4 202710.8 Q 185579.4 201665.8 183715.4 200969.8 L 184658.4 200109.8 Q 185969.4 200580.8 187628.4 201297.8 Q 189041.4 200621.8 190516.4 199556.8 L 181913.4 199556.8 L 181913.4 198348.8 L 191908.4 198348.8 L 192215.4 198267.8 L 193138.4 198983.8 Q 191458.4 200622.8 188959.4 201913.8 Q 189779.4 202281.8 190475.4 202712.8 L 193158.4 202712.8 L 193158.4 211723.8 Q 193158.4 212767.8 192462.4 213054.8 Q 191889.4 213301.8 189697.4 213301.8 Q 189594.4 212645.8 189287.4 212030.8 Q 189779.4 212051.8 191355.4 212051.8 Q 191703.4 212051.8 191703.4 211703.8 L 191703.4 209839.8 L 188140.4 209839.8 L 188140.4 213178.8 L 186768.4 213178.8 L 186768.4 209839.8 L 183348.4 209839.8 L 183348.4 213259.8 L 183347.4 213257.8 Z M 179291.4 202772.8 Q 178206.4 201359.8 175810.4 199270.8 L 176875.4 198410.8 Q 179374.4 200478.8 180398.4 201769.8 L 179291.4 202773.8 L 179291.4 202772.8 Z M 179722.4 212479.8 Q 179906.4 212582.8 180377.4 212930.8 Q 180910.4 213299.8 181278.4 213524.8 Q 182917.4 214527.8 186645.4 214527.8 Q 190229.4 214527.8 194201.4 214139.8 Q 193833.4 215019.8 193772.4 215634.8 Q 190249.4 215838.8 186604.4 215838.8 Q 182815.4 215838.8 180972.4 214713.8 Q 179067.4 213545.8 178986.4 213545.8 Q 178167.4 213545.8 176262.4 216085.8 L 175299.4 214836.8 Q 177122.4 212911.8 178249.4 212440.8 L 178249.4 206664.8 L 175382.4 206664.8 L 175382.4 205231.8 L 179723.4 205231.8 L 179723.4 212480.8 L 179722.4 212479.8 Z M 211691.4 199495.8 L 205650.4 199495.8 L 205650.4 201666.8 L 211691.4 201666.8 L 211691.4 199495.8 Z M 213166.4 202936.8 L 204237.4 202936.8 L 204237.4 198225.8 L 213166.4 198225.8 L 213166.4 202936.8 Z M 202270.4 208179.8 Q 202230.4 209080.8 202270.4 209448.8 Q 196822.4 210636.8 196270.4 210964.8 Q 196045.4 210144.8 195778.4 209571.8 Q 196310.4 209468.8 197314.4 208240.8 Q 198031.4 207441.8 199362.4 205496.8 Q 196535.4 205864.8 196126.4 206089.8 Q 196045.4 205660.8 195636.4 204636.8 Q 196107.4 204533.8 196762.4 203448.8 Q 198258.4 201501.8 199486.4 198000.8 L 200899.4 198676.8 Q 199547.4 201748.8 197704.4 204431.8 L 200223.4 204164.8 Q 200919.4 203017.8 201514.4 201870.8 L 202763.4 202627.8 Q 200735.4 206191.8 198422.4 208935.8 L 202271.4 208178.8 L 202270.4 208179.8 Z M 195758.4 213585.8 Q 197211.4 213216.8 202270.4 211721.8 L 202454.4 213032.8 L 196065.4 215060.8 L 195758.4 213585.8 Z M 205834.4 212664.8 Q 209541.4 212356.8 211589.4 212172.8 L 211589.4 210861.8 L 205834.4 210861.8 L 205834.4 212664.8 Z M 205834.4 205660.8 L 205834.4 207196.8 L 211589.4 207196.8 L 211589.4 205660.8 L 205834.4 205660.8 Z M 205834.4 209796.8 L 211589.4 209796.8 L 211589.4 208281.8 L 205834.4 208281.8 L 205834.4 209796.8 Z M 214354.4 213237.8 L 213063.4 213360.8 L 213063.4 216227.8 L 211588.4 216227.8 L 211588.4 213503.8 L 202904.4 214282.8 L 202761.4 212890.8 L 204358.4 212766.8 L 204358.4 205661.8 L 202863.4 205661.8 L 202863.4 204349.8 L 214311.4 204349.8 L 214311.4 205661.8 L 213062.4 205661.8 L 213062.4 212050.8 L 214393.4 211927.8 L 214353.4 213238.8 L 214354.4 213237.8 Z M 232847.4 207605.8 Q 230451.4 210144.8 227154.4 213360.8 Q 228423.4 214261.8 229427.4 215141.8 L 228259.4 216412.8 Q 226047.4 214261.8 221706.4 211618.8 L 222791.4 210533.8 Q 223671.4 211025.8 225904.4 212500.8 Q 227952.4 210533.8 229959.4 208465.8 L 218879.4 208465.8 L 218879.4 206990.8 L 231475.4 206990.8 L 231740.4 206907.8 L 232847.4 207604.8 L 232847.4 207605.8 Z M 226703.4 206479.8 Q 225740.4 205066.8 223609.4 203325.8 L 224694.4 202465.8 Q 226927.4 204226.8 227848.4 205497.8 L 226701.4 206480.8 L 226703.4 206479.8 Z M 227215.4 198267.8 Q 226846.4 198716.8 226662.4 198963.8 Q 230185.4 202608.8 235244.4 204553.8 Q 234691.4 205045.8 234118.4 205925.8 Q 229367.4 203734.8 225720.4 200006.8 Q 222239.4 203673.8 217283.4 205966.8 Q 216791.4 205229.8 216198.4 204697.8 Q 222587.4 201993.8 225823.4 197529.8 L 227216.4 198266.8 L 227215.4 198267.8 Z M 239851.4 216124.8 L 244254.4 206949.8 L 239851.4 197774.8 L 240956.4 197405.8 L 245503.4 206949.8 L 240956.4 216493.8 L 239851.4 216124.8 Z M 236615.4 216124.8 L 241018.4 206949.8 L 236615.4 197774.8 L 237720.4 197405.8 L 242267.4 206949.8 L 237720.4 216493.8 L 236615.4 216124.8 Z M 272865.4 216124.8 L 271760.4 216493.8 L 267213.4 206949.8 L 271760.4 197405.8 L 272865.4 197774.8 L 268462.4 206949.8 L 272865.4 216124.8 Z M 276101.4 216124.8 L 274996.4 216493.8 L 270449.4 206949.8 L 274996.4 197405.8 L 276101.4 197774.8 L 271698.4 206949.8 L 276101.4 216124.8 Z M 282081.4 201215.8 Q 281160.4 200478.8 278681.4 198881.8 L 279562.4 197837.8 Q 281877.4 199168.8 282982.4 200008.8 L 282081.4 201216.8 L 282081.4 201215.8 Z M 281118.4 206560.8 Q 279746.4 205516.8 277678.4 204369.8 L 278558.4 203304.8 Q 281262.4 204799.8 282019.4 205332.8 L 281118.4 206560.8 Z M 282409.4 209448.8 Q 281118.4 212765.8 279459.4 216001.8 L 278107.4 215162.8 Q 279603.4 212539.8 281220.4 208607.8 L 282408.4 209447.8 L 282409.4 209448.8 Z M 285275.4 204185.8 Q 285275.4 212316.8 282511.4 216227.8 Q 282080.4 215776.8 281261.4 215428.8 Q 283780.4 211865.8 283780.4 204185.8 L 283780.4 198593.8 L 296232.4 198593.8 L 296232.4 199986.8 L 285275.4 199986.8 L 285275.4 204185.8 Z M 288533.4 210881.8 Q 287468.4 213257.8 285952.4 215080.8 Q 285543.4 214752.8 284724.4 214301.8 Q 286157.4 212806.8 287160.4 210513.8 L 288533.4 210881.8 Z M 287815.4 208199.8 L 294040.4 208199.8 L 294040.4 206396.8 L 287815.4 206396.8 L 287815.4 208199.8 Z M 287815.4 205291.8 L 294040.4 205291.8 L 294040.4 203510.8 L 287815.4 203510.8 L 287815.4 205291.8 Z M 291563.4 209367.8 L 291563.4 214712.8 Q 291563.4 215817.8 290867.4 216084.8 Q 290294.4 216329.8 288082.4 216288.8 Q 287979.4 215675.8 287651.4 214978.8 Q 288143.4 214999.8 289760.4 214999.8 Q 290108.4 214978.8 290108.4 214691.8 L 290108.4 209367.8 L 286443.4 209367.8 L 286443.4 202342.8 L 289535.4 202342.8 Q 289944.4 201175.8 290129.4 200274.8 L 291829.4 200622.8 L 290989.4 202342.8 L 295453.4 202342.8 L 295453.4 209367.8 L 291562.4 209367.8 L 291563.4 209367.8 Z M 294246.4 210349.8 Q 295843.4 212868.8 296580.4 214261.8 L 295188.4 214876.8 Q 294613.4 213585.8 292934.4 210861.8 L 294245.4 210349.8 L 294246.4 210349.8 Z M 315197.4 202137.8 Q 314112.4 200621.8 311900.4 198778.8 L 313007.4 198041.8 Q 315219.4 199781.8 316386.4 201317.8 L 315198.4 202137.8 L 315197.4 202137.8 Z M 305182.4 198287.8 Q 304383.4 200212.8 302991.4 202424.8 L 302991.4 216268.8 L 301455.4 216268.8 L 301455.4 204615.8 Q 300164.4 206295.8 298709.4 207626.8 Q 298361.4 206847.8 297829.4 206151.8 Q 301658.4 202895.8 303747.4 197836.8 L 305180.4 198287.8 L 305182.4 198287.8 Z M 310589.4 205209.8 Q 311736.4 214220.8 314808.4 214507.8 Q 315628.4 214568.8 315935.4 210984.8 Q 316386.4 211393.8 317206.4 211782.8 Q 316611.4 216390.8 314871.4 216287.8 Q 310386.4 215960.8 309095.4 205412.8 L 304180.4 206027.8 L 303975.4 204594.8 L 308931.4 203979.8 Q 308644.4 200702.8 308541.4 197917.8 L 310057.4 197917.8 Q 310160.4 201214.8 310447.4 203774.8 L 316570.4 202997.8 L 316775.4 204430.8 L 310590.4 205209.8 L 310589.4 205209.8 Z M 323962.4 206315.8 L 321566.4 206315.8 L 321566.4 212356.8 L 323962.4 212356.8 L 323962.4 206315.8 Z M 318903.4 198676.8 L 325887.4 198676.8 L 325887.4 200089.8 L 322836.4 200089.8 Q 322364.4 202689.8 321565.4 204962.8 L 325313.4 204962.8 L 325313.4 213727.8 L 321565.4 213727.8 L 321565.4 215387.8 L 320234.4 215387.8 L 320234.4 207994.8 Q 319701.4 208955.8 319169.4 209631.8 Q 318924.4 208710.8 318473.4 208014.8 Q 320480.4 205331.8 321401.4 200088.8 L 318902.4 200088.8 L 318902.4 198675.8 L 318903.4 198676.8 Z M 333998.4 211885.8 L 326215.4 211885.8 L 326215.4 210513.8 L 333998.4 210513.8 L 333998.4 211885.8 Z M 336967.4 206520.8 L 336926.4 207196.8 Q 336333.4 214487.8 335288.4 215551.8 Q 334736.4 216146.8 333896.4 216166.8 Q 333240.4 216249.8 331459.4 216166.8 Q 331378.4 215347.8 331030.4 214752.8 Q 332033.4 214876.8 333304.4 214876.8 Q 333836.4 214876.8 334081.4 214629.8 Q 334921.4 213830.8 335433.4 207830.8 L 327180.4 207830.8 Q 327569.4 205371.8 327856.4 201480.8 L 329269.4 201563.8 Q 329145.4 203548.8 328777.4 206519.8 L 333037.4 206519.8 Q 333446.4 203099.8 333713.4 200211.8 L 326893.4 200211.8 L 326893.4 198818.8 L 333978.4 198818.8 L 334203.4 198737.8 L 335268.4 198860.8 Q 334961.4 202812.8 334449.4 206520.8 L 336968.4 206520.8 L 336967.4 206520.8 Z M 342251.4 216124.8 L 346654.4 206949.8 L 342251.4 197774.8 L 343356.4 197405.8 L 347903.4 206949.8 L 343356.4 216493.8 L 342251.4 216124.8 Z M 339015.4 216124.8 L 343418.4 206949.8 L 339015.4 197774.8 L 340120.4 197405.8 L 344667.4 206949.8 L 340120.4 216493.8 L 339015.4 216124.8 Z M 382638.2 216124.8 L 381533.2 216493.8 L 376986.2 206949.8 L 381533.2 197405.8 L 382638.2 197774.8 L 378235.2 206949.8 L 382638.2 216124.8 Z M 385874.2 216124.8 L 384769.2 216493.8 L 380222.2 206949.8 L 384769.2 197405.8 L 385874.2 197774.8 L 381471.2 206949.8 L 385874.2 216124.8 Z M 397855.2 202035.8 Q 397855.2 206643.8 394188.2 208691.8 Q 393759.2 207995.8 393247.2 207646.8 Q 396420.2 206070.8 396420.2 202035.8 L 396420.2 198512.8 L 403404.2 198512.8 L 403404.2 206295.8 Q 403404.2 206950.8 403507.2 207053.8 Q 403651.2 207134.8 403855.2 207134.8 L 404450.2 207134.8 Q 404757.2 207134.8 404900.2 207073.8 Q 405085.2 206930.8 405105.2 206622.8 Q 405166.2 206335.8 405207.2 204943.8 Q 405678.2 205332.8 406354.2 205557.8 Q 406313.2 206990.8 406149.2 207522.8 Q 405965.2 208014.8 405576.2 208219.8 Q 405208.2 208403.8 404593.2 208403.8 L 403528.2 208403.8 Q 402771.2 208403.8 402382.2 208034.8 Q 401973.2 207686.8 401973.2 206191.8 L 401973.2 199863.8 L 397857.2 199863.8 L 397857.2 202034.8 L 397855.2 202035.8 Z M 400579.2 205311.8 Q 399820.2 204000.8 397936.2 202363.8 L 399043.2 201666.8 Q 400967.2 203263.8 401766.2 204534.8 L 400579.2 205311.8 Z M 396912.2 208096.8 Q 398776.2 209919.8 399697.2 211496.8 L 398448.2 212233.8 Q 397669.2 210780.8 395724.2 208732.8 L 396912.2 208096.8 Z M 387512.2 206151.8 L 390932.2 205271.8 L 390932.2 200274.8 L 387921.2 200274.8 L 387921.2 198902.8 L 395212.2 198902.8 L 395212.2 200274.8 L 392345.2 200274.8 L 392345.2 204882.8 L 395233.2 204083.8 L 395417.2 205352.8 L 387941.2 207584.8 L 387512.2 206151.8 Z M 387574.2 214609.8 Q 388966.2 212704.8 389745.2 209673.8 L 391076.2 210144.8 Q 390032.2 213688.8 388927.2 215285.8 L 387575.2 214609.8 L 387574.2 214609.8 Z M 399411.2 214507.8 Q 400148.2 214507.8 400373.2 214056.8 Q 400598.2 213605.8 400679.2 211926.8 Q 401212.2 212294.8 402072.2 212499.8 Q 401908.2 214547.8 401416.2 215223.8 Q 400904.2 215919.8 399491.2 215919.8 L 395355.2 215919.8 Q 393716.2 215919.8 393143.2 215488.8 Q 392570.2 215037.8 392570.2 213788.8 L 392570.2 208915.8 L 394065.2 208915.8 L 394065.2 213788.8 Q 394065.2 214239.8 394332.2 214383.8 Q 394577.2 214506.8 395458.2 214506.8 L 399410.2 214506.8 L 399411.2 214507.8 Z M 402954.2 209305.8 Q 405269.2 212008.8 406416.2 214220.8 L 405064.2 214896.8 Q 404040.2 212684.8 401705.2 209899.8 L 402954.2 209306.8 L 402954.2 209305.8 Z M 408074.2 206745.8 Q 408627.2 204472.8 408708.2 201523.8 L 409876.2 201666.8 Q 409876.2 204738.8 409283.2 207053.8 L 408074.2 206746.8 L 408074.2 206745.8 Z M 410594.2 197591.8 L 412047.2 197591.8 L 412047.2 216288.8 L 410594.2 216288.8 L 410594.2 197591.8 Z M 413480.2 205127.8 Q 413132.2 203468.8 412231.2 201297.8 L 413338.2 200866.8 Q 414279.2 202955.8 414668.2 204594.8 L 413480.2 205126.8 L 413480.2 205127.8 Z M 419112.2 202116.8 Q 418355.2 203775.8 417187.2 205496.8 L 420096.2 205496.8 L 420096.2 203100.8 L 421571.2 203100.8 L 421571.2 205496.8 L 426015.2 205496.8 L 426015.2 211741.8 Q 426015.2 212828.8 425379.2 213135.8 Q 424888.2 213402.8 422983.2 213402.8 Q 422922.2 212766.8 422554.2 211989.8 Q 423394.2 212009.8 424294.2 212009.8 Q 424581.2 212009.8 424581.2 211722.8 L 424581.2 206889.8 L 421572.2 206889.8 L 421572.2 216289.8 L 420097.2 216289.8 L 420097.2 206889.8 L 417290.2 206889.8 L 417290.2 213545.8 L 415877.2 213545.8 L 415877.2 207156.8 Q 415017.2 208139.8 413932.2 208999.8 Q 413625.2 208180.8 413113.2 207421.8 Q 415734.2 205517.8 417475.2 202117.8 L 414156.2 202117.8 L 414156.2 200684.8 L 418109.2 200684.8 Q 418661.2 199332.8 419133.2 197509.8 L 420608.2 197817.8 Q 420219.2 199250.8 419686.2 200683.8 L 426527.2 200683.8 L 426527.2 202116.8 L 419112.2 202116.8 Z M 436378.2 200867.8 Q 435805.2 199598.8 434678.2 198143.8 L 436050.2 197570.8 Q 437258.2 199025.8 437811.2 200213.8 L 436378.2 200868.8 L 436378.2 200867.8 Z M 432384.2 201133.8 Q 431483.2 200293.8 429230.2 198901.8 L 430111.2 197856.8 Q 431974.2 198860.8 433306.2 199925.8 L 432385.2 201133.8 L 432384.2 201133.8 Z M 431790.2 206417.8 Q 430725.2 205577.8 428412.2 204410.8 L 429272.2 203303.8 Q 431484.2 204368.8 432651.2 205187.8 L 431791.2 206416.8 L 431790.2 206417.8 Z M 432547.2 209489.8 Q 431400.2 213093.8 430151.2 216022.8 L 428779.2 215263.8 Q 430254.2 212007.8 431319.2 208690.8 L 432547.2 209489.8 Z M 439450.2 205249.8 L 439429.2 205946.8 Q 439184.2 214587.8 438591.2 215407.8 Q 438160.2 215980.8 437403.2 216061.8 Q 436624.2 216122.8 435313.2 216061.8 Q 435232.2 215242.8 434924.2 214669.8 Q 435703.2 214750.8 436747.2 214750.8 Q 437178.2 214750.8 437382.2 214485.8 Q 437833.2 213870.8 438018.2 206661.8 L 435990.2 206661.8 Q 435417.2 213440.8 432816.2 216287.8 Q 432345.2 215674.8 431730.2 215325.8 Q 434535.2 212377.8 434782.2 202341.8 L 432877.2 202341.8 L 432877.2 200888.8 L 440025.2 200888.8 L 440025.2 202341.8 L 436196.2 202341.8 L 436072.2 205249.8 L 439452.2 205249.8 L 439450.2 205249.8 Z M 447211.2 210165.8 L 444344.2 210165.8 L 444344.2 214588.8 Q 444344.2 215756.8 443627.2 216043.8 Q 443012.2 216310.8 440780.2 216310.8 Q 440719.2 215859.8 440351.2 214896.8 Q 442112.2 214957.8 442563.2 214896.8 Q 442931.2 214896.8 442931.2 214588.8 L 442931.2 210165.8 L 439798.2 210165.8 L 439798.2 208793.8 L 442931.2 208793.8 L 442931.2 206826.8 Q 443750.2 206294.8 444673.2 205331.8 L 440802.2 205331.8 L 440802.2 204060.8 L 440474.2 204572.8 Q 440085.2 204245.8 439184.2 203794.8 Q 440781.2 201705.8 441498.2 197609.8 L 442951.2 197834.8 Q 442767.2 198777.8 442378.2 200313.8 L 447191.2 200313.8 L 447191.2 201746.8 L 441887.2 201746.8 Q 441314.2 203199.8 440842.2 203978.8 L 445881.2 203978.8 L 446148.2 203897.8 L 447089.2 204552.8 Q 445942.2 206088.8 444345.2 207317.8 L 444345.2 208792.8 L 447212.2 208792.8 L 447212.2 210164.8 L 447211.2 210165.8 Z M 456674.2 211271.8 L 454195.2 211783.8 L 454195.2 216207.8 L 452843.2 216207.8 L 452843.2 212050.8 L 449280.2 212766.8 L 448931.2 211271.8 L 452843.2 210636.8 L 452843.2 207645.8 L 451184.2 207645.8 Q 450017.2 207645.8 449730.2 207932.8 Q 449442.2 206929.8 449279.2 206642.8 Q 449667.2 206519.8 450220.2 204983.8 Q 450651.2 203918.8 451286.2 201481.8 L 449094.2 201481.8 L 449094.2 200028.8 L 451593.2 200028.8 Q 451880.2 198819.8 452024.2 197611.8 L 453457.2 197898.8 Q 453314.2 198758.8 453006.2 200029.8 L 456283.2 200029.8 L 456283.2 201482.8 L 452616.2 201482.8 Q 452001.2 203837.8 451040.2 206254.8 L 452841.2 206254.8 L 452841.2 203121.8 L 454193.2 203121.8 L 454193.2 206254.8 L 456241.2 206254.8 L 456241.2 207646.8 L 454193.2 207646.8 L 454193.2 210391.8 L 456569.2 209980.8 L 456672.2 211271.8 L 456674.2 211271.8 Z M 464435.2 214384.8 Q 465070.2 214384.8 465254.2 213872.8 Q 465459.2 213360.8 465520.2 211579.8 Q 466115.2 211988.8 466892.2 212152.8 Q 466769.2 214281.8 466298.2 215018.8 Q 465826.2 215755.8 464537.2 215755.8 L 461014.2 215755.8 Q 459539.2 215755.8 459027.2 215284.8 Q 458515.2 214833.8 458515.2 213501.8 L 458515.2 205084.8 L 460010.2 205084.8 L 460010.2 209079.8 Q 462775.2 207563.8 464740.2 205986.8 L 465785.2 207257.8 Q 463164.2 209080.8 460009.2 210656.8 L 460009.2 213503.8 Q 460009.2 214056.8 460214.2 214220.8 Q 460439.2 214384.8 461155.2 214384.8 L 464432.2 214384.8 L 464435.2 214384.8 Z M 462796.2 197836.8 Q 462693.2 198164.8 462509.2 198553.8 Q 464454.2 202588.8 467650.2 204860.8 Q 467117.2 205271.8 466564.2 206028.8 Q 463881.2 203836.8 461752.2 200089.8 Q 459827.2 203713.8 456796.2 206192.8 Q 456263.2 205435.8 455731.2 205086.8 Q 459520.2 202239.8 461219.2 197570.8 L 462796.2 197837.8 L 462796.2 197836.8 Z M 472504.2 216124.8 L 476907.2 206949.8 L 472504.2 197774.8 L 473609.2 197405.8 L 478156.2 206949.8 L 473609.2 216493.8 L 472504.2 216124.8 Z M 469268.2 216124.8 L 473671.2 206949.8 L 469268.2 197774.8 L 470373.2 197405.8 L 474920.2 206949.8 L 470373.2 216493.8 L 469268.2 216124.8 Z M 505518.2 216124.8 L 504413.2 216493.8 L 499866.2 206949.8 L 504413.2 197405.8 L 505518.2 197774.8 L 501115.2 206949.8 L 505518.2 216124.8 Z M 508754.2 216124.8 L 507649.2 216493.8 L 503102.2 206949.8 L 507649.2 197405.8 L 508754.2 197774.8 L 504351.2 206949.8 L 508754.2 216124.8 Z M 518994.2 201092.8 Q 518134.2 202588.8 517049.2 203713.8 Q 516270.2 203058.8 515799.2 202791.8 Q 517867.2 200907.8 518952.2 197610.8 L 520407.2 197979.8 Q 520059.2 198982.8 519690.2 199781.8 L 527206.2 199781.8 L 527473.2 199700.8 L 528600.2 200028.8 Q 527883.2 202464.8 527064.2 203980.8 L 525712.2 203632.8 Q 526224.2 202649.8 526695.2 201092.8 L 523111.2 201092.8 L 522927.2 202116.8 Q 524135.2 206540.8 528990.2 207400.8 Q 528457.2 207871.8 528109.2 208650.8 Q 523849.2 207687.8 522313.2 204062.8 Q 520798.2 207503.8 516149.2 208814.8 Q 515781.2 208015.8 515289.2 207564.8 Q 518484.2 206765.8 519979.2 205024.8 Q 521167.2 203632.8 521576.2 201092.8 L 518996.2 201092.8 L 518994.2 201092.8 Z M 514898.2 201440.8 Q 513607.2 200437.8 511047.2 199352.8 L 511867.2 198267.8 Q 514344.2 199188.8 515737.2 200191.8 L 514897.2 201440.8 L 514898.2 201440.8 Z M 516188.2 204984.8 Q 513341.2 206908.8 511108.2 208321.8 L 510453.2 206888.8 Q 512562.2 205721.8 515715.2 203673.8 L 516187.2 204984.8 L 516188.2 204984.8 Z M 514304.2 214364.8 L 516987.2 214364.8 L 516987.2 210288.8 L 514304.2 210288.8 L 514304.2 214364.8 Z M 518400.2 210288.8 L 518400.2 214364.8 L 521061.2 214364.8 L 521061.2 210288.8 L 518400.2 210288.8 Z M 522475.2 210288.8 L 522475.2 214364.8 L 525179.2 214364.8 L 525179.2 210288.8 L 522475.2 210288.8 Z M 526674.2 214364.8 L 528989.2 214364.8 L 528989.2 215797.8 L 510496.2 215797.8 L 510496.2 214364.8 L 512871.2 214364.8 L 512871.2 208997.8 L 526675.2 208997.8 L 526675.2 214364.8 L 526674.2 214364.8 Z M 534866.2 202403.8 Q 533411.2 204656.8 531752.2 205823.8 Q 531404.2 205291.8 530789.2 204759.8 Q 532878.2 203550.8 534373.2 201053.8 L 531178.2 201053.8 L 531178.2 199741.8 L 534865.2 199741.8 L 534865.2 197612.8 L 536258.2 197612.8 L 536258.2 199741.8 L 539617.2 199741.8 L 539617.2 201053.8 L 536401.2 201053.8 Q 538510.2 202589.8 539514.2 203510.8 L 538694.2 204718.8 Q 537957.2 203878.8 536258.2 202301.8 L 536258.2 206438.8 L 534865.2 206438.8 L 534865.2 202403.8 L 534866.2 202403.8 Z M 546007.2 207319.8 L 547031.2 208035.8 Q 543631.2 214527.8 532408.2 216391.8 Q 532203.2 215634.8 531610.2 214999.8 Q 536361.2 214302.8 539494.2 212869.8 Q 537733.2 211681.8 535932.2 210862.8 L 537099.2 210022.8 Q 539147.2 210903.8 540970.2 212131.8 Q 543530.2 210575.8 544779.2 208691.8 L 537878.2 208691.8 Q 535666.2 210247.8 533065.2 211292.8 Q 532533.2 210697.8 531940.2 210226.8 Q 536855.2 208403.8 539108.2 205760.8 L 540603.2 206355.8 Q 540194.2 206826.8 539538.2 207379.8 L 545723.2 207379.8 L 546010.2 207318.8 L 546007.2 207319.8 Z M 545720.2 201052.8 Q 547379.2 203529.8 549755.2 204778.8 Q 549140.2 205270.8 548751.2 205883.8 Q 546806.2 204614.8 545106.2 202198.8 L 545106.2 206437.8 L 543673.2 206437.8 L 543673.2 202444.8 Q 542157.2 204636.8 540437.2 205761.8 Q 540089.2 205229.8 539454.2 204676.8 Q 541625.2 203509.8 543222.2 201052.8 L 540273.2 201052.8 L 540273.2 199740.8 L 543673.2 199740.8 L 543673.2 197611.8 L 545106.2 197611.8 L 545106.2 199740.8 L 549325.2 199740.8 L 549325.2 201052.8 L 545721.2 201052.8 L 545720.2 201052.8 Z M 553564.2 204656.8 L 552068.2 204656.8 L 552068.2 200089.8 L 560159.2 200089.8 Q 559523.2 198676.8 559155.2 197939.8 L 560732.2 197488.8 Q 561592.2 199085.8 561981.2 200089.8 L 569333.2 200089.8 L 569333.2 204164.8 L 567797.2 204164.8 L 567797.2 201481.8 L 553564.2 201481.8 L 553564.2 204656.8 Z M 562944.2 202772.8 Q 566753.2 204615.8 569189.2 206254.8 L 568186.2 207421.8 Q 566055.2 205865.8 561980.2 203756.8 L 562943.2 202773.8 L 562944.2 202772.8 Z M 552254.2 206295.8 Q 555510.2 205127.8 558337.2 202711.8 L 559381.2 203612.8 Q 556493.2 206172.8 553156.2 207605.8 L 552255.2 206294.8 L 552254.2 206295.8 Z M 569354.2 214220.8 L 569354.2 215633.8 L 552090.2 215633.8 L 552090.2 214220.8 L 559873.2 214220.8 L 559873.2 209080.8 L 554200.2 209080.8 L 554200.2 207687.8 L 567287.2 207687.8 L 567287.2 209080.8 L 561450.2 209080.8 L 561450.2 214220.8 L 569355.2 214220.8 L 569354.2 214220.8 Z M 572876.2 202199.8 L 574412.2 202199.8 L 574412.2 216310.8 L 572876.2 216310.8 L 572876.2 202199.8 Z M 574351.2 197877.8 Q 576154.2 199474.8 576870.2 200763.8 L 575642.2 201583.8 Q 574863.2 200251.8 573184.2 198592.8 L 574351.2 197876.8 L 574351.2 197877.8 Z M 578714.2 211415.8 L 583587.2 211415.8 L 583587.2 208670.8 L 578714.2 208670.8 L 578714.2 211415.8 Z M 578714.2 207400.8 L 583587.2 207400.8 L 583587.2 204676.8 L 578714.2 204676.8 L 578714.2 207400.8 Z M 577342.2 203407.8 L 585022.2 203407.8 L 585022.2 212684.8 L 577342.2 212684.8 L 577342.2 203407.8 Z M 589547.2 214445.8 Q 589547.2 215612.8 588831.2 215940.8 Q 588258.2 216227.8 586189.2 216227.8 Q 586046.2 215470.8 585698.2 214794.8 Q 586127.2 214814.8 587643.2 214814.8 Q 587991.2 214814.8 587991.2 214446.8 L 587991.2 200191.8 L 578160.2 200191.8 L 578160.2 198758.8 L 589547.2 198758.8 L 589547.2 214446.8 L 589547.2 214445.8 Z M 595384.2 216124.8 L 599787.2 206949.8 L 595384.2 197774.8 L 596489.2 197405.8 L 601036.2 206949.8 L 596489.2 216493.8 L 595384.2 216124.8 Z M 592148.2 216124.8 L 596551.2 206949.8 L 592148.2 197774.8 L 593253.2 197405.8 L 597800.2 206949.8 L 593253.2 216493.8 L 592148.2 216124.8 Z " fill-rule="nonzero" style="fill:#ffffff;;fill-opacity:1;"/>
</svg>