<svg version="1.1" x="0" y="0" width="100%" height="100%" viewBox="0 0 567091.2 54118.4" xmlns="http://www.w3.org/2000/svg">
  <path d="M 199356.6 18333.6 Q 195809.35 18944.35 191005.6 19446.6 Q 190790.35 18226.85 190253.1 17260.85 Q 201866.1 15971.1 207418.85 13892.1 L 209427.85 15971.1 Q 207061.85 16795.35 201972.85 17871.6 L 201972.85 25396.6 L 209604.6 25396.6 L 209604.6 27762.6 L 201972.85 27762.6 L 201972.85 36829.35 L 209930.1 36829.35 L 209930.1 39123.6 L 191651.35 39123.6 L 191651.35 23641.35 L 194124.1 23641.35 L 194124.1 36829.35 L 199354.85 36829.35 L 199354.85 18335.35 L 199356.6 18333.6 Z M 189071.85 26614.6 Q 188247.6 33997.85 185701.35 39193.6 Q 190001.1 42884.35 200037.35 42956.1 Q 208710.35 42956.1 210574.1 42884.35 Q 209819.85 44032.35 209534.6 45500.6 L 199963.85 45500.6 Q 189322.1 45500.6 184483.35 41344.35 Q 182404.35 44641.35 179357.6 46648.6 Q 178498.35 45465.6 177350.35 44749.85 Q 180470.6 42851.1 182619.6 39482.35 Q 180325.35 36579.1 178927.1 32134.1 L 181006.1 31309.85 Q 182117.35 34928.85 183837.6 37188.1 Q 185522.85 33675.85 186277.1 28621.85 L 178606.85 28621.85 Q 181366.6 24141.85 184231.35 18372.1 L 177924.35 18372.1 L 177924.35 15971.1 L 188102.35 15971.1 Q 185020.6 22171.35 182764.85 26222.6 L 187064.6 26222.6 L 187531.85 26185.85 L 189071.85 26618.1 L 189071.85 26614.6 Z M 229463.6 18118.35 L 229463.6 24605.6 L 240966.35 24605.6 L 240966.35 18118.35 L 229463.6 18118.35 Z M 229356.85 27151.85 Q 228711.1 35609.6 225272.35 40054.6 Q 224339.6 39051.85 222906.35 38441.1 Q 226705.6 33639.1 226705.6 23641.35 L 226705.6 15577.35 L 243622.85 15577.35 L 243622.85 27153.6 L 229358.6 27153.6 L 229356.85 27151.85 Z M 235628.85 28189.6 Q 242403.1 34893.85 244804.1 38371.1 L 242544.85 40091.35 Q 239750.1 35863.35 233513.1 29698.1 L 235628.85 28191.35 L 235628.85 28189.6 Z M 220251.6 21917.6 Q 218496.35 19014.35 214875.6 15645.6 L 216882.85 14320.85 Q 220683.85 17724.6 222365.6 20412.6 L 220251.6 21917.6 Z M 221327.85 39265.35 Q 221579.85 39407.1 222439.1 40052.85 Q 223300.1 40661.85 223980.85 41090.6 Q 226668.85 42775.85 233334.6 42775.85 Q 240395.85 42775.85 246274.1 42095.1 Q 245628.35 43780.35 245521.6 44963.35 Q 239249.6 45322.1 233264.6 45322.1 Q 226418.6 45322.1 223373.6 43384.85 Q 220111.6 41235.85 219931.35 41235.85 Q 218606.6 41235.85 215199.35 45785.85 L 213407.35 43278.1 Q 216454.1 39946.1 218674.85 39085.1 L 218674.85 29048.85 L 213801.1 29048.85 L 213801.1 26541.1 L 221327.85 26541.1 L 221327.85 39265.35 Z M 268313.6 28513.35 Q 267739.6 33173.6 266092.85 35789.85 Q 264120.6 38941.6 259890.85 40591.85 Q 259281.85 39337.1 258279.1 38477.85 Q 262043.35 37149.6 263763.6 34533.35 Q 265198.6 32384.35 265662.35 28513.35 L 259248.6 28513.35 L 259248.6 26182.35 L 269284.85 26182.35 L 269284.85 20951.6 L 264015.6 20951.6 Q 262797.6 23280.85 261684.6 24570.6 Q 260860.35 23854.85 259462.1 23209.1 Q 262256.85 20092.35 263726.85 14751.35 L 266269.6 15325.35 Q 265767.35 17047.35 265088.35 18622.35 L 269281.35 18622.35 L 269281.35 13820.35 L 271932.6 13820.35 L 271932.6 18622.35 L 280176.85 18622.35 L 280176.85 20953.35 L 271932.6 20953.35 L 271932.6 26184.1 L 281646.85 26184.1 L 281646.85 28515.1 L 274585.6 28515.1 L 274585.6 36794.35 Q 274585.6 37438.35 274765.85 37618.6 Q 274946.1 37798.85 275625.1 37798.85 L 278493.35 37798.85 Q 279139.1 37798.85 279319.35 37083.1 Q 279534.6 36293.85 279569.6 33569.1 Q 280465.6 34249.85 281970.6 34608.6 Q 281755.35 37977.35 281074.6 39123.6 Q 280430.6 40271.6 278745.35 40271.6 L 275268.1 40271.6 Q 273295.85 40271.6 272615.1 39517.35 Q 271971.1 38836.6 271971.1 36794.35 L 271971.1 28515.1 L 268315.35 28515.1 L 268313.6 28513.35 Z M 255517.6 22311.35 Q 253762.35 19446.6 249963.1 16326.35 L 252005.35 14893.1 Q 255983.1 17974.85 257703.35 20662.85 L 255517.6 22309.6 L 255517.6 22311.35 Z M 256772.35 39982.85 Q 256844.1 39982.85 260247.85 41955.1 Q 262829.1 43495.1 269207.85 43495.1 Q 276410.85 43495.1 282219.1 42851.1 Q 281464.85 44497.85 281429.85 45609.1 Q 275373.1 46002.85 269172.85 46002.85 Q 262794.1 46002.85 259747.35 44247.6 Q 256737.35 42383.85 256485.35 42383.85 Q 254838.6 42383.85 251217.85 46396.6 L 249462.6 44140.85 Q 252078.85 41629.6 254192.85 40626.85 L 254192.85 29839.85 L 249784.6 29839.85 L 249784.6 27332.1 L 256772.35 27332.1 L 256772.35 39982.85 Z M 292577.35 32741.35 L 292577.35 43136.35 Q 292577.35 45213.6 291322.6 45787.6 Q 290319.85 46289.85 286807.6 46289.85 Q 286627.35 45213.6 286018.35 43745.35 Q 288454.35 43852.1 289350.35 43780.35 Q 289996.1 43780.35 289996.1 43136.35 L 289996.1 33565.6 Q 289063.35 33889.35 285624.6 35000.6 L 284943.85 32419.35 Q 285981.6 32132.35 289997.85 30914.35 L 289997.85 23317.6 L 285302.6 23317.6 L 285302.6 20844.85 L 289997.85 20844.85 L 289997.85 13711.85 L 292579.1 13711.85 L 292579.1 20844.85 L 296807.1 20844.85 L 296807.1 23317.6 L 292579.1 23317.6 L 292579.1 30126.85 L 296343.35 28943.85 L 296700.35 31381.6 L 292579.1 32741.35 L 292577.35 32741.35 Z M 308381.6 38155.85 L 317735.35 38155.85 L 317735.35 40556.85 L 308381.6 40556.85 L 308381.6 46505.1 L 305765.35 46505.1 L 305765.35 40556.85 L 296698.6 40556.85 L 296698.6 38155.85 L 305765.35 38155.85 L 305765.35 34461.6 L 298525.6 34461.6 L 298525.6 32097.35 L 305765.35 32097.35 L 305765.35 28942.1 L 308381.6 28942.1 L 308381.6 32097.35 L 315157.6 32097.35 L 315157.6 34461.6 L 308381.6 34461.6 L 308381.6 38155.85 Z M 302613.6 18011.6 Q 304368.85 20771.35 307237.1 22922.1 Q 310462.35 20736.35 312326.1 18011.6 L 302615.35 18011.6 L 302613.6 18011.6 Z M 316016.85 16399.85 Q 313796.1 20879.85 309279.35 24322.1 Q 313295.6 26793.1 318312.85 27869.35 Q 317453.6 28730.35 316664.35 30093.6 Q 311503.6 28765.35 307165.35 25790.35 Q 302865.6 28585.1 297631.35 30055.1 Q 297022.35 28730.35 296233.1 27906.1 Q 301180.35 26686.35 305193.1 24250.35 Q 301932.85 21455.6 300069.1 18013.35 L 297739.85 18013.35 L 297739.85 15612.35 L 313974.6 15612.35 L 314403.35 15505.6 L 316015.1 16401.6 L 316016.85 16399.85 Z M 325370.6 24999.35 L 322754.35 24999.35 L 322754.35 17761.35 L 336588.1 17761.35 Q 335833.85 15932.6 334796.1 14285.85 L 337412.35 13461.6 Q 338989.1 15897.6 339739.85 17761.35 L 351926.85 17761.35 L 351926.85 24999.35 L 349203.85 24999.35 L 349203.85 20269.1 L 325368.85 20269.1 L 325368.85 24999.35 L 325370.6 24999.35 Z M 333292.85 27904.35 Q 331535.85 25825.35 328058.6 23781.35 L 329670.35 22096.1 Q 333254.35 24068.35 334976.35 26005.6 L 333291.1 27904.35 L 333292.85 27904.35 Z M 326086.35 27510.6 Q 329957.35 29624.6 331677.6 31451.6 L 330065.85 33458.85 Q 328310.6 31490.1 324546.35 29304.35 L 326086.35 27512.35 L 326086.35 27510.6 Z M 339921.85 37795.35 Q 347950.85 40698.6 352611.1 44140.85 L 350999.35 46183.1 Q 346374.1 42670.85 338632.1 39730.85 L 339921.85 37797.1 L 339921.85 37795.35 Z M 352752.85 34461.6 L 352752.85 36792.6 L 337949.6 36792.6 Q 334797.85 43780.35 323939.1 46288.1 Q 323400.1 44963.35 322434.1 43995.6 Q 331896.35 41988.35 334871.35 36792.6 L 322075.35 36792.6 L 322075.35 34461.6 L 335944.1 34461.6 Q 337163.85 30842.6 337414.1 22062.85 L 340173.85 22062.85 Q 339921.85 30377.1 338775.6 34463.35 L 352752.85 34463.35 L 352752.85 34461.6 Z M 366192.85 38010.6 L 357017.6 40556.85 L 356515.35 38332.6 Q 357661.6 38082.35 365942.6 35968.35 L 366192.85 38010.6 Z M 370063.85 30340.35 Q 370063.85 31129.6 370028.85 31451.6 Q 369274.6 43458.35 367841.35 44963.35 Q 366980.35 45894.35 365475.35 46001.1 Q 364327.35 46107.85 361245.6 45966.1 Q 361103.85 44641.35 360494.85 43708.6 Q 362608.85 43925.6 364581.1 43925.6 Q 365477.1 43925.6 365835.85 43493.35 Q 366982.1 42347.1 367591.1 32526.1 L 358057.1 32526.1 Q 358776.35 27402.1 359170.1 20269.1 L 361464.35 20375.85 Q 361140.6 25036.1 360568.35 30340.35 L 364976.6 30340.35 Q 365692.35 24749.1 366159.6 17616.1 L 357663.35 17616.1 L 357663.35 15286.85 L 368595.6 15286.85 Q 367806.35 25893.6 367269.1 30338.6 L 370063.85 30338.6 L 370063.85 30340.35 Z M 381389.85 14212.35 L 380600.6 15824.1 Q 384326.35 21380.35 389989.35 25109.6 Q 389093.35 26255.85 388664.6 27580.6 Q 383323.6 23639.6 379310.85 18048.35 Q 375761.85 23818.1 370315.85 27652.35 Q 369596.6 26541.1 368737.35 25538.35 Q 375833.6 20986.6 379058.85 13424.85 L 381389.85 14214.1 L 381389.85 14212.35 Z M 384935.35 27043.35 L 374328.6 27043.35 L 374328.6 24749.1 L 384935.35 24749.1 L 384935.35 27043.35 Z M 379669.6 38332.6 Q 379452.6 34965.6 378234.6 29804.85 L 380348.6 29517.85 Q 381531.6 34319.85 381890.35 38010.6 L 379669.6 38332.6 Z M 374076.6 30198.6 Q 375798.6 34678.6 376442.6 38656.35 L 374256.85 39265.35 Q 373899.85 35823.1 371997.6 30699.1 L 374076.6 30196.85 L 374076.6 30198.6 Z M 388736.35 30627.35 Q 385616.1 38404.35 383502.1 42347.1 L 388984.85 42347.1 L 388984.85 44676.35 L 370849.6 44676.35 L 370849.6 42347.1 L 381207.85 42347.1 Q 384147.85 36825.85 386296.85 29979.85 L 388734.6 30625.6 L 388736.35 30627.35 Z " fill-rule="nonzero" style="fill:#ffffff;;fill-opacity:1;"/>
</svg>