<svg version="1.1" x="0" y="0" width="100%" height="100%" viewBox="0 0 450508.8 128614.4" xmlns="http://www.w3.org/2000/svg">
  <path d="M 34585.6 42569.85 L 34585.6 45216.4 L 11705.55 45216.4 L 11705.55 42569.85 L 21363.1 42569.85 L 21363.1 35517.85 L 13468.55 35517.85 L 13468.55 32830.3 L 21363.1 32830.3 L 21363.1 26866.85 L 12293.9 26866.85 L 12293.9 24054.25 L 33747.15 24054.25 L 33747.15 26866.85 L 24300.75 26866.85 L 24300.75 32830.3 L 32697.55 32830.3 L 32697.55 35517.85 L 24300.75 35517.85 L 24300.75 42569.85 L 34585.6 42569.85 Z M 28917.35 36272.25 Q 31814 38791.7 33158.8 40847.85 L 31016.55 42108.6 Q 29841.9 40179.55 26945.25 37364.9 L 28919.4 36274.3 L 28917.35 36272.25 Z M 37021 49078.6 L 37021 20528.25 L 8933.95 20528.25 L 8933.95 49078.6 L 37021 49078.6 Z M 40253.85 17631.6 L 40253.85 54074.45 L 37021 54074.45 L 37021 51975.25 L 8933.95 51975.25 L 8933.95 54074.45 L 5826.15 54074.45 L 5826.15 17631.6 L 40255.9 17631.6 L 40253.85 17631.6 Z M 81606.45 21873.05 L 63427.05 21873.05 L 63427.05 18931.3 L 81606.45 18931.3 L 81606.45 21873.05 Z M 60741.55 18599.2 Q 58306.15 25148.95 56418.1 29429.35 Q 60323.35 33752.8 60323.35 38582.6 Q 60323.35 42192.65 58601.35 43408.3 Q 57803.9 43996.65 56293.05 44207.8 Q 55118.4 44332.85 53396.4 44248.8 Q 53314.4 42696.95 52557.95 41522.3 Q 54405 41606.35 55077.4 41563.3 Q 55874.85 41481.3 56377.1 41186.1 Q 57301.65 40556.75 57301.65 38287.4 Q 57301.65 34007 53439.45 29808.6 Q 55413.6 24896.8 56840.4 20362.2 L 50753.95 20362.2 L 50753.95 54031.4 L 47771.2 54031.4 L 47771.2 17506.55 L 58056.05 17506.55 L 58562.4 17381.5 L 60743.6 18601.25 L 60741.55 18599.2 Z M 67418.4 37112.75 Q 65319.2 44921.2 61750.15 50003.15 Q 60364.35 48828.5 59230.7 48367.25 Q 62631.65 43957.7 64564.8 36485.45 L 67420.45 37114.8 L 67418.4 37112.75 Z M 73672.95 31823.75 L 73672.95 50087.2 Q 73672.95 52688.65 72121.1 53318 Q 70776.3 53949.4 66075.65 53949.4 Q 65864.5 52438.55 65110.1 50757.55 Q 66200.7 50800.6 69769.75 50800.6 Q 70567.2 50757.55 70567.2 50087.2 L 70567.2 31823.75 L 61623.05 31823.75 L 61623.05 28886.1 L 83875.8 28886.1 L 83875.8 31823.75 L 73672.95 31823.75 Z M 79130.05 36399.35 Q 82740.1 43621.5 83914.75 48994.55 L 81018.1 50003.15 Q 80052.55 44503 76526.55 37196.8 L 79128 36399.35 L 79130.05 36399.35 Z M 125734.75 48953.55 L 125734.75 52059.3 L 88326.35 52059.3 L 88326.35 48953.55 L 103986.3 48953.55 L 103986.3 16372.9 L 107260.15 16372.9 L 107260.15 29222.3 L 122879.1 29222.3 L 122879.1 32328.05 L 107260.15 32328.05 L 107260.15 48955.6 L 125734.75 48955.6 L 125734.75 48953.55 Z M 159654.05 31024.25 L 138243.85 31024.25 L 138243.85 35181.65 L 159654.05 35181.65 L 159654.05 31024.25 Z M 159654.05 48908.45 L 159654.05 44457.9 L 138243.85 44457.9 L 138243.85 48908.45 L 159654.05 48908.45 Z M 159654.05 37699.05 L 138243.85 37699.05 L 138243.85 41981.5 L 159654.05 41981.5 L 159654.05 37699.05 Z M 150880.05 24390.45 Q 149789.45 27582.3 149494.25 28252.65 L 162845.9 28252.65 L 162845.9 54074.45 L 159654.05 54074.45 L 159654.05 51680.05 L 138243.85 51680.05 L 138243.85 54074.45 L 135179.1 54074.45 L 135179.1 28252.65 L 146177.35 28252.65 Q 146806.7 26237.5 147185.95 24390.45 L 130392.35 24390.45 L 130392.35 21493.8 L 141222.5 21493.8 Q 139838.75 19142.45 137655.5 16750.1 L 140384.05 15575.45 Q 143114.65 18217.9 144330.3 20528.25 L 142526.3 21493.8 L 153610.65 21493.8 Q 155834.9 18681.2 157427.75 15657.45 L 160830.75 16541 Q 159108.75 19187.55 157091.55 21493.8 L 167671.6 21493.8 L 167671.6 24390.45 L 150878 24390.45 L 150880.05 24390.45 Z M 189631.2 25903.35 Q 187661.15 31194.4 185182.7 34677.35 Q 184008.05 33752.8 182204.05 32998.4 Q 186904.7 26996 189044.9 15743.55 L 192404.85 16331.9 Q 191691.45 19480.7 190682.85 22840.65 L 206092.7 22840.65 L 206635.95 22670.5 L 208946.3 23890.25 Q 207435.45 29767.6 204538.8 35226.75 Q 202986.95 34388.3 201978.35 33927.05 Q 203952.5 29939.8 205045.15 25907.45 L 189635.3 25907.45 L 189631.2 25903.35 Z M 180564.05 26659.8 Q 177833.45 23847.2 172544.45 20823.45 L 174391.5 18599.2 Q 179639.5 21286.75 182577.15 24099.35 L 180562 26659.8 L 180564.05 26659.8 Z M 182956.4 36985.65 Q 179346.35 43367.3 174729.75 49789.95 L 171917.15 47649.75 Q 176072.5 42526.8 180566.1 34968.45 L 182958.45 36983.6 L 182956.4 36985.65 Z M 197148.55 30563 Q 197148.55 31446.55 197064.5 33545.75 Q 200172.3 47442.7 210207.05 51052.75 Q 208987.3 51977.3 208107.85 53740.3 Q 199627 50214.3 195975.95 39593.25 Q 193079.3 48869.5 182542.3 54201.55 Q 181574.7 52856.75 180188.9 51766.15 Q 188628.75 47608.75 191818.55 41018 Q 193876.75 36735.55 193876.75 30522 L 193876.75 27916.45 L 197150.6 27916.45 L 197150.6 30563 L 197148.55 30563 Z M 218979 28966.05 L 215914.25 28966.05 L 215914.25 20487.25 L 232119.5 20487.25 Q 231235.95 18345 230020.3 16415.95 L 233085.05 15450.4 Q 234932.1 18304 235811.55 20487.25 L 250087.75 20487.25 L 250087.75 28966.05 L 246897.95 28966.05 L 246897.95 23424.9 L 218976.95 23424.9 L 218976.95 28966.05 L 218979 28966.05 Z M 228259.35 32369.05 Q 226201.15 29933.65 222127.8 27539.25 L 224015.85 25565.1 Q 228214.25 27875.45 230231.45 30144.8 L 228257.3 32369.05 L 228259.35 32369.05 Z M 219817.45 31907.8 Q 224352.05 34384.2 226367.2 36524.4 L 224479.15 38875.75 Q 222423 36569.5 218013.45 34009.05 L 219817.45 31909.85 L 219817.45 31907.8 Z M 236024.75 43955.65 Q 245430.15 47356.6 250889.3 51388.95 L 249001.25 53781.3 Q 243583.1 49666.95 234513.9 46222.95 L 236024.75 43957.7 L 236024.75 43955.65 Z M 251055.35 40050.4 L 251055.35 42781 L 233714.4 42781 Q 230022.35 50966.65 217302.1 53904.3 Q 216670.7 52352.45 215539.1 51218.8 Q 226623.45 48867.45 230108.45 42781 L 215118.85 42781 L 215118.85 40050.4 L 231365.1 40050.4 Q 232793.95 35811 233087.1 25526.15 L 236319.95 25526.15 Q 236024.75 35265.7 234682 40052.45 L 251055.35 40052.45 L 251055.35 40050.4 Z M 275069.05 39925.35 L 272090.4 39925.35 L 272090.4 17758.7 L 290813.05 17758.7 L 290813.05 39925.35 L 287748.3 39925.35 L 287748.3 20530.3 L 275069.05 20530.3 L 275069.05 39925.35 Z M 270829.65 45341.45 L 256596.5 49580.85 L 255924.1 46557.1 L 261969.55 44919.15 L 261969.55 33498.6 L 257014.7 33498.6 L 257014.7 30601.95 L 261969.55 30601.95 L 261969.55 21491.75 L 256426.35 21491.75 L 256426.35 18554.1 L 270196.2 18554.1 L 270196.2 21491.75 L 264991.25 21491.75 L 264991.25 30601.95 L 269355.7 30601.95 L 269355.7 33498.6 L 264991.25 33498.6 L 264991.25 44037.65 Q 266040.85 43785.5 270405.3 42440.7 L 270825.55 45337.35 L 270829.65 45341.45 Z M 289427.25 50589.45 Q 290519.9 50589.45 290897.1 49287.7 Q 291190.25 48067.95 291360.4 43533.35 Q 292621.15 44457.9 293877.8 44710.05 Q 293584.65 49876.05 292871.25 51302.85 Q 292032.8 52940.8 289427.25 52940.8 L 285606.05 52940.8 Q 283424.85 52940.8 282541.3 52227.4 Q 281616.75 51429.95 281616.75 49414.8 L 281616.75 40597.75 Q 279015.3 49455.8 269905.1 54156.45 Q 268896.5 52604.6 267930.95 51891.2 Q 275026 48281.15 277795.55 42444.8 Q 279769.7 38287.4 279769.7 32114.85 L 279769.7 24054.25 L 282711.45 24054.25 L 282711.45 32198.9 Q 282711.45 36104.15 281955 39252.95 L 284515.45 39252.95 L 284515.45 49117.55 Q 284515.45 50001.1 284851.65 50294.25 Q 285144.8 50589.45 286028.35 50589.45 L 289429.3 50589.45 L 289427.25 50589.45 Z M 299632.15 47651.8 L 306473 47651.8 L 306473 24685.65 L 301017.95 24685.65 L 301017.95 22250.25 Q 304837.1 21536.85 307397.55 20067 L 310335.2 20067 L 310335.2 47651.8 L 316507.75 47651.8 L 316507.75 50841.6 L 299632.15 50841.6 L 299632.15 47651.8 Z M 323840.45 49078.6 Q 321068.85 46768.25 321068.85 43199.2 Q 321068.85 37785.15 326737.1 34720.4 L 326737.1 34509.25 Q 322579.7 31653.6 322579.7 27414.2 Q 322579.7 23929.2 324974.1 21748 Q 327366.45 19605.75 331021.6 19605.75 Q 334883.8 19605.75 337190.05 21875.1 Q 339459.4 24099.35 339459.4 27709.4 Q 339459.4 31948.8 335345.05 35138.6 L 335345.05 35349.75 Q 340550 38373.5 340550 43410.35 Q 340550 46811.3 337907.55 49080.65 Q 335176.95 51391 330894.5 51391 Q 326655.1 51391 323842.5 49080.65 L 323840.45 49078.6 Z M 336185.55 27916.45 Q 336185.55 25565.1 334799.75 24013.25 Q 333329.9 22416.3 330937.55 22416.3 Q 328795.3 22416.3 327452.55 23802.1 Q 326066.75 25187.9 326066.75 27412.15 Q 326066.75 29888.55 328165.95 31610.55 Q 329635.8 32785.2 332991.65 34130 Q 336183.5 31317.4 336183.5 27914.4 L 336185.55 27916.45 Z M 335261 47063.45 Q 336898.95 45634.6 336898.95 43328.35 Q 336898.95 40556.75 334463.55 38709.7 Q 332952.7 37576.05 328754.3 35897.1 Q 324555.9 38584.65 324555.9 42867.1 Q 324555.9 45300.45 326402.95 46940.45 Q 328206.95 48533.3 330978.55 48533.3 Q 333625.1 48533.3 335263.05 47065.5 L 335261 47063.45 Z M 361779.65 28045.6 L 364969.45 28045.6 L 364969.45 54031.4 L 361779.65 54031.4 L 361779.65 28045.6 Z M 366400.35 17002.25 Q 365432.75 18640.2 365266.7 18851.35 Q 372152.65 27037 382941.8 32285 Q 381474 33375.6 380676.55 35056.6 Q 370557.75 29808.6 363462.7 21286.75 Q 356662.85 30017.7 346378 35013.55 Q 345453.45 33375.6 344067.65 32200.95 Q 357165.1 26534.75 363673.85 15702.55 L 366404.45 17004.3 L 366400.35 17002.25 Z M 421020.55 19855.85 Q 417535.55 25274 414470.8 28715.95 L 411824.25 27584.35 Q 415350.25 23467.95 417828.7 18599.2 L 421018.5 19855.85 L 421020.55 19855.85 Z M 396375.45 28759 Q 394610.4 25062.85 390330 19855.85 L 392806.4 18470.05 Q 397004.8 23383.9 399063 27121.05 L 396375.45 28759 Z M 419466.65 50253.25 Q 420391.2 50253.25 420684.35 49580.85 Q 420979.55 48951.5 421104.6 46682.15 Q 422111.15 47438.6 423999.2 47856.8 Q 423706.05 51005.6 422822.5 52098.25 Q 421943.05 53231.9 419718.8 53231.9 L 413251.05 53231.9 Q 410397.45 53231.9 409431.9 52307.35 Q 408507.35 51423.8 408507.35 48777.25 L 408507.35 34166.9 L 401955.55 34166.9 Q 401326.2 42311.55 398974.85 46384.9 Q 395992.1 51673.9 388687.95 54193.35 Q 387974.55 52637.4 386713.8 51505.8 Q 393472.65 49363.55 396160.2 44787.95 Q 398216.35 41302.95 398722.7 34166.9 L 387259.1 34166.9 L 387259.1 31143.15 L 403718.55 31143.15 L 403718.55 15694.35 L 406949.35 15694.35 L 406949.35 31143.15 L 423324.75 31143.15 L 423324.75 34166.9 L 411609 34166.9 L 411609 48736.25 Q 411609 49701.8 411988.25 49997 Q 412322.4 50249.15 413583.15 50249.15 L 419462.55 50249.15 L 419466.65 50253.25 Z M 33369.95 81192.55 L 12585 81192.55 L 12585 83461.9 L 33369.95 83461.9 L 33369.95 81192.55 Z M 33369.95 85263.85 L 12585 85263.85 L 12585 87574.2 L 33369.95 87574.2 L 33369.95 85263.85 Z M 36432.65 89462.25 L 9604.3 89462.25 L 9604.3 79302.45 L 36432.65 79302.45 L 36432.65 89462.25 Z M 41766.75 93578.65 L 4399.35 93578.65 L 4399.35 91184.25 L 41766.75 91184.25 L 41766.75 93578.65 Z M 21488.15 103990.6 L 21488.15 101596.2 L 11746.55 101596.2 L 11746.55 103990.6 L 21488.15 103990.6 Z M 11746.55 99751.2 L 21488.15 99751.2 L 21488.15 97397.8 L 11746.55 97397.8 L 11746.55 99751.2 Z M 34626.6 97397.8 L 24466.8 97397.8 L 24466.8 99751.2 L 34626.6 99751.2 L 34626.6 97397.8 Z M 34626.6 101596.2 L 24466.8 101596.2 L 24466.8 103990.6 L 34626.6 103990.6 L 34626.6 101596.2 Z M 41973.8 112848.65 L 41973.8 115284.05 L 4147.2 115284.05 L 4147.2 112848.65 L 21488.15 112848.65 L 21488.15 110413.25 L 7632.2 110413.25 L 7632.2 108230 L 21488.15 108230 L 21488.15 105919.65 L 8849.9 105919.65 L 8849.9 95466.7 L 37695.45 95466.7 L 37695.45 105919.65 L 24468.85 105919.65 L 24468.85 108230 L 38574.9 108230 L 38574.9 110413.25 L 24468.85 110413.25 L 24468.85 112848.65 L 41975.85 112848.65 L 41973.8 112848.65 Z M 83916.8 99667.15 L 66787 99667.15 L 66787 112178.3 Q 66787 115074.95 64646.8 115704.3 Q 62965.8 116292.65 56416.05 116292.65 Q 56038.85 114699.8 55073.3 113102.85 Q 59648.9 113268.9 62461.5 113143.85 Q 63595.15 113102.85 63595.15 112137.3 L 63595.15 99667.15 L 46295.2 99667.15 L 46295.2 96559.35 L 63595.15 96559.35 L 63595.15 90513.9 Q 69179.35 87953.45 74091.15 83880.1 L 50452.6 83880.1 L 50452.6 80815.35 L 77490.05 80815.35 L 78162.45 80649.3 L 80513.8 82412.3 Q 74845.55 87996.5 66784.95 92110.85 L 66784.95 96561.4 L 83914.75 96561.4 L 83914.75 99669.2 L 83916.8 99667.15 Z M 105074.85 107727.75 Q 104992.85 109574.8 105286 110876.55 Q 92774.85 114949.9 91430.05 115999.5 Q 90927.8 114361.55 89878.2 113311.95 Q 91600.2 112137.3 91600.2 110079.1 L 91600.2 78425.05 L 94833.05 78425.05 L 94833.05 90895.2 L 105204 90895.2 L 105204 93959.95 L 94833.05 93959.95 L 94833.05 110919.6 L 105074.85 107729.8 L 105074.85 107727.75 Z M 119728.25 112217.25 Q 121239.1 112217.25 121741.35 110288.2 Q 122202.6 108607.2 122413.75 102563.8 Q 123799.55 103570.35 125396.5 104031.6 Q 125101.3 110540.35 124135.75 112764.6 Q 123002.1 115241 119937.35 115241 L 113555.7 115241 Q 110531.95 115241 109482.35 114025.35 Q 108432.75 112805.6 108432.75 109322.65 L 108432.75 78168.8 L 111665.6 78168.8 L 111665.6 93912.8 Q 118004.2 90009.6 122202.6 85727.15 L 124808.15 88414.7 Q 119767.2 92697.15 111665.6 97231.75 L 111665.6 109449.75 Q 111665.6 111212.75 112085.85 111715 Q 112463.05 112217.25 113889.85 112217.25 L 119726.2 112217.25 L 119728.25 112217.25 Z M 144332.35 100464.6 L 140008.9 101932.4 L 140008.9 116290.6 L 136985.15 116290.6 L 136985.15 102900 Q 133920.4 103906.55 130771.6 104872.1 L 130099.2 101766.35 L 136985.15 99792.2 L 136985.15 89548.35 L 133836.35 89548.35 Q 133207 93662.7 132157.4 96645.45 Q 131148.8 95848 129763 95345.75 Q 131526 90686.1 132198.4 81196.65 L 134844.95 81657.9 Q 134508.75 84890.75 134256.6 86569.7 L 136985.15 86569.7 L 136985.15 78006.85 L 140008.9 78006.85 L 140008.9 86569.7 L 143912.1 86569.7 L 143912.1 89552.45 L 140008.9 89552.45 L 140008.9 98873.8 L 144082.25 97613.05 L 144334.4 100468.7 L 144332.35 100464.6 Z M 149539.35 102688.85 Q 153276.5 106339.9 154787.35 109363.65 L 152351.95 110960.6 Q 151007.15 108018.85 147229 104156.65 L 149539.35 102688.85 Z M 162932 93619.65 L 162932 98615.5 L 167843.8 98615.5 L 167843.8 101512.15 L 162932 101512.15 L 162932 112469.4 Q 162932 115111.85 161292 115743.25 Q 159824.2 116286.5 154660.25 116286.5 Q 154449.1 114734.65 153692.65 113182.8 Q 157638.9 113307.85 159149.75 113223.8 Q 159988.2 113182.8 159988.2 112426.35 L 159988.2 101512.15 L 145041.65 101512.15 L 145041.65 98615.5 L 159988.2 98615.5 L 159988.2 93619.65 L 144414.35 93619.65 L 144414.35 90682 L 154910.35 90682 L 154910.35 85390.95 L 146765.7 85390.95 L 146765.7 82496.35 L 154910.35 82496.35 L 154910.35 77961.75 L 157889 77961.75 L 157889 82496.35 L 166119.75 82496.35 L 166119.75 85390.95 L 157889 85390.95 L 157889 90682 L 168048.8 90682 L 168048.8 93619.65 L 162929.95 93619.65 L 162932 93619.65 Z M 185432.8 87490.15 L 176617.8 87490.15 L 176617.8 96266.2 L 185432.8 96266.2 L 185432.8 87490.15 Z M 185432.8 109113.55 L 185432.8 99035.75 L 176617.8 99035.75 L 176617.8 109113.55 L 185432.8 109113.55 Z M 183503.75 78505 Q 181656.7 83796.05 181320.5 84675.5 L 188290.5 84675.5 L 188290.5 111924.1 L 176619.85 111924.1 L 176619.85 115238.95 L 173764.2 115238.95 L 173764.2 84675.5 L 178468.95 84675.5 Q 179729.7 80602.15 180147.9 77873.6 L 183507.85 78502.95 L 183503.75 78505 Z M 208819.2 86147.4 Q 207935.65 111337.8 205920.5 113814.2 Q 204745.85 115284.05 202605.65 115495.2 Q 200883.65 115702.25 196390.05 115450.1 Q 196224 113728.1 195340.45 112385.35 Q 198071.05 112637.5 201556.05 112637.5 Q 202771.7 112637.5 203273.95 112008.15 Q 205080 110075 205834.4 87445.05 L 195172.35 87445.05 Q 193239.2 92104.7 191224.05 94792.25 Q 190676.7 94290 188661.55 93029.25 Q 192775.9 87611.1 195086.25 77787.5 L 198069 78500.9 Q 197271.55 81774.75 196262.95 84546.35 L 208817.15 84546.35 L 208817.15 86143.3 L 208819.2 86147.4 Z M 199538.85 105081.2 Q 197609.8 101178 193159.25 95382.65 L 195594.65 93955.85 Q 200211.25 99833.2 202185.4 103443.25 L 199538.85 105081.2 Z M 214026.2 110876.55 Q 217257 110329.2 229770.2 107893.8 L 230022.35 110790.45 Q 226789.5 111503.85 221793.65 112512.45 Q 215284.9 113855.2 214571.5 114025.35 L 214028.25 110876.55 L 214026.2 110876.55 Z M 230313.45 88664.8 Q 225317.6 95886.95 220028.6 101178 L 229936.25 99751.2 Q 229936.25 101430.15 230061.3 102520.75 Q 216500.55 104663 215198.8 105251.35 Q 214946.65 104117.7 214149.2 102229.65 Q 215280.8 102018.5 217675.2 99583.1 Q 219608.35 97736.05 222502.95 94044 Q 215828.15 94839.4 214903.6 95259.65 Q 214567.4 94044 213854 92237.95 Q 214862.6 91985.8 216541.55 89675.45 Q 220278.7 85224.9 223386.5 78088.85 L 226451.25 79390.6 Q 222884.25 86485.65 218515.7 91733.65 L 224647.25 91186.3 Q 225990 89382.3 227545.95 86903.85 L 230315.5 88666.85 L 230313.45 88664.8 Z M 248870.05 78338.95 L 248870.05 116290.6 L 245680.25 116290.6 L 245680.25 104745 Q 234345.8 107516.6 232748.85 108566.2 Q 232330.65 107350.55 231110.9 106048.8 Q 233630.35 104663 233630.35 102479.75 L 233630.35 81780.9 L 236736.1 81780.9 L 236736.1 103822.5 L 245680.25 101766.35 L 245680.25 78338.95 L 248870.05 78338.95 Z M 267807.95 99330.95 Q 267807.95 100632.7 267974 101977.5 Q 257898.25 104665.05 256932.7 105378.45 Q 256678.5 104285.8 256008.15 102733.95 Q 256932.7 102567.9 258947.85 99921.35 Q 260710.85 97570 262726 94210.05 Q 257521.05 94923.45 256678.5 95384.7 Q 256385.35 94251.05 255671.95 92572.1 Q 256637.5 92360.95 257939.25 89968.6 Q 260835.9 85600.05 263230.3 78086.8 L 265958.85 79347.55 Q 263146.25 86524.6 259577.2 92024.75 L 264236.85 91563.5 Q 265497.6 89298.25 266631.25 86821.85 L 269107.65 88207.65 Q 265370.5 95595.85 261256.15 100927.9 L 267805.9 99330.95 L 267807.95 99330.95 Z M 268099.05 109027.45 L 256637.5 113478 L 255883.1 110540.35 Q 259745.3 109406.7 267594.75 106428.05 L 268097 109029.5 L 268099.05 109027.45 Z M 273306.05 95341.65 Q 273306.05 109656.8 269191.7 116585.8 Q 268267.15 115536.2 266922.35 114738.75 Q 270491.4 108652.3 270491.4 95343.7 L 270491.4 81237.65 L 281239.55 81237.65 Q 280737.3 79681.7 280105.9 78129.85 L 282877.5 77500.5 Q 283424.85 78632.1 284390.4 81237.65 L 293416.55 81237.65 L 293416.55 84009.25 L 273308.1 84009.25 L 273308.1 95343.7 L 273306.05 95341.65 Z M 282416.25 98658.55 L 282416.25 94712.3 L 278006.7 94712.3 L 278006.7 98658.55 L 282416.25 98658.55 Z M 278008.75 92529.05 L 282418.3 92529.05 L 282418.3 88664.8 L 278008.75 88664.8 L 278008.75 92529.05 Z M 289009.05 88664.8 L 284810.65 88664.8 L 284810.65 92529.05 L 289009.05 92529.05 L 289009.05 88664.8 Z M 289009.05 94710.25 L 284810.65 94710.25 L 284810.65 98656.5 L 289009.05 98656.5 L 289009.05 94710.25 Z M 293795.8 112346.4 L 293795.8 115074.95 L 272928.85 115074.95 L 272928.85 112346.4 L 282250.2 112346.4 L 282250.2 107600.65 L 274903 107600.65 L 274903 104913.1 L 282250.2 104913.1 L 282250.2 101469.1 L 282416.25 101469.1 L 282416.25 100966.85 L 275571.3 100966.85 L 275571.3 86313.45 L 291526.45 86313.45 L 291526.45 100966.85 L 284810.65 100966.85 L 284810.65 101469.1 L 284976.7 101469.1 L 284976.7 104913.1 L 292282.9 104913.1 L 292282.9 107600.65 L 284976.7 107600.65 L 284976.7 112346.4 L 293793.75 112346.4 L 293795.8 112346.4 Z " fill-rule="nonzero" style="fill:#ffffff;;fill-opacity:1;"/>
</svg>