<svg version="1.1" x="0" y="0" width="100%" height="100%" viewBox="0 0 264601.6 79974.4" xmlns="http://www.w3.org/2000/svg">
  <path d="M 62158.3 32409.9 Q 59800.8 28777.4 54528.3 24729.9 L 58520.8 21249.9 Q 64460.8 25752.4 66408.3 28622.4 L 62158.3 32409.9 Z M 60823.3 45924.9 Q 58470.8 42597.4 52683.3 38089.9 L 56575.8 34609.9 Q 62413.3 38702.4 64973.3 42032.4 L 60823.3 45922.4 L 60823.3 45924.9 Z M 48433.3 50842.4 Q 47665.8 49049.9 45363.3 45209.9 L 45363.3 65997.4 L 39473.3 65997.4 L 39473.3 47567.4 Q 36660.8 54169.9 33893.3 57702.4 Q 33125.8 55344.9 31075.8 51914.9 Q 35378.3 47002.4 38655.8 38194.9 L 31743.3 38194.9 L 31743.3 32512.4 L 39473.3 32512.4 L 39473.3 26724.9 Q 35223.3 27392.4 33690.8 27544.9 Q 33380.8 25497.4 32050.8 22834.9 Q 41880.8 21347.4 48538.3 18634.9 L 51968.3 23602.4 Q 49205.8 24679.9 45365.8 25499.9 L 45365.8 32512.4 L 52123.3 32512.4 L 52123.3 38194.9 L 45365.8 38194.9 L 45365.8 38604.9 Q 47925.8 41112.4 52023.3 46029.9 L 48435.8 50842.4 L 48433.3 50842.4 Z M 73678.3 53042.4 L 73678.3 65944.9 L 67688.3 65944.9 L 67688.3 54117.4 L 52225.8 56779.9 L 51253.3 50992.4 L 67690.8 48174.9 L 67690.8 18172.4 L 73680.8 18172.4 L 73680.8 47152.4 L 78748.3 46282.4 L 79720.8 51964.9 L 73680.8 53037.4 L 73678.3 53042.4 Z M 90368.3 37479.9 L 84635.8 37479.9 L 84635.8 26267.4 L 92468.3 26267.4 Q 91290.8 24064.9 88883.3 20944.9 L 94053.3 18637.4 Q 97483.3 22427.4 98763.3 25344.9 L 96820.8 26267.4 L 105420.8 26267.4 Q 104343.3 23247.4 102093.3 19714.9 L 107465.8 17717.4 Q 110335.8 21454.9 111513.3 25092.4 L 108493.3 26269.9 L 115145.8 26269.9 Q 117913.3 22172.4 119550.8 18539.9 L 125900.8 20432.4 Q 124363.3 22632.4 121545.8 26269.9 L 129023.3 26269.9 L 129023.3 37482.4 L 123033.3 37482.4 L 123033.3 31644.9 L 90365.8 31644.9 L 90365.8 37482.4 L 90368.3 37479.9 Z M 129588.3 52632.4 L 109720.8 52632.4 L 109720.8 59184.9 Q 109720.8 63642.4 106548.3 64769.9 Q 103988.3 65742.4 96565.8 65742.4 Q 95948.3 63129.9 94055.8 59852.4 Q 99278.3 60109.9 102145.8 59957.4 Q 103475.8 59957.4 103475.8 59034.9 L 103475.8 52634.9 L 83968.3 52634.9 L 83968.3 47004.9 L 103475.8 47004.9 L 103475.8 43827.4 Q 106088.3 42804.9 109260.8 40862.4 L 93133.3 40862.4 L 93133.3 35584.9 L 116223.3 35584.9 L 117453.3 35277.4 L 121343.3 38299.9 Q 116480.8 42752.4 109720.8 46029.9 L 109720.8 47002.4 L 129588.3 47002.4 L 129588.3 52632.4 Z M 142438.3 34662.4 L 136345.8 34662.4 L 136345.8 22989.9 L 155085.8 22989.9 Q 154215.8 20942.4 153345.8 19454.9 L 159438.3 17562.4 Q 161330.8 20582.4 162353.3 22989.9 L 179610.8 22989.9 L 179610.8 34662.4 L 173210.8 34662.4 L 173210.8 28672.4 L 142438.3 28672.4 L 142438.3 34662.4 Z M 151550.8 39372.4 Q 149300.8 36659.9 144280.8 33689.9 L 147813.3 29747.4 Q 152933.3 32257.4 155390.8 35024.9 L 151550.8 39374.9 L 151550.8 39372.4 Z M 142540.8 37222.4 Q 147813.3 39782.4 150270.8 42292.4 L 146638.3 46794.9 Q 144230.8 44134.9 139060.8 41317.4 L 142540.8 37219.9 L 142540.8 37222.4 Z M 159848.3 52582.4 Q 155035.8 62209.9 139675.8 65897.4 Q 138753.3 63129.9 136295.8 60672.4 Q 147968.3 58162.4 152420.8 52582.4 L 135883.3 52582.4 L 135883.3 47462.4 L 155135.8 47462.4 Q 156668.3 43059.9 157028.3 30872.4 L 163478.3 30872.4 Q 163120.8 42139.9 161688.3 47462.4 L 180220.8 47462.4 L 180220.8 52582.4 L 159843.3 52582.4 L 159848.3 52582.4 Z M 162253.3 53604.9 Q 172745.8 56524.9 180273.3 60874.9 L 176535.8 65742.4 Q 170085.8 61339.9 159435.8 58062.4 L 162253.3 53604.9 Z M 198298.3 54682.4 L 185650.8 57652.4 L 184678.3 52942.4 Q 187545.8 52429.9 197838.3 50177.4 L 198298.3 54684.9 L 198298.3 54682.4 Z M 224973.3 33792.4 Q 220925.8 30209.9 217753.3 26522.4 Q 215243.3 30002.4 211403.3 33792.4 L 224973.3 33792.4 Z M 210583.3 34559.9 Q 207770.8 37019.9 205518.3 38552.4 Q 204030.8 35942.4 202033.3 33639.9 Q 201725.8 38092.4 201315.8 41779.9 L 205258.3 41779.9 L 205155.8 43982.4 Q 204338.3 61182.4 202338.3 63434.9 Q 201008.3 65074.9 198448.3 65382.4 Q 196450.8 65584.9 192200.8 65432.4 Q 192098.3 62772.4 190718.3 60569.9 Q 193535.8 60827.4 196043.3 60827.4 Q 197220.8 60827.4 197838.3 60214.9 Q 199220.8 58677.4 199833.3 46544.9 L 186623.3 46544.9 Q 187543.3 39424.9 187953.3 28572.4 L 193125.8 28879.9 Q 192818.3 34617.4 192200.8 41834.9 L 196193.3 41834.9 Q 196963.3 35434.9 197525.8 25144.9 L 185953.3 25144.9 L 185953.3 20024.9 L 202850.8 20024.9 Q 202493.3 26937.4 201980.8 33644.9 Q 211913.3 27602.4 216825.8 17569.9 L 222098.3 19412.4 Q 221690.8 20229.9 220768.3 21869.9 Q 226708.3 28629.9 233775.8 32417.4 Q 232288.3 34669.9 231008.3 38459.9 Q 228550.8 36819.9 226348.3 34977.4 L 226348.3 38919.9 L 210578.3 38919.9 L 210578.3 34567.4 L 210583.3 34559.9 Z M 217858.3 54322.4 Q 217498.3 49869.9 215960.8 42239.9 L 220570.8 41577.4 Q 222260.8 48589.9 222720.8 53607.4 L 217858.3 54324.9 L 217858.3 54322.4 Z M 209818.3 55754.9 Q 209358.3 51352.4 207155.8 43672.4 L 211765.8 42444.9 Q 213813.3 48434.9 214735.8 54374.9 L 209818.3 55754.9 Z M 232500.8 43059.9 Q 228863.3 53249.9 226303.3 58622.4 L 232395.8 58622.4 L 232395.8 63742.4 L 205873.3 63742.4 L 205873.3 58622.4 L 221183.3 58622.4 Q 225073.3 50174.9 226970.8 41882.4 L 232500.8 43059.9 Z " fill-rule="nonzero" style="fill:#c35954;;fill-opacity:1;"/>
</svg>