<svg version="1.1" x="0" y="0" width="100%" height="100%" viewBox="0 0 439244.8 81510.4" xmlns="http://www.w3.org/2000/svg">
  <path d="M 12388.25 29399.15 L 12388.25 39897.5 Q 12388.25 58071.35 7479.5 67106 Q 6385.55 65904.95 4192.55 64964 Q 8527.55 56872.85 8527.55 39900.05 L 8527.55 25694 L 29261.6 25694 Q 28162.55 22769.15 26489.75 19584.2 L 30251 18643.25 Q 32393 22353.5 33647.6 25696.55 L 51089.6 25696.55 L 51089.6 29401.7 L 12390.8 29401.7 L 12388.25 29399.15 Z M 31503.05 52068.65 Q 30404 44859.8 27168.05 34259.45 L 30666.65 33318.5 Q 34009.7 43763.3 35159.75 51023.15 L 31505.6 52071.2 L 31503.05 52068.65 Z M 21527.45 54990.95 Q 20170.85 48307.4 15886.85 37181.75 L 19229.9 35825.15 Q 23462.9 46216.4 25133.15 53529.8 L 21530 54990.95 L 21527.45 54990.95 Z M 51765.35 60578 L 51765.35 64288.25 L 13066.55 64288.25 L 13066.55 60578 L 33693.5 60578 Q 41162.45 48621.05 44712.05 33004.85 L 48784.4 34466 Q 44604.95 48827.6 37661.3 60578 L 51760.25 60578 L 51765.35 60578 Z M 96624.95 47103.8 L 96624.95 38436.35 L 82577 38436.35 L 82577 47103.8 L 96624.95 47103.8 Z M 78711.2 47103.8 L 78711.2 38436.35 L 66228.95 38436.35 L 66228.95 41516.75 Q 66228.95 44546.15 66022.4 47103.8 L 78711.2 47103.8 Z M 66228.95 26425.85 L 66228.95 34779.65 L 78711.2 34779.65 L 78711.2 26425.85 L 66228.95 26425.85 Z M 96624.95 26425.85 L 82577 26425.85 L 82577 34779.65 L 96624.95 34779.65 L 96624.95 26425.85 Z M 100437.2 61465.4 Q 100437.2 64862 98088.65 65800.4 Q 96102.2 66532.25 88373.15 66430.25 Q 88110.5 64808.45 87067.55 62669 Q 89523.2 62771 95214.8 62771 Q 96624.95 62720 96624.95 61414.4 L 96624.95 50814.05 L 82577 50814.05 L 82577 66218.6 L 78711.2 66218.6 L 78711.2 50814.05 L 65655.2 50814.05 Q 64247.6 61309.85 59127.2 67004 Q 58033.25 65486.75 56153.9 64443.8 Q 62419.25 57393.05 62419.25 41519.3 L 62419.25 22718.15 L 100437.2 22718.15 L 100437.2 61467.95 L 100437.2 61465.4 Z M 124251.65 20157.95 Q 122321.3 25637.9 119187.35 31434.05 L 119187.35 66685.25 L 115375.1 66685.25 L 115375.1 37806.5 Q 113337.65 40889.45 110938.1 43551.65 Q 109578.95 40940.45 108691.55 39790.4 Q 116318.6 31750.25 120600.05 19058.9 L 124254.2 20157.95 L 124251.65 20157.95 Z M 129474.05 39270.2 L 133339.85 39270.2 L 133339.85 46371.95 Q 133339.85 60213.35 124200.65 67106 Q 122999.6 65435.75 121380.35 64392.8 Q 129471.5 58752.2 129471.5 46320.95 L 129471.5 39270.2 L 129474.05 39270.2 Z M 144202.85 39168.2 L 148119.65 39168.2 L 148119.65 66585.8 L 144202.85 66585.8 L 144202.85 39168.2 Z M 141747.2 19635.2 L 140648.15 21983.75 Q 146811.5 32377.55 156993.65 37755.5 Q 155374.4 39010.1 154275.35 40784.9 Q 145291.7 35562.5 138763.7 25431.35 Q 132653.9 35457.95 122420.75 41516.75 Q 121584.35 39843.95 120016.1 38487.35 Q 132707.45 31334.6 137616.2 18903.35 L 141739.55 19635.2 L 141747.2 19635.2 Z M 176111 20208.95 Q 173969 26369.75 170784.05 32114.9 L 170784.05 66685.25 L 167180.9 66685.25 L 167180.9 37911.05 Q 165301.55 40677.8 162743.9 43602.65 Q 162114.05 42034.4 160601.9 39790.4 Q 168279.95 31694.15 172614.95 19107.35 L 176113.55 20206.4 L 176111 20208.95 Z M 182220.8 61832.6 L 200343.65 61832.6 L 200343.65 57548.6 L 182220.8 57548.6 L 182220.8 61832.6 Z M 182220.8 35669.6 L 182220.8 40055.6 L 200343.65 40055.6 L 200343.65 35669.6 L 182220.8 35669.6 Z M 200343.65 42929.45 L 182220.8 42929.45 L 182220.8 47366.45 L 200343.65 47366.45 L 200343.65 42929.45 Z M 182220.8 54679.85 L 200343.65 54679.85 L 200343.65 50189.3 L 182220.8 50189.3 L 182220.8 54679.85 Z M 208595.45 61832.6 L 208595.45 65175.65 L 173762.45 65175.65 L 173762.45 61832.6 L 178722.2 61832.6 L 178722.2 32640.2 L 187705.85 32640.2 L 188697.8 27782.45 L 175955.45 27782.45 L 175955.45 24388.4 L 189274.1 24388.4 Q 189794.3 20627.15 189949.85 19058.9 L 194078.3 19321.55 L 193086.35 24388.4 L 207029.75 24388.4 L 207029.75 27782.45 L 192405.5 27782.45 Q 191362.55 32222 191207 32640.2 L 203949.35 32640.2 L 203949.35 61832.6 L 208598 61832.6 L 208595.45 61832.6 Z M 228699.65 46371.95 Q 227812.25 44127.95 224836.4 38801 L 224836.4 66687.8 L 221284.25 66687.8 L 221284.25 41412.2 Q 218254.85 51176.15 214809.8 56141 Q 214128.95 54261.65 212772.35 52382.3 Q 218150.3 45331.55 220917.05 32693.75 L 214335.5 32693.75 L 214335.5 29039.6 L 221281.7 29039.6 L 221281.7 19013 L 224833.85 19013 L 224833.85 29039.6 L 230630 29039.6 L 230630 32693.75 L 224833.85 32693.75 L 224833.85 34154.9 Q 228437 38803.55 230994.65 43607.75 L 228697.1 46374.5 L 228699.65 46371.95 Z M 240766.25 26007.65 Q 240554.6 31385.6 240034.4 36814.55 Q 243010.25 47001.8 248495.3 53787.35 Q 252932.3 47833.1 254867.75 39999.5 L 245573 39999.5 Q 247398.8 34777.1 249489.8 26005.1 L 240768.8 26005.1 L 240766.25 26007.65 Z M 259302.2 37390.85 Q 256846.55 48883.7 250999.4 56612.75 Q 255701.6 61154.3 261237.65 63400.85 Q 259878.5 64550.9 258626.45 66588.35 Q 253036.85 64079.15 248546.3 59486.6 Q 244366.85 63977.15 238937.9 66794.9 Q 237736.85 64757.45 236219.6 63870.05 Q 241964.75 61047.2 246088.1 56661.2 Q 242015.75 51594.35 239039.9 44441.6 Q 236584.25 59170.4 229482.5 66792.35 Q 228021.35 65486.75 226297.55 64443.8 Q 232040.15 58907.75 234549.35 48725.6 Q 236586.8 40473.8 237107 26007.65 L 231152.75 26007.65 L 231152.75 22404.5 L 254079.8 22404.5 Q 251991.35 30760.85 250318.55 36557 L 256221.8 36557 L 256953.65 36401.45 L 259302.2 37390.85 Z M 292515.95 37913.6 Q 298625.75 57079.4 313040.9 62982.65 Q 311317.1 64601.9 310116.05 66639.35 Q 296012 59955.8 289328.45 40790 Q 284735.9 59223.95 268494.95 66639.35 Q 267503 64811 265572.65 63454.4 Q 281864.6 56352.65 285885.95 37918.7 L 266615.6 37918.7 L 266615.6 33950.9 L 286513.25 33950.9 Q 287194.1 29353.25 287296.1 19115 L 291475.55 19115 Q 291371 28570.4 290639.15 33948.35 L 312209.6 33948.35 L 312209.6 37916.15 L 292521.05 37916.15 L 292515.95 37913.6 Z " fill-rule="nonzero" style="fill:#ff0000;;fill-opacity:1;"/>
</svg>