<svg version="1.1" x="0" y="0" width="100%" height="100%" viewBox="0 0 243251.2 77004.8" xmlns="http://www.w3.org/2000/svg">
  <path d="M 7846.8 28750.4 L 11851.2 28750.4 L 11851.2 15306.8 L 8658 15306.8 L 8658 13881.2 Q 10893.6 13463.6 12392.4 12603.2 L 14112 12603.2 L 14112 28750.4 L 17725.2 28750.4 L 17725.2 30617.6 L 7846.8 30617.6 L 7846.8 28750.4 Z M 29426 19706 Q 29057.6 14028.8 25492.4 14028.8 Q 24190.4 14028.8 23331.2 15134 Q 22446.8 16289.6 22446.8 18108.8 Q 22446.8 19976 23258 21033.2 Q 24093.2 22113.2 25666.4 22113.2 Q 27730.4 22113.2 29426 19704.8 L 29426 19706 Z M 21905.6 27693.2 Q 23134.4 29069.6 24928.4 29069.6 Q 29229.2 29069.6 29450 21549.2 Q 27656 23786 25298 23786 Q 22988 23786 21686 22336.4 Q 20333.6 20861.6 20333.6 18110 Q 20333.6 15552.8 21856.4 13882.4 Q 23331.2 12260 25492.4 12260 Q 28196 12260 29818.4 14397.2 Q 31538 16683.2 31538 20836.4 Q 31538 25972.4 29547.2 28626.8 Q 27801.2 30936.8 24999.2 30936.8 Q 22444.4 30936.8 20674.4 29093.6 L 21903.2 27692 L 21905.6 27693.2 Z M 37685.2 30617.6 Q 38102.8 21033.2 42748 14519.6 L 34025.2 14519.6 L 34025.2 12603.2 L 45305.2 12603.2 L 45305.2 13955.6 Q 42306.4 17813.6 41174.8 21672.8 Q 40242.4 24892.4 40020.4 30618.8 L 37686.4 30618.8 L 37685.2 30617.6 Z M 56562 19706 Q 56193.6 14028.8 52628.4 14028.8 Q 51326.4 14028.8 50467.2 15134 Q 49582.8 16289.6 49582.8 18108.8 Q 49582.8 19976 50394 21033.2 Q 51229.2 22113.2 52802.4 22113.2 Q 54866.4 22113.2 56562 19704.8 L 56562 19706 Z M 49041.6 27693.2 Q 50270.4 29069.6 52064.4 29069.6 Q 56365.2 29069.6 56586 21549.2 Q 54792 23786 52434 23786 Q 50124 23786 48822 22336.4 Q 47469.6 20861.6 47469.6 18110 Q 47469.6 15552.8 48992.4 13882.4 Q 50467.2 12260 52628.4 12260 Q 55332 12260 56954.4 14397.2 Q 58674 16683.2 58674 20836.4 Q 58674 25972.4 56683.2 28626.8 Q 54937.2 30936.8 52135.2 30936.8 Q 49580.4 30936.8 47810.4 29093.6 L 49039.2 27692 L 49041.6 27693.2 Z M 72563.6 25112 L 72563.6 20246 L 67058 20246 L 67058 25112 L 72563.6 25112 Z M 83302.4 26882 L 74406.8 26882 L 74406.8 32511.2 L 72563.6 32511.2 L 72563.6 26882 L 61208 26882 L 61208 25112 L 65238.8 25112 L 65238.8 18526.4 L 72563.6 18526.4 L 72563.6 14790.8 L 66591.2 14790.8 Q 64920.8 17642 62855.6 19632.8 Q 61872.8 18772.4 61282.4 18478.4 Q 64968.8 15258.8 66812 9999.2 L 68655.2 10440.8 Q 68189.6 11621.6 67526 13022 L 82172 13022 L 82172 14792 L 74406.8 14792 L 74406.8 18527.6 L 81606.8 18527.6 L 81606.8 20247.2 L 74406.8 20247.2 L 74406.8 25113.2 L 83302.4 25113.2 L 83302.4 26883.2 L 83302.4 26882 Z M 111196.4 11865.2 Q 104314.4 12972.8 93182 13120.4 Q 93108.8 12456.8 92812.4 11669.6 Q 104093.6 11448.8 110606 10392.8 L 111196.4 11866.4 L 111196.4 11865.2 Z M 93723.2 20148.8 L 92174 20148.8 L 92174 16044.8 L 96450.8 16044.8 Q 96130.4 15036.8 95565.2 13635.2 L 96915.2 13120.4 Q 97726.4 14914.4 98070.8 16046 L 101979.2 16046 Q 101709.2 15086 101142.8 13415.6 L 102520.4 12974 Q 103158.8 14374.4 103625.6 16046 L 106156.4 16046 Q 107237.6 14447.6 108048.8 12580.4 L 109670 13121.6 Q 109007.6 14277.2 107826.8 16047.2 L 112618.4 16047.2 L 112618.4 20151.2 L 111021.2 20151.2 L 111021.2 17620.4 L 93720.8 17620.4 L 93720.8 20151.2 L 93723.2 20148.8 Z M 100038.8 25505.6 Q 101588 27054.8 103996.4 28234.4 Q 106160 27029.6 107388.8 25506.8 L 100040 25506.8 L 100038.8 25505.6 Z M 109894.4 24570.8 Q 108516.8 27128 105741.2 28947.2 Q 108861.2 30100.4 112817.6 30567.2 Q 112326.8 31133.6 111836 32165.6 Q 107438 31551.2 103972.4 29952.8 Q 101024 31427.6 97188.8 32139.2 Q 96944 31280 96353.6 30640.4 Q 99671.6 30075.2 102252.8 29043.2 Q 99942.8 27666.8 98393.6 25847.6 Q 96280.4 29976.8 92324 32261.6 Q 91809.2 31450.4 91194.8 30861.2 Q 96207.2 28206.8 98174 21963.2 L 93946.4 21963.2 L 93946.4 20390 L 98615.6 20390 Q 98885.6 19358 99058.4 18252.8 L 100802 18473.6 Q 100654.4 19235.6 100384.4 20391.2 L 110805.2 20391.2 L 110805.2 21964.4 L 99942.8 21964.4 Q 99746 22775.6 99279.2 23931.2 L 108592.4 23931.2 L 108888.8 23858 L 109896.8 24569.6 L 109894.4 24570.8 Z M 127588.4 19434.8 Q 127464.8 20148.8 127341.2 20690 Q 131518.4 24227.6 133952 27620 L 132650 28701.2 Q 130733.6 25923.2 126923.6 22310 Q 125400.8 26955.2 121050.8 28947.2 Q 120682.4 28209.2 119919.2 27495.2 Q 124810.4 25334 125793.2 19434.8 L 119895.2 19434.8 L 119895.2 17764.4 L 126015.2 17764.4 Q 126186.8 16092.8 126260 13758.8 L 128055.2 13758.8 Q 127979.6 16044.8 127808 17764.4 L 133952 17764.4 L 133952 19434.8 L 127587.2 19434.8 L 127588.4 19434.8 Z M 135402.8 29709.2 L 135402.8 12726.8 L 118445.6 12726.8 L 118445.6 29709.2 L 135402.8 29709.2 Z M 137172.8 11054 L 137172.8 32484.8 L 135402.8 32484.8 L 135402.8 31281.2 L 118445.6 31281.2 L 118445.6 32484.8 L 116750 32484.8 L 116750 11054 L 137172.8 11054 Z M 144251.6 24915.2 L 148749.2 24915.2 L 148749.2 22409.6 L 144251.6 22409.6 L 144251.6 24915.2 Z M 144251.6 14937.2 L 144251.6 17174 L 148749.2 17174 L 148749.2 14937.2 L 144251.6 14937.2 Z M 144251.6 20934.8 L 148749.2 20934.8 L 148749.2 18650 L 144251.6 18650 L 144251.6 20934.8 Z M 152361.2 26562.8 L 140244.8 26562.8 L 140244.8 24915.2 L 142578.8 24915.2 L 142578.8 14937.2 L 140614.4 14937.2 L 140614.4 13290.8 L 142578.8 13290.8 L 142578.8 10292 L 144250.4 10292 L 144250.4 13290.8 L 148748 13290.8 L 148748 10292 L 150443.6 10292 L 150443.6 13290.8 L 152237.6 13290.8 L 152237.6 14937.2 L 150443.6 14937.2 L 150443.6 24915.2 L 152360 24915.2 L 152360 26562.8 L 152361.2 26562.8 Z M 145406 27545.6 Q 144177.2 30323.6 142013.6 32288 Q 141546.8 31797.2 140564 31208 Q 142578.8 29561.6 143686.4 27078.8 L 145406 27545.6 Z M 148452.8 27104 Q 149951.6 28725.2 150713.6 30176 L 149190.8 30986 Q 148552.4 29585.6 147027.2 27791.6 L 148452.8 27104 Z M 162756.8 19976 L 160175.6 19976 L 160175.6 32534 L 158456 32534 L 158456 19976 L 154818.8 19976 L 154818.8 21057.2 Q 154818.8 29020.4 151229.6 32854.4 Q 150812 32363.6 149903.6 31673.6 Q 153123.2 28257.2 153123.2 21033.2 L 153123.2 12603.2 Q 158432 11447.6 161085.2 10095.2 L 162560 11423.6 Q 160053.2 12603.2 154820 13782.8 L 154820 18256.4 L 162758 18256.4 L 162758 19976 L 162756.8 19976 Z M 183695.6 13511.6 L 175805.6 13511.6 L 175805.6 18329.6 L 183695.6 18329.6 L 183695.6 13511.6 Z M 183695.6 20025.2 L 175805.6 20025.2 L 175805.6 24964.4 L 183695.6 24964.4 L 183695.6 20025.2 Z M 185538.8 26661.2 L 174012.8 26661.2 L 174012.8 11818.4 L 185538.8 11818.4 L 185538.8 26661.2 Z M 173054 26193.2 Q 169464.8 27642.8 165336.8 29265.2 L 164746.4 27398 Q 166343.6 26907.2 168089.6 26243.6 L 168089.6 17739.2 L 165066.8 17739.2 L 165066.8 16019.6 L 168089.6 16019.6 L 168089.6 10342.4 L 169859.6 10342.4 L 169859.6 16019.6 L 172758.8 16019.6 L 172758.8 17739.2 L 169859.6 17739.2 L 169859.6 25605.2 L 172685.6 24524 L 173055.2 26194.4 L 173054 26193.2 Z M 187086.8 29806.4 L 187086.8 31526 L 172414.4 31526 L 172414.4 29806.4 L 187086.8 29806.4 Z M 197408 15626 L 192248 15626 L 192248 20763.2 L 197408 20763.2 L 197408 15626 Z M 197408 28283.6 L 197408 22384.4 L 192248 22384.4 L 192248 28283.6 L 197408 28283.6 Z M 196278.8 10366.4 Q 195197.6 13463.6 195000.8 13978.4 L 199080.8 13978.4 L 199080.8 29928.8 L 192249.2 29928.8 L 192249.2 31869.2 L 190577.6 31869.2 L 190577.6 13978.4 L 193331.6 13978.4 Q 194069.6 11594 194314.4 9996.8 L 196281.2 10365.2 L 196278.8 10366.4 Z M 211097.6 14840 Q 210580.4 29585.6 209400.8 31035.2 Q 208713.2 31895.6 207460.4 32019.2 Q 206452.4 32140.4 203822 31992.8 Q 203724.8 30984.8 203207.6 30198.8 Q 204806 30346.4 206846 30346.4 Q 207557.6 30346.4 207851.6 29978 Q 208908.8 28846.4 209350.4 15599.6 L 203109.2 15599.6 Q 201977.6 18327.2 200798 19900.4 Q 200477.6 19606.4 199298 18868.4 Q 201706.4 15696.8 203058.8 9946.4 L 204804.8 10364 Q 204338 12280.4 203747.6 13902.8 L 211096.4 13902.8 L 211096.4 14837.6 L 211097.6 14840 Z M 205665.2 25923.2 Q 204536 23638.4 201930.8 20246 L 203356.4 19410.8 Q 206058.8 22851.2 207214.4 24964.4 L 205665.2 25923.2 Z M 222009.2 21328.4 L 222009.2 25973.6 L 228447.2 25973.6 L 228447.2 21328.4 L 222009.2 21328.4 Z M 222009.2 27545.6 L 222009.2 29315.6 L 220313.6 29315.6 L 220313.6 19779.2 L 230168 19779.2 L 230168 27545.6 L 222009.2 27545.6 Z M 231470 17224.4 L 219084.8 17224.4 L 219084.8 15626 L 231470 15626 L 231470 17224.4 Z M 235329.2 30200 Q 235329.2 31749.2 234321.2 32190.8 Q 233436.8 32535.2 230217.2 32535.2 Q 230093.6 31626.8 229552.4 30742.4 Q 232035.2 30815.6 232943.6 30766.4 Q 233534 30742.4 233534 30201.2 L 233534 13071.2 L 216945.2 13071.2 L 216945.2 32559.2 L 215175.2 32559.2 L 215175.2 11325.2 L 235326.8 11325.2 L 235326.8 30200 L 235329.2 30200 Z M 44929.6 61984 L 39030.4 61984 L 39030.4 63827.2 L 44929.6 63827.2 L 44929.6 61984 Z M 39030.4 60534.4 L 44929.6 60534.4 L 44929.6 58814.8 L 39030.4 58814.8 L 39030.4 60534.4 Z M 37212.4 54463.6 L 37212.4 52693.6 L 31927.6 52693.6 L 31927.6 54463.6 L 37212.4 54463.6 Z M 39030.4 52694.8 L 39030.4 54464.8 L 44536 54464.8 L 44536 52694.8 L 39030.4 52694.8 Z M 49278.4 61984 L 46747.6 61984 L 46747.6 66334 L 44929.6 66334 L 44929.6 65228.8 L 39030.4 65228.8 L 39030.4 66924.4 Q 39030.4 68350 37949.2 68742.4 Q 37114 69038.8 33870.4 69038.8 Q 33721.6 68324.8 33230.8 67489.6 Q 33968.8 67513.6 36599.2 67513.6 Q 37213.6 67489.6 37213.6 66924.4 L 37213.6 65228.8 L 29274.4 65228.8 L 29274.4 63827.2 L 37213.6 63827.2 L 37213.6 61984 L 27161.2 61984 L 27161.2 60534.4 L 37213.6 60534.4 L 37213.6 58814.8 L 29496.4 58814.8 L 29496.4 57462.4 L 37213.6 57462.4 L 37213.6 55742.8 L 30185.2 55742.8 L 30185.2 51418 L 37213.6 51418 L 37213.6 49992.4 L 27628 49992.4 L 27628 48493.6 L 37213.6 48493.6 L 37213.6 46526.8 L 39031.6 46526.8 L 39031.6 48493.6 L 48814 48493.6 L 48814 49992.4 L 39031.6 49992.4 L 39031.6 51418 L 46356.4 51418 L 46356.4 55742.8 L 39031.6 55742.8 L 39031.6 57462.4 L 46748.8 57462.4 L 46748.8 60534.4 L 49279.6 60534.4 L 49279.6 61984 L 49278.4 61984 Z M 66113.2 59305.6 Q 66064 60289.6 66187.6 60854.8 Q 58470.4 62132.8 57758.8 62501.2 Q 57536.8 61666 57192.4 60854.8 Q 57832 60707.2 59134 59281.6 Q 60239.2 58052.8 61788.4 55988.8 Q 58028.8 56406.4 57586 56651.2 Q 57365.2 55792 56971.6 54931.6 Q 57562 54808 58470.4 53431.6 Q 60437.2 50900.8 62107.6 46600 L 63827.2 47338 Q 61836.4 51614.8 59526.4 54686.8 L 62894.8 54390.4 Q 64098.4 52499.2 64541.2 51712 L 66064 52620.4 Q 63212.8 57118 60362.8 60166 L 66113.2 59305.6 Z M 57068.8 65719.6 Q 59675.2 65302 66408.4 64049.2 L 66532 65622.4 L 57365.2 67489.6 L 57068.8 65719.6 Z M 72970 62206 Q 71447.2 59600.8 68251.6 56897.2 L 69505.6 55840 Q 72970 58790.8 74322.4 61051.6 L 72970 62207.2 L 72970 62206 Z M 78622 51000.4 L 78598 51932.8 Q 78180.4 66334 77048.8 67808.8 Q 76361.2 68693.2 75108.4 68790.4 Q 74173.6 68914 71544.4 68766.4 Q 71495.2 67758.4 70978 67020.4 Q 72527.2 67144 74467.6 67144 Q 75107.2 67168 75451.6 66775.6 Q 76459.6 65694.4 76828 52692.4 L 69652 52692.4 Q 68644 54856 67612 56281.6 Q 66850 55667.2 66088 55298.8 Q 68520.4 52226.8 69922 46524.4 L 71641.6 46844.8 Q 71124.4 48958 70338.4 50998 L 78619.6 50998 L 78622 51000.4 Z M 84202 59429.2 L 89264.8 59429.2 L 89264.8 57536.8 L 84202 57536.8 L 84202 59429.2 Z M 84202 56136.4 L 89264.8 56136.4 L 89264.8 54268 L 84202 54268 L 84202 56136.4 Z M 99241.6 46969.6 L 98774.8 47705.2 Q 100864 50704 104280.4 52375.6 Q 103813.6 53014 103445.2 54071.2 L 103175.2 53898.4 L 103175.2 66898 Q 103175.2 68202.4 102461.2 68546.8 Q 101846.8 68864.8 99659.2 68864.8 Q 99562 68005.6 99193.6 67218.4 Q 100102 67243.6 101207.2 67243.6 Q 101551.6 67243.6 101551.6 66898 L 101551.6 62917.6 Q 99290.8 64687.6 98258.8 65425.6 L 97423.6 63976 Q 98873.2 63091.6 101551.6 61199.2 L 101551.6 55399.6 L 97988.8 55399.6 L 97988.8 53850.4 L 103075.6 53850.4 Q 99979.6 51934 97792 49034.8 Q 95604.4 51810.4 92483.2 53850.4 L 97274.8 53850.4 L 97274.8 66949.6 Q 97274.8 68203.6 96563.2 68548 Q 95972.8 68866 93884.8 68866 Q 93737.2 67933.6 93392.8 67270 Q 94939.6 67319.2 95357.2 67270 Q 95701.6 67270 95701.6 66925.6 L 95701.6 63066.4 Q 93686.8 64541.2 91794.4 65794 L 91130.8 64614.4 L 87666.4 64614.4 L 87666.4 68964.4 L 85896.4 68964.4 L 85896.4 64614.4 L 81668.8 64614.4 L 81668.8 62944 L 85896.4 62944 L 85896.4 60904 L 82578.4 60904 L 82578.4 52817.2 L 85896.4 52817.2 L 85896.4 50753.2 L 81913.6 50753.2 L 81913.6 49106.8 L 85896.4 49106.8 L 85896.4 46501.6 L 87666.4 46501.6 L 87666.4 49106.8 L 91549.6 49106.8 L 91549.6 50753.2 L 87666.4 50753.2 L 87666.4 52817.2 L 90935.2 52817.2 L 90935.2 60904 L 87666.4 60904 L 87666.4 62944 L 91770.4 62944 L 91770.4 63827.2 Q 92359.6 63509.2 95701.6 61420 L 95701.6 55399.6 L 92188 55399.6 L 92188 54047.2 L 92015.2 54146.8 Q 91573.6 53286.4 90910 52598.8 Q 95334.4 50214.4 97571.2 46404.4 L 99241.6 46970.8 L 99241.6 46969.6 Z M 99144.4 56848 Q 100544.8 58618 101038 59846.8 L 99784 60510.4 Q 99145.6 59060.8 97966 57462.4 L 99145.6 56848 L 99144.4 56848 Z M 93245.2 56873.2 Q 94670.8 58519.6 95334.4 59872 L 94105.6 60559.6 Q 93418 59084.8 92089.6 57511.6 L 93245.2 56873.2 Z M 110818 59354.8 Q 110327.2 58888 110327.2 58150 Q 110327.2 57388 110818 56897.2 Q 111259.6 56406.4 111947.2 56406.4 Q 112634.8 56406.4 113101.6 56897.2 Q 113568.4 57388 113568.4 58150 Q 113568.4 58888 113101.6 59354.8 Q 112610.8 59845.6 111947.2 59845.6 Q 111284.8 59845.6 110818 59354.8  Z M 132064 59846.8 Q 133610.8 59846.8 136756 59797.6 Q 135970 59332 134716 58790.8 L 135847.6 57954.4 L 132064 57954.4 L 132064 59846.8 Z M 130220.8 56724.4 L 130220.8 55103.2 L 124345.6 55103.2 L 124345.6 56724.4 L 130220.8 56724.4 Z M 124345.6 53923.6 L 130220.8 53923.6 L 130220.8 52326.4 L 124345.6 52326.4 L 124345.6 53923.6 Z M 132064 52326.4 L 132064 53923.6 L 138108.4 53923.6 L 138108.4 52326.4 L 132064 52326.4 Z M 138108.4 55104.4 L 132064 55104.4 L 132064 56725.6 L 138108.4 56725.6 L 138108.4 55104.4 Z M 120905.2 59896 Q 123265.6 59920 130220.8 59872 L 130220.8 57953.2 L 122602 57953.2 L 122602 51097.6 L 130220.8 51097.6 L 130220.8 49524.4 L 120929.2 49524.4 L 120929.2 48025.6 L 130220.8 48025.6 L 130220.8 46550.8 L 132064 46550.8 L 132064 48025.6 L 141624.4 48025.6 L 141624.4 49524.4 L 132064 49524.4 L 132064 51097.6 L 139902.4 51097.6 L 139902.4 57953.2 L 136044.4 57953.2 Q 139510 59354.8 141818.8 61518.4 L 140566 62574.4 Q 140197.6 62156.8 138943.6 61198 Q 128278 61444 121004.8 61517.2 L 120905.2 59894.8 L 120905.2 59896 Z M 133046.8 65401.6 Q 131670.4 63976 128992 62598.4 L 130145.2 61615.6 Q 132799.6 62868.4 134298.4 64294 L 133045.6 65401.6 L 133046.8 65401.6 Z M 120341.2 67342 Q 121619.2 65843.2 122651.2 62795.2 L 124198 63409.6 Q 123042.4 66751.6 121913.2 68202.4 L 120340 67342 L 120341.2 67342 Z M 134446 67072 Q 135330.4 67072 135600.4 66654.4 Q 135870.4 66211.6 135970 64614.4 Q 136681.6 65081.2 137592.4 65252.8 Q 137395.6 67292.8 136829.2 67956.4 Q 136214.8 68620 134568.4 68620 L 129014.8 68620 Q 126925.6 68620 126214 68153.2 Q 125500 67710.4 125500 66360.4 L 125500 62894.8 L 127295.2 62894.8 L 127295.2 66335.2 Q 127295.2 66802 127613.2 66949.6 Q 127957.6 67073.2 129113.2 67073.2 L 134446 67073.2 L 134446 67072 Z M 139018 62820.4 Q 141205.6 65375.2 141943.6 67415.2 L 140297.2 68005.6 Q 139535.2 65940.4 137471.2 63361.6 L 139018 62820.4 Z M 147178 59575.6 L 150053.2 59575.6 L 150053.2 56873.2 L 147178 56873.2 L 147178 59575.6 Z M 154500.4 56873.2 L 151625.2 56873.2 L 151625.2 59575.6 L 154500.4 59575.6 L 154500.4 56873.2 Z M 148997.2 52375.6 L 152707.6 52375.6 L 152707.6 50359.6 L 148997.2 50359.6 L 148997.2 52375.6 Z M 151699.6 64590.4 L 151699.6 68964.4 L 150004 68964.4 L 150004 64590.4 L 144671.2 64590.4 L 144671.2 62992 L 150004 62992 L 150004 61025.2 L 145630 61025.2 L 145630 55422.4 L 150004 55422.4 L 150004 53849.2 L 147425.2 53849.2 L 147425.2 50359.6 L 144868 50359.6 L 144868 48910 L 147425.2 48910 L 147425.2 46549.6 L 148998.4 46549.6 L 148998.4 48910 L 152708.8 48910 L 152708.8 46549.6 L 154331.2 46549.6 L 154331.2 48910 L 156689.2 48910 L 156689.2 50359.6 L 154331.2 50359.6 L 154331.2 53849.2 L 151700.8 53849.2 L 151700.8 55422.4 L 156101.2 55422.4 L 156101.2 61025.2 L 151700.8 61025.2 L 151700.8 62992 L 156763.6 62992 L 156763.6 64590.4 L 151700.8 64590.4 L 151699.6 64590.4 Z M 166346.8 53038 Q 166026.4 66580 165091.6 67882 Q 164502.4 68644 163421.2 68791.6 Q 162413.2 68891.2 160325.2 68767.6 Q 160276 67832.8 159809.2 67046.8 Q 161062 67168 162684.4 67168 Q 163274.8 67168 163519.6 66799.6 Q 164306.8 65864.8 164600.8 53846.8 L 161208.4 53846.8 Q 160939.6 59279.2 159882.4 62596 Q 158556.4 66676 155705.2 68962 Q 155188 68150.8 154376.8 67660 Q 159022 64121.2 159488.8 53848 L 156024.4 53848 L 156024.4 52128.4 L 159562 52128.4 Q 159611.2 50358.4 159611.2 46622.8 L 161330.8 46622.8 Q 161330.8 50358.4 161282.8 52128.4 L 166345.6 52128.4 L 166345.6 53036.8 L 166346.8 53038 Z M 188022.4 48713.2 L 179911.6 48713.2 L 179911.6 50656 L 188022.4 50656 L 188022.4 48713.2 Z M 188022.4 51932.8 L 179911.6 51932.8 L 179911.6 53899.6 L 188022.4 53899.6 L 188022.4 51932.8 Z M 189768.4 55301.2 L 178242.4 55301.2 L 178242.4 47338 L 189768.4 47338 L 189768.4 55301.2 Z M 176645.2 58888 L 173941.6 59796.4 L 173941.6 66678.4 Q 173941.6 68054.8 173106.4 68448.4 Q 172368.4 68818 170058.4 68792.8 Q 169910.8 67933.6 169517.2 67097.2 Q 170574.4 67122.4 171803.2 67122.4 Q 172244.8 67122.4 172244.8 66655.6 L 172244.8 60338.8 Q 171188.8 60708.4 169393.6 61249.6 L 168952 59479.6 Q 170008 59233.6 172244.8 58522 L 172244.8 53140 L 169222 53140 L 169222 51444.4 L 172244.8 51444.4 L 172244.8 46553.2 L 173940.4 46553.2 L 173940.4 51444.4 L 176644 51444.4 L 176644 53140 L 173940.4 53140 L 173940.4 57982 L 176422 57220 L 176644 58890.4 L 176645.2 58888 Z M 184826.8 66826 Q 185908 66974.8 187136.8 66974.8 Q 191069.2 66974.8 191880.4 66949.6 Q 191510.8 67564 191339.2 68572 L 187062.4 68572 Q 184114 68572 182467.6 67810 Q 180476.8 66875.2 179345.2 64466.8 Q 178289.2 67268.8 176396.8 68964.4 Q 175831.6 68350 175044.4 67859.2 Q 178092.4 65474.8 178706.8 59748.4 L 180402.4 59945.2 Q 180180.4 61591.6 179910.4 62574.4 Q 180894.4 65425.6 183106 66360.4 L 183106 58594 L 177109.6 58594 L 177109.6 57044.8 L 191119.6 57044.8 L 191119.6 58594 L 184826.8 58594 L 184826.8 61469.2 L 189914.8 61469.2 L 189914.8 62968 L 184826.8 62968 L 184826.8 66826 Z M 214638.4 58716.4 L 214638.4 68915.2 L 212671.6 68915.2 L 212671.6 67513.6 L 195371.2 67513.6 L 195371.2 58716.4 L 197338 58716.4 L 197338 65719.6 L 203972.8 65719.6 L 203972.8 57167.2 L 196452.4 57167.2 L 196452.4 48762.4 L 198343.6 48762.4 L 198343.6 55373.2 L 203972.8 55373.2 L 203972.8 46525.6 L 205939.6 46525.6 L 205939.6 55373.2 L 211714 55373.2 L 211714 48736 L 213680.8 48736 L 213680.8 57166 L 205939.6 57166 L 205939.6 65718.4 L 212672.8 65718.4 L 212672.8 58715.2 L 214639.6 58715.2 L 214638.4 58716.4 Z " fill-rule="nonzero" style="fill:#ffffff;;fill-opacity:1;"/>
</svg>