<svg version="1.1" x="0" y="0" width="100%" height="100%" viewBox="0 0 408422.4 195328" xmlns="http://www.w3.org/2000/svg">
  <path d="M 9702.5 20622.1 L 9702.5 26084.2 L 24066.5 26084.2 L 24066.5 20622.1 L 9702.5 20622.1 Z M 9702.5 28967.5 L 9702.5 32279.2 Q 9702.5 46987.6 5916.2 53999.5 Q 5143.4 52966.3 3553.7 52235.5 Q 6821.3 45912.4 6821.3 32279.2 L 6821.3 17740.9 L 27080 17740.9 L 27080 28965.4 L 9702.5 28965.4 L 9702.5 28967.5 Z M 27122 47332 Q 27122 49224.1 26046.8 49868.8 Q 25229.9 50383.3 22090.4 50383.3 Q 22046.3 49352.2 21231.5 47758.3 Q 22607 47802.4 23984.6 47802.4 Q 24457.1 47758.3 24457.1 47285.8 L 24457.1 37052.5 L 20024 37052.5 L 20024 55372.9 L 17228.9 55372.9 L 17228.9 37052.5 L 13102.4 37052.5 L 13102.4 50855.8 L 10649.6 50855.8 L 10649.6 34299.4 L 17228.9 34299.4 L 17228.9 29912.5 L 20024 29912.5 L 20024 34299.4 L 27122 34299.4 L 27122 47329.9 L 27122 47332 Z M 33917.6 44534.8 L 31078.4 44534.8 L 31078.4 20536 L 33917.6 20536 L 33917.6 44534.8 Z M 41399.9 16753.9 L 41399.9 50773.9 Q 41399.9 53569 39680 54299.8 Q 38174.3 54902.5 32972.6 54902.5 Q 32542.1 52968.4 31985.6 51676.9 Q 34436.3 51763 37491.8 51763 Q 38392.7 51718.9 38392.7 50776 L 38392.7 16756 L 41402 16756 L 41399.9 16753.9 Z M 66688.1 23205.1 L 47849 23205.1 L 47849 20536 L 56280.5 20536 Q 55291.4 18215.5 54386.3 16625.8 L 57267.5 15895 Q 58773.2 18601.9 59546 20536 L 66686 20536 L 66686 23205.1 L 66688.1 23205.1 Z M 53615.6 42512.5 Q 52067.9 47115.7 49186.7 50599.6 Q 47809.1 49482.4 46992.2 48963.7 Q 49573.1 46168.6 50992.7 41825.8 L 53615.6 42512.5 Z M 53227.1 23503.3 Q 54732.8 26773 55035.2 29526.1 L 52324.1 30256.9 Q 52021.7 27375.7 50646.2 24106 L 53225 23503.3 L 53227.1 23503.3 Z M 58863.5 40234 L 58863.5 51160.3 Q 58863.5 53266.6 57614 53869.3 Q 56538.8 54388 53096.9 54388 Q 52884.8 53054.5 52151.9 51676.9 Q 54604.7 51763 55421.6 51676.9 Q 55936.1 51676.9 55936.1 51116.2 L 55936.1 40236.1 L 47376.5 40236.1 L 47376.5 37483 L 55936.1 37483 L 55936.1 32970.1 L 47164.4 32970.1 L 47164.4 30259 L 59033.6 30259 Q 60495.2 26731 61354.1 23421.4 L 64279.4 24066.1 Q 62901.8 27936.4 61912.7 30261.1 L 67374.8 30261.1 L 67374.8 32972.2 L 58859.3 32972.2 L 58859.3 37485.1 L 66858.2 37485.1 L 66858.2 40238.2 L 58859.3 40238.2 L 58863.5 40234 Z M 62773.7 41653.6 Q 65396.6 45654.1 66343.7 48407.2 L 64107.2 49698.7 Q 62948 46601.2 60581.3 42772.9 L 62773.7 41653.6 Z M 86129.9 33438.4 L 81398.6 33438.4 L 81398.6 55116.7 L 78301.1 55116.7 L 78301.1 33438.4 L 71807.9 33438.4 L 71807.9 34816 Q 71807.9 48577.3 67332.8 54900.4 Q 66257.6 53739.1 64882.1 52966.3 Q 68838.5 47245.9 68838.5 34816 L 68838.5 20149.6 Q 77568.2 18730 82213.4 16795.9 L 84750.2 19162.6 Q 79804.7 21010.6 71805.8 22260.1 L 71805.8 30431.2 L 86127.8 30431.2 L 86127.8 33440.5 L 86129.9 33438.4 Z M 126340.7 21008.5 Q 120233.9 27762.1 111374 32535.4 L 111374 51114.1 Q 111374 54081.4 109137.5 54728.2 Q 107375.6 55284.7 100321.7 55284.7 Q 100019.3 53781.1 99030.2 52103.2 Q 103845.5 52273.3 106901 52145.2 Q 108060.2 52103.2 108060.2 51112 L 108060.2 30943.6 Q 114383.3 27846.1 120017.6 22512.1 L 92364.8 22512.1 L 92364.8 19372.6 L 123073.1 19372.6 L 123848 19156.3 L 126340.7 21004.3 L 126340.7 21008.5 Z M 138556.4 29656.3 L 138556.4 36493.9 L 146983.7 36493.9 L 146983.7 29656.3 L 138556.4 29656.3 Z M 138470.3 39419.2 Q 137955.8 50038.9 135030.5 55372.9 Q 133526.9 53867.2 132451.7 53352.7 Q 135416.9 47760.4 135416.9 35202.4 L 135416.9 20235.7 Q 145566.2 19032.4 150041.3 16968.1 L 152105.6 19591 Q 147460.4 21609.1 138558.5 22642.3 L 138558.5 26773 L 150083.3 26773 L 150083.3 39417.1 L 138472.4 39417.1 L 138470.3 39419.2 Z M 172099.7 33570.7 L 167068.1 33570.7 L 167068.1 55202.8 L 163928.6 55202.8 L 163928.6 33570.7 L 157261.1 33570.7 L 157261.1 34601.8 Q 157261.1 49009.9 150984.2 55375 Q 149909 54083.5 148489.4 53224.6 Q 154081.7 47504.2 154081.7 34601.8 L 154081.7 20323.9 Q 164100.8 18860.2 169134.5 16581.7 L 171326.9 19250.8 Q 166465.4 21273.1 157261.1 22734.7 L 157261.1 30519.4 L 172097.6 30519.4 L 172097.6 33574.9 L 172099.7 33570.7 Z M 206207.9 32449.3 L 188273.9 32449.3 L 188273.9 36794.2 L 206207.9 36794.2 L 206207.9 32449.3 Z M 206207.9 44062.3 L 206207.9 39591.4 L 188273.9 39591.4 L 188273.9 44062.3 L 206207.9 44062.3 Z M 191241.2 24578.5 Q 189693.5 27762.1 188618.3 29568.1 L 209347.4 29568.1 L 209347.4 51288.4 Q 209347.4 53999.5 207541.4 54686.2 Q 205993.7 55246.9 200057 55246.9 Q 199886.9 53869.3 199028 52107.4 Q 200920.1 52191.4 205220.9 52191.4 Q 206210 52149.4 206210 51290.5 L 206210 46815.4 L 188276 46815.4 L 188276 55288.9 L 185136.5 55288.9 L 185136.5 34559.8 Q 181910.9 38602.3 177952.4 41355.4 Q 177179.6 40063.9 175930.1 38902.6 Q 183198.2 33999.1 187757.3 24580.6 L 176963.3 24580.6 L 176963.3 21571.3 L 189092.9 21571.3 Q 190252.1 18604 190982.9 16025.2 L 194166.5 16798 Q 193091.3 20197.9 192488.6 21573.4 L 214379 21573.4 L 214379 24582.7 L 191243.3 24582.7 L 191241.2 24578.5 Z M 229688 39677.5 L 229688 55333 L 226722.8 55333 L 226722.8 40624.6 L 219624.8 42817 L 218765.9 39761.5 Q 224312 38257.9 226722.8 37483 L 226722.8 27892.3 L 222808.4 27892.3 Q 221949.5 31892.8 220916.3 34255.3 Q 219326.6 33180.1 218467.7 32835.7 Q 220443.8 28364.8 221432.9 18517.9 L 224230.1 18990.4 Q 223971.8 21224.8 223411.1 24794.8 L 226722.8 24794.8 L 226722.8 16065.1 L 229688 16065.1 L 229688 24794.8 L 234121.1 24794.8 L 234121.1 27892.3 L 229688 27892.3 L 229688 36664 L 234677.6 35118.4 L 235108.1 37955.5 L 229688 39677.5 Z M 257817.5 23247.1 Q 257817.5 24450.4 257775.5 24836.8 Q 256526 50171.2 254159.3 53136.4 Q 253084.1 54600.1 251192 54770.2 Q 249646.4 54986.5 246288.5 54770.2 Q 246204.5 52878.1 245387.6 51632.8 Q 247796.3 51849.1 249904.7 51849.1 Q 250893.8 51849.1 251496.5 51116.2 Q 253518.8 48881.8 254680.1 26216.5 L 252613.7 26216.5 Q 248743.4 46517.2 238594.1 54604.3 Q 237647 53529.1 235927.1 52666 Q 245862.2 45528.1 249860.6 26216.5 L 246334.7 26216.5 Q 242850.8 39549.4 235752.8 45698.2 Q 234805.7 44665 233216 43850.2 Q 240053.6 38516.2 243581.6 26216.5 L 239883.5 26216.5 Q 237605 31290.1 234982.1 34387.6 Q 234335.3 33742.9 232529.3 32539.6 Q 237647 26947.3 240055.7 16025.2 L 242981 16627.9 Q 242164.1 20153.8 241046.9 23251.3 L 254808.2 23251.3 L 254808.2 23209.3 L 257817.5 23251.3 L 257817.5 23247.1 Z M 275837.6 46426.9 L 262504.7 50902 L 261773.9 47676.4 Q 264957.5 46729.3 267536.3 45870.4 L 267536.3 34301.5 L 262632.8 34301.5 L 262632.8 31288 L 267536.3 31288 L 267536.3 21955.6 L 262204.4 21955.6 L 262204.4 18946.3 L 275535.2 18946.3 L 275535.2 21955.6 L 270589.7 21955.6 L 270589.7 31288 L 274932.5 31288 L 274932.5 34301.5 L 270589.7 34301.5 L 270589.7 44925.4 L 275276.9 43377.7 L 275837.6 46429 L 275837.6 46426.9 Z M 280566.8 34343.5 L 287104.1 34343.5 L 287104.1 28839.4 L 280566.8 28839.4 L 280566.8 34343.5 Z M 280566.8 26214.4 L 287104.1 26214.4 L 287104.1 20796.4 L 280566.8 20796.4 L 280566.8 26214.4 Z M 296436.5 20796.4 L 289857.2 20796.4 L 289857.2 26214.4 L 296436.5 26214.4 L 296436.5 20796.4 Z M 296436.5 28837.3 L 289857.2 28837.3 L 289857.2 34341.4 L 296436.5 34341.4 L 296436.5 28837.3 Z M 301514.3 50986 L 301514.3 53911.3 L 273817.4 53911.3 L 273817.4 50986 L 286889.9 50986 L 286889.9 45095.5 L 277129.1 45095.5 L 277129.1 42172.3 L 286889.9 42172.3 L 286889.9 37138.6 L 277643.6 37138.6 L 277643.6 18001.3 L 299492 18001.3 L 299492 37138.6 L 290115.5 37138.6 L 290115.5 42172.3 L 300136.7 42172.3 L 300136.7 45095.5 L 290115.5 45095.5 L 290115.5 50986 L 301514.3 50986 Z M 316995.5 17098.3 Q 315533.9 21483.1 313167.2 26172.4 L 313167.2 55244.8 L 310115.9 55244.8 L 310115.9 31462.3 Q 308393.9 34127.2 306459.8 36405.7 Q 305558.9 34513.6 304611.8 33268.3 Q 310544.3 26731 314028.2 16195.3 L 316995.5 17100.4 L 316995.5 17098.3 Z M 333209.6 27762.1 Q 337510.4 39933.7 344820.5 45824.2 Q 343400.9 46857.4 342411.8 48361 Q 335530.1 42084.1 331145.3 29526.1 L 331145.3 44450.8 L 338069 44450.8 L 338069 47374 L 331145.3 47374 L 331145.3 55074.7 L 328047.8 55074.7 L 328047.8 47374 L 321035.9 47374 L 321035.9 44450.8 L 328047.8 44450.8 L 328047.8 29826.4 Q 323444.6 42214.3 316649 48449.2 Q 315489.8 46945.6 314328.5 46040.5 Q 321596.6 40234 326113.7 27762.1 L 316006.4 27762.1 L 316006.4 24664.6 L 328049.9 24664.6 L 328049.9 16191.1 L 331147.4 16191.1 L 331147.4 24664.6 L 343963.7 24664.6 L 343963.7 27762.1 L 333211.7 27762.1 L 333209.6 27762.1 Z M 361679.3 43459.6 Q 357680.9 48793.6 352088.6 52750 Q 350452.7 51202.3 349293.5 50641.6 Q 354881.6 47287.9 358495.7 42342.4 L 361677.2 43459.6 L 361679.3 43459.6 Z M 369638.3 39589.3 L 369638.3 51072.1 Q 369638.3 53608.9 367832.3 54255.7 Q 366454.7 54812.2 361164.8 54812.2 Q 360994.7 53436.7 359961.5 51672.7 Q 362542.4 51758.8 365551.7 51758.8 Q 366410.6 51714.7 366410.6 51028 L 366410.6 39845.5 Q 353422.1 40792.6 351790.4 41437.3 Q 351530 40061.8 350799.2 38472.1 Q 352563.2 38255.8 356777.9 36147.4 Q 359575.1 34813.9 365079.2 31502.2 Q 355228.1 32104.9 354152.9 32535.4 Q 353596.4 30555.1 353207.9 29654.2 Q 354327.2 29568.1 356349.5 27932.2 Q 359186.6 26170.3 363403.4 21783.4 Q 357554.9 22297.9 351660.2 22556.2 Q 351532.1 21180.7 350845.4 19761.1 Q 371358.2 18643.9 380520.5 16365.4 L 382799 18988.3 Q 376692.2 20449.9 367832.3 21350.8 Q 363403.4 25996 358844.3 29265.7 L 369251.9 28747 Q 372992 26252.2 376089.5 23715.4 L 378540.2 25779.7 Q 369335.9 32791.6 359272.7 37606.9 L 378065.6 36403.6 Q 376948.4 35116.3 374627.9 32921.8 L 377036.6 31676.5 Q 382757 36664 385808.3 41139.1 L 383271.5 42686.8 Q 382154.3 41050.9 380262.2 38814.4 L 369638.3 39589.3 Z M 375959.3 42126.1 Q 382236.2 46729.3 386194.7 50902 L 383483.6 52836.1 Q 379955.6 48793.6 373420.4 43762 L 375957.2 42126.1 L 375959.3 42126.1 Z M 37443.5 101955.7 L 37443.5 90559 L 25101.8 90559 L 25101.8 101955.7 L 37443.5 101955.7 Z M 21788 101955.7 L 21788 90559 L 9488.3 90559 L 9488.3 101955.7 L 21788 101955.7 Z M 40713.2 87421.6 L 40713.2 107548 L 37443.5 107548 L 37443.5 105097.3 L 25101.8 105097.3 L 25101.8 119030.8 L 21790.1 119030.8 L 21790.1 105097.3 L 9490.4 105097.3 L 9490.4 107762.2 L 6350.9 107762.2 L 6350.9 87419.5 L 21790.1 87419.5 L 21790.1 79765 L 25101.8 79765 L 25101.8 87419.5 L 40715.3 87419.5 L 40713.2 87421.6 Z M 77398.1 83465.2 L 55766 83465.2 L 55766 86388.4 L 77398.1 86388.4 L 77398.1 83465.2 Z M 77398.1 88538.8 L 55766 88538.8 L 55766 91594.3 L 77398.1 91594.3 L 77398.1 88538.8 Z M 80537.6 93872.8 L 52710.5 93872.8 L 52710.5 81186.7 L 80537.6 81186.7 L 80537.6 93872.8 Z M 54346.4 113140.3 Q 58260.8 112709.8 62131.1 112237.3 L 62131.1 109572.4 L 54346.4 109572.4 L 54346.4 113142.4 L 54346.4 113140.3 Z M 54346.4 98904.4 L 54346.4 101785.6 L 62131.1 101785.6 L 62131.1 98904.4 L 54346.4 98904.4 Z M 54346.4 107203.6 L 62131.1 107203.6 L 62131.1 104194.3 L 54346.4 104194.3 L 54346.4 107203.6 Z M 65182.4 114517.9 L 65182.4 119077 L 62131.1 119077 L 62131.1 114904.3 L 47550.8 116668.3 L 47206.4 113829.1 L 51421.1 113398.6 L 51421.1 98906.5 L 47336.6 98906.5 L 47336.6 96241.6 L 85699.4 96241.6 L 85699.4 98906.5 L 65184.5 98906.5 L 65184.5 111895 L 67509.2 111634.6 L 67509.2 114215.5 L 65184.5 114517.9 L 65182.4 114517.9 Z M 71375.3 104194.3 Q 73097.3 108022.6 76020.5 110819.8 Q 79160 107722.3 80795.9 104194.3 L 71377.4 104194.3 L 71375.3 104194.3 Z M 84494 102258.1 Q 82601.9 108278.8 78173 112623.7 Q 81743 115202.5 86346.2 116405.8 Q 85271 117439 84454.1 118944.7 Q 79592.6 117439 75936.5 114515.8 Q 72368.6 117310.9 67807.4 118946.8 Q 67292.9 117697.3 66175.7 116580.1 Q 70390.4 115202.5 73874.3 112623.7 Q 70606.7 109270 68584.4 104450.5 L 69443.3 104192.2 L 66864.5 104192.2 L 66864.5 101569.3 L 82087.4 101569.3 L 82690.1 101483.2 L 84496.1 102258.1 L 84494 102258.1 Z M 112232.9 95334.4 Q 117264.5 111118 129135.8 115979.5 Q 127716.2 117313 126727.1 118990.9 Q 115112 113486.8 109607.9 97703.2 Q 105825.8 112884.1 92450.9 118990.9 Q 91634 117485.2 90044.3 116368 Q 103461.2 110519.5 106772.9 95338.6 L 90903.2 95338.6 L 90903.2 92071 L 107289.5 92071 Q 107850.2 88284.7 107934.2 79853.2 L 111376.1 79853.2 Q 111290 87640 110687.3 92068.9 L 128451.2 92068.9 L 128451.2 95336.5 L 112237.1 95336.5 L 112232.9 95334.4 Z M 133180.4 113484.7 Q 136490 112924 149308.4 110429.2 L 149566.7 113396.5 Q 146255 114127.3 141137.3 115160.5 Q 134469.8 116536 133739 116710.3 L 133182.5 113484.7 L 133180.4 113484.7 Z M 149864.9 90731.2 Q 144747.2 98129.5 139329.2 103549.6 L 149478.5 102088 Q 149478.5 103807.9 149606.6 104925.1 Q 135715.1 107119.6 134381.6 107722.3 Q 134123.3 106561 133306.4 104626.9 Q 134465.6 104410.6 136918.4 101915.8 Q 138898.7 100023.7 141863.9 96241.6 Q 135026.3 97056.4 134079.2 97486.9 Q 133734.8 96241.6 133004 94391.5 Q 134037.2 94133.2 135757.1 91766.5 Q 139585.4 87207.4 142769 79897.3 L 145908.5 81230.8 Q 142254.5 88498.9 137779.4 93874.9 L 144060.5 93314.2 Q 145436 91466.2 147029.9 88927.3 L 149867 90733.3 L 149864.9 90731.2 Z M 168874.1 80153.5 L 168874.1 119030.8 L 165606.5 119030.8 L 165606.5 107203.6 Q 153995.6 110042.8 152359.7 111118 Q 151931.3 109872.7 150681.8 108539.2 Q 153262.7 107119.6 153262.7 104883.1 L 153262.7 83679.4 L 156444.2 83679.4 L 156444.2 106258.6 L 165606.5 104152.3 L 165606.5 80153.5 L 168874.1 80153.5 Z M 188273.9 101657.5 Q 188273.9 102991 188444 104368.6 Q 178122.5 107121.7 177133.4 107852.5 Q 176873 106733.2 176186.3 105143.5 Q 177133.4 104973.4 179197.7 102262.3 Q 181003.7 99853.6 183068 96411.7 Q 177736.1 97142.5 176873 97615 Q 176572.7 96453.7 175841.9 94733.8 Q 176831 94517.5 178164.5 92066.8 Q 181131.8 87591.7 183584.6 79895.2 L 186379.7 81186.7 Q 183498.5 88538.8 179842.4 94173.1 L 184615.7 93700.6 Q 185907.2 91380.1 187068.5 88843.3 L 189605.3 90262.9 Q 185777 97831.3 181562.3 103293.4 L 188271.8 101657.5 L 188273.9 101657.5 Z M 188572.1 111590.5 L 176831 116149.6 L 176058.2 113140.3 Q 180014.6 111979 188055.5 108927.7 L 188570 111592.6 L 188572.1 111590.5 Z M 193906.1 97570.9 Q 193906.1 112235.2 189691.4 119333.2 Q 188744.3 118258 187366.7 117441.1 Q 191022.8 111206.2 191022.8 97573 L 191022.8 83122.9 L 202033.1 83122.9 Q 201518.6 81529 200871.8 79939.3 L 203711 79294.6 Q 204271.7 80453.8 205260.8 83122.9 L 214507.1 83122.9 L 214507.1 85962.1 L 193908.2 85962.1 L 193908.2 97573 L 193906.1 97570.9 Z M 203238.5 100968.7 L 203238.5 96926.2 L 198721.4 96926.2 L 198721.4 100968.7 L 203238.5 100968.7 Z M 198723.5 94689.7 L 203240.6 94689.7 L 203240.6 90731.2 L 198723.5 90731.2 L 198723.5 94689.7 Z M 209992.1 90731.2 L 205691.3 90731.2 L 205691.3 94689.7 L 209992.1 94689.7 L 209992.1 90731.2 Z M 209992.1 96924.1 L 205691.3 96924.1 L 205691.3 100966.6 L 209992.1 100966.6 L 209992.1 96924.1 Z M 214895.6 114990.4 L 214895.6 117785.5 L 193519.7 117785.5 L 193519.7 114990.4 L 203068.4 114990.4 L 203068.4 110128.9 L 195542 110128.9 L 195542 107375.8 L 203068.4 107375.8 L 203068.4 103847.8 L 203238.5 103847.8 L 203238.5 103333.3 L 196226.6 103333.3 L 196226.6 88322.5 L 212570.9 88322.5 L 212570.9 103333.3 L 205691.3 103333.3 L 205691.3 103847.8 L 205861.4 103847.8 L 205861.4 107375.8 L 213345.8 107375.8 L 213345.8 110128.9 L 205861.4 110128.9 L 205861.4 114990.4 L 214893.5 114990.4 L 214895.6 114990.4 Z M 219540.8 115849.3 Q 222205.7 112063 223795.4 105353.5 L 226634.6 106300.6 Q 224570.3 113955.1 222419.9 117350.8 L 219538.7 115847.2 L 219540.8 115849.3 Z M 244784.9 115202.5 Q 246504.8 115202.5 246977.3 114343.6 Q 247449.8 113484.7 247666.1 110173 Q 248699.3 110947.9 250547.3 111376.3 Q 250202.9 115418.8 249171.8 116752.3 Q 248052.5 118085.8 245001.2 118085.8 L 235022 118085.8 Q 231323.9 118085.8 230032.4 117184.9 Q 228745.1 116326 228745.1 113745.1 L 228745.1 105359.8 L 231884.6 105359.8 L 231884.6 113703.1 Q 231884.6 114650.2 232487.3 114908.5 Q 233132 115208.8 235198.4 115208.8 L 244789.1 115208.8 L 244784.9 115202.5 Z M 236183.3 96451.6 Q 240828.5 99074.5 243279.2 101613.4 L 240398 103461.4 Q 238375.7 101052.7 233518.4 98127.4 L 236183.3 96449.5 L 236183.3 96451.6 Z M 237214.4 102860.8 Q 241987.7 107161.6 244138.1 110084.8 L 241559.3 111806.8 Q 239322.8 108453.1 234721.7 104322.4 L 237214.4 102860.8 Z M 252097.1 104708.8 Q 256053.5 111076 257387 116021.5 L 254335.7 117096.7 Q 253044.2 111848.8 249257.9 105613.9 L 252097.1 104708.8 Z M 242033.9 88797.1 Q 246679.1 98431.9 258161.9 101012.8 Q 256828.4 102346.3 256011.5 103978 Q 243623.6 100582.3 238720.1 88797.1 Q 235108.1 100366 220956.2 104152.3 Q 220311.5 102646.6 219194.3 101485.3 Q 231922.4 98303.8 235364.3 88797.1 L 219622.7 88797.1 L 219622.7 85787.8 L 236223.2 85787.8 Q 236783.9 83467.3 237170.3 79639 L 240437.9 79639 Q 240095.6 82864.6 239534.9 85787.8 L 257727.2 85787.8 L 257727.2 88797.1 L 242029.7 88797.1 L 242033.9 88797.1 Z M 275663.3 93400.3 L 286028.9 93400.3 L 286028.9 96323.5 L 275663.3 96323.5 L 275663.3 100624.3 L 284523.2 100624.3 L 284523.2 112367.5 Q 284523.2 114559.9 283235.9 115162.6 Q 282160.7 115677.1 278246.3 115677.1 Q 278030 114301.6 277299.2 112882 Q 280308.5 112968.1 280997.3 112882 Q 281600 112882 281600 112321.3 L 281600 103549.6 L 275663.3 103549.6 L 275663.3 118988.8 L 272612 118988.8 L 272612 103549.6 L 267061.7 103549.6 L 267061.7 115546.9 L 264138.5 115546.9 L 264138.5 100622.2 L 272612 100622.2 L 272612 96321.4 L 262160.3 96321.4 L 262160.3 93398.2 L 272612 93398.2 L 272612 88881.1 L 267019.7 88881.1 Q 265902.5 91634.2 264869.3 93312.1 Q 263922.2 92709.4 262030.1 92106.7 Q 264869.3 87892 266330.9 80794 L 269340.2 81396.7 Q 268609.4 84193.9 268052.9 85957.9 L 272612 85957.9 L 272612 79935.1 L 275663.3 79935.1 L 275663.3 85957.9 L 284351 85957.9 L 284351 88881.1 L 275663.3 88881.1 L 275663.3 93398.2 L 275663.3 93400.3 Z M 292135.7 107331.7 L 289126.4 107331.7 L 289126.4 83677.3 L 292135.7 83677.3 L 292135.7 107331.7 Z M 299836.4 80239.6 L 299836.4 114646 Q 299836.4 117483.1 298072.4 118258 Q 296524.7 118902.7 291190.7 118902.7 Q 290846.3 117140.8 290159.6 115546.9 Q 292696.4 115633 295835.9 115633 Q 296741 115591 296741 114685.9 L 296741 80237.5 L 299838.5 80237.5 L 299836.4 80239.6 Z M 313814 103205.2 L 313814 107506 L 322930.1 107506 L 322930.1 103205.2 L 313814 103205.2 Z M 335143.7 103205.2 L 326155.7 103205.2 L 326155.7 107506 L 335143.7 107506 L 335143.7 103205.2 Z M 335143.7 114858.1 L 335143.7 110128.9 L 326155.7 110128.9 L 326155.7 114858.1 L 335143.7 114858.1 Z M 322930.1 114858.1 L 322930.1 110128.9 L 313814 110128.9 L 313814 114858.1 L 322930.1 114858.1 Z M 310588.4 100366 L 338499.5 100366 L 338499.5 118946.8 L 335145.8 118946.8 L 335145.8 117655.3 L 313816.1 117655.3 L 313816.1 119030.8 L 310590.5 119030.8 L 310590.5 100366 L 310588.4 100366 Z M 317297.9 86732.8 Q 319962.8 89614 324566 91938.7 Q 329597.6 89357.8 332520.8 86302.3 L 317726.3 86302.3 L 317297.9 86732.8 Z M 337726.7 84624.4 Q 334457 89700.1 327921.8 93440.2 Q 335320.1 96407.5 344736.5 97396.6 Q 343661.3 98515.9 342802.4 100363.9 Q 332352.8 98944.3 324568.1 95290.3 Q 316481 99202.6 306029.3 100966.6 Q 305384.6 98990.5 304611.8 97915.3 Q 313471.7 96754 321256.4 93486.4 Q 317728.4 91420 315063.5 88713.1 Q 312224.3 90991.6 308740.4 92881.6 Q 307881.5 91464.1 306590 90559 Q 315149.6 86516.5 319019.9 79678.9 L 322419.8 80323.6 Q 321556.7 81871.3 320223.2 83465.2 L 335105.9 83465.2 L 335666.6 83290.9 L 337730.9 84624.4 L 337726.7 84624.4 Z M 361937.6 89527.9 L 352907.6 89527.9 L 352907.6 98518 L 361937.6 98518 L 361937.6 89527.9 Z M 361937.6 111678.7 L 361937.6 101355.1 L 352907.6 101355.1 L 352907.6 111678.7 L 361937.6 111678.7 Z M 359961.5 80323.6 Q 358069.4 85743.7 357725 86644.6 L 364865 86644.6 L 364865 114557.8 L 352909.7 114557.8 L 352909.7 117953.5 L 349984.4 117953.5 L 349984.4 86644.6 L 354803.9 86644.6 Q 356095.4 82471.9 356523.8 79676.8 L 359965.7 80321.5 L 359961.5 80323.6 Z M 385894.4 88152.4 Q 384989.3 113957.2 382925 116494 Q 381721.7 117999.7 379529.3 118216 Q 377765.3 118428.1 373162.1 118169.8 Q 372992 116405.8 372086.9 115030.3 Q 374884.1 115288.6 378454.1 115288.6 Q 379699.4 115288.6 380213.9 114643.9 Q 382064 112663.6 382836.8 89481.7 L 371914.7 89481.7 Q 369934.4 94255 367870.1 97008.1 Q 367309.4 96493.6 365245.1 95202.1 Q 369459.8 89651.8 371826.5 79588.6 L 374882 80319.4 Q 374065.1 83673.1 373031.9 86512.3 L 385892.3 86512.3 L 385892.3 88148.2 L 385894.4 88152.4 Z M 376387.7 107548 Q 374411.6 103549.6 369852.5 97612.9 L 372347.3 96151.3 Q 377076.5 102172 379098.8 105870.1 L 376387.7 107548 Z M 24885.5 157314.4 L 24885.5 167938.3 L 33100.7 167938.3 L 33100.7 157314.4 L 24885.5 157314.4 Z M 21746 170905.6 L 21746 157314.4 L 13917.2 157314.4 L 13917.2 176884.3 L 41572.1 176884.3 L 41572.1 180023.8 L 10607.6 180023.8 L 10607.6 157316.5 L 4368.5 157316.5 L 4368.5 154219 L 10607.6 154219 L 10607.6 144716.5 L 13917.2 144716.5 L 13917.2 154219 L 21746 154219 L 21746 143725.3 L 24885.5 143725.3 L 24885.5 154219 L 33100.7 154219 L 33100.7 144241.9 L 36368.3 144241.9 L 36368.3 154219 L 42777.5 154219 L 42777.5 157316.5 L 36368.3 157316.5 L 36368.3 170907.7 L 21746 170907.7 L 21746 170905.6 Z M 58519.1 167850.1 L 61744.7 167850.1 L 61744.7 170473 Q 61744.7 179335 52454.3 183075.1 Q 51723.5 181825.6 50261.9 180538.3 Q 58519.1 177440.8 58519.1 170342.8 L 58519.1 167848 L 58519.1 167850.1 Z M 55077.2 159380.8 L 64924.1 159380.8 L 64924.1 154735.6 L 55077.2 154735.6 L 55077.2 159380.8 Z M 55077.2 152196.7 L 64924.1 152196.7 L 64924.1 147637.6 L 55077.2 147637.6 L 55077.2 152196.7 Z M 78000.8 147637.6 L 68065.7 147637.6 L 68065.7 152196.7 L 78000.8 152196.7 L 78000.8 147637.6 Z M 78000.8 154735.6 L 68065.7 154735.6 L 68065.7 159380.8 L 78000.8 159380.8 L 78000.8 154735.6 Z M 72841.1 162087.7 Q 77914.7 167377.6 86258 169486 Q 84966.5 170603.2 84149.6 172197.1 Q 79632.5 170777.5 75375.8 167896.3 L 75375.8 182732.8 L 72106.1 182732.8 L 72106.1 167850.1 L 75289.7 167850.1 Q 71375.3 165055 69096.8 162087.7 L 64367.6 162087.7 Q 58991.6 168925.3 49270.7 172367.2 Q 48239.6 170735.5 47120.3 169744.3 Q 55335.5 167377.6 60495.2 162087.7 L 51937.7 162087.7 L 51937.7 144928.6 L 81268.4 144928.6 L 81268.4 162087.7 L 72841.1 162087.7 Z M 90044.3 177140.5 Q 97396.4 175937.2 105869.9 174259.3 L 106128.2 177184.6 L 90560.9 180324.1 L 90046.4 177140.5 L 90044.3 177140.5 Z M 100838.3 157098.1 Q 102772.4 154391.2 103805.6 152585.2 L 106644.8 154433.2 Q 101480.9 162045.7 96020.9 167377.6 L 105569.6 166090.3 Q 105483.5 167722 105699.8 168797.2 Q 92408.9 170819.5 91121.6 171508.3 Q 90602.9 169528 90088.4 168410.8 Q 91205.6 168194.5 93658.4 165699.7 Q 95722.7 163765.6 98603.9 160025.5 Q 91724.3 160798.3 90819.2 161270.8 Q 90560.9 159895.3 89786 158173.3 Q 90777.2 157915 92455.1 155548.3 Q 96153.2 150989.2 99204.5 143590.9 L 102388.1 145010.5 Q 98690 152320.6 94475.3 157654.6 L 100840.4 157093.9 L 100838.3 157098.1 Z M 123243.2 178904.5 Q 125051.3 178904.5 125565.8 177613 Q 126080.3 176367.7 126296.6 171764.5 Q 127674.2 172711.6 129352.1 173098 Q 129007.7 178390 127888.4 180109.9 Q 126729.2 181960 123503.6 181960 L 114513.5 181960 Q 111075.8 181960 109826.3 180926.8 Q 108581 179851.6 108581 176884.3 L 108581 160325.8 L 123417.5 160325.8 L 123417.5 149445.7 L 107892.2 149445.7 L 107892.2 146306.2 L 126601.1 146306.2 L 126601.1 165573.7 L 123417.5 165573.7 L 123417.5 163381.3 L 111806.6 163381.3 L 111806.6 176886.4 Q 111806.6 178131.7 112363.1 178520.2 Q 112923.8 178906.6 114773.9 178906.6 L 123243.2 178906.6 L 123243.2 178904.5 Z M 168533.9 165571.6 Q 164445.2 169141.6 160016.3 171852.7 Q 165092 176497.9 171929.6 178345.9 Q 170726.3 179421.1 169821.2 181143.1 Q 159886.1 177917.5 154123.7 169229.8 L 154123.7 179337.1 Q 154123.7 181787.8 152359.7 182432.5 Q 151026.2 182905 145564.1 182905 Q 145352 181745.8 144446.9 180067.9 Q 148317.2 180280 149995.1 180151.9 Q 150942.2 180109.9 150942.2 179293 L 150942.2 173360.5 Q 143245.7 176798.2 135847.4 179895.7 L 134169.5 177056.5 Q 138856.7 175294.6 150942.2 170347 L 150942.2 162520.3 L 134083.4 162520.3 L 134083.4 159681.1 L 162254.9 159681.1 L 162513.2 155766.7 L 138256.1 155766.7 L 138256.1 152843.5 L 162685.4 152843.5 L 162769.4 150779.2 Q 162855.5 149359.6 162855.5 148887.1 L 137008.7 148887.1 L 137008.7 145919.8 L 163241.9 145919.8 L 163844.6 145791.7 L 166339.4 145961.8 Q 166211.3 151856.5 165522.5 159683.2 L 171371 159683.2 L 171371 162522.4 L 154125.8 162522.4 L 154125.8 163767.7 Q 155673.5 167079.4 158082.2 169874.5 Q 162855.5 166564.9 165822.8 163597.6 L 168533.9 165573.7 L 168533.9 165571.6 Z M 139112.9 163893.7 Q 144318.8 166732.9 147029.9 169269.7 L 144793.4 171464.2 Q 142298.6 168969.4 137008.7 165785.8 L 139115 163893.7 L 139112.9 163893.7 Z " fill-rule="nonzero" style="fill:#ffffff;;fill-opacity:1;"/>
</svg>