<svg version="1.1" x="0" y="0" width="100%" height="100%" viewBox="0 0 396800 77004.8" xmlns="http://www.w3.org/2000/svg">
  <path d="M 78408.4 23735.6 L 76688.8 23735.6 L 76688.8 12185.6 L 83323.6 12185.6 Q 83814.4 11080.4 84158.8 9975.2 L 86149.6 10319.6 Q 86273.2 10023.2 85290.4 12186.8 L 93425.2 12186.8 L 93425.2 23736.8 L 91630 23736.8 L 91630 13734.8 L 78409.6 13734.8 L 78409.6 23736.8 L 78408.4 23735.6 Z M 84182.8 22581.2 L 84182.8 19805.6 Q 82266.4 22090.4 80105.2 23319.2 Q 79564 22631.6 79046.8 22214 Q 81210.4 21206 82980.4 19215.2 L 79465.6 19215.2 L 79465.6 17889.2 L 84184 17889.2 L 84184 14300 L 85782.4 14300 L 85782.4 17889.2 L 90524.8 17889.2 L 90524.8 19215.2 L 85782.4 19215.2 L 85782.4 22581.2 L 84184 22581.2 L 84182.8 22581.2 Z M 81307.6 14667.2 Q 82536.4 16289.6 83003.2 17150 L 81774.4 17764.4 Q 80963.2 16362.8 80128 15207.2 L 81307.6 14666 L 81307.6 14667.2 Z M 89885.2 15184.4 Q 88262.8 17321.6 87894.4 17739.2 L 86813.2 17198 Q 87968.8 15624.8 88483.6 14519.6 L 89885.2 15183.2 L 89885.2 15184.4 Z M 89712.4 22950.8 Q 88459.6 21869.6 86272 20493.2 L 87180.4 19608.8 Q 89711.2 21206 90622 21944 L 89711.2 22952 L 89712.4 22950.8 Z M 87010 26340.8 Q 89442.4 30126.8 96349.6 30838.4 Q 95562.4 31673.6 95242 32558 Q 87697.6 31428.8 85092.4 26340.8 Q 84108.4 28847.6 81847.6 30273.2 Q 79366 31846.4 74671.6 32534 Q 74401.6 31673.6 73787.2 30962 Q 81283.6 29954 83053.6 26340.8 L 74206 26340.8 L 74206 24743.6 L 83642.8 24743.6 Q 83815.6 24056 83963.2 23244.8 L 85879.6 23244.8 Q 85782.4 23956.4 85585.6 24743.6 L 95833.6 24743.6 L 95833.6 26340.8 L 87011.2 26340.8 L 87010 26340.8 Z M 103302.4 24767.6 Q 105442 23835.2 106105.6 23589.2 L 106474 25211.6 Q 104802.4 25997.6 98928.4 28602.8 L 98216.8 26784.8 Q 99569.2 26318 101584 25457.6 L 101584 17667.2 L 98438.8 17667.2 L 98438.8 15923.6 L 101584 15923.6 L 101584 10344.8 L 103303.6 10344.8 L 103303.6 15923.6 L 106180 15923.6 L 106180 17667.2 L 103303.6 17667.2 L 103303.6 24770 L 103302.4 24767.6 Z M 117458.8 30297.2 Q 118514.8 30297.2 118859.2 29609.6 Q 119179.6 28971.2 119303.2 26807.6 Q 120065.2 27348.8 120949.6 27521.6 Q 120728.8 30126.8 120089.2 30986 Q 119377.6 31944.8 117510.4 31944.8 L 111487.6 31944.8 Q 109374.4 31944.8 108638.8 31282.4 Q 107875.6 30594.8 107875.6 28652 L 107875.6 20910.8 L 105935.2 21722 L 105223.6 20148.8 L 107876.8 19017.2 L 107876.8 12332 L 109622.8 12332 L 109622.8 18279.2 L 112915.6 16878.8 L 112915.6 10047.2 L 114661.6 10047.2 L 114661.6 16166 L 117905.2 14789.6 L 118643.2 14175.2 L 119921.2 14666 L 119821.6 15010.4 Q 119821.6 23022.8 119576.8 24202.4 Q 119404 25528.4 118274.8 25824.8 Q 117587.2 25996.4 115964.8 25996.4 Q 115792 24915.2 115522 24424.4 Q 116112.4 24449.6 117169.6 24449.6 Q 117758.8 24449.6 117906.4 23810 Q 118079.2 22974.8 118079.2 16584.8 L 114662.8 18035.6 L 114662.8 27054.8 L 112916.8 27054.8 L 112916.8 18771.2 L 109624 20172.8 L 109624 28677.2 Q 109624 29660 109992.4 29980.4 Q 110362 30298.4 111541.6 30298.4 L 117464.8 30298.4 L 117458.8 30297.2 Z M 130288 17421.2 L 135326.8 17421.2 L 135326.8 19116.8 L 130288 19116.8 L 130288 19779.2 Q 131467.6 20884.4 135030.4 24449.6 L 133949.2 25948.4 Q 133114 24867.2 130288 21843.2 L 130288 32460.8 L 128468.8 32460.8 L 128468.8 21918.8 Q 126355.6 26537.6 123824.8 29118.8 Q 123504.4 28407.2 122816.8 27399.2 Q 126110.8 24327.2 128101.6 19118 L 123310 19118 L 123310 17422.4 L 128470 17422.4 L 128470 13242.8 Q 126626.8 13612.4 123751.6 14030 Q 123654.4 13391.6 123187.6 12580.4 Q 130314.4 11523.2 133337.2 10197.2 L 134689.6 11597.6 Q 132994 12261.2 130291.6 12899.6 L 130291.6 17422.4 L 130288 17421.2 Z M 139037.2 26440.4 L 137243.2 26440.4 L 137243.2 12972.8 L 139037.2 12972.8 L 139037.2 26440.4 Z M 144246.4 10342.4 L 144246.4 29954 Q 144246.4 31625.6 143141.2 32043.2 Q 142232.8 32411.6 138767.2 32411.6 Q 138473.2 31232 138103.6 30568.4 Q 138964 30593.6 141815.2 30593.6 Q 142453.6 30568.4 142453.6 29954 L 142453.6 10342.4 L 144247.6 10342.4 L 144246.4 10342.4 Z M 153683.2 23565.2 L 153683.2 32511.2 L 151988.8 32511.2 L 151988.8 24106.4 L 147932.8 25359.2 L 147442 23613.2 Q 150611.2 22754 151988.8 22311.2 L 151988.8 16830.8 L 149752 16830.8 Q 149261.2 19116.8 148670.8 20466.8 Q 147762.4 19852.4 147271.6 19655.6 Q 148400.8 17100.8 148966 11474 L 150564.4 11744 Q 150416.8 13020.8 150096.4 15060.8 L 151988.8 15060.8 L 151988.8 10072.4 L 153683.2 10072.4 L 153683.2 15060.8 L 156216.4 15060.8 L 156216.4 16830.8 L 153683.2 16830.8 L 153683.2 21843.2 L 156534.4 20960 L 156780.4 22581.2 L 153683.2 23565.2 Z M 169757.2 14176.4 Q 169757.2 14864 169733.2 15084.8 Q 169019.2 29561.6 167666.8 31256 Q 167052.4 32092.4 165971.2 32189.6 Q 165088 32313.2 163169.2 32189.6 Q 163121.2 31108.4 162654.4 30396.8 Q 164030.8 30520.4 165235.6 30520.4 Q 165800.8 30520.4 166145.2 30101.6 Q 167300.8 28824.8 167964.4 15873.2 L 166783.6 15873.2 Q 164572 27473.6 158772.4 32094.8 Q 158231.2 31480.4 157248.4 30987.2 Q 162925.6 26908.4 165210.4 15873.2 L 163195.6 15873.2 Q 161204.8 23492 157148.8 27005.6 Q 156607.6 26415.2 155699.2 25949.6 Q 159606.4 22901.6 161622.4 15873.2 L 159509.2 15873.2 Q 158207.2 18772.4 156708.4 20542.4 Q 156338.8 20174 155306.8 19486.4 Q 158231.2 16290.8 159607.6 10049.6 L 161279.2 10394 Q 160812.4 12408.8 160174 14178.8 L 168037.6 14178.8 L 168037.6 14154.8 L 169757.2 14178.8 L 169757.2 14176.4 Z M 180054.4 27422 L 172435.6 29979.2 L 172018 28136 Q 173837.2 27594.8 175310.8 27104 L 175310.8 20493.2 L 172508.8 20493.2 L 172508.8 18771.2 L 175310.8 18771.2 L 175310.8 13438.4 L 172264 13438.4 L 172264 11718.8 L 179881.6 11718.8 L 179881.6 13438.4 L 177055.6 13438.4 L 177055.6 18771.2 L 179537.2 18771.2 L 179537.2 20493.2 L 177055.6 20493.2 L 177055.6 26564 L 179734 25679.6 L 180054.4 27423.2 L 180054.4 27422 Z M 182756.8 20517.2 L 186492.4 20517.2 L 186492.4 17372 L 182756.8 17372 L 182756.8 20517.2 Z M 182756.8 15872 L 186492.4 15872 L 186492.4 12776 L 182756.8 12776 L 182756.8 15872 Z M 191825.2 12776 L 188065.6 12776 L 188065.6 15872 L 191825.2 15872 L 191825.2 12776 Z M 191825.2 17370.8 L 188065.6 17370.8 L 188065.6 20516 L 191825.2 20516 L 191825.2 17370.8 Z M 194726.8 30027.2 L 194726.8 31698.8 L 178900 31698.8 L 178900 30027.2 L 186370 30027.2 L 186370 26661.2 L 180792.4 26661.2 L 180792.4 24990.8 L 186370 24990.8 L 186370 22114.4 L 181086.4 22114.4 L 181086.4 11178.8 L 193571.2 11178.8 L 193571.2 22114.4 L 188213.2 22114.4 L 188213.2 24990.8 L 193939.6 24990.8 L 193939.6 26661.2 L 188213.2 26661.2 L 188213.2 30027.2 L 194726.8 30027.2 Z M 199418.8 18968 L 197675.2 18968 L 197675.2 14126 L 201730 14126 Q 201067.6 12725.6 199616.8 11006 L 201142 10292 Q 202836.4 12234.8 203476 13635.2 L 202541.2 14126 L 207923.2 14126 Q 207332.8 12332 206080 10464.8 L 207653.2 9874.4 Q 209176 11987.6 209642.8 13610 L 208390 14124.8 L 212396.8 14124.8 Q 213894.4 12257.6 214878.4 10217.6 L 216721.6 10857.2 Q 215566 12576.8 214337.2 14123.6 L 218344 14123.6 L 218344 18965.6 L 216548.8 18965.6 L 216548.8 15772.4 L 199418.8 15772.4 L 199418.8 18965.6 L 199418.8 18968 Z M 218785.6 25554.8 L 208783.6 25554.8 L 208783.6 30249.2 Q 208783.6 31772 207602.8 32140.4 Q 206644 32460.8 203081.2 32460.8 Q 202933.6 31870.4 202319.2 30690.8 Q 205391.2 30814.4 206326 30714.8 Q 206964.4 30690.8 206964.4 30224 L 206964.4 25554.8 L 197183.2 25554.8 L 197183.2 23859.2 L 206964.4 23859.2 L 206964.4 22089.2 Q 209077.6 21327.2 211214.8 19901.6 L 201287.2 19901.6 L 201287.2 18279.2 L 213305.2 18279.2 L 213649.6 18182 L 214854.4 19090.4 Q 212568.4 21179.6 208784.8 22875.2 L 208784.8 23858 L 218786.8 23858 L 218786.8 25553.6 L 218785.6 25554.8 Z M 224118.4 17273.6 L 222348.4 17273.6 L 222348.4 12234.8 L 231564.4 12234.8 Q 231122.8 11226.8 230656 10439.6 L 232523.2 9900.8 Q 233310.4 11104.4 233728 12236 L 242796.4 12236 L 242796.4 17274.8 L 240953.2 17274.8 L 240953.2 13932.8 L 224118.4 13932.8 L 224118.4 17274.8 L 224118.4 17273.6 Z M 241076.8 20000 Q 239454.4 21352.4 237290.8 22778 Q 239183.2 28184 243828.4 29979.2 Q 243116.8 30617.6 242650 31478 Q 238004.8 29388.8 235865.2 23686.4 Q 235324 24056 234709.6 24376.4 Q 235324 26685.2 234979.6 28798.4 Q 234635.2 30814.4 233603.2 31600.4 Q 232595.2 32460.8 231096.4 32460.8 Q 230557.6 32460.8 228984.4 32411.6 Q 228984.4 31552.4 228517.6 30692 Q 229991.2 30815.6 230729.2 30815.6 Q 231761.2 30815.6 232302.4 30298.4 Q 233630.8 29339.6 233261.2 26070.8 Q 228812.8 29463.2 222742 31330.4 Q 222421.6 30544.4 221783.2 29782.4 Q 228738.4 28184 232915.6 24376.4 Q 232595.2 23295.2 232250.8 22655.6 Q 228392.8 25310 223133.2 26932.4 Q 222666.4 26024 222199.6 25506.8 Q 227876.8 24154.4 231515.2 21426.8 Q 231072.4 20715.2 230334.4 19977.2 Q 227410 21623.6 223258 22877.6 Q 222913.6 22139.6 222250 21425.6 Q 227730.4 20123.6 231023.2 17862.8 L 225420.4 17862.8 L 225420.4 16265.6 L 239551.6 16265.6 L 239551.6 17862.8 L 233456.8 17862.8 Q 232694.8 18526.4 231710.8 19164.8 Q 233432.8 20884.4 234218.8 22924.4 Q 237290.8 20960 239576.8 18820.4 L 241075.6 20000 L 241076.8 20000 Z M 257566 13438.4 L 251839.6 13438.4 L 251839.6 11792 L 257566 11792 L 257566 10072.4 L 259360 10072.4 L 259360 11792 L 265750 11792 L 265750 10072.4 L 267544 10072.4 L 267544 11792 L 273467.2 11792 L 273467.2 13438.4 L 267544 13438.4 L 267544 15134 L 267667.6 15084.8 Q 268061.2 15748.4 268651.6 17076.8 L 273100 17076.8 L 273100 18674 L 262088.8 18674 L 262088.8 17076.8 L 266586.4 17076.8 Q 266194 16068.8 265924 15626 L 267497.2 15135.2 L 265751.2 15135.2 L 265751.2 13439.6 L 259361.2 13439.6 L 259361.2 15135.2 L 257567.2 15135.2 L 257567.2 13439.6 L 257566 13438.4 Z M 254371.6 26292.8 L 254371.6 29315.6 L 259607.2 29315.6 L 259607.2 26292.8 L 254371.6 26292.8 Z M 254371.6 18771.2 L 254371.6 21574.4 L 258869.2 21574.4 L 258869.2 18771.2 L 254371.6 18771.2 Z M 254371.6 24842 L 261229.6 24842 L 261229.6 31822.4 L 259607.2 31822.4 L 259607.2 30790.4 L 254371.6 30790.4 L 254371.6 32288 L 252677.2 32288 L 252677.2 17297.6 L 255232 17297.6 Q 255749.2 15921.2 255944.8 14986.4 L 257887.6 15280.4 L 257052.4 17296.4 L 260566 17296.4 L 260566 23022.8 L 254372.8 23022.8 L 254372.8 24840.8 L 254371.6 24842 Z M 268307.2 23786 L 268307.2 26415.2 L 273073.6 26415.2 L 273073.6 28013.6 L 268307.2 28013.6 L 268307.2 32511.2 L 266537.2 32511.2 L 266537.2 28013.6 L 262063.6 28013.6 L 262063.6 26415.2 L 266537.2 26415.2 L 266537.2 23786 L 261301.6 23786 L 261301.6 22163.6 L 264694 22163.6 Q 264373.6 20640.8 263513.2 19191.2 L 264889.6 18724.4 Q 265897.6 20346.8 266143.6 21696.8 L 264841.6 22163.6 L 268331.2 22163.6 Q 269215.6 20640.8 269927.2 18772.4 L 271573.6 19239.2 Q 270590.8 21182 270025.6 22164.8 L 273712 22164.8 L 273712 23787.2 L 268306 23787.2 L 268307.2 23786 Z M 278776 18156.8 L 276982 18156.8 L 276982 12824 L 286516 12824 Q 286049.2 11620.4 285386.8 10415.6 L 287156.8 9900.8 Q 288139.6 11571.2 288606.4 12824 L 297355.6 12824 L 297355.6 18156.8 L 295512.4 18156.8 L 295512.4 14570 L 278776 14570 L 278776 18156.8 Z M 288089.2 29979.2 Q 289687.6 30297.2 292120 30297.2 Q 297208 30297.2 298387.6 30249.2 Q 297896.8 31035.2 297700 32092.4 L 292022.8 32092.4 Q 287819.2 32092.4 285434.8 31133.6 Q 282584.8 29978 281011.6 27027.2 Q 279733.6 30518 277349.2 32582 Q 276710.8 31844 275874.4 31326.8 Q 279586 28476.8 280470.4 21324.8 L 282288.4 21521.6 Q 282091.6 23094.8 281723.2 24692 Q 283001.2 28254.8 286220.8 29483.6 L 286220.8 19335.2 L 280126 19335.2 L 280126 17589.2 L 294354.4 17589.2 L 294354.4 19335.2 L 288086.8 19335.2 L 288086.8 23339.6 L 295362.4 23339.6 L 295362.4 25061.6 L 288086.8 25061.6 L 288086.8 29976.8 L 288089.2 29979.2 Z M 320334.4 12431.6 L 317310.4 12431.6 L 317310.4 15773.6 L 320334.4 15773.6 L 320334.4 12431.6 Z M 321808 17198 L 315884.8 17198 L 315884.8 11006 L 321808 11006 L 321808 17198 Z M 309175.6 18723.2 L 320972.8 18723.2 L 320972.8 20246 L 309175.6 20246 L 309175.6 18723.2 Z M 312838 12431.6 L 310110.4 12431.6 L 310110.4 15773.6 L 312838 15773.6 L 312838 12431.6 Z M 314387.2 17198 L 308635.6 17198 L 308635.6 11006 L 314387.2 11006 L 314387.2 17198 Z M 305539.6 15381.2 Q 304604.8 14152.4 302023.6 11744 L 303204.4 10636.4 Q 305882.8 12996.8 306791.2 14102 L 305538.4 15380 L 305539.6 15381.2 Z M 308734 26414 Q 309004 27545.6 309274 27987.2 Q 304506.4 31526 304088.8 32067.2 Q 303719.2 31329.2 303080.8 30790.4 Q 304285.6 29709.2 304285.6 28258.4 L 304285.6 19386.8 L 300647.2 19386.8 L 300647.2 17692.4 L 306029.2 17692.4 L 306029.2 28308.8 L 308732.8 26416.4 L 308734 26414 Z M 313306 23613.2 L 312764.8 25529.6 L 320825.2 25529.6 L 320776 26316.8 Q 320358.4 30887.6 319498 31649.6 Q 318859.6 32264 317507.2 32288 Q 315811.6 32337.2 313109.2 32189.6 Q 313060 31378.4 312494.8 30592.4 Q 314608 30789.2 316892.8 30789.2 Q 317777.2 30789.2 318023.2 30567.2 Q 318564.4 30076.4 318882.4 27077.6 L 310404.4 27077.6 Q 310945.6 25652 311462.8 23612 L 307480 23612 L 307480 22038.8 L 322766.8 22038.8 L 322766.8 23612 L 313306 23612 L 313306 23613.2 Z M 135362.8 54046 L 135362.8 56209.6 L 139466.8 56209.6 L 139466.8 54046 L 135362.8 54046 Z M 141113.2 54046 L 141113.2 56209.6 L 145388.8 56209.6 L 145388.8 54046 L 141113.2 54046 Z M 145388.8 59796.4 L 145388.8 57560.8 L 141113.2 57560.8 L 141113.2 59796.4 L 145388.8 59796.4 Z M 139466.8 59796.4 L 139466.8 57560.8 L 135362.8 57560.8 L 135362.8 59796.4 L 139466.8 59796.4 Z M 135362.8 65302 L 133616.8 65302 L 133616.8 52645.6 L 140572 52645.6 Q 138041.2 51391.6 135804.4 50556.4 L 136936 49524.4 Q 138509.2 50089.6 140500 50950 Q 142195.6 50138.8 143965.6 48860.8 L 133642 48860.8 L 133642 47411.2 L 145636 47411.2 L 146004.4 47314 L 147112 48173.2 Q 145096 50140 142097.2 51689.2 Q 143081.2 52130.8 143916.4 52648 L 147136 52648 L 147136 63461.2 Q 147136 64714 146300.8 65058.4 Q 145613.2 65354.8 142982.8 65354.8 Q 142859.2 64567.6 142490.8 63829.6 Q 143081.2 63854.8 144972.4 63854.8 Q 145390 63854.8 145390 63437.2 L 145390 61200.4 L 141114.4 61200.4 L 141114.4 65207.2 L 139468 65207.2 L 139468 61200.4 L 135364 61200.4 L 135364 65304.4 L 135362.8 65302 Z M 130495.6 52720 Q 129193.6 51024.4 126318.4 48517.6 L 127596.4 47485.6 Q 130595.2 49967.2 131824 51516.4 L 130495.6 52721.2 L 130495.6 52720 Z M 131012.8 64368.4 Q 131233.6 64492 131798.8 64909.6 Q 132438.4 65352.4 132880 65622.4 Q 134846.8 66826 139320.4 66826 Q 143621.2 66826 148387.6 66360.4 Q 147946 67416.4 147872.8 68154.4 Q 143645.2 68399.2 139271.2 68399.2 Q 134724.4 68399.2 132512.8 67049.2 Q 130226.8 65647.6 130129.6 65647.6 Q 129146.8 65647.6 126860.8 68695.6 L 125705.2 67196.8 Q 127892.8 64886.8 129245.2 64321.6 L 129245.2 57390.4 L 125804.8 57390.4 L 125804.8 55670.8 L 131014 55670.8 L 131014 64369.6 L 131012.8 64368.4 Z M 166918 52646.8 L 157481.2 52646.8 L 157481.2 50900.8 L 166918 50900.8 L 166918 46600 L 168736 46600 L 168736 50900.8 L 172128.4 50900.8 L 172128.4 52646.8 L 168736 52646.8 L 168736 62353.6 Q 168736 64024 167556.4 64393.6 Q 166573.6 64738 162911.2 64738 Q 162787.6 63877.6 162272.8 62894.8 Q 164042.8 62944 166254.4 62944 Q 166918 62918.8 166918 62353.6 L 166918 52646.8 Z M 160086.4 54587.2 Q 162715.6 57806.8 163600 59380 L 162053.2 60314.8 Q 160824.4 58030 158636.8 55375.6 L 160086.4 54588.4 L 160086.4 54587.2 Z M 154901.2 52302.4 Q 153769.6 50386 151288 48100 L 152688.4 47165.2 Q 155318.8 49574.8 156400 51245.2 L 154901.2 52302.4 Z M 155736.4 63902.8 Q 155909.2 64000 156498.4 64441.6 Q 157088.8 64860.4 157555.6 65154.4 Q 159446.8 66334 163944.4 66334 Q 168344.8 66334 172866.4 65867.2 Q 172349.2 66924.4 172301.2 67832.8 Q 168811.6 68078.8 163896.4 68078.8 Q 159251.2 68078.8 157138 66726.4 Q 154852 65276.8 154778.8 65276.8 Q 153870.4 65276.8 151534 68396.8 L 150257.2 66677.2 Q 152394.4 64367.2 153943.6 63778 L 153943.6 57388 L 150575.2 57388 L 150575.2 55668.4 L 155736.4 55668.4 L 155736.4 63901.6 L 155736.4 63902.8 Z M 192773.2 49205.2 L 186947.2 49205.2 L 186947.2 52302.4 L 192773.2 52302.4 L 192773.2 49205.2 Z M 192773.2 53849.2 L 186947.2 53849.2 L 186947.2 56970.4 L 192773.2 56970.4 L 192773.2 53849.2 Z M 179180.8 56971.6 L 185153.2 56971.6 L 185153.2 53850.4 L 179180.8 53850.4 L 179180.8 56971.6 Z M 179180.8 52302.4 L 185153.2 52302.4 L 185153.2 49205.2 L 179180.8 49205.2 L 179180.8 52302.4 Z M 194566 58594 L 177460 58594 L 177460 47584 L 194566 47584 L 194566 58594 Z M 188299.6 63779.2 Q 186653.2 62033.2 183212.8 60190 L 184416.4 59084.8 Q 187661.2 60658 189552.4 62550.4 L 188299.6 63779.2 Z M 175102 66826 Q 176699.2 64811.2 177780.4 60977.2 L 179402.8 61542.4 Q 178124.8 65867.2 176748.4 67686.4 L 175102 66826 Z M 189060.4 66751.6 Q 189971.2 66751.6 190240 66210.4 Q 190486 65669.2 190585.6 63605.2 Q 191200 64022.8 192280 64292.8 Q 192083.2 66799.6 191494 67610.8 Q 190879.6 68446 189208 68446 L 184268.8 68446 Q 182302 68446 181614.4 67931.2 Q 180950.8 67414 180950.8 65964.4 L 180950.8 61098.4 L 182770 61098.4 L 182770 65938 Q 182770 66455.2 183064 66602.8 Q 183360.4 66750.4 184392.4 66750.4 L 189061.6 66750.4 L 189060.4 66751.6 Z M 193632.4 60707.2 Q 196189.6 64000 197098 66703.6 L 195328 67489.6 Q 194540.8 64811.2 192010 61369.6 L 193632.4 60707.2 Z M 218772.4 49303.6 L 212677.6 49303.6 L 212677.6 51588.4 L 218772.4 51588.4 L 218772.4 49303.6 Z M 218772.4 53014 L 212677.6 53014 L 212677.6 55324 L 218772.4 55324 L 218772.4 53014 Z M 218772.4 56724.4 L 212677.6 56724.4 L 212677.6 59060.8 L 218772.4 59060.8 L 218772.4 56724.4 Z M 220518.4 60559.6 L 210982 60559.6 L 210982 47804.8 L 220518.4 47804.8 L 220518.4 60559.6 Z M 209876.8 60362.8 Q 211966 62254 213268 63827.2 L 211939.6 64908.4 Q 210907.6 63558.4 208597.6 61296.4 L 209875.6 60364 L 209876.8 60362.8 Z M 199628.8 66851.2 Q 200930.8 65105.2 201938.8 61861.6 L 203536 62476 Q 202332.4 66137.2 201224.8 67662.4 L 199627.6 66851.2 L 199628.8 66851.2 Z M 204298 60804.4 L 204298 54342.4 Q 202504 57683.2 200464 59354.8 Q 199922.8 58592.8 199284.4 58075.6 Q 202135.6 56060.8 203978.8 51760 L 199825.6 51760 L 199825.6 50161.6 L 204298 50161.6 L 204298 46574.8 L 206044 46574.8 L 206044 50161.6 L 209927.2 50161.6 L 209927.2 51760 L 206044 51760 L 206044 53136.4 Q 207420.4 53995.6 210124 56084.8 L 209140 57559.6 Q 208108 56575.6 206044 54832 L 206044 60803.2 L 204298 60803.2 L 204298 60804.4 Z M 213710.8 66778 Q 214595.2 66778 214865.2 66284.8 Q 215111.2 65794 215184.4 63926.8 Q 215822.8 64417.6 216854.8 64614.4 Q 216658 66924.4 216092.8 67662.4 Q 215478.4 68424.4 213832 68424.4 L 208745.2 68424.4 Q 206753.2 68424.4 206090.8 67933.6 Q 205403.2 67466.8 205403.2 66041.2 L 205403.2 62134 L 207197.2 62134 L 207197.2 66017.2 Q 207197.2 66508 207491.2 66631.6 Q 207811.6 66779.2 208867.6 66779.2 L 213709.6 66779.2 L 213710.8 66778 Z M 218772.4 61369.6 Q 220960 64738 221723.2 66284.8 L 220027.6 67121.2 Q 219413.2 65744.8 217200.4 62082.4 L 218773.6 61368.4 L 218772.4 61369.6 Z M 233544.4 52277.2 L 231995.2 52277.2 L 231995.2 47852.8 L 245659.6 47852.8 L 245659.6 52178.8 L 244038.4 52178.8 L 244038.4 49451.2 L 233544.4 49451.2 L 233544.4 52277.2 Z M 240890.8 50900.8 Q 244062.4 53628.4 245561.2 55816 L 244184.8 56824 Q 242686 54587.2 239588.8 51809.2 L 240890.8 50900.8 Z M 237894.4 51588.4 Q 236026 54784 233003.2 56971.6 Q 232364.8 56209.6 231674.8 55718.8 Q 234649.6 53850.4 236246.8 51024.4 L 237894.4 51589.6 L 237894.4 51588.4 Z M 231430 58618 L 230152 59108.8 Q 229316.8 59405.2 228874 59602 L 228874 66778 Q 228874 68104 228064 68473.6 Q 227374 68818 225138.4 68818 Q 224990.8 67957.6 224597.2 67195.6 Q 226292.8 67244.8 226758.4 67195.6 Q 227177.2 67195.6 227177.2 66802 L 227177.2 60240.4 L 224570.8 61223.2 L 224056 59453.2 Q 224767.6 59257.6 227177.2 58397.2 L 227177.2 53137.6 L 224276.8 53137.6 L 224276.8 51442 L 227177.2 51442 L 227177.2 46526.8 L 228871.6 46526.8 L 228871.6 51442 L 231232 51442 L 231232 53137.6 L 228871.6 53137.6 L 228871.6 57782.8 L 231084.4 56947.6 L 231428.8 58618 L 231430 58618 Z M 240744.4 60092.8 Q 243078.4 64147.6 246643.6 65990.8 Q 245905.6 66630.4 245414.8 67416.4 Q 242022.4 65303.2 239638 61051.6 L 239638 68768.8 L 237894.4 68768.8 L 237894.4 61150 Q 235484.8 65450.8 231601.6 67490.8 Q 231160 66679.6 230446 66065.2 Q 234476.8 64295.2 236813.2 60094 L 231750.4 60094 L 231750.4 58422.4 L 237894.4 58422.4 L 237894.4 55768 L 239638 55768 L 239638 58422.4 L 245954.8 58422.4 L 245954.8 60094 L 240743.2 60094 L 240744.4 60092.8 Z M 256399.6 64320.4 Q 253818.4 66826 250549.6 68473.6 Q 249984.4 67859.2 249148 67268.8 Q 252589.6 65770 254702.8 63680.8 L 256398.4 64320.4 L 256399.6 64320.4 Z M 261092.8 62402.8 L 261092.8 66824.8 Q 261092.8 68177.2 260086 68546.8 Q 259225.6 68840.8 256301.2 68840.8 Q 256177.6 68102.8 255636.4 67144 Q 258020.8 67217.2 258808 67168 Q 259322.8 67144 259322.8 66775.6 L 259322.8 62498.8 Q 251459.2 63016 250624 63260.8 Q 250378 62228.8 250133.2 61687.6 Q 251288.8 61540 253450 60655.6 Q 255072.4 60090.4 257972.8 58664.8 Q 252958 58985.2 252392.8 59206 Q 252196 58345.6 251902 57634 Q 252589.6 57534.4 253670.8 56969.2 Q 256079.2 55813.6 258266.8 54118 L 250991.2 54118 L 250991.2 57116.8 L 249271.6 57116.8 L 249271.6 52546 L 258905.2 52546 L 258905.2 50261.2 L 249517.6 50261.2 L 249517.6 48662.8 L 258905.2 48662.8 L 258905.2 46501.6 L 260773.6 46501.6 L 260773.6 48662.8 L 270161.2 48662.8 L 270161.2 50261.2 L 260773.6 50261.2 L 260773.6 52546 L 270480.4 52546 L 270480.4 57116.8 L 268686.4 57116.8 L 268686.4 54118 L 259346.8 54118 L 260084.8 54684.4 Q 257774.8 56354.8 255169.6 57607.6 L 260650 57289.6 Q 262369.6 56405.2 264089.2 55300 L 265367.2 56405.2 Q 260378.8 59404 255169.6 61344.4 L 265859.2 60779.2 Q 264655.6 59623.6 263868.4 58985.2 L 265170.4 58174 Q 268488.4 60876.4 270109.6 62965.6 L 268733.2 63924.4 Q 268144 63137.2 267112 62008 L 261089.2 62401.6 L 261092.8 62402.8 Z M 264461.2 63558.4 Q 268268.8 65522.8 270505.6 67366 L 269056 68398 Q 266992 66580 263084.8 64466.8 L 264461.2 63558.4 Z " fill-rule="nonzero" style="fill:#ffffff;;fill-opacity:1;"/>
</svg>