<svg version="1.1" x="0" y="0" width="100%" height="100%" viewBox="0 0 508108.8 322662.4" xmlns="http://www.w3.org/2000/svg">
  <path d="M 26098.25 43064.6 L 35560.5 43064.6 L 35560.5 45572.35 L 14019.75 45572.35 L 14019.75 43064.6 L 23447 43064.6 L 23447 32993.35 L 15418 32993.35 L 15418 30485.6 L 23447 30485.6 L 23447 23639.6 L 26100 23639.6 L 26100 30485.6 L 34164 30485.6 L 34164 32993.35 L 26100 32993.35 L 26100 43064.6 L 26098.25 43064.6 Z M 35558.75 19229.6 L 35558.75 21775.85 L 16023.5 21775.85 Q 14016.25 25933.85 11687 29085.6 L 11687 46289.85 L 9070.75 46289.85 L 9070.75 32240.85 Q 7313.75 34139.6 4912.75 35861.6 Q 4519 34748.6 3551.25 33458.85 Q 9321 29372.6 13011.75 21775.85 L 4410.5 21775.85 L 4410.5 19229.6 L 14194.75 19229.6 Q 15306 16506.6 16095.25 13676.85 L 18818.25 14357.6 Q 18209.25 16434.85 17098 19229.6 L 35557 19229.6 L 35558.75 19229.6 Z M 72151.25 28261.35 L 72151.25 31164.6 L 39608.25 31164.6 L 39608.25 28261.35 L 72151.25 28261.35 Z M 90249.75 24213.6 L 92972.75 24213.6 L 92972.75 46396.6 L 90249.75 46396.6 L 90249.75 24213.6 Z M 94194.25 14786.35 Q 93368.25 16184.6 93226.5 16364.85 Q 99104.75 23352.6 108315 27832.6 Q 107062 28763.6 106381.25 30198.6 Q 97743.25 25718.6 91686.5 18443.85 Q 85881.75 25897.1 77102 30161.85 Q 76312.75 28763.6 75129.75 27760.85 Q 86310.5 22923.85 91866.75 13676.85 L 94197.75 14788.1 L 94194.25 14786.35 Z M 117703.75 43099.6 L 122577.5 43099.6 L 122577.5 37042.85 L 117703.75 37042.85 L 117703.75 43099.6 Z M 125052 37042.85 L 125052 43099.6 L 129924 43099.6 L 129924 37042.85 L 125052 37042.85 Z M 132361.75 37042.85 L 132361.75 43099.6 L 137344 43099.6 L 137344 37042.85 L 132361.75 37042.85 Z M 139960.25 43099.6 L 143329 43099.6 L 143329 45572.35 L 111753.75 45572.35 L 111753.75 43099.6 L 115196 43099.6 L 115196 34855.35 L 139960.25 34855.35 L 139960.25 43099.6 Z M 135300 27293.6 L 119711 27293.6 L 119711 30700.85 L 135300 30700.85 L 135300 27293.6 Z M 137811.25 25394.85 L 137811.25 32599.6 L 117310 32599.6 L 117310 25394.85 L 137811.25 25394.85 Z M 133508 21238.6 Q 129638.75 18907.6 127523 17045.6 Q 125122 19339.85 122040.25 21238.6 L 133508 21238.6 Z M 129854 14534.35 L 129028 15467.1 Q 135158.25 20410.85 144260 23170.6 Q 143113.75 24318.6 142398 25499.85 Q 138994.25 24281.85 134691 21952.6 L 134691 23205.6 L 120500.25 23205.6 L 120500.25 22167.85 Q 116809.5 24211.85 112616.5 25786.85 Q 111827.25 24497.1 110894.5 23707.85 Q 122649.25 19660.1 127416.25 13494.85 L 129854 14532.6 L 129854 14534.35 Z M 179456 32205.85 L 164833 32205.85 L 164833 42886.1 Q 164833 45358.85 163006 45896.1 Q 161571 46398.35 155979.75 46398.35 Q 155657.75 45038.6 154833.5 43675.35 Q 158739.5 43817.1 161140.5 43710.35 Q 162108.25 43675.35 162108.25 42851.1 L 162108.25 32205.85 L 147340 32205.85 L 147340 29552.85 L 162108.25 29552.85 L 162108.25 24392.1 Q 166875.25 22206.35 171068.25 18729.1 L 150889 18729.1 L 150889 16112.85 L 173969.75 16112.85 L 174543.75 15971.1 L 176551 17476.1 Q 171712.25 22243.1 164831.25 25755.35 L 164831.25 29554.6 L 179454.25 29554.6 L 179454.25 32207.6 L 179456 32205.85 Z M 189599 28693.6 L 197985 28693.6 L 197985 24283.6 L 189599 24283.6 L 189599 28693.6 Z M 189599 21917.6 L 197985 21917.6 L 197985 17582.85 L 189599 17582.85 L 189599 21917.6 Z M 209165.75 17582.85 L 200599.5 17582.85 L 200599.5 21917.6 L 209165.75 21917.6 L 209165.75 17582.85 Z M 209165.75 24283.6 L 200599.5 24283.6 L 200599.5 28693.6 L 209165.75 28693.6 L 209165.75 24283.6 Z M 215115.75 42777.6 L 215115.75 45393.85 L 183327 45393.85 L 183327 42777.6 L 197804.75 42777.6 L 197804.75 37830.35 L 185728 37830.35 L 185728 35214.1 L 197804.75 35214.1 L 197804.75 31201.35 L 186876 31201.35 L 186876 15073.35 L 211999 15073.35 L 211999 31201.35 L 200779.75 31201.35 L 200779.75 35214.1 L 213182 35214.1 L 213182 37830.35 L 200779.75 37830.35 L 200779.75 42777.6 L 215115.75 42777.6 Z M 243861.25 27365.35 L 228916.25 27365.35 L 228916.25 30986.1 L 243861.25 30986.1 L 243861.25 27365.35 Z M 243861.25 37042.85 L 243861.25 33317.1 L 228916.25 33317.1 L 228916.25 37042.85 L 243861.25 37042.85 Z M 231389 20806.35 Q 230099.25 23459.35 229203.25 24964.35 L 246477.5 24964.35 L 246477.5 43064.6 Q 246477.5 45323.85 244972.5 45896.1 Q 243682.75 46363.35 238735.5 46363.35 Q 238593.75 45215.35 237878 43747.1 Q 239454.75 43817.1 243038.75 43817.1 Q 243863 43782.1 243863 43066.35 L 243863 39337.1 L 228918 39337.1 L 228918 46398.35 L 226301.75 46398.35 L 226301.75 29124.1 Q 223613.75 32492.85 220315 34787.1 Q 219671 33710.85 218629.75 32743.1 Q 224686.5 28656.85 228485.75 20808.1 L 219490.75 20808.1 L 219490.75 18300.35 L 229598.75 18300.35 Q 230564.75 15827.6 231173.75 13678.6 L 233826.75 14322.6 Q 232930.75 17155.85 232428.5 18302.1 L 250670.5 18302.1 L 250670.5 20809.85 L 231390.75 20809.85 L 231389 20806.35 Z M 287191.25 28261.35 L 287191.25 31164.6 L 254648.25 31164.6 L 254648.25 28261.35 L 287191.25 28261.35 Z M 312244.25 35716.35 Q 319197 40912.1 322494 44819.85 L 320056.25 46431.6 Q 316796 42380.35 309985 37111.1 L 312244.25 35712.85 L 312244.25 35716.35 Z M 303571.25 36899.35 Q 299378.25 42490.6 292747.5 46541.85 Q 291923.25 45680.85 290633.5 44678.1 Q 297407.75 40807.1 300776.5 35824.85 L 303571.25 36901.1 L 303571.25 36899.35 Z M 297225.75 29946.6 L 316113.5 29946.6 L 316113.5 18907.6 L 297225.75 18907.6 L 297225.75 29946.6 Z M 318910 16364.85 L 318910 32527.85 L 294537.75 32527.85 L 294537.75 16364.85 L 318910 16364.85 Z M 337152 16004.35 Q 335897.25 18155.1 333855 20556.1 Q 336221 25107.85 336221 32884.85 Q 336221 42131.85 334429 44602.85 Q 333639.75 45535.6 332420 45750.85 Q 330880 46072.85 328372.25 45892.6 Q 328372.25 44567.85 327618 43349.85 Q 330055.75 43491.6 331345.5 43384.85 Q 332096.25 43278.1 332490 42740.85 Q 333673 41199.1 333673 32848.1 Q 333673 31630.1 333638 31021.1 Q 330950 35107.35 327868.25 37615.1 Q 327079 36325.35 326076.25 35609.6 Q 330591.25 32562.85 333279.25 27045.1 Q 332850.5 24357.1 332026.25 22493.35 Q 329840.5 24679.1 327689.75 26184.1 Q 327261 25468.35 325971.25 24357.1 Q 328514 22565.1 330808.25 20164.1 Q 329340 17904.85 327154.25 15971.1 L 329016.25 14536.1 Q 330915 16186.35 332456.75 18265.35 Q 334177 16186.35 335108 14429.35 L 337152 16006.1 L 337152 16004.35 Z M 341094.75 29874.85 L 341094.75 34787.1 L 346577.5 34787.1 L 346577.5 29874.85 L 341094.75 29874.85 Z M 354534.75 29874.85 L 349013.5 29874.85 L 349013.5 34787.1 L 354534.75 34787.1 L 354534.75 29874.85 Z M 354534.75 42168.6 L 354534.75 37114.6 L 349013.5 37114.6 L 349013.5 42168.6 L 354534.75 42168.6 Z M 341094.75 42168.6 L 346577.5 42168.6 L 346577.5 37114.6 L 341094.75 37114.6 L 341094.75 42168.6 Z M 338657 27473.85 L 357079.25 27473.85 L 357079.25 46219.85 L 354536.5 46219.85 L 354536.5 44534.6 L 341096.5 44534.6 L 341096.5 46396.6 L 338658.75 46396.6 L 338658.75 27473.85 L 338657 27473.85 Z M 358404 18800.85 L 358404 21238.6 L 353567 21238.6 L 353567 25895.35 L 350985.75 25895.35 L 350985.75 21238.6 L 344713.75 21238.6 L 344713.75 25895.35 L 342132.5 25895.35 L 342132.5 21238.6 L 337078.5 21238.6 L 337078.5 18800.85 L 342132.5 18800.85 L 342132.5 13711.85 L 344713.75 13711.85 L 344713.75 18800.85 L 350985.75 18800.85 L 350985.75 13711.85 L 353567 13711.85 L 353567 18800.85 L 358404 18800.85 Z M 365286.75 45607.35 Q 369549.75 43852.1 369801.75 40339.85 Q 369586.5 40374.85 369192.75 40374.85 Q 368044.75 40374.85 367294 39729.1 Q 366504.75 39050.1 366504.75 37830.35 Q 366504.75 36612.35 367329 35896.6 Q 368083.25 35250.85 369229.5 35250.85 Q 372276.25 35250.85 372276.25 39373.85 Q 372276.25 45323.85 366076 47509.6 L 365286.75 45607.35 Z M 415104 26756.35 Q 413383.75 22813.6 409728 18226.85 L 411987.25 17045.6 Q 415786.5 21595.6 417506.75 25359.85 L 415105.75 26758.1 L 415104 26756.35 Z M 413277 33852.6 Q 413418.75 34785.35 413956 36362.1 Q 402666.75 41773.1 401448.75 42849.35 Q 401090 41881.6 399978.75 40663.6 Q 402129.5 39445.6 402129.5 37436.6 L 402129.5 16471.6 L 404959.25 16471.6 L 404959.25 37723.6 L 413275.25 33852.6 L 413277 33852.6 Z M 428472.25 46326.6 Q 426216.5 42705.85 421234.25 37797.1 Q 417792 43423.35 410730.75 46650.35 Q 409941.5 45432.35 408758.5 44356.1 Q 416894.25 41129.1 420119.5 33961.1 Q 422844.25 27941.1 423525 15110.1 L 426319.75 15255.35 Q 425493.75 28910.6 422483.75 35432.85 Q 428218.5 40915.6 430761.25 44606.35 L 428467 46328.35 L 428472.25 46326.6 Z M 444491.75 20125.6 Q 447431.75 31703.6 454312.75 37723.6 Q 459149.75 33350.35 461228.75 26791.35 L 451981.75 26791.35 Q 453058 23459.35 454169.25 18263.6 L 444493.5 18263.6 L 444493.5 20125.6 L 444491.75 20125.6 Z M 464599.25 24857.6 Q 462413.5 33889.35 456500.25 39372.1 Q 460800 42347.1 466498 43671.85 Q 465460.25 44783.1 464744.5 46146.35 Q 458722.75 44569.6 454277.75 41237.6 Q 449834.5 44534.6 443669.25 46361.6 Q 443095.25 45106.85 442127.5 43995.6 Q 447683.75 42670.85 452200.5 39480.6 Q 447181.5 34748.6 444243.25 27078.35 Q 443167 38656.35 435496.75 45894.35 Q 434781 44676.35 433561.25 43673.6 Q 441770.5 35968.35 441770.5 21238.6 L 441770.5 18263.6 L 435498.5 18263.6 L 435498.5 15610.6 L 457469.75 15610.6 Q 457002.5 17831.35 455460.75 24248.6 L 462341.75 24248.6 L 462845.75 24103.35 L 464601 24857.6 L 464599.25 24857.6 Z M 478720 20055.6 Q 475925.25 26936.6 472341.25 31845.35 Q 471587 31343.1 470012 30553.85 Q 473485.75 26395.85 476210.5 19373.1 L 478718.25 20053.85 L 478720 20055.6 Z M 495276.75 19339.85 Q 499902 25933.85 501944.25 30233.6 L 499723.5 31596.85 Q 497429.25 26723.1 493091 20379.35 L 495276.75 19341.6 L 495276.75 19339.85 Z M 497607.75 33280.35 Q 490942 43780.35 470584.25 46396.6 Q 470155.5 44998.35 469294.5 43852.1 Q 489078.25 41701.35 495208.5 32132.35 L 497609.5 33280.35 L 497607.75 33280.35 Z M 486677.25 13746.85 L 486677.25 35644.6 L 484061 35644.6 L 484061 13746.85 L 486677.25 13746.85 Z M 28786.25 69529.25 L 11043 69529.25 L 11043 71466.5 L 28786.25 71466.5 L 28786.25 69529.25 Z M 28786.25 73004.75 L 11043 73004.75 L 11043 74977 L 28786.25 74977 L 28786.25 73004.75 Z M 31400.75 76588.75 L 8498.5 76588.75 L 8498.5 67915.75 L 31400.75 67915.75 L 31400.75 76588.75 Z M 35954.25 80102.75 L 4055.25 80102.75 L 4055.25 78058.75 L 35954.25 78058.75 L 35954.25 80102.75 Z M 18643.25 88991 L 18643.25 86947 L 10327.25 86947 L 10327.25 88991 L 18643.25 88991 Z M 10327.25 85372 L 18643.25 85372 L 18643.25 83363 L 10327.25 83363 L 10327.25 85372 Z M 29859 83363 L 21186 83363 L 21186 85372 L 29859 85372 L 29859 83363 Z M 29859 86947 L 21186 86947 L 21186 88991 L 29859 88991 L 29859 86947 Z M 36131 96552.75 L 36131 98631.75 L 3840 98631.75 L 3840 96552.75 L 18643.25 96552.75 L 18643.25 94473.75 L 6815 94473.75 L 6815 92610 L 18643.25 92610 L 18643.25 90637.75 L 7854.5 90637.75 L 7854.5 81714.5 L 32478.75 81714.5 L 32478.75 90637.75 L 21187.75 90637.75 L 21187.75 92610 L 33229.5 92610 L 33229.5 94473.75 L 21187.75 94473.75 L 21187.75 96552.75 L 36132.75 96552.75 L 36131 96552.75 Z M 47206.75 72289 Q 46774.5 70497 45376.25 67415.25 L 47670.5 66734.5 Q 49033.75 69494.25 49607.75 71501.5 L 47206.75 72290.75 L 47206.75 72289 Z M 53800.75 79815.75 Q 53800.75 80675 53764 81033.75 Q 53442 96446 52365.75 97951 Q 51615 98953.75 50251.75 99095.5 Q 48818.5 99275.75 46417.5 99095.5 Q 46272.25 97662.25 45698.25 96624.5 Q 47527 96801.25 49067 96801.25 Q 49786.25 96801.25 50108.25 96299 Q 50897.5 95261.25 51184.5 82250 L 46345.75 82250 L 46345.75 82502 Q 46345.75 93682.75 40898 99487.5 Q 40182.25 98591.5 38927.5 97767.25 Q 43801.25 92571.5 43801.25 82463.5 L 43801.25 75045.25 L 39573.25 75045.25 L 39573.25 72572.5 L 55379.25 72572.5 L 55379.25 75045.25 L 46347.5 75045.25 L 46347.5 79812.25 L 53802.5 79812.25 L 53800.75 79815.75 Z M 60253 75908 L 60107.75 76266.75 Q 61325.75 83006 63511.5 87556 Q 65914.25 82969.25 66952 75908 L 60251.25 75908 L 60253 75908 Z M 69606.75 75908 Q 68243.5 84617.75 65018.25 90244 Q 68098.25 95082.75 72543.25 97161.75 Q 71432 98129.5 70677.75 99454.25 Q 66304.5 97160 63401.25 92645 Q 60176 96873 54906.75 99596 Q 54478 98523.25 53366.75 97268.5 Q 58812.75 94760.75 61968 90174 Q 59924 86157.75 58490.75 80209.5 Q 57488 82395.25 55911.25 84651 Q 54873.5 83433 53832.25 82643.75 Q 57883.5 77374.5 59817.25 66767.75 L 62505.25 67196.5 Q 61716 70995.75 61037 73433.5 L 72217.75 73433.5 L 72217.75 75904.5 L 69601.5 75904.5 L 69606.75 75908 Z M 80644 85800.75 L 87742 85800.75 L 87742 82790.75 L 80644 82790.75 L 80644 85800.75 Z M 80644 72934.75 L 80644 75838 L 87742 75838 L 87742 72934.75 L 80644 72934.75 Z M 87742 77845.25 L 80644 77845.25 L 80644 80783.5 L 87742 80783.5 L 87742 77845.25 Z M 90214.75 96516 Q 90214.75 98560 88925 99097.25 Q 87777 99564.5 83799.25 99564.5 Q 83512.25 98274.75 82975 97237 Q 85591.25 97343.75 87026.25 97237 Q 87742 97200.25 87742 96519.5 L 87742 88170.25 L 87670.25 88170.25 Q 83692.5 94083.5 76739.75 97882.75 Q 75808.75 96593 74984.5 95984 Q 80969.5 93115.75 84803.75 88172 L 75663.5 88172 L 75663.5 85806 L 78244.75 85806 L 78244.75 70789.25 L 81974 70789.25 Q 82763.25 68782 83265.5 66774.75 L 85916.75 67168.5 Q 84985.75 69569.5 84411.75 70787.5 L 90220 70787.5 L 90220 96519.5 L 90214.75 96516 Z M 107956.25 77558.25 L 104050.25 77558.25 L 104050.25 96159 Q 104050.25 98418.25 102580.25 98990.5 Q 101252 99564.5 96772 99492.75 Q 96595.25 98274.75 95876 96985 Q 96989 97021.75 100643 97021.75 Q 101504 96985 101504 96160.75 L 101504 77560 L 91576.25 77560 L 91576.25 75013.75 L 101504 75013.75 L 101504 66914.75 L 104050.25 66914.75 L 104050.25 75013.75 L 107956.25 75013.75 L 107956.25 77560 L 107956.25 77558.25 Z M 96989 90067.25 Q 95769.25 85909.25 92796 81716.25 L 94910 80783.5 Q 97991.75 85048.25 99244.75 89064.5 L 96989 90067.25 Z M 110679.25 82719 Q 112042.5 79385.25 112544.75 73545.5 L 114552 73832.5 Q 114230 79350.25 112760 83436.5 L 110681 82720.75 L 110679.25 82719 Z M 115840 66771.25 L 118493 66771.25 L 118493 99491 L 115840 99491 L 115840 66771.25 Z M 120607 72504.25 Q 122470.75 75873 123221.5 78489.25 L 121214.25 79457 Q 120570.25 76984.25 118741.5 73365.25 L 120605.25 72504.25 L 120607 72504.25 Z M 143435.75 95730.25 L 143435.75 98273 L 121574.75 98273 L 121574.75 95730.25 L 131824.5 95730.25 L 131824.5 86770.25 L 124224.25 86770.25 L 124224.25 84297.5 L 131824.5 84297.5 L 131824.5 76877.5 L 126590.25 76877.5 Q 125479 80211.25 124080.75 82432 Q 123326.5 81929.75 121714.75 81214 Q 124618 76840.75 126053 68418 L 128634.25 68850.25 Q 128060.25 71823.5 127344.5 74334.75 L 131824.5 74334.75 L 131824.5 66914.75 L 134475.75 66914.75 L 134475.75 74334.75 L 142576.5 74334.75 L 142576.5 76877.5 L 134475.75 76877.5 L 134475.75 84297.5 L 141789 84297.5 L 141789 86770.25 L 134475.75 86770.25 L 134475.75 95730.25 L 143435.75 95730.25 Z M 155908 86483.25 L 155908 99529.5 L 153437 99529.5 L 153437 87272.5 L 147522 89099.5 L 146806.25 86553.25 Q 151428 85300.25 153437 84654.5 L 153437 76662.25 L 150175 76662.25 Q 149459.25 79996 148598.25 81964.75 Q 147273.5 81068.75 146557.75 80781.75 Q 148204.5 77056 149028.75 68850.25 L 151359.75 69244 Q 151144.5 71106 150677.25 74081 L 153437 74081 L 153437 66806.25 L 155908 66806.25 L 155908 74081 L 159602.25 74081 L 159602.25 76662.25 L 155908 76662.25 L 155908 83972 L 160066 82684 L 160424.75 85048.25 L 155908 86483.25 Z M 179349.25 72791.25 Q 179349.25 73794 179314.25 74116 Q 178273 95228 176300.75 97699 Q 175404.75 98918.75 173828 99060.5 Q 172540 99240.75 169741.75 99060.5 Q 169671.75 97483.75 168991 96446 Q 170998.25 96626.25 172755.25 96626.25 Q 173579.5 96626.25 174081.75 96015.5 Q 175767 94153.5 176734.75 75265.75 L 175012.75 75265.75 Q 171787.5 92183 163329.75 98922.25 Q 162540.5 98026.25 161107.25 97307 Q 169386.5 91358.75 172718.5 75265.75 L 169780.25 75265.75 Q 166877 86376.5 160962 91500.5 Q 160172.75 90639.5 158848 89960.5 Q 164546 85515.5 167486 75265.75 L 164404.25 75265.75 Q 162505.5 79493.75 160319.75 82075 Q 159780.75 81537.75 158275.75 80535 Q 162540.5 75874.75 164547.75 66773 L 166985.5 67275.25 Q 166304.75 70213.5 165373.75 72794.75 L 176841.5 72794.75 L 176841.5 72759.75 L 179349.25 72794.75 L 179349.25 72791.25 Z M 203396 87486 Q 203396 91105 201353.75 93577.75 Q 198343.75 97233.5 190708.5 99454.25 Q 189597.25 97949.25 188916.5 97410.25 Q 196226.25 95511.5 198914.25 92466.5 Q 200671.25 90459.25 200671.25 87412.5 L 200671.25 84257.25 L 203394.25 84257.25 L 203394.25 87484.25 L 203396 87486 Z M 204363.75 92575 Q 210278.75 94834.25 214900.5 97485.5 L 213036.75 99277.5 Q 208556.75 96482.75 202500 94188.5 L 204363.75 92576.75 L 204363.75 92575 Z M 200316 74439.75 Q 200457.75 73291.75 200599.5 70855.75 Q 194292.5 71428 188988.25 71645 L 188988.25 74439.75 L 200314.25 74439.75 L 200316 74439.75 Z M 215154.25 74439.75 L 215154.25 76840.75 L 202717 76840.75 Q 202500 78704.5 202214.75 80316.25 L 212427.75 80316.25 L 212427.75 92715 L 209704.75 92715 L 209704.75 82789 L 194327.5 82789 L 194327.5 92573.25 L 191711.25 92573.25 L 191711.25 80316.25 L 199633.5 80316.25 L 199848.75 78666 Q 199990.5 77483 200097.25 76839 L 188988.25 76839 L 188988.25 79381.75 Q 188988.25 92680 184972 99093.75 Q 183899.25 98162.75 182679.5 97695.5 Q 186370.25 91890.75 186370.25 79381.75 L 186370.25 69419 Q 203144 68775 210921 66983 L 213035 69097 Q 208987.25 70028 203394.25 70567 L 203002.25 74438 L 215152.5 74438 L 215154.25 74439.75 Z M 227911.75 89600 Q 229523.5 91211.75 229523.5 93471 Q 229523.5 95730.25 227911.75 97342 Q 226335 98953.75 224040.75 98953.75 Q 221820 98953.75 220204.75 97342 Q 218593 95730.25 218593 93471 Q 218593 91211.75 220204.75 89600 Q 221820 88023.25 224040.75 88023.25 Q 226335 88023.25 227911.75 89600  Z M 226622 96052.25 Q 227659.75 95011 227659.75 93471 Q 227659.75 91966 226622 90924.75 Q 225545.75 89852 224040.75 89852 Q 222570.75 89852 221494.5 90924.75 Q 220418.25 92001 220418.25 93471 Q 220418.25 94976 221494.5 96052.25 Q 222570.75 97128.5 224040.75 97128.5 Q 225580.75 97128.5 226622 96052.25  Z M 271602.25 73830.75 Q 270526 71499.75 267873 67809 L 270167.25 66626 Q 273000.5 70210 274038.25 72434.25 L 271602.25 73832.5 L 271602.25 73830.75 Z M 283966 75048.75 Q 276691.25 85872.5 264289 93542.75 Q 264863 93971.5 265220 94186.75 Q 267873 95872 274397 95872 Q 281097.75 95872 287298 95228 Q 286582.25 96768 286510.5 98092.75 Q 280670.75 98486.5 274292 98486.5 Q 267733 98486.5 264686.25 96552.75 Q 261424.25 94473.75 261317.5 94473.75 Q 259957.75 94473.75 256802.5 98918.75 L 254830.25 96481 Q 258988.25 91966 261354.25 91966 Q 261531 91966 261818 92036 Q 272463.25 85874.25 279416 76447 L 256657.25 76447 L 256657.25 73865.75 L 281388.25 73865.75 L 281962.25 73685.5 L 283969.5 75048.75 L 283966 75048.75 Z M 302636.75 86805.25 L 302636.75 95228 L 317440 95228 L 317440 86805.25 L 302636.75 86805.25 Z M 299987.25 84295.75 L 320201.5 84295.75 L 320201.5 99491 L 317441.75 99491 L 317441.75 97699 L 302638.5 97699 L 302638.5 99562.75 L 299987.25 99562.75 L 299987.25 84295.75 Z M 322851 76627.25 L 322851 79208.5 L 296973.75 79208.5 Q 296973.75 92863.75 292243.5 99599.5 Q 291240.75 98346.5 290057.75 97772.5 Q 294250.75 91859.25 294250.75 79208.5 L 294250.75 69996.5 Q 310630.75 68958.75 318120.75 67095 L 320341.5 69209 Q 312135.75 71216.25 296973.75 72219 L 296973.75 76629 L 322851 76629 L 322851 76627.25 Z M 329446.75 98701.75 Q 333709.75 96946.5 333961.75 93434.25 Q 333746.5 93469.25 333352.75 93469.25 Q 332204.75 93469.25 331454 92823.5 Q 330664.75 92144.5 330664.75 90924.75 Q 330664.75 89706.75 331489 88991 Q 332243.25 88345.25 333389.5 88345.25 Q 336436.25 88345.25 336436.25 92468.25 Q 336436.25 98418.25 330236 100604 L 329446.75 98701.75 Z M 387221.25 80459.75 L 372276.25 80459.75 L 372276.25 84080.5 L 387221.25 84080.5 L 387221.25 80459.75 Z M 387221.25 90137.25 L 387221.25 86411.5 L 372276.25 86411.5 L 372276.25 90137.25 L 387221.25 90137.25 Z M 374749 73900.75 Q 373459.25 76553.75 372563.25 78058.75 L 389837.5 78058.75 L 389837.5 96159 Q 389837.5 98418.25 388332.5 98990.5 Q 387042.75 99457.75 382095.5 99457.75 Q 381953.75 98309.75 381238 96841.5 Q 382814.75 96911.5 386398.75 96911.5 Q 387223 96876.5 387223 96160.75 L 387223 92431.5 L 372278 92431.5 L 372278 99492.75 L 369661.75 99492.75 L 369661.75 82218.5 Q 366973.75 85587.25 363675 87881.5 Q 363031 86805.25 361989.75 85837.5 Q 368046.5 81751.25 371845.75 73902.5 L 362850.75 73902.5 L 362850.75 71394.75 L 372958.75 71394.75 Q 373924.75 68922 374533.75 66773 L 377186.75 67417 Q 376290.75 70250.25 375788.5 71396.5 L 394030.5 71396.5 L 394030.5 73904.25 L 374750.75 73904.25 L 374749 73900.75 Z M 397290.75 93758 L 398902.5 91607.25 Q 401805.75 94510.5 405354.75 94510.5 Q 407720.75 94510.5 409297.5 92863.75 Q 410944.25 91106.75 410944.25 88312 Q 410944.25 85517.25 409474.25 83905.5 Q 408006 82328.75 405498.25 82328.75 Q 403454.25 82328.75 401125 83868.75 L 399368 82796 L 400192.25 70502.25 L 412988.25 70502.25 L 412988.25 73297 L 403060.5 73297 L 402416.5 80897.25 Q 404278.5 79856 406322.5 79856 Q 409799.75 79856 411913.75 81863.25 Q 414243 84087.5 414243 88208.75 Q 414243 92366.75 411626.75 94874.5 Q 409154 97240.5 405641.75 97240.5 Q 400768 97240.5 397290.75 93763.25 L 397290.75 93758 Z M 420080.15 93828 Q 417859.4 90244 417859.4 83543.25 Q 417859.4 76842.5 420080.15 73330.25 Q 422194.15 69996.5 426065.15 69996.5 Q 429901.15 69996.5 432015.15 73365.25 Q 434235.9 76877.5 434235.9 83543.25 Q 434235.9 90244 432015.15 93828 Q 429901.15 97235.25 426065.15 97235.25 Q 422230.9 97235.25 420080.15 93828  Z M 431047.4 83543.25 Q 431047.4 72649.5 426065.15 72649.5 Q 421047.9 72649.5 421047.9 83543.25 Q 421047.9 94617.25 426065.15 94617.25 Q 431047.4 94617.25 431047.4 83543.25  Z M 438963.55 84404.25 Q 437313.3 82180 437313.3 78239 Q 437313.3 74333 438963.55 72147.25 Q 440538.55 69996.5 443263.3 69996.5 Q 446023.05 69996.5 447598.05 72147.25 Q 449248.3 74333 449248.3 78239 Q 449248.3 82180 447598.05 84404.25 Q 446023.05 86590 443263.3 86590 Q 440538.55 86590 438963.55 84404.25  Z M 445807.8 82969.25 Q 446775.55 81284 446775.55 78239 Q 446775.55 72002 443263.3 72002 Q 441686.55 72002 440755.55 73543.75 Q 439787.8 75190.5 439787.8 78237.25 Q 439787.8 81282.25 440755.55 82967.5 Q 441686.55 84544.25 443263.3 84544.25 Q 444875.05 84544.25 445806.05 82967.5 L 445807.8 82969.25 Z M 458532.05 69994.75 L 460752.8 69994.75 L 446240.05 97233.5 L 444054.3 97233.5 L 458532.05 69994.75 Z M 457240.55 95047.75 Q 455593.8 92823.5 455593.8 88917.5 Q 455593.8 85011.5 457240.55 82825.75 Q 458852.3 80675 461577.05 80675 Q 464300.05 80675 465911.8 82825.75 Q 467527.05 85011.5 467527.05 88917.5 Q 467527.05 92860.25 465911.8 95046 Q 464300.05 97231.75 461577.05 97231.75 Q 458852.3 97231.75 457240.55 95046 L 457240.55 95047.75 Z M 464086.55 93651.25 Q 465054.3 91966 465054.3 88919.25 Q 465054.3 85874.25 464086.55 84224 Q 463155.55 82684 461578.8 82684 Q 458064.8 82684 458064.8 88919.25 Q 458064.8 91966 459032.55 93651.25 Q 459965.3 95228 461577.05 95228 Q 463153.8 95228 464084.8 93651.25 L 464086.55 93651.25 Z M 482077.6 74905.25 L 474552.6 74905.25 L 474552.6 82397 L 482077.6 82397 L 482077.6 74905.25 Z M 482077.6 93364.25 L 482077.6 84761.25 L 474552.6 84761.25 L 474552.6 93364.25 L 482077.6 93364.25 Z M 480430.85 67235 Q 478854.1 71751.75 478567.1 72502.5 L 484517.1 72502.5 L 484517.1 95763.5 L 474554.35 95763.5 L 474554.35 98593.25 L 472116.6 98593.25 L 472116.6 72502.5 L 476132.85 72502.5 Q 477209.1 69025.25 477566.1 66696 L 480434.35 67233.25 L 480430.85 67235 Z M 502041.6 73759 Q 501287.35 95263 499567.1 97377 Q 498564.35 98631.75 496737.35 98812 Q 495267.35 98988.75 491431.35 98773.5 Q 491289.6 97303.5 490535.35 96157.25 Q 492866.35 96372.5 495841.35 96372.5 Q 496879.1 96372.5 497307.85 95835.25 Q 498849.6 94185 499493.6 74866.75 L 490391.85 74866.75 Q 488741.6 78844.5 487021.35 81138.75 Q 486554.1 80710 484833.85 79633.75 Q 488346.1 75008.5 490318.35 66622.5 L 492864.6 67231.5 Q 492183.85 70026.25 491322.85 72392.25 L 502039.85 72392.25 L 502039.85 73755.5 L 502041.6 73759 Z M 494119.35 89922 Q 492472.6 86590 488673.35 81642.75 L 490752.35 80424.75 Q 494693.35 85442 496378.6 88523.75 L 494119.35 89922 Z M 12226 139362.4 Q 11939 138608.15 10218.75 134917.4 L 10218.75 152585.4 L 7852.75 152585.4 L 7852.75 137533.65 Q 6347.75 143016.4 4627.5 145884.65 Q 4160.25 144773.4 3264.25 143662.15 Q 6311 138788.4 7744.25 129898.4 L 4053.5 129898.4 L 4053.5 127462.4 L 7852.75 127462.4 L 7852.75 119865.65 L 10218.75 119865.65 L 10218.75 127462.4 L 13265.5 127462.4 L 13265.5 129898.4 L 10218.75 129898.4 L 10218.75 131226.65 Q 12765 135097.65 13696 137211.65 L 12226 139362.4 Z M 16384 124165.4 L 16384 128286.65 L 20757.25 128286.65 L 20757.25 124165.4 L 16384 124165.4 Z M 20757.25 134702.15 L 20757.25 130292.15 L 16384 130292.15 L 16384 134702.15 L 20757.25 134702.15 Z M 22012 146922.4 Q 21760 145956.4 21257.75 144666.65 Q 14844 148679.4 14163.25 149503.65 Q 13589.25 148392.4 12800 147641.65 Q 14233.25 146493.65 14233.25 144451.4 L 14233.25 121979.65 L 22764.5 121979.65 L 22764.5 136924.65 L 16385.75 136924.65 L 16385.75 145203.9 L 20507 142837.9 Q 19828 141191.15 19038.75 139579.4 L 20830.75 138825.15 Q 23195 143198.4 23949.25 145958.15 L 22015.5 146924.15 L 22012 146922.4 Z M 33336.25 150042.65 Q 33838.5 150042.65 34125.5 149862.4 Q 34377.5 149610.4 34484.25 149001.4 Q 34626 147568.15 34591 145060.4 Q 35271.75 145669.4 36167.75 145919.65 Q 36096 149540.4 35880.75 150399.65 Q 35628.75 151367.4 35019.75 151796.15 Q 34410.75 152189.9 33408 152189.9 L 31868 152189.9 Q 30648.25 152189.9 30076 151652.65 Q 29465.25 151078.65 29465.25 149144.9 L 29465.25 141474.65 Q 27244.5 147853.4 22622.75 152727.15 Q 21655 151831.15 20687.25 151398.9 Q 26530.5 145485.65 28609.5 136525.65 L 26924.25 136525.65 Q 24952 136525.65 24343 136992.9 Q 24236.25 136525.65 23482 134913.9 Q 24091 134698.65 24343 133944.4 Q 24771.75 132868.15 25632.75 126345.9 L 27781.75 126345.9 L 27172.75 130036.65 Q 26744 132831.4 26457 134264.65 L 29038.25 134264.65 Q 29827.5 129964.9 29827.5 124195.15 L 24344.75 124195.15 L 24344.75 121865.9 L 35455.5 121865.9 L 35455.5 124195.15 L 31978.25 124195.15 Q 31978.25 129893.15 31259 134266.4 L 35991 134266.4 L 35991 136525.65 L 30865.25 136525.65 L 30436.5 138389.4 L 31547.75 138389.4 L 31547.75 149248.15 Q 31547.75 149676.9 31728 149822.15 Q 32015 150037.4 32373.75 150037.4 L 33339.75 150037.4 L 33336.25 150042.65 Z M 61612.75 140148.15 Q 61397.5 139432.4 60646.75 138249.4 Q 50216.75 139252.15 49355.75 139684.4 Q 48927 138142.65 48568.25 137353.4 Q 49394.25 137246.65 51543.25 135599.9 Q 53193.5 134201.65 55487.75 131870.65 Q 50936 132229.4 50040 132586.4 Q 49753 131261.65 49285.75 130330.65 Q 50005 130223.9 50864.25 129182.65 Q 52119 127929.65 53624 125528.65 L 40577.75 125528.65 L 40577.75 123090.9 L 55165.75 123090.9 Q 54485 121766.15 53517.25 120296.15 L 56098.5 119615.4 Q 57388.25 121300.65 58212.5 123092.65 L 71510.75 123092.65 L 71510.75 125530.4 L 56420.5 125530.4 Q 54663.5 128073.15 53016.75 129900.15 L 57568.5 129614.9 Q 59143.5 127822.9 59969.5 126639.9 L 62155.25 127892.9 Q 57530 133305.65 53121.75 136817.9 L 59393.75 136315.65 Q 58282.5 134773.9 57636.75 134023.15 L 59609 133198.9 Q 62619 136602.65 63732 139218.9 L 61616.25 140149.9 L 61612.75 140148.15 Z M 69106.25 140293.4 Q 66633.5 137927.4 62081.75 135274.4 L 63980.5 133841.15 Q 68747.5 136529.15 71076.75 138714.9 L 69108 140291.65 L 69106.25 140293.4 Z M 69715.25 128251.65 Q 67169 130832.9 64374.25 132731.65 L 62440.5 131476.9 Q 65485.5 129327.9 67492.75 126890.15 L 69717 128253.4 L 69715.25 128251.65 Z M 42870.25 126995.15 Q 46526 129219.4 48318 131046.4 L 46454.25 132658.15 Q 44590.5 130615.9 41078.25 128465.15 L 42870.25 126995.15 Z M 49355.75 135741.65 Q 44373.5 138429.65 41363.5 139934.65 L 40038.75 137785.65 Q 42474.75 136817.9 48818.5 133771.15 L 49355.75 135743.4 L 49355.75 135741.65 Z M 71794.25 145060.4 L 57206.25 145060.4 L 57206.25 152622.15 L 54411.5 152622.15 L 54411.5 145060.4 L 39860.25 145060.4 L 39860.25 142587.65 L 54411.5 142587.65 L 54411.5 139647.65 L 57206.25 139647.65 L 57206.25 142587.65 L 71794.25 142587.65 L 71794.25 145060.4 Z M 83046.75 125383.4 Q 82614.5 123591.4 81216.25 120509.65 L 83510.5 119828.9 Q 84873.75 122588.65 85447.75 124595.9 L 83046.75 125385.15 L 83046.75 125383.4 Z M 89640.75 132910.15 Q 89640.75 133769.4 89604 134128.15 Q 89282 149540.4 88205.75 151045.4 Q 87455 152048.15 86091.75 152189.9 Q 84658.5 152370.15 82257.5 152189.9 Q 82112.25 150756.65 81538.25 149718.9 Q 83367 149895.65 84907 149895.65 Q 85626.25 149895.65 85948.25 149393.4 Q 86737.5 148355.65 87024.5 135344.4 L 82185.75 135344.4 L 82185.75 135596.4 Q 82185.75 146777.15 76738 152581.9 Q 76022.25 151685.9 74767.5 150861.65 Q 79641.25 145665.9 79641.25 135557.9 L 79641.25 128139.65 L 75413.25 128139.65 L 75413.25 125666.9 L 91219.25 125666.9 L 91219.25 128139.65 L 82187.5 128139.65 L 82187.5 132906.65 L 89642.5 132906.65 L 89640.75 132910.15 Z M 96093 129002.4 L 95947.75 129361.15 Q 97165.75 136100.4 99351.5 140650.4 Q 101754.25 136063.65 102792 129002.4 L 96091.25 129002.4 L 96093 129002.4 Z M 105446.75 129002.4 Q 104083.5 137712.15 100858.25 143338.4 Q 103938.25 148177.15 108383.25 150256.15 Q 107272 151223.9 106517.75 152548.65 Q 102144.5 150254.4 99241.25 145739.4 Q 96016 149967.4 90746.75 152690.4 Q 90318 151617.65 89206.75 150362.9 Q 94652.75 147855.15 97808 143268.4 Q 95764 139252.15 94330.75 133303.9 Q 93328 135489.65 91751.25 137745.4 Q 90713.5 136527.4 89672.25 135738.15 Q 93723.5 130468.9 95657.25 119862.15 L 98345.25 120290.9 Q 97556 124090.15 96877 126527.9 L 108057.75 126527.9 L 108057.75 128998.9 L 105441.5 128998.9 L 105446.75 129002.4 Z M 116484 138895.15 L 123582 138895.15 L 123582 135885.15 L 116484 135885.15 L 116484 138895.15 Z M 116484 126029.15 L 116484 128932.4 L 123582 128932.4 L 123582 126029.15 L 116484 126029.15 Z M 123582 130939.65 L 116484 130939.65 L 116484 133877.9 L 123582 133877.9 L 123582 130939.65 Z M 126054.75 149610.4 Q 126054.75 151654.4 124765 152191.65 Q 123617 152658.9 119639.25 152658.9 Q 119352.25 151369.15 118815 150331.4 Q 121431.25 150438.15 122866.25 150331.4 Q 123582 150294.65 123582 149613.9 L 123582 141264.65 L 123510.25 141264.65 Q 119532.5 147177.9 112579.75 150977.15 Q 111648.75 149687.4 110824.5 149078.4 Q 116809.5 146210.15 120643.75 141266.4 L 111503.5 141266.4 L 111503.5 138900.4 L 114084.75 138900.4 L 114084.75 123883.65 L 117814 123883.65 Q 118603.25 121876.4 119105.5 119869.15 L 121756.75 120262.9 Q 120825.75 122663.9 120251.75 123881.9 L 126060 123881.9 L 126060 149613.9 L 126054.75 149610.4 Z M 143796.25 130652.65 L 139890.25 130652.65 L 139890.25 149253.4 Q 139890.25 151512.65 138420.25 152084.9 Q 137092 152658.9 132612 152587.15 Q 132435.25 151369.15 131716 150079.4 Q 132829 150116.15 136483 150116.15 Q 137344 150079.4 137344 149255.15 L 137344 130654.4 L 127416.25 130654.4 L 127416.25 128108.15 L 137344 128108.15 L 137344 120009.15 L 139890.25 120009.15 L 139890.25 128108.15 L 143796.25 128108.15 L 143796.25 130654.4 L 143796.25 130652.65 Z M 132829 143161.65 Q 131609.25 139003.65 128636 134810.65 L 130750 133877.9 Q 133831.75 138142.65 135084.75 142158.9 L 132829 143161.65 Z M 146519.25 135813.4 Q 147882.5 132479.65 148384.75 126639.9 L 150392 126926.9 Q 150070 132444.65 148600 136530.9 L 146521 135815.15 L 146519.25 135813.4 Z M 151680 119865.65 L 154333 119865.65 L 154333 152585.4 L 151680 152585.4 L 151680 119865.65 Z M 156447 125598.65 Q 158310.75 128967.4 159061.5 131583.65 L 157054.25 132551.4 Q 156410.25 130078.65 154581.5 126459.65 L 156445.25 125598.65 L 156447 125598.65 Z M 179275.75 148824.65 L 179275.75 151367.4 L 157414.75 151367.4 L 157414.75 148824.65 L 167664.5 148824.65 L 167664.5 139864.65 L 160064.25 139864.65 L 160064.25 137391.9 L 167664.5 137391.9 L 167664.5 129971.9 L 162430.25 129971.9 Q 161319 133305.65 159920.75 135526.4 Q 159166.5 135024.15 157554.75 134308.4 Q 160458 129935.15 161893 121512.4 L 164474.25 121944.65 Q 163900.25 124917.9 163184.5 127429.15 L 167664.5 127429.15 L 167664.5 120009.15 L 170315.75 120009.15 L 170315.75 127429.15 L 178416.5 127429.15 L 178416.5 129971.9 L 170315.75 129971.9 L 170315.75 137391.9 L 177629 137391.9 L 177629 139864.65 L 170315.75 139864.65 L 170315.75 148824.65 L 179275.75 148824.65 Z M 191748 139577.65 L 191748 152623.9 L 189277 152623.9 L 189277 140366.9 L 183362 142193.9 L 182646.25 139647.65 Q 187268 138394.65 189277 137748.9 L 189277 129756.65 L 186015 129756.65 Q 185299.25 133090.4 184438.25 135059.15 Q 183113.5 134163.15 182397.75 133876.15 Q 184044.5 130150.4 184868.75 121944.65 L 187199.75 122338.4 Q 186984.5 124200.4 186517.25 127175.4 L 189277 127175.4 L 189277 119900.65 L 191748 119900.65 L 191748 127175.4 L 195442.25 127175.4 L 195442.25 129756.65 L 191748 129756.65 L 191748 137066.4 L 195906 135778.4 L 196264.75 138142.65 L 191748 139577.65 Z M 215189.25 125885.65 Q 215189.25 126888.4 215154.25 127210.4 Q 214113 148322.4 212140.75 150793.4 Q 211244.75 152013.15 209668 152154.9 Q 208380 152335.15 205581.75 152154.9 Q 205511.75 150578.15 204831 149540.4 Q 206838.25 149720.65 208595.25 149720.65 Q 209419.5 149720.65 209921.75 149109.9 Q 211607 147247.9 212574.75 128360.15 L 210852.75 128360.15 Q 207627.5 145277.4 199169.75 152016.65 Q 198380.5 151120.65 196947.25 150401.4 Q 205226.5 144453.15 208558.5 128360.15 L 205620.25 128360.15 Q 202717 139470.9 196802 144594.9 Q 196012.75 143733.9 194688 143054.9 Q 200386 138609.9 203326 128360.15 L 200244.25 128360.15 Q 198345.5 132588.15 196159.75 135169.4 Q 195620.75 134632.15 194115.75 133629.4 Q 198380.5 128969.15 200387.75 119867.4 L 202825.5 120369.65 Q 202144.75 123307.9 201213.75 125889.15 L 212681.5 125889.15 L 212681.5 125854.15 L 215189.25 125889.15 L 215189.25 125885.65 Z M 239236 140580.4 Q 239236 144199.4 237193.75 146672.15 Q 234183.75 150327.9 226548.5 152548.65 Q 225437.25 151043.65 224756.5 150504.65 Q 232066.25 148605.9 234754.25 145560.9 Q 236511.25 143553.65 236511.25 140506.9 L 236511.25 137351.65 L 239234.25 137351.65 L 239234.25 140578.65 L 239236 140580.4 Z M 240203.75 145669.4 Q 246118.75 147928.65 250740.5 150579.9 L 248876.75 152371.9 Q 244396.75 149577.15 238340 147282.9 L 240203.75 145671.15 L 240203.75 145669.4 Z M 236156 127534.15 Q 236297.75 126386.15 236439.5 123950.15 Q 230132.5 124522.4 224828.25 124739.4 L 224828.25 127534.15 L 236154.25 127534.15 L 236156 127534.15 Z M 250994.25 127534.15 L 250994.25 129935.15 L 238557 129935.15 Q 238340 131798.9 238054.75 133410.65 L 248267.75 133410.65 L 248267.75 145809.4 L 245544.75 145809.4 L 245544.75 135883.4 L 230167.5 135883.4 L 230167.5 145667.65 L 227551.25 145667.65 L 227551.25 133410.65 L 235473.5 133410.65 L 235688.75 131760.4 Q 235830.5 130577.4 235937.25 129933.4 L 224828.25 129933.4 L 224828.25 132476.15 Q 224828.25 145774.4 220812 152188.15 Q 219739.25 151257.15 218519.5 150789.9 Q 222210.25 144985.15 222210.25 132476.15 L 222210.25 122513.4 Q 238984 121869.4 246761 120077.4 L 248875 122191.4 Q 244827.25 123122.4 239234.25 123661.4 L 238842.25 127532.4 L 250992.5 127532.4 L 250994.25 127534.15 Z M 273894.75 124954.65 Q 270632.75 127570.9 267299 129112.65 Q 266726.75 128358.4 265578.75 127390.65 Q 272137.75 124702.65 275363 119900.65 L 278051 120689.9 Q 277226.75 121766.15 276295.75 122768.9 L 284001 122768.9 L 284468.25 122662.15 L 286188.5 123593.15 Q 281673.5 133198.9 267157.25 136459.15 Q 266583.25 135134.4 265832.5 134345.15 Q 270634.5 133377.4 274360.25 131585.4 Q 273142.25 129830.15 271028.25 128073.15 L 273000.5 126926.9 Q 275042.75 128538.65 276477.75 130402.4 Q 280418.75 128071.4 282497.75 124954.65 L 273896.5 124954.65 L 273894.75 124954.65 Z M 261244 119935.65 L 263821.75 119935.65 L 263821.75 152585.4 L 261244 152585.4 L 261244 139934.65 Q 258197.25 142909.65 255903 144916.9 L 254433 142696.15 Q 256979.25 140688.9 261244 136782.9 L 261244 130617.65 L 259380.25 132157.65 Q 257982 129397.9 254613.25 126172.65 L 256477 124739.4 Q 259844 127929.65 261244 130365.65 L 261244 119935.65 Z M 270204 140795.65 Q 273536 144127.65 275006 147067.65 L 272711.75 148392.4 Q 271348.5 145417.4 268086.5 141978.65 L 270202.25 140795.65 L 270204 140795.65 Z M 286869.25 139754.4 L 282531 139754.4 L 282531 149433.65 Q 282531 151582.65 281062.75 152156.65 Q 279843 152585.4 275256.25 152585.4 Q 275076 151512.65 274397 150042.65 Q 276582.75 150114.4 279164 150114.4 Q 279914.75 150077.65 279914.75 149396.9 L 279914.75 139756.15 L 265507 139756.15 L 265507 137285.15 L 279914.75 137285.15 L 279914.75 132875.15 L 282531 132875.15 L 282531 137285.15 L 286869.25 137285.15 L 286869.25 139756.15 L 286869.25 139754.4 Z M 292100 137785.65 L 321526.25 137785.65 L 321526.25 140366.9 L 305900.5 140366.9 Q 302136.25 145349.15 298589 148500.9 L 314858.75 147282.9 Q 312925 145023.65 310700.75 142981.4 L 312960 141763.4 Q 318551.25 146815.65 321097.5 151118.9 L 318731.5 152587.15 Q 317870.5 151118.9 316759.25 149648.9 Q 295757.5 151369.15 294504.5 151836.4 Q 293858.75 149722.4 293608.5 149076.65 Q 294504.5 148896.4 296259.75 147211.15 Q 298806 145097.15 302283.25 140366.9 L 292103.5 140366.9 L 292103.5 137785.65 L 292100 137785.65 Z M 309376 121010.15 Q 308908.75 121619.15 308336.5 122445.15 Q 314463.25 128717.15 323173 131690.4 Q 322131.75 132586.4 321307.5 134056.4 Q 313171.75 130759.4 306793 124237.15 Q 303424.25 127927.9 298729 130937.9 L 315285.75 130937.9 L 315285.75 133410.65 L 298261.75 133410.65 L 298261.75 131224.9 Q 295358.5 133051.9 292348.5 134415.15 Q 291524.25 133090.4 290413 132157.65 Q 301950.75 127210.4 306824.5 119900.65 L 309370.75 121011.9 L 309376 121010.15 Z M 357831.75 125418.4 L 327152.5 125418.4 L 327152.5 123234.4 L 341523.5 123234.4 Q 340305.5 121048.65 339873.25 120437.9 L 342491.25 119722.15 Q 343674.25 121333.9 344640.25 123236.15 L 357830 123236.15 L 357830 125420.15 L 357831.75 125418.4 Z M 334679.25 137460.15 L 350413.5 137460.15 L 350413.5 134737.15 L 334679.25 134737.15 L 334679.25 137460.15 Z M 334679.25 130150.4 L 334679.25 132766.65 L 350413.5 132766.65 L 350413.5 130150.4 L 334679.25 130150.4 Z M 356899 141618.15 Q 353708.75 143984.15 350196.5 145811.15 Q 353852.25 148751.15 359083 149827.4 Q 358045.25 150793.4 357399.5 152156.65 Q 346719.25 149396.9 342633 139577.65 L 342382.75 139577.65 Q 340338.75 141726.65 337292 143698.9 L 337292 149039.9 L 345714.75 147211.15 Q 345643 148609.4 345823.25 149435.4 Q 335538.5 151943.15 334570.75 152552.15 Q 334248.75 151404.15 333533 150401.4 Q 334716 149722.4 334716 148215.65 L 334716 145242.4 Q 331273.75 147104.4 327689.75 148215.65 Q 326974 146997.65 326006.25 146138.4 Q 333641.5 144201.15 339052.5 139579.4 L 332136.5 139579.4 L 332136.5 134884.15 L 327010.75 134884.15 L 327010.75 132588.15 L 332136.5 132588.15 L 332136.5 128073.15 L 353066.5 128073.15 L 353066.5 132588.15 L 358262.25 132588.15 L 358262.25 134884.15 L 353066.5 134884.15 L 353066.5 139579.4 L 345289.5 139579.4 Q 346579.25 142302.4 348693.25 144416.4 Q 352170.5 142337.4 354786.75 140116.65 L 356900.75 141621.65 L 356899 141618.15 Z M 372920.25 125885.65 L 363101 125885.65 L 363101 123519.65 L 377759 123519.65 Q 376898 121620.9 375932 120187.65 L 378509.75 119541.9 Q 379908 121585.9 380769 123519.65 L 393671.75 123519.65 L 393671.75 125885.65 L 383744 125885.65 L 383744 136674.4 L 381091 136674.4 L 381091 125885.65 L 375573.25 125885.65 L 375573.25 136709.4 L 372920.25 136709.4 L 372920.25 125885.65 Z M 387147.75 127604.15 Q 391053.75 131046.4 393313 134308.4 L 391234 135668.15 Q 388978.25 132264.4 385142.25 128752.15 L 387149.5 127604.15 L 387147.75 127604.15 Z M 370913 128036.4 Q 369086 132444.65 365789 135634.9 Q 364928 134845.65 363710 134201.65 Q 366900.25 131441.9 368512 127390.65 L 370913 128036.4 Z M 371058.25 140078.15 Q 373746.25 143516.9 378368 145882.9 Q 383170 143553.65 385858 140076.4 L 371058.25 140076.4 L 371058.25 140078.15 Z M 389874.25 138788.4 Q 387006 143732.15 381091 147139.4 Q 386684 149468.65 394567.75 150364.65 Q 393741.75 151188.9 393062.75 152693.9 Q 384496.5 151582.65 378294.5 148537.65 Q 372309.5 151295.65 363743.25 152693.9 Q 363241 151369.15 362416.75 150331.4 Q 370013.5 149328.65 375641.5 147104.4 Q 370981.25 144201.15 368186.5 140079.9 L 365283.25 140079.9 L 365283.25 137713.9 L 387683.25 137713.9 L 388147 137572.15 L 389869 138790.15 L 389874.25 138788.4 Z M 407864.25 127210.4 Q 406933.25 124452.4 404210.25 120868.4 L 406646.25 119827.15 Q 409514.5 123411.15 410445.5 126064.15 L 407864.25 127210.4 Z M 419225.25 137498.65 L 419225.25 129791.65 L 409334.25 129791.65 L 409334.25 137498.65 L 419225.25 137498.65 Z M 430155.75 140078.15 L 421985 140078.15 L 421985 152622.15 L 419225.25 152622.15 L 419225.25 140078.15 L 409154 140078.15 Q 408223 148786.15 400300.75 152872.4 Q 399656.75 151834.65 398402 150723.4 Q 405428.25 147174.4 406396 140078.15 L 398332 140078.15 L 398332 137496.9 L 406611.25 137496.9 L 406611.25 129789.9 L 399658.5 129789.9 L 399658.5 127247.15 L 418152.5 127247.15 Q 420159.75 123626.4 421449.5 119792.15 L 424459.5 120688.15 Q 422058.5 125490.15 421017.25 127247.15 L 429046.25 127247.15 L 429046.25 129789.9 L 421985 129789.9 L 421985 137496.9 L 430155.75 137496.9 L 430155.75 140078.15 Z M 452701 124130.4 Q 454386.25 126995.15 457037.5 129219.4 Q 460299.5 126853.4 462126.5 124130.4 L 452702.75 124130.4 L 452701 124130.4 Z M 442342.75 135311.15 Q 445674.75 138427.9 447718.75 140865.65 L 446033.5 142657.65 Q 444778.75 140900.65 442342.75 138140.9 L 442342.75 152657.15 L 439940 152657.15 L 439940 138714.9 Q 437397.25 144449.65 434744.25 147387.9 Q 434315.5 146169.9 433419.5 144771.65 Q 437075.25 141187.65 439476.25 135022.4 L 434063.5 135022.4 L 434063.5 132728.15 L 439941.75 132728.15 L 439941.75 123661.4 Q 436825 124018.4 434389 124163.65 Q 434317.25 123589.65 433780 122156.4 Q 442488 121367.15 446359 120219.15 L 447792.25 122263.15 Q 445930.25 122837.15 442346.25 123339.4 L 442346.25 132728.15 L 447003 132728.15 L 447003 134126.4 Q 451232.75 132908.4 455103.75 130470.65 Q 452163.75 127675.9 450371.75 124128.65 L 448795 124128.65 L 448795 121725.9 L 463705 121725.9 L 464133.75 121619.15 L 465784 122515.15 Q 463598.25 126995.15 458976.5 130650.9 Q 462560.5 133051.9 466968.75 134093.15 Q 466179.5 134917.4 465498.75 136315.65 Q 460731.75 134952.4 457006 132049.15 Q 452993.25 134737.15 448333 136278.9 Q 447974.25 135311.15 447006.5 134269.9 L 447006.5 135024.15 L 442349.75 135024.15 L 442349.75 135311.15 L 442342.75 135311.15 Z M 436249.25 125383.4 Q 437971.25 127964.65 438867.25 130437.4 L 436895 131226.65 Q 436070.75 128645.4 434455.5 126099.15 L 436247.5 125383.4 L 436249.25 125383.4 Z M 443202 130402.4 Q 444707 128036.4 445855 125026.4 L 447897.25 125742.15 Q 446177 129289.4 445065.75 131046.4 L 443202 130402.4 Z M 458253.75 144451.4 L 466067.5 144451.4 L 466067.5 146852.4 L 458253.75 146852.4 L 458253.75 152657.15 L 455602.5 152657.15 L 455602.5 146852.4 L 447753.75 146852.4 L 447753.75 144451.4 L 455602.5 144451.4 L 455602.5 140795.65 L 449150.25 140795.65 L 449150.25 138394.65 L 455602.5 138394.65 L 455602.5 135239.4 L 458253.75 135239.4 L 458253.75 138394.65 L 464562.5 138394.65 L 464562.5 140795.65 L 458253.75 140795.65 L 458253.75 144451.4 Z M 477286.75 125383.4 Q 476854.5 123591.4 475456.25 120509.65 L 477750.5 119828.9 Q 479113.75 122588.65 479687.75 124595.9 L 477286.75 125385.15 L 477286.75 125383.4 Z M 483880.75 132910.15 Q 483880.75 133769.4 483844 134128.15 Q 483522 149540.4 482445.75 151045.4 Q 481695 152048.15 480331.75 152189.9 Q 478898.5 152370.15 476497.5 152189.9 Q 476352.25 150756.65 475778.25 149718.9 Q 477607 149895.65 479147 149895.65 Q 479866.25 149895.65 480188.25 149393.4 Q 480977.5 148355.65 481264.5 135344.4 L 476425.75 135344.4 L 476425.75 135596.4 Q 476425.75 146777.15 470978 152581.9 Q 470262.25 151685.9 469007.5 150861.65 Q 473881.25 145665.9 473881.25 135557.9 L 473881.25 128139.65 L 469653.25 128139.65 L 469653.25 125666.9 L 485459.25 125666.9 L 485459.25 128139.65 L 476427.5 128139.65 L 476427.5 132906.65 L 483882.5 132906.65 L 483880.75 132910.15 Z M 490333 129002.4 L 490187.75 129361.15 Q 491405.75 136100.4 493591.5 140650.4 Q 495994.25 136063.65 497032 129002.4 L 490331.25 129002.4 L 490333 129002.4 Z M 499686.75 129002.4 Q 498323.5 137712.15 495098.25 143338.4 Q 498178.25 148177.15 502623.25 150256.15 Q 501512 151223.9 500757.75 152548.65 Q 496384.5 150254.4 493481.25 145739.4 Q 490256 149967.4 484986.75 152690.4 Q 484558 151617.65 483446.75 150362.9 Q 488892.75 147855.15 492048 143268.4 Q 490004 139252.15 488570.75 133303.9 Q 487568 135489.65 485991.25 137745.4 Q 484953.5 136527.4 483912.25 135738.15 Q 487963.5 130468.9 489897.25 119862.15 L 492585.25 120290.9 Q 491796 124090.15 491117 126527.9 L 502297.75 126527.9 L 502297.75 128998.9 L 499681.5 128998.9 L 499686.75 129002.4 Z M 34017 190771.55 L 34017 205644.8 L 31148.75 205644.8 L 31148.75 203600.8 L 5919 203600.8 L 5919 190771.55 L 8787.25 190771.55 L 8787.25 200984.55 L 18463 200984.55 L 18463 188512.3 L 7495.75 188512.3 L 7495.75 176255.3 L 10253.75 176255.3 L 10253.75 185896.05 L 18463 185896.05 L 18463 172993.3 L 21331.25 172993.3 L 21331.25 185896.05 L 29752.25 185896.05 L 29752.25 176216.8 L 32620.5 176216.8 L 32620.5 188510.55 L 21331.25 188510.55 L 21331.25 200982.8 L 31150.5 200982.8 L 31150.5 190769.8 L 34018.75 190769.8 L 34017 190771.55 Z M 71220.25 187044.05 L 40469.25 187044.05 L 40469.25 184965.05 L 54411.5 184965.05 L 54411.5 182313.8 L 44018.25 182313.8 L 44018.25 180341.55 L 54411.5 180341.55 L 54411.5 177940.55 L 41974.25 177940.55 L 41974.25 175933.3 L 54411.5 175933.3 L 54411.5 172993.3 L 57099.5 172993.3 L 57099.5 175933.3 L 70110.75 175933.3 L 70110.75 177940.55 L 57099.5 177940.55 L 57099.5 180341.55 L 67886.5 180341.55 L 67886.5 182313.8 L 57099.5 182313.8 L 57099.5 184965.05 L 71220.25 184965.05 L 71220.25 187044.05 Z M 63550 199407.8 Q 63800.25 197328.8 63907 196182.55 L 55486 196182.55 Q 56739 197545.8 57241.25 198798.8 L 56238.5 199407.8 L 63551.75 199407.8 L 63550 199407.8 Z M 47422 196182.55 L 46989.75 199407.8 L 55199 199407.8 Q 54444.75 197867.8 53226.75 196613.05 L 53942.5 196184.3 L 47420.25 196184.3 L 47422 196182.55 Z M 47996 190950.05 L 47672.25 194105.3 L 55379.25 194105.3 Q 54698.5 192707.05 53408.75 191382.3 L 54198 190950.05 L 47997.75 190950.05 L 47996 190950.05 Z M 64087.25 194103.55 Q 64194 192848.8 64300.75 190950.05 L 55664.5 190950.05 Q 56882.5 192278.3 57456.5 193568.05 L 56595.5 194105.3 L 64085.5 194105.3 L 64087.25 194103.55 Z M 66525 196182.55 Q 66344.75 198368.3 66164.5 199406.05 L 69641.75 199406.05 L 69641.75 201485.05 L 65842.5 201485.05 Q 65375.25 203779.3 64694.5 204533.55 Q 63798.5 205501.3 62186.75 205571.3 Q 60610 205751.55 57458.25 205501.3 Q 57386.5 204568.55 56812.5 203530.8 Q 58676.25 203711.05 61077.25 203711.05 Q 62008.25 203746.05 62402 203278.8 Q 62869.25 202815.05 63156.25 201486.8 L 44018.25 201486.8 Q 44340.25 199910.05 44804 196184.3 L 39499.75 196184.3 L 39499.75 194105.3 L 45056 194105.3 Q 45197.75 192994.05 45556.5 188942.8 L 67025.5 188942.8 Q 66988.75 189768.8 66953.75 190090.8 L 66666.75 194103.55 L 72114.5 194103.55 L 72114.5 196182.55 L 66523.25 196182.55 L 66525 196182.55 Z M 83190.25 179267.05 Q 80609 184284.3 77240.25 187761.55 Q 76274.25 186865.55 74911 186149.8 Q 80252 181276.05 83010 172890.05 L 85628 173570.8 Q 85054 175182.55 84264.75 176974.55 L 106845 176974.55 L 106845 179268.8 L 83190.25 179268.8 L 83190.25 179267.05 Z M 82903.25 184140.8 L 82903.25 181881.55 L 104192 181881.55 L 104192 184140.8 L 82903.25 184140.8 Z M 101288.75 186935.55 Q 101791 203063.55 105303.25 203063.55 Q 106164.25 203063.55 106236 198224.8 Q 107238.75 199231.05 108098 199768.3 Q 107917.75 203030.3 107345.5 204320.05 Q 106664.75 205679.8 105159.75 205679.8 Q 101897.75 205679.8 100321 200912.8 Q 99068 197152.05 98674.25 189264.8 L 79319.25 189264.8 L 79319.25 186935.55 L 101290.5 186935.55 L 101288.75 186935.55 Z M 138707.25 187724.8 Q 135158.25 185358.8 127848.5 181704.8 Q 121252.75 185178.55 113869.5 187759.8 Q 112758.25 186254.8 111934 185574.05 Q 118563 183531.8 125087 180376.55 Q 118886.75 177401.55 114763.75 175754.8 L 116414 173997.8 Q 120894 175718.05 127810 178908.3 Q 133222.75 175935.05 136700 172888.3 L 138920.75 174393.3 Q 135517 177333.3 130534.75 180236.55 Q 136913.5 183353.3 140532.5 185612.55 L 138705.5 187726.55 L 138707.25 187724.8 Z M 121753.25 195430.05 Q 118206 200197.05 113187 203887.8 Q 112256 202704.8 111218.25 201919.05 Q 115948.5 198944.05 119245.5 194534.05 L 121753.25 195430.05 Z M 128921.25 192633.55 L 128921.25 202561.3 Q 128921.25 204675.3 127523 205249.3 Q 126411.75 205716.55 122399 205716.55 Q 122183.75 204496.8 121429.5 203098.55 Q 124224.25 203278.8 125514 203172.05 Q 126194.75 203137.05 126194.75 202563.05 L 126194.75 192635.3 L 111752 192635.3 L 111752 190199.3 L 126194.75 190199.3 L 126194.75 186041.3 L 128917.75 186041.3 L 128917.75 190199.3 L 143183.75 190199.3 L 143183.75 192635.3 L 128917.75 192635.3 L 128921.25 192633.55 Z M 135158.25 194640.8 Q 140786.25 198905.55 143364 202167.55 L 141108.25 203600.8 Q 138455.25 200162.05 133079.25 195897.3 L 135158.25 194642.55 L 135158.25 194640.8 Z M 175550 202060.8 Q 176516 202060.8 176839.75 201023.05 Q 177161.75 200016.8 177268.5 196684.8 Q 178416.5 197509.05 179706.25 197761.05 Q 179454.25 201702.05 178700 203065.3 Q 177875.75 204535.3 175690 204535.3 L 170242.25 204535.3 Q 167841.25 204535.3 167017 203639.3 Q 166192.75 202706.55 166192.75 200163.8 L 166192.75 177798.8 L 157374.5 177798.8 Q 156408.5 180919.05 155080.25 183642.05 L 161998 183642.05 L 162500.25 183535.3 L 164147 184179.3 Q 161208.75 199913.55 148880 205219.55 Q 147984 203749.55 146981.25 203103.8 Q 153001.25 200702.8 156550.25 196046.05 Q 154578 193821.8 151603 191349.05 L 153214.75 189487.05 Q 156189.75 191851.3 158053.5 193860.3 Q 159990.75 190598.3 161063.5 186153.3 L 153788.75 186153.3 Q 151568 190166.05 148808.25 192712.3 Q 147732 191529.3 146872.75 190992.05 Q 151926.75 186366.8 154578 177800.55 L 147555.25 177800.55 L 147555.25 175219.3 L 179165.5 175219.3 L 179165.5 177800.55 L 168842.25 177800.55 L 168842.25 188767.8 Q 173754.5 185435.8 176335.75 182747.8 L 178343 184898.55 Q 175152.75 187621.55 168844 191455.8 L 168844 200165.55 Q 168844 201348.55 169167.75 201705.55 Q 169454.75 202064.3 170566 202064.3 L 175548.25 202064.3 L 175550 202060.8 Z M 211640.25 199553.05 Q 209454.5 197367.3 203901.75 192780.55 Q 199778.75 197115.3 193291.5 199661.55 Q 192537.25 198263.3 191713 197367.3 Q 197950 195181.55 201856 191203.8 Q 196982.25 187404.55 192969.5 184609.8 L 194796.5 183068.05 Q 198345.5 185399.05 203506.25 189305.05 Q 206229.25 185792.8 207699.25 181060.8 L 191893.25 181060.8 L 191893.25 178553.05 L 202465 178553.05 Q 201675.75 176258.8 199990.5 173570.8 L 202498.25 172781.55 Q 204542.25 175898.3 205223 177870.55 L 203359.25 178551.3 L 215007.25 178551.3 L 215007.25 181059.05 L 210492.25 181059.05 Q 208663.5 186828.8 205546.75 190841.55 Q 211209.75 195214.8 213682.5 197615.8 L 211638.5 199553.05 L 211640.25 199553.05 Z M 188596.25 181594.55 Q 187054.5 179016.8 183507.25 175935.05 L 185586.25 174536.8 Q 189098.5 177401.55 190818.75 179982.8 L 188598 181594.55 L 188596.25 181594.55 Z M 190314.75 199231.05 Q 190708.5 199407.8 191532.75 199910.05 Q 192535.5 200555.8 193109.5 200877.8 Q 195762.5 202312.8 202356.5 202312.8 Q 209883.25 202312.8 215616.25 201632.05 Q 214865.5 203278.8 214758.75 204607.05 Q 209165.75 204964.05 202249.75 204964.05 Q 195690.75 204964.05 192574 203317.3 Q 189240.25 201525.3 189170.25 201525.3 Q 187807 201525.3 184545 205394.55 L 182646.25 202851.8 Q 185514.5 200092.05 187735.25 199267.8 L 187735.25 188874.55 L 183148.5 188874.55 L 183148.5 186363.3 L 190316.5 186363.3 L 190316.5 199231.05 L 190314.75 199231.05 Z M 240564.25 194999.55 Q 247517 200195.3 250814 204103.05 L 248376.25 205714.8 Q 245116 201663.55 238305 196394.3 L 240564.25 194996.05 L 240564.25 194999.55 Z M 231891.25 196182.55 Q 227698.25 201773.8 221067.5 205825.05 Q 220243.25 204964.05 218953.5 203961.3 Q 225727.75 200090.3 229096.5 195108.05 L 231891.25 196184.3 L 231891.25 196182.55 Z M 225545.75 189229.8 L 244433.5 189229.8 L 244433.5 178190.8 L 225545.75 178190.8 L 225545.75 189229.8 Z M 247230 175648.05 L 247230 191811.05 L 222857.75 191811.05 L 222857.75 175648.05 L 247230 175648.05 Z M 265472 175287.55 Q 264217.25 177438.3 262175 179839.3 Q 264541 184391.05 264541 192168.05 Q 264541 201415.05 262749 203886.05 Q 261959.75 204818.8 260740 205034.05 Q 259200 205356.05 256692.25 205175.8 Q 256692.25 203851.05 255938 202633.05 Q 258375.75 202774.8 259665.5 202668.05 Q 260416.25 202561.3 260810 202024.05 Q 261993 200482.3 261993 192131.3 Q 261993 190913.3 261958 190304.3 Q 259270 194390.55 256188.25 196898.3 Q 255399 195608.55 254396.25 194892.8 Q 258911.25 191846.05 261599.25 186328.3 Q 261170.5 183640.3 260346.25 181776.55 Q 258160.5 183962.3 256009.75 185467.3 Q 255581 184751.55 254291.25 183640.3 Q 256834 181848.3 259128.25 179447.3 Q 257660 177188.05 255474.25 175254.3 L 257336.25 173819.3 Q 259235 175469.55 260776.75 177548.55 Q 262497 175469.55 263428 173712.55 L 265472 175289.3 L 265472 175287.55 Z M 269414.75 189158.05 L 269414.75 194070.3 L 274897.5 194070.3 L 274897.5 189158.05 L 269414.75 189158.05 Z M 282854.75 189158.05 L 277333.5 189158.05 L 277333.5 194070.3 L 282854.75 194070.3 L 282854.75 189158.05 Z M 282854.75 201451.8 L 282854.75 196397.8 L 277333.5 196397.8 L 277333.5 201451.8 L 282854.75 201451.8 Z M 269414.75 201451.8 L 274897.5 201451.8 L 274897.5 196397.8 L 269414.75 196397.8 L 269414.75 201451.8 Z M 266977 186757.05 L 285399.25 186757.05 L 285399.25 205503.05 L 282856.5 205503.05 L 282856.5 203817.8 L 269416.5 203817.8 L 269416.5 205679.8 L 266978.75 205679.8 L 266978.75 186757.05 L 266977 186757.05 Z M 286724 178084.05 L 286724 180521.8 L 281887 180521.8 L 281887 185178.55 L 279305.75 185178.55 L 279305.75 180521.8 L 273033.75 180521.8 L 273033.75 185178.55 L 270452.5 185178.55 L 270452.5 180521.8 L 265398.5 180521.8 L 265398.5 178084.05 L 270452.5 178084.05 L 270452.5 172995.05 L 273033.75 172995.05 L 273033.75 178084.05 L 279305.75 178084.05 L 279305.75 172995.05 L 281887 172995.05 L 281887 178084.05 L 286724 178084.05 Z M 293606.75 204890.55 Q 297869.75 203135.3 298121.75 199623.05 Q 297906.5 199658.05 297512.75 199658.05 Q 296364.75 199658.05 295614 199012.3 Q 294824.75 198333.3 294824.75 197113.55 Q 294824.75 195895.55 295649 195179.8 Q 296403.25 194534.05 297549.5 194534.05 Q 300596.25 194534.05 300596.25 198657.05 Q 300596.25 204607.05 294396 206792.8 L 293606.75 204890.55 Z M 337832.75 189410.05 L 337832.75 196184.3 L 347221.5 196184.3 L 347221.5 189410.05 L 337832.75 189410.05 Z M 337832.75 198476.8 L 337832.75 201058.05 L 335360 201058.05 L 335360 187150.8 L 349731 187150.8 L 349731 198476.8 L 337832.75 198476.8 Z M 351629.75 183425.05 L 333568 183425.05 L 333568 181094.05 L 351629.75 181094.05 L 351629.75 183425.05 Z M 357257.75 202347.8 Q 357257.75 204607.05 355787.75 205251.05 Q 354498 205753.3 349802.75 205753.3 Q 349622.5 204428.55 348833.25 203138.8 Q 352454 203245.55 353778.75 203173.8 Q 354639.75 203138.8 354639.75 202349.55 L 354639.75 177368.3 L 330447.75 177368.3 L 330447.75 205788.3 L 327866.5 205788.3 L 327866.5 174822.05 L 357254.25 174822.05 L 357254.25 202347.8 L 357257.75 202347.8 Z M 366004.25 178371.05 L 366004.25 186184.8 L 372096 186184.8 L 372096 178371.05 L 366004.25 178371.05 Z M 372096 196684.8 L 372096 188585.8 L 366004.25 188585.8 L 366004.25 196684.8 L 372096 196684.8 Z M 374603.75 199120.8 L 366002.5 199120.8 L 366002.5 201954.05 L 363494.75 201954.05 L 363494.75 175970.05 L 374603.75 175970.05 L 374603.75 199120.8 Z M 394783 182742.55 L 390444.75 182742.55 L 390444.75 201738.8 Q 390444.75 204281.55 388652.75 204855.55 Q 387254.5 205392.8 381556.5 205322.8 Q 381234.5 203746.05 380588.75 202669.8 Q 385033.75 202776.55 386790.75 202704.8 Q 387793.5 202669.8 387793.5 201738.8 L 387793.5 182742.55 L 376215.5 182742.55 L 376215.5 180126.3 L 387793.5 180126.3 L 387793.5 173173.55 L 390444.75 173173.55 L 390444.75 180126.3 L 394783 180126.3 L 394783 182742.55 Z M 382883 195501.8 Q 381056 192024.55 377437 186755.3 L 379622.75 185609.05 Q 383885.75 191700.8 385214 194136.8 L 382883 195500.05 L 382883 195501.8 Z M 423061.25 186648.55 L 408116.25 186648.55 L 408116.25 190269.3 L 423061.25 190269.3 L 423061.25 186648.55 Z M 423061.25 196326.05 L 423061.25 192600.3 L 408116.25 192600.3 L 408116.25 196326.05 L 423061.25 196326.05 Z M 410589 180089.55 Q 409299.25 182742.55 408403.25 184247.55 L 425677.5 184247.55 L 425677.5 202347.8 Q 425677.5 204607.05 424172.5 205179.3 Q 422882.75 205646.55 417935.5 205646.55 Q 417793.75 204498.55 417078 203030.3 Q 418654.75 203100.3 422238.75 203100.3 Q 423063 203065.3 423063 202349.55 L 423063 198620.3 L 408118 198620.3 L 408118 205681.55 L 405501.75 205681.55 L 405501.75 188407.3 Q 402813.75 191776.05 399515 194070.3 Q 398871 192994.05 397829.75 192026.3 Q 403886.5 187940.05 407685.75 180091.3 L 398690.75 180091.3 L 398690.75 177583.55 L 408798.75 177583.55 Q 409764.75 175110.8 410373.75 172961.8 L 413026.75 173605.8 Q 412130.75 176439.05 411628.5 177585.3 L 429870.5 177585.3 L 429870.5 180093.05 L 410590.75 180093.05 L 410589 180089.55 Z M 433130.75 199946.8 L 434742.5 197796.05 Q 437645.75 200699.3 441194.75 200699.3 Q 443560.75 200699.3 445137.5 199052.55 Q 446784.25 197295.55 446784.25 194500.8 Q 446784.25 191706.05 445314.25 190094.3 Q 443846 188517.55 441338.25 188517.55 Q 439294.25 188517.55 436965 190057.55 L 435208 188984.8 L 436032.25 176691.05 L 448828.25 176691.05 L 448828.25 179485.8 L 438900.5 179485.8 L 438256.5 187086.05 Q 440118.5 186044.8 442162.5 186044.8 Q 445639.75 186044.8 447753.75 188052.05 Q 450083 190276.3 450083 194397.55 Q 450083 198555.55 447466.75 201063.3 Q 444994 203429.3 441481.75 203429.3 Q 436608 203429.3 433130.75 199952.05 L 433130.75 199946.8 Z M 455920.15 200016.8 Q 453699.4 196432.8 453699.4 189732.05 Q 453699.4 183031.3 455920.15 179519.05 Q 458034.15 176185.3 461905.15 176185.3 Q 465741.15 176185.3 467855.15 179554.05 Q 470075.9 183066.3 470075.9 189732.05 Q 470075.9 196432.8 467855.15 200016.8 Q 465741.15 203424.05 461905.15 203424.05 Q 458070.9 203424.05 455920.15 200016.8  Z M 466887.4 189732.05 Q 466887.4 178838.3 461905.15 178838.3 Q 456887.9 178838.3 456887.9 189732.05 Q 456887.9 200806.05 461905.15 200806.05 Q 466887.4 200806.05 466887.4 189732.05  Z M 474803.55 190593.05 Q 473153.3 188368.8 473153.3 184427.8 Q 473153.3 180521.8 474803.55 178336.05 Q 476378.55 176185.3 479103.3 176185.3 Q 481863.05 176185.3 483438.05 178336.05 Q 485088.3 180521.8 485088.3 184427.8 Q 485088.3 188368.8 483438.05 190593.05 Q 481863.05 192778.8 479103.3 192778.8 Q 476378.55 192778.8 474803.55 190593.05  Z M 481647.8 189158.05 Q 482615.55 187472.8 482615.55 184427.8 Q 482615.55 178190.8 479103.3 178190.8 Q 477526.55 178190.8 476595.55 179732.55 Q 475627.8 181379.3 475627.8 184426.05 Q 475627.8 187471.05 476595.55 189156.3 Q 477526.55 190733.05 479103.3 190733.05 Q 480715.05 190733.05 481646.05 189156.3 L 481647.8 189158.05 Z M 494372.05 176183.55 L 496592.8 176183.55 L 482080.05 203422.3 L 479894.3 203422.3 L 494372.05 176183.55 Z M 493080.55 201236.55 Q 491433.8 199012.3 491433.8 195106.3 Q 491433.8 191200.3 493080.55 189014.55 Q 494692.3 186863.8 497417.05 186863.8 Q 500140.05 186863.8 501751.8 189014.55 Q 503367.05 191200.3 503367.05 195106.3 Q 503367.05 199049.05 501751.8 201234.8 Q 500140.05 203420.55 497417.05 203420.55 Q 494692.3 203420.55 493080.55 201234.8 L 493080.55 201236.55 Z M 499926.55 199840.05 Q 500894.3 198154.8 500894.3 195108.05 Q 500894.3 192063.05 499926.55 190412.8 Q 498995.55 188872.8 497418.8 188872.8 Q 493904.8 188872.8 493904.8 195108.05 Q 493904.8 198154.8 494872.55 199840.05 Q 495805.3 201416.8 497417.05 201416.8 Q 498993.8 201416.8 499924.8 199840.05 L 499926.55 199840.05 Z M 15236 234188.45 L 7711 234188.45 L 7711 241680.2 L 15236 241680.2 L 15236 234188.45 Z M 15236 252647.45 L 15236 244044.45 L 7711 244044.45 L 7711 252647.45 L 15236 252647.45 Z M 13589.25 226518.2 Q 12012.5 231034.95 11725.5 231785.7 L 17675.5 231785.7 L 17675.5 255046.7 L 7712.75 255046.7 L 7712.75 257876.45 L 5275 257876.45 L 5275 231785.7 L 9291.25 231785.7 Q 10367.5 228308.45 10724.5 225979.2 L 13592.75 226516.45 L 13589.25 226518.2 Z M 35200 233042.2 Q 34445.75 254546.2 32725.5 256660.2 Q 31722.75 257914.95 29895.75 258095.2 Q 28425.75 258271.95 24589.75 258056.7 Q 24448 256586.7 23693.75 255440.45 Q 26024.75 255655.7 28999.75 255655.7 Q 30037.5 255655.7 30466.25 255118.45 Q 32008 253468.2 32652 234149.95 L 23550.25 234149.95 Q 21900 238127.7 20179.75 240421.95 Q 19712.5 239993.2 17992.25 238916.95 Q 21504.5 234291.7 23476.75 225905.7 L 26023 226514.7 Q 25342.25 229309.45 24481.25 231675.45 L 35198.25 231675.45 L 35198.25 233038.7 L 35200 233042.2 Z M 27277.75 249205.2 Q 25631 245873.2 21831.75 240925.95 L 23910.75 239707.95 Q 27851.75 244725.2 29537 247806.95 L 27277.75 249205.2 Z M 48066 245551.2 Q 47779 244796.95 46058.75 241106.2 L 46058.75 258774.2 L 43692.75 258774.2 L 43692.75 243722.45 Q 42187.75 249205.2 40467.5 252073.45 Q 40000.25 250962.2 39104.25 249850.95 Q 42151 244977.2 43584.25 236087.2 L 39893.5 236087.2 L 39893.5 233651.2 L 43692.75 233651.2 L 43692.75 226054.45 L 46058.75 226054.45 L 46058.75 233651.2 L 49105.5 233651.2 L 49105.5 236087.2 L 46058.75 236087.2 L 46058.75 237415.45 Q 48605 241286.45 49536 243400.45 L 48066 245551.2 Z M 52224 230354.2 L 52224 234475.45 L 56597.25 234475.45 L 56597.25 230354.2 L 52224 230354.2 Z M 56597.25 240890.95 L 56597.25 236480.95 L 52224 236480.95 L 52224 240890.95 L 56597.25 240890.95 Z M 57852 253111.2 Q 57600 252145.2 57097.75 250855.45 Q 50684 254868.2 50003.25 255692.45 Q 49429.25 254581.2 48640 253830.45 Q 50073.25 252682.45 50073.25 250640.2 L 50073.25 228168.45 L 58604.5 228168.45 L 58604.5 243113.45 L 52225.75 243113.45 L 52225.75 251392.7 L 56347 249026.7 Q 55668 247379.95 54878.75 245768.2 L 56670.75 245013.95 Q 59035 249387.2 59789.25 252146.95 L 57855.5 253112.95 L 57852 253111.2 Z M 69176.25 256231.45 Q 69678.5 256231.45 69965.5 256051.2 Q 70217.5 255799.2 70324.25 255190.2 Q 70466 253756.95 70431 251249.2 Q 71111.75 251858.2 72007.75 252108.45 Q 71936 255729.2 71720.75 256588.45 Q 71468.75 257556.2 70859.75 257984.95 Q 70250.75 258378.7 69248 258378.7 L 67708 258378.7 Q 66488.25 258378.7 65916 257841.45 Q 65305.25 257267.45 65305.25 255333.7 L 65305.25 247663.45 Q 63084.5 254042.2 58462.75 258915.95 Q 57495 258019.95 56527.25 257587.7 Q 62370.5 251674.45 64449.5 242714.45 L 62764.25 242714.45 Q 60792 242714.45 60183 243181.7 Q 60076.25 242714.45 59322 241102.7 Q 59931 240887.45 60183 240133.2 Q 60611.75 239056.95 61472.75 232534.7 L 63621.75 232534.7 L 63012.75 236225.45 Q 62584 239020.2 62297 240453.45 L 64878.25 240453.45 Q 65667.5 236153.7 65667.5 230383.95 L 60184.75 230383.95 L 60184.75 228054.7 L 71295.5 228054.7 L 71295.5 230383.95 L 67818.25 230383.95 Q 67818.25 236081.95 67099 240455.2 L 71831 240455.2 L 71831 242714.45 L 66705.25 242714.45 L 66276.5 244578.2 L 67387.75 244578.2 L 67387.75 255436.95 Q 67387.75 255865.7 67568 256010.95 Q 67855 256226.2 68213.75 256226.2 L 69179.75 256226.2 L 69176.25 256231.45 Z M 97452.75 246336.95 Q 97237.5 245621.2 96486.75 244438.2 Q 86056.75 245440.95 85195.75 245873.2 Q 84767 244331.45 84408.25 243542.2 Q 85234.25 243435.45 87383.25 241788.7 Q 89033.5 240390.45 91327.75 238059.45 Q 86776 238418.2 85880 238775.2 Q 85593 237450.45 85125.75 236519.45 Q 85845 236412.7 86704.25 235371.45 Q 87959 234118.45 89464 231717.45 L 76417.75 231717.45 L 76417.75 229279.7 L 91005.75 229279.7 Q 90325 227954.95 89357.25 226484.95 L 91938.5 225804.2 Q 93228.25 227489.45 94052.5 229281.45 L 107350.75 229281.45 L 107350.75 231719.2 L 92260.5 231719.2 Q 90503.5 234261.95 88856.75 236088.95 L 93408.5 235803.7 Q 94983.5 234011.7 95809.5 232828.7 L 97995.25 234081.7 Q 93370 239494.45 88961.75 243006.7 L 95233.75 242504.45 Q 94122.5 240962.7 93476.75 240211.95 L 95449 239387.7 Q 98459 242791.45 99572 245407.7 L 97456.25 246338.7 L 97452.75 246336.95 Z M 104946.25 246482.2 Q 102473.5 244116.2 97921.75 241463.2 L 99820.5 240029.95 Q 104587.5 242717.95 106916.75 244903.7 L 104948 246480.45 L 104946.25 246482.2 Z M 105555.25 234440.45 Q 103009 237021.7 100214.25 238920.45 L 98280.5 237665.7 Q 101325.5 235516.7 103332.75 233078.95 L 105557 234442.2 L 105555.25 234440.45 Z M 78710.25 233183.95 Q 82366 235408.2 84158 237235.2 L 82294.25 238846.95 Q 80430.5 236804.7 76918.25 234653.95 L 78710.25 233183.95 Z M 85195.75 241930.45 Q 80213.5 244618.45 77203.5 246123.45 L 75878.75 243974.45 Q 78314.75 243006.7 84658.5 239959.95 L 85195.75 241932.2 L 85195.75 241930.45 Z M 107634.25 251249.2 L 93046.25 251249.2 L 93046.25 258810.95 L 90251.5 258810.95 L 90251.5 251249.2 L 75700.25 251249.2 L 75700.25 248776.45 L 90251.5 248776.45 L 90251.5 245836.45 L 93046.25 245836.45 L 93046.25 248776.45 L 107634.25 248776.45 L 107634.25 251249.2 Z M 118886.75 231572.2 Q 118454.5 229780.2 117056.25 226698.45 L 119350.5 226017.7 Q 120713.75 228777.45 121287.75 230784.7 L 118886.75 231573.95 L 118886.75 231572.2 Z M 125480.75 239098.95 Q 125480.75 239958.2 125444 240316.95 Q 125122 255729.2 124045.75 257234.2 Q 123295 258236.95 121931.75 258378.7 Q 120498.5 258558.95 118097.5 258378.7 Q 117952.25 256945.45 117378.25 255907.7 Q 119207 256084.45 120747 256084.45 Q 121466.25 256084.45 121788.25 255582.2 Q 122577.5 254544.45 122864.5 241533.2 L 118025.75 241533.2 L 118025.75 241785.2 Q 118025.75 252965.95 112578 258770.7 Q 111862.25 257874.7 110607.5 257050.45 Q 115481.25 251854.7 115481.25 241746.7 L 115481.25 234328.45 L 111253.25 234328.45 L 111253.25 231855.7 L 127059.25 231855.7 L 127059.25 234328.45 L 118027.5 234328.45 L 118027.5 239095.45 L 125482.5 239095.45 L 125480.75 239098.95 Z M 131933 235191.2 L 131787.75 235549.95 Q 133005.75 242289.2 135191.5 246839.2 Q 137594.25 242252.45 138632 235191.2 L 131931.25 235191.2 L 131933 235191.2 Z M 141286.75 235191.2 Q 139923.5 243900.95 136698.25 249527.2 Q 139778.25 254365.95 144223.25 256444.95 Q 143112 257412.7 142357.75 258737.45 Q 137984.5 256443.2 135081.25 251928.2 Q 131856 256156.2 126586.75 258879.2 Q 126158 257806.45 125046.75 256551.7 Q 130492.75 254043.95 133648 249457.2 Q 131604 245440.95 130170.75 239492.7 Q 129168 241678.45 127591.25 243934.2 Q 126553.5 242716.2 125512.25 241926.95 Q 129563.5 236657.7 131497.25 226050.95 L 134185.25 226479.7 Q 133396 230278.95 132717 232716.7 L 143897.75 232716.7 L 143897.75 235187.7 L 141281.5 235187.7 L 141286.75 235191.2 Z M 152324 245083.95 L 159422 245083.95 L 159422 242073.95 L 152324 242073.95 L 152324 245083.95 Z M 152324 232217.95 L 152324 235121.2 L 159422 235121.2 L 159422 232217.95 L 152324 232217.95 Z M 159422 237128.45 L 152324 237128.45 L 152324 240066.7 L 159422 240066.7 L 159422 237128.45 Z M 161894.75 255799.2 Q 161894.75 257843.2 160605 258380.45 Q 159457 258847.7 155479.25 258847.7 Q 155192.25 257557.95 154655 256520.2 Q 157271.25 256626.95 158706.25 256520.2 Q 159422 256483.45 159422 255802.7 L 159422 247453.45 L 159350.25 247453.45 Q 155372.5 253366.7 148419.75 257165.95 Q 147488.75 255876.2 146664.5 255267.2 Q 152649.5 252398.95 156483.75 247455.2 L 147343.5 247455.2 L 147343.5 245089.2 L 149924.75 245089.2 L 149924.75 230072.45 L 153654 230072.45 Q 154443.25 228065.2 154945.5 226057.95 L 157596.75 226451.7 Q 156665.75 228852.7 156091.75 230070.7 L 161900 230070.7 L 161900 255802.7 L 161894.75 255799.2 Z M 179636.25 236841.45 L 175730.25 236841.45 L 175730.25 255442.2 Q 175730.25 257701.45 174260.25 258273.7 Q 172932 258847.7 168452 258775.95 Q 168275.25 257557.95 167556 256268.2 Q 168669 256304.95 172323 256304.95 Q 173184 256268.2 173184 255443.95 L 173184 236843.2 L 163256.25 236843.2 L 163256.25 234296.95 L 173184 234296.95 L 173184 226197.95 L 175730.25 226197.95 L 175730.25 234296.95 L 179636.25 234296.95 L 179636.25 236843.2 L 179636.25 236841.45 Z M 168669 249350.45 Q 167449.25 245192.45 164476 240999.45 L 166590 240066.7 Q 169671.75 244331.45 170924.75 248347.7 L 168669 249350.45 Z M 182359.25 242002.2 Q 183722.5 238668.45 184224.75 232828.7 L 186232 233115.7 Q 185910 238633.45 184440 242719.7 L 182361 242003.95 L 182359.25 242002.2 Z M 187520 226054.45 L 190173 226054.45 L 190173 258774.2 L 187520 258774.2 L 187520 226054.45 Z M 192287 231787.45 Q 194150.75 235156.2 194901.5 237772.45 L 192894.25 238740.2 Q 192250.25 236267.45 190421.5 232648.45 L 192285.25 231787.45 L 192287 231787.45 Z M 215115.75 255013.45 L 215115.75 257556.2 L 193254.75 257556.2 L 193254.75 255013.45 L 203504.5 255013.45 L 203504.5 246053.45 L 195904.25 246053.45 L 195904.25 243580.7 L 203504.5 243580.7 L 203504.5 236160.7 L 198270.25 236160.7 Q 197159 239494.45 195760.75 241715.2 Q 195006.5 241212.95 193394.75 240497.2 Q 196298 236123.95 197733 227701.2 L 200314.25 228133.45 Q 199740.25 231106.7 199024.5 233617.95 L 203504.5 233617.95 L 203504.5 226197.95 L 206155.75 226197.95 L 206155.75 233617.95 L 214256.5 233617.95 L 214256.5 236160.7 L 206155.75 236160.7 L 206155.75 243580.7 L 213469 243580.7 L 213469 246053.45 L 206155.75 246053.45 L 206155.75 255013.45 L 215115.75 255013.45 Z M 227588 245766.45 L 227588 258812.7 L 225117 258812.7 L 225117 246555.7 L 219202 248382.7 L 218486.25 245836.45 Q 223108 244583.45 225117 243937.7 L 225117 235945.45 L 221855 235945.45 Q 221139.25 239279.2 220278.25 241247.95 Q 218953.5 240351.95 218237.75 240064.95 Q 219884.5 236339.2 220708.75 228133.45 L 223039.75 228527.2 Q 222824.5 230389.2 222357.25 233364.2 L 225117 233364.2 L 225117 226089.45 L 227588 226089.45 L 227588 233364.2 L 231282.25 233364.2 L 231282.25 235945.45 L 227588 235945.45 L 227588 243255.2 L 231746 241967.2 L 232104.75 244331.45 L 227588 245766.45 Z M 251029.25 232074.45 Q 251029.25 233077.2 250994.25 233399.2 Q 249953 254511.2 247980.75 256982.2 Q 247084.75 258201.95 245508 258343.7 Q 244220 258523.95 241421.75 258343.7 Q 241351.75 256766.95 240671 255729.2 Q 242678.25 255909.45 244435.25 255909.45 Q 245259.5 255909.45 245761.75 255298.7 Q 247447 253436.7 248414.75 234548.95 L 246692.75 234548.95 Q 243467.5 251466.2 235009.75 258205.45 Q 234220.5 257309.45 232787.25 256590.2 Q 241066.5 250641.95 244398.5 234548.95 L 241460.25 234548.95 Q 238557 245659.7 232642 250783.7 Q 231852.75 249922.7 230528 249243.7 Q 236226 244798.7 239166 234548.95 L 236084.25 234548.95 Q 234185.5 238776.95 231999.75 241358.2 Q 231460.75 240820.95 229955.75 239818.2 Q 234220.5 235157.95 236227.75 226056.2 L 238665.5 226558.45 Q 237984.75 229496.7 237053.75 232077.95 L 248521.5 232077.95 L 248521.5 232042.95 L 251029.25 232077.95 L 251029.25 232074.45 Z M 275076 246769.2 Q 275076 250388.2 273033.75 252860.95 Q 270023.75 256516.7 262388.5 258737.45 Q 261277.25 257232.45 260596.5 256693.45 Q 267906.25 254794.7 270594.25 251749.7 Q 272351.25 249742.45 272351.25 246695.7 L 272351.25 243540.45 L 275074.25 243540.45 L 275074.25 246767.45 L 275076 246769.2 Z M 276043.75 251858.2 Q 281958.75 254117.45 286580.5 256768.7 L 284716.75 258560.7 Q 280236.75 255765.95 274180 253471.7 L 276043.75 251859.95 L 276043.75 251858.2 Z M 271996 233722.95 Q 272137.75 232574.95 272279.5 230138.95 Q 265972.5 230711.2 260668.25 230928.2 L 260668.25 233722.95 L 271994.25 233722.95 L 271996 233722.95 Z M 286834.25 233722.95 L 286834.25 236123.95 L 274397 236123.95 Q 274180 237987.7 273894.75 239599.45 L 284107.75 239599.45 L 284107.75 251998.2 L 281384.75 251998.2 L 281384.75 242072.2 L 266007.5 242072.2 L 266007.5 251856.45 L 263391.25 251856.45 L 263391.25 239599.45 L 271313.5 239599.45 L 271528.75 237949.2 Q 271670.5 236766.2 271777.25 236122.2 L 260668.25 236122.2 L 260668.25 238664.95 Q 260668.25 251963.2 256652 258376.95 Q 255579.25 257445.95 254359.5 256978.7 Q 258050.25 251173.95 258050.25 238664.95 L 258050.25 228702.2 Q 274824 228058.2 282601 226266.2 L 284715 228380.2 Q 280667.25 229311.2 275074.25 229850.2 L 274682.25 233721.2 L 286832.5 233721.2 L 286834.25 233722.95 Z M 310630.75 231250.2 Q 309769.75 232720.2 308084.5 235191.2 L 308084.5 258704.2 L 305254.75 258704.2 L 305254.75 238775.2 Q 299376.5 245479.45 292278.5 249205.2 Q 291776.25 248345.95 290486.5 246875.95 Q 301345.25 241428.2 307223.5 231250.2 L 291382.5 231250.2 L 291382.5 228597.2 L 321991.75 228597.2 L 321991.75 231250.2 L 310630.75 231250.2 Z M 310774.25 237235.2 Q 319125.25 242646.2 322996.25 246662.45 L 320882.25 248704.7 Q 316579 244082.95 308802 238957.2 L 310774.25 237236.95 L 310774.25 237235.2 Z M 327940 243974.45 L 357366.25 243974.45 L 357366.25 246555.7 L 341740.5 246555.7 Q 337976.25 251537.95 334429 254689.7 L 350698.75 253471.7 Q 348765 251212.45 346540.75 249170.2 L 348800 247952.2 Q 354391.25 253004.45 356937.5 257307.7 L 354571.5 258775.95 Q 353710.5 257307.7 352599.25 255837.7 Q 331597.5 257557.95 330344.5 258025.2 Q 329698.75 255911.2 329448.5 255265.45 Q 330344.5 255085.2 332099.75 253399.95 Q 334646 251285.95 338123.25 246555.7 L 327943.5 246555.7 L 327943.5 243974.45 L 327940 243974.45 Z M 345216 227198.95 Q 344748.75 227807.95 344176.5 228633.95 Q 350303.25 234905.95 359013 237879.2 Q 357971.75 238775.2 357147.5 240245.2 Q 349011.75 236948.2 342633 230425.95 Q 339264.25 234116.7 334569 237126.7 L 351125.75 237126.7 L 351125.75 239599.45 L 334101.75 239599.45 L 334101.75 237413.7 Q 331198.5 239240.7 328188.5 240603.95 Q 327364.25 239279.2 326253 238346.45 Q 337790.75 233399.2 342664.5 226089.45 L 345210.75 227200.7 L 345216 227198.95 Z M 393671.75 231607.2 L 362992.5 231607.2 L 362992.5 229423.2 L 377363.5 229423.2 Q 376145.5 227237.45 375713.25 226626.7 L 378331.25 225910.95 Q 379514.25 227522.7 380480.25 229424.95 L 393670 229424.95 L 393670 231608.95 L 393671.75 231607.2 Z M 370519.25 243648.95 L 386253.5 243648.95 L 386253.5 240925.95 L 370519.25 240925.95 L 370519.25 243648.95 Z M 370519.25 236339.2 L 370519.25 238955.45 L 386253.5 238955.45 L 386253.5 236339.2 L 370519.25 236339.2 Z M 392739 247806.95 Q 389548.75 250172.95 386036.5 251999.95 Q 389692.25 254939.95 394923 256016.2 Q 393885.25 256982.2 393239.5 258345.45 Q 382559.25 255585.7 378473 245766.45 L 378222.75 245766.45 Q 376178.75 247915.45 373132 249887.7 L 373132 255228.7 L 381554.75 253399.95 Q 381483 254798.2 381663.25 255624.2 Q 371378.5 258131.95 370410.75 258740.95 Q 370088.75 257592.95 369373 256590.2 Q 370556 255911.2 370556 254404.45 L 370556 251431.2 Q 367113.75 253293.2 363529.75 254404.45 Q 362814 253186.45 361846.25 252327.2 Q 369481.5 250389.95 374892.5 245768.2 L 367976.5 245768.2 L 367976.5 241072.95 L 362850.75 241072.95 L 362850.75 238776.95 L 367976.5 238776.95 L 367976.5 234261.95 L 388906.5 234261.95 L 388906.5 238776.95 L 394102.25 238776.95 L 394102.25 241072.95 L 388906.5 241072.95 L 388906.5 245768.2 L 381129.5 245768.2 Q 382419.25 248491.2 384533.25 250605.2 Q 388010.5 248526.2 390626.75 246305.45 L 392740.75 247810.45 L 392739 247806.95 Z M 408760.25 232074.45 L 398941 232074.45 L 398941 229708.45 L 413599 229708.45 Q 412738 227809.7 411772 226376.45 L 414349.75 225730.7 Q 415748 227774.7 416609 229708.45 L 429511.75 229708.45 L 429511.75 232074.45 L 419584 232074.45 L 419584 242863.2 L 416931 242863.2 L 416931 232074.45 L 411413.25 232074.45 L 411413.25 242898.2 L 408760.25 242898.2 L 408760.25 232074.45 Z M 422987.75 233792.95 Q 426893.75 237235.2 429153 240497.2 L 427074 241856.95 Q 424818.25 238453.2 420982.25 234940.95 L 422989.5 233792.95 L 422987.75 233792.95 Z M 406753 234225.2 Q 404926 238633.45 401629 241823.7 Q 400768 241034.45 399550 240390.45 Q 402740.25 237630.7 404352 233579.45 L 406753 234225.2 Z M 406898.25 246266.95 Q 409586.25 249705.7 414208 252071.7 Q 419010 249742.45 421698 246265.2 L 406898.25 246265.2 L 406898.25 246266.95 Z M 425714.25 244977.2 Q 422846 249920.95 416931 253328.2 Q 422524 255657.45 430407.75 256553.45 Q 429581.75 257377.7 428902.75 258882.7 Q 420336.5 257771.45 414134.5 254726.45 Q 408149.5 257484.45 399583.25 258882.7 Q 399081 257557.95 398256.75 256520.2 Q 405853.5 255517.45 411481.5 253293.2 Q 406821.25 250389.95 404026.5 246268.7 L 401123.25 246268.7 L 401123.25 243902.7 L 423523.25 243902.7 L 423987 243760.95 L 425709 244978.95 L 425714.25 244977.2 Z M 451231 230604.45 Q 450550.25 233007.2 449582.5 235801.95 L 464242.25 235801.95 L 464242.25 255442.2 Q 464242.25 257556.2 462879 258130.2 Q 461731 258597.45 457431.25 258597.45 Q 457181 257269.2 456500.25 256122.95 Q 459368.5 256229.7 460873.5 256122.95 Q 461589.25 256086.2 461589.25 255407.2 L 461589.25 238311.45 L 455497.5 238311.45 L 455497.5 257629.7 L 452879.5 257629.7 L 452879.5 238311.45 L 446966.25 238311.45 L 446966.25 257629.7 L 444350 257629.7 L 444350 238311.45 L 438687 238311.45 L 438687 258812.7 L 435999 258812.7 L 435999 235803.7 L 446786 235803.7 Q 447540.25 233292.45 448042.5 230604.45 L 434173.75 230604.45 L 434173.75 227953.2 L 466071 227953.2 L 466071 230604.45 L 451232.75 230604.45 L 451231 230604.45 Z M 480512 228381.95 Q 479257.25 230532.7 477215 232933.7 Q 479581 237485.45 479581 245262.45 Q 479581 254509.45 477789 256980.45 Q 476999.75 257913.2 475780 258128.45 Q 474240 258450.45 471732.25 258270.2 Q 471732.25 256945.45 470978 255727.45 Q 473415.75 255869.2 474705.5 255762.45 Q 475456.25 255655.7 475850 255118.45 Q 477033 253576.7 477033 245225.7 Q 477033 244007.7 476998 243398.7 Q 474310 247484.95 471228.25 249992.7 Q 470439 248702.95 469436.25 247987.2 Q 473951.25 244940.45 476639.25 239422.7 Q 476210.5 236734.7 475386.25 234870.95 Q 473200.5 237056.7 471049.75 238561.7 Q 470621 237845.95 469331.25 236734.7 Q 471874 234942.7 474168.25 232541.7 Q 472700 230282.45 470514.25 228348.7 L 472376.25 226913.7 Q 474275 228563.95 475816.75 230642.95 Q 477537 228563.95 478468 226806.95 L 480512 228383.7 L 480512 228381.95 Z M 484454.75 242252.45 L 484454.75 247164.7 L 489937.5 247164.7 L 489937.5 242252.45 L 484454.75 242252.45 Z M 497894.75 242252.45 L 492373.5 242252.45 L 492373.5 247164.7 L 497894.75 247164.7 L 497894.75 242252.45 Z M 497894.75 254546.2 L 497894.75 249492.2 L 492373.5 249492.2 L 492373.5 254546.2 L 497894.75 254546.2 Z M 484454.75 254546.2 L 489937.5 254546.2 L 489937.5 249492.2 L 484454.75 249492.2 L 484454.75 254546.2 Z M 482017 239851.45 L 500439.25 239851.45 L 500439.25 258597.45 L 497896.5 258597.45 L 497896.5 256912.2 L 484456.5 256912.2 L 484456.5 258774.2 L 482018.75 258774.2 L 482018.75 239851.45 L 482017 239851.45 Z M 501764 231178.45 L 501764 233616.2 L 496927 233616.2 L 496927 238272.95 L 494345.75 238272.95 L 494345.75 233616.2 L 488073.75 233616.2 L 488073.75 238272.95 L 485492.5 238272.95 L 485492.5 233616.2 L 480438.5 233616.2 L 480438.5 231178.45 L 485492.5 231178.45 L 485492.5 226089.45 L 488073.75 226089.45 L 488073.75 231178.45 L 494345.75 231178.45 L 494345.75 226089.45 L 496927 226089.45 L 496927 231178.45 L 501764 231178.45 Z M 23014.75 284237.85 Q 19752.75 286854.1 16419 288395.85 Q 15846.75 287641.6 14698.75 286673.85 Q 21257.75 283985.85 24483 279183.85 L 27171 279973.1 Q 26346.75 281049.35 25415.75 282052.1 L 33121 282052.1 L 33588.25 281945.35 L 35308.5 282876.35 Q 30793.5 292482.1 16277.25 295742.35 Q 15703.25 294417.6 14952.5 293628.35 Q 19754.5 292660.6 23480.25 290868.6 Q 22262.25 289113.35 20148.25 287356.35 L 22120.5 286210.1 Q 24162.75 287821.85 25597.75 289685.6 Q 29538.75 287354.6 31617.75 284237.85 L 23016.5 284237.85 L 23014.75 284237.85 Z M 10364 279218.85 L 12941.75 279218.85 L 12941.75 311868.6 L 10364 311868.6 L 10364 299217.85 Q 7317.25 302192.85 5023 304200.1 L 3553 301979.35 Q 6099.25 299972.1 10364 296066.1 L 10364 289900.85 L 8500.25 291440.85 Q 7102 288681.1 3733.25 285455.85 L 5597 284022.6 Q 8964 287212.85 10364 289648.85 L 10364 279218.85 Z M 19324 300078.85 Q 22656 303410.85 24126 306350.85 L 21831.75 307675.6 Q 20468.5 304700.6 17206.5 301261.85 L 19322.25 300078.85 L 19324 300078.85 Z M 35989.25 299037.6 L 31651 299037.6 L 31651 308716.85 Q 31651 310865.85 30182.75 311439.85 Q 28963 311868.6 24376.25 311868.6 Q 24196 310795.85 23517 309325.85 Q 25702.75 309397.6 28284 309397.6 Q 29034.75 309360.85 29034.75 308680.1 L 29034.75 299039.35 L 14627 299039.35 L 14627 296568.35 L 29034.75 296568.35 L 29034.75 292158.35 L 31651 292158.35 L 31651 296568.35 L 35989.25 296568.35 L 35989.25 299039.35 L 35989.25 299037.6 Z M 47885.75 285455.85 Q 45736.75 283950.85 41256.75 281513.1 L 42726.75 279614.35 Q 46774.5 281551.6 49427.5 283306.85 L 47885.75 285457.6 L 47885.75 285455.85 Z M 46093.75 295168.35 Q 43516 293411.35 39499.75 291297.35 L 40969.75 289360.1 Q 45378 291545.85 47602.25 292980.85 L 46095.5 295166.6 L 46093.75 295168.35 Z M 40360.75 309612.85 Q 43442.5 305309.6 47133.25 298141.6 L 49067 299898.6 Q 46057 305990.35 42579.75 311403.1 L 40359 309611.1 L 40360.75 309612.85 Z M 67169 300507.6 L 54409.75 300507.6 L 54409.75 307890.85 L 67169 307890.85 L 67169 300507.6 Z M 62221.75 292156.6 L 62221.75 298034.85 L 69713.5 298034.85 L 69713.5 311691.85 L 67167.25 311691.85 L 67167.25 310363.6 L 54408 310363.6 L 54408 311868.6 L 51970.25 311868.6 L 51970.25 298034.85 L 59677.25 298034.85 L 59677.25 292156.6 L 49354 292156.6 L 49354 289575.35 L 59677.25 289575.35 L 59677.25 283770.6 Q 56021.5 284309.6 51793.5 284738.35 Q 51648.25 283877.35 51074.25 282479.1 Q 63046 281226.1 68422 279288.85 L 70536 281367.85 Q 67132.25 282515.85 62220 283375.1 L 62220 289575.35 L 72041 289575.35 L 72041 292156.6 L 62220 292156.6 L 62221.75 292156.6 Z M 92363.75 284451.35 L 92363.75 290830.1 L 92831 290292.85 Q 100823.25 294127.1 105555.25 297711.1 L 103691.5 300112.1 Q 99965.75 297067.1 92365.5 292980.85 L 92365.5 311831.85 L 89535.75 311831.85 L 89535.75 284449.6 L 75843.75 284449.6 L 75843.75 281796.6 L 107490.75 281796.6 L 107490.75 284449.6 L 92365.5 284449.6 L 92363.75 284451.35 Z M 130678.25 297497.6 Q 136126 304807.35 144083.25 308214.6 Q 142935.25 309287.35 142219.5 310470.35 Q 134584.25 306671.1 128851.25 298894.1 L 128851.25 311866.85 L 126091.5 311866.85 L 126091.5 298965.85 Q 120573.75 306490.85 112831.75 310326.85 Q 112042.5 309143.85 110966.25 308141.1 Q 118923.5 304698.85 124299.5 297495.85 L 111720.5 297495.85 L 111720.5 294949.6 L 126091.5 294949.6 L 126091.5 286026.35 L 113405.75 286026.35 L 113405.75 283480.1 L 126091.5 283480.1 L 126091.5 279180.35 L 128851.25 279180.35 L 128851.25 283480.1 L 141824 283480.1 L 141824 286026.35 L 128851.25 286026.35 L 128851.25 294949.6 L 143329 294949.6 L 143329 297495.85 L 130678.25 297495.85 L 130678.25 297497.6 Z M 118634.75 286852.35 Q 121251 290651.6 122040.25 293554.85 L 119532.5 294522.6 Q 118708.25 291297.35 116307.25 287748.35 L 118636.5 286852.35 L 118634.75 286852.35 Z M 133005.75 293841.85 Q 135121.5 290509.85 136626.5 286710.6 L 139349.5 287569.85 Q 136913.5 292301.85 135228.25 294596.1 L 133004 293841.85 L 133005.75 293841.85 Z M 156231.75 301977.6 Q 157843.5 303589.35 157843.5 305848.6 Q 157843.5 308107.85 156231.75 309719.6 Q 154655 311331.35 152360.75 311331.35 Q 150140 311331.35 148524.75 309719.6 Q 146913 308107.85 146913 305848.6 Q 146913 303589.35 148524.75 301977.6 Q 150140 300400.85 152360.75 300400.85 Q 154655 300400.85 156231.75 301977.6  Z M 154942 308429.85 Q 155979.75 307388.6 155979.75 305848.6 Q 155979.75 304343.6 154942 303302.35 Q 153865.75 302229.6 152360.75 302229.6 Q 150890.75 302229.6 149814.5 303302.35 Q 148738.25 304378.6 148738.25 305848.6 Q 148738.25 307353.6 149814.5 308429.85 Q 150890.75 309506.1 152360.75 309506.1 Q 153900.75 309506.1 154942 308429.85  Z " fill-rule="nonzero" style="fill:#ffffff;;fill-opacity:1;"/>
</svg>