<svg version="1.1" x="0" y="0" width="100%" height="100%" viewBox="0 0 756121.6 79974.4" xmlns="http://www.w3.org/2000/svg">
  <path d="M 46695.5 23754.9 Q 42445.5 30362.4 38708 34559.9 L 35480.5 33179.9 Q 39780.5 28159.9 42803 22222.4 L 46693 23754.9 L 46695.5 23754.9 Z M 16640.5 34612.4 Q 14488 30104.9 9268 23754.9 L 12288 22064.9 Q 17408 28057.4 19918 32614.9 L 16640.5 34612.4 Z M 44800.5 60824.9 Q 45928 60824.9 46285.5 60004.9 Q 46645.5 59237.4 46798 56469.9 Q 48025.5 57392.4 50328 57902.4 Q 49970.5 61742.4 48893 63074.9 Q 47820.5 64457.4 45108 64457.4 L 37220.5 64457.4 Q 33740.5 64457.4 32563 63329.9 Q 31435.5 62252.4 31435.5 59024.9 L 31435.5 41207.4 L 23445.5 41207.4 Q 22678 51139.9 19810.5 56107.4 Q 16173 62557.4 7265.5 65629.9 Q 6395.5 63732.4 4858 62352.4 Q 13100.5 59739.9 16378 54159.9 Q 18885.5 49909.9 19503 41207.4 L 5523 41207.4 L 5523 37519.9 L 25595.5 37519.9 L 25595.5 18679.9 L 29535.5 18679.9 L 29535.5 37519.9 L 49505.5 37519.9 L 49505.5 41207.4 L 35218 41207.4 L 35218 58974.9 Q 35218 60152.4 35680.5 60512.4 Q 36088 60819.9 37625.5 60819.9 L 44795.5 60819.9 L 44800.5 60824.9 Z M 76390.5 47974.9 L 76390.5 40652.4 L 63793 40652.4 L 63793 47974.9 L 76390.5 47974.9 Z M 63795.5 29799.9 L 63795.5 37119.9 L 76393 37119.9 L 76393 29799.9 L 63795.5 29799.9 Z M 80385.5 29799.9 L 80385.5 37119.9 L 93543 37119.9 L 93543 29799.9 L 80385.5 29799.9 Z M 93540.5 47974.9 L 93540.5 40652.4 L 80383 40652.4 L 80383 47974.9 L 93540.5 47974.9 Z M 94770.5 60774.9 Q 96870.5 60774.9 97588 59134.9 Q 98250.5 57597.4 98560.5 52477.4 Q 99940.5 53554.9 102298 54167.4 Q 101785.5 60157.4 100455.5 62257.4 Q 98918 64559.9 95028 64559.9 L 83765.5 64559.9 Q 79463 64559.9 77930.5 63077.4 Q 76393 61539.9 76393 57087.4 L 76393 51709.9 L 63795.5 51709.9 L 63795.5 54832.4 L 59905.5 54832.4 L 59905.5 26109.9 L 76393 26109.9 L 76393 18787.4 L 80385.5 18787.4 L 80385.5 26109.9 L 97333 26109.9 L 97333 51709.9 L 80385.5 51709.9 L 80385.5 57187.4 Q 80385.5 59439.9 81048 60107.4 Q 81715.5 60774.9 84018 60774.9 L 94770.5 60774.9 Z M 130660.5 29592.4 L 107570.5 29592.4 L 107570.5 26112.4 L 118528 26112.4 Q 117350.5 23142.4 114890.5 19914.9 L 117963 18634.9 Q 120523 21707.4 121955.5 24829.9 L 119193 26109.9 L 130660.5 26109.9 L 130660.5 29589.9 L 130660.5 29592.4 Z M 127230.5 41214.9 Q 125693 37117.4 121600.5 32254.9 L 124468 30772.4 Q 128615.5 35582.4 130253 39524.9 L 127233 41214.9 L 127230.5 41214.9 Z M 116530.5 31899.9 Q 113458 39017.4 109108 44187.4 Q 107828 42754.9 106395.5 41884.9 Q 110593 37377.4 113255.5 30874.9 L 116533 31902.4 L 116530.5 31899.9 Z M 125288 60212.4 Q 123698 57034.9 120115.5 52632.4 Q 115815.5 59649.9 109263 64207.4 Q 107930.5 62567.4 106600.5 61439.9 Q 113613 57089.9 117763 49717.4 Q 114995.5 46439.9 111668 43109.9 L 114430.5 41062.4 Q 116940.5 43572.4 119550.5 46334.9 Q 121138 42854.9 122165.5 39167.4 L 125695.5 39884.9 Q 124468 44387.4 122060.5 49199.9 Q 126463 54372.4 128355.5 57852.4 L 125285.5 60209.9 L 125288 60212.4 Z M 137985.5 31539.9 Q 137013 34509.9 136755.5 35122.4 Q 138395.5 42802.4 141465.5 48894.9 Q 144845.5 42292.4 146485.5 31539.9 L 137985.5 31539.9 Z M 150168 31539.9 Q 148170.5 44749.9 143513 52582.4 Q 147813 59289.9 153700.5 62362.4 Q 152370.5 63384.9 151040.5 65382.4 Q 145358 62054.9 141365.5 55857.4 Q 136858 61797.4 129588 65584.9 Q 128615.5 64204.9 126975.5 62772.4 Q 134808 59134.9 139368 52477.4 Q 136448 46897.4 134605.5 40087.4 Q 133428 42389.9 131788 44797.4 Q 130560.5 43057.4 129228 41979.9 Q 134758 34457.4 137420.5 18634.9 L 140953 19147.4 Q 139980.5 24419.9 139008 27952.4 L 153038 27952.4 L 153038 31534.9 L 150168 31534.9 L 150168 31539.9 Z M 165785.5 28874.9 L 165785.5 39167.4 Q 165785.5 56984.9 160973 65842.4 Q 159900.5 64664.9 157750.5 63742.4 Q 162000.5 55809.9 162000.5 39169.9 L 162000.5 25242.4 L 182328 25242.4 Q 181250.5 22374.9 179610.5 19252.4 L 183298 18329.9 Q 185398 21967.4 186628 25244.9 L 203728 25244.9 L 203728 28877.4 L 165788 28877.4 L 165785.5 28874.9 Z M 184525.5 51099.9 Q 183448 44032.4 180275.5 33639.9 L 183705.5 32717.4 Q 186983 42957.4 188110.5 50074.9 L 184528 51102.4 L 184525.5 51099.9 Z M 174745.5 53964.9 Q 173415.5 47412.4 169215.5 36504.9 L 172493 35174.9 Q 176643 45362.4 178280.5 52532.4 L 174748 53964.9 L 174745.5 53964.9 Z M 204390.5 59442.4 L 204390.5 63079.9 L 166450.5 63079.9 L 166450.5 59442.4 L 186673 59442.4 Q 193995.5 47719.9 197475.5 32409.9 L 201468 33842.4 Q 197370.5 47922.4 190563 59442.4 L 204385.5 59442.4 L 204390.5 59442.4 Z " fill-rule="nonzero" style="fill:#ffffff;;fill-opacity:1;"/>
</svg>