<svg version="1.1" x="0" y="0" width="100%" height="100%" viewBox="0 0 74291.2 40550.4" xmlns="http://www.w3.org/2000/svg">
  <path d="M 11065.2 29291.6 Q 19322.4 22066.4 19322.4 17666 Q 19322.4 16044.8 18511.2 15110 Q 17626.8 14102 16004.4 14102 Q 14013.6 14102 12267.6 16191.2 L 10965.6 14913.2 Q 13423.2 12258.8 16274.4 12258.8 Q 18682.8 12258.8 20108.4 13708.4 Q 21510 15159.2 21510 17591.6 Q 21510 22162.4 14457.6 28847.6 Q 16645.2 28676 17407.2 28676 L 22395.6 28676 L 22395.6 30616.4 L 11066.4 30616.4 L 11066.4 29290.4 L 11065.2 29291.6 Z M 26279.6 28601.6 Q 24756.8 26144 24756.8 21549.2 Q 24756.8 16954.4 26279.6 14546 Q 27729.2 12260 30383.6 12260 Q 33014 12260 34463.6 14570 Q 35986.4 16978.4 35986.4 21549.2 Q 35986.4 26144 34463.6 28601.6 Q 33014 30938 30383.6 30938 Q 27754.4 30938 26279.6 28601.6  Z M 33800 21549.2 Q 33800 14079.2 30383.6 14079.2 Q 26943.2 14079.2 26943.2 21549.2 Q 26943.2 29142.8 30383.6 29142.8 Q 33800 29142.8 33800 21549.2  Z M 39283.6 28750.4 L 43288 28750.4 L 43288 15306.8 L 40094.8 15306.8 L 40094.8 13881.2 Q 42330.4 13463.6 43829.2 12603.2 L 45548.8 12603.2 L 45548.8 28750.4 L 49162 28750.4 L 49162 30617.6 L 39283.6 30617.6 L 39283.6 28750.4 Z M 53415.6 29585.6 Q 51793.2 28233.2 51793.2 26144 Q 51793.2 22974.8 55111.2 21180.8 L 55111.2 21057.2 Q 52677.6 19385.6 52677.6 16904 Q 52677.6 14864 54079.2 13587.2 Q 55479.6 12333.2 57619.2 12333.2 Q 59880 12333.2 61230 13661.6 Q 62558.4 14963.6 62558.4 17076.8 Q 62558.4 19558.4 60150 21425.6 L 60150 21549.2 Q 63196.8 23319.2 63196.8 26267.6 Q 63196.8 28258.4 61650 29586.8 Q 60051.6 30939.2 57544.8 30939.2 Q 55063.2 30939.2 53416.8 29586.8 L 53415.6 29585.6 Z M 60642 17198 Q 60642 15821.6 59830.8 14913.2 Q 58970.4 13978.4 57570 13978.4 Q 56316 13978.4 55530 14789.6 Q 54718.8 15600.8 54718.8 16902.8 Q 54718.8 18352.4 55947.6 19360.4 Q 56808 20048 58772.4 20835.2 Q 60640.8 19188.8 60640.8 17196.8 L 60642 17198 Z M 60100.8 28406 Q 61059.6 27569.6 61059.6 26219.6 Q 61059.6 24597.2 59634 23516 Q 58749.6 22852.4 56292 21869.6 Q 53834.4 23442.8 53834.4 25949.6 Q 53834.4 27374 54915.6 28334 Q 55971.6 29266.4 57594 29266.4 Q 59143.2 29266.4 60102 28407.2 L 60100.8 28406 Z " fill-rule="nonzero" style="fill:#ffffff;;fill-opacity:1;"/>
</svg>