<svg version="1.1" x="0" y="0" width="100%" height="100%" viewBox="0 0 394240 77004.8" xmlns="http://www.w3.org/2000/svg">
  <path d="M 15318.8 10145.6 Q 15245.6 12431.6 15148.4 13708.4 Q 16794.8 26832.8 25666.4 30764 Q 24782 31502 24340.4 32313.2 Q 16991.6 28871.6 14386.4 18796.4 Q 12173.6 28406 4653.2 32410.4 Q 4186.4 31672.4 3179.6 30984.8 Q 9716 27692 12052.4 20025.2 Q 13181.6 16265.6 13305.2 10145.6 L 15320 10145.6 L 15318.8 10145.6 Z M 33899.6 10662.8 Q 33209.6 13120.4 32030 15896 L 32030 32484.8 L 30260 32484.8 L 30260 19461.2 Q 29448.8 20885.6 28564.4 22041.2 Q 28196 21009.2 27581.6 20198 Q 30432.8 16536.8 32226.8 10196 L 33898.4 10662.8 L 33899.6 10662.8 Z M 34979.6 14987.6 L 36749.6 14987.6 L 36749.6 32511.2 L 34979.6 32511.2 L 34979.6 14987.6 Z M 37413.2 10072.4 Q 39477.2 12874.4 40337.6 14766.8 L 38838.8 15626 Q 37930.4 13464.8 35987.6 10834.4 L 37413.2 10072.4 Z M 49184 30176 Q 49184 31698.8 48201.2 32116.4 Q 47415.2 32436.8 44294 32436.8 Q 44170.4 31600.4 43703.6 30692 Q 45620 30791.6 46848.8 30716 Q 47390 30692 47390 30150.8 L 47390 12627.2 L 40755.2 12627.2 L 40755.2 10956.8 L 49184 10956.8 L 49184 30176 Z M 74694.8 20049.2 L 74694.8 22040 L 52379.6 22040 L 52379.6 20049.2 L 74694.8 20049.2 Z M 88875.2 24203.6 L 87129.2 24203.6 L 87129.2 11252 L 97870.4 11252 L 97870.4 24203.6 L 96075.2 24203.6 L 96075.2 12874.4 L 88875.2 12874.4 L 88875.2 24203.6 Z M 84180.8 29020.4 Q 83690 27521.6 82461.2 25161.2 Q 80618 29093.6 78087.2 31478 Q 77447.6 30641.6 76736 30100.4 Q 79439.6 27692 81356 23146.4 Q 79389.2 19754 77252 16926.8 L 78652.4 16018.4 Q 80568.8 18525.2 82167.2 21056 Q 83396 17466.8 83910.8 13707.2 L 77152.4 13707.2 L 77152.4 11963.6 L 84353.6 11963.6 L 84698 11890.4 L 85853.6 12234.8 Q 85166 18279.2 83370.8 23022.8 Q 85066.4 25971.2 85754 27887.6 L 84180.8 29019.2 L 84180.8 29020.4 Z M 96935.6 30641.6 Q 97526 30641.6 97721.6 29879.6 Q 97894.4 29141.6 97967.6 26512.4 Q 98558 26954 99466.4 27200 Q 99294.8 30222.8 98901.2 31058 Q 98410.4 32042 96911.6 32042 L 94846.4 32042 Q 93593.6 32042 93102.8 31599.2 Q 92561.6 31157.6 92561.6 29978 L 92561.6 24399.2 Q 91062.8 29682.8 85680.8 32484.8 Q 85214 31600.4 84551.6 31158.8 Q 88679.6 29069.6 90302 25653.2 Q 91457.6 23220.8 91457.6 19631.6 L 91457.6 14937.2 L 93177.2 14937.2 L 93177.2 19655.6 Q 93177.2 21917.6 92710.4 23882 L 94259.6 23882 L 94259.6 29805.2 Q 94259.6 30640.4 95118.8 30640.4 L 96938 30640.4 L 96935.6 30641.6 Z M 113427.2 27618.8 Q 115835.6 29928.8 116818.4 31502 L 115662.8 32313.2 Q 114386 30370.4 112296.8 28306.4 L 113428.4 27618.8 L 113427.2 27618.8 Z M 116277.2 11498 L 116277.2 26710.4 L 114778.4 26710.4 L 114778.4 12897.2 L 109518.8 12897.2 L 109518.8 26783.6 L 108069.2 26783.6 L 108069.2 11496.8 L 116277.2 11496.8 L 116277.2 11498 Z M 123084.8 10366.4 L 123084.8 30371.6 Q 123084.8 31724 122249.6 32117.6 Q 121462.4 32462 118857.2 32412.8 Q 118733.6 31725.2 118316 30890 Q 120503.6 30939.2 121094 30890 Q 121584.8 30890 121584.8 30399.2 L 121584.8 10368.8 L 123083.6 10368.8 L 123084.8 10366.4 Z M 119692.4 12258.8 L 119692.4 26856.8 L 118242.8 26856.8 L 118242.8 12258.8 L 119692.4 12258.8 Z M 112713.2 14643.2 L 112713.2 23268.8 Q 112713.2 29906 107626.4 32460.8 Q 107356.4 31870.4 106766 31329.2 Q 109544 29904.8 110576 27618.8 Q 111314 25972.4 111314 23268.8 L 111314 14643.2 L 112714.4 14643.2 L 112713.2 14643.2 Z M 103521.2 10318.4 Q 106248.8 11768 107477.6 12873.2 L 106372.4 14322.8 Q 105020 13046 102441.2 11620.4 L 103521.2 10318.4 Z M 102416 16928 Q 104973.2 18182 106446.8 19337.6 L 105390.8 20787.2 Q 104309.6 19878.8 101385.2 18207.2 L 102417.2 16929.2 L 102416 16928 Z M 101874.8 31232 Q 103767.2 27472.4 105168.8 23417.6 L 106642.4 24376.4 Q 105192.8 28577.6 103521.2 32190.8 L 101874.8 31232 Z M 128246 31943.6 Q 131169.2 30740 131342 28331.6 Q 131194.4 28355.6 130924.4 28355.6 Q 130137.2 28355.6 129622.4 27912.8 Q 129081.2 27447.2 129081.2 26610.8 Q 129081.2 25775.6 129646.4 25284.8 Q 130163.6 24842 130949.6 24842 Q 133038.8 24842 133038.8 27669.2 Q 133038.8 31749.2 128787.2 33248 L 128246 31943.6 Z M 160612.4 24105.2 L 160612.4 20590.4 L 154565.6 20590.4 L 154565.6 24105.2 L 160612.4 24105.2 Z M 154566.8 15381.2 L 154566.8 18894.8 L 160613.6 18894.8 L 160613.6 15381.2 L 154566.8 15381.2 Z M 162530 15381.2 L 162530 18894.8 L 168845.6 18894.8 L 168845.6 15381.2 L 162530 15381.2 Z M 168844.4 24105.2 L 168844.4 20590.4 L 162528.8 20590.4 L 162528.8 24105.2 L 168844.4 24105.2 Z M 169434.8 30249.2 Q 170442.8 30249.2 170787.2 29462 Q 171105.2 28724 171254 26266.4 Q 171916.4 26783.6 173048 27077.6 Q 172802 29952.8 172163.6 30960.8 Q 171425.6 32066 169558.4 32066 L 164152.4 32066 Q 162087.2 32066 161351.6 31354.4 Q 160613.6 30616.4 160613.6 28479.2 L 160613.6 25898 L 154566.8 25898 L 154566.8 27396.8 L 152699.6 27396.8 L 152699.6 13610 L 160613.6 13610 L 160613.6 10095.2 L 162530 10095.2 L 162530 13610 L 170664.8 13610 L 170664.8 25898 L 162530 25898 L 162530 28527.2 Q 162530 29608.4 162848 29928.8 Q 163168.4 30249.2 164273.6 30249.2 L 169434.8 30249.2 Z M 197427.2 22754 L 187400 22754 L 187400 30077.6 Q 187400 31773.2 186147.2 32141.6 Q 185163.2 32486 181329.2 32486 Q 181108.4 31553.6 180543.2 30618.8 Q 183221.6 30716 184868 30642.8 Q 185531.6 30618.8 185531.6 30053.6 L 185531.6 22754 L 175404.8 22754 L 175404.8 20934.8 L 185531.6 20934.8 L 185531.6 17396 Q 188800.4 15897.2 191675.6 13512.8 L 177838.4 13512.8 L 177838.4 11718.8 L 193665.2 11718.8 L 194058.8 11621.6 L 195435.2 12653.6 Q 192117.2 15922.4 187398.8 18330.8 L 187398.8 20936 L 197426 20936 L 197426 22755.2 L 197427.2 22754 Z M 219939.2 15578 Q 219201.2 13856 217481.6 11915.6 L 218710.4 11228 Q 220480.4 13095.2 221242.4 14766.8 L 219940.4 15578 L 219939.2 15578 Z M 211214 14716.4 L 200057.6 14716.4 L 200057.6 13094 L 205290.8 13094 Q 205094 12455.6 204185.6 10415.6 L 205856 10047.2 Q 206740.4 11717.6 207159.2 13094 L 211214 13094 L 211214 14716.4 Z M 203744 24203.6 Q 202907.6 27840.8 201286.4 30150.8 Q 200696 29709.2 199958 29266.4 Q 201480.8 27251.6 202218.8 23883.2 L 203744 24203.6 Z M 202980.8 21107.6 L 208510.4 21107.6 L 208510.4 18156.8 L 202980.8 18156.8 L 202980.8 21107.6 Z M 206716.4 22581.2 L 206716.4 30544.4 Q 206716.4 31724 205978.4 32068.4 Q 205290.8 32388.8 203324 32339.6 Q 203250.8 31676 202809.2 30840.8 Q 204308 30890 204725.6 30840.8 Q 205070 30840.8 205070 30522.8 L 205070 22583.6 L 201383.6 22583.6 L 201383.6 16661.6 L 210206 16661.6 L 210206 22583.6 L 206716.4 22583.6 L 206716.4 22581.2 Z M 209445.2 28528.4 Q 209051.6 26637.2 207699.2 24203.6 L 209003.6 23613.2 Q 210428 26022.8 210821.6 27890 L 209445.2 28528.4 Z M 216252.8 18059.6 Q 215342 28307.6 210723.2 32535.2 Q 210232.4 31896.8 209396 31430 Q 213820.4 27596 214582.4 18059.6 L 211437.2 18059.6 L 211437.2 16413.2 L 214706 16413.2 Q 214805.6 14840 214853.6 10121.6 L 216573.2 10121.6 Q 216525.2 14716.4 216401.6 16412 L 222004.4 16412 L 222004.4 18058.4 L 216254 18058.4 L 216252.8 18059.6 Z M 219791.6 30520.4 Q 220356.8 30520.4 220504.4 30396.8 Q 220798.4 30273.2 220871.6 29732 Q 220947.2 29241.2 220995.2 27077.6 Q 221536.4 27594.8 222420.8 27815.6 Q 222371.6 29979.2 222150.8 30714.8 Q 221954 31404.8 221388.8 31673.6 Q 220922 31919.6 219987.2 31919.6 L 218414 31919.6 Q 217407.2 31919.6 216890 31502 Q 216324.8 31084.4 216324.8 29265.2 L 216324.8 20000 L 217947.2 20000 L 217947.2 29462 Q 217947.2 30273.2 218142.8 30396.8 Q 218388.8 30520.4 218733.2 30520.4 L 219790.4 30520.4 L 219791.6 30520.4 Z M 241590.8 12750.8 L 229376 12750.8 L 229376 16683.2 L 241590.8 16683.2 L 241590.8 12750.8 Z M 243483.2 18329.6 L 227582 18329.6 L 227582 11104.4 L 243483.2 11104.4 L 243483.2 18329.6 Z M 246137.6 30150.8 L 246137.6 31870.4 L 224927.6 31870.4 L 224927.6 30150.8 L 234512 30150.8 L 234512 26955.2 L 226967.6 26955.2 L 226967.6 25308.8 L 234512 25308.8 L 234512 22262 L 226131.2 22262 L 226131.2 20566.4 L 244982 20566.4 L 244982 22262 L 236404.4 22262 L 236404.4 25308.8 L 244097.6 25308.8 L 244097.6 26955.2 L 236404.4 26955.2 L 236404.4 30150.8 L 246137.6 30150.8 Z M 266730.8 10736 Q 264543.2 11817.2 264543.2 13757.6 Q 264789.2 13560.8 265230.8 13560.8 Q 265894.4 13560.8 266336 14003.6 Q 266754.8 14469.2 266754.8 15132.8 Q 266754.8 15747.2 266336 16214 Q 265870.4 16731.2 265083.2 16731.2 Q 264272 16731.2 263730.8 16067.6 Q 263165.6 15404 263165.6 14396 Q 263165.6 12849.2 264100.4 11547.2 Q 264935.6 10366.4 266213.6 9801.2 L 266728.4 10736 L 266730.8 10736 Z M 271449.2 10736 Q 269261.6 11817.2 269261.6 13757.6 Q 269507.6 13560.8 269925.2 13560.8 Q 270612.8 13560.8 271055.6 14003.6 Q 271473.2 14469.2 271473.2 15132.8 Q 271473.2 15747.2 271055.6 16214 Q 270588.8 16731.2 269801.6 16731.2 Q 268990.4 16731.2 268425.2 16067.6 Q 267860 15404 267860 14396 Q 267860 12849.2 268818.8 11547.2 Q 269654 10391.6 270932 9801.2 L 271446.8 10736 L 271449.2 10736 Z M 288137.6 14249.6 Q 287867.6 12824 286983.2 10415.6 L 288629.6 9974 Q 289514 12161.6 289858.4 13734.8 L 288138.8 14249.6 L 288137.6 14249.6 Z M 295140.8 16216.4 L 282779.6 16216.4 L 282779.6 14496.8 L 295140.8 14496.8 L 295140.8 16216.4 Z M 285974 28650.8 Q 285507.2 23662.4 284181.2 18132.8 L 285728 17739.2 Q 287129.6 23417.6 287694.8 28110.8 L 285975.2 28652 L 285974 28650.8 Z M 282558.8 11988.8 Q 280961.6 16535.6 280544 17420 L 279412.4 17050.4 Q 280371.2 14642 281009.6 11570 L 282558.8 11987.6 L 282558.8 11988.8 Z M 275135.6 17370.8 Q 274938.8 14986.4 273809.6 12011.6 L 275087.6 11693.6 Q 276216.8 14445.2 276510.8 17026.4 L 275134.4 17370.8 L 275135.6 17370.8 Z M 281082.8 26464.4 Q 280544 25432.4 278848.4 22925.6 L 278848.4 32486 L 277126.4 32486 L 277126.4 23073.2 Q 275702 27056 274251.2 29046.8 Q 273981.2 28259.6 273318.8 27276.8 Q 275382.8 24722 276857.6 19978.4 L 273612.8 19978.4 L 273612.8 18258.8 L 277126.4 18258.8 L 277126.4 10098.8 L 278848.4 10098.8 L 278848.4 18258.8 L 282190.4 18258.8 L 282190.4 19978.4 L 278848.4 19978.4 L 278848.4 20838.8 Q 281232.8 23468 282288.8 24993.2 L 281084 26466.8 L 281082.8 26464.4 Z M 295804.4 29733.2 L 295804.4 31527.2 L 281796.8 31527.2 L 281796.8 29733.2 L 289563.2 29733.2 Q 291110 23933.6 291848 17568.8 L 293715.2 17889.2 Q 292535.6 24843.2 291209.6 29734.4 L 295804.4 29734.4 L 295804.4 29733.2 Z M 320307.2 22754 L 310280 22754 L 310280 30077.6 Q 310280 31773.2 309027.2 32141.6 Q 308043.2 32486 304209.2 32486 Q 303988.4 31553.6 303423.2 30618.8 Q 306101.6 30716 307748 30642.8 Q 308411.6 30618.8 308411.6 30053.6 L 308411.6 22754 L 298284.8 22754 L 298284.8 20934.8 L 308411.6 20934.8 L 308411.6 17396 Q 311680.4 15897.2 314555.6 13512.8 L 300718.4 13512.8 L 300718.4 11718.8 L 316545.2 11718.8 L 316938.8 11621.6 L 318315.2 12653.6 Q 314997.2 15922.4 310278.8 18330.8 L 310278.8 20936 L 320306 20936 L 320306 22755.2 L 320307.2 22754 Z M 343974.8 11177.6 Q 341320.4 14546 336970.4 16954.4 Q 336159.2 16019.6 335644.4 15675.2 Q 339920 13562 342280.4 10466 L 343976 11177.6 L 343974.8 11177.6 Z M 344662.4 17888 Q 341738 21525.2 337191.2 24080 Q 336503.6 23244.8 335914.4 22778 Q 340386.8 20517.2 342992 17175.2 L 344663.6 17889.2 L 344662.4 17888 Z M 331514 19607.6 L 331514 13290.8 L 327557.6 13290.8 L 327557.6 19607.6 L 331514 19607.6 Z M 333282.8 21304.4 L 333282.8 32484.8 L 331512.8 32484.8 L 331512.8 21304.4 L 327532.4 21304.4 Q 327359.6 28848.8 323895.2 32658.8 Q 323328.8 31896.8 322517.6 31430 Q 325638.8 28037.6 325811.6 21304.4 L 322640 21304.4 L 322640 19608.8 L 325835.6 19608.8 L 325835.6 13292 L 323009.6 13292 L 323009.6 11572.4 L 335591.6 11572.4 L 335591.6 13292 L 333281.6 13292 L 333281.6 19608.8 L 335960 19608.8 L 335960 21304.4 L 333281.6 21304.4 L 333282.8 21304.4 Z M 345251.6 24449.6 Q 342106.4 29634.8 335914.4 32484.8 Q 335348 31625.6 334636.4 31035.2 Q 340680.8 28528.4 343532 23786 L 345251.6 24449.6 Z M 367001.6 14322.8 Q 365796.8 12849.2 363512 11250.8 L 364740.8 10244 Q 367074.8 11790.8 368279.6 13167.2 L 367001.6 14322.8 Z M 354590 28553.6 L 359849.6 27448.4 L 359997.2 29069.6 Q 353338.4 30642.8 348226.4 31774.4 L 347661.2 29980.4 L 352797.2 28948.4 L 352797.2 21820.4 L 348423.2 21820.4 L 348423.2 20050.4 L 359188.4 20050.4 L 359188.4 21820.4 L 354591.2 21820.4 L 354591.2 28554.8 L 354590 28553.6 Z M 362110.4 16413.2 Q 362577.2 22704.8 363905.6 26612 Q 365282 30642.8 367076 30642.8 Q 367984.4 30642.8 368181.2 26024 Q 368820.8 26662.4 369803.6 27030.8 Q 369557.6 30202.4 368943.2 31382 Q 368328.8 32537.6 366928.4 32537.6 Q 364102.4 32537.6 362332.4 27868.4 Q 360783.2 23715.2 360242 16415.6 L 347560.4 16415.6 L 347560.4 14621.6 L 360118.4 14621.6 Q 360045.2 13170.8 359996 10172 L 361912.4 10172 Q 361912.4 12678.8 362012 14621.6 L 369285.2 14621.6 L 369285.2 16415.6 L 362109.2 16415.6 L 362110.4 16413.2 Z M 7701.2 52350.4 Q 9888.8 51245.2 9888.8 49328.8 Q 9594.8 49525.6 9201.2 49525.6 Q 8537.6 49525.6 8096 49058.8 Q 7677.2 48617.2 7677.2 47953.6 Q 7677.2 47315.2 8096 46848.4 Q 8561.6 46357.6 9348.8 46357.6 Q 10160 46357.6 10725.2 47020 Q 11290.4 47683.6 11290.4 48691.6 Q 11290.4 50238.4 10358 51540.4 Q 9497.6 52672 8219.6 53286.4 L 7704.8 52351.6 L 7701.2 52350.4 Z M 2982.8 52350.4 Q 5170.4 51245.2 5170.4 49328.8 Q 4874 49525.6 4505.6 49525.6 Q 3818 49525.6 3375.2 49058.8 Q 2957.6 48617.2 2957.6 47953.6 Q 2957.6 47315.2 3375.2 46848.4 Q 3842 46357.6 4629.2 46357.6 Q 5440.4 46357.6 6005.6 47020 Q 6570.8 47683.6 6570.8 48691.6 Q 6570.8 50238.4 5638.4 51540.4 Q 4778 52672 3500 53286.4 L 2985.2 52351.6 L 2982.8 52350.4 Z M 37314.8 54046 L 37314.8 56209.6 L 41418.8 56209.6 L 41418.8 54046 L 37314.8 54046 Z M 43065.2 54046 L 43065.2 56209.6 L 47340.8 56209.6 L 47340.8 54046 L 43065.2 54046 Z M 47340.8 59796.4 L 47340.8 57560.8 L 43065.2 57560.8 L 43065.2 59796.4 L 47340.8 59796.4 Z M 41418.8 59796.4 L 41418.8 57560.8 L 37314.8 57560.8 L 37314.8 59796.4 L 41418.8 59796.4 Z M 37314.8 65302 L 35568.8 65302 L 35568.8 52645.6 L 42524 52645.6 Q 39993.2 51391.6 37756.4 50556.4 L 38888 49524.4 Q 40461.2 50089.6 42452 50950 Q 44147.6 50138.8 45917.6 48860.8 L 35594 48860.8 L 35594 47411.2 L 47588 47411.2 L 47956.4 47314 L 49064 48173.2 Q 47048 50140 44049.2 51689.2 Q 45033.2 52130.8 45868.4 52648 L 49088 52648 L 49088 63461.2 Q 49088 64714 48252.8 65058.4 Q 47565.2 65354.8 44934.8 65354.8 Q 44811.2 64567.6 44442.8 63829.6 Q 45033.2 63854.8 46924.4 63854.8 Q 47342 63854.8 47342 63437.2 L 47342 61200.4 L 43066.4 61200.4 L 43066.4 65207.2 L 41420 65207.2 L 41420 61200.4 L 37316 61200.4 L 37316 65304.4 L 37314.8 65302 Z M 32447.6 52720 Q 31145.6 51024.4 28270.4 48517.6 L 29548.4 47485.6 Q 32547.2 49967.2 33776 51516.4 L 32447.6 52721.2 L 32447.6 52720 Z M 32964.8 64368.4 Q 33185.6 64492 33750.8 64909.6 Q 34390.4 65352.4 34832 65622.4 Q 36798.8 66826 41272.4 66826 Q 45573.2 66826 50339.6 66360.4 Q 49898 67416.4 49824.8 68154.4 Q 45597.2 68399.2 41223.2 68399.2 Q 36676.4 68399.2 34464.8 67049.2 Q 32178.8 65647.6 32081.6 65647.6 Q 31098.8 65647.6 28812.8 68695.6 L 27657.2 67196.8 Q 29844.8 64886.8 31197.2 64321.6 L 31197.2 57390.4 L 27756.8 57390.4 L 27756.8 55670.8 L 32966 55670.8 L 32966 64369.6 L 32964.8 64368.4 Z M 68870 52646.8 L 59433.2 52646.8 L 59433.2 50900.8 L 68870 50900.8 L 68870 46600 L 70688 46600 L 70688 50900.8 L 74080.4 50900.8 L 74080.4 52646.8 L 70688 52646.8 L 70688 62353.6 Q 70688 64024 69508.4 64393.6 Q 68525.6 64738 64863.2 64738 Q 64739.6 63877.6 64224.8 62894.8 Q 65994.8 62944 68206.4 62944 Q 68870 62918.8 68870 62353.6 L 68870 52646.8 Z M 62038.4 54587.2 Q 64667.6 57806.8 65552 59380 L 64005.2 60314.8 Q 62776.4 58030 60588.8 55375.6 L 62038.4 54588.4 L 62038.4 54587.2 Z M 56853.2 52302.4 Q 55721.6 50386 53240 48100 L 54640.4 47165.2 Q 57270.8 49574.8 58352 51245.2 L 56853.2 52302.4 Z M 57688.4 63902.8 Q 57861.2 64000 58450.4 64441.6 Q 59040.8 64860.4 59507.6 65154.4 Q 61398.8 66334 65896.4 66334 Q 70296.8 66334 74818.4 65867.2 Q 74301.2 66924.4 74253.2 67832.8 Q 70763.6 68078.8 65848.4 68078.8 Q 61203.2 68078.8 59090 66726.4 Q 56804 65276.8 56730.8 65276.8 Q 55822.4 65276.8 53486 68396.8 L 52209.2 66677.2 Q 54346.4 64367.2 55895.6 63778 L 55895.6 57388 L 52527.2 57388 L 52527.2 55668.4 L 57688.4 55668.4 L 57688.4 63901.6 L 57688.4 63902.8 Z M 85730 65770 Q 85042.4 64220.8 83517.2 61788.4 Q 81380 66310 78062 68939.2 Q 77326.4 67883.2 76736 67513.6 Q 80176.4 64982.8 82316 59970.4 Q 79955.6 56431.6 77670.8 53753.2 L 79023.2 52745.2 Q 81210.8 55350.4 83127.2 57955.6 Q 84380 54368.8 84945.2 50165.2 L 77448.8 50165.2 L 77448.8 48421.6 L 85412 48421.6 L 85706 48348.4 L 86861.6 48666.4 Q 86247.2 55056.4 84404 59750.8 Q 86396 62675.2 87279.2 64542.4 L 85732.4 65771.2 L 85730 65770 Z M 90275.6 50162.8 Q 91086.8 56110 92955.2 60190 Q 95363.6 55938.4 96298.4 50162.8 L 90275.6 50162.8 Z M 98288 48689.2 Q 97280 56873.2 93962 62156.8 Q 96075.2 65746 99320 67489.6 Q 98656.4 68006.8 98018 69013.6 Q 94872.8 67146.4 92807.6 63828.4 Q 90375.2 67000 86885.6 68940.4 Q 86368.4 67933.6 85656.8 67392.4 Q 89270 65622.4 91800.8 61984 Q 89661.2 57535.6 88505.6 50162.8 L 87916.4 50162.8 L 87916.4 48419.2 L 96788 48419.2 L 97106 48346 L 98286.8 48690.4 L 98288 48689.2 Z M 116056.4 50189.2 Q 116891.6 51392.8 118169.6 52424.8 Q 119571.2 51245.2 120430.4 49819.6 L 116350.4 49819.6 L 116056.4 50189.2 Z M 122618 48886 Q 121635.2 51416.8 119471.6 53308 Q 121511.6 54562 123699.2 55052.8 Q 123108.8 55618 122691.2 56429.2 Q 120282.8 55717.6 118242.8 54242.8 Q 116153.6 55741.6 113327.6 56576.8 Q 112934 55765.6 112443.2 55250.8 Q 114924.8 54636.4 117014 53260 Q 116105.6 52399.6 115170.8 51146.8 Q 114432.8 51884.8 113597.6 52523.2 Q 113204 51932.8 112565.6 51294.4 Q 115367.6 49378 116720 46429.6 L 118169.6 46847.2 Q 117899.6 47558.8 117309.2 48467.2 L 121265.6 48467.2 L 121586 48394 L 122618 48887.2 L 122618 48886 Z M 117334.4 66137.2 L 117334.4 63901.6 L 112886 63901.6 L 112886 62573.2 L 117334.4 62573.2 L 117334.4 61000 L 113819.6 61000 L 113819.6 59747.2 L 117334.4 59747.2 L 117334.4 58370.8 L 113351.6 58370.8 L 113351.6 57066.4 L 117334.4 57066.4 L 117334.4 55690 L 119004.8 55690 L 119004.8 57066.4 L 122691.2 57066.4 L 122691.2 58370.8 L 119004.8 58370.8 L 119004.8 59747.2 L 122102 59747.2 L 122102 61000 L 119004.8 61000 L 119004.8 62573.2 L 123134 62573.2 L 123134 63901.6 L 119004.8 63901.6 L 119004.8 66137.2 L 117334.4 66137.2 Z M 110550.8 52964.8 Q 110009.6 50974 108756.8 47927.2 L 110158.4 47460.4 Q 111411.2 50335.6 112049.6 52375.6 L 110550.8 52964.8 Z M 108707.6 59405.2 Q 108683.6 59896 108683.6 60928 Q 102687.2 62132.8 102048.8 62501.2 Q 101778.8 61592.8 101484.8 60905.2 Q 102074 60781.6 103131.2 59332 Q 104039.6 58200.4 105244.4 56087.2 Q 102293.6 56480.8 101876 56701.6 Q 101606 55742.8 101288 55031.2 Q 101754.8 54907.6 102564.8 53482 Q 104360 50360.8 105392 46526.8 L 107135.6 47264.8 Q 105612.8 51492.4 103598 54785.2 L 106176.8 54491.2 Q 107160.8 52598.8 107478.8 51836.8 L 108977.6 52672 Q 106619.6 57293.2 104333.6 60217.6 L 108707.6 59406.4 L 108707.6 59405.2 Z M 109126.4 64982.8 Q 102736.4 67048 101876 67342 L 101458.4 65572 Q 104112.8 64933.6 108831.2 63532 L 109127.6 64981.6 L 109126.4 64982.8 Z M 112049.6 64787.2 Q 112271.6 64908.4 112713.2 65252.8 Q 113230.4 65695.6 113524.4 65892.4 Q 115047.2 66924.4 118046 66924.4 Q 121314.8 66924.4 123872 66580 Q 123526.4 67538.8 123478.4 68324.8 Q 120873.2 68521.6 117996.8 68521.6 Q 115000.4 68521.6 113205.2 67318 Q 111558.8 66040 111314 66040 Q 110526.8 66040 108756.8 68791.6 L 107748.8 67292.8 Q 109322 65352.4 110477.6 64787.2 L 110477.6 56848 L 108290 56848 L 108290 55301.2 L 112049.6 55301.2 L 112049.6 64787.2 Z " fill-rule="nonzero" style="fill:#ffffff;;fill-opacity:1;"/>
</svg>