<svg version="1.1" x="0" y="0" width="100%" height="100%" viewBox="0 0 381696 77004.8" xmlns="http://www.w3.org/2000/svg">
  <path d="M 23625.2 11571.2 Q 21905.6 15036.8 20111.6 17642 L 18538.4 17003.6 Q 20405.6 14225.6 21707.6 10907.6 L 23624 11571.2 L 23625.2 11571.2 Z M 8241.2 17469.2 Q 7380.8 14816 5120 11792 L 6717.2 11129.6 Q 8979.2 13955.6 9986 16707.2 L 8242.4 17469.2 L 8241.2 17469.2 Z M 15294.8 18698 L 23306 18698 L 23306 32511.2 L 21414.8 32511.2 L 21414.8 31430 L 4973.6 31430 L 4973.6 29636 L 21414.8 29636 L 21414.8 25826 L 6251.6 25826 L 6251.6 24056 L 21414.8 24056 L 21414.8 20493.2 L 5440.4 20493.2 L 5440.4 18698 L 13328 18698 L 13328 10048.4 L 15294.8 10048.4 L 15294.8 18698 Z M 31269.2 20517.2 L 31269.2 27766.4 L 33972.8 27766.4 L 33972.8 20517.2 L 31269.2 20517.2 Z M 31269.2 29412.8 L 31269.2 31379.6 L 29696 31379.6 L 29696 22508 Q 29081.6 23663.6 28418 24498.8 Q 28100 23418.8 27582.8 22558.4 Q 29892.8 19386.8 31022 13047.2 L 28098.8 13047.2 L 28098.8 11351.6 L 36281.6 11351.6 L 36281.6 13047.2 L 32744 13047.2 Q 32177.6 16119.2 31245.2 18894.8 L 35520.8 18894.8 L 35520.8 29412.8 L 31269.2 29412.8 Z M 47586.8 24964.4 L 47586.8 22040 L 44073.2 22040 L 44073.2 24964.4 L 47586.8 24964.4 Z M 42425.6 24964.4 L 42425.6 22040 L 39232.4 22040 L 39232.4 22778 Q 39232.4 23859.2 39159.2 24964.4 L 42426.8 24964.4 L 42425.6 24964.4 Z M 40337.6 13635.2 Q 39526.4 15160.4 38715.2 16289.6 L 42918.8 16289.6 Q 43950.8 15036.8 44712.8 13635.2 L 40338.8 13635.2 L 40337.6 13635.2 Z M 39232.4 20566.4 L 42425.6 20566.4 L 42425.6 17862.8 L 39232.4 17862.8 L 39232.4 20566.4 Z M 47586.8 17862.8 L 44073.2 17862.8 L 44073.2 20566.4 L 47586.8 20566.4 L 47586.8 17862.8 Z M 49332.8 30297.2 Q 49332.8 31625.6 48521.6 31994 Q 47907.2 32288 45350 32288 Q 45252.8 31478 44883.2 30666.8 Q 46578.8 30740 47193.2 30690.8 Q 47586.8 30690.8 47586.8 30273.2 L 47586.8 26562.8 L 44073.2 26562.8 L 44073.2 31599.2 L 42425.6 31599.2 L 42425.6 26562.8 L 38961.2 26562.8 Q 38346.8 30370.4 36281.6 32534 Q 35692.4 31870.4 34881.2 31502 Q 37535.6 28724 37535.6 22776.8 L 37535.6 17788.4 Q 36848 18550.4 36306.8 19067.6 Q 35937.2 18428 35201.6 17692.4 Q 38494.4 14792 40190 9976.4 L 41787.2 10394 L 41099.6 12089.6 L 45768.8 12089.6 L 46038.8 12014 L 47194.4 12801.2 Q 46383.2 14423.6 44860.4 16290.8 L 49334 16290.8 L 49334 30298.4 L 49332.8 30297.2 Z M 55083.2 18156.8 L 53289.2 18156.8 L 53289.2 12824 L 62823.2 12824 Q 62356.4 11620.4 61694 10415.6 L 63464 9900.8 Q 64446.8 11571.2 64913.6 12824 L 73662.8 12824 L 73662.8 18156.8 L 71819.6 18156.8 L 71819.6 14570 L 55083.2 14570 L 55083.2 18156.8 Z M 64396.4 29979.2 Q 65994.8 30297.2 68427.2 30297.2 Q 73515.2 30297.2 74694.8 30249.2 Q 74204 31035.2 74007.2 32092.4 L 68330 32092.4 Q 64126.4 32092.4 61742 31133.6 Q 58892 29978 57318.8 27027.2 Q 56040.8 30518 53656.4 32582 Q 53018 31844 52181.6 31326.8 Q 55893.2 28476.8 56777.6 21324.8 L 58595.6 21521.6 Q 58398.8 23094.8 58030.4 24692 Q 59308.4 28254.8 62528 29483.6 L 62528 19335.2 L 56433.2 19335.2 L 56433.2 17589.2 L 70661.6 17589.2 L 70661.6 19335.2 L 64394 19335.2 L 64394 23339.6 L 71669.6 23339.6 L 71669.6 25061.6 L 64394 25061.6 L 64394 29976.8 L 64396.4 29979.2 Z M 93446 30100.4 Q 94871.6 30100.4 95313.2 29388.8 Q 95706.8 28725.2 95903.6 26243.6 Q 96738.8 26784.8 97721.6 27005.6 Q 97452.8 29930 96665.6 30888.8 Q 95830.4 31896.8 93470 31896.8 L 85876.4 31896.8 Q 83271.2 31896.8 82336.4 31233.2 Q 81401.6 30545.6 81401.6 28578.8 L 81401.6 17543.6 L 83270 17543.6 L 83270 23098.4 Q 90176 21206 93592.4 19289.6 L 95091.2 20715.2 Q 91110.8 22706 83271.2 24746 L 83271.2 28580 Q 83271.2 29514.8 83762 29808.8 Q 84228.8 30102.8 85851.2 30102.8 L 93444.8 30102.8 L 93446 30100.4 Z M 98042 13365.2 L 98042 18428 L 96174.8 18428 L 96174.8 15135.2 L 79782.8 15135.2 L 79782.8 18428 L 77987.6 18428 L 77987.6 13365.2 L 87646.4 13365.2 Q 87179.6 11939.6 86244.8 10366.4 L 88014.8 9875.6 Q 89243.6 11915.6 89686.4 13268 L 89366 13365.2 L 98040.8 13365.2 L 98042 13365.2 Z M 118390.4 30003.2 Q 120357.2 30003.2 120971.6 29094.8 Q 121536.8 28258.4 121806.8 25235.6 Q 122594 25776.8 123650 25973.6 Q 123281.6 29463.2 122346.8 30568.4 Q 121290.8 31797.2 118366.4 31797.2 L 109174.4 31797.2 Q 106175.6 31797.2 105119.6 31085.6 Q 104014.4 30323.6 104014.4 28086.8 L 104014.4 15798.8 L 105857.6 15798.8 L 105857.6 19829.6 L 118686.8 19829.6 L 118686.8 13391.6 L 102712.4 13391.6 L 102712.4 11596.4 L 120554 11596.4 L 120554 22852.4 L 118686.8 22852.4 L 118686.8 21623.6 L 105857.6 21623.6 L 105857.6 28112 Q 105857.6 29267.6 106472 29637.2 Q 107061.2 30005.6 109052 30005.6 L 118391.6 30005.6 L 118390.4 30003.2 Z M 147563.6 21574.4 Q 145253.6 20025.2 141222.8 18255.2 Q 138322.4 20295.2 134856.8 21597.2 Q 134366 20712.8 133751.6 20098.4 Q 140657.6 17764.4 143975.6 13046 L 135350 13046 L 135350 11350.4 L 145155.2 11350.4 L 145475.6 11277.2 L 146777.6 11988.8 Q 145425.2 14740.4 142649.6 17124.8 Q 146728.4 18894.8 148596.8 20075.6 L 147564.8 21574.4 L 147563.6 21574.4 Z M 134267.6 22703.6 Q 134194.4 23490.8 134242.4 24326 Q 127288.4 25726.4 126598.4 26096 Q 126426.8 25284.8 126009.2 24376.4 Q 126623.6 24227.6 127925.6 22778 Q 128834 21869.6 130553.6 19509.2 Q 126916.4 20000 126449.6 20246 Q 126228.8 19337.6 125835.2 18477.2 Q 126352.4 18380 127287.2 16978.4 Q 129400.4 13955.6 130750.4 10048.4 L 132496.4 10859.6 Q 130629.2 15036.8 128367.2 18182 L 131735.6 17812.4 Q 132497.6 16683.2 133332.8 15184.4 L 134931.2 16192.4 Q 132153.2 20614.4 129401.6 23565.2 L 134267.6 22704.8 L 134267.6 22703.6 Z M 134390 28847.6 L 126377.6 30960.8 L 126009.2 29141.6 Q 128000 28724 134193.2 27274.4 L 134390 28847.6 Z M 142204.4 30100.4 L 148472 30100.4 L 148472 31822.4 L 134070.8 31822.4 L 134070.8 30100.4 L 140411.6 30100.4 L 140411.6 24153.2 L 135569.6 24153.2 L 135569.6 22457.6 L 147316.4 22457.6 L 147316.4 24153.2 L 142204.4 24153.2 L 142204.4 30100.4 Z M 160194.8 17591.6 L 160194.8 19755.2 L 164298.8 19755.2 L 164298.8 17591.6 L 160194.8 17591.6 Z M 165945.2 17591.6 L 165945.2 19755.2 L 170220.8 19755.2 L 170220.8 17591.6 L 165945.2 17591.6 Z M 170220.8 23342 L 170220.8 21106.4 L 165945.2 21106.4 L 165945.2 23342 L 170220.8 23342 Z M 164298.8 23342 L 164298.8 21106.4 L 160194.8 21106.4 L 160194.8 23342 L 164298.8 23342 Z M 160194.8 28847.6 L 158448.8 28847.6 L 158448.8 16191.2 L 165404 16191.2 Q 162873.2 14937.2 160636.4 14102 L 161768 13070 Q 163341.2 13635.2 165332 14495.6 Q 167027.6 13684.4 168797.6 12406.4 L 158474 12406.4 L 158474 10956.8 L 170468 10956.8 L 170836.4 10859.6 L 171944 11718.8 Q 169928 13685.6 166929.2 15234.8 Q 167913.2 15676.4 168748.4 16193.6 L 171968 16193.6 L 171968 27006.8 Q 171968 28259.6 171132.8 28604 Q 170445.2 28900.4 167814.8 28900.4 Q 167691.2 28113.2 167322.8 27375.2 Q 167913.2 27400.4 169804.4 27400.4 Q 170222 27400.4 170222 26982.8 L 170222 24746 L 165946.4 24746 L 165946.4 28752.8 L 164300 28752.8 L 164300 24746 L 160196 24746 L 160196 28850 L 160194.8 28847.6 Z M 155327.6 16265.6 Q 154025.6 14570 151150.4 12063.2 L 152428.4 11031.2 Q 155427.2 13512.8 156656 15062 L 155327.6 16266.8 L 155327.6 16265.6 Z M 155844.8 27914 Q 156065.6 28037.6 156630.8 28455.2 Q 157270.4 28898 157712 29168 Q 159678.8 30371.6 164152.4 30371.6 Q 168453.2 30371.6 173219.6 29906 Q 172778 30962 172704.8 31700 Q 168477.2 31944.8 164103.2 31944.8 Q 159556.4 31944.8 157344.8 30594.8 Q 155058.8 29193.2 154961.6 29193.2 Q 153978.8 29193.2 151692.8 32241.2 L 150537.2 30742.4 Q 152724.8 28432.4 154077.2 27867.2 L 154077.2 20936 L 150636.8 20936 L 150636.8 19216.4 L 155846 19216.4 L 155846 27915.2 L 155844.8 27914 Z M 191750 16192.4 L 182313.2 16192.4 L 182313.2 14446.4 L 191750 14446.4 L 191750 10145.6 L 193568 10145.6 L 193568 14446.4 L 196960.4 14446.4 L 196960.4 16192.4 L 193568 16192.4 L 193568 25899.2 Q 193568 27569.6 192388.4 27939.2 Q 191405.6 28283.6 187743.2 28283.6 Q 187619.6 27423.2 187104.8 26440.4 Q 188874.8 26489.6 191086.4 26489.6 Q 191750 26464.4 191750 25899.2 L 191750 16192.4 Z M 184918.4 18132.8 Q 187547.6 21352.4 188432 22925.6 L 186885.2 23860.4 Q 185656.4 21575.6 183468.8 18921.2 L 184918.4 18134 L 184918.4 18132.8 Z M 179733.2 15848 Q 178601.6 13931.6 176120 11645.6 L 177520.4 10710.8 Q 180150.8 13120.4 181232 14790.8 L 179733.2 15848 Z M 180568.4 27448.4 Q 180741.2 27545.6 181330.4 27987.2 Q 181920.8 28406 182387.6 28700 Q 184278.8 29879.6 188776.4 29879.6 Q 193176.8 29879.6 197698.4 29412.8 Q 197181.2 30470 197133.2 31378.4 Q 193643.6 31624.4 188728.4 31624.4 Q 184083.2 31624.4 181970 30272 Q 179684 28822.4 179610.8 28822.4 Q 178702.4 28822.4 176366 31942.4 L 175089.2 30222.8 Q 177226.4 27912.8 178775.6 27323.6 L 178775.6 20933.6 L 175407.2 20933.6 L 175407.2 19214 L 180568.4 19214 L 180568.4 27447.2 L 180568.4 27448.4 Z M 208610 29315.6 Q 207922.4 27766.4 206397.2 25334 Q 204260 29855.6 200942 32484.8 Q 200206.4 31428.8 199616 31059.2 Q 203056.4 28528.4 205196 23516 Q 202835.6 19977.2 200550.8 17298.8 L 201903.2 16290.8 Q 204090.8 18896 206007.2 21501.2 Q 207260 17914.4 207825.2 13710.8 L 200328.8 13710.8 L 200328.8 11967.2 L 208292 11967.2 L 208586 11894 L 209741.6 12212 Q 209127.2 18602 207284 23296.4 Q 209276 26220.8 210159.2 28088 L 208612.4 29316.8 L 208610 29315.6 Z M 213155.6 13708.4 Q 213966.8 19655.6 215835.2 23735.6 Q 218243.6 19484 219178.4 13708.4 L 213155.6 13708.4 Z M 221168 12234.8 Q 220160 20418.8 216842 25702.4 Q 218955.2 29291.6 222200 31035.2 Q 221536.4 31552.4 220898 32559.2 Q 217752.8 30692 215687.6 27374 Q 213255.2 30545.6 209765.6 32486 Q 209248.4 31479.2 208536.8 30938 Q 212150 29168 214680.8 25529.6 Q 212541.2 21081.2 211385.6 13708.4 L 210796.4 13708.4 L 210796.4 11964.8 L 219668 11964.8 L 219986 11891.6 L 221166.8 12236 L 221168 12234.8 Z M 238936.4 13734.8 Q 239771.6 14938.4 241049.6 15970.4 Q 242451.2 14790.8 243310.4 13365.2 L 239230.4 13365.2 L 238936.4 13734.8 Z M 245498 12431.6 Q 244515.2 14962.4 242351.6 16853.6 Q 244391.6 18107.6 246579.2 18598.4 Q 245988.8 19163.6 245571.2 19974.8 Q 243162.8 19263.2 241122.8 17788.4 Q 239033.6 19287.2 236207.6 20122.4 Q 235814 19311.2 235323.2 18796.4 Q 237804.8 18182 239894 16805.6 Q 238985.6 15945.2 238050.8 14692.4 Q 237312.8 15430.4 236477.6 16068.8 Q 236084 15478.4 235445.6 14840 Q 238247.6 12923.6 239600 9975.2 L 241049.6 10392.8 Q 240779.6 11104.4 240189.2 12012.8 L 244145.6 12012.8 L 244466 11939.6 L 245498 12432.8 L 245498 12431.6 Z M 240214.4 29682.8 L 240214.4 27447.2 L 235766 27447.2 L 235766 26118.8 L 240214.4 26118.8 L 240214.4 24545.6 L 236699.6 24545.6 L 236699.6 23292.8 L 240214.4 23292.8 L 240214.4 21916.4 L 236231.6 21916.4 L 236231.6 20612 L 240214.4 20612 L 240214.4 19235.6 L 241884.8 19235.6 L 241884.8 20612 L 245571.2 20612 L 245571.2 21916.4 L 241884.8 21916.4 L 241884.8 23292.8 L 244982 23292.8 L 244982 24545.6 L 241884.8 24545.6 L 241884.8 26118.8 L 246014 26118.8 L 246014 27447.2 L 241884.8 27447.2 L 241884.8 29682.8 L 240214.4 29682.8 Z M 233430.8 16510.4 Q 232889.6 14519.6 231636.8 11472.8 L 233038.4 11006 Q 234291.2 13881.2 234929.6 15921.2 L 233430.8 16510.4 Z M 231587.6 22950.8 Q 231563.6 23441.6 231563.6 24473.6 Q 225567.2 25678.4 224928.8 26046.8 Q 224658.8 25138.4 224364.8 24450.8 Q 224954 24327.2 226011.2 22877.6 Q 226919.6 21746 228124.4 19632.8 Q 225173.6 20026.4 224756 20247.2 Q 224486 19288.4 224168 18576.8 Q 224634.8 18453.2 225444.8 17027.6 Q 227240 13906.4 228272 10072.4 L 230015.6 10810.4 Q 228492.8 15038 226478 18330.8 L 229056.8 18036.8 Q 230040.8 16144.4 230358.8 15382.4 L 231857.6 16217.6 Q 229499.6 20838.8 227213.6 23763.2 L 231587.6 22952 L 231587.6 22950.8 Z M 232006.4 28528.4 Q 225616.4 30593.6 224756 30887.6 L 224338.4 29117.6 Q 226992.8 28479.2 231711.2 27077.6 L 232007.6 28527.2 L 232006.4 28528.4 Z M 234929.6 28332.8 Q 235151.6 28454 235593.2 28798.4 Q 236110.4 29241.2 236404.4 29438 Q 237927.2 30470 240926 30470 Q 244194.8 30470 246752 30125.6 Q 246406.4 31084.4 246358.4 31870.4 Q 243753.2 32067.2 240876.8 32067.2 Q 237880.4 32067.2 236085.2 30863.6 Q 234438.8 29585.6 234194 29585.6 Q 233406.8 29585.6 231636.8 32337.2 L 230628.8 30838.4 Q 232202 28898 233357.6 28332.8 L 233357.6 20393.6 L 231170 20393.6 L 231170 18846.8 L 234929.6 18846.8 L 234929.6 28332.8 Z M 260613.2 14889.2 Q 259875.2 13290.8 258056 10760 L 259629.2 9948.8 Q 261572 12406.4 262283.6 13931.6 L 260613.2 14890.4 L 260613.2 14889.2 Z M 269091.2 15724.4 Q 264102.8 23146.4 255598.4 28406 Q 255992 28700 256236.8 28847.6 Q 258056 30003.2 262529.6 30003.2 Q 267124.4 30003.2 271376 29561.6 Q 270885.2 30617.6 270836 31526 Q 266831.6 31796 262457.6 31796 Q 257960 31796 255870.8 30470 Q 253634 29044.4 253560.8 29044.4 Q 252628.4 29044.4 250464.8 32092.4 L 249112.4 30420.8 Q 251963.6 27324.8 253586 27324.8 Q 253707.2 27324.8 253904 27372.8 Q 261203.6 23147.6 265971.2 16683.2 L 250365.2 16683.2 L 250365.2 14913.2 L 267323.6 14913.2 L 267717.2 14789.6 L 269093.6 15724.4 L 269091.2 15724.4 Z M 281894 23786 L 281894 29561.6 L 292044.8 29561.6 L 292044.8 23786 L 281894 23786 Z M 280077.2 22065.2 L 293938.4 22065.2 L 293938.4 32484.8 L 292046 32484.8 L 292046 31256 L 281895.2 31256 L 281895.2 32534 L 280077.2 32534 L 280077.2 22065.2 Z M 295755.2 16806.8 L 295755.2 18576.8 L 278010.8 18576.8 Q 278010.8 27940.4 274767.2 32559.2 Q 274079.6 31700 273268.4 31306.4 Q 276143.6 27251.6 276143.6 18576.8 L 276143.6 12260 Q 287375.6 11548.4 292511.6 10270.4 L 294034.4 11720 Q 288407.6 13096.4 278010.8 13784 L 278010.8 16808 L 295755.2 16808 L 295755.2 16806.8 Z M 300278 31943.6 Q 303201.2 30740 303374 28331.6 Q 303226.4 28355.6 302956.4 28355.6 Q 302169.2 28355.6 301654.4 27912.8 Q 301113.2 27447.2 301113.2 26610.8 Q 301113.2 25775.6 301678.4 25284.8 Q 302195.6 24842 302981.6 24842 Q 305070.8 24842 305070.8 27669.2 Q 305070.8 31749.2 300819.2 33248 L 300278 31943.6 Z M 341984 11350.4 Q 341934.8 19361.6 342155.6 22506.8 Q 342476 26980.4 343508 26980.4 Q 343949.6 26980.4 344049.2 23784.8 Q 344614.4 24596 345179.6 25037.6 Q 345008 27201.2 344663.6 27963.2 Q 344270 28798.4 343335.2 28798.4 Q 341320.4 28798.4 340706 24570.8 Q 340263.2 21671.6 340190 13020.8 L 329597.6 13020.8 L 329597.6 11350.4 L 341985.2 11350.4 L 341984 11350.4 Z M 333530 20836.4 L 329204 20836.4 L 329204 19190 L 333530 19190 L 333530 13781.6 L 335300 13781.6 L 335300 19190 L 339354.8 19190 L 339354.8 20836.4 L 335300 20836.4 L 335300 29068.4 L 333530 29068.4 L 333530 20836.4 Z M 326968.4 16068.8 Q 325763.6 14078 323109.2 11890.4 L 324485.6 10906.4 Q 327312.8 13216.4 328442 14936 L 326968.4 16067.6 L 326968.4 16068.8 Z M 328048.4 28184 Q 327852.8 28110.8 330137.6 29439.2 Q 331907.6 30495.2 336281.6 30495.2 Q 341220.8 30495.2 345203.6 30053.6 Q 344686.4 31182.8 344662.4 31944.8 Q 340509.2 32214.8 336257.6 32214.8 Q 331883.6 32214.8 329794.4 31011.2 Q 327730.4 29733.2 327557.6 29733.2 Q 326428.4 29733.2 323945.6 32484.8 L 322742 30938 Q 324782 29021.6 326304.8 28382 L 326304.8 21132.8 L 322715.6 21132.8 L 322715.6 19413.2 L 328048.4 19413.2 L 328048.4 28186.4 L 328048.4 28184 Z M 356630 20787.2 L 360513.2 20787.2 L 360513.2 17666 L 356630 17666 L 356630 20787.2 Z M 362307.2 17666 L 362307.2 20787.2 L 366363.2 20787.2 L 366363.2 17666 L 362307.2 17666 Z M 360513.2 23638.4 Q 358128.8 26980.4 354860 28626.8 Q 354294.8 27742.4 353680.4 27251.6 Q 357366.8 25702.4 359724.8 22262 L 354933.2 22262 L 354933.2 16215.2 L 360512 16215.2 L 360512 14200.4 L 353974.4 14200.4 L 353974.4 12602 L 360512 12602 L 360512 10095.2 L 362306 10095.2 L 362306 12602 L 369237.2 12602 L 369237.2 14200.4 L 362306 14200.4 L 362306 16215.2 L 368132 16215.2 L 368132 22262 L 362896.4 22262 Q 366976.4 25088 368819.6 27004.4 L 367638.8 28233.2 Q 365747.6 26169.2 362306 23686.4 L 362306 29364.8 L 360512 29364.8 L 360512 23638.4 L 360513.2 23638.4 Z M 351665.6 16240.4 Q 350609.6 14643.2 347882 12012.8 L 349234.4 11054 Q 351815.6 13290.8 353117.6 15134 L 351666.8 16239.2 L 351665.6 16240.4 Z M 352697.6 28184 Q 352967.6 28307.6 353508.8 28677.2 Q 354196.4 29118.8 354590 29339.6 Q 356482.4 30371.6 360880.4 30371.6 Q 365598.8 30371.6 369654.8 29954 Q 369212 31011.2 369138.8 31773.2 Q 365600 32019.2 360833.6 32019.2 Q 356286.8 32019.2 354197.6 30814.4 Q 352060.4 29512.4 351839.6 29512.4 Q 350782.4 29512.4 348350 32314.4 L 347218.4 30791.6 Q 349479.2 28628 350930 28110.8 L 350930 20493.2 L 347364.8 20493.2 L 347364.8 18771.2 L 352697.6 18771.2 L 352697.6 28184 Z M 11091.2 52080.4 L 5931.2 52080.4 L 5931.2 57217.6 L 11091.2 57217.6 L 11091.2 52080.4 Z M 11091.2 64738 L 11091.2 58838.8 L 5931.2 58838.8 L 5931.2 64738 L 11091.2 64738 Z M 9962 46820.8 Q 8880.8 49918 8684 50432.8 L 12764 50432.8 L 12764 66383.2 L 5932.4 66383.2 L 5932.4 68323.6 L 4260.8 68323.6 L 4260.8 50432.8 L 7014.8 50432.8 Q 7752.8 48048.4 7997.6 46451.2 L 9964.4 46819.6 L 9962 46820.8 Z M 24780.8 51294.4 Q 24263.6 66040 23084 67489.6 Q 22396.4 68350 21143.6 68473.6 Q 20135.6 68594.8 17505.2 68447.2 Q 17408 67439.2 16890.8 66653.2 Q 18489.2 66800.8 20529.2 66800.8 Q 21240.8 66800.8 21534.8 66432.4 Q 22592 65300.8 23033.6 52054 L 16792.4 52054 Q 15660.8 54781.6 14481.2 56354.8 Q 14160.8 56060.8 12981.2 55322.8 Q 15389.6 52151.2 16742 46400.8 L 18488 46818.4 Q 18021.2 48734.8 17430.8 50357.2 L 24779.6 50357.2 L 24779.6 51292 L 24780.8 51294.4 Z M 19348.4 62377.6 Q 18219.2 60092.8 15614 56700.4 L 17039.6 55865.2 Q 19742 59305.6 20897.6 61418.8 L 19348.4 62377.6 Z M 43115.6 66654.4 L 49604 66654.4 L 49604 68374 L 34833.2 68374 L 34833.2 66654.4 L 41297.6 66654.4 L 41297.6 59748.4 L 35792 59748.4 L 35792 58028.8 L 41297.6 58028.8 L 41297.6 53334.4 L 43116.8 53334.4 L 43116.8 58028.8 L 48646.4 58028.8 L 48646.4 59748.4 L 43116.8 59748.4 L 43116.8 66654.4 L 43115.6 66654.4 Z M 49602.8 50310.4 L 49602.8 52056.4 L 36207.2 52056.4 Q 34830.8 54907.6 33233.6 57068.8 L 33233.6 68866 L 31439.6 68866 L 31439.6 59232.4 Q 30234.8 60534.4 28588.4 61715.2 Q 28318.4 60952 27654.8 60067.6 Q 31611.2 57265.6 34142 52056.4 L 28244 52056.4 L 28244 50310.4 L 34953.2 50310.4 Q 35715.2 48443.2 36256.4 46502.8 L 38123.6 46969.6 Q 37706 48394 36944 50310.4 L 49601.6 50310.4 L 49602.8 50310.4 Z M 60710 60240.4 L 60710 66016 L 70860.8 66016 L 70860.8 60240.4 L 60710 60240.4 Z M 58893.2 58519.6 L 72754.4 58519.6 L 72754.4 68939.2 L 70862 68939.2 L 70862 67710.4 L 60711.2 67710.4 L 60711.2 68988.4 L 58893.2 68988.4 L 58893.2 58519.6 Z M 74571.2 53261.2 L 74571.2 55031.2 L 56826.8 55031.2 Q 56826.8 64394.8 53583.2 69013.6 Q 52895.6 68154.4 52084.4 67760.8 Q 54959.6 63706 54959.6 55031.2 L 54959.6 48714.4 Q 66191.6 48002.8 71327.6 46724.8 L 72850.4 48174.4 Q 67223.6 49550.8 56826.8 50238.4 L 56826.8 53262.4 L 74571.2 53262.4 L 74571.2 53261.2 Z M 95878.4 54660.4 L 92192 54660.4 L 92192 65965.6 L 95878.4 65965.6 L 95878.4 54660.4 Z M 80174 65966.8 L 83664.8 65966.8 L 83664.8 54661.6 L 80174 54661.6 L 80174 65966.8 Z M 90521.6 54660.4 L 85336.4 54660.4 L 85336.4 57364 L 90521.6 57364 L 90521.6 54660.4 Z M 85336.4 65966.8 L 90521.6 65966.8 L 90521.6 63115.6 L 85336.4 63115.6 L 85336.4 65966.8 Z M 90521.6 58864 L 85336.4 58864 L 85336.4 61615.6 L 90521.6 61615.6 L 90521.6 58864 Z M 88826 49892.8 Q 88359.2 51539.2 87868.4 52964.8 L 97722.8 52964.8 L 97722.8 68964.4 L 95879.6 68964.4 L 95879.6 67662.4 L 80175.2 67662.4 L 80175.2 68964.4 L 78407.6 68964.4 L 78407.6 52964.8 L 86001.2 52964.8 Q 86345.6 51761.2 86714 49892.8 L 77301.2 49892.8 L 77301.2 48149.2 L 98904.8 48149.2 L 98904.8 49892.8 L 88828.4 49892.8 L 88826 49892.8 Z M 109395.2 52080.4 L 104235.2 52080.4 L 104235.2 57217.6 L 109395.2 57217.6 L 109395.2 52080.4 Z M 109395.2 64738 L 109395.2 58838.8 L 104235.2 58838.8 L 104235.2 64738 L 109395.2 64738 Z M 108266 46820.8 Q 107184.8 49918 106988 50432.8 L 111068 50432.8 L 111068 66383.2 L 104236.4 66383.2 L 104236.4 68323.6 L 102564.8 68323.6 L 102564.8 50432.8 L 105318.8 50432.8 Q 106056.8 48048.4 106301.6 46451.2 L 108268.4 46819.6 L 108266 46820.8 Z M 123084.8 51294.4 Q 122567.6 66040 121388 67489.6 Q 120700.4 68350 119447.6 68473.6 Q 118439.6 68594.8 115809.2 68447.2 Q 115712 67439.2 115194.8 66653.2 Q 116793.2 66800.8 118833.2 66800.8 Q 119544.8 66800.8 119838.8 66432.4 Q 120896 65300.8 121337.6 52054 L 115096.4 52054 Q 113964.8 54781.6 112785.2 56354.8 Q 112464.8 56060.8 111285.2 55322.8 Q 113693.6 52151.2 115046 46400.8 L 116792 46818.4 Q 116325.2 48734.8 115734.8 50357.2 L 123083.6 50357.2 L 123083.6 51292 L 123084.8 51294.4 Z M 117652.4 62377.6 Q 116523.2 60092.8 113918 56700.4 L 115343.6 55865.2 Q 118046 59305.6 119201.6 61418.8 L 117652.4 62377.6 Z M 133308.8 59478.4 Q 132964.4 58594 131538.8 55890.4 L 131538.8 68940.4 L 129819.2 68940.4 L 129819.2 56725.6 Q 128417.6 61519.6 126747.2 63952 Q 126353.6 62945.2 125812.4 62207.2 Q 128319.2 59086 129695.6 52942 L 126426.8 52942 L 126426.8 51222.4 L 129819.2 51222.4 L 129819.2 46504 L 131538.8 46504 L 131538.8 51222.4 L 134463.2 51222.4 L 134463.2 52942 L 131538.8 52942 L 131538.8 53680 Q 132988.4 55670.8 134390 58079.2 L 133308.8 59480.8 L 133308.8 59478.4 Z M 139576.4 55398.4 Q 140583.2 59281.6 142353.2 62033.2 Q 144320 59182 145180.4 55398.4 L 139577.6 55398.4 L 139576.4 55398.4 Z M 147243.2 54022 Q 146259.2 59699.2 143433.2 63582.4 Q 145670 66334 148594.4 67439.2 Q 147758 68177.2 147365.6 69012.4 Q 144441.2 67662.4 142304 65008 Q 139943.6 67538.8 136847.6 68964.4 Q 136354.4 68053.6 135740 67464.4 Q 138885.2 66186.4 141221.6 63482.8 Q 139156.4 60239.2 137952.8 55397.2 L 137238.8 55397.2 Q 137141.6 64465.6 133970 69036.4 Q 133258.4 68274.4 132496.4 68004.4 Q 135444.8 63776.8 135444.8 54757.6 L 135444.8 48810.4 Q 143111.6 48367.6 146429.6 46991.2 L 147658.4 48416.8 Q 144316.4 49793.2 137237.6 50308 L 137237.6 53725.6 L 145791.2 53725.6 L 146109.2 53676.4 L 147240.8 54020.8 L 147243.2 54022 Z M 172754 65966.8 L 172754 67784.8 L 150856.4 67784.8 L 150856.4 65966.8 L 160023.2 65966.8 L 160023.2 46895.2 L 161939.6 46895.2 L 161939.6 54416.8 L 171082.4 54416.8 L 171082.4 56234.8 L 161939.6 56234.8 L 161939.6 65968 L 172754 65968 L 172754 65966.8 Z M 180470 50286.4 Q 180173.6 49057.6 179214.8 46944.4 L 180788 46477.6 Q 181722.8 48370 182116.4 49746.4 L 180470 50287.6 L 180470 50286.4 Z M 184991.6 55447.6 Q 184991.6 56036.8 184966.4 56282.8 Q 184745.6 66851.2 184007.6 67883.2 Q 183492.8 68570.8 182558 68668 Q 181575.2 68791.6 179928.8 68668 Q 179829.2 67685.2 179435.6 66973.6 Q 180689.6 67094.8 181745.6 67094.8 Q 182238.8 67094.8 182459.6 66750.4 Q 183000.8 66038.8 183197.6 57116.8 L 179879.6 57116.8 L 179879.6 57289.6 Q 179879.6 64956.4 176144 68936.8 Q 175653.2 68322.4 174792.8 67757.2 Q 178134.8 64194.4 178134.8 57263.2 L 178134.8 52176.4 L 175235.6 52176.4 L 175235.6 50480.8 L 186074 50480.8 L 186074 52176.4 L 179880.8 52176.4 L 179880.8 55445.2 L 184992.8 55445.2 L 184991.6 55447.6 Z M 189416 52768 L 189316.4 53014 Q 190151.6 57635.2 191650.4 60755.2 Q 193298 57610 194009.6 52768 L 189414.8 52768 L 189416 52768 Z M 195830 52768 Q 194895.2 58740.4 192683.6 62598.4 Q 194795.6 65916.4 197843.6 67342 Q 197081.6 68005.6 196564.4 68914 Q 193565.6 67340.8 191574.8 64244.8 Q 189363.2 67144 185750 69011.2 Q 185456 68275.6 184694 67415.2 Q 188428.4 65695.6 190592 62550.4 Q 189190.4 59796.4 188207.6 55717.6 Q 187520 57216.4 186438.8 58763.2 Q 185727.2 57928 185013.2 57386.8 Q 187791.2 53773.6 189117.2 46500.4 L 190960.4 46794.4 Q 190419.2 49399.6 189953.6 51071.2 L 197620.4 51071.2 L 197620.4 52765.6 L 195826.4 52765.6 L 195830 52768 Z M 221906 65966.8 L 221906 67784.8 L 200008.4 67784.8 L 200008.4 65966.8 L 209175.2 65966.8 L 209175.2 46895.2 L 211091.6 46895.2 L 211091.6 54416.8 L 220234.4 54416.8 L 220234.4 56234.8 L 211091.6 56234.8 L 211091.6 65968 L 221906 65968 L 221906 65966.8 Z M 242548.4 48984.4 L 234758 48984.4 L 234758 50606.8 L 242548.4 50606.8 L 242548.4 48984.4 Z M 234758 56454.4 L 242548.4 56136.4 L 242548.4 54637.6 L 234758 54637.6 L 234758 56455.6 L 234758 56454.4 Z M 242548.4 51785.2 L 234758 51785.2 L 234758 53480.8 L 242548.4 53480.8 L 242548.4 51785.2 Z M 233111.6 48984.4 L 231219.2 48984.4 L 231219.2 47584 L 246358.4 47584 L 246358.4 48984.4 L 244194.8 48984.4 L 244194.8 56063.2 L 246628.4 55963.6 L 246603.2 57265.6 L 244194.8 57389.2 L 244194.8 58568.8 L 242548.4 58568.8 L 242548.4 57488.8 Q 235496 57881.2 231760.4 58004.8 L 231539.6 56555.2 L 233112.8 56506 L 233112.8 48985.6 L 233111.6 48984.4 Z M 228909.2 58937.2 L 228909.2 66800.8 Q 228909.2 68153.2 228123.2 68546.8 Q 227459.6 68891.2 225272 68891.2 Q 225172.4 68054.8 224754.8 67195.6 Q 226401.2 67244.8 226820 67195.6 Q 227212.4 67195.6 227212.4 66802 L 227212.4 59626 L 224657.6 60634 L 224140.4 58838.8 Q 225886.4 58324 227212.4 57857.2 L 227212.4 52648 L 224460.8 52648 L 224460.8 50926 L 227212.4 50926 L 227212.4 46528 L 228908 46528 L 228908 50926 L 231120.8 50926 L 231120.8 52648 L 228908 52648 L 228908 57293.2 L 230824.4 56629.6 L 231120.8 58055.2 L 228908 58939.6 L 228909.2 58937.2 Z M 238026.8 59626 Q 237339.2 62180.8 235766 64441.6 Q 237142.4 65522.8 237657.2 66089.2 L 236601.2 67194.4 Q 236307.2 66874 234856.4 65572 Q 233062.4 67685.2 230580.8 68938 Q 230284.4 68250.4 229622 67636 Q 231833.6 66653.2 233652.8 64613.2 Q 231612.8 63090.4 230801.6 62549.2 L 231833.6 61614.4 Q 233676.8 62867.2 234561.2 63506.8 Q 235445.6 62278 236060 60779.2 L 230850.8 60779.2 L 230850.8 59280.4 L 236748.8 59280.4 L 237042.8 59207.2 L 238026.8 59624.8 L 238026.8 59626 Z M 240214.4 60731.2 Q 240926 62698 242081.6 64172.8 Q 243410 62722 244245.2 60731.2 L 240214.4 60731.2 Z M 246112.4 59551.6 Q 245277.2 62820.4 243089.6 65252.8 Q 244712 66802 246899.6 67564 Q 246161.6 68251.6 245817.2 68989.6 Q 243629.6 68081.2 241983.2 66361.6 Q 240140 67958.8 237534.8 68966.8 Q 237288.8 68303.2 236674.4 67639.6 Q 239205.2 66804.4 240999.2 65207.2 Q 239646.8 63412 238787.6 60733.6 L 238173.2 60733.6 L 238173.2 59234.8 L 244907.6 59234.8 L 245201.6 59185.6 L 246110 59555.2 L 246112.4 59551.6 Z M 256041.2 47141.2 Q 254984 50041.6 253534.4 52620.4 L 253534.4 68891.2 L 251788.4 68891.2 L 251788.4 55447.6 Q 250805.6 56897.2 249674 58150 Q 249281.6 57265.6 248642 56357.2 Q 252231.2 52597.6 254319.2 46601.2 L 256041.2 47142.4 L 256041.2 47141.2 Z M 258276.8 55546 L 261645.2 55546 Q 262356.8 54490 262602.8 53088.4 L 258276.8 53088.4 L 258276.8 55546 Z M 259751.6 49696 Q 258768.8 51024.4 258129.2 51688 L 262700 51688 Q 263290.4 51073.6 264174.8 49696 L 259750.4 49696 L 259751.6 49696 Z M 268107.2 53088.4 L 264102.8 53088.4 Q 264003.2 54342.4 263414 55546 L 268107.2 55546 L 268107.2 53088.4 Z M 270074 59134 Q 268968.8 59845.6 267346.4 60680.8 Q 268674.8 64687.6 271574 66186.4 Q 270862.4 66727.6 270395.6 67562.8 Q 267447.2 65744.8 266021.6 61344.4 L 264816.8 61909.6 Q 265431.2 63802 265234.4 65596 Q 265062.8 67318 264251.6 68104 Q 263489.6 68939.2 262113.2 68939.2 Q 261153.2 68939.2 260614.4 68891.2 Q 260565.2 67956.4 260171.6 67318 Q 261032 67415.2 261794 67415.2 Q 262580 67415.2 262997.6 66948.4 Q 263908.4 66040 263564 63558.4 Q 260319.2 66506.8 255748.4 68080 Q 255207.2 67219.6 254692.4 66802 Q 260122.4 65155.6 263219.6 62059.6 Q 262997.6 61321.6 262629.2 60682 Q 259778 63115.6 255944 64517.2 Q 255502.4 63853.6 254936 63336.4 Q 259286 62034.4 261989.6 59650 Q 261522.8 58987.6 260957.6 58494.4 Q 258941.6 59969.2 255942.8 60952 Q 255476 60264.4 254910.8 59822.8 Q 258500 58667.2 260416.4 56947.6 L 256630.4 56947.6 L 256630.4 53161.6 Q 256041.2 53728 255327.2 54242.8 Q 254909.6 53555.2 254147.6 53088.4 Q 257784.8 50533.6 259800.8 46526.8 L 261520.4 46847.2 Q 261396.8 47092 261126.8 47558.8 L 260709.2 48272.8 L 265157.6 48272.8 L 265478 48173.2 L 266559.2 48960.4 Q 265722.8 50360.8 264593.6 51689.2 L 269802.8 51689.2 L 269802.8 56948.8 L 262529.6 56948.8 Q 262356.8 57169.6 261963.2 57563.2 Q 263488.4 58816 264372.8 60683.2 Q 266854.4 59406.4 268845.2 58004.8 L 270074 59136.4 L 270074 59134 Z M 282190.4 60140.8 Q 281526.8 58987.6 279634.4 56160.4 L 279634.4 68939.2 L 277840.4 68939.2 L 277840.4 57020.8 Q 276168.8 61763.2 274350.8 64073.2 Q 274130 63558.4 273366.8 62477.2 Q 276194 58790.8 277619.6 52991.2 L 273736.4 52991.2 L 273736.4 51245.2 L 277840.4 51245.2 L 277840.4 46526.8 L 279634.4 46526.8 L 279634.4 51245.2 L 283050.8 51245.2 L 283050.8 52991.2 L 279634.4 52991.2 L 279634.4 53802.4 Q 280666.4 54958 283247.6 58398.4 L 282191.6 60142 L 282190.4 60140.8 Z M 293764.4 66974.8 Q 294060.8 66974.8 294232.4 66802 Q 294380 66630.4 294479.6 65867.2 Q 294552.8 64172.8 294552.8 62377.6 Q 295019.6 62820.4 295952 63164.8 Q 295952 65990.8 295755.2 66974.8 Q 295583.6 67933.6 295116.8 68326 Q 294626 68670.4 293838.8 68670.4 L 292635.2 68670.4 Q 291824 68670.4 291257.6 68179.6 Q 290742.8 67738 290742.8 65280.4 L 290742.8 49650.4 L 286245.2 49650.4 L 286245.2 55769.2 Q 286245.2 64837.6 282214.4 69014.8 Q 281649.2 68228.8 280788.8 67786 Q 284426 64051.6 284426 55744 L 284426 47904.4 L 292536.8 47904.4 L 292536.8 65452 Q 292536.8 66680.8 292684.4 66828.4 Q 292881.2 66977.2 293102 66977.2 L 293765.6 66977.2 L 293764.4 66974.8 Z " fill-rule="nonzero" style="fill:#ffffff;;fill-opacity:1;"/>
</svg>