<svg version="1.1" x="0" y="0" width="100%" height="100%" viewBox="0 0 393318.4 54118.4" xmlns="http://www.w3.org/2000/svg">
  <path d="M 112470.2 18333.6 Q 108922.95 18944.35 104119.2 19446.6 Q 103903.95 18226.85 103366.7 17260.85 Q 114979.7 15971.1 120532.45 13892.1 L 122541.45 15971.1 Q 120175.45 16795.35 115086.45 17871.6 L 115086.45 25396.6 L 122718.2 25396.6 L 122718.2 27762.6 L 115086.45 27762.6 L 115086.45 36829.35 L 123043.7 36829.35 L 123043.7 39123.6 L 104764.95 39123.6 L 104764.95 23641.35 L 107237.7 23641.35 L 107237.7 36829.35 L 112468.45 36829.35 L 112468.45 18335.35 L 112470.2 18333.6 Z M 102185.45 26614.6 Q 101361.2 33997.85 98814.95 39193.6 Q 103114.7 42884.35 113150.95 42956.1 Q 121823.95 42956.1 123687.7 42884.35 Q 122933.45 44032.35 122648.2 45500.6 L 113077.45 45500.6 Q 102435.7 45500.6 97596.95 41344.35 Q 95517.95 44641.35 92471.2 46648.6 Q 91611.95 45465.6 90463.95 44749.85 Q 93584.2 42851.1 95733.2 39482.35 Q 93438.95 36579.1 92040.7 32134.1 L 94119.7 31309.85 Q 95230.95 34928.85 96951.2 37188.1 Q 98636.45 33675.85 99390.7 28621.85 L 91720.45 28621.85 Q 94480.2 24141.85 97344.95 18372.1 L 91037.95 18372.1 L 91037.95 15971.1 L 101215.95 15971.1 Q 98134.2 22171.35 95878.45 26222.6 L 100178.2 26222.6 L 100645.45 26185.85 L 102185.45 26618.1 L 102185.45 26614.6 Z M 142577.2 18118.35 L 142577.2 24605.6 L 154079.95 24605.6 L 154079.95 18118.35 L 142577.2 18118.35 Z M 142470.45 27151.85 Q 141824.7 35609.6 138385.95 40054.6 Q 137453.2 39051.85 136019.95 38441.1 Q 139819.2 33639.1 139819.2 23641.35 L 139819.2 15577.35 L 156736.45 15577.35 L 156736.45 27153.6 L 142472.2 27153.6 L 142470.45 27151.85 Z M 148742.45 28189.6 Q 155516.7 34893.85 157917.7 38371.1 L 155658.45 40091.35 Q 152863.7 35863.35 146626.7 29698.1 L 148742.45 28191.35 L 148742.45 28189.6 Z M 133365.2 21917.6 Q 131609.95 19014.35 127989.2 15645.6 L 129996.45 14320.85 Q 133797.45 17724.6 135479.2 20412.6 L 133365.2 21917.6 Z M 134441.45 39265.35 Q 134693.45 39407.1 135552.7 40052.85 Q 136413.7 40661.85 137094.45 41090.6 Q 139782.45 42775.85 146448.2 42775.85 Q 153509.45 42775.85 159387.7 42095.1 Q 158741.95 43780.35 158635.2 44963.35 Q 152363.2 45322.1 146378.2 45322.1 Q 139532.2 45322.1 136487.2 43384.85 Q 133225.2 41235.85 133044.95 41235.85 Q 131720.2 41235.85 128312.95 45785.85 L 126520.95 43278.1 Q 129567.7 39946.1 131788.45 39085.1 L 131788.45 29048.85 L 126914.7 29048.85 L 126914.7 26541.1 L 134441.45 26541.1 L 134441.45 39265.35 Z M 181427.2 28513.35 Q 180853.2 33173.6 179206.45 35789.85 Q 177234.2 38941.6 173004.45 40591.85 Q 172395.45 39337.1 171392.7 38477.85 Q 175156.95 37149.6 176877.2 34533.35 Q 178312.2 32384.35 178775.95 28513.35 L 172362.2 28513.35 L 172362.2 26182.35 L 182398.45 26182.35 L 182398.45 20951.6 L 177129.2 20951.6 Q 175911.2 23280.85 174798.2 24570.6 Q 173973.95 23854.85 172575.7 23209.1 Q 175370.45 20092.35 176840.45 14751.35 L 179383.2 15325.35 Q 178880.95 17047.35 178201.95 18622.35 L 182394.95 18622.35 L 182394.95 13820.35 L 185046.2 13820.35 L 185046.2 18622.35 L 193290.45 18622.35 L 193290.45 20953.35 L 185046.2 20953.35 L 185046.2 26184.1 L 194760.45 26184.1 L 194760.45 28515.1 L 187699.2 28515.1 L 187699.2 36794.35 Q 187699.2 37438.35 187879.45 37618.6 Q 188059.7 37798.85 188738.7 37798.85 L 191606.95 37798.85 Q 192252.7 37798.85 192432.95 37083.1 Q 192648.2 36293.85 192683.2 33569.1 Q 193579.2 34249.85 195084.2 34608.6 Q 194868.95 37977.35 194188.2 39123.6 Q 193544.2 40271.6 191858.95 40271.6 L 188381.7 40271.6 Q 186409.45 40271.6 185728.7 39517.35 Q 185084.7 38836.6 185084.7 36794.35 L 185084.7 28515.1 L 181428.95 28515.1 L 181427.2 28513.35 Z M 168631.2 22311.35 Q 166875.95 19446.6 163076.7 16326.35 L 165118.95 14893.1 Q 169096.7 17974.85 170816.95 20662.85 L 168631.2 22309.6 L 168631.2 22311.35 Z M 169885.95 39982.85 Q 169957.7 39982.85 173361.45 41955.1 Q 175942.7 43495.1 182321.45 43495.1 Q 189524.45 43495.1 195332.7 42851.1 Q 194578.45 44497.85 194543.45 45609.1 Q 188486.7 46002.85 182286.45 46002.85 Q 175907.7 46002.85 172860.95 44247.6 Q 169850.95 42383.85 169598.95 42383.85 Q 167952.2 42383.85 164331.45 46396.6 L 162576.2 44140.85 Q 165192.45 41629.6 167306.45 40626.85 L 167306.45 29839.85 L 162898.2 29839.85 L 162898.2 27332.1 L 169885.95 27332.1 L 169885.95 39982.85 Z M 205690.95 32741.35 L 205690.95 43136.35 Q 205690.95 45213.6 204436.2 45787.6 Q 203433.45 46289.85 199921.2 46289.85 Q 199740.95 45213.6 199131.95 43745.35 Q 201567.95 43852.1 202463.95 43780.35 Q 203109.7 43780.35 203109.7 43136.35 L 203109.7 33565.6 Q 202176.95 33889.35 198738.2 35000.6 L 198057.45 32419.35 Q 199095.2 32132.35 203111.45 30914.35 L 203111.45 23317.6 L 198416.2 23317.6 L 198416.2 20844.85 L 203111.45 20844.85 L 203111.45 13711.85 L 205692.7 13711.85 L 205692.7 20844.85 L 209920.7 20844.85 L 209920.7 23317.6 L 205692.7 23317.6 L 205692.7 30126.85 L 209456.95 28943.85 L 209813.95 31381.6 L 205692.7 32741.35 L 205690.95 32741.35 Z M 221495.2 38155.85 L 230848.95 38155.85 L 230848.95 40556.85 L 221495.2 40556.85 L 221495.2 46505.1 L 218878.95 46505.1 L 218878.95 40556.85 L 209812.2 40556.85 L 209812.2 38155.85 L 218878.95 38155.85 L 218878.95 34461.6 L 211639.2 34461.6 L 211639.2 32097.35 L 218878.95 32097.35 L 218878.95 28942.1 L 221495.2 28942.1 L 221495.2 32097.35 L 228271.2 32097.35 L 228271.2 34461.6 L 221495.2 34461.6 L 221495.2 38155.85 Z M 215727.2 18011.6 Q 217482.45 20771.35 220350.7 22922.1 Q 223575.95 20736.35 225439.7 18011.6 L 215728.95 18011.6 L 215727.2 18011.6 Z M 229130.45 16399.85 Q 226909.7 20879.85 222392.95 24322.1 Q 226409.2 26793.1 231426.45 27869.35 Q 230567.2 28730.35 229777.95 30093.6 Q 224617.2 28765.35 220278.95 25790.35 Q 215979.2 28585.1 210744.95 30055.1 Q 210135.95 28730.35 209346.7 27906.1 Q 214293.95 26686.35 218306.7 24250.35 Q 215046.45 21455.6 213182.7 18013.35 L 210853.45 18013.35 L 210853.45 15612.35 L 227088.2 15612.35 L 227516.95 15505.6 L 229128.7 16401.6 L 229130.45 16399.85 Z M 238484.2 24999.35 L 235867.95 24999.35 L 235867.95 17761.35 L 249701.7 17761.35 Q 248947.45 15932.6 247909.7 14285.85 L 250525.95 13461.6 Q 252102.7 15897.6 252853.45 17761.35 L 265040.45 17761.35 L 265040.45 24999.35 L 262317.45 24999.35 L 262317.45 20269.1 L 238482.45 20269.1 L 238482.45 24999.35 L 238484.2 24999.35 Z M 246406.45 27904.35 Q 244649.45 25825.35 241172.2 23781.35 L 242783.95 22096.1 Q 246367.95 24068.35 248089.95 26005.6 L 246404.7 27904.35 L 246406.45 27904.35 Z M 239199.95 27510.6 Q 243070.95 29624.6 244791.2 31451.6 L 243179.45 33458.85 Q 241424.2 31490.1 237659.95 29304.35 L 239199.95 27512.35 L 239199.95 27510.6 Z M 253035.45 37795.35 Q 261064.45 40698.6 265724.7 44140.85 L 264112.95 46183.1 Q 259487.7 42670.85 251745.7 39730.85 L 253035.45 37797.1 L 253035.45 37795.35 Z M 265866.45 34461.6 L 265866.45 36792.6 L 251063.2 36792.6 Q 247911.45 43780.35 237052.7 46288.1 Q 236513.7 44963.35 235547.7 43995.6 Q 245009.95 41988.35 247984.95 36792.6 L 235188.95 36792.6 L 235188.95 34461.6 L 249057.7 34461.6 Q 250277.45 30842.6 250527.7 22062.85 L 253287.45 22062.85 Q 253035.45 30377.1 251889.2 34463.35 L 265866.45 34463.35 L 265866.45 34461.6 Z M 279306.45 38010.6 L 270131.2 40556.85 L 269628.95 38332.6 Q 270775.2 38082.35 279056.2 35968.35 L 279306.45 38010.6 Z M 283177.45 30340.35 Q 283177.45 31129.6 283142.45 31451.6 Q 282388.2 43458.35 280954.95 44963.35 Q 280093.95 45894.35 278588.95 46001.1 Q 277440.95 46107.85 274359.2 45966.1 Q 274217.45 44641.35 273608.45 43708.6 Q 275722.45 43925.6 277694.7 43925.6 Q 278590.7 43925.6 278949.45 43493.35 Q 280095.7 42347.1 280704.7 32526.1 L 271170.7 32526.1 Q 271889.95 27402.1 272283.7 20269.1 L 274577.95 20375.85 Q 274254.2 25036.1 273681.95 30340.35 L 278090.2 30340.35 Q 278805.95 24749.1 279273.2 17616.1 L 270776.95 17616.1 L 270776.95 15286.85 L 281709.2 15286.85 Q 280919.95 25893.6 280382.7 30338.6 L 283177.45 30338.6 L 283177.45 30340.35 Z M 294503.45 14212.35 L 293714.2 15824.1 Q 297439.95 21380.35 303102.95 25109.6 Q 302206.95 26255.85 301778.2 27580.6 Q 296437.2 23639.6 292424.45 18048.35 Q 288875.45 23818.1 283429.45 27652.35 Q 282710.2 26541.1 281850.95 25538.35 Q 288947.2 20986.6 292172.45 13424.85 L 294503.45 14214.1 L 294503.45 14212.35 Z M 298048.95 27043.35 L 287442.2 27043.35 L 287442.2 24749.1 L 298048.95 24749.1 L 298048.95 27043.35 Z M 292783.2 38332.6 Q 292566.2 34965.6 291348.2 29804.85 L 293462.2 29517.85 Q 294645.2 34319.85 295003.95 38010.6 L 292783.2 38332.6 Z M 287190.2 30198.6 Q 288912.2 34678.6 289556.2 38656.35 L 287370.45 39265.35 Q 287013.45 35823.1 285111.2 30699.1 L 287190.2 30196.85 L 287190.2 30198.6 Z M 301849.95 30627.35 Q 298729.7 38404.35 296615.7 42347.1 L 302098.45 42347.1 L 302098.45 44676.35 L 283963.2 44676.35 L 283963.2 42347.1 L 294321.45 42347.1 Q 297261.45 36825.85 299410.45 29979.85 L 301848.2 30625.6 L 301849.95 30627.35 Z " fill-rule="nonzero" style="fill:#ffffff;;fill-opacity:1;"/>
</svg>