<svg version="1.1" x="0" y="0" width="100%" height="100%" viewBox="0 0 431104 40550.4" xmlns="http://www.w3.org/2000/svg">
  <path d="M 4211.6 28750.4 L 8216 28750.4 L 8216 15306.8 L 5022.8 15306.8 L 5022.8 13881.2 Q 7258.4 13463.6 8757.2 12603.2 L 10476.8 12603.2 L 10476.8 28750.4 L 14090 28750.4 L 14090 30617.6 L 4211.6 30617.6 L 4211.6 28750.4 Z M 25790.8 19706 Q 25422.4 14028.8 21857.2 14028.8 Q 20555.2 14028.8 19696 15134 Q 18811.6 16289.6 18811.6 18108.8 Q 18811.6 19976 19622.8 21033.2 Q 20458 22113.2 22031.2 22113.2 Q 24095.2 22113.2 25790.8 19704.8 L 25790.8 19706 Z M 18270.4 27693.2 Q 19499.2 29069.6 21293.2 29069.6 Q 25594 29069.6 25814.8 21549.2 Q 24020.8 23786 21662.8 23786 Q 19352.8 23786 18050.8 22336.4 Q 16698.4 20861.6 16698.4 18110 Q 16698.4 15552.8 18221.2 13882.4 Q 19696 12260 21857.2 12260 Q 24560.8 12260 26183.2 14397.2 Q 27902.8 16683.2 27902.8 20836.4 Q 27902.8 25972.4 25912 28626.8 Q 24166 30936.8 21364 30936.8 Q 18809.2 30936.8 17039.2 29093.6 L 18268 27692 L 18270.4 27693.2 Z M 34050 30617.6 Q 34467.6 21033.2 39112.8 14519.6 L 30390 14519.6 L 30390 12603.2 L 41670 12603.2 L 41670 13955.6 Q 38671.2 17813.6 37539.6 21672.8 Q 36607.2 24892.4 36385.2 30618.8 L 34051.2 30618.8 L 34050 30617.6 Z M 52926.8 19706 Q 52558.4 14028.8 48993.2 14028.8 Q 47691.2 14028.8 46832 15134 Q 45947.6 16289.6 45947.6 18108.8 Q 45947.6 19976 46758.8 21033.2 Q 47594 22113.2 49167.2 22113.2 Q 51231.2 22113.2 52926.8 19704.8 L 52926.8 19706 Z M 45406.4 27693.2 Q 46635.2 29069.6 48429.2 29069.6 Q 52730 29069.6 52950.8 21549.2 Q 51156.8 23786 48798.8 23786 Q 46488.8 23786 45186.8 22336.4 Q 43834.4 20861.6 43834.4 18110 Q 43834.4 15552.8 45357.2 13882.4 Q 46832 12260 48993.2 12260 Q 51696.8 12260 53319.2 14397.2 Q 55038.8 16683.2 55038.8 20836.4 Q 55038.8 25972.4 53048 28626.8 Q 51302 30936.8 48500 30936.8 Q 45945.2 30936.8 44175.2 29093.6 L 45404 27692 L 45406.4 27693.2 Z M 68928.4 25112 L 68928.4 20246 L 63422.8 20246 L 63422.8 25112 L 68928.4 25112 Z M 79667.2 26882 L 70771.6 26882 L 70771.6 32511.2 L 68928.4 32511.2 L 68928.4 26882 L 57572.8 26882 L 57572.8 25112 L 61603.6 25112 L 61603.6 18526.4 L 68928.4 18526.4 L 68928.4 14790.8 L 62956 14790.8 Q 61285.6 17642 59220.4 19632.8 Q 58237.6 18772.4 57647.2 18478.4 Q 61333.6 15258.8 63176.8 9999.2 L 65020 10440.8 Q 64554.4 11621.6 63890.8 13022 L 78536.8 13022 L 78536.8 14792 L 70771.6 14792 L 70771.6 18527.6 L 77971.6 18527.6 L 77971.6 20247.2 L 70771.6 20247.2 L 70771.6 25113.2 L 79667.2 25113.2 L 79667.2 26883.2 L 79667.2 26882 Z M 113090.8 11865.2 Q 106208.8 12972.8 95076.4 13120.4 Q 95003.2 12456.8 94706.8 11669.6 Q 105988 11448.8 112500.4 10392.8 L 113090.8 11866.4 L 113090.8 11865.2 Z M 95617.6 20148.8 L 94068.4 20148.8 L 94068.4 16044.8 L 98345.2 16044.8 Q 98024.8 15036.8 97459.6 13635.2 L 98809.6 13120.4 Q 99620.8 14914.4 99965.2 16046 L 103873.6 16046 Q 103603.6 15086 103037.2 13415.6 L 104414.8 12974 Q 105053.2 14374.4 105520 16046 L 108050.8 16046 Q 109132 14447.6 109943.2 12580.4 L 111564.4 13121.6 Q 110902 14277.2 109721.2 16047.2 L 114512.8 16047.2 L 114512.8 20151.2 L 112915.6 20151.2 L 112915.6 17620.4 L 95615.2 17620.4 L 95615.2 20151.2 L 95617.6 20148.8 Z M 101933.2 25505.6 Q 103482.4 27054.8 105890.8 28234.4 Q 108054.4 27029.6 109283.2 25506.8 L 101934.4 25506.8 L 101933.2 25505.6 Z M 111788.8 24570.8 Q 110411.2 27128 107635.6 28947.2 Q 110755.6 30100.4 114712 30567.2 Q 114221.2 31133.6 113730.4 32165.6 Q 109332.4 31551.2 105866.8 29952.8 Q 102918.4 31427.6 99083.2 32139.2 Q 98838.4 31280 98248 30640.4 Q 101566 30075.2 104147.2 29043.2 Q 101837.2 27666.8 100288 25847.6 Q 98174.8 29976.8 94218.4 32261.6 Q 93703.6 31450.4 93089.2 30861.2 Q 98101.6 28206.8 100068.4 21963.2 L 95840.8 21963.2 L 95840.8 20390 L 100510 20390 Q 100780 19358 100952.8 18252.8 L 102696.4 18473.6 Q 102548.8 19235.6 102278.8 20391.2 L 112699.6 20391.2 L 112699.6 21964.4 L 101837.2 21964.4 Q 101640.4 22775.6 101173.6 23931.2 L 110486.8 23931.2 L 110783.2 23858 L 111791.2 24569.6 L 111788.8 24570.8 Z M 129482.8 19434.8 Q 129359.2 20148.8 129235.6 20690 Q 133412.8 24227.6 135846.4 27620 L 134544.4 28701.2 Q 132628 25923.2 128818 22310 Q 127295.2 26955.2 122945.2 28947.2 Q 122576.8 28209.2 121813.6 27495.2 Q 126704.8 25334 127687.6 19434.8 L 121789.6 19434.8 L 121789.6 17764.4 L 127909.6 17764.4 Q 128081.2 16092.8 128154.4 13758.8 L 129949.6 13758.8 Q 129874 16044.8 129702.4 17764.4 L 135846.4 17764.4 L 135846.4 19434.8 L 129481.6 19434.8 L 129482.8 19434.8 Z M 137297.2 29709.2 L 137297.2 12726.8 L 120340 12726.8 L 120340 29709.2 L 137297.2 29709.2 Z M 139067.2 11054 L 139067.2 32484.8 L 137297.2 32484.8 L 137297.2 31281.2 L 120340 31281.2 L 120340 32484.8 L 118644.4 32484.8 L 118644.4 11054 L 139067.2 11054 Z M 146146 24915.2 L 150643.6 24915.2 L 150643.6 22409.6 L 146146 22409.6 L 146146 24915.2 Z M 146146 14937.2 L 146146 17174 L 150643.6 17174 L 150643.6 14937.2 L 146146 14937.2 Z M 146146 20934.8 L 150643.6 20934.8 L 150643.6 18650 L 146146 18650 L 146146 20934.8 Z M 154255.6 26562.8 L 142139.2 26562.8 L 142139.2 24915.2 L 144473.2 24915.2 L 144473.2 14937.2 L 142508.8 14937.2 L 142508.8 13290.8 L 144473.2 13290.8 L 144473.2 10292 L 146144.8 10292 L 146144.8 13290.8 L 150642.4 13290.8 L 150642.4 10292 L 152338 10292 L 152338 13290.8 L 154132 13290.8 L 154132 14937.2 L 152338 14937.2 L 152338 24915.2 L 154254.4 24915.2 L 154254.4 26562.8 L 154255.6 26562.8 Z M 147300.4 27545.6 Q 146071.6 30323.6 143908 32288 Q 143441.2 31797.2 142458.4 31208 Q 144473.2 29561.6 145580.8 27078.8 L 147300.4 27545.6 Z M 150347.2 27104 Q 151846 28725.2 152608 30176 L 151085.2 30986 Q 150446.8 29585.6 148921.6 27791.6 L 150347.2 27104 Z M 164651.2 19976 L 162070 19976 L 162070 32534 L 160350.4 32534 L 160350.4 19976 L 156713.2 19976 L 156713.2 21057.2 Q 156713.2 29020.4 153124 32854.4 Q 152706.4 32363.6 151798 31673.6 Q 155017.6 28257.2 155017.6 21033.2 L 155017.6 12603.2 Q 160326.4 11447.6 162979.6 10095.2 L 164454.4 11423.6 Q 161947.6 12603.2 156714.4 13782.8 L 156714.4 18256.4 L 164652.4 18256.4 L 164652.4 19976 L 164651.2 19976 Z M 185590 13511.6 L 177700 13511.6 L 177700 18329.6 L 185590 18329.6 L 185590 13511.6 Z M 185590 20025.2 L 177700 20025.2 L 177700 24964.4 L 185590 24964.4 L 185590 20025.2 Z M 187433.2 26661.2 L 175907.2 26661.2 L 175907.2 11818.4 L 187433.2 11818.4 L 187433.2 26661.2 Z M 174948.4 26193.2 Q 171359.2 27642.8 167231.2 29265.2 L 166640.8 27398 Q 168238 26907.2 169984 26243.6 L 169984 17739.2 L 166961.2 17739.2 L 166961.2 16019.6 L 169984 16019.6 L 169984 10342.4 L 171754 10342.4 L 171754 16019.6 L 174653.2 16019.6 L 174653.2 17739.2 L 171754 17739.2 L 171754 25605.2 L 174580 24524 L 174949.6 26194.4 L 174948.4 26193.2 Z M 188981.2 29806.4 L 188981.2 31526 L 174308.8 31526 L 174308.8 29806.4 L 188981.2 29806.4 Z M 199327.6 21328.4 L 199327.6 25973.6 L 205765.6 25973.6 L 205765.6 21328.4 L 199327.6 21328.4 Z M 199327.6 27545.6 L 199327.6 29315.6 L 197632 29315.6 L 197632 19779.2 L 207486.4 19779.2 L 207486.4 27545.6 L 199327.6 27545.6 Z M 208788.4 17224.4 L 196403.2 17224.4 L 196403.2 15626 L 208788.4 15626 L 208788.4 17224.4 Z M 212647.6 30200 Q 212647.6 31749.2 211639.6 32190.8 Q 210755.2 32535.2 207535.6 32535.2 Q 207412 31626.8 206870.8 30742.4 Q 209353.6 30815.6 210262 30766.4 Q 210852.4 30742.4 210852.4 30201.2 L 210852.4 13071.2 L 194263.6 13071.2 L 194263.6 32559.2 L 192493.6 32559.2 L 192493.6 11325.2 L 212645.2 11325.2 L 212645.2 30200 L 212647.6 30200 Z M 233857.6 25529.6 L 227958.4 25529.6 L 227958.4 27372.8 L 233857.6 27372.8 L 233857.6 25529.6 Z M 227958.4 24080 L 233857.6 24080 L 233857.6 22360.4 L 227958.4 22360.4 L 227958.4 24080 Z M 226140.4 18009.2 L 226140.4 16239.2 L 220855.6 16239.2 L 220855.6 18009.2 L 226140.4 18009.2 Z M 227958.4 16240.4 L 227958.4 18010.4 L 233464 18010.4 L 233464 16240.4 L 227958.4 16240.4 Z M 238206.4 25529.6 L 235675.6 25529.6 L 235675.6 29879.6 L 233857.6 29879.6 L 233857.6 28774.4 L 227958.4 28774.4 L 227958.4 30470 Q 227958.4 31895.6 226877.2 32288 Q 226042 32584.4 222798.4 32584.4 Q 222649.6 31870.4 222158.8 31035.2 Q 222896.8 31059.2 225527.2 31059.2 Q 226141.6 31035.2 226141.6 30470 L 226141.6 28774.4 L 218202.4 28774.4 L 218202.4 27372.8 L 226141.6 27372.8 L 226141.6 25529.6 L 216089.2 25529.6 L 216089.2 24080 L 226141.6 24080 L 226141.6 22360.4 L 218424.4 22360.4 L 218424.4 21008 L 226141.6 21008 L 226141.6 19288.4 L 219113.2 19288.4 L 219113.2 14963.6 L 226141.6 14963.6 L 226141.6 13538 L 216556 13538 L 216556 12039.2 L 226141.6 12039.2 L 226141.6 10072.4 L 227959.6 10072.4 L 227959.6 12039.2 L 237742 12039.2 L 237742 13538 L 227959.6 13538 L 227959.6 14963.6 L 235284.4 14963.6 L 235284.4 19288.4 L 227959.6 19288.4 L 227959.6 21008 L 235676.8 21008 L 235676.8 24080 L 238207.6 24080 L 238207.6 25529.6 L 238206.4 25529.6 Z M 260570.8 22851.2 Q 260521.6 23835.2 260645.2 24400.4 Q 252928 25678.4 252216.4 26046.8 Q 251994.4 25211.6 251650 24400.4 Q 252289.6 24252.8 253591.6 22827.2 Q 254696.8 21598.4 256246 19534.4 Q 252486.4 19952 252043.6 20196.8 Q 251822.8 19337.6 251429.2 18477.2 Q 252019.6 18353.6 252928 16977.2 Q 254894.8 14446.4 256565.2 10145.6 L 258284.8 10883.6 Q 256294 15160.4 253984 18232.4 L 257352.4 17936 Q 258556 16044.8 258998.8 15257.6 L 260521.6 16166 Q 257670.4 20663.6 254820.4 23711.6 L 260570.8 22851.2 Z M 251526.4 29265.2 Q 254132.8 28847.6 260866 27594.8 L 260989.6 29168 L 251822.8 31035.2 L 251526.4 29265.2 Z M 267427.6 25751.6 Q 265904.8 23146.4 262709.2 20442.8 L 263963.2 19385.6 Q 267427.6 22336.4 268780 24597.2 L 267427.6 25752.8 L 267427.6 25751.6 Z M 273079.6 14546 L 273055.6 15478.4 Q 272638 29879.6 271506.4 31354.4 Q 270818.8 32238.8 269566 32336 Q 268631.2 32459.6 266002 32312 Q 265952.8 31304 265435.6 30566 Q 266984.8 30689.6 268925.2 30689.6 Q 269564.8 30713.6 269909.2 30321.2 Q 270917.2 29240 271285.6 16238 L 264109.6 16238 Q 263101.6 18401.6 262069.6 19827.2 Q 261307.6 19212.8 260545.6 18844.4 Q 262978 15772.4 264379.6 10070 L 266099.2 10390.4 Q 265582 12503.6 264796 14543.6 L 273077.2 14543.6 L 273079.6 14546 Z M 278659.6 22974.8 L 283722.4 22974.8 L 283722.4 21082.4 L 278659.6 21082.4 L 278659.6 22974.8 Z M 278659.6 19682 L 283722.4 19682 L 283722.4 17813.6 L 278659.6 17813.6 L 278659.6 19682 Z M 293699.2 10515.2 L 293232.4 11250.8 Q 295321.6 14249.6 298738 15921.2 Q 298271.2 16559.6 297902.8 17616.8 L 297632.8 17444 L 297632.8 30443.6 Q 297632.8 31748 296918.8 32092.4 Q 296304.4 32410.4 294116.8 32410.4 Q 294019.6 31551.2 293651.2 30764 Q 294559.6 30789.2 295664.8 30789.2 Q 296009.2 30789.2 296009.2 30443.6 L 296009.2 26463.2 Q 293748.4 28233.2 292716.4 28971.2 L 291881.2 27521.6 Q 293330.8 26637.2 296009.2 24744.8 L 296009.2 18945.2 L 292446.4 18945.2 L 292446.4 17396 L 297533.2 17396 Q 294437.2 15479.6 292249.6 12580.4 Q 290062 15356 286940.8 17396 L 291732.4 17396 L 291732.4 30495.2 Q 291732.4 31749.2 291020.8 32093.6 Q 290430.4 32411.6 288342.4 32411.6 Q 288194.8 31479.2 287850.4 30815.6 Q 289397.2 30864.8 289814.8 30815.6 Q 290159.2 30815.6 290159.2 30471.2 L 290159.2 26612 Q 288144.4 28086.8 286252 29339.6 L 285588.4 28160 L 282124 28160 L 282124 32510 L 280354 32510 L 280354 28160 L 276126.4 28160 L 276126.4 26489.6 L 280354 26489.6 L 280354 24449.6 L 277036 24449.6 L 277036 16362.8 L 280354 16362.8 L 280354 14298.8 L 276371.2 14298.8 L 276371.2 12652.4 L 280354 12652.4 L 280354 10047.2 L 282124 10047.2 L 282124 12652.4 L 286007.2 12652.4 L 286007.2 14298.8 L 282124 14298.8 L 282124 16362.8 L 285392.8 16362.8 L 285392.8 24449.6 L 282124 24449.6 L 282124 26489.6 L 286228 26489.6 L 286228 27372.8 Q 286817.2 27054.8 290159.2 24965.6 L 290159.2 18945.2 L 286645.6 18945.2 L 286645.6 17592.8 L 286472.8 17692.4 Q 286031.2 16832 285367.6 16144.4 Q 289792 13760 292028.8 9950 L 293699.2 10516.4 L 293699.2 10515.2 Z M 293602 20393.6 Q 295002.4 22163.6 295495.6 23392.4 L 294241.6 24056 Q 293603.2 22606.4 292423.6 21008 L 293603.2 20393.6 L 293602 20393.6 Z M 287702.8 20418.8 Q 289128.4 22065.2 289792 23417.6 L 288563.2 24105.2 Q 287875.6 22630.4 286547.2 21057.2 L 287702.8 20418.8 Z M 305275.6 22900.4 Q 304784.8 22433.6 304784.8 21695.6 Q 304784.8 20933.6 305275.6 20442.8 Q 305717.2 19952 306404.8 19952 Q 307092.4 19952 307559.2 20442.8 Q 308026 20933.6 308026 21695.6 Q 308026 22433.6 307559.2 22900.4 Q 307068.4 23391.2 306404.8 23391.2 Q 305742.4 23391.2 305275.6 22900.4  Z M 326521.6 23392.4 Q 328068.4 23392.4 331213.6 23343.2 Q 330427.6 22877.6 329173.6 22336.4 L 330305.2 21500 L 326521.6 21500 L 326521.6 23392.4 Z M 324678.4 20270 L 324678.4 18648.8 L 318803.2 18648.8 L 318803.2 20270 L 324678.4 20270 Z M 318803.2 17469.2 L 324678.4 17469.2 L 324678.4 15872 L 318803.2 15872 L 318803.2 17469.2 Z M 326521.6 15872 L 326521.6 17469.2 L 332566 17469.2 L 332566 15872 L 326521.6 15872 Z M 332566 18650 L 326521.6 18650 L 326521.6 20271.2 L 332566 20271.2 L 332566 18650 Z M 315362.8 23441.6 Q 317723.2 23465.6 324678.4 23417.6 L 324678.4 21498.8 L 317059.6 21498.8 L 317059.6 14643.2 L 324678.4 14643.2 L 324678.4 13070 L 315386.8 13070 L 315386.8 11571.2 L 324678.4 11571.2 L 324678.4 10096.4 L 326521.6 10096.4 L 326521.6 11571.2 L 336082 11571.2 L 336082 13070 L 326521.6 13070 L 326521.6 14643.2 L 334360 14643.2 L 334360 21498.8 L 330502 21498.8 Q 333967.6 22900.4 336276.4 25064 L 335023.6 26120 Q 334655.2 25702.4 333401.2 24743.6 Q 322735.6 24989.6 315462.4 25062.8 L 315362.8 23440.4 L 315362.8 23441.6 Z M 327504.4 28947.2 Q 326128 27521.6 323449.6 26144 L 324602.8 25161.2 Q 327257.2 26414 328756 27839.6 L 327503.2 28947.2 L 327504.4 28947.2 Z M 314798.8 30887.6 Q 316076.8 29388.8 317108.8 26340.8 L 318655.6 26955.2 Q 317500 30297.2 316370.8 31748 L 314797.6 30887.6 L 314798.8 30887.6 Z M 328903.6 30617.6 Q 329788 30617.6 330058 30200 Q 330328 29757.2 330427.6 28160 Q 331139.2 28626.8 332050 28798.4 Q 331853.2 30838.4 331286.8 31502 Q 330672.4 32165.6 329026 32165.6 L 323472.4 32165.6 Q 321383.2 32165.6 320671.6 31698.8 Q 319957.6 31256 319957.6 29906 L 319957.6 26440.4 L 321752.8 26440.4 L 321752.8 29880.8 Q 321752.8 30347.6 322070.8 30495.2 Q 322415.2 30618.8 323570.8 30618.8 L 328903.6 30618.8 L 328903.6 30617.6 Z M 333475.6 26366 Q 335663.2 28920.8 336401.2 30960.8 L 334754.8 31551.2 Q 333992.8 29486 331928.8 26907.2 L 333475.6 26366 Z M 341635.6 23121.2 L 344510.8 23121.2 L 344510.8 20418.8 L 341635.6 20418.8 L 341635.6 23121.2 Z M 348958 20418.8 L 346082.8 20418.8 L 346082.8 23121.2 L 348958 23121.2 L 348958 20418.8 Z M 343454.8 15921.2 L 347165.2 15921.2 L 347165.2 13905.2 L 343454.8 13905.2 L 343454.8 15921.2 Z M 346157.2 28136 L 346157.2 32510 L 344461.6 32510 L 344461.6 28136 L 339128.8 28136 L 339128.8 26537.6 L 344461.6 26537.6 L 344461.6 24570.8 L 340087.6 24570.8 L 340087.6 18968 L 344461.6 18968 L 344461.6 17394.8 L 341882.8 17394.8 L 341882.8 13905.2 L 339325.6 13905.2 L 339325.6 12455.6 L 341882.8 12455.6 L 341882.8 10095.2 L 343456 10095.2 L 343456 12455.6 L 347166.4 12455.6 L 347166.4 10095.2 L 348788.8 10095.2 L 348788.8 12455.6 L 351146.8 12455.6 L 351146.8 13905.2 L 348788.8 13905.2 L 348788.8 17394.8 L 346158.4 17394.8 L 346158.4 18968 L 350558.8 18968 L 350558.8 24570.8 L 346158.4 24570.8 L 346158.4 26537.6 L 351221.2 26537.6 L 351221.2 28136 L 346158.4 28136 L 346157.2 28136 Z M 360804.4 16583.6 Q 360484 30125.6 359549.2 31427.6 Q 358960 32189.6 357878.8 32337.2 Q 356870.8 32436.8 354782.8 32313.2 Q 354733.6 31378.4 354266.8 30592.4 Q 355519.6 30713.6 357142 30713.6 Q 357732.4 30713.6 357977.2 30345.2 Q 358764.4 29410.4 359058.4 17392.4 L 355666 17392.4 Q 355397.2 22824.8 354340 26141.6 Q 353014 30221.6 350162.8 32507.6 Q 349645.6 31696.4 348834.4 31205.6 Q 353479.6 27666.8 353946.4 17393.6 L 350482 17393.6 L 350482 15674 L 354019.6 15674 Q 354068.8 13904 354068.8 10168.4 L 355788.4 10168.4 Q 355788.4 13904 355740.4 15674 L 360803.2 15674 L 360803.2 16582.4 L 360804.4 16583.6 Z " fill-rule="nonzero" style="fill:#ffffff;;fill-opacity:1;"/>
</svg>