<svg version="1.1" x="0" y="0" width="100%" height="100%" viewBox="0 0 589056 125747.2" xmlns="http://www.w3.org/2000/svg">
  <path d="M 23478.8 12479.6 Q 21438.8 15651.2 19644.8 17666 L 18095.6 17003.6 Q 20159.6 14594 21610.4 11744 L 23477.6 12479.6 L 23478.8 12479.6 Z M 9052.4 17691.2 Q 8019.2 15527.6 5513.6 12479.6 L 6963.2 11668.4 Q 9420.8 14544.8 10625.6 16732.4 L 9052.4 17691.2 Z M 22569.2 30273.2 Q 23110.4 30273.2 23282 29879.6 Q 23454.8 29511.2 23528 28182.8 Q 24117.2 28625.6 25222.4 28870.4 Q 25050.8 30713.6 24533.6 31353.2 Q 24018.8 32016.8 22716.8 32016.8 L 18930.8 32016.8 Q 17260.4 32016.8 16695.2 31475.6 Q 16154 30958.4 16154 29409.2 L 16154 20856.8 L 12318.8 20856.8 Q 11950.4 25624.4 10574 28008.8 Q 8828 31104.8 4552.4 32579.6 Q 4134.8 31668.8 3396.8 31006.4 Q 7353.2 29752.4 8926.4 27074 Q 10130 25034 10426.4 20856.8 L 3716 20856.8 L 3716 19086.8 L 13350.8 19086.8 L 13350.8 10043.6 L 15242 10043.6 L 15242 19086.8 L 24827.6 19086.8 L 24827.6 20856.8 L 17969.6 20856.8 L 17969.6 29385.2 Q 17969.6 29950.4 18191.6 30123.2 Q 18387.2 30270.8 19125.2 30270.8 L 22566.8 30270.8 L 22569.2 30273.2 Z M 49971.2 22754 L 39944 22754 L 39944 30077.6 Q 39944 31773.2 38691.2 32141.6 Q 37707.2 32486 33873.2 32486 Q 33652.4 31553.6 33087.2 30618.8 Q 35765.6 30716 37412 30642.8 Q 38075.6 30618.8 38075.6 30053.6 L 38075.6 22754 L 27948.8 22754 L 27948.8 20934.8 L 38075.6 20934.8 L 38075.6 17396 Q 41344.4 15897.2 44219.6 13512.8 L 30382.4 13512.8 L 30382.4 11718.8 L 46209.2 11718.8 L 46602.8 11621.6 L 47979.2 12653.6 Q 44661.2 15922.4 39942.8 18330.8 L 39942.8 20936 L 49970 20936 L 49970 22755.2 L 49971.2 22754 Z M 66239.6 20541.2 Q 65477.6 17199.2 63240.8 12874.4 L 64715.6 12309.2 Q 67124 16584.8 67886 19902.8 L 66239.6 20541.2 Z M 58670 10686.8 Q 57908 13071.2 56752.4 15479.6 L 56752.4 32486 L 55008.8 32486 L 55008.8 18748.4 Q 54050 20370.8 52697.6 22017.2 Q 52329.2 21034.4 51738.8 20174 Q 55104.8 16266.8 56997.2 10196 L 58667.6 10686.8 L 58670 10686.8 Z M 66339.2 23686.4 Q 66486.8 24276.8 66855.2 25260.8 Q 60884 29412.8 60244.4 30176 Q 59802.8 29216 59261.6 28553.6 Q 60122 27866 60122 26464.4 L 60122 11744 L 61916 11744 L 61916 26610.8 L 66340.4 23686.4 L 66339.2 23686.4 Z M 73170.8 31722.8 Q 72456.8 29168 70540.4 25014.8 Q 68943.2 29684 65577.2 32363.6 Q 65010.8 31649.6 64102.4 30986 Q 67764.8 28380.8 69238.4 23072 Q 70394 18944 70640 10736 L 72483.2 10760 Q 72138.8 18599.6 71204 22580 Q 74030 27888.8 74866.4 30863.6 L 73170.8 31722.8 Z M 98999.6 23441.6 L 89242.4 23441.6 L 89242.4 30027.2 Q 89242.4 31797.2 87916.4 32190.8 Q 86932.4 32535.2 82853.6 32535.2 Q 82557.2 31503.2 82042.4 30668 Q 83418.8 30716 86588 30716 Q 87326 30692 87326 30004.4 L 87326 23442.8 L 77201.6 23442.8 L 77201.6 21599.6 L 87326 21599.6 L 87326 13464.8 Q 83468 13809.2 79215.2 13932.8 Q 79142 13269.2 78773.6 12285.2 Q 90447.2 11843.6 95853.2 10418 L 96812 12064.4 Q 93666.8 12851.6 89242.4 13269.2 L 89242.4 21600.8 L 98999.6 21600.8 L 98999.6 23444 L 98999.6 23441.6 Z M 81502.4 14716.4 Q 83296.4 17764.4 83886.8 20025.2 L 82215.2 20688.8 Q 81674 18476 79904 15256.4 L 81502.4 14715.2 L 81502.4 14716.4 Z M 92291.6 20025.2 Q 93938 17273.6 94946 14274.8 L 96886.4 14937.2 Q 94773.2 19116.8 93766.4 20639.6 L 92291.6 20025.2 Z M 116793.2 20787.2 Q 115073.6 20787.2 114483.2 20246 Q 113892.8 19731.2 113892.8 18232.4 L 113892.8 10121.6 L 115662.8 10121.6 L 115662.8 14225.6 Q 118956.8 13144.4 121365.2 11915.6 L 122594 13241.6 Q 120260 14349.2 115662.8 15725.6 L 115662.8 18207.2 Q 115662.8 18797.6 115908.8 18969.2 Q 116153.6 19142 116964.8 19142 L 120873.2 19142 Q 121560.8 19142 121781.6 18624.8 Q 122002.4 18110 122102 16290.8 Q 122616.8 16733.6 123722 17003.6 Q 123550.4 19239.2 123009.2 20001.2 Q 122468 20788.4 121018.4 20788.4 L 116790.8 20788.4 L 116793.2 20787.2 Z M 109788.8 26070.8 L 109788.8 23835.2 L 104603.6 23835.2 L 104603.6 26070.8 L 109788.8 26070.8 Z M 104603.6 20296.4 L 104603.6 22384.4 L 109788.8 22384.4 L 109788.8 20296.4 L 104603.6 20296.4 Z M 111584 30396.8 Q 111584 31749.2 110723.6 32117.6 Q 110009.6 32438 107454.8 32438 Q 107283.2 31553.6 106864.4 30766.4 Q 108486.8 30839.6 109371.2 30766.4 Q 109788.8 30766.4 109788.8 30372.8 L 109788.8 27497.6 L 104603.6 27497.6 L 104603.6 32486 L 102908 32486 L 102908 18748.4 L 111585.2 18748.4 L 111585.2 30398 L 111584 30396.8 Z M 109544 11522 Q 111902 14619.2 112689.2 16830.8 L 111090.8 17542.4 Q 110870 16928 110549.6 16240.4 Q 103226 16781.6 102464 17051.6 Q 102143.6 15896 101873.6 15330.8 Q 102316.4 15207.2 103004 14372 Q 104553.2 12455.6 105560 9998 L 107428.4 10588.4 Q 106150.4 13046 104430.8 15183.2 L 109812.8 14862.8 Q 109074.8 13560.8 108042.8 12135.2 L 109541.6 11520.8 L 109544 11522 Z M 120995.6 30666.8 Q 121758.8 30666.8 122003.6 30076.4 Q 122224.4 29486 122324 27447.2 Q 123035.6 27938 123946.4 28109.6 Q 123773.6 30616.4 123232.4 31451.6 Q 122667.2 32286.8 121144.4 32286.8 L 116867.6 32286.8 Q 115097.6 32286.8 114507.2 31748 Q 113892.8 31230.8 113892.8 29708 L 113892.8 21474.8 L 115688 21474.8 L 115688 25334 Q 119792 24005.6 121659.2 22776.8 L 122864 24129.2 Q 120530 25529.6 115688 26858 L 115688 29709.2 Q 115688 30323.6 115932.8 30495.2 Q 116178.8 30668 117038 30668 L 120994.4 30668 L 120995.6 30666.8 Z M 141419.6 13511.6 Q 139870.4 15404 137854.4 16805.6 Q 137436.8 16215.2 136625.6 15698 Q 139994 13560.8 141713.6 10095.2 L 143409.2 10365.2 Q 143015.6 11176.4 142474.4 12011.6 L 146136.8 12011.6 L 146481.2 11938.4 L 147610.4 12431.6 Q 145449.2 19066.4 137952.8 21621.2 Q 137559.2 20883.2 136968.8 20294 Q 139550 19506.8 141516.8 18057.2 Q 140705.6 17319.2 139379.6 16360.4 L 140583.2 15428 Q 141837.2 16238 142745.6 17001.2 Q 144441.2 15378.8 145325.6 13510.4 L 141418.4 13510.4 L 141419.6 13511.6 Z M 129081.2 19017.2 L 129081.2 24767.6 L 131636 24767.6 L 131636 19017.2 L 129081.2 19017.2 Z M 136380.8 14126 Q 136134.8 29561.6 135250.4 30814.4 Q 134685.2 31625.6 133580 31773.2 Q 132645.2 31896.8 130630.4 31773.2 Q 130581.2 30814.4 130114.4 30076.4 Q 131319.2 30176 132892.4 30176 Q 133407.2 30200 133703.6 29757.2 Q 134391.2 28824.8 134661.2 14865.2 L 129476 14865.2 Q 128788.4 16266.8 128025.2 17495.6 L 133089.2 17495.6 L 133089.2 26294 L 129082.4 26294 L 129082.4 28013.6 L 127607.6 28013.6 L 127607.6 18110 L 127436 18330.8 Q 127336.4 18478.4 127263.2 18551.6 Q 126918.8 18257.6 125739.2 17570 Q 128073.2 14842.4 129375.2 10197.2 L 131094.8 10614.8 Q 130726.4 11940.8 130209.2 13169.6 L 136378.4 13169.6 L 136378.4 14128.4 L 136380.8 14126 Z M 148619.6 21918.8 Q 146382.8 30027.2 137216 32510 Q 136774.4 31526 136257.2 31011.2 Q 139967.6 30150.8 142572.8 28110.8 Q 141344 26882 139967.6 25923.2 L 141245.6 24964.4 Q 142523.6 25824.8 143825.6 27004.4 Q 145472 25308.8 146380.4 23072 L 142227.2 23072 Q 140310.8 25161.2 137756 26636 Q 137265.2 25848.8 136625.6 25431.2 Q 140902.4 23121.2 142721.6 19558.4 L 144465.2 19852.4 Q 144147.2 20540 143433.2 21548 L 146775.2 21548 L 146775.2 21524 L 147143.6 21524 L 147488 21450.8 L 148619.6 21917.6 L 148619.6 21918.8 Z M 157564.4 19091.6 Q 157564.4 19632.8 157540.4 19926.8 L 162159.2 19926.8 L 162159.2 21672.8 L 157440.8 21672.8 Q 157392.8 22263.2 157196 23319.2 Q 158669.6 24768.8 162086 28652 L 160857.2 30201.2 Q 159555.2 28334 156779.6 25186.4 Q 155378 29807.6 151691.6 32438 Q 151174.4 31601.6 150412.4 31086.8 Q 155009.6 27818 155624 21674 L 150683.6 21674 L 150683.6 19928 L 155746.4 19928 L 155746.4 15038 L 153879.2 15038 Q 152896.4 17495.6 151888.4 18896 Q 151470.8 18478.4 150389.6 17840 Q 152404.4 15185.6 153437.6 10049.6 L 155207.6 10394 Q 154961.6 11746.4 154444.4 13343.6 L 161448.8 13343.6 L 161448.8 15039.2 L 157565.6 15039.2 L 157565.6 19094 L 157564.4 19091.6 Z M 169902.8 28136 L 169902.8 13905.2 L 164717.6 13905.2 L 164717.6 28136 L 169902.8 28136 Z M 171719.6 12185.6 L 171719.6 31552.4 L 169901.6 31552.4 L 169901.6 29856.8 L 164716.4 29856.8 L 164716.4 31797.2 L 162946.4 31797.2 L 162946.4 12185.6 L 171719.6 12185.6 Z M 193420.4 18280.4 L 185261.6 18280.4 L 185261.6 20296.4 L 193420.4 20296.4 L 193420.4 18280.4 Z M 193420.4 21574.4 L 185261.6 21574.4 L 185261.6 23638.4 L 193420.4 23638.4 L 193420.4 21574.4 Z M 193420.4 24915.2 L 185261.6 24915.2 L 185261.6 26980.4 L 193420.4 26980.4 L 193420.4 24915.2 Z M 187670 16880 Q 188087.6 15551.6 188211.2 14816 L 181773.2 14816 L 181773.2 13290.8 L 185926.4 13290.8 Q 185433.2 12135.2 184277.6 10588.4 L 185802.8 9948.8 Q 187079.6 11522 187572.8 12702.8 L 186294.8 13292 L 190816.4 13292 Q 191972 11718.8 192710 10072.4 L 194480 10589.6 Q 193226 12530 192687.2 13292 L 197282 13292 L 197282 14817.2 L 190253.6 14817.2 Q 189810.8 15922.4 189369.2 16881.2 L 195219.2 16881.2 L 195219.2 28358 L 183545.6 28358 L 183545.6 16881.2 L 187673.6 16881.2 L 187670 16880 Z M 179241.2 15995.6 Q 178160 14249.6 175775.6 11865.2 L 177152 11006 Q 179585.6 13241.6 180741.2 14987.6 L 179242.4 15995.6 L 179241.2 15995.6 Z M 180568.4 28110.8 Q 180838.4 28234.4 181379.6 28602.8 L 182435.6 29266.4 Q 184352 30298.4 188776.4 30298.4 Q 193764.8 30298.4 197624 29856.8 Q 197181.2 30912.8 197108 31674.8 Q 192759.2 31920.8 188752.4 31920.8 Q 184157.6 31920.8 182068.4 30716 Q 179831.6 29390 179684 29390 Q 178701.2 29390 176316.8 32192 L 175211.6 30717.2 Q 177324.8 28604 178798.4 28038.8 L 178798.4 20494.4 L 175406 20494.4 L 175406 18772.4 L 180567.2 18772.4 L 180567.2 28112 L 180568.4 28110.8 Z M 217653.2 29438 L 217653.2 25799.6 L 204554 25799.6 L 204554 29438 L 217653.2 29438 Z M 204554 20517.2 L 204554 24080 L 217653.2 24080 L 217653.2 20517.2 L 204554 20517.2 Z M 204554 15134 L 204554 18796.4 L 217653.2 18796.4 L 217653.2 15134 L 204554 15134 Z M 219545.6 13390.4 L 219545.6 32411.6 L 217653.2 32411.6 L 217653.2 31158.8 L 204554 31158.8 L 204554 32535.2 L 202736 32535.2 L 202736 13391.6 L 208904 13391.6 Q 209567.6 11424.8 209861.6 10023.2 L 211950.8 10293.2 Q 211384.4 11891.6 210722 13390.4 L 219544.4 13390.4 L 219545.6 13390.4 Z M 241516.4 30176 Q 243432.8 30176 244023.2 29339.6 Q 244562 28577.6 244808 25702.4 Q 245716.4 26267.6 246627.2 26440.4 Q 246330.8 29782.4 245398.4 30838.4 Q 244390.4 31970 241490 31970 L 232226 31970 Q 229227.2 31970 228170 31306.4 Q 227064.8 30618.8 227064.8 28578.8 L 227064.8 19462.4 L 241662.8 19462.4 L 241662.8 13342.4 L 226744.4 13342.4 L 226744.4 11499.2 L 243530 11499.2 L 243530 22804.4 L 241662.8 22804.4 L 241662.8 21255.2 L 228908 21255.2 L 228908 28578.8 Q 228908 29562.8 229522.4 29856.8 Q 230136.8 30177.2 232127.6 30177.2 L 241516.4 30177.2 L 241516.4 30176 Z M 253164.8 14298.8 Q 252650 12922.4 251297.6 10833.2 L 252699.2 10145.6 Q 254001.2 12012.8 254639.6 13438.4 L 253164.8 14298.8 Z M 256139.6 25972.4 Q 255377.6 24719.6 253952 22630.4 L 253952 32484.8 L 252232.4 32484.8 L 252232.4 22924.4 Q 250856 24670.4 249478.4 25899.2 Q 249036.8 24743.6 248619.2 24252.8 Q 252453.2 21033.2 254616.8 16068.8 L 248890.4 16068.8 L 248890.4 14397.2 L 255476 14397.2 L 255746 14324 L 256656.8 15038 Q 255698 17740.4 253952 20468 L 253952 20567.6 L 254663.6 21452 Q 255771.2 20223.2 256582.4 19067.6 L 257687.6 20075.6 Q 255968 21843.2 255401.6 22336.4 Q 255844.4 22877.6 256433.6 23663.6 Q 257048 24498.8 257121.2 24572 L 256138.4 25973.6 L 256139.6 25972.4 Z M 261718.4 21254 Q 262847.6 24423.2 264887.6 26684 Q 266951.6 24399.2 268008.8 21254 L 261717.2 21254 L 261718.4 21254 Z M 259923.2 15381.2 L 259923.2 19632.8 L 263462 19632.8 L 263462 15381.2 L 259923.2 15381.2 Z M 270099.2 20000 Q 269018 24621.2 266117.6 27890 Q 268478 29979.2 271500.8 30863.6 Q 270738.8 31575.2 270369.2 32410.4 Q 267200 31329.2 264890 29117.6 Q 262556 31230.8 259410.8 32483.6 Q 258993.2 31575.2 258402.8 31010 Q 261425.6 29978 263711.6 27888.8 Q 261401.6 25234.4 260123.6 21254 L 259902.8 21254 Q 259706 28601.6 256707.2 32337.2 Q 256314.8 31748 255404 31157.6 Q 258231.2 27594.8 258231.2 20049.2 L 258231.2 13660.4 L 263464.4 13660.4 L 263464.4 10071.2 L 265186.4 10071.2 L 265186.4 13660.4 L 269584.4 13660.4 L 269878.4 13587.2 L 271156.4 13931.6 Q 270248 17248.4 269584.4 18846.8 L 268061.6 18477.2 Q 268527.2 17224.4 268970 15381.2 L 265186.4 15381.2 L 265186.4 19632.8 L 268676 19632.8 L 269020.4 19559.6 L 270101.6 20001.2 L 270099.2 20000 Z M 285459.2 27618.8 Q 287867.6 29928.8 288850.4 31502 L 287694.8 32313.2 Q 286418 30370.4 284328.8 28306.4 L 285460.4 27618.8 L 285459.2 27618.8 Z M 288309.2 11498 L 288309.2 26710.4 L 286810.4 26710.4 L 286810.4 12897.2 L 281550.8 12897.2 L 281550.8 26783.6 L 280101.2 26783.6 L 280101.2 11496.8 L 288309.2 11496.8 L 288309.2 11498 Z M 295116.8 10366.4 L 295116.8 30371.6 Q 295116.8 31724 294281.6 32117.6 Q 293494.4 32462 290889.2 32412.8 Q 290765.6 31725.2 290348 30890 Q 292535.6 30939.2 293126 30890 Q 293616.8 30890 293616.8 30399.2 L 293616.8 10368.8 L 295115.6 10368.8 L 295116.8 10366.4 Z M 291724.4 12258.8 L 291724.4 26856.8 L 290274.8 26856.8 L 290274.8 12258.8 L 291724.4 12258.8 Z M 284745.2 14643.2 L 284745.2 23268.8 Q 284745.2 29906 279658.4 32460.8 Q 279388.4 31870.4 278798 31329.2 Q 281576 29904.8 282608 27618.8 Q 283346 25972.4 283346 23268.8 L 283346 14643.2 L 284746.4 14643.2 L 284745.2 14643.2 Z M 275553.2 10318.4 Q 278280.8 11768 279509.6 12873.2 L 278404.4 14322.8 Q 277052 13046 274473.2 11620.4 L 275553.2 10318.4 Z M 274448 16928 Q 277005.2 18182 278478.8 19337.6 L 277422.8 20787.2 Q 276341.6 19878.8 273417.2 18207.2 L 274449.2 16929.2 L 274448 16928 Z M 273906.8 31232 Q 275799.2 27472.4 277200.8 23417.6 L 278674.4 24376.4 Q 277224.8 28577.6 275553.2 32190.8 L 273906.8 31232 Z M 315294.8 11939.6 L 303128 11939.6 L 303128 13268 L 315294.8 13268 L 315294.8 11939.6 Z M 315294.8 14322.8 L 303128 14322.8 L 303128 15675.2 L 315294.8 15675.2 L 315294.8 14322.8 Z M 317087.6 16780.4 L 301383.2 16780.4 L 301383.2 10833.2 L 317087.6 10833.2 L 317087.6 16780.4 Z M 320210 19190 L 298336.4 19190 L 298336.4 17788.4 L 320210 17788.4 L 320210 19190 Z M 308339.6 25284.8 L 308339.6 23883.2 L 302637.2 23883.2 L 302637.2 25284.8 L 308339.6 25284.8 Z M 302637.2 22803.2 L 308339.6 22803.2 L 308339.6 21425.6 L 302637.2 21425.6 L 302637.2 22803.2 Z M 316030.4 21425.6 L 310083.2 21425.6 L 310083.2 22803.2 L 316030.4 22803.2 L 316030.4 21425.6 Z M 316030.4 23883.2 L 310083.2 23883.2 L 310083.2 25284.8 L 316030.4 25284.8 L 316030.4 23883.2 Z M 320331.2 30470 L 320331.2 31895.6 L 298188.8 31895.6 L 298188.8 30470 L 308339.6 30470 L 308339.6 29044.4 L 300228.8 29044.4 L 300228.8 27766.4 L 308339.6 27766.4 L 308339.6 26414 L 300941.6 26414 L 300941.6 20295.2 L 317826.8 20295.2 L 317826.8 26414 L 310084.4 26414 L 310084.4 27766.4 L 318341.6 27766.4 L 318341.6 29044.4 L 310084.4 29044.4 L 310084.4 30470 L 320332.4 30470 L 320331.2 30470 Z M 324854 31943.6 Q 327777.2 30740 327950 28331.6 Q 327802.4 28355.6 327532.4 28355.6 Q 326745.2 28355.6 326230.4 27912.8 Q 325689.2 27447.2 325689.2 26610.8 Q 325689.2 25775.6 326254.4 25284.8 Q 326771.6 24842 327557.6 24842 Q 329646.8 24842 329646.8 27669.2 Q 329646.8 31749.2 325395.2 33248 L 324854 31943.6 Z M 369606.8 20049.2 L 369606.8 22040 L 347291.6 22040 L 347291.6 20049.2 L 369606.8 20049.2 Z M 393593.6 29609.6 L 393593.6 31404.8 L 372334.4 31404.8 L 372334.4 29609.6 L 393593.6 29609.6 Z M 377619.2 24424.4 L 388481.6 24424.4 L 388481.6 19682 L 377619.2 19682 L 377619.2 24424.4 Z M 377619.2 17888 L 388481.6 17888 L 388481.6 13217.6 L 377619.2 13217.6 L 377619.2 17888 Z M 390324.8 11447.6 L 390324.8 26169.2 L 375824 26169.2 L 375824 11447.6 L 390324.8 11447.6 Z M 400620.8 14298.8 Q 400106 12922.4 398753.6 10833.2 L 400155.2 10145.6 Q 401457.2 12012.8 402095.6 13438.4 L 400620.8 14298.8 Z M 403595.6 25972.4 Q 402833.6 24719.6 401408 22630.4 L 401408 32484.8 L 399688.4 32484.8 L 399688.4 22924.4 Q 398312 24670.4 396934.4 25899.2 Q 396492.8 24743.6 396075.2 24252.8 Q 399909.2 21033.2 402072.8 16068.8 L 396346.4 16068.8 L 396346.4 14397.2 L 402932 14397.2 L 403202 14324 L 404112.8 15038 Q 403154 17740.4 401408 20468 L 401408 20567.6 L 402119.6 21452 Q 403227.2 20223.2 404038.4 19067.6 L 405143.6 20075.6 Q 403424 21843.2 402857.6 22336.4 Q 403300.4 22877.6 403889.6 23663.6 Q 404504 24498.8 404577.2 24572 L 403594.4 25973.6 L 403595.6 25972.4 Z M 409174.4 21254 Q 410303.6 24423.2 412343.6 26684 Q 414407.6 24399.2 415464.8 21254 L 409173.2 21254 L 409174.4 21254 Z M 407379.2 15381.2 L 407379.2 19632.8 L 410918 19632.8 L 410918 15381.2 L 407379.2 15381.2 Z M 417555.2 20000 Q 416474 24621.2 413573.6 27890 Q 415934 29979.2 418956.8 30863.6 Q 418194.8 31575.2 417825.2 32410.4 Q 414656 31329.2 412346 29117.6 Q 410012 31230.8 406866.8 32483.6 Q 406449.2 31575.2 405858.8 31010 Q 408881.6 29978 411167.6 27888.8 Q 408857.6 25234.4 407579.6 21254 L 407358.8 21254 Q 407162 28601.6 404163.2 32337.2 Q 403770.8 31748 402860 31157.6 Q 405687.2 27594.8 405687.2 20049.2 L 405687.2 13660.4 L 410920.4 13660.4 L 410920.4 10071.2 L 412642.4 10071.2 L 412642.4 13660.4 L 417040.4 13660.4 L 417334.4 13587.2 L 418612.4 13931.6 Q 417704 17248.4 417040.4 18846.8 L 415517.6 18477.2 Q 415983.2 17224.4 416426 15381.2 L 412642.4 15381.2 L 412642.4 19632.8 L 416132 19632.8 L 416476.4 19559.6 L 417557.6 20001.2 L 417555.2 20000 Z M 432915.2 27618.8 Q 435323.6 29928.8 436306.4 31502 L 435150.8 32313.2 Q 433874 30370.4 431784.8 28306.4 L 432916.4 27618.8 L 432915.2 27618.8 Z M 435765.2 11498 L 435765.2 26710.4 L 434266.4 26710.4 L 434266.4 12897.2 L 429006.8 12897.2 L 429006.8 26783.6 L 427557.2 26783.6 L 427557.2 11496.8 L 435765.2 11496.8 L 435765.2 11498 Z M 442572.8 10366.4 L 442572.8 30371.6 Q 442572.8 31724 441737.6 32117.6 Q 440950.4 32462 438345.2 32412.8 Q 438221.6 31725.2 437804 30890 Q 439991.6 30939.2 440582 30890 Q 441072.8 30890 441072.8 30399.2 L 441072.8 10368.8 L 442571.6 10368.8 L 442572.8 10366.4 Z M 439180.4 12258.8 L 439180.4 26856.8 L 437730.8 26856.8 L 437730.8 12258.8 L 439180.4 12258.8 Z M 432201.2 14643.2 L 432201.2 23268.8 Q 432201.2 29906 427114.4 32460.8 Q 426844.4 31870.4 426254 31329.2 Q 429032 29904.8 430064 27618.8 Q 430802 25972.4 430802 23268.8 L 430802 14643.2 L 432202.4 14643.2 L 432201.2 14643.2 Z M 423009.2 10318.4 Q 425736.8 11768 426965.6 12873.2 L 425860.4 14322.8 Q 424508 13046 421929.2 11620.4 L 423009.2 10318.4 Z M 421904 16928 Q 424461.2 18182 425934.8 19337.6 L 424878.8 20787.2 Q 423797.6 19878.8 420873.2 18207.2 L 421905.2 16929.2 L 421904 16928 Z M 421362.8 31232 Q 423255.2 27472.4 424656.8 23417.6 L 426130.4 24376.4 Q 424680.8 28577.6 423009.2 32190.8 L 421362.8 31232 Z M 462750.8 11939.6 L 450584 11939.6 L 450584 13268 L 462750.8 13268 L 462750.8 11939.6 Z M 462750.8 14322.8 L 450584 14322.8 L 450584 15675.2 L 462750.8 15675.2 L 462750.8 14322.8 Z M 464543.6 16780.4 L 448839.2 16780.4 L 448839.2 10833.2 L 464543.6 10833.2 L 464543.6 16780.4 Z M 467666 19190 L 445792.4 19190 L 445792.4 17788.4 L 467666 17788.4 L 467666 19190 Z M 455795.6 25284.8 L 455795.6 23883.2 L 450093.2 23883.2 L 450093.2 25284.8 L 455795.6 25284.8 Z M 450093.2 22803.2 L 455795.6 22803.2 L 455795.6 21425.6 L 450093.2 21425.6 L 450093.2 22803.2 Z M 463486.4 21425.6 L 457539.2 21425.6 L 457539.2 22803.2 L 463486.4 22803.2 L 463486.4 21425.6 Z M 463486.4 23883.2 L 457539.2 23883.2 L 457539.2 25284.8 L 463486.4 25284.8 L 463486.4 23883.2 Z M 467787.2 30470 L 467787.2 31895.6 L 445644.8 31895.6 L 445644.8 30470 L 455795.6 30470 L 455795.6 29044.4 L 447684.8 29044.4 L 447684.8 27766.4 L 455795.6 27766.4 L 455795.6 26414 L 448397.6 26414 L 448397.6 20295.2 L 465282.8 20295.2 L 465282.8 26414 L 457540.4 26414 L 457540.4 27766.4 L 465797.6 27766.4 L 465797.6 29044.4 L 457540.4 29044.4 L 457540.4 30470 L 467788.4 30470 L 467787.2 30470 Z M 478084.4 26637.2 Q 481329.2 29242.4 482558 30594.8 L 481353.2 31920.8 Q 480000.8 30323.6 476954 27766.4 L 478083.2 26637.2 L 478084.4 26637.2 Z M 482140.4 11374.4 L 482140.4 26144 L 480370.4 26144 L 480370.4 13020.8 L 473315.6 13020.8 L 473315.6 26193.2 L 471596 26193.2 L 471596 11374.4 L 482140.4 11374.4 Z M 491207.6 10245.2 L 491207.6 29930 Q 491207.6 31600.4 490102.4 32019.2 Q 489046.4 32387.6 485728.4 32363.6 Q 485531.6 31355.6 485040.8 30544.4 Q 485925.2 30568.4 488776.4 30568.4 Q 489414.8 30544.4 489414.8 29954 L 489414.8 10245.2 L 491208.8 10245.2 L 491207.6 10245.2 Z M 486612.8 12258.8 L 486612.8 26880.8 L 484893.2 26880.8 L 484893.2 12258.8 L 486612.8 12258.8 Z M 477642.8 14716.4 L 477642.8 21671.6 Q 477642.8 29462 471302 32534 Q 470884.4 31698.8 470170.4 31181.6 Q 473636 29486 474962 26710.4 Q 475922 24743.6 475922 21622.4 L 475922 14716.4 L 477641.6 14716.4 L 477642.8 14716.4 Z M 511238 30100.4 Q 512663.6 30100.4 513105.2 29388.8 Q 513498.8 28725.2 513695.6 26243.6 Q 514530.8 26784.8 515513.6 27005.6 Q 515244.8 29930 514457.6 30888.8 Q 513622.4 31896.8 511262 31896.8 L 503668.4 31896.8 Q 501063.2 31896.8 500128.4 31233.2 Q 499193.6 30545.6 499193.6 28578.8 L 499193.6 17543.6 L 501062 17543.6 L 501062 23098.4 Q 507968 21206 511384.4 19289.6 L 512883.2 20715.2 Q 508902.8 22706 501063.2 24746 L 501063.2 28580 Q 501063.2 29514.8 501554 29808.8 Q 502020.8 30102.8 503643.2 30102.8 L 511236.8 30102.8 L 511238 30100.4 Z M 515834 13365.2 L 515834 18428 L 513966.8 18428 L 513966.8 15135.2 L 497574.8 15135.2 L 497574.8 18428 L 495779.6 18428 L 495779.6 13365.2 L 505438.4 13365.2 Q 504971.6 11939.6 504036.8 10366.4 L 505806.8 9875.6 Q 507035.6 11915.6 507478.4 13268 L 507158 13365.2 L 515832.8 13365.2 L 515834 13365.2 Z M 534242 25161.2 Q 539009.6 28724 541270.4 31403.6 L 539598.8 32508.8 Q 537363.2 29730.8 532692.8 26117.6 L 534242 25158.8 L 534242 25161.2 Z M 528294.8 25972.4 Q 525419.6 29806.4 520872.8 32584.4 Q 520307.6 31994 519423.2 31306.4 Q 524068.4 28652 526378.4 25235.6 L 528294.8 25973.6 L 528294.8 25972.4 Z M 523943.6 21204.8 L 536895.2 21204.8 L 536895.2 13635.2 L 523943.6 13635.2 L 523943.6 21204.8 Z M 538812.8 11891.6 L 538812.8 22974.8 L 522100.4 22974.8 L 522100.4 11891.6 L 538812.8 11891.6 Z M 545004.8 22336.4 L 565182.8 22336.4 L 565182.8 24106.4 L 554468 24106.4 Q 551886.8 27522.8 549454.4 29684 L 560610.8 28848.8 Q 559284.8 27299.6 557759.6 25899.2 L 559308.8 25064 Q 563142.8 28528.4 564888.8 31479.2 L 563266.4 32486 Q 562676 31479.2 561914 30471.2 Q 547512.8 31650.8 546653.6 31971.2 Q 546210.8 30521.6 546039.2 30078.8 Q 546653.6 29955.2 547857.2 28799.6 Q 549603.2 27350 551987.6 24106.4 L 545007.2 24106.4 L 545007.2 22336.4 L 545004.8 22336.4 Z M 556851.2 10833.2 Q 556530.8 11250.8 556138.4 11817.2 Q 560339.6 16118 566312 18156.8 Q 565598 18771.2 565032.8 19779.2 Q 559454 17518.4 555080 13046 Q 552770 15576.8 549550.4 17640.8 L 560903.6 17640.8 L 560903.6 19336.4 L 549230 19336.4 L 549230 17837.6 Q 547239.2 19090.4 545175.2 20025.2 Q 544610 19116.8 543848 18477.2 Q 551759.6 15084.8 555101.6 10072.4 L 556847.6 10834.4 L 556851.2 10833.2 Z M 13230.8 69185.2 Q 11952.8 66554.8 9544.4 63335.2 Q 8290.4 70978 4900.4 75058 Q 4433.6 74567.2 3131.6 73805.2 Q 7850 68816.8 8537.6 53234.8 L 10504.4 53308 Q 10283.6 57634 9890 60950.8 Q 13035.2 64686.4 14608.4 67882 L 13232 69184 L 13230.8 69185.2 Z M 19865.6 53285.2 Q 19545.2 58127.2 19030.4 61322.8 Q 20897.6 70048 25492.4 73168 Q 24682.4 73930 24165.2 74790.4 Q 20331.2 71815.6 18315.2 65009.2 Q 16694 71497.6 12932 74987.2 Q 12393.2 74446 11164.4 73708 Q 14580.8 70856.8 16154 65426.8 Q 17456 61026.4 17897.6 53188 L 19864.4 53285.2 L 19865.6 53285.2 Z M 50118.8 62647.6 L 50118.8 64638.4 L 27803.6 64638.4 L 27803.6 62647.6 L 50118.8 62647.6 Z M 62529.2 59872 L 64396.4 59872 L 64396.4 75083.2 L 62529.2 75083.2 L 62529.2 59872 Z M 65234 53407.6 Q 64667.6 54366.4 64570.4 54490 Q 68601.2 59281.6 74916.8 62353.6 Q 74057.6 62992 73590.8 63976 Q 67667.6 60904 63514.4 55915.6 Q 59534 61026.4 53513.6 63950.8 Q 52972.4 62992 52161.2 62304.4 Q 59828 58987.6 63638 52646.8 L 65236.4 53408.8 L 65234 53407.6 Z M 91480.4 56333.2 Q 92315.6 57536.8 93593.6 58568.8 Q 94995.2 57389.2 95854.4 55963.6 L 91774.4 55963.6 L 91480.4 56333.2 Z M 98042 55030 Q 97059.2 57560.8 94895.6 59452 Q 96935.6 60706 99123.2 61196.8 Q 98532.8 61762 98115.2 62573.2 Q 95706.8 61861.6 93666.8 60386.8 Q 91577.6 61885.6 88751.6 62720.8 Q 88358 61909.6 87867.2 61394.8 Q 90348.8 60780.4 92438 59404 Q 91529.6 58543.6 90594.8 57290.8 Q 89856.8 58028.8 89021.6 58667.2 Q 88628 58076.8 87989.6 57438.4 Q 90791.6 55522 92144 52573.6 L 93593.6 52991.2 Q 93323.6 53702.8 92733.2 54611.2 L 96689.6 54611.2 L 97010 54538 L 98042 55031.2 L 98042 55030 Z M 92758.4 72281.2 L 92758.4 70045.6 L 88310 70045.6 L 88310 68717.2 L 92758.4 68717.2 L 92758.4 67144 L 89243.6 67144 L 89243.6 65891.2 L 92758.4 65891.2 L 92758.4 64514.8 L 88775.6 64514.8 L 88775.6 63210.4 L 92758.4 63210.4 L 92758.4 61834 L 94428.8 61834 L 94428.8 63210.4 L 98115.2 63210.4 L 98115.2 64514.8 L 94428.8 64514.8 L 94428.8 65891.2 L 97526 65891.2 L 97526 67144 L 94428.8 67144 L 94428.8 68717.2 L 98558 68717.2 L 98558 70045.6 L 94428.8 70045.6 L 94428.8 72281.2 L 92758.4 72281.2 Z M 85974.8 59108.8 Q 85433.6 57118 84180.8 54071.2 L 85582.4 53604.4 Q 86835.2 56479.6 87473.6 58519.6 L 85974.8 59108.8 Z M 84131.6 65549.2 Q 84107.6 66040 84107.6 67072 Q 78111.2 68276.8 77472.8 68645.2 Q 77202.8 67736.8 76908.8 67049.2 Q 77498 66925.6 78555.2 65476 Q 79463.6 64344.4 80668.4 62231.2 Q 77717.6 62624.8 77300 62845.6 Q 77030 61886.8 76712 61175.2 Q 77178.8 61051.6 77988.8 59626 Q 79784 56504.8 80816 52670.8 L 82559.6 53408.8 Q 81036.8 57636.4 79022 60929.2 L 81600.8 60635.2 Q 82584.8 58742.8 82902.8 57980.8 L 84401.6 58816 Q 82043.6 63437.2 79757.6 66361.6 L 84131.6 65550.4 L 84131.6 65549.2 Z M 84550.4 71126.8 Q 78160.4 73192 77300 73486 L 76882.4 71716 Q 79536.8 71077.6 84255.2 69676 L 84551.6 71125.6 L 84550.4 71126.8 Z M 87473.6 70931.2 Q 87695.6 71052.4 88137.2 71396.8 Q 88654.4 71839.6 88948.4 72036.4 Q 90471.2 73068.4 93470 73068.4 Q 96738.8 73068.4 99296 72724 Q 98950.4 73682.8 98902.4 74468.8 Q 96297.2 74665.6 93420.8 74665.6 Q 90424.4 74665.6 88629.2 73462 Q 86982.8 72184 86738 72184 Q 85950.8 72184 84180.8 74935.6 L 83172.8 73436.8 Q 84746 71496.4 85901.6 70931.2 L 85901.6 62992 L 83714 62992 L 83714 61445.2 L 87473.6 61445.2 L 87473.6 70931.2 Z M 120578 65326 L 120578 58813.6 L 113525.6 58813.6 L 113525.6 65326 L 120578 65326 Z M 111632 65326 L 111632 58813.6 L 104603.6 58813.6 L 104603.6 65326 L 111632 65326 Z M 122446.4 57020.8 L 122446.4 68521.6 L 120578 68521.6 L 120578 67121.2 L 113525.6 67121.2 L 113525.6 75083.2 L 111633.2 75083.2 L 111633.2 67121.2 L 104604.8 67121.2 L 104604.8 68644 L 102810.8 68644 L 102810.8 57019.6 L 111633.2 57019.6 L 111633.2 52645.6 L 113525.6 52645.6 L 113525.6 57019.6 L 122447.6 57019.6 L 122446.4 57020.8 Z M 135618.8 60190 L 135618.8 62353.6 L 139722.8 62353.6 L 139722.8 60190 L 135618.8 60190 Z M 141369.2 60190 L 141369.2 62353.6 L 145644.8 62353.6 L 145644.8 60190 L 141369.2 60190 Z M 145644.8 65940.4 L 145644.8 63704.8 L 141369.2 63704.8 L 141369.2 65940.4 L 145644.8 65940.4 Z M 139722.8 65940.4 L 139722.8 63704.8 L 135618.8 63704.8 L 135618.8 65940.4 L 139722.8 65940.4 Z M 135618.8 71446 L 133872.8 71446 L 133872.8 58789.6 L 140828 58789.6 Q 138297.2 57535.6 136060.4 56700.4 L 137192 55668.4 Q 138765.2 56233.6 140756 57094 Q 142451.6 56282.8 144221.6 55004.8 L 133898 55004.8 L 133898 53555.2 L 145892 53555.2 L 146260.4 53458 L 147368 54317.2 Q 145352 56284 142353.2 57833.2 Q 143337.2 58274.8 144172.4 58792 L 147392 58792 L 147392 69605.2 Q 147392 70858 146556.8 71202.4 Q 145869.2 71498.8 143238.8 71498.8 Q 143115.2 70711.6 142746.8 69973.6 Q 143337.2 69998.8 145228.4 69998.8 Q 145646 69998.8 145646 69581.2 L 145646 67344.4 L 141370.4 67344.4 L 141370.4 71351.2 L 139724 71351.2 L 139724 67344.4 L 135620 67344.4 L 135620 71448.4 L 135618.8 71446 Z M 130751.6 58864 Q 129449.6 57168.4 126574.4 54661.6 L 127852.4 53629.6 Q 130851.2 56111.2 132080 57660.4 L 130751.6 58865.2 L 130751.6 58864 Z M 131268.8 70512.4 Q 131489.6 70636 132054.8 71053.6 Q 132694.4 71496.4 133136 71766.4 Q 135102.8 72970 139576.4 72970 Q 143877.2 72970 148643.6 72504.4 Q 148202 73560.4 148128.8 74298.4 Q 143901.2 74543.2 139527.2 74543.2 Q 134980.4 74543.2 132768.8 73193.2 Q 130482.8 71791.6 130385.6 71791.6 Q 129402.8 71791.6 127116.8 74839.6 L 125961.2 73340.8 Q 128148.8 71030.8 129501.2 70465.6 L 129501.2 63534.4 L 126060.8 63534.4 L 126060.8 61814.8 L 131270 61814.8 L 131270 70513.6 L 131268.8 70512.4 Z M 167174 58790.8 L 157737.2 58790.8 L 157737.2 57044.8 L 167174 57044.8 L 167174 52744 L 168992 52744 L 168992 57044.8 L 172384.4 57044.8 L 172384.4 58790.8 L 168992 58790.8 L 168992 68497.6 Q 168992 70168 167812.4 70537.6 Q 166829.6 70882 163167.2 70882 Q 163043.6 70021.6 162528.8 69038.8 Q 164298.8 69088 166510.4 69088 Q 167174 69062.8 167174 68497.6 L 167174 58790.8 Z M 160342.4 60731.2 Q 162971.6 63950.8 163856 65524 L 162309.2 66458.8 Q 161080.4 64174 158892.8 61519.6 L 160342.4 60732.4 L 160342.4 60731.2 Z M 155157.2 58446.4 Q 154025.6 56530 151544 54244 L 152944.4 53309.2 Q 155574.8 55718.8 156656 57389.2 L 155157.2 58446.4 Z M 155992.4 70046.8 Q 156165.2 70144 156754.4 70585.6 Q 157344.8 71004.4 157811.6 71298.4 Q 159702.8 72478 164200.4 72478 Q 168600.8 72478 173122.4 72011.2 Q 172605.2 73068.4 172557.2 73976.8 Q 169067.6 74222.8 164152.4 74222.8 Q 159507.2 74222.8 157394 72870.4 Q 155108 71420.8 155034.8 71420.8 Q 154126.4 71420.8 151790 74540.8 L 150513.2 72821.2 Q 152650.4 70511.2 154199.6 69922 L 154199.6 63532 L 150831.2 63532 L 150831.2 61812.4 L 155992.4 61812.4 L 155992.4 70045.6 L 155992.4 70046.8 Z M 177398 74542 Q 180321.2 73338.4 180494 70930 Q 180346.4 70954 180076.4 70954 Q 179289.2 70954 178774.4 70511.2 Q 178233.2 70045.6 178233.2 69209.2 Q 178233.2 68374 178798.4 67883.2 Q 179315.6 67440.4 180101.6 67440.4 Q 182190.8 67440.4 182190.8 70267.6 Q 182190.8 74347.6 177939.2 75846.4 L 177398 74542 Z M 211385.6 56357.2 Q 211385.6 61002.4 207011.6 63091.6 Q 206570 62377.6 205808 61763.2 Q 209618 59969.2 209618 56306.8 L 209618 53531.2 L 217973.6 53531.2 L 217973.6 58912 Q 217973.6 59872 218464.4 59872 L 220577.6 59872 Q 221388.8 59872 221906 59723.2 L 222077.6 61493.2 Q 221684 61640.8 220628 61640.8 L 218342 61640.8 Q 217065.2 61640.8 216598.4 61002.4 Q 216180.8 60437.2 216180.8 58864 L 216180.8 55250.8 L 211386.8 55250.8 L 211386.8 56356 L 211385.6 56357.2 Z M 205217.6 57118 Q 203522 55840 200794.4 54293.2 L 201826.4 52991.2 Q 204726.8 54514 206276 55645.6 L 205218.8 57119.2 L 205217.6 57118 Z M 204112.4 63558.4 Q 202416.8 62304.4 199590.8 60904 L 200597.6 59551.6 Q 203645.6 61025.2 205144.4 62058.4 L 204112.4 63557.2 L 204112.4 63558.4 Z M 206052.8 66851.2 Q 204062 71102.8 201874.4 74740 L 200351.6 73560.4 Q 202464.8 70364.8 204725.6 65719.6 L 206051.6 66851.2 L 206052.8 66851.2 Z M 209936 65155.6 Q 211288.4 67834 213843.2 69824.8 Q 216497.6 67834 217875.2 65155.6 L 209936 65155.6 Z M 220380.8 63902.8 Q 218931.2 68054.8 215392.4 70882 Q 218415.2 72725.2 222274.4 73412.8 Q 221512.4 74224 221094.8 75108.4 Q 216818 74124.4 213795.2 72011.2 Q 210623.6 74051.2 206175.2 75083.2 Q 205806.8 74150.8 205240.4 73412.8 Q 209148.8 72674.8 212294 70855.6 Q 209639.6 68620 208116.8 65326 L 208607.6 65154.4 L 207058.4 65154.4 L 207058.4 63434.8 L 218831.6 63434.8 L 219176 63361.6 L 220379.6 63902.8 L 220380.8 63902.8 Z M 241590.8 62033.2 L 231342.8 62033.2 L 231342.8 64516 L 241590.8 64516 L 241590.8 62033.2 Z M 241590.8 68669.2 L 241590.8 66114.4 L 231342.8 66114.4 L 231342.8 68669.2 L 241590.8 68669.2 Z M 233038.4 57535.6 Q 232154 59354.8 231539.6 60386.8 L 243384.8 60386.8 L 243384.8 72798.4 Q 243384.8 74347.6 242352.8 74740 Q 241468.4 75060.4 238076 75060.4 Q 237978.8 74273.2 237488 73266.4 Q 238569.2 73314.4 241026.8 73314.4 Q 241592 73290.4 241592 72799.6 L 241592 70242.4 L 231344 70242.4 L 231344 75084.4 L 229550 75084.4 L 229550 63239.2 Q 227706.8 65549.2 225444.8 67122.4 Q 225003.2 66384.4 224289.2 65720.8 Q 228442.4 62918.8 231047.6 57536.8 L 224879.6 57536.8 L 224879.6 55817.2 L 231810.8 55817.2 Q 232473.2 54121.6 232890.8 52648 L 234710 53089.6 Q 234095.6 55032.4 233751.2 55818.4 L 246260 55818.4 L 246260 57538 L 233039.6 57538 L 233038.4 57535.6 Z M 271007.6 64441.6 L 261004.4 64441.6 L 261004.4 75059.2 L 259013.6 75059.2 L 259013.6 64441.6 L 249208.4 64441.6 L 249208.4 62574.4 L 259013.6 62574.4 L 259013.6 56258.8 L 250461.2 56258.8 L 250461.2 54415.6 L 269876 54415.6 L 269876 56258.8 L 261004.4 56258.8 L 261004.4 62574.4 L 271007.6 62574.4 L 271007.6 64441.6 Z M 277692.8 63458.8 Q 276267.2 62033.2 273392 60804.4 L 274400 59452 Q 277275.2 60607.6 278748.8 61936 L 277692.8 63458.8 Z M 273981.2 73657.6 Q 275948 70414 277914.8 65819.2 L 279340.4 66899.2 Q 277497.2 71249.2 275604.8 74738.8 L 273982.4 73657.6 L 273981.2 73657.6 Z M 275676.8 52964.8 Q 278478.8 54242.8 279929.6 55619.2 L 278848.4 57094 Q 277496 55692.4 274668.8 54266.8 L 275676.8 52964.8 Z M 294748.4 63976 Q 293396 68718.4 290176.4 71348.8 Q 287004.8 74003.2 281254.4 75156.4 Q 280960.4 74224 280296.8 73486 Q 285726.8 72527.2 288725.6 70142.8 Q 291700.4 67782.4 292978.4 63457.6 L 294748.4 63974.8 L 294748.4 63976 Z M 285213.2 63482.8 Q 284205.2 66899.2 282288.8 69308.8 Q 281698.4 68767.6 280814 68350 Q 282584 66310 283518.8 63065.2 L 285214.4 63482.8 L 285213.2 63482.8 Z M 295854.8 60140.8 L 295854.8 61763.2 L 289023.2 61763.2 L 289023.2 68939.2 L 287130.8 68939.2 L 287130.8 61763.2 L 280348.4 61763.2 L 280348.4 60140.8 L 282756.8 60140.8 L 282756.8 55004.8 L 284550.8 55004.8 L 284550.8 60140.8 L 287352.8 60140.8 L 287352.8 52694.8 L 289196 52694.8 L 289196 55718.8 L 294677.6 55718.8 L 294677.6 57265.6 L 289196 57265.6 L 289196 60140.8 L 295857.2 60140.8 L 295854.8 60140.8 Z M 316571.6 57487.6 Q 315687.2 56233.6 313475.6 53875.6 L 314876 52991.2 Q 317112.8 55276 318047.6 56480.8 L 316572.8 57488.8 L 316571.6 57487.6 Z M 307478 64344.4 Q 308903.6 67292.8 311410.4 69406 Q 313892 67244.8 315170 64344.4 L 307476.8 64344.4 L 307478 64344.4 Z M 317628.8 63091.6 Q 316179.2 67540 312861.2 70512.4 Q 316104.8 72725.2 320578.4 73560.4 Q 319940 74174.8 319446.8 75182.8 Q 314753.6 74150.8 311459.6 71668 Q 308240 73978 303891.2 75157.6 Q 303545.6 74347.6 302931.2 73584.4 Q 306938 72652 310010 70488.4 Q 307822.4 68448.4 306348.8 65696.8 Q 303718.4 70366 299171.6 73193.2 Q 298656.8 72406 297821.6 71791.6 Q 304062.8 67981.6 306617.6 59970.4 L 303201.2 59970.4 Q 300940.4 59970.4 300596 60388 Q 300203.6 59159.2 299981.6 58668.4 Q 300448.4 58544.8 300866 57684.4 Q 301874 55990 302512.4 53335.6 L 304428.8 53704 Q 303890 55744 302661.2 58201.6 L 307083.2 58201.6 Q 307797.2 55547.2 308115.2 52574.8 L 310155.2 52868.8 Q 309737.6 55817.2 309172.4 58201.6 L 319764.8 58201.6 L 319740.8 59971.6 L 308681.6 59971.6 Q 308288 61224.4 307821.2 62576.8 L 316054.4 62576.8 L 316398.8 62479.6 L 317627.6 63094 L 317628.8 63091.6 Z M 344759.6 72552.4 L 344759.6 74322.4 L 322985.6 74322.4 L 322985.6 72552.4 L 332939.6 72552.4 L 332939.6 66311.2 L 325640 66311.2 L 325640 64541.2 L 332939.6 64541.2 L 332939.6 59183.2 L 327164 59183.2 Q 325960.4 61567.6 324584 63190 Q 323870 62575.6 322937.6 62108.8 Q 325860.8 58963.6 327483.2 53065.6 L 329326.4 53459.2 Q 328662.8 55744 327951.2 57390.4 L 332939.6 57390.4 L 332939.6 52672 L 334806.8 52672 L 334806.8 57390.4 L 343605.2 57390.4 L 343605.2 59184.4 L 334806.8 59184.4 L 334806.8 64542.4 L 342696.8 64542.4 L 342696.8 66312.4 L 334806.8 66312.4 L 334806.8 72553.6 L 344760.8 72553.6 L 344759.6 72552.4 Z M 349430 74542 Q 352353.2 73338.4 352526 70930 Q 352378.4 70954 352108.4 70954 Q 351321.2 70954 350806.4 70511.2 Q 350265.2 70045.6 350265.2 69209.2 Q 350265.2 68374 350830.4 67883.2 Q 351347.6 67440.4 352133.6 67440.4 Q 354222.8 67440.4 354222.8 70267.6 Q 354222.8 74347.6 349971.2 75846.4 L 349430 74542 Z M 389316.8 72922 Q 390987.2 72922 391553.6 72085.6 Q 392044.4 71299.6 392289.2 68596 Q 392952.8 69062.8 393984.8 69332.8 Q 393690.8 72404.8 392855.6 73436.8 Q 391920.8 74592.4 389339.6 74592.4 L 380738 74592.4 Q 377986.4 74592.4 377027.6 73806.4 Q 376019.6 73019.2 376019.6 70734.4 L 376019.6 63065.2 L 372012.8 64319.2 L 371522 62672.8 L 376019.6 61295.2 L 376019.6 54316 L 377789.6 54316 L 377789.6 60754 L 382877.6 59180.8 L 382877.6 52692.4 L 384671.6 52692.4 L 384671.6 58640.8 L 390372.8 56870.8 L 390890 56477.2 L 392168 57042.4 L 392068.4 57386.8 Q 391944.8 64514.8 391282.4 66382 Q 390668 68028.4 389315.6 68225.2 Q 388234.4 68396.8 386440.4 68348.8 Q 386316.8 67243.6 385972.4 66653.2 Q 386832.8 66726.4 388430 66726.4 Q 389338.4 66726.4 389708 65570.8 Q 390198.8 64170.4 390272 58640.8 L 384669.2 60384.4 L 384669.2 69870.4 L 382875.2 69870.4 L 382875.2 60948.4 L 377787.2 62521.6 L 377787.2 70778.8 Q 377787.2 72080.8 378328.4 72499.6 Q 378893.6 72917.2 380663.6 72917.2 L 389314.4 72917.2 L 389316.8 72922 Z M 416547.2 58176.4 Q 415809.2 56454.4 414089.6 54514 L 415318.4 53826.4 Q 417088.4 55693.6 417850.4 57365.2 L 416548.4 58176.4 L 416547.2 58176.4 Z M 407822 57314.8 L 396665.6 57314.8 L 396665.6 55692.4 L 401898.8 55692.4 Q 401702 55054 400793.6 53014 L 402464 52645.6 Q 403348.4 54316 403767.2 55692.4 L 407822 55692.4 L 407822 57314.8 Z M 400352 66802 Q 399515.6 70439.2 397894.4 72749.2 Q 397304 72307.6 396566 71864.8 Q 398088.8 69850 398826.8 66481.6 L 400352 66802 Z M 399588.8 63706 L 405118.4 63706 L 405118.4 60755.2 L 399588.8 60755.2 L 399588.8 63706 Z M 403324.4 65179.6 L 403324.4 73142.8 Q 403324.4 74322.4 402586.4 74666.8 Q 401898.8 74987.2 399932 74938 Q 399858.8 74274.4 399417.2 73439.2 Q 400916 73488.4 401333.6 73439.2 Q 401678 73439.2 401678 73121.2 L 401678 65182 L 397991.6 65182 L 397991.6 59260 L 406814 59260 L 406814 65182 L 403324.4 65182 L 403324.4 65179.6 Z M 406053.2 71126.8 Q 405659.6 69235.6 404307.2 66802 L 405611.6 66211.6 Q 407036 68621.2 407429.6 70488.4 L 406053.2 71126.8 Z M 412860.8 60658 Q 411950 70906 407331.2 75133.6 Q 406840.4 74495.2 406004 74028.4 Q 410428.4 70194.4 411190.4 60658 L 408045.2 60658 L 408045.2 59011.6 L 411314 59011.6 Q 411413.6 57438.4 411461.6 52720 L 413181.2 52720 Q 413133.2 57314.8 413009.6 59010.4 L 418612.4 59010.4 L 418612.4 60656.8 L 412862 60656.8 L 412860.8 60658 Z M 416399.6 73118.8 Q 416964.8 73118.8 417112.4 72995.2 Q 417406.4 72871.6 417479.6 72330.4 Q 417555.2 71839.6 417603.2 69676 Q 418144.4 70193.2 419028.8 70414 Q 418979.6 72577.6 418758.8 73313.2 Q 418562 74003.2 417996.8 74272 Q 417530 74518 416595.2 74518 L 415022 74518 Q 414015.2 74518 413498 74100.4 Q 412932.8 73682.8 412932.8 71863.6 L 412932.8 62598.4 L 414555.2 62598.4 L 414555.2 72060.4 Q 414555.2 72871.6 414750.8 72995.2 Q 414996.8 73118.8 415341.2 73118.8 L 416398.4 73118.8 L 416399.6 73118.8 Z M 432569.6 56357.2 Q 432569.6 61002.4 428195.6 63091.6 Q 427754 62377.6 426992 61763.2 Q 430802 59969.2 430802 56306.8 L 430802 53531.2 L 439157.6 53531.2 L 439157.6 58912 Q 439157.6 59872 439648.4 59872 L 441761.6 59872 Q 442572.8 59872 443090 59723.2 L 443261.6 61493.2 Q 442868 61640.8 441812 61640.8 L 439526 61640.8 Q 438249.2 61640.8 437782.4 61002.4 Q 437364.8 60437.2 437364.8 58864 L 437364.8 55250.8 L 432570.8 55250.8 L 432570.8 56356 L 432569.6 56357.2 Z M 426401.6 57118 Q 424706 55840 421978.4 54293.2 L 423010.4 52991.2 Q 425910.8 54514 427460 55645.6 L 426402.8 57119.2 L 426401.6 57118 Z M 425296.4 63558.4 Q 423600.8 62304.4 420774.8 60904 L 421781.6 59551.6 Q 424829.6 61025.2 426328.4 62058.4 L 425296.4 63557.2 L 425296.4 63558.4 Z M 427236.8 66851.2 Q 425246 71102.8 423058.4 74740 L 421535.6 73560.4 Q 423648.8 70364.8 425909.6 65719.6 L 427235.6 66851.2 L 427236.8 66851.2 Z M 431120 65155.6 Q 432472.4 67834 435027.2 69824.8 Q 437681.6 67834 439059.2 65155.6 L 431120 65155.6 Z M 441564.8 63902.8 Q 440115.2 68054.8 436576.4 70882 Q 439599.2 72725.2 443458.4 73412.8 Q 442696.4 74224 442278.8 75108.4 Q 438002 74124.4 434979.2 72011.2 Q 431807.6 74051.2 427359.2 75083.2 Q 426990.8 74150.8 426424.4 73412.8 Q 430332.8 72674.8 433478 70855.6 Q 430823.6 68620 429300.8 65326 L 429791.6 65154.4 L 428242.4 65154.4 L 428242.4 63434.8 L 440015.6 63434.8 L 440360 63361.6 L 441563.6 63902.8 L 441564.8 63902.8 Z M 462774.8 62033.2 L 452526.8 62033.2 L 452526.8 64516 L 462774.8 64516 L 462774.8 62033.2 Z M 462774.8 68669.2 L 462774.8 66114.4 L 452526.8 66114.4 L 452526.8 68669.2 L 462774.8 68669.2 Z M 454222.4 57535.6 Q 453338 59354.8 452723.6 60386.8 L 464568.8 60386.8 L 464568.8 72798.4 Q 464568.8 74347.6 463536.8 74740 Q 462652.4 75060.4 459260 75060.4 Q 459162.8 74273.2 458672 73266.4 Q 459753.2 73314.4 462210.8 73314.4 Q 462776 73290.4 462776 72799.6 L 462776 70242.4 L 452528 70242.4 L 452528 75084.4 L 450734 75084.4 L 450734 63239.2 Q 448890.8 65549.2 446628.8 67122.4 Q 446187.2 66384.4 445473.2 65720.8 Q 449626.4 62918.8 452231.6 57536.8 L 446063.6 57536.8 L 446063.6 55817.2 L 452994.8 55817.2 Q 453657.2 54121.6 454074.8 52648 L 455894 53089.6 Q 455279.6 55032.4 454935.2 55818.4 L 467444 55818.4 L 467444 57538 L 454223.6 57538 L 454222.4 57535.6 Z M 490864.4 55495.6 Q 487374.8 59354.8 482312 62082.4 L 482312 72698.8 Q 482312 74394.4 481034 74764 Q 480027.2 75082 475996.4 75082 Q 475823.6 74222.8 475258.4 73264 Q 478010 73361.2 479756 73288 Q 480418.4 73264 480418.4 72697.6 L 480418.4 61172.8 Q 484031.6 59402.8 487251.2 56354.8 L 471449.6 56354.8 L 471449.6 54560.8 L 488997.2 54560.8 L 489440 54437.2 L 490864.4 55493.2 L 490864.4 55495.6 Z M 497327.6 55840 L 497327.6 60486.4 L 501334.4 60486.4 L 501334.4 55840 L 497327.6 55840 Z M 501334.4 67022.8 L 501334.4 62156.8 L 497327.6 62156.8 L 497327.6 67022.8 L 501334.4 67022.8 Z M 497327.6 68718.4 L 497327.6 70979.2 L 495608 70979.2 L 495608 54169.6 L 503054 54169.6 L 503054 68718.4 L 497327.6 68718.4 Z M 514284.8 65597.2 L 514284.8 61296.4 L 507796.4 61296.4 L 507796.4 62404 Q 507796.4 64271.2 507648.8 65597.2 L 514283.6 65597.2 L 514284.8 65597.2 Z M 507796.4 55422.4 L 507796.4 59626 L 514284.8 59626 L 514284.8 55422.4 L 507796.4 55422.4 Z M 516080 72698.8 Q 516080 74272 515048 74714.8 Q 514113.2 75059.2 510795.2 75059.2 Q 510674 74198.8 510156.8 73266.4 Q 510944 73290.4 513695.6 73290.4 Q 514284.8 73266.4 514284.8 72700 L 514284.8 67270 L 507405.2 67270 Q 506494.4 72430 503030 75233.2 Q 502488.8 74495.2 501677.6 74028.4 Q 506002.4 70489.6 506002.4 62405.2 L 506002.4 53704 L 516078.8 53704 L 516078.8 72701.2 L 516080 72698.8 Z M 540876.8 57144.4 L 528147.2 57144.4 L 528147.2 55522 L 533897.6 55522 Q 533454.8 54047.2 533013.2 53064.4 L 534683.6 52646.8 Q 535445.6 54193.6 535790 55522 L 540878 55522 L 540878 57144.4 L 540876.8 57144.4 Z M 521733.2 56160.4 L 521733.2 61542.4 L 524976.8 61542.4 L 524976.8 56160.4 L 521733.2 56160.4 Z M 524975.6 68866 L 524975.6 63212.8 L 521732 63212.8 L 521732 68866 L 524975.6 68866 Z M 526598 70537.6 L 521732 70537.6 L 521732 72454 L 520133.6 72454 L 520133.6 54463.6 L 526598 54463.6 L 526598 70537.6 Z M 530800.4 66064 L 530800.4 68497.6 L 538370 68497.6 L 538370 66064 L 530800.4 66064 Z M 538370 72478 L 538370 69947.2 L 530800.4 69947.2 L 530800.4 72478 L 538370 72478 Z M 529106 64541.2 L 540116 64541.2 L 540116 75035.2 L 538370 75035.2 L 538370 74051.2 L 530800.4 74051.2 L 530800.4 75083.2 L 529106 75083.2 L 529106 64541.2 Z M 541638.8 61051.6 L 541638.8 62674 L 527458.4 62674 L 527458.4 61051.6 L 530997.2 61051.6 Q 530752.4 59920 529916 57708.4 L 531441.2 57265.6 Q 532276.4 59108.8 532670 60707.2 L 531588.8 61051.6 L 536183.6 61051.6 Q 536921.6 59405.2 537512 57292 L 539379.2 57660.4 Q 538667.6 59406.4 537856.4 61052.8 L 541640 61052.8 L 541638.8 61051.6 Z M 565526 57832 L 544439.6 57832 L 544439.6 56036.8 L 554639.6 56036.8 Q 554196.8 54931.6 553017.2 53015.2 L 554712.8 52424.8 Q 555965.6 54194.8 556530.8 55596.4 L 555425.6 56038 L 565526 56038 L 565526 57833.2 L 565526 57832 Z M 559308.8 58543.6 Q 563633.6 61492 565625.6 63852.4 L 564126.8 65032 Q 562086.8 62450.8 557907.2 59600.8 L 559308.8 58543.6 Z M 552329.6 59281.6 Q 549846.8 62426.8 545939.6 64957.6 Q 545252 64146.4 544540.4 63581.2 Q 548348 61417.6 550584.8 58591.6 L 552330.8 59279.2 L 552329.6 59281.6 Z M 560561.6 63238 Q 559062.8 66948.4 556457.6 69455.2 Q 560316.8 72379.6 566164.4 73288 Q 565502 73951.6 565035.2 74934.4 Q 558915.2 73754.8 555081.2 70633.6 Q 551418.8 73534 545054 75155.2 Q 544660.4 74270.8 543948.8 73508.8 Q 550092.8 72232 553755.2 69430 Q 551297.6 67045.6 549772.4 63359.2 L 551394.8 62866 Q 552647.6 66013.6 555081.2 68298.4 Q 557514.8 65988.4 558694.4 62719.6 L 560561.6 63236.8 L 560561.6 63238 Z M 12099.2 106746 Q 11091.2 105811.2 8682.8 104043.6 Q 7380.8 106501.2 4408.4 108171.6 Q 3744.8 107311.2 3203.6 106918.8 Q 6447.2 105296.4 7504.4 102518.4 L 3621.2 102518.4 L 3621.2 101019.6 L 7922 101019.6 Q 8094.8 100135.2 8094.8 98882.4 L 4359.2 98882.4 L 4359.2 97407.6 L 8094.8 97407.6 L 8094.8 95246.4 L 9838.4 95246.4 L 9838.4 97407.6 L 13107.2 97407.6 L 13107.2 98882.4 L 9838.4 98882.4 Q 9838.4 99987.6 9666.8 101019.6 L 13524.8 101019.6 L 13524.8 102518.4 L 9323.6 102518.4 L 9298.4 102591.6 Q 12052.4 104434.8 13256 105516 L 12100.4 106744.8 L 12099.2 106746 Z M 8462 108932.4 L 8462 111292.8 L 20135.6 111292.8 L 20135.6 108932.4 L 8462 108932.4 Z M 20135.6 115224 L 20135.6 112718.4 L 8462 112718.4 L 8462 115224 L 20135.6 115224 Z M 6693.2 107360.4 L 21956 107360.4 L 21956 117608.4 L 20136.8 117608.4 L 20136.8 116797.2 L 8463.2 116797.2 L 8463.2 117708 L 6693.2 117708 L 6693.2 107360.4 Z M 20970.8 102518.4 Q 22617.2 105466.8 25689.2 106574.4 Q 24977.6 107089.2 24534.8 107949.6 Q 21315.2 106548 19545.2 103107.6 Q 18316.4 105736.8 14926.4 107335.2 Q 14483.6 106621.2 13796 106032 Q 16818.8 104803.2 17950.4 102517.2 L 14460.8 102517.2 L 14460.8 101018.4 L 18417.2 101018.4 Q 18588.8 100232.4 18588.8 99127.2 L 18588.8 98881.2 L 14951.6 98881.2 L 14951.6 97406.4 L 18588.8 97406.4 L 18588.8 95245.2 L 20358.8 95245.2 L 20358.8 97406.4 L 24315.2 97406.4 L 24315.2 98881.2 L 20358.8 98881.2 L 20358.8 99127.2 Q 20358.8 100059.6 20211.2 101018.4 L 25053.2 101018.4 L 25053.2 102517.2 L 20973.2 102517.2 L 20970.8 102518.4 Z M 35667.2 100822.8 L 30507.2 100822.8 L 30507.2 105960 L 35667.2 105960 L 35667.2 100822.8 Z M 35667.2 113480.4 L 35667.2 107581.2 L 30507.2 107581.2 L 30507.2 113480.4 L 35667.2 113480.4 Z M 34538 95563.2 Q 33456.8 98660.4 33260 99175.2 L 37340 99175.2 L 37340 115125.6 L 30508.4 115125.6 L 30508.4 117066 L 28836.8 117066 L 28836.8 99175.2 L 31590.8 99175.2 Q 32328.8 96790.8 32573.6 95193.6 L 34540.4 95562 L 34538 95563.2 Z M 49356.8 100036.8 Q 48839.6 114782.4 47660 116232 Q 46972.4 117092.4 45719.6 117216 Q 44711.6 117337.2 42081.2 117189.6 Q 41984 116181.6 41466.8 115395.6 Q 43065.2 115543.2 45105.2 115543.2 Q 45816.8 115543.2 46110.8 115174.8 Q 47168 114043.2 47609.6 100796.4 L 41368.4 100796.4 Q 40236.8 103524 39057.2 105097.2 Q 38736.8 104803.2 37557.2 104065.2 Q 39965.6 100893.6 41318 95143.2 L 43064 95560.8 Q 42597.2 97477.2 42006.8 99099.6 L 49355.6 99099.6 L 49355.6 100034.4 L 49356.8 100036.8 Z M 43924.4 111120 Q 42795.2 108835.2 40190 105442.8 L 41615.6 104607.6 Q 44318 108048 45473.6 110161.2 L 43924.4 111120 Z M 72630.8 97676.4 Q 70590.8 100848 68796.8 102862.8 L 67247.6 102200.4 Q 69311.6 99790.8 70762.4 96940.8 L 72629.6 97676.4 L 72630.8 97676.4 Z M 58204.4 102888 Q 57171.2 100724.4 54665.6 97676.4 L 56115.2 96865.2 Q 58572.8 99741.6 59777.6 101929.2 L 58204.4 102888 Z M 71721.2 115470 Q 72262.4 115470 72434 115076.4 Q 72606.8 114708 72680 113379.6 Q 73269.2 113822.4 74374.4 114067.2 Q 74202.8 115910.4 73685.6 116550 Q 73170.8 117213.6 71868.8 117213.6 L 68082.8 117213.6 Q 66412.4 117213.6 65847.2 116672.4 Q 65306 116155.2 65306 114606 L 65306 106053.6 L 61470.8 106053.6 Q 61102.4 110821.2 59726 113205.6 Q 57980 116301.6 53704.4 117776.4 Q 53286.8 116865.6 52548.8 116203.2 Q 56505.2 114949.2 58078.4 112270.8 Q 59282 110230.8 59578.4 106053.6 L 52868 106053.6 L 52868 104283.6 L 62502.8 104283.6 L 62502.8 95240.4 L 64394 95240.4 L 64394 104283.6 L 73979.6 104283.6 L 73979.6 106053.6 L 67121.6 106053.6 L 67121.6 114582 Q 67121.6 115147.2 67343.6 115320 Q 67539.2 115467.6 68277.2 115467.6 L 71718.8 115467.6 L 71721.2 115470 Z M 87252.8 99643.2 Q 86762 98094 85827.2 96030 L 87473.6 95515.2 Q 88530.8 97702.8 88948.4 99028.8 L 87252.8 99643.2 Z M 84204.8 113184 Q 82707.2 113626.8 80397.2 114265.2 L 76955.6 115249.2 L 76587.2 113479.2 Q 78282.8 113085.6 79635.2 112717.2 L 79635.2 106252.8 L 77152.4 106252.8 L 77152.4 104606.4 L 79635.2 104606.4 L 79635.2 98806.8 L 76907.6 98806.8 L 76907.6 97135.2 L 83910.8 97135.2 L 83910.8 98806.8 L 81256.4 98806.8 L 81256.4 104606.4 L 83444 104606.4 L 83444 106252.8 L 81256.4 106252.8 L 81256.4 112299.6 L 83960 111536.4 L 84204.8 113182.8 L 84204.8 113184 Z M 89120 114536.4 Q 88751.6 113504.4 87843.2 111391.2 Q 86244.8 115225.2 83690 117585.6 Q 83223.2 116971.2 82485.2 116332.8 Q 85336.4 113799.6 86933.6 109401.6 Q 85336.4 105985.2 83910.8 103354.8 L 85312.4 102667.2 Q 86048 104044.8 87670.4 107140.8 Q 88310 104830.8 88824.8 101587.2 L 83442.8 101587.2 L 83442.8 99939.6 L 91626.8 99939.6 L 91626.8 101587.2 L 90471.2 101587.2 Q 89783.6 105838.8 88678.4 109231.2 Q 90004.4 111933.6 90644 113629.2 L 89118.8 114537.6 L 89120 114536.4 Z M 99270.8 115126.8 L 99270.8 116822.4 L 90128 116822.4 L 90128 115126.8 L 94110.8 115126.8 L 94110.8 107212.8 L 91308.8 107212.8 L 91308.8 105542.4 L 94110.8 105542.4 L 94110.8 98635.2 L 90989.6 98635.2 L 90989.6 96964.8 L 99026 96964.8 L 99026 98635.2 L 95830.4 98635.2 L 95830.4 105542.4 L 98459.6 105542.4 L 98459.6 107212.8 L 95830.4 107212.8 L 95830.4 115126.8 L 99270.8 115126.8 Z M 107774 110899.2 Q 108879.2 112004.4 108879.2 113553.6 Q 108879.2 115102.8 107774 116208 Q 106692.8 117313.2 105119.6 117313.2 Q 103596.8 117313.2 102489.2 116208 Q 101384 115102.8 101384 113553.6 Q 101384 112004.4 102489.2 110899.2 Q 103596.8 109818 105119.6 109818 Q 106692.8 109818 107774 110899.2  Z M 106889.6 115323.6 Q 107601.2 114609.6 107601.2 113553.6 Q 107601.2 112521.6 106889.6 111807.6 Q 106151.6 111072 105119.6 111072 Q 104111.6 111072 103373.6 111807.6 Q 102635.6 112545.6 102635.6 113553.6 Q 102635.6 114585.6 103373.6 115323.6 Q 104111.6 116061.6 105119.6 116061.6 Q 106175.6 116061.6 106889.6 115323.6  Z M 146038.4 101044.8 Q 144736.4 99078 142181.6 96865.2 L 143582 95906.4 Q 146212.4 98119.2 147514.4 99986.4 L 146039.6 101043.6 L 146038.4 101044.8 Z M 146922.8 106008 Q 145276.4 109105.2 142647.2 111783.6 Q 144146 115936.8 145913.6 115936.8 Q 146824.4 115936.8 147021.2 111536.4 Q 147732.8 112224 148568 112520.4 Q 148323.2 115567.2 147708.8 116648.4 Q 147118.4 117753.6 145742 117753.6 Q 143014.4 117753.6 141195.2 113158.8 Q 138737.6 115346.4 136010 116772 Q 135519.2 115960.8 134757.2 115322.4 Q 138002 113749.2 140580.8 111339.6 Q 139696.4 108267.6 139205.6 104212.8 L 133431.2 104212.8 L 133431.2 108145.2 L 137829.2 107186.4 L 137952.8 108832.8 Q 136797.2 109126.8 133431.2 109888.8 L 133431.2 115345.2 Q 133431.2 116943.6 132374 117361.2 Q 131489.6 117705.6 128294 117705.6 Q 128122.4 116845.2 127605.2 115862.4 Q 129744.8 115959.6 131046.8 115886.4 Q 131636 115886.4 131636 115321.2 L 131636 110332.8 L 128957.6 110922 Q 127163.6 111339.6 126549.2 111463.2 L 126032 109620 Q 127360.4 109399.2 131636 108514.8 L 131636 104214 L 126376.4 104214 L 126376.4 102470.4 L 131636 102470.4 L 131636 98562 Q 129498.8 98979.6 127114.4 99300 Q 126942.8 98538 126524 97776 Q 132840.8 96817.2 136233.2 95563.2 L 137535.2 97062 Q 135716 97701.6 133431.2 98192.4 L 133431.2 102469.2 L 139058 102469.2 Q 138764 99397.2 138714.8 95464.8 L 140582 95464.8 Q 140582 99175.2 140878.4 102469.2 L 148102.4 102469.2 L 148102.4 104212.8 L 141075.2 104212.8 Q 141443.6 107334 142082 109815.6 Q 144048.8 107702.4 145301.6 105344.4 L 146924 106006.8 L 146922.8 106008 Z M 156779.6 95859.6 Q 156089.6 98317.2 154910 101092.8 L 154910 117681.6 L 153140 117681.6 L 153140 104658 Q 152328.8 106082.4 151444.4 107238 Q 151076 106206 150461.6 105394.8 Q 153312.8 101733.6 155106.8 95392.8 L 156778.4 95859.6 L 156779.6 95859.6 Z M 157859.6 100184.4 L 159629.6 100184.4 L 159629.6 117708 L 157859.6 117708 L 157859.6 100184.4 Z M 160293.2 95269.2 Q 162357.2 98071.2 163217.6 99963.6 L 161718.8 100822.8 Q 160810.4 98661.6 158867.6 96031.2 L 160293.2 95269.2 Z M 172064 115372.8 Q 172064 116895.6 171081.2 117313.2 Q 170295.2 117633.6 167174 117633.6 Q 167050.4 116797.2 166583.6 115888.8 Q 168500 115988.4 169728.8 115912.8 Q 170270 115888.8 170270 115347.6 L 170270 97824 L 163635.2 97824 L 163635.2 96153.6 L 172064 96153.6 L 172064 115372.8 Z M 182878.4 95907.6 Q 181970 98365.2 180371.6 101167.2 L 180371.6 117658.8 L 178553.6 117658.8 L 178553.6 103994.4 Q 177472.4 105517.2 176120 106918.8 Q 175653.2 105763.2 175062.8 105099.6 Q 178922 101364 181133.6 95343.6 L 182879.6 95908.8 L 182878.4 95907.6 Z M 190054.4 101092.8 L 190054.4 104607.6 L 197058.8 104607.6 L 197058.8 106303.2 L 190054.4 106303.2 L 190054.4 110013.6 L 197403.2 110013.6 L 197403.2 111733.2 L 190054.4 111733.2 L 190054.4 117680.4 L 188211.2 117680.4 L 188211.2 101091.6 L 186515.6 101091.6 Q 184893.2 104115.6 183026 106203.6 Q 182435.6 105565.2 181600.4 104974.8 Q 185042 101412 187006.4 95562 L 188752.4 96028.8 Q 188235.2 97503.6 187400 99346.8 L 197624 99346.8 L 197624 101090.4 L 190054.4 101090.4 L 190054.4 101092.8 Z M 205266.8 100357.2 Q 204504.8 98709.6 202709.6 96645.6 L 204282.8 95958 Q 206004.8 97850.4 206937.2 99546 L 205266.8 100357.2 Z M 220725.2 101142 L 220701.2 102100.8 Q 220184 115076.4 219028.4 116452.8 Q 218292.8 117313.2 216990.8 117410.4 Q 215638.4 117534 213107.6 117362.4 Q 213008 116378.4 212466.8 115470 Q 214089.2 115641.6 216276.8 115641.6 Q 216990.8 115641.6 217335.2 115273.2 Q 218318 114290.4 218784.8 102961.2 L 210354.8 102961.2 Q 209199.2 112250.4 201508.4 117362.4 Q 201017.6 116624.4 200082.8 116034 Q 207356 111291.6 208487.6 102960 L 200770.4 102960 L 200770.4 101140.8 L 208684.4 101140.8 Q 208781.6 99764.4 208781.6 98191.2 L 208781.6 95316 L 210600.8 95316 L 210600.8 98215.2 Q 210600.8 99591.6 210527.6 101140.8 L 220726.4 101140.8 L 220725.2 101142 Z M 214236.8 111513.6 Q 213228.8 109400.4 210920 106696.8 L 212418.8 105961.2 Q 214803.2 108566.4 215835.2 110630.4 L 214236.8 111514.8 L 214236.8 111513.6 Z M 236331.2 109400.4 L 234585.2 109400.4 L 234585.2 96448.8 L 245326.4 96448.8 L 245326.4 109400.4 L 243531.2 109400.4 L 243531.2 98071.2 L 236331.2 98071.2 L 236331.2 109400.4 Z M 231636.8 114217.2 Q 231146 112718.4 229917.2 110358 Q 228074 114290.4 225543.2 116674.8 Q 224903.6 115838.4 224192 115297.2 Q 226895.6 112888.8 228812 108343.2 Q 226845.2 104950.8 224708 102123.6 L 226108.4 101215.2 Q 228024.8 103722 229623.2 106252.8 Q 230852 102663.6 231366.8 98904 L 224608.4 98904 L 224608.4 97160.4 L 231809.6 97160.4 L 232154 97087.2 L 233309.6 97431.6 Q 232622 103476 230826.8 108219.6 Q 232522.4 111168 233210 113084.4 L 231636.8 114216 L 231636.8 114217.2 Z M 244391.6 115838.4 Q 244982 115838.4 245177.6 115076.4 Q 245350.4 114338.4 245423.6 111709.2 Q 246014 112150.8 246922.4 112396.8 Q 246750.8 115419.6 246357.2 116254.8 Q 245866.4 117238.8 244367.6 117238.8 L 242302.4 117238.8 Q 241049.6 117238.8 240558.8 116796 Q 240017.6 116354.4 240017.6 115174.8 L 240017.6 109596 Q 238518.8 114879.6 233136.8 117681.6 Q 232670 116797.2 232007.6 116355.6 Q 236135.6 114266.4 237758 110850 Q 238913.6 108417.6 238913.6 104828.4 L 238913.6 100134 L 240633.2 100134 L 240633.2 104852.4 Q 240633.2 107114.4 240166.4 109078.8 L 241715.6 109078.8 L 241715.6 115002 Q 241715.6 115837.2 242574.8 115837.2 L 244394 115837.2 L 244391.6 115838.4 Z M 251321.6 101019.6 L 249578 101019.6 L 249578 97285.2 L 259408.4 97285.2 Q 259014.8 96326.4 258573.2 95563.2 L 260343.2 95145.6 Q 261030.8 96277.2 261448.4 97285.2 L 270591.2 97285.2 L 270591.2 101019.6 L 268796 101019.6 L 268796 98832 L 251322.8 98832 L 251322.8 101019.6 L 251321.6 101019.6 Z M 256655.6 112718.4 Q 254468 115372.8 250608.8 117264 Q 250118 116576.4 249356 115912.8 Q 253115.6 114390 254982.8 112129.2 L 256654.4 112719.6 L 256655.6 112718.4 Z M 261227.6 111562.8 L 261227.6 115666.8 Q 261227.6 116968.8 260316.8 117313.2 Q 259578.8 117559.2 256703.6 117559.2 Q 256582.4 116845.2 256115.6 115986 Q 258303.2 116059.2 258990.8 116010 Q 259457.6 115986 259457.6 115640.4 L 259457.6 111561.6 L 251838.8 111561.6 L 251838.8 109963.2 L 268403.6 109963.2 L 268403.6 111561.6 L 261227.6 111561.6 L 261227.6 111562.8 Z M 264642.8 112104 Q 268402.4 114044.4 270736.4 115814.4 L 269483.6 117043.2 Q 267197.6 115249.2 263438 113184 L 264642.8 112104 Z M 262626.8 102370.8 Q 263634.8 103944 264960.8 105123.6 Q 266141.6 103944 267148.4 102370.8 L 262626.8 102370.8 Z M 269508.8 101510.4 Q 268107.2 104091.6 266116.4 106058.4 Q 268304 107730 271449.2 108492 Q 270860 109006.8 270393.2 109941.6 Q 266951.6 109006.8 264446 106869.6 L 264446 108122.4 L 256065.2 108122.4 L 256065.2 107017.2 Q 253460 109425.6 249797.6 110679.6 Q 249429.2 109917.6 248888 109351.2 Q 251198 108639.6 253089.2 107361.6 Q 252106.4 106378.8 251246 105812.4 L 252377.6 105076.8 Q 253312.4 105691.2 254244.8 106575.6 Q 255129.2 105837.6 255546.8 105420 Q 254835.2 104780.4 253606.4 103994.4 L 254541.2 103183.2 Q 255500 103700.4 256458.8 104462.4 Q 257170.4 103626 257932.4 102201.6 L 254442.8 102201.6 Q 252624.8 104289.6 249994.4 105715.2 Q 249600.8 105003.6 248962.4 104584.8 Q 252869.6 102644.4 254589.2 99375.6 L 256235.6 99669.6 L 255449.6 100947.6 L 258348.8 100947.6 L 258348.8 100923.6 L 258669.2 100923.6 L 258939.2 100850.4 L 259971.2 101365.2 Q 258939.2 104240.4 256581.2 106550.4 L 264101.6 106550.4 Q 261226.4 103921.2 259775.6 99817.2 L 261226.4 99423.6 Q 261471.2 100111.2 261840.8 100922.4 L 268132.4 100922.4 L 268450.4 100822.8 L 269507.6 101510.4 L 269508.8 101510.4 Z M 285728 103108.8 Q 287720 101634 289463.6 99963.6 L 284007.2 99963.6 L 284007.2 103108.8 L 285726.8 103108.8 L 285728 103108.8 Z M 290668.4 108859.2 L 280714.4 108859.2 L 280714.4 111292.8 L 290668.4 111292.8 L 290668.4 108859.2 Z M 290668.4 115297.2 L 290668.4 112742.4 L 280714.4 112742.4 L 280714.4 115297.2 L 290668.4 115297.2 Z M 286342.4 104755.2 Q 284378 106156.8 282387.2 107310 L 292535.6 107310 L 292535.6 117583.2 L 290668.4 117583.2 L 290668.4 116895.6 L 280714.4 116895.6 L 280714.4 117681.6 L 278920.4 117681.6 L 278920.4 109179.6 Q 276610.4 110284.8 274422.8 111120 Q 274053.2 110457.6 273267.2 109621.2 Q 278846 107654.4 283367.6 104755.2 L 273807.2 104755.2 L 273807.2 103108.8 L 282212 103108.8 L 282212 99963.6 L 275944.4 99963.6 L 275944.4 98341.2 L 282212 98341.2 L 282212 95269.2 L 284006 95269.2 L 284006 98341.2 L 290076.8 98341.2 L 290076.8 99349.2 Q 291626 97800 292878.8 96104.4 L 294428 96940.8 Q 291897.2 100281.6 288455.6 103108.8 L 295534.4 103108.8 L 295534.4 104755.2 L 286342.4 104755.2 Z M 300278 117140.4 Q 303201.2 115936.8 303374 113528.4 Q 303226.4 113552.4 302956.4 113552.4 Q 302169.2 113552.4 301654.4 113109.6 Q 301113.2 112644 301113.2 111807.6 Q 301113.2 110972.4 301678.4 110481.6 Q 302195.6 110038.8 302981.6 110038.8 Q 305070.8 110038.8 305070.8 112866 Q 305070.8 116946 300819.2 118444.8 L 300278 117140.4 Z M 336208.4 101732.4 Q 337092.8 106303.2 338836.4 109620 Q 340532 106424.4 341294 101485.2 L 336305.6 101485.2 L 336208.4 101731.2 L 336208.4 101732.4 Z M 343212.8 101486.4 Q 342204.8 107630.4 339944 111440.4 Q 342057.2 114636 345202.4 116061.6 Q 344636 116503.2 343948.4 117584.4 Q 340949.6 116035.2 338812.4 113036.4 Q 336575.6 115987.2 332841.2 117805.2 Q 332544.8 117019.2 331758.8 116134.8 Q 335642 114364.8 337755.2 111340.8 Q 336206 108514.8 335124.8 104287.2 Q 334413.2 105712.8 333356 107235.6 Q 332618 106376.4 331955.6 105909.6 L 332076.8 105762 L 325638.8 105762 L 325638.8 113503.2 L 332103.2 111169.2 Q 332103.2 112053.6 332348 112888.8 Q 324460.4 115911.6 323796.8 116526 Q 323526.8 115372.8 323060 114658.8 Q 323822 114314.4 323822 113282.4 L 323822 103966.8 L 330335.6 103966.8 L 330335.6 98782.8 L 323528 98782.8 L 323528 96987.6 L 332129.6 96987.6 L 332129.6 105688.8 Q 334784 102174 336185.6 95244 L 337953.2 95588.4 Q 337462.4 97972.8 336873.2 99766.8 L 344811.2 99766.8 L 344811.2 101486.4 L 343214 101486.4 L 343212.8 101486.4 Z M 354664.4 99373.2 L 347931.2 99373.2 L 347931.2 97750.8 L 357982.4 97750.8 Q 357392 96448.8 356729.6 95466 L 358497.2 95023.2 Q 359456 96424.8 360046.4 97750.8 L 368894 97750.8 L 368894 99373.2 L 362086.4 99373.2 L 362086.4 106771.2 L 360267.2 106771.2 L 360267.2 99373.2 L 356483.6 99373.2 L 356483.6 106795.2 L 354664.4 106795.2 L 354664.4 99373.2 Z M 364420.4 100551.6 Q 367098.8 102912 368648 105148.8 L 367222.4 106081.2 Q 365675.6 103747.2 363045.2 101338.8 L 364421.6 100551.6 L 364420.4 100551.6 Z M 353288 100848 Q 352035.2 103870.8 349774.4 106058.4 Q 349184 105517.2 348348.8 105075.6 Q 350536.4 103183.2 351641.6 100405.2 L 353288 100848 Z M 353387.6 109105.2 Q 355230.8 111463.2 358400 113085.6 Q 361692.8 111488.4 363536 109104 L 353387.6 109104 L 353387.6 109105.2 Z M 366290 108220.8 Q 364323.2 111610.8 360267.2 113947.2 Q 364102.4 115544.4 369508.4 116158.8 Q 368942 116724 368476.4 117756 Q 362602.4 116994 358349.6 114906 Q 354245.6 116797.2 348371.6 117756 Q 348027.2 116847.6 347462 116136 Q 352671.2 115448.4 356530.4 113923.2 Q 353334.8 111932.4 351418.4 109106.4 L 349427.6 109106.4 L 349427.6 107484 L 364787.6 107484 L 365105.6 107386.8 L 366286.4 108222 L 366290 108220.8 Z M 392560.4 98094 Q 389070.8 101953.2 384008 104680.8 L 384008 115297.2 Q 384008 116992.8 382730 117362.4 Q 381723.2 117680.4 377692.4 117680.4 Q 377519.6 116821.2 376954.4 115862.4 Q 379706 115959.6 381452 115886.4 Q 382114.4 115862.4 382114.4 115296 L 382114.4 103771.2 Q 385727.6 102001.2 388947.2 98953.2 L 373145.6 98953.2 L 373145.6 97159.2 L 390693.2 97159.2 L 391136 97035.6 L 392560.4 98091.6 L 392560.4 98094 Z M 398950.4 102445.2 L 401604.8 102445.2 L 401604.8 100651.2 L 398950.4 100651.2 L 398950.4 102445.2 Z M 403227.2 100651.2 L 403227.2 102445.2 L 405659.6 102445.2 L 405659.6 100651.2 L 403227.2 100651.2 Z M 401604.8 104952 Q 399662 107040 397377.2 108097.2 Q 396836 107335.2 396318.8 106892.4 Q 399096.8 105860.4 401013.2 103672.8 L 397450.4 103672.8 L 397450.4 99445.2 L 401603.6 99445.2 L 401603.6 98192.4 L 396737.6 98192.4 L 396737.6 96790.8 L 401603.6 96790.8 L 401603.6 95244 L 403226 95244 L 403226 96790.8 L 407844.8 96790.8 L 407844.8 98192.4 L 403226 98192.4 L 403226 99445.2 L 407230.4 99445.2 L 407230.4 103672.8 L 403226 103672.8 L 403226 104581.2 L 403913.6 103746 Q 405854 104630.4 407255.6 105810 L 406444.4 106891.2 Q 405288.8 105835.2 403224.8 104754 L 403224.8 107899.2 L 401602.4 107899.2 L 401602.4 104950.8 L 401604.8 104952 Z M 408436.4 115470 L 418660.4 115470 L 418660.4 117043.2 L 396516.8 117043.2 L 396516.8 115470 L 400547.6 115470 L 400547.6 111415.2 L 402293.6 111415.2 L 402293.6 115470 L 406643.6 115470 L 406643.6 110112 L 398139.2 110112 L 398139.2 108589.2 L 417088.4 108589.2 L 417088.4 110112 L 408437.6 110112 L 408437.6 112030.8 L 415466 112030.8 L 415466 113455.2 L 408437.6 113455.2 L 408437.6 115471.2 L 408436.4 115470 Z M 411017.6 99546 Q 411803.6 101536.8 413302.4 103256.4 Q 414654.8 101634 415269.2 99520.8 L 411017.6 99546 Z M 417014 99519.6 Q 416129.6 102394.8 414434 104361.6 Q 416277.2 105984 418832 106844.4 Q 418217.6 107409.6 417800 108244.8 Q 415269.2 107310 413328.8 105466.8 Q 411485.6 107065.2 408534.8 108170.4 Q 408069.2 107408.4 407478.8 106867.2 Q 410378 105932.4 412246.4 104311.2 Q 410894 102736.8 410132 101017.2 Q 409344.8 102049.2 408682.4 102712.8 Q 408288.8 102198 407453.6 101484 Q 409862 99296.4 410943.2 95265.6 L 412613.6 95634 Q 412196 97011.6 411754.4 97994.4 L 418586 97994.4 L 418586 99517.2 L 417012.8 99517.2 L 417014 99519.6 Z M 431169.2 102470.4 L 433036.4 102470.4 L 433036.4 117681.6 L 431169.2 117681.6 L 431169.2 102470.4 Z M 433874 96006 Q 433307.6 96964.8 433210.4 97088.4 Q 437241.2 101880 443556.8 104952 Q 442697.6 105590.4 442230.8 106574.4 Q 436307.6 103502.4 432154.4 98514 Q 428174 103624.8 422153.6 106549.2 Q 421612.4 105590.4 420801.2 104902.8 Q 428468 101586 432278 95245.2 L 433876.4 96007.2 L 433874 96006 Z M 462086 101389.2 L 452649.2 101389.2 L 452649.2 99643.2 L 462086 99643.2 L 462086 95342.4 L 463904 95342.4 L 463904 99643.2 L 467296.4 99643.2 L 467296.4 101389.2 L 463904 101389.2 L 463904 111096 Q 463904 112766.4 462724.4 113136 Q 461741.6 113480.4 458079.2 113480.4 Q 457955.6 112620 457440.8 111637.2 Q 459210.8 111686.4 461422.4 111686.4 Q 462086 111661.2 462086 111096 L 462086 101389.2 Z M 455254.4 103329.6 Q 457883.6 106549.2 458768 108122.4 L 457221.2 109057.2 Q 455992.4 106772.4 453804.8 104118 L 455254.4 103330.8 L 455254.4 103329.6 Z M 450069.2 101044.8 Q 448937.6 99128.4 446456 96842.4 L 447856.4 95907.6 Q 450486.8 98317.2 451568 99987.6 L 450069.2 101044.8 Z M 450904.4 112645.2 Q 451077.2 112742.4 451666.4 113184 Q 452256.8 113602.8 452723.6 113896.8 Q 454614.8 115076.4 459112.4 115076.4 Q 463512.8 115076.4 468034.4 114609.6 Q 467517.2 115666.8 467469.2 116575.2 Q 463979.6 116821.2 459064.4 116821.2 Q 454419.2 116821.2 452306 115468.8 Q 450020 114019.2 449946.8 114019.2 Q 449038.4 114019.2 446702 117139.2 L 445425.2 115419.6 Q 447562.4 113109.6 449111.6 112520.4 L 449111.6 106130.4 L 445743.2 106130.4 L 445743.2 104410.8 L 450904.4 104410.8 L 450904.4 112644 L 450904.4 112645.2 Z M 489218 97676.4 L 481427.6 97676.4 L 481427.6 101756.4 L 489218 101756.4 L 489218 97676.4 Z M 490986.8 103353.6 L 479706.8 103353.6 L 479706.8 96104.4 L 490986.8 96104.4 L 490986.8 103353.6 Z M 477396.8 110235.6 Q 476979.2 109203.6 475602.8 106746 L 475602.8 117708 L 473883.2 117708 L 473883.2 107360.4 Q 472384.4 111464.4 470859.2 113431.2 Q 470614.4 112719.6 469900.4 111687.6 Q 472161.2 108763.2 473612 103969.2 L 470440.4 103969.2 L 470440.4 102249.6 L 473882 102249.6 L 473882 98293.2 Q 472750.4 98539.2 471251.6 98809.2 Q 471104 98194.8 470710.4 97359.6 Q 475036.4 96523.2 477197.6 95443.2 L 478353.2 96916.8 Q 477248 97434 475601.6 97875.6 L 475601.6 102249.6 L 478624.4 102249.6 L 478624.4 103969.2 L 475601.6 103969.2 L 475601.6 104535.6 Q 477272 106550.4 478574 108714 L 477394.4 110236.8 L 477396.8 110235.6 Z M 492388.4 115347.6 L 492388.4 117043.2 L 478157.6 117043.2 L 478157.6 115347.6 L 484598 115347.6 L 484598 111955.2 L 479830.4 111955.2 L 479830.4 110308.8 L 484598 110308.8 L 484598 107115.6 L 479240 107115.6 L 479240 105444 L 491848.4 105444 L 491848.4 107115.6 L 486392 107115.6 L 486392 110308.8 L 491307.2 110308.8 L 491307.2 111955.2 L 486392 111955.2 L 486392 115347.6 L 492388.4 115347.6 Z " fill-rule="nonzero" style="fill:#ffffff;;fill-opacity:1;"/>
</svg>