<svg version="1.1" x="0" y="0" width="100%" height="100%" viewBox="0 0 221184 81510.4" xmlns="http://www.w3.org/2000/svg">
  <path d="M 22886.6 45902.75 Q 22782.05 47677.55 23095.7 49296.8 Q 7114.85 52170.65 5546.6 53007.05 Q 5128.4 51494.9 4241 49248.35 Q 5702.15 48934.7 8313.35 45905.3 Q 10610.9 43607.75 13846.85 39066.2 Q 6275.9 39902.6 5181.95 40476.35 Q 4190 37393.4 3822.8 36559.55 Q 4921.85 36347.9 6801.2 33530.15 Q 10980.65 27420.35 13798.4 19375.1 L 17715.2 20994.35 Q 14112.05 29299.7 9358.85 36141.35 L 16305.05 35511.5 Q 18082.4 32798.3 19594.55 29975.45 L 23093.15 32117.45 Q 17715.2 40892 11291.75 47835.65 L 22886.6 45905.3 L 22886.6 45902.75 Z M 4136.45 59846.15 Q 7270.4 59325.95 22988.6 56141 L 23304.8 59741.6 Q 17610.65 61047.2 4766.3 63819.05 L 4136.45 59848.7 L 4136.45 59846.15 Z M 29832.8 50344.85 L 29832.8 60945.2 L 45081.8 60945.2 L 45081.8 50344.85 L 29832.8 50344.85 Z M 26071.55 46790.15 L 48942.5 46790.15 L 48942.5 66478.7 L 45079.25 66478.7 L 45079.25 64492.25 L 29830.25 64492.25 L 29830.25 66685.25 L 26069 66685.25 L 26069 46787.6 L 26071.55 46790.15 Z M 39336.65 29712.8 L 39336.65 37809.05 L 50250.65 37809.05 L 50250.65 41519.3 L 24768.5 41519.3 L 24768.5 37809.05 L 35368.85 37809.05 L 35368.85 29712.8 L 23406.8 29712.8 L 23406.8 25956.65 L 35368.85 25956.65 L 35368.85 19010.45 L 39336.65 19010.45 L 39336.65 25956.65 L 51087.05 25956.65 L 51087.05 29712.8 L 39336.65 29712.8 Z M 65759.75 45329 L 78346.55 45329 L 78346.55 37339.85 L 65759.75 37339.85 L 65759.75 45329 Z M 82263.35 37339.85 L 82263.35 45329 L 95056.7 45329 L 95056.7 37339.85 L 82263.35 37339.85 Z M 84507.35 48827.6 Q 92289.95 57704.15 104563.1 61725.5 Q 103045.85 62980.1 101793.8 65068.55 Q 90249.95 60527 82260.8 51438.8 L 82260.8 66741.35 L 78344 66741.35 L 78344 51749.9 Q 70405.85 60524.45 59229.2 65015 Q 57923.6 62977.55 56513.45 61776.5 Q 68424.5 57699.05 76309.1 48822.5 L 61998.5 48822.5 L 61998.5 33836.15 L 78346.55 33836.15 L 78346.55 28195.55 L 58344.35 28195.55 L 58344.35 24592.4 L 78346.55 24592.4 L 78346.55 19056.35 L 82263.35 19056.35 L 82263.35 24592.4 L 102528.2 24592.4 L 102528.2 28195.55 L 82263.35 28195.55 L 82263.35 33836.15 L 98973.5 33836.15 L 98973.5 48822.5 L 84507.35 48822.5 L 84507.35 48827.6 Z M 119603 30967.4 Q 117147.35 27624.35 111769.4 22769.15 L 114278.6 20415.5 Q 119919.2 25117.7 122267.75 28198.1 L 119603 30964.85 L 119603 30967.4 Z M 126080 53894.45 Q 126498.2 55824.8 127122.95 57183.95 Q 117308 63918.5 116316.05 65173.1 Q 115793.3 63604.85 114383.15 61725.5 Q 116211.5 60419.9 116211.5 57913.25 L 116211.5 39010.1 L 109002.65 39010.1 L 109002.65 35299.85 L 119865.65 35299.85 L 119865.65 57964.25 L 126080 53891.9 L 126080 53894.45 Z M 131302.4 51961.55 L 131302.4 61307.3 L 149007.05 61307.3 L 149007.05 51961.55 L 131302.4 51961.55 Z M 127592.15 48564.95 L 152816.75 48564.95 L 152816.75 66585.8 L 149004.5 66585.8 L 149004.5 64706.45 L 131299.85 64706.45 L 131299.85 66743.9 L 127589.6 66743.9 L 127589.6 48567.5 L 127592.15 48564.95 Z M 137516.75 33629.6 L 135843.95 40731.35 L 146500.4 40731.35 Q 146865.05 38120.15 147283.25 33629.6 L 137519.3 33629.6 L 137516.75 33629.6 Z M 156315.35 40731.35 L 156315.35 44283.5 L 123259.7 44283.5 L 123259.7 40731.35 L 131876.15 40731.35 Q 132557 38173.7 133599.95 33627.05 L 126967.4 33627.05 L 126967.4 30233 L 134382.8 30233 Q 134905.55 27989 135530.3 24385.85 L 125034.5 24385.85 L 125034.5 20887.25 L 154540.55 20887.25 L 154540.55 24385.85 L 139503.2 24385.85 Q 138768.8 27989 138248.6 30233 L 147908 30233 L 148481.75 30026.45 L 151253.6 30284 Q 150990.95 34517 150205.55 40728.8 L 156315.35 40728.8 L 156315.35 40731.35 Z " fill-rule="nonzero" style="fill:#ffffff;;fill-opacity:1;"/>
</svg>