<svg version="1.1" x="0" y="0" width="100%" height="100%" viewBox="0 0 416102.4 54118.4" xmlns="http://www.w3.org/2000/svg">
  <path d="M 84377.6 35502.85 L 87961.6 35502.85 Q 87172.35 34248.1 85525.6 32386.1 L 87709.6 31273.1 L 84377.6 31273.1 L 84377.6 35502.85 Z M 91797.6 35502.85 L 91797.6 38980.1 L 73231.85 38980.1 L 73231.85 35502.85 L 80434.85 35502.85 L 80434.85 31273.1 L 74521.6 31273.1 L 74521.6 27689.1 L 80434.85 27689.1 L 80434.85 24322.1 L 73625.6 24322.1 L 73625.6 20592.85 L 91223.6 20592.85 L 91223.6 24322.1 L 84377.6 24322.1 L 84377.6 27689.1 L 90434.35 27689.1 L 90434.35 31273.1 L 88462.1 31273.1 Q 90289.1 33175.35 91150.1 34463.35 L 89286.35 35504.6 L 91797.6 35504.6 L 91797.6 35502.85 Z M 93050.6 41057.35 L 93050.6 18620.6 L 71833.6 18620.6 L 71833.6 41057.35 L 93050.6 41057.35 Z M 97602.35 14714.6 L 97602.35 46790.35 L 93050.6 46790.35 L 93050.6 44998.35 L 71833.6 44998.35 L 71833.6 46790.35 L 67495.35 46790.35 L 67495.35 14714.6 L 97602.35 14714.6 Z M 132941.85 19516.6 L 117207.6 19516.6 L 117207.6 15538.85 L 132941.85 15538.85 L 132941.85 19516.6 Z M 115485.6 16184.6 Q 113586.85 21847.6 112118.6 25573.35 Q 114948.35 29015.6 114948.35 33028.35 Q 114948.35 36505.6 113156.35 37723.6 Q 112332.1 38332.6 110968.85 38512.85 Q 110288.1 38619.6 108496.1 38619.6 Q 108426.1 36505.6 107458.35 34928.85 Q 108748.1 35000.6 109105.1 34965.6 Q 109715.85 34965.6 110179.6 34713.6 Q 110825.35 34211.35 110825.35 32561.1 Q 110825.35 29083.85 108172.35 26003.85 Q 109248.6 22741.85 110324.85 18548.85 L 106991.1 18548.85 L 106991.1 46753.6 L 102939.85 46753.6 L 102939.85 14747.85 L 111758.1 14747.85 L 112438.85 14606.1 L 115483.85 16182.85 L 115485.6 16184.6 Z M 120971.85 32205.85 Q 119356.6 38941.6 116311.6 43531.85 Q 114699.85 42203.6 112942.85 41344.35 Q 115737.6 37653.6 117135.85 31344.85 L 120971.85 32205.85 Z M 126918.35 28047.85 L 126918.35 41881.6 Q 126918.35 45036.85 125271.6 45932.85 Q 123836.6 46722.1 119788.85 46722.1 Q 119536.85 44462.85 118569.1 42312.1 Q 119288.35 42348.85 121976.35 42348.85 Q 122585.35 42348.85 122585.35 41809.85 L 122585.35 28047.85 L 115597.6 28047.85 L 115597.6 24070.1 L 134915.85 24070.1 L 134915.85 28047.85 L 126921.85 28047.85 L 126918.35 28047.85 Z M 131650.35 31164.6 Q 134588.6 37760.35 135307.85 42310.35 L 131471.85 43745.35 Q 130827.85 38941.6 128139.85 32347.6 L 131652.1 31164.6 L 131650.35 31164.6 Z M 162257.85 27974.35 L 145914.6 27974.35 L 145914.6 30160.1 L 162257.85 30160.1 L 162257.85 27974.35 Z M 162257.85 41414.35 L 162257.85 38978.35 L 145914.6 38978.35 L 145914.6 41414.35 L 162257.85 41414.35 Z M 162257.85 33388.85 L 145914.6 33388.85 L 145914.6 35718.1 L 162257.85 35718.1 L 162257.85 33388.85 Z M 156881.85 22027.85 Q 156775.1 22349.85 155879.1 24283.6 L 166702.85 24283.6 L 166702.85 46828.85 L 162257.85 46828.85 L 162257.85 45143.6 L 145914.6 45143.6 L 145914.6 46828.85 L 141686.6 46828.85 L 141686.6 24283.6 L 151148.85 24283.6 Q 151399.1 23532.85 151757.85 22027.85 L 138137.6 22027.85 L 138137.6 18085.1 L 146343.35 18085.1 Q 145519.1 16795.35 143763.85 14751.35 L 147563.1 13031.1 Q 149783.85 15181.85 151038.6 17260.85 L 149461.85 18085.1 L 157667.6 18085.1 Q 159459.6 15577.35 160427.35 13211.35 L 165336.1 14287.6 Q 163937.85 16366.6 162467.85 18086.85 L 170496.85 18086.85 L 170496.85 22029.6 L 156876.6 22029.6 L 156881.85 22027.85 Z M 189818.6 23137.35 Q 188061.6 27580.6 185877.6 30592.35 Q 184013.85 29229.1 181647.85 28226.35 Q 186021.1 23279.1 187813.1 13351.35 L 192473.35 14140.6 Q 191899.35 16793.6 191255.35 18872.6 L 202257.6 18872.6 L 203081.85 18657.35 L 206202.1 20484.35 Q 204982.35 25573.35 202474.6 30842.6 Q 200575.85 29804.85 198818.85 29085.6 Q 200001.85 26542.85 200934.6 23139.1 L 189823.85 23139.1 L 189818.6 23137.35 Z M 180823.6 24068.35 Q 178779.6 21847.6 173690.6 18837.6 L 176271.85 15717.35 Q 181360.85 18405.35 183546.6 20556.1 L 180823.6 24068.35 Z M 183761.85 32312.6 Q 181145.6 37366.6 177239.6 43566.85 L 173296.85 40663.6 Q 177167.85 35467.85 180358.1 29481.1 L 183761.85 32314.35 L 183761.85 32312.6 Z M 196449.35 26542.85 Q 196449.35 27725.85 196342.6 29085.6 Q 198993.85 39767.6 207057.85 42705.85 Q 205517.85 44140.85 204228.1 46541.85 Q 197810.85 43708.6 194694.1 36325.35 Q 191825.85 43206.35 184194.1 47077.35 Q 182865.85 45105.1 180893.6 43671.85 Q 191862.6 38402.6 191862.6 26432.6 L 191862.6 24211.85 L 196449.35 24211.85 L 196449.35 26541.1 L 196449.35 26542.85 Z M 215121.85 24857.6 L 210857.1 24857.6 L 210857.1 16686.85 L 223975.1 16686.85 Q 223366.1 15253.6 222757.1 14212.35 L 227021.85 12887.6 Q 228346.6 15001.6 229062.35 16686.85 L 241142.6 16686.85 L 241142.6 24857.6 L 236662.6 24857.6 L 236662.6 20664.6 L 215121.85 20664.6 L 215121.85 24857.6 Z M 221500.6 28154.6 Q 219925.6 26255.85 216411.6 24176.85 L 218884.35 21417.1 Q 222468.35 23174.1 224188.6 25111.35 L 221500.6 28156.35 L 221500.6 28154.6 Z M 215193.6 26649.6 Q 218884.35 28441.6 220604.6 30198.6 L 218061.85 33350.35 Q 216376.6 31488.35 212757.6 29516.1 L 215193.6 26647.85 L 215193.6 26649.6 Z M 227308.85 37401.6 Q 223940.1 44140.85 213188.1 46722.1 Q 212542.35 44784.85 210822.1 43064.6 Q 218992.85 41307.6 222109.6 37401.6 L 210533.35 37401.6 L 210533.35 33817.6 L 224010.1 33817.6 Q 225082.85 30735.85 225334.85 22204.6 L 229849.85 22204.6 Q 229599.6 30091.85 228596.85 33817.6 L 241569.6 33817.6 L 241569.6 37401.6 L 227305.35 37401.6 L 227308.85 37401.6 Z M 228992.35 38117.35 Q 236337.1 40161.35 241606.35 43206.35 L 238990.1 46613.6 Q 234475.1 43531.85 227020.1 41237.6 L 228992.35 38117.35 Z M 254223.85 38871.6 L 245370.6 40950.6 L 244689.85 37653.6 Q 246697.1 37294.85 253901.85 35718.1 L 254223.85 38873.35 L 254223.85 38871.6 Z M 272896.35 24248.6 Q 270063.1 21740.85 267842.35 19159.6 Q 266085.35 21595.6 263397.35 24248.6 L 272896.35 24248.6 Z M 262823.35 24785.85 Q 260854.6 26507.85 259277.85 27580.6 Q 258236.6 25753.6 256838.35 24141.85 Q 256623.1 27258.6 256336.1 29839.85 L 259095.85 29839.85 L 259024.1 31381.6 Q 258451.85 43421.6 257051.85 44998.35 Q 256120.85 46146.35 254328.85 46361.6 Q 252930.6 46503.35 249955.6 46396.6 Q 249883.85 44534.6 248917.85 42992.85 Q 250890.1 43173.1 252645.35 43173.1 Q 253469.6 43173.1 253901.85 42744.35 Q 254869.6 41668.1 255298.35 33175.35 L 246051.35 33175.35 Q 246695.35 28191.35 246982.35 20594.6 L 250603.1 20809.85 Q 250387.85 24826.1 249955.6 29878.35 L 252750.35 29878.35 Q 253289.35 25398.35 253683.1 18195.35 L 245582.35 18195.35 L 245582.35 14611.35 L 257410.6 14611.35 Q 257160.35 19450.1 256801.6 24145.35 Q 263754.35 19915.6 267193.1 12892.85 L 270883.85 14182.6 Q 270598.6 14754.85 269952.85 15902.85 Q 274110.85 20634.85 279058.1 23286.1 Q 278016.85 24862.85 277120.85 27515.85 Q 275400.6 26367.85 273858.85 25078.1 L 273858.85 27837.85 L 262819.85 27837.85 L 262819.85 24791.1 L 262823.35 24785.85 Z M 267915.85 38619.6 Q 267663.85 35502.85 266587.6 30161.85 L 269814.6 29698.1 Q 270997.6 34606.85 271319.6 38119.1 L 267915.85 38621.35 L 267915.85 38619.6 Z M 262287.85 39622.35 Q 261965.85 36540.6 260424.1 31164.6 L 263651.1 30305.35 Q 265084.35 34498.35 265730.1 38656.35 L 262287.85 39622.35 Z M 278165.6 30735.85 Q 275619.35 37868.85 273827.35 41629.6 L 278092.1 41629.6 L 278092.1 45213.6 L 259526.35 45213.6 L 259526.35 41629.6 L 270243.35 41629.6 Q 272966.35 35716.35 274294.6 29911.6 L 278165.6 30735.85 Z M 312103.35 25788.6 Q 309917.6 32706.35 305941.6 38082.35 Q 307588.35 42168.6 309273.6 42168.6 Q 310491.6 42168.6 310743.6 35896.6 Q 312213.6 37436.6 314362.6 38297.6 Q 313860.35 43136.35 312642.35 44891.6 Q 311494.35 46503.35 308913.1 46503.35 Q 305400.85 46503.35 302858.1 41773.1 Q 300133.35 44602.85 296801.35 46646.85 Q 295511.6 44783.1 293719.6 43136.35 Q 297877.6 40877.1 301029.35 37328.1 Q 299309.1 31630.1 298554.85 22885.35 L 288161.6 22885.35 L 288161.6 26721.35 L 297014.85 26721.35 L 296979.85 28333.1 Q 296834.6 38833.1 295831.85 40087.85 Q 294970.85 41235.85 293359.1 41521.1 Q 292247.85 41701.35 289237.85 41629.6 Q 289092.6 39408.85 288054.85 37653.6 Q 289775.1 37795.35 291138.35 37795.35 Q 291854.1 37795.35 292212.85 37366.6 Q 292676.6 36720.85 292821.85 30629.1 L 288161.6 30629.1 Q 287839.6 41990.1 284325.6 47224.35 Q 282533.6 45287.1 280706.6 44319.35 Q 283681.6 39624.1 283681.6 29124.1 L 283681.6 18659.1 L 298304.6 18659.1 Q 298159.35 15145.1 298159.35 13353.1 L 302639.35 13353.1 Q 302604.35 15719.1 302711.1 18659.1 L 308193.85 18659.1 Q 306582.1 17369.35 303607.1 15540.6 L 306188.35 12997.85 Q 310059.35 14970.1 312031.6 16832.1 L 310309.6 18660.85 L 314038.85 18660.85 L 314038.85 22888.85 L 302964.85 22888.85 Q 303428.6 28229.85 304396.35 32709.85 Q 306617.1 28910.6 307836.85 24752.6 L 312099.85 25790.35 L 312103.35 25788.6 Z M 331421.6 36827.6 Q 325543.35 38549.6 317589.6 40733.6 L 316548.35 36325.35 Q 319773.6 35609.6 321710.85 35107.35 L 321710.85 21200.1 L 317050.6 21200.1 L 317050.6 17187.35 L 330525.6 17187.35 L 330525.6 21200.1 L 325938.85 21200.1 L 325938.85 34067.85 L 330886.1 32778.1 L 331423.35 36825.85 L 331421.6 36827.6 Z M 349271.6 20914.85 Q 349271.6 22349.85 349234.85 22852.1 Q 348662.6 42277.1 347120.85 44319.35 Q 346009.6 45896.1 343965.6 46219.85 Q 342353.85 46470.1 338806.6 46328.35 Q 338661.35 44034.1 337515.1 42135.35 Q 339377.1 42277.1 341958.35 42277.1 Q 342891.1 42277.1 343354.85 41668.1 Q 344537.85 40413.35 344970.1 25001.1 L 340166.35 25001.1 Q 339664.1 32995.1 337621.85 37725.35 Q 335114.1 43533.6 329627.85 46830.6 Q 328446.6 44751.6 326617.85 43388.35 Q 331491.6 40628.6 333677.35 35791.6 Q 335469.35 31775.35 335863.1 25001.1 L 331026.1 25001.1 L 331026.1 20914.85 L 336043.35 20914.85 Q 336078.35 18729.1 336078.35 13927.1 L 340416.6 13927.1 Q 340416.6 16473.35 340344.85 20916.6 L 349269.85 20916.6 L 349271.6 20914.85 Z " fill-rule="nonzero" style="fill:#ffffff;;fill-opacity:1;"/>
</svg>