<svg version="1.1" x="0" y="0" width="100%" height="100%" viewBox="0 0 74291.2 40550.4" xmlns="http://www.w3.org/2000/svg">
  <path d="M 12147.6 28750.4 L 16152 28750.4 L 16152 15306.8 L 12958.8 15306.8 L 12958.8 13881.2 Q 15194.4 13463.6 16693.2 12603.2 L 18412.8 12603.2 L 18412.8 28750.4 L 22026 28750.4 L 22026 30617.6 L 12147.6 30617.6 L 12147.6 28750.4 Z M 33726.8 19706 Q 33358.4 14028.8 29793.2 14028.8 Q 28491.2 14028.8 27632 15134 Q 26747.6 16289.6 26747.6 18108.8 Q 26747.6 19976 27558.8 21033.2 Q 28394 22113.2 29967.2 22113.2 Q 32031.2 22113.2 33726.8 19704.8 L 33726.8 19706 Z M 26206.4 27693.2 Q 27435.2 29069.6 29229.2 29069.6 Q 33530 29069.6 33750.8 21549.2 Q 31956.8 23786 29598.8 23786 Q 27288.8 23786 25986.8 22336.4 Q 24634.4 20861.6 24634.4 18110 Q 24634.4 15552.8 26157.2 13882.4 Q 27632 12260 29793.2 12260 Q 32496.8 12260 34119.2 14397.2 Q 35838.8 16683.2 35838.8 20836.4 Q 35838.8 25972.4 33848 28626.8 Q 32102 30936.8 29300 30936.8 Q 26745.2 30936.8 24975.2 29093.6 L 26204 27692 L 26206.4 27693.2 Z M 39847.6 29585.6 Q 38225.2 28233.2 38225.2 26144 Q 38225.2 22974.8 41543.2 21180.8 L 41543.2 21057.2 Q 39109.6 19385.6 39109.6 16904 Q 39109.6 14864 40511.2 13587.2 Q 41911.6 12333.2 44051.2 12333.2 Q 46312 12333.2 47662 13661.6 Q 48990.4 14963.6 48990.4 17076.8 Q 48990.4 19558.4 46582 21425.6 L 46582 21549.2 Q 49628.8 23319.2 49628.8 26267.6 Q 49628.8 28258.4 48082 29586.8 Q 46483.6 30939.2 43976.8 30939.2 Q 41495.2 30939.2 39848.8 29586.8 L 39847.6 29585.6 Z M 47074 17198 Q 47074 15821.6 46262.8 14913.2 Q 45402.4 13978.4 44002 13978.4 Q 42748 13978.4 41962 14789.6 Q 41150.8 15600.8 41150.8 16902.8 Q 41150.8 18352.4 42379.6 19360.4 Q 43240 20048 45204.4 20835.2 Q 47072.8 19188.8 47072.8 17196.8 L 47074 17198 Z M 46532.8 28406 Q 47491.6 27569.6 47491.6 26219.6 Q 47491.6 24597.2 46066 23516 Q 45181.6 22852.4 42724 21869.6 Q 40266.4 23442.8 40266.4 25949.6 Q 40266.4 27374 41347.6 28334 Q 42403.6 29266.4 44026 29266.4 Q 45575.2 29266.4 46534 28407.2 L 46532.8 28406 Z M 59019.6 23859.2 L 59019.6 18329.6 Q 59019.6 17862.8 59167.2 15060.8 L 59070 15060.8 Q 58479.6 16240.4 57620.4 17715.2 L 53515.2 23859.2 L 59020.8 23859.2 L 59019.6 23859.2 Z M 63541.2 25653.2 L 61156.8 25653.2 L 61156.8 30617.6 L 59019.6 30617.6 L 59019.6 25653.2 L 51180 25653.2 L 51180 24179.6 L 58676.4 12603.2 L 61158 12603.2 L 61158 23859.2 L 63542.4 23859.2 L 63542.4 25653.2 L 63541.2 25653.2 Z " fill-rule="nonzero" style="fill:#ffffff;;fill-opacity:1;"/>
</svg>