<svg version="1.1" x="0" y="0" width="100%" height="100%" viewBox="0 0 98918.4 79974.4" xmlns="http://www.w3.org/2000/svg">
  <path d="M 26776.9 57342.4 Q 23604.4 52222.4 23604.4 42649.9 Q 23604.4 33077.4 26776.9 28059.9 Q 29796.9 23297.4 35326.9 23297.4 Q 40806.9 23297.4 43826.9 28109.9 Q 46999.4 33127.4 46999.4 42649.9 Q 46999.4 52222.4 43826.9 57342.4 Q 40806.9 62209.9 35326.9 62209.9 Q 29849.4 62209.9 26776.9 57342.4  Z M 42444.4 42649.9 Q 42444.4 27087.4 35326.9 27087.4 Q 28159.4 27087.4 28159.4 42649.9 Q 28159.4 58469.9 35326.9 58469.9 Q 42444.4 58469.9 42444.4 42649.9  Z M 66816.7 47462.4 L 66816.7 35942.4 Q 66816.7 34969.9 67124.2 29132.4 L 66921.7 29132.4 Q 65691.7 31589.9 63901.7 34662.4 L 55349.2 47462.4 L 66819.2 47462.4 L 66816.7 47462.4 Z M 76236.7 51199.9 L 71269.2 51199.9 L 71269.2 61542.4 L 66816.7 61542.4 L 66816.7 51199.9 L 50484.2 51199.9 L 50484.2 48129.9 L 66101.7 24012.4 L 71271.7 24012.4 L 71271.7 47462.4 L 76239.2 47462.4 L 76239.2 51199.9 L 76236.7 51199.9 Z " fill-rule="nonzero" style="fill:#c35954;;fill-opacity:1;"/>
</svg>