<svg version="1.1" x="0" y="0" width="100%" height="100%" viewBox="0 0 74291.2 40550.4" xmlns="http://www.w3.org/2000/svg">
  <path d="M 12147.6 28750.4 L 16152 28750.4 L 16152 15306.8 L 12958.8 15306.8 L 12958.8 13881.2 Q 15194.4 13463.6 16693.2 12603.2 L 18412.8 12603.2 L 18412.8 28750.4 L 22026 28750.4 L 22026 30617.6 L 12147.6 30617.6 L 12147.6 28750.4 Z M 33726.8 19706 Q 33358.4 14028.8 29793.2 14028.8 Q 28491.2 14028.8 27632 15134 Q 26747.6 16289.6 26747.6 18108.8 Q 26747.6 19976 27558.8 21033.2 Q 28394 22113.2 29967.2 22113.2 Q 32031.2 22113.2 33726.8 19704.8 L 33726.8 19706 Z M 26206.4 27693.2 Q 27435.2 29069.6 29229.2 29069.6 Q 33530 29069.6 33750.8 21549.2 Q 31956.8 23786 29598.8 23786 Q 27288.8 23786 25986.8 22336.4 Q 24634.4 20861.6 24634.4 18110 Q 24634.4 15552.8 26157.2 13882.4 Q 27632 12260 29793.2 12260 Q 32496.8 12260 34119.2 14397.2 Q 35838.8 16683.2 35838.8 20836.4 Q 35838.8 25972.4 33848 28626.8 Q 32102 30936.8 29300 30936.8 Q 26745.2 30936.8 24975.2 29093.6 L 26204 27692 L 26206.4 27693.2 Z M 37831.6 28480.4 L 38963.2 27005.6 Q 40930 29069.6 43436.8 29069.6 Q 45058 29069.6 46066 28161.2 Q 47098 27252.8 47098 25727.6 Q 47098 22114.4 41495.2 22114.4 L 41495.2 20394.8 Q 46483.6 20394.8 46483.6 16954.4 Q 46483.6 15652.4 45672.4 14865.2 Q 44837.2 14103.2 43436.8 14054 Q 41420.8 14127.2 39701.2 15849.2 L 38496.4 14423.6 Q 40830.4 12260 43534 12260 Q 45868 12260 47293.6 13439.6 Q 48768.4 14668.4 48768.4 16781.6 Q 48768.4 19926.8 45547.6 21131.6 L 45547.6 21228.8 Q 47219.2 21622.4 48275.2 22778 Q 49382.8 24032 49382.8 25799.6 Q 49382.8 28160 47687.2 29585.6 Q 46088.8 30938 43607.2 30938 Q 40093.6 30938 37831.6 28480.4  Z M 51375.6 28553.6 L 52480.8 27078.8 Q 54471.6 29069.6 56905.2 29069.6 Q 58527.6 29069.6 59608.8 27940.4 Q 60738 26735.6 60738 24819.2 Q 60738 22902.8 59730 21797.6 Q 58723.2 20716.4 57003.6 20716.4 Q 55602 20716.4 54004.8 21772.4 L 52800 21036.8 L 53365.2 12606.8 L 62139.6 12606.8 L 62139.6 14523.2 L 55332 14523.2 L 54890.4 19734.8 Q 56167.2 19020.8 57568.8 19020.8 Q 59953.2 19020.8 61402.8 20397.2 Q 63000 21922.4 63000 24748.4 Q 63000 27599.6 61206 29319.2 Q 59510.4 30941.6 57102 30941.6 Q 53760 30941.6 51375.6 28557.2 L 51375.6 28553.6 Z " fill-rule="nonzero" style="fill:#ffffff;;fill-opacity:1;"/>
</svg>