<svg version="1.1" x="0" y="0" width="100%" height="100%" viewBox="0 0 723558.4 79974.4" xmlns="http://www.w3.org/2000/svg">
  <path d="M 46695.5 23754.9 Q 42445.5 30362.4 38708 34559.9 L 35480.5 33179.9 Q 39780.5 28159.9 42803 22222.4 L 46693 23754.9 L 46695.5 23754.9 Z M 16640.5 34612.4 Q 14488 30104.9 9268 23754.9 L 12288 22064.9 Q 17408 28057.4 19918 32614.9 L 16640.5 34612.4 Z M 44800.5 60824.9 Q 45928 60824.9 46285.5 60004.9 Q 46645.5 59237.4 46798 56469.9 Q 48025.5 57392.4 50328 57902.4 Q 49970.5 61742.4 48893 63074.9 Q 47820.5 64457.4 45108 64457.4 L 37220.5 64457.4 Q 33740.5 64457.4 32563 63329.9 Q 31435.5 62252.4 31435.5 59024.9 L 31435.5 41207.4 L 23445.5 41207.4 Q 22678 51139.9 19810.5 56107.4 Q 16173 62557.4 7265.5 65629.9 Q 6395.5 63732.4 4858 62352.4 Q 13100.5 59739.9 16378 54159.9 Q 18885.5 49909.9 19503 41207.4 L 5523 41207.4 L 5523 37519.9 L 25595.5 37519.9 L 25595.5 18679.9 L 29535.5 18679.9 L 29535.5 37519.9 L 49505.5 37519.9 L 49505.5 41207.4 L 35218 41207.4 L 35218 58974.9 Q 35218 60152.4 35680.5 60512.4 Q 36088 60819.9 37625.5 60819.9 L 44795.5 60819.9 L 44800.5 60824.9 Z M 72088 30309.9 L 61338 30309.9 L 61338 41012.4 L 72088 41012.4 L 72088 30309.9 Z M 72088 56679.9 L 72088 44389.9 L 61338 44389.9 L 61338 56679.9 L 72088 56679.9 Z M 69735.5 19352.4 Q 67483 25804.9 67073 26877.4 L 75573 26877.4 L 75573 60107.4 L 61340.5 60107.4 L 61340.5 64149.9 L 57858 64149.9 L 57858 26877.4 L 63595.5 26877.4 Q 65133 21909.9 65643 18582.4 L 69740.5 19349.9 L 69735.5 19352.4 Z M 100608 28672.4 Q 99530.5 59392.4 97073 62412.4 Q 95640.5 64204.9 93030.5 64462.4 Q 90930.5 64714.9 85450.5 64407.4 Q 85248 62307.4 84170.5 60669.9 Q 87500.5 60977.4 91750.5 60977.4 Q 93233 60977.4 93845.5 60209.9 Q 96048 57852.4 96968 30254.9 L 83965.5 30254.9 Q 81608 35937.4 79150.5 39214.9 Q 78483 38602.4 76025.5 37064.9 Q 81043 30457.4 83860.5 18477.4 L 87498 19347.4 Q 86525.5 23339.9 85295.5 26719.9 L 100605.5 26719.9 L 100605.5 28667.4 L 100608 28672.4 Z M 89290.5 51762.4 Q 86938 47002.4 81510.5 39934.9 L 84480.5 38194.9 Q 90110.5 45362.4 92518 49764.9 L 89290.5 51762.4 Z M 118168 46182.4 L 118168 60722.4 Q 118168 63692.4 116328 64462.4 Q 114945.5 65179.9 109568 65179.9 Q 109310.5 63437.4 108390.5 61647.4 Q 109568 61697.4 113458 61697.4 Q 114430.5 61647.4 114430.5 60724.9 L 114430.5 47362.4 Q 112178 47979.9 107675.5 49359.9 L 106548 45672.4 L 114430.5 43522.4 L 114430.5 32564.9 L 107313 32564.9 L 107313 29032.4 L 114430.5 29032.4 L 114430.5 18742.4 L 118168 18742.4 L 118168 29032.4 L 125030.5 29032.4 L 125030.5 32564.9 L 118168 32564.9 L 118168 42447.4 L 124878 40499.9 L 125388 43982.4 L 118168 46182.4 Z M 153395.5 39269.9 L 144795.5 39269.9 L 144795.5 65179.9 L 141055.5 65179.9 L 141055.5 39269.9 L 131433 39269.9 L 131433 39322.4 Q 131433 56269.9 125133 65382.4 Q 123955.5 63949.9 122113 62927.4 Q 127693 54734.9 127693 39324.9 L 127693 23194.9 Q 141930.5 21504.9 149200.5 19152.4 L 151450.5 22379.9 Q 144233 24529.9 131433 26067.4 L 131433 35639.9 L 153395.5 35639.9 L 153395.5 39272.4 L 153395.5 39269.9 Z M 165528 45874.9 L 175668 45874.9 L 175668 41574.9 L 165528 41574.9 L 165528 45874.9 Z M 165528 27494.9 L 165528 31642.4 L 175668 31642.4 L 175668 27494.9 L 165528 27494.9 Z M 175668 34509.9 L 165528 34509.9 L 165528 38707.4 L 175668 38707.4 L 175668 34509.9 Z M 179200.5 61182.4 Q 179200.5 64102.4 177358 64869.9 Q 175718 65537.4 170035.5 65537.4 Q 169625.5 63694.9 168858 62212.4 Q 172595.5 62364.9 174645.5 62212.4 Q 175668 62159.9 175668 61187.4 L 175668 49259.9 L 175565.5 49259.9 Q 169883 57707.4 159950.5 63134.9 Q 158620.5 61292.4 157443 60422.4 Q 165993 56324.9 171470.5 49262.4 L 158413 49262.4 L 158413 45882.4 L 162100.5 45882.4 L 162100.5 24429.9 L 167428 24429.9 Q 168555.5 21562.4 169273 18694.9 L 173060.5 19257.4 Q 171730.5 22687.4 170910.5 24427.4 L 179208 24427.4 L 179208 61187.4 L 179200.5 61182.4 Z M 204545.5 34099.9 L 198965.5 34099.9 L 198965.5 60672.4 Q 198965.5 63899.9 196865.5 64717.4 Q 194968 65537.4 188568 65434.9 Q 188315.5 63694.9 187288 61852.4 Q 188878 61904.9 194098 61904.9 Q 195328 61852.4 195328 60674.9 L 195328 34102.4 L 181145.5 34102.4 L 181145.5 30464.9 L 195328 30464.9 L 195328 18894.9 L 198965.5 18894.9 L 198965.5 30464.9 L 204545.5 30464.9 L 204545.5 34102.4 L 204545.5 34099.9 Z M 188878 51969.9 Q 187135.5 46029.9 182888 40039.9 L 185908 38707.4 Q 190310.5 44799.9 192100.5 50537.4 L 188878 51969.9 Z " fill-rule="nonzero" style="fill:#ffffff;;fill-opacity:1;"/>
</svg>