<svg version="1.1" x="0" y="0" width="100%" height="100%" viewBox="0 0 491059.2 52684.8" xmlns="http://www.w3.org/2000/svg">
  <path d="M 14433.6 32505.6 Q 13352 34046.4 12238.4 35456 Q 14204.8 35848 19414.4 37027.2 Q 22396.8 35323.2 24067.2 32505.6 L 14433.6 32505.6 Z M 8371.2 25492.8 L 13286.4 25492.8 L 13286.4 21068.8 L 8371.2 21068.8 L 8371.2 25492.8 Z M 15614.4 19072 L 20889.6 19072 L 20889.6 16318.4 L 15614.4 16318.4 L 15614.4 19072 Z M 23217.6 21068.8 L 23217.6 25492.8 L 28656 25492.8 L 28656 21068.8 L 23217.6 21068.8 Z M 20889.6 25492.8 L 20889.6 21068.8 L 15614.4 21068.8 L 15614.4 25492.8 L 20889.6 25492.8 Z M 26721.6 32505.6 Q 25248 35652.8 22363.2 37782.4 Q 28556.8 39388.8 32193.6 40764.8 L 30163.2 42665.6 Q 25772.8 40894.4 19776 39353.6 Q 14827.2 41811.2 5094.4 42630.4 Q 4768 41419.2 4113.6 40502.4 Q 11780.8 40043.2 16304 38436.8 Q 11977.6 37420.8 8273.6 36734.4 Q 9814.4 35030.4 11617.6 32507.2 L 3918.4 32507.2 L 3918.4 30377.6 L 13059.2 30377.6 Q 14140.8 28739.2 14729.6 27492.8 L 6046.4 27492.8 L 6046.4 19072 L 13286.4 19072 L 13286.4 16318.4 L 4440 16318.4 L 4440 14156.8 L 32425.6 14156.8 L 32425.6 16318.4 L 23217.6 16318.4 L 23217.6 19072 L 31049.6 19072 L 31049.6 27492.8 L 15844.8 27492.8 L 17318.4 27852.8 Q 16499.2 29361.6 15876.8 30377.6 L 32947.2 30377.6 L 32947.2 32507.2 L 26721.6 32507.2 L 26721.6 32505.6 Z M 51854.4 14024 Q 46480 22478.4 38812.8 28377.6 Q 37896 27361.6 36944 26606.4 Q 44809.6 20969.6 49329.6 13105.6 L 51852.8 14022.4 L 51854.4 14024 Z M 63422.4 42270.4 Q 62636.8 40568 61555.2 38796.8 Q 40091.2 40632 39304 40928 Q 38944 39681.6 38257.6 38435.2 Q 39468.8 38172.8 42648 35256 Q 49496 29555.2 56476.8 19560 L 58966.4 20739.2 Q 51496 30864 43304 37910.4 L 60115.2 36566.4 Q 57822.4 33192 55593.6 30406.4 L 57756.8 29324.8 Q 63228.8 35944 65718.4 40988.8 L 63425.6 42267.2 L 63422.4 42270.4 Z M 81838.4 22772.8 L 81838.4 25657.6 L 87310.4 25657.6 L 87310.4 22772.8 L 81838.4 22772.8 Z M 89505.6 22772.8 L 89505.6 25657.6 L 95206.4 25657.6 L 95206.4 22772.8 L 89505.6 22772.8 Z M 95206.4 30440 L 95206.4 27459.2 L 89505.6 27459.2 L 89505.6 30440 L 95206.4 30440 Z M 87310.4 30440 L 87310.4 27459.2 L 81838.4 27459.2 L 81838.4 30440 L 87310.4 30440 Z M 81838.4 37780.8 L 79510.4 37780.8 L 79510.4 20905.6 L 88784 20905.6 Q 85409.6 19233.6 82427.2 18120 L 83936 16744 Q 86033.6 17497.6 88688 18644.8 Q 90948.8 17563.2 93308.8 15859.2 L 79544 15859.2 L 79544 13926.4 L 95536 13926.4 L 96027.2 13796.8 L 97504 14942.4 Q 94816 17564.8 90817.6 19630.4 Q 92129.6 20219.2 93243.2 20908.8 L 97536 20908.8 L 97536 35326.4 Q 97536 36996.8 96422.4 37456 Q 95505.6 37851.2 91998.4 37851.2 Q 91833.6 36801.6 91342.4 35817.6 Q 92129.6 35851.2 94651.2 35851.2 Q 95208 35851.2 95208 35294.4 L 95208 32312 L 89507.2 32312 L 89507.2 37654.4 L 87312 37654.4 L 87312 32312 L 81840 32312 L 81840 37784 L 81838.4 37780.8 Z M 75348.8 21004.8 Q 73612.8 18744 69779.2 15401.6 L 71483.2 14025.6 Q 75481.6 17334.4 77120 19400 L 75348.8 21006.4 L 75348.8 21004.8 Z M 76038.4 36536 Q 76332.8 36700.8 77086.4 37257.6 Q 77939.2 37848 78528 38208 Q 81150.4 39812.8 87115.2 39812.8 Q 92849.6 39812.8 99204.8 39192 Q 98616 40600 98518.4 41584 Q 92881.6 41910.4 87049.6 41910.4 Q 80987.2 41910.4 78038.4 40110.4 Q 74990.4 38241.6 74860.8 38241.6 Q 73550.4 38241.6 70502.4 42305.6 L 68961.6 40307.2 Q 71878.4 37227.2 73681.6 36473.6 L 73681.6 27232 L 69094.4 27232 L 69094.4 24939.2 L 76040 24939.2 L 76040 36537.6 L 76038.4 36536 Z M 123912 20907.2 L 111329.6 20907.2 L 111329.6 18579.2 L 123912 18579.2 L 123912 12844.8 L 126336 12844.8 L 126336 18579.2 L 130859.2 18579.2 L 130859.2 20907.2 L 126336 20907.2 L 126336 33849.6 Q 126336 36076.8 124763.2 36569.6 Q 123452.8 37028.8 118569.6 37028.8 Q 118404.8 35881.6 117718.4 34571.2 Q 120078.4 34636.8 123027.2 34636.8 Q 123912 34603.2 123912 33849.6 L 123912 20907.2 Z M 114803.2 23494.4 Q 118308.8 27787.2 119488 29884.8 L 117425.6 31131.2 Q 115787.2 28084.8 112870.4 24545.6 L 114803.2 23496 L 114803.2 23494.4 Z M 107889.6 20448 Q 106380.8 17892.8 103072 14844.8 L 104939.2 13598.4 Q 108446.4 16811.2 109888 19038.4 L 107889.6 20448 Z M 109003.2 35915.2 Q 109233.6 36044.8 110019.2 36633.6 Q 110806.4 37192 111428.8 37584 Q 113950.4 39156.8 119947.2 39156.8 Q 125814.4 39156.8 131843.2 38534.4 Q 131153.6 39944 131089.6 41155.2 Q 126436.8 41483.2 119883.2 41483.2 Q 113689.6 41483.2 110872 39680 Q 107824 37747.2 107726.4 37747.2 Q 106515.2 37747.2 103400 41907.2 L 101697.6 39614.4 Q 104547.2 36534.4 106612.8 35748.8 L 106612.8 27228.8 L 102121.6 27228.8 L 102121.6 24936 L 109003.2 24936 L 109003.2 35913.6 L 109003.2 35915.2 Z M 146654.4 30376 L 145507.2 26704 Q 144523.2 23657.6 143081.6 18577.6 L 142952 18577.6 Q 142067.2 21920 140561.6 26702.4 L 139382.4 30374.4 L 146657.6 30374.4 L 146654.4 30376 Z M 147406.4 32800 L 138624 32800 L 136299.2 40140.8 L 133219.2 40140.8 L 141379.2 16121.6 L 144753.6 16121.6 L 152912 40140.8 L 149700.8 40140.8 L 147408 32800 L 147406.4 32800 Z M 165422.4 32505.6 Q 164340.8 34046.4 163227.2 35456 Q 165193.6 35848 170403.2 37027.2 Q 173385.6 35323.2 175056 32505.6 L 165422.4 32505.6 Z M 159360 25492.8 L 164275.2 25492.8 L 164275.2 21068.8 L 159360 21068.8 L 159360 25492.8 Z M 166603.2 19072 L 171878.4 19072 L 171878.4 16318.4 L 166603.2 16318.4 L 166603.2 19072 Z M 174206.4 21068.8 L 174206.4 25492.8 L 179644.8 25492.8 L 179644.8 21068.8 L 174206.4 21068.8 Z M 171878.4 25492.8 L 171878.4 21068.8 L 166603.2 21068.8 L 166603.2 25492.8 L 171878.4 25492.8 Z M 177710.4 32505.6 Q 176236.8 35652.8 173352 37782.4 Q 179545.6 39388.8 183182.4 40764.8 L 181152 42665.6 Q 176761.6 40894.4 170764.8 39353.6 Q 165816 41811.2 156083.2 42630.4 Q 155756.8 41419.2 155102.4 40502.4 Q 162769.6 40043.2 167292.8 38436.8 Q 162966.4 37420.8 159262.4 36734.4 Q 160803.2 35030.4 162606.4 32507.2 L 154907.2 32507.2 L 154907.2 30377.6 L 164048 30377.6 Q 165129.6 28739.2 165718.4 27492.8 L 157035.2 27492.8 L 157035.2 19072 L 164275.2 19072 L 164275.2 16318.4 L 155428.8 16318.4 L 155428.8 14156.8 L 183414.4 14156.8 L 183414.4 16318.4 L 174206.4 16318.4 L 174206.4 19072 L 182038.4 19072 L 182038.4 27492.8 L 166833.6 27492.8 L 168307.2 27852.8 Q 167488 29361.6 166865.6 30377.6 L 183936 30377.6 L 183936 32507.2 L 177710.4 32507.2 L 177710.4 32505.6 Z M 202843.2 14024 Q 197468.8 22478.4 189801.6 28377.6 Q 188884.8 27361.6 187932.8 26606.4 Q 195798.4 20969.6 200318.4 13105.6 L 202841.6 14022.4 L 202843.2 14024 Z M 214411.2 42270.4 Q 213625.6 40568 212544 38796.8 Q 191080 40632 190292.8 40928 Q 189932.8 39681.6 189246.4 38435.2 Q 190457.6 38172.8 193636.8 35256 Q 200484.8 29555.2 207465.6 19560 L 209955.2 20739.2 Q 202484.8 30864 194292.8 37910.4 L 211104 36566.4 Q 208811.2 33192 206582.4 30406.4 L 208745.6 29324.8 Q 214217.6 35944 216707.2 40988.8 L 214414.4 42267.2 L 214411.2 42270.4 Z M 232827.2 22772.8 L 232827.2 25657.6 L 238299.2 25657.6 L 238299.2 22772.8 L 232827.2 22772.8 Z M 240494.4 22772.8 L 240494.4 25657.6 L 246195.2 25657.6 L 246195.2 22772.8 L 240494.4 22772.8 Z M 246195.2 30440 L 246195.2 27459.2 L 240494.4 27459.2 L 240494.4 30440 L 246195.2 30440 Z M 238299.2 30440 L 238299.2 27459.2 L 232827.2 27459.2 L 232827.2 30440 L 238299.2 30440 Z M 232827.2 37780.8 L 230499.2 37780.8 L 230499.2 20905.6 L 239772.8 20905.6 Q 236398.4 19233.6 233416 18120 L 234924.8 16744 Q 237022.4 17497.6 239676.8 18644.8 Q 241937.6 17563.2 244297.6 15859.2 L 230532.8 15859.2 L 230532.8 13926.4 L 246524.8 13926.4 L 247016 13796.8 L 248492.8 14942.4 Q 245804.8 17564.8 241806.4 19630.4 Q 243118.4 20219.2 244232 20908.8 L 248524.8 20908.8 L 248524.8 35326.4 Q 248524.8 36996.8 247411.2 37456 Q 246494.4 37851.2 242987.2 37851.2 Q 242822.4 36801.6 242331.2 35817.6 Q 243118.4 35851.2 245640 35851.2 Q 246196.8 35851.2 246196.8 35294.4 L 246196.8 32312 L 240496 32312 L 240496 37654.4 L 238300.8 37654.4 L 238300.8 32312 L 232828.8 32312 L 232828.8 37784 L 232827.2 37780.8 Z M 226337.6 21004.8 Q 224601.6 18744 220768 15401.6 L 222472 14025.6 Q 226470.4 17334.4 228108.8 19400 L 226337.6 21006.4 L 226337.6 21004.8 Z M 227027.2 36536 Q 227321.6 36700.8 228075.2 37257.6 Q 228928 37848 229516.8 38208 Q 232139.2 39812.8 238104 39812.8 Q 243838.4 39812.8 250193.6 39192 Q 249604.8 40600 249507.2 41584 Q 243870.4 41910.4 238038.4 41910.4 Q 231976 41910.4 229027.2 40110.4 Q 225979.2 38241.6 225849.6 38241.6 Q 224539.2 38241.6 221491.2 42305.6 L 219950.4 40307.2 Q 222867.2 37227.2 224670.4 36473.6 L 224670.4 27232 L 220083.2 27232 L 220083.2 24939.2 L 227028.8 24939.2 L 227028.8 36537.6 L 227027.2 36536 Z M 274900.8 20907.2 L 262318.4 20907.2 L 262318.4 18579.2 L 274900.8 18579.2 L 274900.8 12844.8 L 277324.8 12844.8 L 277324.8 18579.2 L 281848 18579.2 L 281848 20907.2 L 277324.8 20907.2 L 277324.8 33849.6 Q 277324.8 36076.8 275752 36569.6 Q 274441.6 37028.8 269558.4 37028.8 Q 269393.6 35881.6 268707.2 34571.2 Q 271067.2 34636.8 274016 34636.8 Q 274900.8 34603.2 274900.8 33849.6 L 274900.8 20907.2 Z M 265792 23494.4 Q 269297.6 27787.2 270476.8 29884.8 L 268414.4 31131.2 Q 266776 28084.8 263859.2 24545.6 L 265792 23496 L 265792 23494.4 Z M 258878.4 20448 Q 257369.6 17892.8 254060.8 14844.8 L 255928 13598.4 Q 259435.2 16811.2 260876.8 19038.4 L 258878.4 20448 Z M 259992 35915.2 Q 260222.4 36044.8 261008 36633.6 Q 261795.2 37192 262417.6 37584 Q 264939.2 39156.8 270936 39156.8 Q 276803.2 39156.8 282832 38534.4 Q 282142.4 39944 282078.4 41155.2 Q 277425.6 41483.2 270872 41483.2 Q 264678.4 41483.2 261860.8 39680 Q 258812.8 37747.2 258715.2 37747.2 Q 257504 37747.2 254388.8 41907.2 L 252686.4 39614.4 Q 255536 36534.4 257601.6 35748.8 L 257601.6 27228.8 L 253110.4 27228.8 L 253110.4 24936 L 259992 24936 L 259992 35913.6 L 259992 35915.2 Z M 287385.6 16121.6 L 294528 16121.6 Q 302785.6 16121.6 302785.6 21988.8 Q 302785.6 26084.8 299246.4 27198.4 L 299246.4 27363.2 Q 304161.6 28312 304161.6 33097.6 Q 304161.6 36536 301640 38372.8 Q 299214.4 40140.8 295052.8 40140.8 L 287385.6 40140.8 L 287385.6 16121.6 Z M 294004.8 26344 Q 299803.2 26344 299803.2 22380.8 Q 299803.2 18513.6 294134.4 18513.6 L 290430.4 18513.6 L 290430.4 26345.6 L 294003.2 26345.6 L 294004.8 26344 Z M 294628.8 37715.2 Q 301182.4 37715.2 301182.4 32998.4 Q 301182.4 28672 294628.8 28672 L 290432 28672 L 290432 37715.2 L 294628.8 37715.2 Z " fill-rule="nonzero" style="fill:#ffffff;;fill-opacity:1;"/>
</svg>