<svg version="1.1" x="0" y="0" width="100%" height="100%" viewBox="0 0 393267.2 54118.4" xmlns="http://www.w3.org/2000/svg">
  <path d="M 140518.75 24677.35 L 140518.75 27832.6 L 146503.75 27832.6 L 146503.75 24677.35 L 140518.75 24677.35 Z M 148904.75 24677.35 L 148904.75 27832.6 L 155140 27832.6 L 155140 24677.35 L 148904.75 24677.35 Z M 155140 33063.35 L 155140 29803.1 L 148904.75 29803.1 L 148904.75 33063.35 L 155140 33063.35 Z M 146503.75 33063.35 L 146503.75 29803.1 L 140518.75 29803.1 L 140518.75 33063.35 L 146503.75 33063.35 Z M 140518.75 41092.35 L 137972.5 41092.35 L 137972.5 22635.1 L 148115.5 22635.1 Q 144424.75 20806.35 141162.75 19588.35 L 142813 18083.35 Q 145107.25 18907.6 148010.5 20162.35 Q 150483.25 18979.35 153064.5 17115.6 L 138009.25 17115.6 L 138009.25 15001.6 L 155500.5 15001.6 L 156037.75 14859.85 L 157653 16112.85 Q 154713 18981.1 150339.75 21240.35 Q 151774.75 21884.35 152992.75 22638.6 L 157688 22638.6 L 157688 38407.85 Q 157688 40234.85 156470 40737.1 Q 155467.25 41169.35 151631.25 41169.35 Q 151451 40021.35 150913.75 38945.1 Q 151774.75 38981.85 154532.75 38981.85 Q 155141.75 38981.85 155141.75 38372.85 L 155141.75 35110.85 L 148906.5 35110.85 L 148906.5 40954.1 L 146505.5 40954.1 L 146505.5 35110.85 L 140520.5 35110.85 L 140520.5 41095.85 L 140518.75 41092.35 Z M 133420.75 22743.6 Q 131522 20270.85 127329 16615.1 L 129192.75 15110.1 Q 133566 18729.1 135358 20988.35 L 133420.75 22745.35 L 133420.75 22743.6 Z M 134175 39730.85 Q 134497 39911.1 135321.25 40520.1 Q 136254 41165.85 136898 41559.6 Q 139766.25 43314.85 146290.25 43314.85 Q 152562.25 43314.85 159513.25 42635.85 Q 158869.25 44175.85 158762.5 45252.1 Q 152597.25 45609.1 146218.5 45609.1 Q 139587.75 45609.1 136362.5 43640.35 Q 133028.75 41596.35 132887 41596.35 Q 131453.75 41596.35 128120 46041.35 L 126434.75 43855.6 Q 129625 40486.85 131597.25 39662.6 L 131597.25 29554.6 L 126580 29554.6 L 126580 27046.85 L 134176.75 27046.85 L 134176.75 39732.6 L 134175 39730.85 Z M 186536.75 22636.85 L 172774.75 22636.85 L 172774.75 20090.6 L 186536.75 20090.6 L 186536.75 13818.6 L 189188 13818.6 L 189188 20090.6 L 194135.25 20090.6 L 194135.25 22636.85 L 189188 22636.85 L 189188 36792.6 Q 189188 39228.6 187467.75 39767.6 Q 186034.5 40269.85 180693.5 40269.85 Q 180513.25 39015.1 179762.5 37581.85 Q 182343.75 37653.6 185569 37653.6 Q 186536.75 37616.85 186536.75 36792.6 L 186536.75 22636.85 Z M 176574 25466.6 Q 180408.25 30161.85 181698 32456.1 L 179442.25 33819.35 Q 177650.25 30487.35 174460 26616.35 L 176574 25468.35 L 176574 25466.6 Z M 169012.25 22134.6 Q 167362 19339.85 163743 16006.1 L 165785.25 14642.85 Q 169621.25 18156.85 171198 20592.85 L 169012.25 22134.6 Z M 170230.25 39051.85 Q 170482.25 39193.6 171341.5 39837.6 Q 172202.5 40448.35 172883.25 40877.1 Q 175641.25 42597.35 182200.25 42597.35 Q 188617.5 42597.35 195211.5 41916.6 Q 194457.25 43458.35 194387.25 44783.1 Q 189298.25 45141.85 182130.25 45141.85 Q 175356 45141.85 172274.25 43169.6 Q 168940.5 41055.6 168833.75 41055.6 Q 167509 41055.6 164101.75 45605.6 L 162239.75 43097.85 Q 165356.5 39729.1 167615.75 38869.85 L 167615.75 29551.1 L 162703.5 29551.1 L 162703.5 27043.35 L 170230.25 27043.35 L 170230.25 39050.1 L 170230.25 39051.85 Z M 211124.25 41774.85 Q 210121.5 39515.6 207897.25 35968.35 Q 204780.5 42562.35 199941.75 46396.6 Q 198869 44856.6 198008 44317.6 Q 203025.25 40626.85 206145.5 33317.1 Q 202703.25 28156.35 199371.25 24250.35 L 201343.5 22780.35 Q 204533.75 26579.6 207328.5 30378.85 Q 209155.5 25148.1 209979.75 19017.85 L 199047.5 19017.85 L 199047.5 16475.1 L 210660.5 16475.1 L 211089.25 16368.35 L 212774.5 16832.1 Q 211878.5 26150.85 209190.5 32996.85 Q 212095.5 37261.6 213383.5 39984.6 L 211127.75 41776.6 L 211124.25 41774.85 Z M 217753.25 19014.35 Q 218936.25 27687.35 221661 33637.35 Q 225173.25 27437.1 226536.5 19014.35 L 217753.25 19014.35 Z M 229438 16865.35 Q 227968 28800.35 223129.25 36505.6 Q 226211 41739.85 230943 44282.6 Q 229975.25 45036.85 229044.25 46505.1 Q 224457.5 43782.1 221445.75 38943.35 Q 217898.5 43568.6 212809.5 46398.35 Q 212055.25 44930.1 211017.5 44140.85 Q 216286.75 41559.6 219977.5 36253.6 Q 216857.25 29766.35 215172 19014.35 L 214312.75 19014.35 L 214312.75 16471.6 L 227250.5 16471.6 L 227714.25 16364.85 L 229436.25 16867.1 L 229438 16865.35 Z M 255350.25 19052.85 Q 256568.25 20808.1 258432 22313.1 Q 260476 20592.85 261729 18513.85 L 255779 18513.85 L 255350.25 19052.85 Z M 264919.25 17152.35 Q 263486 20843.1 260330.75 23601.1 Q 263305.75 25429.85 266496 26145.6 Q 265635 26969.85 265026 28152.85 Q 261513.75 27115.1 258538.75 24964.35 Q 255492 27150.1 251370.75 28368.1 Q 250796.75 27185.1 250081 26434.35 Q 253700 25538.35 256746.75 23531.1 Q 255422 22276.35 254058.75 20449.35 Q 252982.5 21525.6 251764.5 22456.6 Q 251190.5 21595.6 250259.5 20664.6 Q 254345.75 17869.85 256318 13570.1 L 258432 14179.1 Q 258038.25 15216.85 257177.25 16541.6 L 262947 16541.6 L 263414.25 16434.85 L 264919.25 17154.1 L 264919.25 17152.35 Z M 257214 42310.35 L 257214 39050.1 L 250726.75 39050.1 L 250726.75 37112.85 L 257214 37112.85 L 257214 34818.6 L 252088.25 34818.6 L 252088.25 32991.6 L 257214 32991.6 L 257214 30984.35 L 251405.75 30984.35 L 251405.75 29082.1 L 257214 29082.1 L 257214 27074.85 L 259650 27074.85 L 259650 29082.1 L 265026 29082.1 L 265026 30984.35 L 259650 30984.35 L 259650 32991.6 L 264166.75 32991.6 L 264166.75 34818.6 L 259650 34818.6 L 259650 37112.85 L 265671.75 37112.85 L 265671.75 39050.1 L 259650 39050.1 L 259650 42310.35 L 257214 42310.35 Z M 247321.25 23100.6 Q 246532 20197.35 244705 15754.1 L 246749 15073.35 Q 248576 19266.35 249507 22241.35 L 247321.25 23100.6 Z M 244633.25 32492.85 Q 244598.25 33208.6 244598.25 34713.6 Q 235853.5 36470.6 234922.5 37007.85 Q 234528.75 35683.1 234100 34680.35 Q 234959.25 34500.1 236501 32386.1 Q 237825.75 30735.85 239582.75 27654.1 Q 235279.5 28228.1 234670.5 28550.1 Q 234276.75 27151.85 233813 26114.1 Q 234493.75 25933.85 235675 23854.85 Q 238293 19303.1 239798 13711.85 L 242340.75 14788.1 Q 240120 20953.35 237181.75 25755.35 L 240942.5 25326.6 Q 242377.5 22566.85 242841.25 21455.6 L 245027 22673.6 Q 241588.25 29412.85 238254.5 33677.6 L 244633.25 32494.6 L 244633.25 32492.85 Z M 245244 40626.85 Q 235925.25 43638.6 234670.5 44067.35 L 234061.5 41486.1 Q 237932.5 40555.1 244813.5 38511.1 L 245245.75 40625.1 L 245244 40626.85 Z M 249507 40341.6 Q 249830.75 40518.35 250474.75 41020.6 Q 251229 41666.35 251657.75 41953.35 Q 253878.5 43458.35 258251.75 43458.35 Q 263018.75 43458.35 266748 42956.1 Q 266244 44354.35 266174 45500.6 Q 262374.75 45787.6 258180 45787.6 Q 253810.25 45787.6 251192.25 44032.35 Q 248791.25 42168.6 248434.25 42168.6 Q 247286.25 42168.6 244705 46181.35 L 243235 43995.6 Q 245529.25 41165.85 247214.5 40341.6 L 247214.5 28763.6 L 244024.25 28763.6 L 244024.25 26507.85 L 249507 26507.85 L 249507 40341.6 Z " fill-rule="nonzero" style="fill:#ffffff;;fill-opacity:1;"/>
</svg>