<svg version="1.1" x="0" y="0" width="100%" height="100%" viewBox="0 0 393318.4 54118.4" xmlns="http://www.w3.org/2000/svg">
  <path d="M 85638.45 40950.6 L 91478.2 40950.6 L 91478.2 21345.35 L 86821.45 21345.35 L 86821.45 19266.35 Q 90081.7 18657.35 92267.45 17402.6 L 94775.2 17402.6 L 94775.2 40950.6 L 100044.45 40950.6 L 100044.45 43673.6 L 85638.45 43673.6 L 85638.45 40950.6 Z M 106275.35 42168.6 Q 103909.35 40196.35 103909.35 37149.6 Q 103909.35 32527.85 108748.1 29911.6 L 108748.1 29731.35 Q 105199.1 27293.6 105199.1 23674.6 Q 105199.1 20699.6 107243.1 18837.6 Q 109285.35 17008.85 112405.6 17008.85 Q 115702.6 17008.85 117671.35 18946.1 Q 119608.6 20844.85 119608.6 23926.6 Q 119608.6 27545.6 116096.35 30268.6 L 116096.35 30448.85 Q 120539.6 33030.1 120539.6 37329.85 Q 120539.6 40233.1 118283.85 42170.35 Q 115952.85 44142.6 112297.1 44142.6 Q 108678.1 44142.6 106277.1 42170.35 L 106275.35 42168.6 Z M 116813.85 24103.35 Q 116813.85 22096.1 115630.85 20771.35 Q 114376.1 19408.1 112333.85 19408.1 Q 110505.1 19408.1 109358.85 20591.1 Q 108175.85 21774.1 108175.85 23672.85 Q 108175.85 25786.85 109967.85 27256.85 Q 111222.6 28259.6 114087.35 29407.6 Q 116812.1 27006.6 116812.1 24101.6 L 116813.85 24103.35 Z M 116024.6 40448.35 Q 117422.85 39228.6 117422.85 37259.85 Q 117422.85 34893.85 115343.85 33317.1 Q 114054.1 32349.35 110470.1 30916.1 Q 106886.1 33210.35 106886.1 36866.1 Q 106886.1 38943.35 108462.85 40343.35 Q 110002.85 41703.1 112368.85 41703.1 Q 114628.1 41703.1 116026.35 40450.1 L 116024.6 40448.35 Z M 128419 41666.35 L 128312.25 41666.35 L 128025.25 43673.6 L 125409 43673.6 L 125409 15143.35 L 128671 15143.35 L 128671 22957.1 L 128564.25 26469.35 Q 131716 23709.6 134656 23709.6 Q 138381.75 23709.6 140425.75 26434.35 Q 142433 29050.6 142433 33602.35 Q 142433 38439.35 139890.25 41379.35 Q 137487.5 44139.1 133975.25 44139.1 Q 131107 44139.1 128419 41666.35  Z M 137450.75 39373.85 Q 139027.5 37223.1 139027.5 33675.85 Q 139027.5 26471.1 133901.75 26471.1 Q 131537.5 26471.1 128669.25 29159.1 L 128669.25 39373.85 Q 130998.5 41416.1 133436.25 41416.1 Q 135909 41416.1 137449 39373.85 L 137450.75 39373.85 Z M 147476.2 24213.6 L 150738.2 24213.6 L 150738.2 43673.6 L 147476.2 43673.6 L 147476.2 24213.6 Z M 147511.2 19588.35 Q 146867.2 18979.35 146867.2 18083.35 Q 146867.2 15969.35 149126.45 15969.35 Q 151382.2 15969.35 151382.2 18083.35 Q 151382.2 18979.35 150738.2 19588.35 Q 150092.45 20197.35 149126.45 20197.35 Q 148158.7 20197.35 147512.95 19588.35 L 147511.2 19588.35 Z M 157880.6 37653.6 L 157880.6 26864.85 L 154977.35 26864.85 L 154977.35 24392.1 L 158022.35 24215.35 L 158416.1 18767.6 L 161140.85 18767.6 L 161140.85 24215.35 L 166410.1 24215.35 L 166410.1 26866.6 L 161140.85 26866.6 L 161140.85 37725.35 Q 161140.85 41489.6 164150.85 41489.6 Q 165081.85 41489.6 166371.6 40987.35 L 167017.35 43423.35 Q 164793.1 44142.6 163433.35 44142.6 Q 157877.1 44142.6 157877.1 37655.35 L 157880.6 37653.6 Z M 194162.25 16434.85 L 176419 16434.85 L 176419 18372.1 L 194162.25 18372.1 L 194162.25 16434.85 Z M 194162.25 19910.35 L 176419 19910.35 L 176419 21882.6 L 194162.25 21882.6 L 194162.25 19910.35 Z M 196776.75 23494.35 L 173874.5 23494.35 L 173874.5 14821.35 L 196776.75 14821.35 L 196776.75 23494.35 Z M 201330.25 27008.35 L 169431.25 27008.35 L 169431.25 24964.35 L 201330.25 24964.35 L 201330.25 27008.35 Z M 184019.25 35896.6 L 184019.25 33852.6 L 175703.25 33852.6 L 175703.25 35896.6 L 184019.25 35896.6 Z M 175703.25 32277.6 L 184019.25 32277.6 L 184019.25 30268.6 L 175703.25 30268.6 L 175703.25 32277.6 Z M 195235 30268.6 L 186562 30268.6 L 186562 32277.6 L 195235 32277.6 L 195235 30268.6 Z M 195235 33852.6 L 186562 33852.6 L 186562 35896.6 L 195235 35896.6 L 195235 33852.6 Z M 201507 43458.35 L 201507 45537.35 L 169216 45537.35 L 169216 43458.35 L 184019.25 43458.35 L 184019.25 41379.35 L 172191 41379.35 L 172191 39515.6 L 184019.25 39515.6 L 184019.25 37543.35 L 173230.5 37543.35 L 173230.5 28620.1 L 197854.75 28620.1 L 197854.75 37543.35 L 186563.75 37543.35 L 186563.75 39515.6 L 198605.5 39515.6 L 198605.5 41379.35 L 186563.75 41379.35 L 186563.75 43458.35 L 201508.75 43458.35 L 201507 43458.35 Z M 237312 32205.85 L 222689 32205.85 L 222689 42886.1 Q 222689 45358.85 220862 45896.1 Q 219427 46398.35 213835.75 46398.35 Q 213513.75 45038.6 212689.5 43675.35 Q 216595.5 43817.1 218996.5 43710.35 Q 219964.25 43675.35 219964.25 42851.1 L 219964.25 32205.85 L 205196 32205.85 L 205196 29552.85 L 219964.25 29552.85 L 219964.25 24392.1 Q 224731.25 22206.35 228924.25 18729.1 L 208745 18729.1 L 208745 16112.85 L 231825.75 16112.85 L 232399.75 15971.1 L 234407 17476.1 Q 229568.25 22243.1 222687.25 25755.35 L 222687.25 29554.6 L 237310.25 29554.6 L 237310.25 32207.6 L 237312 32205.85 Z M 240861 41774.85 Q 243619 41307.6 254301 39228.6 L 254516.25 41701.35 Q 251756.5 42310.35 247491.75 43171.35 Q 241935.5 44317.6 241326.5 44462.85 L 240862.75 41774.85 L 240861 41774.85 Z M 254764.75 22813.6 Q 250500 28978.85 245985 33495.6 L 254442.75 32277.6 Q 254442.75 33710.85 254549.5 34641.85 Q 242973.25 36470.6 241862 36972.85 Q 241646.75 36005.1 240966 34393.35 Q 241932 34213.1 243976 32134.1 Q 245626.25 30557.35 248097.25 27405.6 Q 242399.25 28084.6 241610 28443.35 Q 241323 27405.6 240714 25863.85 Q 241575 25648.6 243008.25 23676.35 Q 246198.5 19877.1 248851.5 13785.35 L 251467.75 14896.6 Q 248422.75 20953.35 244693.5 25433.35 L 249927.75 24966.1 Q 251074 23426.1 252402.25 21310.35 L 254766.5 22815.35 L 254764.75 22813.6 Z M 270605.75 13998.85 L 270605.75 46396.6 L 267882.75 46396.6 L 267882.75 36540.6 Q 258207 38906.6 256843.75 39802.6 Q 256486.75 38764.85 255445.5 37653.6 Q 257596.25 36470.6 257596.25 34606.85 L 257596.25 16937.1 L 260247.5 16937.1 L 260247.5 35753.1 L 267882.75 33997.85 L 267882.75 13998.85 L 270605.75 13998.85 Z M 286772.25 31918.85 Q 286772.25 33030.1 286914 34178.1 Q 278312.75 36472.35 277488.5 37081.35 Q 277271.5 36148.6 276699.25 34823.85 Q 277488.5 34682.1 279208.75 32422.85 Q 280713.75 30415.6 282434 27547.35 Q 277990.75 28156.35 277271.5 28550.1 Q 277021.25 27582.35 276412.25 26149.1 Q 277236.5 25968.85 278347.75 23926.6 Q 280820.5 20197.35 282864.5 13783.6 L 285193.75 14859.85 Q 282792.75 20986.6 279746 25681.85 L 283723.75 25288.1 Q 284800 23354.35 285767.75 21240.35 L 287881.75 22423.35 Q 284691.5 28730.35 281179.25 33282.1 L 286770.5 31918.85 L 286772.25 31918.85 Z M 287020.75 40196.35 L 277236.5 43995.6 L 276592.5 41487.85 Q 279889.5 40520.1 286590.25 37977.35 L 287019 40198.1 L 287020.75 40196.35 Z M 291465.75 28513.35 Q 291465.75 40733.6 287953.5 46648.6 Q 287164.25 45752.6 286016.25 45071.85 Q 289063 39876.1 289063 28515.1 L 289063 16473.35 L 298238.25 16473.35 Q 297809.5 15145.1 297270.5 13820.35 L 299636.5 13283.1 Q 300103.75 14249.1 300928 16473.35 L 308633.25 16473.35 L 308633.25 18839.35 L 291467.5 18839.35 L 291467.5 28515.1 L 291465.75 28513.35 Z M 299242.75 31344.85 L 299242.75 27976.1 L 295478.5 27976.1 L 295478.5 31344.85 L 299242.75 31344.85 Z M 295480.25 26112.35 L 299244.5 26112.35 L 299244.5 22813.6 L 295480.25 22813.6 L 295480.25 26112.35 Z M 304870.75 22813.6 L 301286.75 22813.6 L 301286.75 26112.35 L 304870.75 26112.35 L 304870.75 22813.6 Z M 304870.75 27974.35 L 301286.75 27974.35 L 301286.75 31343.1 L 304870.75 31343.1 L 304870.75 27974.35 Z M 308957 43029.6 L 308957 45358.85 L 291143.75 45358.85 L 291143.75 43029.6 L 299101 43029.6 L 299101 38978.35 L 292829 38978.35 L 292829 36684.1 L 299101 36684.1 L 299101 33744.1 L 299242.75 33744.1 L 299242.75 33315.35 L 293399.5 33315.35 L 293399.5 20806.35 L 307019.75 20806.35 L 307019.75 33315.35 L 301286.75 33315.35 L 301286.75 33744.1 L 301428.5 33744.1 L 301428.5 36684.1 L 307665.5 36684.1 L 307665.5 38978.35 L 301428.5 38978.35 L 301428.5 43029.6 L 308955.25 43029.6 L 308957 43029.6 Z " fill-rule="nonzero" style="fill:#ffffff;;fill-opacity:1;"/>
</svg>