<svg version="1.1" x="0" y="0" width="100%" height="100%" viewBox="0 0 561152 81510.4" xmlns="http://www.w3.org/2000/svg">
  <path d="M 42315.05 24753.05 L 29934.8 24753.05 L 29934.8 31334.6 L 42315.05 31334.6 L 42315.05 24753.05 Z M 42315.05 34621.55 L 29934.8 34621.55 L 29934.8 41254.1 L 42315.05 41254.1 L 42315.05 34621.55 Z M 13431.2 41256.65 L 26122.55 41256.65 L 26122.55 34624.1 L 13431.2 34624.1 L 13431.2 41256.65 Z M 13431.2 31334.6 L 26122.55 31334.6 L 26122.55 24753.05 L 13431.2 24753.05 L 13431.2 31334.6 Z M 46124.75 44704.25 L 9774.5 44704.25 L 9774.5 21308 L 46124.75 21308 L 46124.75 44704.25 Z M 32808.65 55722.8 Q 29310.05 52012.55 21999.2 48095.75 L 24556.85 45747.2 Q 31452.05 49090.25 35470.85 53111.6 L 32808.65 55722.8 Z M 4763.75 62197.25 Q 8157.8 57915.8 10455.35 49768.55 L 13902.95 50969.6 Q 11187.2 60159.8 8262.35 64025.6 L 4763.75 62197.25 Z M 34425.35 62039.15 Q 36360.8 62039.15 36932 60889.1 Q 37454.75 59739.05 37666.4 55353.05 Q 38972 56240.45 41267 56814.2 Q 40848.8 62141.15 39596.75 63864.95 Q 38291.15 65639.75 34739 65639.75 L 24243.2 65639.75 Q 20063.75 65639.75 18602.6 64545.8 Q 17192.45 63446.75 17192.45 60366.35 L 17192.45 50026.1 L 21058.25 50026.1 L 21058.25 60310.25 Q 21058.25 61409.3 21683 61722.95 Q 22312.85 62036.6 24505.85 62036.6 L 34427.9 62036.6 L 34425.35 62039.15 Z M 44140.85 49194.8 Q 49574.9 56192 51505.25 61937.15 L 47744 63607.4 Q 46071.2 57915.8 40693.25 50602.4 L 44140.85 49194.8 Z M 97563.35 24962.15 L 84611.9 24962.15 L 84611.9 29817.35 L 97563.35 29817.35 L 97563.35 24962.15 Z M 97563.35 32846.75 L 84611.9 32846.75 L 84611.9 37755.5 L 97563.35 37755.5 L 97563.35 32846.75 Z M 97563.35 40731.35 L 84611.9 40731.35 L 84611.9 45696.2 L 97563.35 45696.2 L 97563.35 40731.35 Z M 101273.6 48881.15 L 81008.75 48881.15 L 81008.75 21777.2 L 101273.6 21777.2 L 101273.6 48881.15 Z M 78660.2 48462.95 Q 83099.75 52481.75 85866.5 55824.8 L 83043.65 58122.35 Q 80850.65 55253.6 75941.9 50446.85 L 78657.65 48465.5 L 78660.2 48462.95 Z M 56883.2 62250.8 Q 59649.95 58540.55 61791.95 51647.9 L 65186 52953.5 Q 62628.35 60733.55 60274.7 63974.6 L 56880.65 62250.8 L 56883.2 62250.8 Z M 66805.25 49401.35 L 66805.25 35669.6 Q 62993 42768.8 58658 46320.95 Q 57507.95 44701.7 56151.35 43602.65 Q 62210.15 39321.2 66126.95 30182 L 57301.4 30182 L 57301.4 26785.4 L 66805.25 26785.4 L 66805.25 19163.45 L 70515.5 19163.45 L 70515.5 26785.4 L 78767.3 26785.4 L 78767.3 30182 L 70515.5 30182 L 70515.5 33106.85 Q 73440.35 34932.65 79185.5 39372.2 L 77094.5 42506.15 Q 74901.5 40415.15 70515.5 36710 L 70515.5 49398.8 L 66805.25 49398.8 L 66805.25 49401.35 Z M 86807.45 62095.25 Q 88686.8 62095.25 89260.55 61047.2 Q 89783.3 60004.25 89938.85 56036.45 Q 91295.45 57079.4 93488.45 57497.6 Q 93070.25 62406.35 91869.2 63974.6 Q 90563.6 65593.85 87065 65593.85 L 76255.55 65593.85 Q 72022.55 65593.85 70614.95 64550.9 Q 69153.8 63558.95 69153.8 60529.55 L 69153.8 52226.75 L 72966.05 52226.75 L 72966.05 60478.55 Q 72966.05 61521.5 73590.8 61784.15 Q 74271.65 62097.8 76515.65 62097.8 L 86804.9 62097.8 L 86807.45 62095.25 Z M 97563.35 50602.4 Q 102212 57760.25 103833.8 61047.2 L 100230.65 62824.55 Q 98925.05 59899.7 94222.85 52117.1 L 97565.9 50599.85 L 97563.35 50602.4 Z M 115217 35508.95 L 111404.75 35508.95 L 111404.75 24962.15 L 131562.5 24962.15 Q 130463.45 22297.4 128951.3 19897.85 L 132763.55 18696.8 Q 135061.1 22246.4 136155.05 24962.15 L 153913.25 24962.15 L 153913.25 35508.95 L 149945.45 35508.95 L 149945.45 28616.3 L 115214.45 28616.3 L 115214.45 35508.95 L 115217 35508.95 Z M 126760.85 39741.95 Q 124200.65 36712.55 119133.8 33734.15 L 121482.35 31278.5 Q 126704.75 34152.35 129213.95 36975.2 L 126758.3 39741.95 L 126760.85 39741.95 Z M 116259.95 39168.2 Q 121900.55 42248.6 124407.2 44910.8 L 122058.65 47835.65 Q 119501 44966.9 114015.95 41781.95 L 116259.95 39170.75 L 116259.95 39168.2 Z M 136420.25 54154.55 Q 148119.65 58385 154910.3 63400.85 L 152561.75 66376.7 Q 145822.1 61258.85 134540.9 56974.85 L 136420.25 54157.1 L 136420.25 54154.55 Z M 155116.85 49296.8 L 155116.85 52693.4 L 133546.4 52693.4 Q 128953.85 62875.55 113131.1 66529.7 Q 112345.7 64599.35 110938.1 63189.2 Q 124725.95 60264.35 129060.95 52693.4 L 110415.35 52693.4 L 110415.35 49296.8 L 130624.1 49296.8 Q 132401.45 44023.4 132766.1 31230.05 L 136787.45 31230.05 Q 136420.25 43345.1 134750 49299.35 L 155116.85 49299.35 L 155116.85 49296.8 Z M 174700.85 54468.2 L 161331.2 58178.45 L 160599.35 54937.4 Q 162269.6 54572.75 174336.2 51492.35 L 174700.85 54468.2 Z M 180341.45 43291.55 Q 180341.45 44441.6 180290.45 44910.8 Q 179191.4 62406.35 177102.95 64599.35 Q 175848.35 65955.95 173655.35 66111.5 Q 171982.55 66267.05 167492 66060.5 Q 167285.45 64130.15 166398.05 62771 Q 169478.45 63087.2 172352.3 63087.2 Q 173657.9 63087.2 174180.65 62457.35 Q 175850.9 60787.1 176738.3 46476.5 L 162845.9 46476.5 Q 163893.95 39010.1 164467.7 28616.3 L 167810.75 28771.85 Q 167339 35562.5 166505.15 43291.55 L 172928.6 43291.55 Q 173971.55 35144.3 174652.4 24750.5 L 162272.15 24750.5 L 162272.15 21356.45 L 178202 21356.45 Q 177051.95 36812 176269.1 43289 L 180341.45 43289 L 180341.45 43291.55 Z M 196845.05 19790.75 L 195695 22139.3 Q 201123.95 30235.55 209375.75 35669.6 Q 208070.15 37339.85 207445.4 39270.2 Q 199662.8 33527.6 193815.65 25380.35 Q 188644.25 33787.7 180708.65 39374.75 Q 179660.6 37755.5 178408.55 36294.35 Q 188748.8 29661.8 193448.45 18643.25 L 196845.05 19793.3 L 196845.05 19790.75 Z M 202011.35 38487.35 L 186555.8 38487.35 L 186555.8 35144.3 L 202011.35 35144.3 L 202011.35 38487.35 Z M 194338.4 54937.4 Q 194022.2 50031.2 192247.4 42511.25 L 195327.8 42093.05 Q 197051.6 49090.25 197574.35 54468.2 L 194338.4 54937.4 Z M 186188.6 43085 Q 188697.8 49613 189636.2 55409.15 L 186451.25 56296.55 Q 185931.05 51280.7 183159.2 43814.3 L 186188.6 43082.45 L 186188.6 43085 Z M 207549.95 43709.75 Q 203003.3 55041.95 199922.9 60787.1 L 207912.05 60787.1 L 207912.05 64181.15 L 181486.4 64181.15 L 181486.4 60787.1 L 196579.85 60787.1 Q 200863.85 52741.85 203995.25 42766.25 L 207547.4 43707.2 L 207549.95 43709.75 Z M 225073.45 46269.95 L 238443.1 46269.95 L 238443.1 49924.1 L 225073.45 49924.1 L 225073.45 46269.95 Z M 243095.85 46269.95 L 256465.5 46269.95 L 256465.5 49924.1 L 243095.85 49924.1 L 243095.85 46269.95 Z M 285842.95 26214.2 L 273674.35 26214.2 L 273674.35 22715.6 L 285842.95 22715.6 L 285842.95 19061.45 L 289655.2 19061.45 L 289655.2 22715.6 L 303233.95 22715.6 L 303233.95 19061.45 L 307046.2 19061.45 L 307046.2 22715.6 L 319633 22715.6 L 319633 26214.2 L 307046.2 26214.2 L 307046.2 29817.35 L 307308.85 29712.8 Q 308145.25 31122.95 309399.85 33945.8 L 318852.7 33945.8 L 318852.7 37339.85 L 295453.9 37339.85 L 295453.9 33945.8 L 305011.3 33945.8 Q 304177.45 31803.8 303603.7 30862.85 L 306946.75 29819.9 L 303236.5 29819.9 L 303236.5 26216.75 L 289657.75 26216.75 L 289657.75 29819.9 L 285845.5 29819.9 L 285845.5 26216.75 L 285842.95 26214.2 Z M 279054.85 53529.8 L 279054.85 59953.25 L 290180.5 59953.25 L 290180.5 53529.8 L 279054.85 53529.8 Z M 279054.85 37546.4 L 279054.85 43503.2 L 288612.25 43503.2 L 288612.25 37546.4 L 279054.85 37546.4 Z M 279054.85 50446.85 L 293628.1 50446.85 L 293628.1 65280.2 L 290180.5 65280.2 L 290180.5 63087.2 L 279054.85 63087.2 L 279054.85 66269.6 L 275454.25 66269.6 L 275454.25 34415 L 280883.2 34415 Q 281982.25 31490.15 282397.9 29503.7 L 286526.35 30128.45 L 284751.55 34412.45 L 292217.95 34412.45 L 292217.95 46581.05 L 279057.4 46581.05 L 279057.4 50444.3 L 279054.85 50446.85 Z M 308668 48202.85 L 308668 53789.9 L 318796.6 53789.9 L 318796.6 57186.5 L 308668 57186.5 L 308668 66743.9 L 304906.75 66743.9 L 304906.75 57186.5 L 295400.35 57186.5 L 295400.35 53789.9 L 304906.75 53789.9 L 304906.75 48202.85 L 293781.1 48202.85 L 293781.1 44755.25 L 300989.95 44755.25 Q 300309.1 41519.3 298480.75 38438.9 L 301405.6 37446.95 Q 303547.6 40894.55 304070.35 43763.3 L 301303.6 44755.25 L 308719 44755.25 Q 310598.35 41519.3 312110.5 37548.95 L 315609.1 38540.9 Q 313520.65 42669.35 312319.6 44757.8 L 320153.2 44757.8 L 320153.2 48205.4 L 308665.45 48205.4 L 308668 48202.85 Z M 330914.2 36240.8 L 327101.95 36240.8 L 327101.95 24908.6 L 347361.7 24908.6 Q 346369.75 22350.95 344962.15 19790.75 L 348723.4 18696.8 Q 350811.85 22246.4 351803.8 24908.6 L 370395.85 24908.6 L 370395.85 36240.8 L 366479.05 36240.8 L 366479.05 28618.85 L 330914.2 28618.85 L 330914.2 36240.8 Z M 350704.75 61363.4 Q 354101.35 62039.15 359270.2 62039.15 Q 370082.2 62039.15 372588.85 61937.15 Q 371545.9 63607.4 371127.7 65853.95 L 359063.65 65853.95 Q 350131 65853.95 345064.15 63816.5 Q 339007.9 61360.85 335664.85 55090.4 Q 332949.1 62508.35 327882.25 66894.35 Q 326525.65 65326.1 324748.3 64227.05 Q 332635.45 58170.8 334514.8 42972.8 L 338378.05 43391 Q 337959.85 46734.05 337177 50128.1 Q 339892.75 57699.05 346734.4 60310.25 L 346734.4 38744.9 L 333782.95 38744.9 L 333782.95 35034.65 L 364018.3 35034.65 L 364018.3 38744.9 L 350699.65 38744.9 L 350699.65 47254.25 L 366160.3 47254.25 L 366160.3 50913.5 L 350699.65 50913.5 L 350699.65 61358.3 L 350704.75 61363.4 Z M 419225.8 24074.75 L 412799.8 24074.75 L 412799.8 31176.5 L 419225.8 31176.5 L 419225.8 24074.75 Z M 422357.2 34203.35 L 409770.4 34203.35 L 409770.4 21045.35 L 422357.2 21045.35 L 422357.2 34203.35 Z M 395513.35 37444.4 L 420582.4 37444.4 L 420582.4 40680.35 L 395513.35 40680.35 L 395513.35 37444.4 Z M 403295.95 24074.75 L 397499.8 24074.75 L 397499.8 31176.5 L 403295.95 31176.5 L 403295.95 24074.75 Z M 406588 34203.35 L 394365.85 34203.35 L 394365.85 21045.35 L 406588 21045.35 L 406588 34203.35 Z M 387786.85 30342.65 Q 385800.4 27731.45 380315.35 22613.6 L 382824.55 20259.95 Q 388516.15 25275.8 390446.5 27624.35 L 387784.3 30340.1 L 387786.85 30342.65 Z M 394574.95 53787.35 Q 395148.7 56192 395722.45 57130.4 Q 385591.3 64650.35 384703.9 65800.4 Q 383918.5 64232.15 382561.9 63087.2 Q 385122.1 60789.65 385122.1 57706.7 L 385122.1 38854.55 L 377390.5 38854.55 L 377390.5 35253.95 L 388827.25 35253.95 L 388827.25 57813.8 L 394572.4 53792.45 L 394574.95 53787.35 Z M 404290.45 47835.65 L 403140.4 51908 L 420268.75 51908 L 420164.2 53580.8 Q 419276.8 63293.75 417448.45 64913 Q 416091.85 66218.6 413218 66269.6 Q 409614.85 66374.15 403872.25 66060.5 Q 403767.7 64336.7 402566.65 62666.45 Q 407057.2 63084.65 411912.4 63084.65 Q 413791.75 63084.65 414314.5 62612.9 Q 415464.55 61569.95 416140.3 55197.5 L 398124.55 55197.5 Q 399274.6 52168.1 400373.65 47833.1 L 391910.2 47833.1 L 391910.2 44490.05 L 424394.65 44490.05 L 424394.65 47833.1 L 404290.45 47833.1 L 404290.45 47835.65 Z M 454321.45 29297.15 Q 452753.2 25900.55 448887.4 20522.6 L 452230.45 18798.8 Q 456358.9 24021.2 457871.05 27262.25 L 454321.45 29299.7 L 454321.45 29297.15 Z M 472337.2 31071.95 Q 461736.85 46843.7 443665 58020.35 Q 444501.4 58645.1 445021.6 58958.75 Q 448887.4 61414.4 458393.8 61414.4 Q 468157.75 61414.4 477192.4 60476 Q 476149.45 62720 476044.9 64650.35 Q 467535.55 65224.1 458240.8 65224.1 Q 448683.4 65224.1 444243.85 62406.35 Q 439490.65 59376.95 439335.1 59376.95 Q 437353.75 59376.95 432756.1 65853.95 L 429882.25 62301.8 Q 435941.05 55722.8 439388.65 55722.8 Q 439646.2 55722.8 440064.4 55824.8 Q 455576.05 46846.25 465707.2 33109.4 L 432544.45 33109.4 L 432544.45 29348.15 L 468581.05 29348.15 L 469417.45 29085.5 L 472342.3 31071.95 L 472337.2 31071.95 Z M 497612.8 22401.95 Q 495784.45 25535.9 492808.6 29034.5 Q 496256.2 35667.05 496256.2 46999.25 Q 496256.2 60473.45 493645 64074.05 Q 492494.95 65433.2 490717.6 65746.85 Q 488473.6 66216.05 484819.45 65953.4 Q 484819.45 64023.05 483720.4 62248.25 Q 487272.55 62454.8 489151.9 62299.25 Q 490245.85 62143.7 490819.6 61360.85 Q 492543.4 59114.3 492543.4 46945.7 Q 492543.4 45170.9 492492.4 44283.5 Q 488575.6 50237.75 484085.05 53891.9 Q 482935 52012.55 481473.85 50969.6 Q 488052.85 46530.05 491969.65 38489.9 Q 491344.9 34573.1 490143.85 31857.35 Q 486958.9 35042.3 483824.95 37235.3 Q 483200.2 36192.35 481320.85 34573.1 Q 485026 31961.9 488369.05 28463.3 Q 486229.6 25171.25 483044.65 22353.5 L 485757.85 20262.5 Q 488524.6 22667.15 490771.15 25696.55 Q 493277.8 22667.15 494634.4 20106.95 L 497612.8 22404.5 L 497612.8 22401.95 Z M 503357.95 42613.25 L 503357.95 49771.1 L 511347.1 49771.1 L 511347.1 42613.25 L 503357.95 42613.25 Z M 522941.95 42613.25 L 514896.7 42613.25 L 514896.7 49771.1 L 522941.95 49771.1 L 522941.95 42613.25 Z M 522941.95 60527 L 522941.95 53162.6 L 514896.7 53162.6 L 514896.7 60527 L 522941.95 60527 Z M 503357.95 60527 L 511347.1 60527 L 511347.1 53162.6 L 503357.95 53162.6 L 503357.95 60527 Z M 499805.8 39114.65 L 526649.65 39114.65 L 526649.65 66430.25 L 522944.5 66430.25 L 522944.5 63974.6 L 503360.5 63974.6 L 503360.5 66687.8 L 499808.35 66687.8 L 499808.35 39114.65 L 499805.8 39114.65 Z M 528580 26476.85 L 528580 30029 L 521531.8 30029 L 521531.8 36814.55 L 517770.55 36814.55 L 517770.55 30029 L 508631.35 30029 L 508631.35 36814.55 L 504870.1 36814.55 L 504870.1 30029 L 497505.7 30029 L 497505.7 26476.85 L 504870.1 26476.85 L 504870.1 19061.45 L 508631.35 19061.45 L 508631.35 26476.85 L 517770.55 26476.85 L 517770.55 19061.45 L 521531.8 19061.45 L 521531.8 26476.85 L 528580 26476.85 Z " fill-rule="nonzero" style="fill:#ffffff;;fill-opacity:1;"/>
</svg>