<svg version="1.1" x="0" y="0" width="100%" height="100%" viewBox="0 0 491059.2 78489.6" xmlns="http://www.w3.org/2000/svg">
  <path d="M 329743.85 33770.05 L 329743.85 38187.4 L 338122.85 38187.4 L 338122.85 33770.05 L 329743.85 33770.05 Z M 341484.25 33770.05 L 341484.25 38187.4 L 350213.6 38187.4 L 350213.6 33770.05 L 341484.25 33770.05 Z M 350213.6 45510.45 L 350213.6 40946.1 L 341484.25 40946.1 L 341484.25 45510.45 L 350213.6 45510.45 Z M 338122.85 45510.45 L 338122.85 40946.1 L 329743.85 40946.1 L 329743.85 45510.45 L 338122.85 45510.45 Z M 329743.85 56751.05 L 326179.1 56751.05 L 326179.1 30910.9 L 340379.3 30910.9 Q 335212.25 28350.65 330645.45 26645.45 L 332955.8 24538.45 Q 336167.75 25692.4 340232.3 27449.05 Q 343694.15 25792.85 347307.9 23183.6 L 326230.55 23183.6 L 326230.55 20224 L 350718.3 20224 L 351470.45 20025.55 L 353731.8 21779.75 Q 349615.8 25795.3 343493.25 28958.25 Q 345502.25 29859.85 347207.45 30915.8 L 353780.8 30915.8 L 353780.8 52992.75 Q 353780.8 55550.55 352075.6 56253.7 Q 350671.75 56858.85 345301.35 56858.85 Q 345049 55251.65 344296.85 53744.9 Q 345502.25 53796.35 349363.45 53796.35 Q 350216.05 53796.35 350216.05 52943.75 L 350216.05 48376.95 L 341486.7 48376.95 L 341486.7 56557.5 L 338125.3 56557.5 L 338125.3 48376.95 L 329746.3 48376.95 L 329746.3 56755.95 L 329743.85 56751.05 Z M 319806.65 31062.8 Q 317148.4 27600.95 311278.2 22482.9 L 313887.45 20375.9 Q 320010 25442.5 322518.8 28605.45 L 319806.65 31065.25 L 319806.65 31062.8 Z M 320862.6 54844.95 Q 321313.4 55097.3 322467.35 55949.9 Q 323773.2 56853.95 324674.8 57405.2 Q 328690.35 59862.55 337823.95 59862.55 Q 346604.75 59862.55 356336.15 58911.95 Q 355434.55 61067.95 355285.1 62574.7 Q 346653.75 63074.5 337723.5 63074.5 Q 328440.45 63074.5 323925.1 60318.25 Q 319257.85 57456.65 319059.4 57456.65 Q 317052.85 57456.65 312385.6 63679.65 L 310026.25 60619.6 Q 314492.6 55903.35 317253.75 54749.4 L 317253.75 40598.2 L 310229.6 40598.2 L 310229.6 37087.35 L 320865.05 37087.35 L 320865.05 54847.4 L 320862.6 54844.95 Z M 394169.05 30913.35 L 374902.25 30913.35 L 374902.25 27348.6 L 394169.05 27348.6 L 394169.05 18567.8 L 397880.8 18567.8 L 397880.8 27348.6 L 404806.95 27348.6 L 404806.95 30913.35 L 397880.8 30913.35 L 397880.8 50731.4 Q 397880.8 54141.8 395472.45 54896.4 Q 393465.9 55599.55 385988.5 55599.55 Q 385736.15 53842.9 384685.1 51836.35 Q 388298.85 51936.8 392814.2 51936.8 Q 394169.05 51885.35 394169.05 50731.4 L 394169.05 30913.35 Z M 380221.2 34875 Q 385589.15 41448.35 387394.8 44660.3 L 384236.75 46568.85 Q 381727.95 41904.05 377261.6 36484.65 L 380221.2 34877.45 L 380221.2 34875 Z M 369634.75 30210.2 Q 367324.4 26297.55 362257.8 21630.3 L 365116.95 19721.75 Q 370487.35 24641.35 372694.8 28051.75 L 369634.75 30210.2 Z M 371339.95 53894.35 Q 371692.75 54092.8 372895.7 54994.4 Q 374101.1 55849.45 375054.15 56449.7 Q 378915.35 58858.05 388097.95 58858.05 Q 397082.1 58858.05 406313.7 57905 Q 405257.75 60063.45 405159.75 61918.1 Q 398035.15 62420.35 387999.95 62420.35 Q 378516 62420.35 374201.55 59659.2 Q 369534.3 56699.6 369384.85 56699.6 Q 367530.2 56699.6 362760.05 63069.6 L 360153.25 59558.75 Q 364516.7 54842.5 367679.65 53639.55 L 367679.65 40593.3 L 360802.5 40593.3 L 360802.5 37082.45 L 371339.95 37082.45 L 371339.95 53891.9 L 371339.95 53894.35 Z M 428993.35 45412.45 L 427236.7 39789.7 Q 425729.95 35124.9 423522.5 27346.15 L 423324.05 27346.15 Q 421969.2 32464.2 419663.75 39787.25 L 417858.1 45410 L 428998.25 45410 L 428993.35 45412.45 Z M 430144.85 49124.2 L 416696.8 49124.2 L 413136.95 60364.8 L 408420.7 60364.8 L 420915.7 23585.4 L 426082.75 23585.4 L 438575.3 60364.8 L 433658.15 60364.8 L 430147.3 49124.2 L 430144.85 49124.2 Z M 470847.15 25895.75 Q 472552.35 28353.1 475161.6 30460.1 Q 478023.2 28051.75 479777.4 25141.15 L 471447.4 25141.15 L 470847.15 25895.75 Z M 484243.75 23235.05 Q 482237.2 28402.1 477819.85 32263.3 Q 481984.85 34823.55 486451.2 35825.6 Q 485245.8 36979.55 484393.2 38635.75 Q 479476.05 37182.9 475311.05 34171.85 Q 471045.6 37231.9 465275.85 38937.1 Q 464472.25 37280.9 463470.2 36229.85 Q 468536.8 34975.45 472802.25 32165.3 Q 470947.6 30408.65 469039.05 27850.85 Q 467532.3 29357.6 465827.1 30661 Q 465023.5 29455.6 463720.1 28152.2 Q 469440.85 24239.55 472202 18219.9 L 475161.6 19072.5 Q 474610.35 20525.35 473404.95 22380 L 481482.6 22380 L 482136.75 22230.55 L 484243.75 23237.5 L 484243.75 23235.05 Z M 473456.4 58456.25 L 473456.4 53891.9 L 464374.25 53891.9 L 464374.25 51179.75 L 473456.4 51179.75 L 473456.4 47967.8 L 466280.35 47967.8 L 466280.35 45410 L 473456.4 45410 L 473456.4 42599.85 L 465324.85 42599.85 L 465324.85 39936.7 L 473456.4 39936.7 L 473456.4 37126.55 L 476866.8 37126.55 L 476866.8 39936.7 L 484393.2 39936.7 L 484393.2 42599.85 L 476866.8 42599.85 L 476866.8 45410 L 483190.25 45410 L 483190.25 47967.8 L 476866.8 47967.8 L 476866.8 51179.75 L 485297.25 51179.75 L 485297.25 53891.9 L 476866.8 53891.9 L 476866.8 58456.25 L 473456.4 58456.25 Z M 459606.55 31562.6 Q 458501.6 27498.05 455943.8 21277.5 L 458805.4 20324.45 Q 461363.2 26194.65 462666.6 30359.65 L 459606.55 31562.6 Z M 455843.35 44711.75 Q 455794.35 45713.8 455794.35 47820.8 Q 443551.7 50280.6 442248.3 51032.75 Q 441697.05 49178.1 441096.8 47774.25 Q 442299.75 47521.9 444458.2 44562.3 Q 446312.85 42251.95 448772.65 37937.5 Q 442748.1 38741.1 441895.5 39191.9 Q 441344.25 37234.35 440695 35781.5 Q 441648.05 35529.15 443301.8 32618.55 Q 446967 26246.1 449074 18418.35 L 452633.85 19925.1 Q 449524.8 28556.45 445411.25 35279.25 L 450676.3 34679 Q 452685.3 30815.35 453334.55 29259.6 L 456394.6 30964.8 Q 451580.35 40399.75 446913.1 46370.4 L 455843.35 44714.2 L 455843.35 44711.75 Z M 456698.4 56099.35 Q 443652.15 60315.8 441895.5 60916.05 L 441042.9 57302.3 Q 446462.3 55998.9 456095.7 53137.3 L 456700.85 56096.9 L 456698.4 56099.35 Z M 462666.6 55700 Q 463119.85 55947.45 464021.45 56650.6 Q 465077.4 57554.65 465677.65 57956.45 Q 468786.7 60063.45 474909.25 60063.45 Q 481583.05 60063.45 486804 59360.3 Q 486098.4 61317.85 486000.4 62922.6 Q 480681.45 63324.4 474808.8 63324.4 Q 468691.15 63324.4 465025.95 60867.05 Q 461664.55 58257.8 461164.75 58257.8 Q 459557.55 58257.8 455943.8 63875.65 L 453885.8 60815.6 Q 457097.75 56853.95 459457.1 55700 L 459457.1 39490.8 L 454990.75 39490.8 L 454990.75 36332.75 L 462666.6 36332.75 L 462666.6 55700 Z " fill-rule="nonzero" style="fill:#ffffff;;fill-opacity:1;"/>
</svg>