<svg version="1.1" x="0" y="0" width="100%" height="100%" viewBox="0 0 393267.2 54118.4" xmlns="http://www.w3.org/2000/svg">
  <path d="M 179871 34319.85 L 177324.75 34319.85 L 177324.75 15432.1 L 192989 15432.1 L 192989 34319.85 L 190371 34319.85 L 190371 17798.1 L 179871 17798.1 L 179871 34319.85 Z M 173025 41344.35 Q 172309.25 39158.6 170517.25 35716.35 Q 167829.25 41451.1 164138.5 44928.35 Q 163205.75 43708.6 162168 42919.35 Q 166110.75 39407.1 168905.5 32778.1 Q 166037.25 27830.85 162920.5 23707.85 L 164962.75 22383.1 Q 167757.5 26038.85 170088.5 29729.6 Q 171880.5 24495.35 172631.25 19012.6 L 162775.25 19012.6 L 162775.25 16469.85 L 173277 16469.85 L 173779.25 16363.1 L 175464.5 16865.35 Q 174461.75 25680.1 171843.75 32597.85 Q 174316.5 36897.6 175319.25 39692.35 L 173025 41342.6 L 173025 41344.35 Z M 191625.75 43708.6 Q 192486.75 43708.6 192772 42597.35 Q 193024 41521.1 193130.75 37686.85 Q 193991.75 38330.85 195316.5 38689.6 Q 195066.25 43097.85 194492.25 44315.85 Q 193776.5 45750.85 191590.75 45750.85 L 188579 45750.85 Q 186752 45750.85 186036.25 45105.1 Q 185247 44461.1 185247 42740.85 L 185247 34605.1 Q 183061.25 42310.35 175212.5 46396.6 Q 174531.75 45106.85 173565.75 44462.85 Q 179585.75 41416.1 181951.75 36433.85 Q 183637 32886.6 183637 27652.35 L 183637 20806.35 L 186144.75 20806.35 L 186144.75 27687.35 Q 186144.75 30986.1 185464 33850.85 L 187723.25 33850.85 L 187723.25 42488.85 Q 187723.25 43706.85 188976.25 43706.85 L 191629.25 43706.85 L 191625.75 43708.6 Z M 215676 39300.35 Q 219188.25 42669.1 220621.5 44963.35 L 218936.25 46146.35 Q 217074.25 43313.1 214027.5 40303.1 L 215677.75 39300.35 L 215676 39300.35 Z M 219832.25 15790.85 L 219832.25 37975.6 L 217646.5 37975.6 L 217646.5 17831.35 L 209976.25 17831.35 L 209976.25 38082.35 L 207862.25 38082.35 L 207862.25 15789.1 L 219832.25 15789.1 L 219832.25 15790.85 Z M 229760 14140.6 L 229760 43314.85 Q 229760 45287.1 228542 45861.1 Q 227394 46363.35 223594.75 46291.6 Q 223414.5 45288.85 222805.5 44070.85 Q 225995.75 44142.6 226856.75 44070.85 Q 227572.5 44070.85 227572.5 43355.1 L 227572.5 14144.1 L 229758.25 14144.1 L 229760 14140.6 Z M 224812.75 16900.35 L 224812.75 38189.1 L 222698.75 38189.1 L 222698.75 16900.35 L 224812.75 16900.35 Z M 214634.75 20377.6 L 214634.75 32956.6 Q 214634.75 42635.85 207216.5 46361.6 Q 206822.75 45500.6 205961.75 44711.35 Q 210013 42634.1 211518 39300.35 Q 212594.25 36899.35 212594.25 32956.6 L 212594.25 20377.6 L 214636.5 20377.6 L 214634.75 20377.6 Z M 201229.75 14070.6 Q 205207.5 16184.6 206999.5 17796.35 L 205387.75 19910.35 Q 203415.5 18048.35 199654.75 15969.35 L 201229.75 14070.6 Z M 199618 23709.6 Q 203347.25 25538.35 205496.25 27223.6 L 203956.25 29337.6 Q 202379.5 28012.85 198114.75 25575.1 L 199619.75 23711.35 L 199618 23709.6 Z M 198828.75 44569.6 Q 201588.5 39086.85 203632.5 33173.6 L 205781.5 34571.85 Q 203667.5 40698.6 201229.75 45967.85 L 198828.75 44569.6 Z " fill-rule="nonzero" style="fill:#ffffff;;fill-opacity:1;"/>
</svg>