<svg version="1.1" x="0" y="0" width="100%" height="100%" viewBox="0 0 281600 67840" xmlns="http://www.w3.org/2000/svg">
  <path d="M 9230 29610.1 L 6090.5 29610.1 L 6090.5 20924.5 L 22691 20924.5 Q 21785.9 18730 20540.6 16753.9 L 23680.1 15764.8 Q 25572.2 18688 26473.1 20924.5 L 41097.5 20924.5 L 41097.5 29610.1 L 37829.9 29610.1 L 37829.9 23933.8 L 9227.9 23933.8 L 9227.9 29610.1 L 9230 29610.1 Z M 18736.7 33096.1 Q 16628.3 30601.3 12455.6 28148.5 L 14389.7 26126.2 Q 18690.5 28492.9 20756.9 30817.6 L 18734.6 33096.1 L 18736.7 33096.1 Z M 10088.9 32623.6 Q 14734.1 35160.4 16798.4 37352.8 L 14864.3 39761.5 Q 12758 37399 8240.9 34776.1 L 10088.9 32625.7 L 10088.9 32623.6 Z M 26691.5 44965.3 Q 36326.3 48449.2 41918.6 52579.9 L 39984.5 55030.6 Q 34434.2 50815.9 25143.8 47287.9 L 26691.5 44967.4 L 26691.5 44965.3 Z M 42088.7 40964.8 L 42088.7 43762 L 24324.8 43762 Q 20542.7 52147.3 7512.2 55156.6 Q 6865.4 53566.9 5706.2 52405.6 Q 17060.9 49996.9 20630.9 43762 L 5275.7 43762 L 5275.7 40964.8 L 21918.2 40964.8 Q 23381.9 36622 23682.2 26086.3 L 26993.9 26086.3 Q 26691.5 36063.4 25316 40966.9 L 42088.7 40966.9 L 42088.7 40964.8 Z M 83546.9 22344.1 L 64924.1 22344.1 L 64924.1 19330.6 L 83546.9 19330.6 L 83546.9 22344.1 Z M 62173.1 18990.4 Q 59678.3 25699.9 57744.2 30084.7 Q 61744.7 34513.6 61744.7 39461.2 Q 61744.7 43159.3 59980.7 44404.6 Q 59163.8 45007.3 57616.1 45223.6 Q 56412.8 45351.7 54648.8 45265.6 Q 54564.8 43675.9 53789.9 42472.6 Q 55682 42558.7 56370.8 42514.6 Q 57187.7 42430.6 57702.2 42128.2 Q 58649.3 41483.5 58649.3 39158.8 Q 58649.3 34774 54692.9 30473.2 Q 56715.2 25441.6 58176.8 20796.4 L 51941.9 20796.4 L 51941.9 55286.8 L 48886.4 55286.8 L 48886.4 17871.1 L 59422.1 17871.1 L 59940.8 17743 L 62175.2 18992.5 L 62173.1 18990.4 Z M 69012.8 37955.5 Q 66862.4 45954.4 63206.3 51160.3 Q 61786.7 49957 60625.4 49484.5 Q 64109.3 44967.4 66089.6 37312.9 L 69014.9 37957.6 L 69012.8 37955.5 Z M 75419.9 32537.5 L 75419.9 51246.4 Q 75419.9 53911.3 73830.2 54556 Q 72452.6 55202.8 67637.3 55202.8 Q 67421 53655.1 66648.2 51933.1 Q 67765.4 51977.2 71421.5 51977.2 Q 72238.4 51933.1 72238.4 51246.4 L 72238.4 32537.5 L 63076.1 32537.5 L 63076.1 29528.2 L 85871.6 29528.2 L 85871.6 32537.5 L 75419.9 32537.5 Z M 81010.1 37224.7 Q 84708.2 44623 85911.5 50127.1 L 82944.2 51160.3 Q 81955.1 45526 78343.1 38041.6 L 81008 37224.7 L 81010.1 37224.7 Z M 95246 29610.1 L 92106.5 29610.1 L 92106.5 20924.5 L 108707 20924.5 Q 107801.9 18730 106556.6 16753.9 L 109696.1 15764.8 Q 111588.2 18688 112489.1 20924.5 L 127113.5 20924.5 L 127113.5 29610.1 L 123845.9 29610.1 L 123845.9 23933.8 L 95243.9 23933.8 L 95243.9 29610.1 L 95246 29610.1 Z M 104752.7 33096.1 Q 102644.3 30601.3 98471.6 28148.5 L 100405.7 26126.2 Q 104706.5 28492.9 106772.9 30817.6 L 104750.6 33096.1 L 104752.7 33096.1 Z M 96104.9 32623.6 Q 100750.1 35160.4 102814.4 37352.8 L 100880.3 39761.5 Q 98774 37399 94256.9 34776.1 L 96104.9 32625.7 L 96104.9 32623.6 Z M 112707.5 44965.3 Q 122342.3 48449.2 127934.6 52579.9 L 126000.5 55030.6 Q 120450.2 50815.9 111159.8 47287.9 L 112707.5 44967.4 L 112707.5 44965.3 Z M 128104.7 40964.8 L 128104.7 43762 L 110340.8 43762 Q 106558.7 52147.3 93528.2 55156.6 Q 92881.4 53566.9 91722.2 52405.6 Q 103076.9 49996.9 106646.9 43762 L 91291.7 43762 L 91291.7 40964.8 L 107934.2 40964.8 Q 109397.9 36622 109698.2 26086.3 L 113009.9 26086.3 Q 112707.5 36063.4 111332 40966.9 L 128104.7 40966.9 L 128104.7 40964.8 Z M 144232.7 45223.6 L 133222.4 48279.1 L 132619.7 45610 Q 133995.2 45309.7 143932.4 42772.9 L 144232.7 45223.6 Z M 148877.9 36019.3 Q 148877.9 36966.4 148835.9 37352.8 Q 147930.8 51760.9 146210.9 53566.9 Q 145177.7 54684.1 143371.7 54812.2 Q 141994.1 54940.3 138296 54770.2 Q 138125.9 53180.5 137395.1 52061.2 Q 139931.9 52321.6 142298.6 52321.6 Q 143373.8 52321.6 143804.3 51802.9 Q 145179.8 50427.4 145910.6 38642.2 L 134469.8 38642.2 Q 135332.9 32493.4 135805.4 23933.8 L 138558.5 24061.9 Q 138170 29654.2 137483.3 36019.3 L 142773.2 36019.3 Q 143632.1 29309.8 144192.8 20750.2 L 133997.3 20750.2 L 133997.3 17955.1 L 147116 17955.1 Q 146168.9 30683.2 145524.2 36017.2 L 148877.9 36017.2 L 148877.9 36019.3 Z M 162469.1 16665.7 L 161522 18599.8 Q 165992.9 25267.3 172788.5 29742.4 Q 171713.3 31117.9 171198.8 32707.6 Q 164789.6 27978.4 159974.3 21268.9 Q 155715.5 28192.6 149180.3 32793.7 Q 148317.2 31460.2 147286.1 30256.9 Q 155801.6 24794.8 159671.9 15720.7 L 162469.1 16667.8 L 162469.1 16665.7 Z M 166723.7 32062.9 L 153995.6 32062.9 L 153995.6 29309.8 L 166723.7 29309.8 L 166723.7 32062.9 Z M 160404.8 45610 Q 160144.4 41569.6 158682.8 35376.7 L 161219.6 35032.3 Q 162639.2 40794.7 163069.7 45223.6 L 160404.8 45610 Z M 153693.2 35849.2 Q 155759.6 41225.2 156532.4 45998.5 L 153909.5 46729.3 Q 153481.1 42598.6 151198.4 36449.8 L 153693.2 35847.1 L 153693.2 35849.2 Z M 171284.9 36363.7 Q 167540.6 45696.1 165003.8 50427.4 L 171583.1 50427.4 L 171583.1 53222.5 L 149820.8 53222.5 L 149820.8 50427.4 L 162250.7 50427.4 Q 165778.7 43801.9 168357.5 35586.7 L 171282.8 36361.6 L 171284.9 36363.7 Z M 191241.2 38169.7 Q 191155.1 39631.3 191413.4 40964.8 Q 178252.7 43331.5 176961.2 44020.3 Q 176616.8 42775 175886 40924.9 Q 177089.3 40666.6 179239.7 38171.8 Q 181131.8 36279.7 183796.7 32539.6 Q 177561.8 33228.4 176660.9 33700.9 Q 175844 31162 175541.6 30475.3 Q 176446.7 30301 177994.4 27980.5 Q 181436.3 22948.9 183756.8 16323.4 L 186982.4 17656.9 Q 184015.1 24496.6 180100.7 30130.9 L 185821.1 29612.2 Q 187284.8 27377.8 188530.1 25053.1 L 191411.3 26817.1 Q 186982.4 34043.2 181692.5 39761.5 L 191241.2 38171.8 L 191241.2 38169.7 Z M 175799.9 49652.5 Q 178380.8 49224.1 191325.2 46601.2 L 191585.6 49566.4 Q 186896.3 50641.6 176318.6 52924.3 L 175799.9 49654.6 L 175799.9 49652.5 Z M 196961.6 41827.9 L 196961.6 50557.6 L 209519.6 50557.6 L 209519.6 41827.9 L 196961.6 41827.9 Z M 193864.1 38900.5 L 212699 38900.5 L 212699 55114.6 L 209517.5 55114.6 L 209517.5 53478.7 L 196959.5 53478.7 L 196959.5 55284.7 L 193862 55284.7 L 193862 38898.4 L 193864.1 38900.5 Z M 204788.3 24836.8 L 204788.3 31504.3 L 213776.3 31504.3 L 213776.3 34559.8 L 192791 34559.8 L 192791 31504.3 L 201520.7 31504.3 L 201520.7 24836.8 L 191669.6 24836.8 L 191669.6 21743.5 L 201520.7 21743.5 L 201520.7 16023.1 L 204788.3 16023.1 L 204788.3 21743.5 L 214465.1 21743.5 L 214465.1 24836.8 L 204788.3 24836.8 Z M 236956.1 32321.2 L 236956.1 27892.3 L 227279.3 27892.3 L 227279.3 32321.2 L 236956.1 32321.2 Z M 227279.3 25267.3 L 236956.1 25267.3 L 236956.1 20880.4 L 227279.3 20880.4 L 227279.3 25267.3 Z M 250032.8 20880.4 L 240269.9 20880.4 L 240269.9 25267.3 L 250032.8 25267.3 L 250032.8 20880.4 Z M 250032.8 27892.3 L 240269.9 27892.3 L 240269.9 32321.2 L 250032.8 32321.2 L 250032.8 27892.3 Z M 242934.8 41653.6 Q 249257.9 47934.7 258462.2 51032.2 Q 257258.9 52107.4 256269.8 53697.1 Q 246893.3 49910.8 240272 42772.9 L 240272 55330.9 L 236960.3 55330.9 L 236960.3 42985 Q 230553.2 50253.1 220960.4 53865.1 Q 220145.6 52531.6 218810 51244.3 Q 228228.5 48188.8 234293.3 41651.5 L 219885.2 41651.5 L 219885.2 38684.2 L 236960.3 38684.2 L 236960.3 35072.2 L 224057.9 35072.2 L 224057.9 18085.3 L 253432.7 18085.3 L 253432.7 35072.2 L 240272 35072.2 L 240272 38684.2 L 257347.1 38684.2 L 257347.1 41651.5 L 242939 41651.5 L 242934.8 41653.6 Z " fill-rule="nonzero" style="fill:#ffffff;;fill-opacity:1;"/>
</svg>