<svg version="1.1" x="0" y="0" width="100%" height="100%" viewBox="0 0 325580.8 67840" xmlns="http://www.w3.org/2000/svg">
  <path d="M 42735.5 40234 L 25101.8 40234 L 25101.8 55286.8 L 21834.2 55286.8 L 21834.2 40234 L 4456.7 40234 L 4456.7 37094.5 L 21834.2 37094.5 L 21834.2 22083.7 L 6695.3 22083.7 L 6695.3 18944.2 L 40326.8 18944.2 L 40326.8 22083.7 L 25103.9 22083.7 L 25103.9 37094.5 L 42737.6 37094.5 L 42737.6 40234 L 42735.5 40234 Z M 12497.6 24192.1 Q 15681.2 29784.4 16586.3 33868.9 L 13572.8 34902.1 Q 12541.7 30473.2 9702.5 25053.1 L 12497.6 24194.2 L 12497.6 24192.1 Z M 29786.9 34127.2 Q 32456 29656.3 34432.1 23977.9 L 37785.8 24925 Q 34904.6 31334.2 32495.9 35032.3 L 29784.8 34127.2 L 29786.9 34127.2 Z M 84752.3 21655.3 L 63767 21655.3 L 63767 18646 L 84752.3 18646 L 84752.3 21655.3 Z M 59636.3 17226.4 Q 55207.4 23247.1 48628.1 27892.3 Q 47294.6 25958.2 46733.9 25355.5 Q 52968.8 21140.8 56580.8 16023.1 L 59636.3 17226.4 Z M 61312.1 26300.5 Q 59464.1 29351.8 56580.8 32793.7 L 56580.8 55414.9 L 53399.3 55414.9 L 53399.3 36321.7 Q 50646.2 39116.8 48537.8 40794.7 Q 47376.5 39158.8 46301.3 38127.7 Q 53615.6 32968 58344.8 25181.2 L 61312.1 26300.5 Z M 85999.7 33438.4 L 79504.4 33438.4 L 79504.4 51202.3 Q 79504.4 53999.5 77614.4 54686.2 Q 76150.7 55158.7 69529.4 55158.7 Q 69271.1 53569 68496.2 52063.3 Q 73399.7 52191.4 75205.7 52107.4 Q 76280.9 52063.3 76280.9 51162.4 L 76280.9 33440.5 L 61916.9 33440.5 L 61916.9 30389.2 L 86001.8 30389.2 L 86001.8 33440.5 L 85999.7 33438.4 Z M 122168 20924.5 Q 118385.9 27592 109784.3 32407.3 Q 102344 36580 93095.6 38514.1 Q 92623.1 36878.2 91592 35632.9 Q 99330.5 34255.3 105998 31029.7 Q 103719.5 28965.4 100966.4 27375.7 L 103286.9 25739.8 Q 106512.5 27589.9 108795.2 29608 Q 114299.3 26426.5 117264.5 22640.2 L 105137 22640.2 Q 100836.2 26210.2 95157.8 28791.1 Q 94385 27587.8 93007.4 26554.6 Q 102642.2 22512.1 107717.9 15974.8 L 111201.8 16705.6 Q 110210.6 17955.1 108404.6 19761.1 L 119545.1 19761.1 L 120101.6 19633 L 122165.9 20924.5 L 122168 20924.5 Z M 128535.2 35977.3 Q 120922.7 52061.2 92751.2 55414.9 Q 92278.7 53480.8 91461.8 52321.6 Q 103719.5 51160.3 111976.7 47332 Q 109826.3 45265.6 106945.1 43031.2 L 109568 41525.5 Q 112407.2 43589.8 114902 45872.5 Q 120706.4 42514.6 123761.9 37741.3 L 112151 37741.3 Q 106430.6 42344.5 98776.1 45353.8 Q 97913 43806.1 96753.8 42989.2 Q 108925.4 38604.4 114687.8 30861.7 L 118213.7 31634.5 Q 116624 33614.8 115378.7 34818.1 L 125742.2 34818.1 L 126389 34648 L 128539.4 35981.5 L 128535.2 35977.3 Z M 153909.5 29826.4 L 153909.5 40450.3 L 162124.7 40450.3 L 162124.7 29826.4 L 153909.5 29826.4 Z M 150770 43417.6 L 150770 29826.4 L 142941.2 29826.4 L 142941.2 49396.3 L 170596.1 49396.3 L 170596.1 52535.8 L 139631.6 52535.8 L 139631.6 29828.5 L 133392.5 29828.5 L 133392.5 26731 L 139631.6 26731 L 139631.6 17228.5 L 142941.2 17228.5 L 142941.2 26731 L 150770 26731 L 150770 16237.3 L 153909.5 16237.3 L 153909.5 26731 L 162124.7 26731 L 162124.7 16753.9 L 165392.3 16753.9 L 165392.3 26731 L 171801.5 26731 L 171801.5 29828.5 L 165392.3 29828.5 L 165392.3 43419.7 L 150770 43419.7 L 150770 43417.6 Z M 187543.1 40362.1 L 190768.7 40362.1 L 190768.7 42985 Q 190768.7 51847 181478.3 55587.1 Q 180747.5 54337.6 179285.9 53050.3 Q 187543.1 49952.8 187543.1 42854.8 L 187543.1 40360 L 187543.1 40362.1 Z M 184101.2 31892.8 L 193948.1 31892.8 L 193948.1 27247.6 L 184101.2 27247.6 L 184101.2 31892.8 Z M 184101.2 24708.7 L 193948.1 24708.7 L 193948.1 20149.6 L 184101.2 20149.6 L 184101.2 24708.7 Z M 207024.8 20149.6 L 197089.7 20149.6 L 197089.7 24708.7 L 207024.8 24708.7 L 207024.8 20149.6 Z M 207024.8 27247.6 L 197089.7 27247.6 L 197089.7 31892.8 L 207024.8 31892.8 L 207024.8 27247.6 Z M 201865.1 34599.7 Q 206938.7 39889.6 215282 41998 Q 213990.5 43115.2 213173.6 44709.1 Q 208656.5 43289.5 204399.8 40408.3 L 204399.8 55244.8 L 201130.1 55244.8 L 201130.1 40362.1 L 204313.7 40362.1 Q 200399.3 37567 198120.8 34599.7 L 193391.6 34599.7 Q 188015.6 41437.3 178294.7 44879.2 Q 177263.6 43247.5 176144.3 42256.3 Q 184359.5 39889.6 189519.2 34599.7 L 180961.7 34599.7 L 180961.7 17440.6 L 210292.4 17440.6 L 210292.4 34599.7 L 201865.1 34599.7 Z M 232829.6 46426.9 L 219496.7 50902 L 218765.9 47676.4 Q 221949.5 46729.3 224528.3 45870.4 L 224528.3 34301.5 L 219624.8 34301.5 L 219624.8 31288 L 224528.3 31288 L 224528.3 21955.6 L 219196.4 21955.6 L 219196.4 18946.3 L 232527.2 18946.3 L 232527.2 21955.6 L 227581.7 21955.6 L 227581.7 31288 L 231924.5 31288 L 231924.5 34301.5 L 227581.7 34301.5 L 227581.7 44925.4 L 232268.9 43377.7 L 232829.6 46429 L 232829.6 46426.9 Z M 237558.8 34343.5 L 244096.1 34343.5 L 244096.1 28839.4 L 237558.8 28839.4 L 237558.8 34343.5 Z M 237558.8 26214.4 L 244096.1 26214.4 L 244096.1 20796.4 L 237558.8 20796.4 L 237558.8 26214.4 Z M 253428.5 20796.4 L 246849.2 20796.4 L 246849.2 26214.4 L 253428.5 26214.4 L 253428.5 20796.4 Z M 253428.5 28837.3 L 246849.2 28837.3 L 246849.2 34341.4 L 253428.5 34341.4 L 253428.5 28837.3 Z M 258506.3 50986 L 258506.3 53911.3 L 230809.4 53911.3 L 230809.4 50986 L 243881.9 50986 L 243881.9 45095.5 L 234121.1 45095.5 L 234121.1 42172.3 L 243881.9 42172.3 L 243881.9 37138.6 L 234635.6 37138.6 L 234635.6 18001.3 L 256484 18001.3 L 256484 37138.6 L 247107.5 37138.6 L 247107.5 42172.3 L 257128.7 42172.3 L 257128.7 45095.5 L 247107.5 45095.5 L 247107.5 50986 L 258506.3 50986 Z M 272267.6 26256.4 Q 270075.2 23461.3 264869.3 19118.5 L 266849.6 17010.1 Q 272009.3 21052.6 274418 23847.7 L 272267.6 26256.4 Z M 276007.7 44276.5 Q 276438.2 45696.1 277169 46899.4 Q 268997.9 53524.9 268351.1 54425.8 Q 267662.3 53134.3 266587.1 52145.2 Q 268653.5 50425.3 268653.5 48016.6 L 268653.5 32575.3 L 261986 32575.3 L 261986 29477.8 L 271748.9 29477.8 L 271748.9 47586.1 L 276005.6 44274.4 L 276007.7 44276.5 Z M 294460.4 51288.4 Q 296008.1 51288.4 296522.6 50171.2 Q 296995.1 49138 297211.4 45351.7 Q 298414.7 46256.8 300134.6 46601.2 Q 299790.2 51114.1 298759.1 52619.8 Q 297639.8 54167.5 294630.5 54167.5 L 285770.6 54167.5 Q 282328.7 54167.5 281125.4 53178.4 Q 279922.1 52145.2 279922.1 49264 L 279922.1 31802.5 L 283061.6 31802.5 L 283061.6 40446.1 Q 289899.2 37134.4 294630.5 33696.7 L 296738.9 36361.6 Q 291018.5 40101.7 283061.6 43629.7 L 283061.6 49306 Q 283061.6 50555.5 283580.3 50899.9 Q 284136.8 51286.3 285986.9 51286.3 L 294460.4 51286.3 L 294460.4 51288.4 Z M 290201.6 16579.6 Q 289771.1 17612.8 289470.8 18127.3 Q 294158 26470.6 301942.7 31285.9 Q 300783.5 32277.1 299664.2 33780.7 Q 292954.7 29135.5 287881.1 21006.4 Q 283061.6 29093.5 275879.6 34169.2 Q 274804.4 32491.3 273729.2 31802.5 Q 282761.3 25737.7 286803.8 15974.8 L 290199.5 16577.5 L 290201.6 16579.6 Z " fill-rule="nonzero" style="fill:#ffffff;;fill-opacity:1;"/>
</svg>