<svg version="1.1" x="0" y="0" width="100%" height="100%" viewBox="0 0 243251.2 77004.8" xmlns="http://www.w3.org/2000/svg">
  <path d="M 25385.2 13538 Q 23148.4 15332 20862.4 16389.2 Q 20470 15872 19682.8 15208.4 Q 24180.4 13365.2 26392 10072.4 L 28235.2 10613.6 Q 27670 11351.6 27031.6 12039.2 L 32315.2 12039.2 L 32635.6 11966 L 33815.2 12604.4 Q 30719.2 19191.2 20765.2 21426.8 Q 20371.6 20518.4 19856.8 19977.2 Q 23149.6 19313.6 25704.4 18084.8 Q 24869.2 16881.2 23419.6 15676.4 L 24772 14890.4 Q 26172.4 15995.6 27156.4 17273.6 Q 29858.8 15675.2 31284.4 13538 L 25386.4 13538 L 25385.2 13538 Z M 16710.4 10096.4 L 18478 10096.4 L 18478 32484.8 L 16710.4 32484.8 L 16710.4 23810 Q 14621.2 25850 13048 27226.4 L 12040 25703.6 Q 13786 24327.2 16710.4 21648.8 L 16710.4 17421.2 L 15432.4 18477.2 Q 14473.6 16584.8 12163.6 14373.2 L 13441.6 13390.4 Q 15750.4 15578 16710.4 17248.4 L 16710.4 10096.4 Z M 22854.4 24400.4 Q 25139.2 26685.2 26147.2 28701.2 L 24574 29609.6 Q 23639.2 27569.6 21402.4 25211.6 L 22853.2 24400.4 L 22854.4 24400.4 Z M 34282 23686.4 L 31307.2 23686.4 L 31307.2 30323.6 Q 31307.2 31797.2 30300.4 32190.8 Q 29464 32484.8 26318.8 32484.8 Q 26195.2 31749.2 25729.6 30741.2 Q 27228.4 30790.4 28998.4 30790.4 Q 29513.2 30765.2 29513.2 30298.4 L 29513.2 23687.6 L 19633.6 23687.6 L 19633.6 21993.2 L 29513.2 21993.2 L 29513.2 18969.2 L 31307.2 18969.2 L 31307.2 21993.2 L 34282 21993.2 L 34282 23687.6 L 34282 23686.4 Z M 50723.2 17888 L 43054 17888 L 43054 12062 L 44358.4 12062 L 44358.4 16388 L 46225.6 16388 L 46225.6 10071.2 L 47626 10071.2 L 47626 16388 L 49396 16388 L 49396 12062 L 50724.4 12062 L 50724.4 17888 L 50723.2 17888 Z M 42194.8 10686.8 Q 40204 13882.4 37352.8 16290.8 Q 36959.2 15627.2 36344.8 14915.6 Q 39048.4 12778.4 40522 10050.8 L 42193.6 10689.2 L 42194.8 10686.8 Z M 42636.4 15503.6 Q 41998 16829.6 40940.8 18549.2 L 40940.8 32459.6 L 39270.4 32459.6 L 39270.4 20958.8 Q 38435.2 22112 37157.2 23489.6 Q 36616 22481.6 36074.8 21891.2 Q 39196 18892.4 41039.2 14936 L 42636.4 15502.4 L 42636.4 15503.6 Z M 51779.2 25972.4 Q 51976 26758.4 52246 27275.6 Q 48880 29536.4 48413.2 30150.8 Q 48240.4 29463.2 47749.6 28628 Q 48413.2 28210.4 48413.2 27105.2 L 48413.2 24254 L 45241.6 24254 L 45241.6 25679.6 Q 45241.6 30053.6 43006 32438 Q 42588.4 31724 41825.2 31209.2 Q 43644.4 29316.8 43644.4 25654.4 L 43644.4 22804.4 L 49912 22804.4 L 49912 27153.2 L 51779.2 25973.6 L 51779.2 25972.4 Z M 53647.6 16683.2 L 53524 17174 Q 53424.4 17518.4 53400.4 17666 Q 53941.6 21722 54900.4 24548 Q 56129.2 21304.4 56620 16683.2 L 53647.6 16683.2 Z M 58267.6 16683.2 Q 57481.6 22974.8 55735.6 26588 Q 57161.2 29684 59298.4 30986 Q 58586.8 31600.4 58120 32411.6 Q 56153.2 31035.2 54803.2 28257.2 Q 53131.6 30887.6 50650 32558 Q 50156.8 31673.6 49591.6 31208 Q 52369.6 29486 54016 26463.2 Q 53081.2 23834 52492 20368.4 Q 51950.8 21548 51630.4 22038.8 Q 51040 21276.8 50722 20958.8 L 50722 21252.8 L 42587.2 21252.8 L 42587.2 19679.6 L 50722 19679.6 L 50722 20170.4 Q 52392.4 16877.6 53080 10070 L 54751.6 10340 Q 54455.2 12846.8 54013.6 15107.6 L 59076.4 15107.6 L 59076.4 16680.8 L 58265.2 16680.8 L 58267.6 16683.2 Z M 73259.2 24203.6 L 71513.2 24203.6 L 71513.2 11252 L 82254.4 11252 L 82254.4 24203.6 L 80459.2 24203.6 L 80459.2 12874.4 L 73259.2 12874.4 L 73259.2 24203.6 Z M 68564.8 29020.4 Q 68074 27521.6 66845.2 25161.2 Q 65002 29093.6 62471.2 31478 Q 61831.6 30641.6 61120 30100.4 Q 63823.6 27692 65740 23146.4 Q 63773.2 19754 61636 16926.8 L 63036.4 16018.4 Q 64952.8 18525.2 66551.2 21056 Q 67780 17466.8 68294.8 13707.2 L 61536.4 13707.2 L 61536.4 11963.6 L 68737.6 11963.6 L 69082 11890.4 L 70237.6 12234.8 Q 69550 18279.2 67754.8 23022.8 Q 69450.4 25971.2 70138 27887.6 L 68564.8 29019.2 L 68564.8 29020.4 Z M 81319.6 30641.6 Q 81910 30641.6 82105.6 29879.6 Q 82278.4 29141.6 82351.6 26512.4 Q 82942 26954 83850.4 27200 Q 83678.8 30222.8 83285.2 31058 Q 82794.4 32042 81295.6 32042 L 79230.4 32042 Q 77977.6 32042 77486.8 31599.2 Q 76945.6 31157.6 76945.6 29978 L 76945.6 24399.2 Q 75446.8 29682.8 70064.8 32484.8 Q 69598 31600.4 68935.6 31158.8 Q 73063.6 29069.6 74686 25653.2 Q 75841.6 23220.8 75841.6 19631.6 L 75841.6 14937.2 L 77561.2 14937.2 L 77561.2 19655.6 Q 77561.2 21917.6 77094.4 23882 L 78643.6 23882 L 78643.6 29805.2 Q 78643.6 30640.4 79502.8 30640.4 L 81322 30640.4 L 81319.6 30641.6 Z M 99727.6 13611.2 Q 99137.2 14619.2 97981.6 16313.6 L 97981.6 32436.8 L 96041.2 32436.8 L 96041.2 18771.2 Q 92010.4 23368.4 87143.2 25923.2 Q 86798.8 25334 85914.4 24326 Q 93360.4 20590.4 97391.2 13611.2 L 86528.8 13611.2 L 86528.8 11792 L 107518 11792 L 107518 13611.2 L 99727.6 13611.2 Z M 99826 17715.2 Q 105552.4 21425.6 108206.8 24179.6 L 106757.2 25580 Q 103806.4 22410.8 98473.6 18896 L 99826 17716.4 L 99826 17715.2 Z M 113957.2 20517.2 L 113957.2 27766.4 L 116660.8 27766.4 L 116660.8 20517.2 L 113957.2 20517.2 Z M 113957.2 29412.8 L 113957.2 31379.6 L 112384 31379.6 L 112384 22508 Q 111769.6 23663.6 111106 24498.8 Q 110788 23418.8 110270.8 22558.4 Q 112580.8 19386.8 113710 13047.2 L 110786.8 13047.2 L 110786.8 11351.6 L 118969.6 11351.6 L 118969.6 13047.2 L 115432 13047.2 Q 114865.6 16119.2 113933.2 18894.8 L 118208.8 18894.8 L 118208.8 29412.8 L 113957.2 29412.8 Z M 130274.8 24964.4 L 130274.8 22040 L 126761.2 22040 L 126761.2 24964.4 L 130274.8 24964.4 Z M 125113.6 24964.4 L 125113.6 22040 L 121920.4 22040 L 121920.4 22778 Q 121920.4 23859.2 121847.2 24964.4 L 125114.8 24964.4 L 125113.6 24964.4 Z M 123025.6 13635.2 Q 122214.4 15160.4 121403.2 16289.6 L 125606.8 16289.6 Q 126638.8 15036.8 127400.8 13635.2 L 123026.8 13635.2 L 123025.6 13635.2 Z M 121920.4 20566.4 L 125113.6 20566.4 L 125113.6 17862.8 L 121920.4 17862.8 L 121920.4 20566.4 Z M 130274.8 17862.8 L 126761.2 17862.8 L 126761.2 20566.4 L 130274.8 20566.4 L 130274.8 17862.8 Z M 132020.8 30297.2 Q 132020.8 31625.6 131209.6 31994 Q 130595.2 32288 128038 32288 Q 127940.8 31478 127571.2 30666.8 Q 129266.8 30740 129881.2 30690.8 Q 130274.8 30690.8 130274.8 30273.2 L 130274.8 26562.8 L 126761.2 26562.8 L 126761.2 31599.2 L 125113.6 31599.2 L 125113.6 26562.8 L 121649.2 26562.8 Q 121034.8 30370.4 118969.6 32534 Q 118380.4 31870.4 117569.2 31502 Q 120223.6 28724 120223.6 22776.8 L 120223.6 17788.4 Q 119536 18550.4 118994.8 19067.6 Q 118625.2 18428 117889.6 17692.4 Q 121182.4 14792 122878 9976.4 L 124475.2 10394 L 123787.6 12089.6 L 128456.8 12089.6 L 128726.8 12014 L 129882.4 12801.2 Q 129071.2 14423.6 127548.4 16290.8 L 132022 16290.8 L 132022 30298.4 L 132020.8 30297.2 Z M 137771.2 18156.8 L 135977.2 18156.8 L 135977.2 12824 L 145511.2 12824 Q 145044.4 11620.4 144382 10415.6 L 146152 9900.8 Q 147134.8 11571.2 147601.6 12824 L 156350.8 12824 L 156350.8 18156.8 L 154507.6 18156.8 L 154507.6 14570 L 137771.2 14570 L 137771.2 18156.8 Z M 147084.4 29979.2 Q 148682.8 30297.2 151115.2 30297.2 Q 156203.2 30297.2 157382.8 30249.2 Q 156892 31035.2 156695.2 32092.4 L 151018 32092.4 Q 146814.4 32092.4 144430 31133.6 Q 141580 29978 140006.8 27027.2 Q 138728.8 30518 136344.4 32582 Q 135706 31844 134869.6 31326.8 Q 138581.2 28476.8 139465.6 21324.8 L 141283.6 21521.6 Q 141086.8 23094.8 140718.4 24692 Q 141996.4 28254.8 145216 29483.6 L 145216 19335.2 L 139121.2 19335.2 L 139121.2 17589.2 L 153349.6 17589.2 L 153349.6 19335.2 L 147082 19335.2 L 147082 23339.6 L 154357.6 23339.6 L 154357.6 25061.6 L 147082 25061.6 L 147082 29976.8 L 147084.4 29979.2 Z M 159226 20984 Q 160160.8 18698 160505.2 14693.6 L 161881.6 14890.4 Q 161660.8 18674 160652.8 21476 L 159227.2 20985.2 L 159226 20984 Z M 162764.8 10048.4 L 164584 10048.4 L 164584 32484.8 L 162764.8 32484.8 L 162764.8 10048.4 Z M 166033.6 13979.6 Q 167311.6 16289.6 167826.4 18083.6 L 166450 18747.2 Q 166008.4 17051.6 164754.4 14570 L 166032.4 13979.6 L 166033.6 13979.6 Z M 181687.6 29906 L 181687.6 31649.6 L 166697.2 31649.6 L 166697.2 29906 L 173725.6 29906 L 173725.6 23762 L 168514 23762 L 168514 22066.4 L 173725.6 22066.4 L 173725.6 16978.4 L 170136.4 16978.4 Q 169374.4 19264.4 168415.6 20787.2 Q 167898.4 20442.8 166793.2 19952 Q 168784 16953.2 169768 11177.6 L 171538 11474 Q 171144.4 13512.8 170653.6 15234.8 L 173725.6 15234.8 L 173725.6 10146.8 L 175543.6 10146.8 L 175543.6 15234.8 L 181098.4 15234.8 L 181098.4 16978.4 L 175543.6 16978.4 L 175543.6 22066.4 L 180558.4 22066.4 L 180558.4 23762 L 175543.6 23762 L 175543.6 29906 L 181687.6 29906 Z M 195401.2 29118.8 L 199530.4 29118.8 L 199530.4 25800.8 L 195401.2 25800.8 L 195401.2 29118.8 Z M 199531.6 16118 L 195402.4 16118 L 195402.4 19287.2 L 199531.6 19287.2 L 199531.6 16118 Z M 199531.6 20934.8 L 195402.4 20934.8 L 195402.4 24154.4 L 199531.6 24154.4 L 199531.6 20934.8 Z M 206411.2 30790.4 L 195401.2 30790.4 L 195401.2 32510 L 193631.2 32510 L 193631.2 18156.8 Q 192772 19607.6 191640.4 20933.6 L 191567.2 20836.4 L 191813.2 22409.6 L 189010 23318 L 189010 30249.2 Q 189010 31673.6 188150.8 32116.4 Q 187388.8 32484.8 185054.8 32460.8 Q 184979.2 31649.6 184513.6 30690.8 Q 186331.6 30740 186798.4 30690.8 Q 187241.2 30690.8 187241.2 30249.2 L 187241.2 23883.2 L 184364.8 24842 L 183899.2 23072 Q 186331.6 22360.4 187242.4 22066.4 L 187242.4 16634 L 184121.2 16634 L 184121.2 14938.4 L 187242.4 14938.4 L 187242.4 10072.4 L 189010 10072.4 L 189010 14938.4 L 191764 14938.4 L 191764 16634 L 189010 16634 L 189010 21525.2 L 191467.6 20763.2 Q 190878.4 20099.6 190288 19632.8 Q 193556.8 16143.2 195376 10196 L 197095.6 10637.6 Q 196554.4 12333.2 195619.6 14422.4 L 200461.6 14422.4 Q 199994.8 12849.2 198766 10858.4 L 200339.2 10244 Q 201691.6 12308 202134.4 13806.8 L 200708.8 14421.2 L 205918 14421.2 L 205918 16116.8 L 201248.8 16116.8 L 201248.8 19286 L 205524.4 19286 L 205524.4 20932.4 L 201248.8 20932.4 L 201248.8 24152 L 205500.4 24152 L 205500.4 25798.4 L 201248.8 25798.4 L 201248.8 29116.4 L 206408.8 29116.4 L 206408.8 30788 L 206411.2 30790.4 Z M 230642.8 15551.6 L 213095.2 15551.6 L 213095.2 20787.2 Q 213095.2 28898 210146.8 32781.2 Q 209408.8 31870.4 208646.8 31452.8 Q 211177.6 28086.8 211177.6 20787.2 L 211177.6 13758.8 L 220320.4 13758.8 Q 220026.4 12579.2 219142 10415.6 L 220985.2 10022 Q 221968 12062 222312.4 13536.8 L 221453.2 13757.6 L 230644 13757.6 L 230644 15551.6 L 230642.8 15551.6 Z M 44579.2 64738 L 49691.2 63779.2 L 49812.4 65376.4 Q 39637.6 67319.2 37598.8 67736.8 L 37205.2 66017.2 L 42832 65033.2 L 42832 60905.2 L 38040.4 60905.2 L 38040.4 59282.8 L 42832 59282.8 L 42832 56628.4 L 44578 56628.4 L 44578 59282.8 L 49468 59282.8 L 49468 60905.2 L 44578 60905.2 L 44578 64739.2 L 44579.2 64738 Z M 37403.2 48122.8 L 49961.2 48122.8 L 49961.2 49745.2 L 43324 49745.2 Q 41974 52350.4 40499.2 54317.2 L 46766.8 53776 Q 46004.8 52646.8 44947.6 51344.8 L 46249.6 50557.6 Q 48904 53729.2 49961.2 55817.2 L 48559.6 56725.6 Q 48215.2 55990 47698 55202.8 Q 39196 56014 38581.6 56308 Q 38360.8 55423.6 37967.2 54588.4 Q 38434 54491.2 39145.6 53507.2 Q 40250.8 52033.6 41284 49747.6 L 37400.8 49747.6 L 37400.8 48125.2 L 37403.2 48122.8 Z M 53033.2 63409.6 L 51311.2 63409.6 L 51311.2 48640 L 53033.2 48640 L 53033.2 63409.6 Z M 57923.2 46920.4 L 57923.2 66090.4 Q 57923.2 67711.6 56915.2 68081.2 Q 56032 68425.6 53081.2 68425.6 Q 52960 67590.4 52418.8 66631.6 Q 54703.6 66704.8 55612 66655.6 Q 56129.2 66631.6 56129.2 66114.4 L 56129.2 46920.4 L 57923.2 46920.4 Z M 63846.4 53776 L 62076.4 53776 L 62076.4 49181.2 L 72054.4 49181.2 Q 71612.8 48049.6 70949.2 46820.8 L 72816.4 46330 Q 73751.2 47952.4 74218 49132 L 74070.4 49181.2 L 82843.6 49181.2 L 82843.6 53776 L 81025.6 53776 L 81025.6 50876.8 L 63846.4 50876.8 L 63846.4 53776 Z M 77657.2 61296.4 Q 81467.2 66114.4 82598.8 67957.6 L 80976.4 68965.6 Q 80582.8 68251.6 79820.8 67122.4 Q 68588.8 68178.4 67877.2 68474.8 Q 67607.2 67441.6 67262.8 66730 Q 67828 66632.8 68935.6 65182 Q 71072.8 62773.6 73260.4 58104.4 L 75152.8 58742.8 Q 72940 62896 70237.6 66336.4 L 78766 65624.8 Q 77881.6 64346.8 76159.6 62159.2 L 77658.4 61298.8 L 77657.2 61296.4 Z M 83162.8 55201.6 L 83162.8 56947.6 L 70163.2 56947.6 Q 67238.8 63779.2 62790.4 67662.4 Q 62297.2 67096 61241.2 66284.8 Q 65442.4 63017.2 68122 56946.4 L 61732 56946.4 L 61732 55200.4 L 68834.8 55200.4 Q 69473.2 53504.8 70014.4 51613.6 L 71882.8 52055.2 Q 71489.2 53504.8 70825.6 55200.4 L 83162.8 55200.4 L 83162.8 55201.6 Z M 97835.2 60658 L 96089.2 60658 L 96089.2 47706.4 L 106830.4 47706.4 L 106830.4 60658 L 105035.2 60658 L 105035.2 49328.8 L 97835.2 49328.8 L 97835.2 60658 Z M 93140.8 65474.8 Q 92650 63976 91421.2 61615.6 Q 89578 65548 87047.2 67932.4 Q 86407.6 67096 85696 66554.8 Q 88399.6 64146.4 90316 59600.8 Q 88349.2 56208.4 86212 53381.2 L 87612.4 52472.8 Q 89528.8 54979.6 91127.2 57510.4 Q 92356 53921.2 92870.8 50161.6 L 86112.4 50161.6 L 86112.4 48418 L 93313.6 48418 L 93658 48344.8 L 94813.6 48689.2 Q 94126 54733.6 92330.8 59477.2 Q 94026.4 62425.6 94714 64342 L 93140.8 65473.6 L 93140.8 65474.8 Z M 105895.6 67096 Q 106486 67096 106681.6 66334 Q 106854.4 65596 106927.6 62966.8 Q 107518 63408.4 108426.4 63654.4 Q 108254.8 66677.2 107861.2 67512.4 Q 107370.4 68496.4 105871.6 68496.4 L 103806.4 68496.4 Q 102553.6 68496.4 102062.8 68053.6 Q 101521.6 67612 101521.6 66432.4 L 101521.6 60853.6 Q 100022.8 66137.2 94640.8 68939.2 Q 94174 68054.8 93511.6 67613.2 Q 97639.6 65524 99262 62107.6 Q 100417.6 59675.2 100417.6 56086 L 100417.6 51391.6 L 102137.2 51391.6 L 102137.2 56110 Q 102137.2 58372 101670.4 60336.4 L 103219.6 60336.4 L 103219.6 66259.6 Q 103219.6 67094.8 104078.8 67094.8 L 105898 67094.8 L 105895.6 67096 Z M 124303.6 50065.6 Q 123713.2 51073.6 122557.6 52768 L 122557.6 68891.2 L 120617.2 68891.2 L 120617.2 55225.6 Q 116586.4 59822.8 111719.2 62377.6 Q 111374.8 61788.4 110490.4 60780.4 Q 117936.4 57044.8 121967.2 50065.6 L 111104.8 50065.6 L 111104.8 48246.4 L 132094 48246.4 L 132094 50065.6 L 124303.6 50065.6 Z M 124402 54169.6 Q 130128.4 57880 132782.8 60634 L 131333.2 62034.4 Q 128382.4 58865.2 123049.6 55350.4 L 124402 54170.8 L 124402 54169.6 Z M 138533.2 56971.6 L 138533.2 64220.8 L 141236.8 64220.8 L 141236.8 56971.6 L 138533.2 56971.6 Z M 138533.2 65867.2 L 138533.2 67834 L 136960 67834 L 136960 58962.4 Q 136345.6 60118 135682 60953.2 Q 135364 59873.2 134846.8 59012.8 Q 137156.8 55841.2 138286 49501.6 L 135362.8 49501.6 L 135362.8 47806 L 143545.6 47806 L 143545.6 49501.6 L 140008 49501.6 Q 139441.6 52573.6 138509.2 55349.2 L 142784.8 55349.2 L 142784.8 65867.2 L 138533.2 65867.2 Z M 154850.8 61418.8 L 154850.8 58494.4 L 151337.2 58494.4 L 151337.2 61418.8 L 154850.8 61418.8 Z M 149689.6 61418.8 L 149689.6 58494.4 L 146496.4 58494.4 L 146496.4 59232.4 Q 146496.4 60313.6 146423.2 61418.8 L 149690.8 61418.8 L 149689.6 61418.8 Z M 147601.6 50089.6 Q 146790.4 51614.8 145979.2 52744 L 150182.8 52744 Q 151214.8 51491.2 151976.8 50089.6 L 147602.8 50089.6 L 147601.6 50089.6 Z M 146496.4 57020.8 L 149689.6 57020.8 L 149689.6 54317.2 L 146496.4 54317.2 L 146496.4 57020.8 Z M 154850.8 54317.2 L 151337.2 54317.2 L 151337.2 57020.8 L 154850.8 57020.8 L 154850.8 54317.2 Z M 156596.8 66751.6 Q 156596.8 68080 155785.6 68448.4 Q 155171.2 68742.4 152614 68742.4 Q 152516.8 67932.4 152147.2 67121.2 Q 153842.8 67194.4 154457.2 67145.2 Q 154850.8 67145.2 154850.8 66727.6 L 154850.8 63017.2 L 151337.2 63017.2 L 151337.2 68053.6 L 149689.6 68053.6 L 149689.6 63017.2 L 146225.2 63017.2 Q 145610.8 66824.8 143545.6 68988.4 Q 142956.4 68324.8 142145.2 67956.4 Q 144799.6 65178.4 144799.6 59231.2 L 144799.6 54242.8 Q 144112 55004.8 143570.8 55522 Q 143201.2 54882.4 142465.6 54146.8 Q 145758.4 51246.4 147454 46430.8 L 149051.2 46848.4 L 148363.6 48544 L 153032.8 48544 L 153302.8 48468.4 L 154458.4 49255.6 Q 153647.2 50878 152124.4 52745.2 L 156598 52745.2 L 156598 66752.8 L 156596.8 66751.6 Z M 162347.2 54611.2 L 160553.2 54611.2 L 160553.2 49278.4 L 170087.2 49278.4 Q 169620.4 48074.8 168958 46870 L 170728 46355.2 Q 171710.8 48025.6 172177.6 49278.4 L 180926.8 49278.4 L 180926.8 54611.2 L 179083.6 54611.2 L 179083.6 51024.4 L 162347.2 51024.4 L 162347.2 54611.2 Z M 171660.4 66433.6 Q 173258.8 66751.6 175691.2 66751.6 Q 180779.2 66751.6 181958.8 66703.6 Q 181468 67489.6 181271.2 68546.8 L 175594 68546.8 Q 171390.4 68546.8 169006 67588 Q 166156 66432.4 164582.8 63481.6 Q 163304.8 66972.4 160920.4 69036.4 Q 160282 68298.4 159445.6 67781.2 Q 163157.2 64931.2 164041.6 57779.2 L 165859.6 57976 Q 165662.8 59549.2 165294.4 61146.4 Q 166572.4 64709.2 169792 65938 L 169792 55789.6 L 163697.2 55789.6 L 163697.2 54043.6 L 177925.6 54043.6 L 177925.6 55789.6 L 171658 55789.6 L 171658 59794 L 178933.6 59794 L 178933.6 61516 L 171658 61516 L 171658 66431.2 L 171660.4 66433.6 Z M 183802 57438.4 Q 184736.8 55152.4 185081.2 51148 L 186457.6 51344.8 Q 186236.8 55128.4 185228.8 57930.4 L 183803.2 57439.6 L 183802 57438.4 Z M 187340.8 46502.8 L 189160 46502.8 L 189160 68939.2 L 187340.8 68939.2 L 187340.8 46502.8 Z M 190609.6 50434 Q 191887.6 52744 192402.4 54538 L 191026 55201.6 Q 190584.4 53506 189330.4 51024.4 L 190608.4 50434 L 190609.6 50434 Z M 206263.6 66360.4 L 206263.6 68104 L 191273.2 68104 L 191273.2 66360.4 L 198301.6 66360.4 L 198301.6 60216.4 L 193090 60216.4 L 193090 58520.8 L 198301.6 58520.8 L 198301.6 53432.8 L 194712.4 53432.8 Q 193950.4 55718.8 192991.6 57241.6 Q 192474.4 56897.2 191369.2 56406.4 Q 193360 53407.6 194344 47632 L 196114 47928.4 Q 195720.4 49967.2 195229.6 51689.2 L 198301.6 51689.2 L 198301.6 46601.2 L 200119.6 46601.2 L 200119.6 51689.2 L 205674.4 51689.2 L 205674.4 53432.8 L 200119.6 53432.8 L 200119.6 58520.8 L 205134.4 58520.8 L 205134.4 60216.4 L 200119.6 60216.4 L 200119.6 66360.4 L 206263.6 66360.4 Z " fill-rule="nonzero" style="fill:#ffffff;;fill-opacity:1;"/>
</svg>