<svg version="1.1" x="0" y="0" width="100%" height="100%" viewBox="0 0 280268.8 54118.4" xmlns="http://www.w3.org/2000/svg">
  <path d="M 24876.75 21021.6 Q 25128.75 19875.35 25309 18442.1 L 18391.25 18442.1 L 18391.25 14677.85 L 36778.5 14677.85 L 36778.5 18442.1 L 29860.75 18442.1 L 29001.5 21019.85 L 35380.25 21019.85 L 35380.25 38043.85 L 31222.25 38043.85 L 31222.25 24820.85 L 23480.25 24820.85 L 23480.25 38189.1 L 19539.25 38189.1 L 19539.25 21019.85 L 24878.5 21019.85 L 24876.75 21021.6 Z M 13444 34820.35 Q 13983 33243.6 14663.75 30340.35 L 12513 30340.35 L 12513 42203.6 Q 12513 45178.6 10827.75 45967.85 Q 9322.75 46722.1 5345 46722.1 Q 5129.75 44749.85 4053.5 42635.85 Q 5595.25 42670.85 7744.25 42670.85 Q 8390 42635.85 8390 42133.6 L 8390 30340.35 L 3049 30340.35 L 3049 26576.1 L 10288.75 26576.1 Q 6452.75 24068.35 4554 22922.1 L 6739.75 20123.85 L 9608 21809.1 Q 10897.75 20449.35 12261 18512.1 L 3910 18512.1 L 3910 14821.35 L 14912.25 14821.35 L 15628 14606.1 L 18174.25 16433.1 Q 15773.25 20556.1 12583 23601.1 Q 14053 24533.85 15199.25 25358.1 L 14268.25 26576.1 L 15953.5 26576.1 L 16525.75 26434.35 L 19107 27043.35 Q 17747.25 32419.35 16599.25 35501.1 L 13444 34820.35 Z M 29321.75 33173.6 Q 29321.75 42705.85 19072 46541.85 Q 17995.75 44821.6 16419 43601.85 Q 25344 40626.85 25344 33101.85 L 25344 26577.85 L 29321.75 26577.85 L 29321.75 33173.6 Z M 30685 38691.35 Q 35235 42275.35 36992 44067.35 L 34017 46935.6 Q 32870.75 45537.35 27923.5 41199.1 L 30683.25 38691.35 L 30685 38691.35 Z M 47959.25 22062.85 Q 46274 19912.1 42116 16399.85 L 44804 13676.85 Q 49501 17330.85 50825.75 18946.1 L 47957.5 22062.85 L 47959.25 22062.85 Z M 52546 35609.6 Q 53013.25 37868.85 53909.25 39515.6 Q 45523.25 45572.35 44697.25 46648.6 Q 44053.25 44604.6 42620 42670.85 Q 44553.75 41346.1 44553.75 39337.1 L 44553.75 28550.1 L 39319.5 28550.1 L 39319.5 24322.1 L 48890.25 24322.1 L 48890.25 38119.1 L 52544.25 35611.35 L 52546 35609.6 Z M 72473.25 28978.85 L 64232.5 28978.85 L 64232.5 46792.1 L 59645.75 46792.1 L 59645.75 28978.85 L 51042.75 28978.85 L 51042.75 24535.6 L 59645.75 24535.6 L 59645.75 13461.6 L 64232.5 13461.6 L 64232.5 24535.6 L 72473.25 24535.6 L 72473.25 28978.85 Z M 74730.75 40985.6 Q 78782 40411.6 88531.25 38584.6 L 88853.25 42562.35 Q 86058.5 43171.35 75413.25 45357.1 L 74732.5 40983.85 L 74730.75 40985.6 Z M 83190.25 24033.35 Q 84515 21882.6 85341 20235.85 L 89101.75 22706.85 Q 86056.75 27725.85 82114 32099.1 L 88279.25 31166.35 Q 88207.5 32958.35 88531.25 34822.1 Q 77599 36794.35 76164 37545.1 Q 75772 35718.1 74765.75 33458.85 Q 75772 33243.6 77740.75 31201.35 Q 78782 30233.6 80574 27832.6 Q 76738 28261.35 75878.75 28693.6 Q 75411.5 26721.35 74408.75 24535.6 Q 75376.5 24283.6 76594.5 22491.6 Q 79245.75 18872.6 81109.5 13244.6 L 85517.75 15073.35 Q 83297 19982.1 80141.75 24246.85 L 83188.5 24031.6 L 83190.25 24033.35 Z M 94442.75 36218.6 L 94442.75 41414.35 L 102039.5 41414.35 L 102039.5 36218.6 L 94442.75 36218.6 Z M 90249.75 32384.35 L 106412.75 32384.35 L 106412.75 46648.6 L 102039.5 46648.6 L 102039.5 45250.35 L 94442.75 45250.35 L 94442.75 46790.35 L 90249.75 46790.35 L 90249.75 32384.35 Z M 100466.25 21775.85 L 100466.25 25718.6 L 107060.25 25718.6 L 107060.25 29766.35 L 89390.5 29766.35 L 89390.5 25718.6 L 95986.25 25718.6 L 95986.25 21775.85 L 88494.5 21775.85 L 88494.5 17689.6 L 95986.25 17689.6 L 95986.25 13281.35 L 100466.25 13281.35 L 100466.25 17689.6 L 107919.5 17689.6 L 107919.5 21775.85 L 100466.25 21775.85 Z M 125302.25 26397.6 L 125302.25 24103.35 L 119532.5 24103.35 L 119532.5 26397.6 L 125302.25 26397.6 Z M 119530.75 20806.35 L 125300.5 20806.35 L 125300.5 18512.1 L 119530.75 18512.1 L 119530.75 20806.35 Z M 135517 18513.85 L 129817.25 18513.85 L 129817.25 20808.1 L 135517 20808.1 L 135517 18513.85 Z M 135517 24103.35 L 129817.25 24103.35 L 129817.25 26397.6 L 135517 26397.6 L 135517 24103.35 Z M 132935.75 35968.35 Q 138059.75 40124.6 144547 41988.35 Q 142900.25 43458.35 141682.25 45607.35 Q 135051.5 43099.6 129817.25 37975.6 L 129817.25 46790.35 L 125302.25 46790.35 L 125302.25 38154.1 Q 120141.5 43313.1 113367.25 45824.35 Q 112004 43708.6 110464 42275.35 Q 117416.75 40231.35 122183.75 35968.35 L 111573.5 35968.35 L 111573.5 32060.6 L 125300.5 32060.6 L 125300.5 29946.6 L 115050.75 29946.6 L 115050.75 14966.6 L 140210.5 14966.6 L 140210.5 29946.6 L 129815.5 29946.6 L 129815.5 32060.6 L 143507.5 32060.6 L 143507.5 35968.35 L 132935.75 35968.35 Z " fill-rule="nonzero" style="fill:#7b5a85;;fill-opacity:1;"/>
</svg>