<svg version="1.1" x="0" y="0" width="100%" height="100%" viewBox="0 0 501401.6 40550.4" xmlns="http://www.w3.org/2000/svg">
  <path d="M 119630.4 26292.8 L 130762.8 26292.8 L 130762.8 24570.8 L 119630.4 24570.8 L 119630.4 26292.8 Z M 119630.4 16510.4 L 119630.4 18156.8 L 130762.8 18156.8 L 130762.8 16510.4 L 119630.4 16510.4 Z M 119630.4 21918.8 L 119630.4 23392.4 L 130762.8 23392.4 L 130762.8 21918.8 L 119630.4 21918.8 Z M 130762.8 19337.6 L 119630.4 19337.6 L 119630.4 20738 L 130762.8 20738 L 130762.8 19337.6 Z M 136022.4 27839.6 L 114370.8 27839.6 L 114370.8 26292.8 L 117860.4 26292.8 L 117860.4 15257.6 L 123758.4 15257.6 Q 123955.2 14349.2 124004.4 13709.6 L 115058.4 13709.6 L 115058.4 12136.4 L 124225.2 12136.4 Q 124348.8 11153.6 124446 10022 L 126388.8 10244 L 126068.4 12135.2 L 135408 12135.2 L 135408 13708.4 L 125798.4 13708.4 Q 125650.8 14544.8 125503.2 15256.4 L 132579.6 15256.4 L 132579.6 26291.6 L 136021.2 26291.6 L 136021.2 27838.4 L 136022.4 27839.6 Z M 123046.8 29364.8 Q 120048 31256 115623.6 32510 Q 115132.8 31895.6 114370.8 31232 Q 118965.6 30003.2 121447.2 28332.8 L 123045.6 29364.8 L 123046.8 29364.8 Z M 128600.4 28257.2 Q 132998.4 29658.8 136119.6 31181.6 L 134646 32459.6 Q 131844 30886.4 127467.6 29436.8 L 128599.2 28256 L 128600.4 28257.2 Z M 142600 17812.4 L 140806 17812.4 L 140806 12849.2 L 150292 12849.2 Q 149774.8 11595.2 149063.2 10466 L 150857.2 9900.8 Q 151938.4 11571.2 152453.2 12849.2 L 160810 12849.2 L 160810 17812.4 L 158942.8 17812.4 L 158942.8 14568.8 L 142598.8 14568.8 L 142598.8 17812.4 L 142600 17812.4 Z M 148032.4 19804.4 Q 146827.6 18378.8 144443.2 16977.2 L 145548.4 15821.6 Q 148006 17174 149186.8 18502.4 L 148031.2 19804.4 L 148032.4 19804.4 Z M 143090.8 19534.4 Q 145745.2 20984 146924.8 22236.8 L 145819.6 23613.2 Q 144616 22263.2 142034.8 20764.4 L 143090.8 19535.6 L 143090.8 19534.4 Z M 152578 26586.8 Q 158083.6 28577.6 161279.2 30938 L 160174 32338.4 Q 157002.4 29930 151693.6 27914 L 152578 26588 L 152578 26586.8 Z M 161376.4 24300.8 L 161376.4 25899.2 L 151225.6 25899.2 Q 149064.4 30690.8 141618.4 32410.4 Q 141248.8 31502 140586.4 30838.4 Q 147074.8 29462 149114.8 25899.2 L 140340.4 25899.2 L 140340.4 24300.8 L 149850.4 24300.8 Q 150686.8 21819.2 150858.4 15798.8 L 152750.8 15798.8 Q 152578 21500 151792 24302 L 161376.4 24302 L 161376.4 24300.8 Z M 173139.2 15626 L 167979.2 15626 L 167979.2 20763.2 L 173139.2 20763.2 L 173139.2 15626 Z M 173139.2 28283.6 L 173139.2 22384.4 L 167979.2 22384.4 L 167979.2 28283.6 L 173139.2 28283.6 Z M 172010 10366.4 Q 170928.8 13463.6 170732 13978.4 L 174812 13978.4 L 174812 29928.8 L 167980.4 29928.8 L 167980.4 31869.2 L 166308.8 31869.2 L 166308.8 13978.4 L 169062.8 13978.4 Q 169800.8 11594 170045.6 9996.8 L 172012.4 10365.2 L 172010 10366.4 Z M 186828.8 14840 Q 186311.6 29585.6 185132 31035.2 Q 184444.4 31895.6 183191.6 32019.2 Q 182183.6 32140.4 179553.2 31992.8 Q 179456 30984.8 178938.8 30198.8 Q 180537.2 30346.4 182577.2 30346.4 Q 183288.8 30346.4 183582.8 29978 Q 184640 28846.4 185081.6 15599.6 L 178840.4 15599.6 Q 177708.8 18327.2 176529.2 19900.4 Q 176208.8 19606.4 175029.2 18868.4 Q 177437.6 15696.8 178790 9946.4 L 180536 10364 Q 180069.2 12280.4 179478.8 13902.8 L 186827.6 13902.8 L 186827.6 14837.6 L 186828.8 14840 Z M 181396.4 25923.2 Q 180267.2 23638.4 177662 20246 L 179087.6 19410.8 Q 181790 22851.2 182945.6 24964.4 L 181396.4 25923.2 Z M 202746 17936 L 202746 24006.8 L 207440.4 24006.8 L 207440.4 17936 L 202746 17936 Z M 200952 25702.4 L 200952 17936 L 196478.4 17936 L 196478.4 29118.8 L 212281.2 29118.8 L 212281.2 30912.8 L 194587.2 30912.8 L 194587.2 17937.2 L 191022 17937.2 L 191022 16167.2 L 194587.2 16167.2 L 194587.2 10737.2 L 196478.4 10737.2 L 196478.4 16167.2 L 200952 16167.2 L 200952 10170.8 L 202746 10170.8 L 202746 16167.2 L 207440.4 16167.2 L 207440.4 10466 L 209307.6 10466 L 209307.6 16167.2 L 212970 16167.2 L 212970 17937.2 L 209307.6 17937.2 L 209307.6 25703.6 L 200952 25703.6 L 200952 25702.4 Z M 222989.2 23956.4 L 224832.4 23956.4 L 224832.4 25455.2 Q 224832.4 30519.2 219523.6 32656.4 Q 219106 31942.4 218270.8 31206.8 Q 222989.2 29436.8 222989.2 25380.8 L 222989.2 23955.2 L 222989.2 23956.4 Z M 221022.4 19116.8 L 226649.2 19116.8 L 226649.2 16462.4 L 221022.4 16462.4 L 221022.4 19116.8 Z M 221022.4 15011.6 L 226649.2 15011.6 L 226649.2 12406.4 L 221022.4 12406.4 L 221022.4 15011.6 Z M 234121.6 12406.4 L 228444.4 12406.4 L 228444.4 15011.6 L 234121.6 15011.6 L 234121.6 12406.4 Z M 234121.6 16462.4 L 228444.4 16462.4 L 228444.4 19116.8 L 234121.6 19116.8 L 234121.6 16462.4 Z M 231173.2 20663.6 Q 234072.4 23686.4 238840 24891.2 Q 238102 25529.6 237635.2 26440.4 Q 235054 25629.2 232621.6 23982.8 L 232621.6 32460.8 L 230753.2 32460.8 L 230753.2 23956.4 L 232572.4 23956.4 Q 230335.6 22359.2 229033.6 20663.6 L 226331.2 20663.6 Q 223259.2 24570.8 217704.4 26537.6 Q 217115.2 25605.2 216475.6 25038.8 Q 221170 23686.4 224118.4 20663.6 L 219228.4 20663.6 L 219228.4 10858.4 L 235988.8 10858.4 L 235988.8 20663.6 L 231173.2 20663.6 Z M 248581.2 22876.4 L 254872.8 22876.4 L 254872.8 24596 L 248581.2 24596 L 248581.2 22876.4 Z M 258053.2 22876.4 L 264344.8 22876.4 L 264344.8 24596 L 258053.2 24596 L 258053.2 22876.4 Z M 297835.6 11939.6 L 285668.8 11939.6 L 285668.8 13268 L 297835.6 13268 L 297835.6 11939.6 Z M 297835.6 14322.8 L 285668.8 14322.8 L 285668.8 15675.2 L 297835.6 15675.2 L 297835.6 14322.8 Z M 299628.4 16780.4 L 283924 16780.4 L 283924 10833.2 L 299628.4 10833.2 L 299628.4 16780.4 Z M 302750.8 19190 L 280877.2 19190 L 280877.2 17788.4 L 302750.8 17788.4 L 302750.8 19190 Z M 290880.4 25284.8 L 290880.4 23883.2 L 285178 23883.2 L 285178 25284.8 L 290880.4 25284.8 Z M 285178 22803.2 L 290880.4 22803.2 L 290880.4 21425.6 L 285178 21425.6 L 285178 22803.2 Z M 298571.2 21425.6 L 292624 21425.6 L 292624 22803.2 L 298571.2 22803.2 L 298571.2 21425.6 Z M 298571.2 23883.2 L 292624 23883.2 L 292624 25284.8 L 298571.2 25284.8 L 298571.2 23883.2 Z M 302872 30470 L 302872 31895.6 L 280729.6 31895.6 L 280729.6 30470 L 290880.4 30470 L 290880.4 29044.4 L 282769.6 29044.4 L 282769.6 27766.4 L 290880.4 27766.4 L 290880.4 26414 L 283482.4 26414 L 283482.4 20295.2 L 300367.6 20295.2 L 300367.6 26414 L 292625.2 26414 L 292625.2 27766.4 L 300882.4 27766.4 L 300882.4 29044.4 L 292625.2 29044.4 L 292625.2 30470 L 302873.2 30470 L 302872 30470 Z M 328448 22754 L 318420.8 22754 L 318420.8 30077.6 Q 318420.8 31773.2 317168 32141.6 Q 316184 32486 312350 32486 Q 312129.2 31553.6 311564 30618.8 Q 314242.4 30716 315888.8 30642.8 Q 316552.4 30618.8 316552.4 30053.6 L 316552.4 22754 L 306425.6 22754 L 306425.6 20934.8 L 316552.4 20934.8 L 316552.4 17396 Q 319821.2 15897.2 322696.4 13512.8 L 308859.2 13512.8 L 308859.2 11718.8 L 324686 11718.8 L 325079.6 11621.6 L 326456 12653.6 Q 323138 15922.4 318419.6 18330.8 L 318419.6 20936 L 328446.8 20936 L 328446.8 22755.2 L 328448 22754 Z M 331905.6 29315.6 Q 333796.8 28995.2 341121.6 27569.6 L 341269.2 29265.2 Q 339376.8 29682.8 336452.4 30273.2 Q 332642.4 31059.2 332224.8 31158.8 L 331906.8 29315.6 L 331905.6 29315.6 Z M 341439.6 16313.6 Q 338515.2 20541.2 335419.2 23638.4 L 341218.8 22803.2 Q 341218.8 23786 341292 24424.4 Q 333354 25678.4 332592 26022.8 Q 332444.4 25359.2 331977.6 24254 Q 332640 24130.4 334041.6 22704.8 Q 335173.2 21623.6 336867.6 19462.4 Q 332960.4 19928 332419.2 20174 Q 332222.4 19462.4 331804.8 18405.2 Q 332395.2 18257.6 333378 16905.2 Q 335565.6 14300 337384.8 10122.8 L 339178.8 10884.8 Q 337090.8 15038 334533.6 18110 L 338122.8 17789.6 Q 338908.8 16733.6 339819.6 15282.8 L 341440.8 16314.8 L 341439.6 16313.6 Z M 352302 10269.2 L 352302 32484.8 L 350434.8 32484.8 L 350434.8 25726.4 Q 343800 27348.8 342865.2 27963.2 Q 342620.4 27251.6 341906.4 26489.6 Q 343381.2 25678.4 343381.2 24400.4 L 343381.2 12284 L 345199.2 12284 L 345199.2 25186.4 L 350434.8 23982.8 L 350434.8 10269.2 L 352302 10269.2 Z M 364411.6 22557.2 Q 364411.6 23319.2 364508.8 24106.4 Q 358610.8 25679.6 358045.6 26097.2 Q 357896.8 25457.6 357504.4 24549.2 Q 358045.6 24452 359225.2 22902.8 Q 360257.2 21526.4 361436.8 19559.6 Q 358390 19977.2 357896.8 20247.2 Q 357725.2 19583.6 357307.6 18600.8 Q 357872.8 18477.2 358634.8 17076.8 Q 360330.4 14519.6 361732 10121.6 L 363329.2 10859.6 Q 361682.8 15060.8 359593.6 18280.4 L 362321.2 18010.4 Q 363059.2 16684.4 363722.8 15234.8 L 365172.4 16046 Q 362984.8 20370.8 360576.4 23492 L 364410.4 22557.2 L 364411.6 22557.2 Z M 364582 28233.2 L 357872.8 30838.4 L 357431.2 29118.8 Q 359692 28455.2 364286.8 26711.6 L 364580.8 28234.4 L 364582 28233.2 Z M 367630 20222 Q 367630 28601.6 365221.6 32657.6 Q 364680.4 32043.2 363893.2 31576.4 Q 365982.4 28013.6 365982.4 20223.2 L 365982.4 11966 L 372274 11966 Q 371980 11055.2 371610.4 10146.8 L 373232.8 9778.4 Q 373553.2 10440.8 374118.4 11966 L 379402 11966 L 379402 13588.4 L 367631.2 13588.4 L 367631.2 20223.2 L 367630 20222 Z M 372962.8 22163.6 L 372962.8 19853.6 L 370381.6 19853.6 L 370381.6 22163.6 L 372962.8 22163.6 Z M 370382.8 18575.6 L 372964 18575.6 L 372964 16313.6 L 370382.8 16313.6 L 370382.8 18575.6 Z M 376822 16313.6 L 374364.4 16313.6 L 374364.4 18575.6 L 376822 18575.6 L 376822 16313.6 Z M 376822 19852.4 L 374364.4 19852.4 L 374364.4 22162.4 L 376822 22162.4 L 376822 19852.4 Z M 379624 30176 L 379624 31773.2 L 367409.2 31773.2 L 367409.2 30176 L 372865.6 30176 L 372865.6 27398 L 368564.8 27398 L 368564.8 25824.8 L 372865.6 25824.8 L 372865.6 23808.8 L 372962.8 23808.8 L 372962.8 23514.8 L 368956 23514.8 L 368956 14937.2 L 378295.6 14937.2 L 378295.6 23514.8 L 374364.4 23514.8 L 374364.4 23808.8 L 374461.6 23808.8 L 374461.6 25824.8 L 378738.4 25824.8 L 378738.4 27398 L 374461.6 27398 L 374461.6 30176 L 379622.8 30176 L 379624 30176 Z " fill-rule="nonzero" style="fill:#ffffff;;fill-opacity:1;"/>
</svg>