<svg version="1.1" x="0" y="0" width="100%" height="100%" viewBox="0 0 243251.2 77004.8" xmlns="http://www.w3.org/2000/svg">
  <path d="M 30766 19067.6 Q 26465.2 16167.2 23296 12530 Q 20321.2 16216.4 15972.4 19067.6 L 30766 19067.6 Z M 24230.8 20714 L 24230.8 24524 L 30841.6 24524 L 30841.6 26145.2 L 24230.8 26145.2 L 24230.8 30152 L 33740.8 30152 L 33740.8 31823.6 L 12974.8 31823.6 L 12974.8 30152 L 22362.4 30152 L 22362.4 26145.2 L 16046.8 26145.2 L 16046.8 24524 L 22362.4 24524 L 22362.4 20714 L 15900.4 20714 L 15900.4 19116.8 Q 14744.8 19902.8 13025.2 20787.2 Q 12631.6 20099.6 11747.2 19288.4 Q 19291.6 15822.8 23125.6 9802.4 L 24748 10540.4 L 24306.4 11204 Q 28337.2 15873.2 34922.8 19338.8 Q 34063.6 20076.8 33646 20886.8 Q 31606 19634 30844 19119.2 L 30844 20716.4 L 24233.2 20716.4 L 24230.8 20714 Z M 48634 17936 L 48634 24006.8 L 53328.4 24006.8 L 53328.4 17936 L 48634 17936 Z M 46840 25702.4 L 46840 17936 L 42366.4 17936 L 42366.4 29118.8 L 58169.2 29118.8 L 58169.2 30912.8 L 40475.2 30912.8 L 40475.2 17937.2 L 36910 17937.2 L 36910 16167.2 L 40475.2 16167.2 L 40475.2 10737.2 L 42366.4 10737.2 L 42366.4 16167.2 L 46840 16167.2 L 46840 10170.8 L 48634 10170.8 L 48634 16167.2 L 53328.4 16167.2 L 53328.4 10466 L 55195.6 10466 L 55195.6 16167.2 L 58858 16167.2 L 58858 17937.2 L 55195.6 17937.2 L 55195.6 25703.6 L 46840 25703.6 L 46840 25702.4 Z M 67853.2 23956.4 L 69696.4 23956.4 L 69696.4 25455.2 Q 69696.4 30519.2 64387.6 32656.4 Q 63970 31942.4 63134.8 31206.8 Q 67853.2 29436.8 67853.2 25380.8 L 67853.2 23955.2 L 67853.2 23956.4 Z M 65886.4 19116.8 L 71513.2 19116.8 L 71513.2 16462.4 L 65886.4 16462.4 L 65886.4 19116.8 Z M 65886.4 15011.6 L 71513.2 15011.6 L 71513.2 12406.4 L 65886.4 12406.4 L 65886.4 15011.6 Z M 78985.6 12406.4 L 73308.4 12406.4 L 73308.4 15011.6 L 78985.6 15011.6 L 78985.6 12406.4 Z M 78985.6 16462.4 L 73308.4 16462.4 L 73308.4 19116.8 L 78985.6 19116.8 L 78985.6 16462.4 Z M 76037.2 20663.6 Q 78936.4 23686.4 83704 24891.2 Q 82966 25529.6 82499.2 26440.4 Q 79918 25629.2 77485.6 23982.8 L 77485.6 32460.8 L 75617.2 32460.8 L 75617.2 23956.4 L 77436.4 23956.4 Q 75199.6 22359.2 73897.6 20663.6 L 71195.2 20663.6 Q 68123.2 24570.8 62568.4 26537.6 Q 61979.2 25605.2 61339.6 25038.8 Q 66034 23686.4 68982.4 20663.6 L 64092.4 20663.6 L 64092.4 10858.4 L 80852.8 10858.4 L 80852.8 20663.6 L 76037.2 20663.6 Z M 101004.4 16289.6 Q 99824.8 14692.4 97097.2 12800 L 98252.8 11744 Q 100956.4 13463.6 102258.4 15110 L 101004.4 16289.6 Z M 100464.4 22778 Q 99040 21034.4 96139.6 19191.2 L 97271.2 18110 Q 100243.6 19928 101669.2 21575.6 L 100464.4 22779.2 L 100464.4 22778 Z M 94099.6 24743.6 Q 93558.4 23711.6 91814.8 21081.2 L 91814.8 32460.8 L 90019.6 32460.8 L 90019.6 21598.4 Q 88276 25826 86456.8 28013.6 Q 86212 27299.6 85548.4 26367.2 Q 88153.6 23418.8 89776 18651.2 L 85892.8 18651.2 L 85892.8 16929.2 L 90020.8 16929.2 L 90020.8 13218.8 Q 88226.8 13563.2 86653.6 13784 Q 86482 13096.4 86112.4 12360.8 Q 91397.2 11524.4 93928 10395.2 L 95033.2 11844.8 Q 93631.6 12410 91813.6 12827.6 L 91813.6 16931.6 L 95426.8 16931.6 L 95426.8 18653.6 L 91813.6 18653.6 L 91813.6 19095.2 Q 92672.8 20054 95203.6 23322.8 L 94098.4 24748.4 L 94099.6 24743.6 Z M 105208 26046.8 L 105208 32460.8 L 103414 32460.8 L 103414 26340.8 L 95401.6 27669.2 L 95107.6 25923.2 L 103415.2 24597.2 L 103415.2 10048.4 L 105209.2 10048.4 L 105209.2 24300.8 L 108084.4 23859.2 L 108354.4 25529.6 L 105209.2 26046.8 L 105208 26046.8 Z M 113095.6 18968 L 111352 18968 L 111352 14126 L 115406.8 14126 Q 114744.4 12725.6 113293.6 11006 L 114818.8 10292 Q 116513.2 12234.8 117152.8 13635.2 L 116218 14126 L 121600 14126 Q 121009.6 12332 119756.8 10464.8 L 121330 9874.4 Q 122852.8 11987.6 123319.6 13610 L 122066.8 14124.8 L 126073.6 14124.8 Q 127571.2 12257.6 128555.2 10217.6 L 130398.4 10857.2 Q 129242.8 12576.8 128014 14123.6 L 132020.8 14123.6 L 132020.8 18965.6 L 130225.6 18965.6 L 130225.6 15772.4 L 113095.6 15772.4 L 113095.6 18965.6 L 113095.6 18968 Z M 132462.4 25554.8 L 122460.4 25554.8 L 122460.4 30249.2 Q 122460.4 31772 121279.6 32140.4 Q 120320.8 32460.8 116758 32460.8 Q 116610.4 31870.4 115996 30690.8 Q 119068 30814.4 120002.8 30714.8 Q 120641.2 30690.8 120641.2 30224 L 120641.2 25554.8 L 110860 25554.8 L 110860 23859.2 L 120641.2 23859.2 L 120641.2 22089.2 Q 122754.4 21327.2 124891.6 19901.6 L 114964 19901.6 L 114964 18279.2 L 126982 18279.2 L 127326.4 18182 L 128531.2 19090.4 Q 126245.2 21179.6 122461.6 22875.2 L 122461.6 23858 L 132463.6 23858 L 132463.6 25553.6 L 132462.4 25554.8 Z M 137795.2 17273.6 L 136025.2 17273.6 L 136025.2 12234.8 L 145241.2 12234.8 Q 144799.6 11226.8 144332.8 10439.6 L 146200 9900.8 Q 146987.2 11104.4 147404.8 12236 L 156473.2 12236 L 156473.2 17274.8 L 154630 17274.8 L 154630 13932.8 L 137795.2 13932.8 L 137795.2 17274.8 L 137795.2 17273.6 Z M 154753.6 20000 Q 153131.2 21352.4 150967.6 22778 Q 152860 28184 157505.2 29979.2 Q 156793.6 30617.6 156326.8 31478 Q 151681.6 29388.8 149542 23686.4 Q 149000.8 24056 148386.4 24376.4 Q 149000.8 26685.2 148656.4 28798.4 Q 148312 30814.4 147280 31600.4 Q 146272 32460.8 144773.2 32460.8 Q 144234.4 32460.8 142661.2 32411.6 Q 142661.2 31552.4 142194.4 30692 Q 143668 30815.6 144406 30815.6 Q 145438 30815.6 145979.2 30298.4 Q 147307.6 29339.6 146938 26070.8 Q 142489.6 29463.2 136418.8 31330.4 Q 136098.4 30544.4 135460 29782.4 Q 142415.2 28184 146592.4 24376.4 Q 146272 23295.2 145927.6 22655.6 Q 142069.6 25310 136810 26932.4 Q 136343.2 26024 135876.4 25506.8 Q 141553.6 24154.4 145192 21426.8 Q 144749.2 20715.2 144011.2 19977.2 Q 141086.8 21623.6 136934.8 22877.6 Q 136590.4 22139.6 135926.8 21425.6 Q 141407.2 20123.6 144700 17862.8 L 139097.2 17862.8 L 139097.2 16265.6 L 153228.4 16265.6 L 153228.4 17862.8 L 147133.6 17862.8 Q 146371.6 18526.4 145387.6 19164.8 Q 147109.6 20884.4 147895.6 22924.4 Q 150967.6 20960 153253.6 18820.4 L 154752.4 20000 L 154753.6 20000 Z M 181958.8 20049.2 L 181958.8 22040 L 159643.6 22040 L 159643.6 20049.2 L 181958.8 20049.2 Z M 196384 19264.4 L 196384 26931.2 Q 200366.8 24546.8 202357.6 20540 L 204077.2 21351.2 Q 199579.6 30198.8 185324.8 32362.4 Q 184980.4 31329.2 184391.2 30666.8 Q 191788 29658.8 196261.6 27004.4 L 194491.6 27004.4 L 194491.6 19263.2 L 184588 19263.2 L 184588 17517.2 L 188274.4 17517.2 L 188274.4 11987.6 L 190092.4 11987.6 L 190092.4 17517.2 L 194663.2 17517.2 L 194663.2 10071.2 L 196555.6 10071.2 L 196555.6 12676.4 L 203731.6 12676.4 L 203731.6 14396 L 196555.6 14396 L 196555.6 17517.2 L 205968.4 17517.2 L 205968.4 19263.2 L 196382.8 19263.2 L 196384 19264.4 Z M 191986 20910.8 Q 189946 24400.4 186677.2 26981.6 Q 185939.2 26046.8 185300.8 25605.2 Q 188446 23417.6 190240 20320.4 L 191986 20910.8 Z M 231110.8 20049.2 L 231110.8 22040 L 208795.6 22040 L 208795.6 20049.2 L 231110.8 20049.2 Z M 24352 55718.8 L 24352 63385.6 Q 28334.8 61001.2 30325.6 56994.4 L 32045.2 57805.6 Q 27547.6 66653.2 13292.8 68816.8 Q 12948.4 67783.6 12359.2 67121.2 Q 19756 66113.2 24229.6 63458.8 L 22459.6 63458.8 L 22459.6 55717.6 L 12556 55717.6 L 12556 53971.6 L 16242.4 53971.6 L 16242.4 48442 L 18060.4 48442 L 18060.4 53971.6 L 22631.2 53971.6 L 22631.2 46525.6 L 24523.6 46525.6 L 24523.6 49130.8 L 31699.6 49130.8 L 31699.6 50850.4 L 24523.6 50850.4 L 24523.6 53971.6 L 33936.4 53971.6 L 33936.4 55717.6 L 24350.8 55717.6 L 24352 55718.8 Z M 19954 57365.2 Q 17914 60854.8 14645.2 63436 Q 13907.2 62501.2 13268.8 62059.6 Q 16414 59872 18208 56774.8 L 19954 57365.2 Z M 44776 57389.2 L 44776 62180.8 L 50944 62180.8 L 50944 57389.2 L 44776 57389.2 Z M 44776 63827.2 L 44776 65573.2 L 43104.4 65573.2 L 43104.4 55742.8 L 52640.8 55742.8 L 52640.8 63827.2 L 44777.2 63827.2 L 44776 63827.2 Z M 57775.6 66506.8 Q 57775.6 68226.4 56646.4 68620 Q 55686.4 68938 52049.2 68938 Q 51852.4 67931.2 51385.6 67070.8 Q 54065.2 67194.4 55367.2 67121.2 Q 55956.4 67096 55956.4 66506.8 L 55956.4 52499.2 L 39884.8 52499.2 L 39884.8 68939.2 L 38090.8 68939.2 L 38090.8 50729.2 L 44800 50729.2 Q 45881.2 48419.2 46372 46452.4 L 48608.8 46846 Q 47724.4 49007.2 46816 50729.2 L 57775.6 50729.2 L 57775.6 66506.8 Z M 78494.8 48394 L 66328 48394 L 66328 49722.4 L 78494.8 49722.4 L 78494.8 48394 Z M 78494.8 50777.2 L 66328 50777.2 L 66328 52129.6 L 78494.8 52129.6 L 78494.8 50777.2 Z M 80287.6 53234.8 L 64583.2 53234.8 L 64583.2 47287.6 L 80287.6 47287.6 L 80287.6 53234.8 Z M 83410 55644.4 L 61536.4 55644.4 L 61536.4 54242.8 L 83410 54242.8 L 83410 55644.4 Z M 71539.6 61739.2 L 71539.6 60337.6 L 65837.2 60337.6 L 65837.2 61739.2 L 71539.6 61739.2 Z M 65837.2 59257.6 L 71539.6 59257.6 L 71539.6 57880 L 65837.2 57880 L 65837.2 59257.6 Z M 79230.4 57880 L 73283.2 57880 L 73283.2 59257.6 L 79230.4 59257.6 L 79230.4 57880 Z M 79230.4 60337.6 L 73283.2 60337.6 L 73283.2 61739.2 L 79230.4 61739.2 L 79230.4 60337.6 Z M 83531.2 66924.4 L 83531.2 68350 L 61388.8 68350 L 61388.8 66924.4 L 71539.6 66924.4 L 71539.6 65498.8 L 63428.8 65498.8 L 63428.8 64220.8 L 71539.6 64220.8 L 71539.6 62868.4 L 64141.6 62868.4 L 64141.6 56749.6 L 81026.8 56749.6 L 81026.8 62868.4 L 73284.4 62868.4 L 73284.4 64220.8 L 81541.6 64220.8 L 81541.6 65498.8 L 73284.4 65498.8 L 73284.4 66924.4 L 83532.4 66924.4 L 83531.2 66924.4 Z M 108083.2 59208.4 L 98056 59208.4 L 98056 66532 Q 98056 68227.6 96803.2 68596 Q 95819.2 68940.4 91985.2 68940.4 Q 91764.4 68008 91199.2 67073.2 Q 93877.6 67170.4 95524 67097.2 Q 96187.6 67073.2 96187.6 66508 L 96187.6 59208.4 L 86060.8 59208.4 L 86060.8 57389.2 L 96187.6 57389.2 L 96187.6 53850.4 Q 99456.4 52351.6 102331.6 49967.2 L 88494.4 49967.2 L 88494.4 48173.2 L 104321.2 48173.2 L 104714.8 48076 L 106091.2 49108 Q 102773.2 52376.8 98054.8 54785.2 L 98054.8 57390.4 L 108082 57390.4 L 108082 59209.6 L 108083.2 59208.4 Z M 127793.2 48616 L 115432 48616 L 115432 50286.4 L 127793.2 50286.4 L 127793.2 48616 Z M 127793.2 51515.2 L 115432 51515.2 L 115432 53261.2 L 127793.2 53261.2 L 127793.2 51515.2 Z M 129587.2 54563.2 L 113686 54563.2 L 113686 47314 L 129587.2 47314 L 129587.2 54563.2 Z M 114620.8 65573.2 Q 116857.6 65327.2 119069.2 65057.2 L 119069.2 63534.4 L 114620.8 63534.4 L 114620.8 65574.4 L 114620.8 65573.2 Z M 114620.8 57438.4 L 114620.8 59084.8 L 119069.2 59084.8 L 119069.2 57438.4 L 114620.8 57438.4 Z M 114620.8 62180.8 L 119069.2 62180.8 L 119069.2 60461.2 L 114620.8 60461.2 L 114620.8 62180.8 Z M 120812.8 66360.4 L 120812.8 68965.6 L 119069.2 68965.6 L 119069.2 66581.2 L 110737.6 67589.2 L 110540.8 65966.8 L 112949.2 65720.8 L 112949.2 57439.6 L 110615.2 57439.6 L 110615.2 55916.8 L 132536.8 55916.8 L 132536.8 57439.6 L 120814 57439.6 L 120814 64861.6 L 122142.4 64712.8 L 122142.4 66187.6 L 120814 66360.4 L 120812.8 66360.4 Z M 124351.6 60461.2 Q 125335.6 62648.8 127006 64247.2 Q 128800 62477.2 129734.8 60461.2 L 124352.8 60461.2 L 124351.6 60461.2 Z M 131848 59354.8 Q 130766.8 62795.2 128236 65278 Q 130276 66751.6 132906.4 67439.2 Q 132292 68029.6 131825.2 68890 Q 129047.2 68029.6 126958 66359.2 Q 124919.2 67956.4 122312.8 68891.2 Q 122018.8 68177.2 121380.4 67538.8 Q 123788.8 66751.6 125779.6 65278 Q 123912.4 63361.6 122756.8 60607.6 L 123247.6 60460 L 121774 60460 L 121774 58961.2 L 130472.8 58961.2 L 130817.2 58912 L 131849.2 59354.8 L 131848 59354.8 Z M 143621.2 52253.2 L 141973.6 52253.2 L 141973.6 47852.8 L 156401.2 47852.8 L 156401.2 52178.8 L 154705.6 52178.8 L 154705.6 49451.2 L 143622.4 49451.2 L 143622.4 52253.2 L 143621.2 52253.2 Z M 151435.6 50900.8 Q 154655.2 53652.4 156130 55865.2 L 154753.6 56873.2 Q 153180.4 54463.6 150132.4 51785.2 L 151434.4 50900.8 L 151435.6 50900.8 Z M 148019.2 51588.4 Q 146200 54733.6 143030.8 56970.4 Q 142588 56380 141703.6 55717.6 Q 144775.6 53849.2 146350 51073.6 L 148020.4 51588.4 L 148019.2 51588.4 Z M 140056 50729.2 Q 138434.8 49376.8 136025.2 48172 L 136960 46795.6 Q 139466.8 47951.2 141013.6 49180 L 140054.8 50729.2 L 140056 50729.2 Z M 139220.8 57389.2 Q 137795.2 56185.6 134896 54760 L 135828.4 53431.6 Q 138630.4 54660.4 140179.6 55865.2 L 139220.8 57388 L 139220.8 57389.2 Z M 140622.4 60707.2 Q 138655.6 65155.6 136787.2 68521.6 L 135437.2 67244.8 Q 137452 63926.8 139442.8 59453.2 L 140623.6 60707.2 L 140622.4 60707.2 Z M 151140.4 59945.2 Q 153450.4 64172.8 157184.8 66113.2 Q 156300.4 66948.4 155908 67562.8 Q 152393.2 65326 149984.8 61001.2 L 149984.8 68840.8 L 148165.6 68840.8 L 148165.6 61074.4 Q 145684 65522.8 141701.2 67612 Q 141259.6 66824.8 140497.6 66210.4 Q 144650.8 64294 147059.2 59945.2 L 141823.6 59945.2 L 141823.6 58297.6 L 148164.4 58297.6 L 148164.4 55619.2 L 149983.6 55619.2 L 149983.6 58297.6 L 156445.6 58297.6 L 156445.6 59945.2 L 151138 59945.2 L 151140.4 59945.2 Z M 175494.4 64517.2 L 173578 64517.2 L 173578 46550.8 L 175494.4 46550.8 L 175494.4 52891.6 L 176108.8 52573.6 Q 179747.2 56381.2 181393.6 59060.8 L 179795.2 60043.6 Q 178445.2 57733.6 175494.4 54343.6 L 175494.4 64518.4 L 175494.4 64517.2 Z M 164705.2 52080.4 Q 164360.8 53285.2 164042.8 54145.6 Q 164902 57979.6 166475.2 60634 Q 168270.4 57119.2 168958 52080.4 L 164705.2 52080.4 Z M 170998 50680 Q 170210.8 57708.4 167656 62303.2 Q 170972.8 66334 177854.8 66334 Q 181123.6 66334 182082.4 66310 Q 181541.2 67169.2 181344.4 68202.4 L 177757.6 68202.4 Q 170261.2 68202.4 166672 63901.6 Q 164362 67169.2 160897.6 68964.4 Q 160086.4 67980.4 159422.8 67562.8 Q 163206.4 65719.6 165492.4 62279.2 Q 163993.6 59870.8 163085.2 56552.8 Q 162274 58272.4 161315.2 59574.4 Q 160504 58886.8 159840.4 58566.4 Q 162839.2 54635.2 163944.4 46598.8 L 165836.8 47089.6 Q 165616 48515.2 165149.2 50383.6 L 169450 50383.6 L 169794.4 50308 L 170999.2 50677.6 L 170998 50680 Z M 193608.4 52277.2 L 192059.2 52277.2 L 192059.2 47852.8 L 205723.6 47852.8 L 205723.6 52178.8 L 204102.4 52178.8 L 204102.4 49451.2 L 193608.4 49451.2 L 193608.4 52277.2 Z M 200954.8 50900.8 Q 204126.4 53628.4 205625.2 55816 L 204248.8 56824 Q 202750 54587.2 199652.8 51809.2 L 200954.8 50900.8 Z M 197958.4 51588.4 Q 196090 54784 193067.2 56971.6 Q 192428.8 56209.6 191738.8 55718.8 Q 194713.6 53850.4 196310.8 51024.4 L 197958.4 51589.6 L 197958.4 51588.4 Z M 191494 58618 L 190216 59108.8 Q 189380.8 59405.2 188938 59602 L 188938 66778 Q 188938 68104 188128 68473.6 Q 187438 68818 185202.4 68818 Q 185054.8 67957.6 184661.2 67195.6 Q 186356.8 67244.8 186822.4 67195.6 Q 187241.2 67195.6 187241.2 66802 L 187241.2 60240.4 L 184634.8 61223.2 L 184120 59453.2 Q 184831.6 59257.6 187241.2 58397.2 L 187241.2 53137.6 L 184340.8 53137.6 L 184340.8 51442 L 187241.2 51442 L 187241.2 46526.8 L 188935.6 46526.8 L 188935.6 51442 L 191296 51442 L 191296 53137.6 L 188935.6 53137.6 L 188935.6 57782.8 L 191148.4 56947.6 L 191492.8 58618 L 191494 58618 Z M 200808.4 60092.8 Q 203142.4 64147.6 206707.6 65990.8 Q 205969.6 66630.4 205478.8 67416.4 Q 202086.4 65303.2 199702 61051.6 L 199702 68768.8 L 197958.4 68768.8 L 197958.4 61150 Q 195548.8 65450.8 191665.6 67490.8 Q 191224 66679.6 190510 66065.2 Q 194540.8 64295.2 196877.2 60094 L 191814.4 60094 L 191814.4 58422.4 L 197958.4 58422.4 L 197958.4 55768 L 199702 55768 L 199702 58422.4 L 206018.8 58422.4 L 206018.8 60094 L 200807.2 60094 L 200808.4 60092.8 Z M 216463.6 64320.4 Q 213882.4 66826 210613.6 68473.6 Q 210048.4 67859.2 209212 67268.8 Q 212653.6 65770 214766.8 63680.8 L 216462.4 64320.4 L 216463.6 64320.4 Z M 221156.8 62402.8 L 221156.8 66824.8 Q 221156.8 68177.2 220150 68546.8 Q 219289.6 68840.8 216365.2 68840.8 Q 216241.6 68102.8 215700.4 67144 Q 218084.8 67217.2 218872 67168 Q 219386.8 67144 219386.8 66775.6 L 219386.8 62498.8 Q 211523.2 63016 210688 63260.8 Q 210442 62228.8 210197.2 61687.6 Q 211352.8 61540 213514 60655.6 Q 215136.4 60090.4 218036.8 58664.8 Q 213022 58985.2 212456.8 59206 Q 212260 58345.6 211966 57634 Q 212653.6 57534.4 213734.8 56969.2 Q 216143.2 55813.6 218330.8 54118 L 211055.2 54118 L 211055.2 57116.8 L 209335.6 57116.8 L 209335.6 52546 L 218969.2 52546 L 218969.2 50261.2 L 209581.6 50261.2 L 209581.6 48662.8 L 218969.2 48662.8 L 218969.2 46501.6 L 220837.6 46501.6 L 220837.6 48662.8 L 230225.2 48662.8 L 230225.2 50261.2 L 220837.6 50261.2 L 220837.6 52546 L 230544.4 52546 L 230544.4 57116.8 L 228750.4 57116.8 L 228750.4 54118 L 219410.8 54118 L 220148.8 54684.4 Q 217838.8 56354.8 215233.6 57607.6 L 220714 57289.6 Q 222433.6 56405.2 224153.2 55300 L 225431.2 56405.2 Q 220442.8 59404 215233.6 61344.4 L 225923.2 60779.2 Q 224719.6 59623.6 223932.4 58985.2 L 225234.4 58174 Q 228552.4 60876.4 230173.6 62965.6 L 228797.2 63924.4 Q 228208 63137.2 227176 62008 L 221153.2 62401.6 L 221156.8 62402.8 Z M 224525.2 63558.4 Q 228332.8 65522.8 230569.6 67366 L 229120 68398 Q 227056 66580 223148.8 64466.8 L 224525.2 63558.4 Z " fill-rule="nonzero" style="fill:#ffffff;;fill-opacity:1;"/>
</svg>