<svg version="1.1" x="0" y="0" width="100%" height="100%" viewBox="0 0 98918.4 79974.4" xmlns="http://www.w3.org/2000/svg">
  <path d="M 26776.9 57342.4 Q 23604.4 52222.4 23604.4 42649.9 Q 23604.4 33077.4 26776.9 28059.9 Q 29796.9 23297.4 35326.9 23297.4 Q 40806.9 23297.4 43826.9 28109.9 Q 46999.4 33127.4 46999.4 42649.9 Q 46999.4 52222.4 43826.9 57342.4 Q 40806.9 62209.9 35326.9 62209.9 Q 29849.4 62209.9 26776.9 57342.4  Z M 42444.4 42649.9 Q 42444.4 27087.4 35326.9 27087.4 Q 28159.4 27087.4 28159.4 42649.9 Q 28159.4 58469.9 35326.9 58469.9 Q 42444.4 58469.9 42444.4 42649.9  Z M 50941.7 57089.9 L 53299.2 54017.4 Q 57396.7 58317.4 62619.2 58317.4 Q 65996.7 58317.4 68096.7 56424.9 Q 70246.7 54532.4 70246.7 51354.9 Q 70246.7 43827.4 58574.2 43827.4 L 58574.2 40244.9 Q 68966.7 40244.9 68966.7 33077.4 Q 68966.7 30364.9 67276.7 28724.9 Q 65536.7 27137.4 62619.2 27034.9 Q 58419.2 27187.4 54836.7 30774.9 L 52326.7 27804.9 Q 57189.2 23297.4 62821.7 23297.4 Q 67684.2 23297.4 70654.2 25754.9 Q 73726.7 28314.9 73726.7 32717.4 Q 73726.7 39269.9 67016.7 41779.9 L 67016.7 41982.4 Q 70499.2 42802.4 72699.2 45209.9 Q 75006.7 47822.4 75006.7 51504.9 Q 75006.7 56422.4 71474.2 59392.4 Q 68144.2 62209.9 62974.2 62209.9 Q 55654.2 62209.9 50941.7 57089.9  Z " fill-rule="nonzero" style="fill:#c35954;;fill-opacity:1;"/>
</svg>