<svg version="1.1" x="0" y="0" width="100%" height="100%" viewBox="0 0 141312 26828.8" xmlns="http://www.w3.org/2000/svg">
  <path d="M 4291.25 12124.85 L 3261.5 12124.85 L 3261.5 9160.1 L 9098.75 9160.1 L 9098.75 8284.85 L 4061 8284.85 L 4061 7439.6 L 15335 7439.6 L 15335 8284.85 L 10220.75 8284.85 L 10220.75 9160.1 L 16164.5 9160.1 L 16164.5 12139.85 L 15089.75 12139.85 L 15089.75 9943.1 L 10220.75 9943.1 L 10220.75 13092.35 L 9098.75 13092.35 L 9098.75 9943.1 L 4292 9943.1 L 4292 12124.85 L 4291.25 12124.85 Z M 14381.75 11386.85 L 11018 11386.85 L 11018 10711.1 L 14381.75 10711.1 L 14381.75 11386.85 Z M 11018 12170.6 L 14381.75 12170.6 L 14381.75 12861.35 L 11018 12861.35 L 11018 12170.6 Z M 8269.25 11386.85 L 5012 11386.85 L 5012 10711.1 L 8269.25 10711.1 L 8269.25 11386.85 Z M 5012 12170.6 L 8269.25 12170.6 L 8269.25 12845.6 L 5012 12845.6 L 5012 12170.6 Z M 6241.25 19619.6 L 9836 19619.6 L 9836 18713.6 L 6241.25 18713.6 L 6241.25 19619.6 Z M 9836 15411.35 L 6241.25 15411.35 L 6241.25 16240.1 L 9836 16240.1 L 9836 15411.35 Z M 9836 17039.6 L 6241.25 17039.6 L 6241.25 17914.85 L 9836 17914.85 L 9836 17039.6 Z M 16316.75 20495.6 L 6240.5 20495.6 L 6240.5 21002.6 L 5119.25 21002.6 L 5119.25 16424.6 Q 4382 17208.35 3691.25 17745.35 Q 3353 17346.35 2891.75 16947.35 Q 5042 15426.35 6239.75 13153.1 L 7268.75 13459.85 Q 7053.5 13874.6 6593.75 14565.35 L 9926.75 14565.35 Q 9741.5 14058.35 9434.75 13520.6 L 10433.75 13198.85 Q 10940 13843.85 11108.75 14549.6 L 11063 14565.35 L 15824.75 14565.35 L 15824.75 15410.6 L 10940 15410.6 L 10940 16239.35 L 14918.75 16239.35 L 14918.75 17038.1 L 10940 17038.1 L 10940 17913.35 L 14995.25 17913.35 L 14995.25 18712.1 L 10940 18712.1 L 10940 19618.1 L 16316 19618.1 L 16316 20494.1 L 16316.75 20495.6 Z M 28835.75 11586.35 Q 26609 10280.6 25103 8698.85 Q 23582.75 10357.85 21509 11587.1 L 28835.75 11587.1 L 28835.75 11586.35 Z M 25640.75 12646.85 L 25640.75 14735.6 L 31001.75 14735.6 L 31001.75 15779.6 L 25640.75 15779.6 L 25640.75 19527.35 L 31692.5 19527.35 L 31692.5 20587.1 L 18498.5 20587.1 L 18498.5 19527.35 L 24457.25 19527.35 L 24457.25 15779.6 L 19189.25 15779.6 L 19189.25 14735.6 L 24457.25 14735.6 L 24457.25 12646.85 L 21139.25 12646.85 L 21139.25 11801.6 Q 19926.5 12461.6 18697.25 12922.85 Q 18344 12247.1 17929.25 11878.85 Q 22906.25 10250.6 25072.25 6870.35 L 26116.25 7362.35 Q 25947.5 7638.35 25732.25 7915.1 Q 28236.5 10603.1 32291.75 11878.1 Q 31830.5 12262.1 31492.25 12876.35 Q 30248 12400.1 29018.75 11692.85 L 29018.75 12646.1 L 25640 12646.1 L 25640.75 12646.85 Z M 27038.75 18943.85 Q 28005.5 17593.1 28635.5 16117.85 L 29710.25 16532.6 Q 28773.5 18160.85 27898.25 19312.85 L 27038 18943.85 L 27038.75 18943.85 Z M 21416.75 16117.85 Q 22491.5 17653.85 22891.25 18868.1 L 21892.25 19282.1 Q 21508.25 18022.85 20479.25 16501.85 L 21416 16117.85 L 21416.75 16117.85 Z M 38471.65 11985.35 L 37350.4 11985.35 L 37350.4 8652.35 L 43371.4 8652.35 Q 42987.4 7792.1 42757.15 7393.1 L 43863.4 7054.85 Q 44308.15 7714.85 44692.15 8651.6 L 50374.9 8651.6 L 50374.9 11984.6 L 49222.9 11984.6 L 49222.9 9711.35 L 38470.9 9711.35 L 38470.9 11984.6 L 38471.65 11985.35 Z M 50452.15 16071.35 L 44538.4 16071.35 L 44538.4 19527.35 Q 44538.4 20510.6 43786.15 20756.6 Q 43186.9 20971.85 40943.65 20971.85 Q 40836.4 20510.6 40467.4 19834.85 Q 41020.15 19850.6 42955.15 19850.6 Q 43354.9 19834.85 43354.9 19513.1 L 43354.9 16072.1 L 37333.9 16072.1 L 37333.9 14982.35 L 43354.9 14982.35 L 43354.9 12570.35 L 39422.65 12570.35 L 39422.65 11495.6 L 48269.65 11495.6 L 48269.65 12570.35 L 44536.9 12570.35 L 44536.9 14982.35 L 50450.65 14982.35 L 50450.65 16072.1 L 50452.15 16071.35 Z M 59776.15 13813.85 L 59776.15 15949.1 L 63307.9 15949.1 L 63307.9 13813.85 L 59776.15 13813.85 Z M 63308.65 19235.6 L 63308.65 16947.35 L 59776.9 16947.35 L 59776.9 19235.6 L 63308.65 19235.6 Z M 55244.65 19235.6 L 58654.9 19235.6 L 58654.9 16947.35 L 55244.65 16947.35 L 55244.65 19235.6 Z M 55244.65 13813.85 L 55244.65 15949.1 L 58654.9 15949.1 L 58654.9 13813.85 L 55244.65 13813.85 Z M 59776.15 12753.35 L 64444.9 12753.35 L 64444.9 21017.6 L 63307.9 21017.6 L 63307.9 20295.35 L 55243.9 20295.35 L 55243.9 21017.6 L 54122.65 21017.6 L 54122.65 12753.35 L 58653.4 12753.35 L 58653.4 10449.35 L 59775.4 10449.35 L 59775.4 12753.35 L 59776.15 12753.35 Z M 65551.15 8775.35 L 65551.15 11970.35 L 64399.15 11970.35 L 64399.15 9835.1 L 54046.15 9835.1 L 54046.15 11970.35 L 52924.9 11970.35 L 52924.9 8775.35 L 58838.65 8775.35 Q 58484.65 7900.1 58100.65 7270.1 L 59268.4 6916.85 Q 59882.65 7930.1 60220.9 8775.35 L 65551.15 8775.35 Z M 72570.4 10495.85 L 69345.4 10495.85 L 69345.4 13706.6 L 72570.4 13706.6 L 72570.4 10495.85 Z M 72570.4 18406.85 L 72570.4 14719.85 L 69345.4 14719.85 L 69345.4 18406.85 L 72570.4 18406.85 Z M 71864.65 7208.6 Q 71188.9 9144.35 71065.9 9466.1 L 73615.9 9466.1 L 73615.9 19435.1 L 69346.15 19435.1 L 69346.15 20647.85 L 68301.4 20647.85 L 68301.4 9466.1 L 70022.65 9466.1 Q 70483.9 7975.85 70636.9 6977.6 L 71866.15 7207.85 L 71864.65 7208.6 Z M 81126.4 10004.6 Q 80803.15 19220.6 80065.9 20126.6 Q 79636.15 20664.35 78853.15 20741.6 Q 78223.15 20817.35 76579.15 20725.1 Q 76518.4 20095.1 76195.15 19603.85 Q 77194.15 19696.1 78469.15 19696.1 Q 78913.9 19696.1 79097.65 19465.85 Q 79758.4 18758.6 80034.4 10479.35 L 76133.65 10479.35 Q 75426.4 12184.1 74689.15 13167.35 Q 74488.9 12983.6 73751.65 12522.35 Q 75256.9 10540.1 76102.15 6946.1 L 77193.4 7207.1 Q 76901.65 8404.85 76532.65 9418.85 L 81125.65 9418.85 L 81125.65 10003.1 L 81126.4 10004.6 Z M 77731.15 16931.6 Q 77025.4 15503.6 75397.15 13383.35 L 76288.15 12861.35 Q 77977.15 15011.6 78699.4 16332.35 L 77731.15 16931.6 Z M 92216.65 13460.6 L 92216.65 9113.6 L 87946.9 9113.6 L 87946.9 13460.6 L 92216.65 13460.6 Z M 96793.15 14566.85 L 93382.9 14566.85 L 93382.9 21064.1 L 92215.9 21064.1 L 92215.9 14566.85 L 87899.65 14566.85 Q 87499.9 18959.6 84089.65 21109.85 Q 83644.9 20572.85 83183.65 20264.6 Q 86347.9 18329.6 86731.9 14566.85 L 83137.9 14566.85 L 83137.9 13460.6 L 86777.65 13460.6 Q 86793.4 13229.6 86793.4 12799.85 L 86793.4 9113.6 L 83705.65 9113.6 L 83705.65 8022.35 L 96316.9 8022.35 L 96316.9 9113.6 L 93382.9 9113.6 L 93382.9 13460.6 L 96793.15 13460.6 L 96793.15 14566.85 Z M 100771.15 11217.35 Q 100387.15 13061.6 99880.9 14965.85 Q 100771.15 15595.85 101463.4 16163.6 Q 102231.4 14120.6 102507.4 11217.35 L 100771.15 11217.35 Z M 103613.65 10234.85 Q 103337.65 14413.1 102307.9 16902.35 Q 103352.65 17808.35 103951.9 18591.35 L 103244.65 19513.1 Q 102768.4 18837.35 101831.65 17931.35 Q 100771.9 19927.1 98990.65 21018.35 Q 98667.4 20465.6 98314.15 20112.35 Q 99988.15 19190.6 101002.15 17178.35 Q 99850.15 16195.1 98682.4 15381.35 Q 99174.4 13891.1 99742.15 11218.1 L 98344.9 11218.1 L 98344.9 10158.35 L 99941.65 10158.35 Q 100264.9 8254.1 100402.9 7086.35 L 101477.65 7148.6 Q 101277.4 8653.85 100970.65 10159.1 L 102767.65 10159.1 L 102952.9 10129.1 L 103612.9 10236.35 L 103613.65 10234.85 Z M 105810.4 15871.85 L 105810.4 19358.6 L 110387.65 19358.6 L 110387.65 15871.85 L 105810.4 15871.85 Z M 104750.65 14842.85 L 111493.9 14842.85 L 111493.9 21017.6 L 110387.65 21017.6 L 110387.65 20372.6 L 105810.4 20372.6 L 105810.4 21048.35 L 104750.65 21048.35 L 104750.65 14842.1 L 104750.65 14842.85 Z M 109880.65 9236.6 Q 111677.65 11540.6 112476.4 13521.35 L 111493.15 14013.35 Q 111262.15 13445.6 111001.15 12938.6 Q 104704.15 13414.85 104227.15 13613.6 Q 104134.9 13091.6 103843.15 12523.85 Q 104212.15 12446.6 104842.15 11540.6 Q 106194.4 9712.85 107269.15 6994.1 L 108436.15 7348.1 Q 107115.4 10189.1 105610.15 12262.85 L 110479.15 11956.1 Q 109879.9 10879.85 108988.9 9667.1 L 109879.9 9237.35 L 109880.65 9236.6 Z " fill-rule="nonzero" style="fill:#ffffff;;fill-opacity:1;"/>
</svg>