<svg version="1.1" x="0" y="0" width="100%" height="100%" viewBox="0 0 392294.4 77004.8" xmlns="http://www.w3.org/2000/svg">
  <path d="M 15318.8 10145.6 Q 15245.6 12431.6 15148.4 13708.4 Q 16794.8 26832.8 25666.4 30764 Q 24782 31502 24340.4 32313.2 Q 16991.6 28871.6 14386.4 18796.4 Q 12173.6 28406 4653.2 32410.4 Q 4186.4 31672.4 3179.6 30984.8 Q 9716 27692 12052.4 20025.2 Q 13181.6 16265.6 13305.2 10145.6 L 15320 10145.6 L 15318.8 10145.6 Z M 33899.6 10662.8 Q 33209.6 13120.4 32030 15896 L 32030 32484.8 L 30260 32484.8 L 30260 19461.2 Q 29448.8 20885.6 28564.4 22041.2 Q 28196 21009.2 27581.6 20198 Q 30432.8 16536.8 32226.8 10196 L 33898.4 10662.8 L 33899.6 10662.8 Z M 34979.6 14987.6 L 36749.6 14987.6 L 36749.6 32511.2 L 34979.6 32511.2 L 34979.6 14987.6 Z M 37413.2 10072.4 Q 39477.2 12874.4 40337.6 14766.8 L 38838.8 15626 Q 37930.4 13464.8 35987.6 10834.4 L 37413.2 10072.4 Z M 49184 30176 Q 49184 31698.8 48201.2 32116.4 Q 47415.2 32436.8 44294 32436.8 Q 44170.4 31600.4 43703.6 30692 Q 45620 30791.6 46848.8 30716 Q 47390 30692 47390 30150.8 L 47390 12627.2 L 40755.2 12627.2 L 40755.2 10956.8 L 49184 10956.8 L 49184 30176 Z M 66191.6 13611.2 Q 65601.2 14619.2 64445.6 16313.6 L 64445.6 32436.8 L 62505.2 32436.8 L 62505.2 18771.2 Q 58474.4 23368.4 53607.2 25923.2 Q 53262.8 25334 52378.4 24326 Q 59824.4 20590.4 63855.2 13611.2 L 52992.8 13611.2 L 52992.8 11792 L 73982 11792 L 73982 13611.2 L 66191.6 13611.2 Z M 66290 17715.2 Q 72016.4 21425.6 74670.8 24179.6 L 73221.2 25580 Q 70270.4 22410.8 64937.6 18896 L 66290 17716.4 L 66290 17715.2 Z M 88875.2 24203.6 L 87129.2 24203.6 L 87129.2 11252 L 97870.4 11252 L 97870.4 24203.6 L 96075.2 24203.6 L 96075.2 12874.4 L 88875.2 12874.4 L 88875.2 24203.6 Z M 84180.8 29020.4 Q 83690 27521.6 82461.2 25161.2 Q 80618 29093.6 78087.2 31478 Q 77447.6 30641.6 76736 30100.4 Q 79439.6 27692 81356 23146.4 Q 79389.2 19754 77252 16926.8 L 78652.4 16018.4 Q 80568.8 18525.2 82167.2 21056 Q 83396 17466.8 83910.8 13707.2 L 77152.4 13707.2 L 77152.4 11963.6 L 84353.6 11963.6 L 84698 11890.4 L 85853.6 12234.8 Q 85166 18279.2 83370.8 23022.8 Q 85066.4 25971.2 85754 27887.6 L 84180.8 29019.2 L 84180.8 29020.4 Z M 96935.6 30641.6 Q 97526 30641.6 97721.6 29879.6 Q 97894.4 29141.6 97967.6 26512.4 Q 98558 26954 99466.4 27200 Q 99294.8 30222.8 98901.2 31058 Q 98410.4 32042 96911.6 32042 L 94846.4 32042 Q 93593.6 32042 93102.8 31599.2 Q 92561.6 31157.6 92561.6 29978 L 92561.6 24399.2 Q 91062.8 29682.8 85680.8 32484.8 Q 85214 31600.4 84551.6 31158.8 Q 88679.6 29069.6 90302 25653.2 Q 91457.6 23220.8 91457.6 19631.6 L 91457.6 14937.2 L 93177.2 14937.2 L 93177.2 19655.6 Q 93177.2 21917.6 92710.4 23882 L 94259.6 23882 L 94259.6 29805.2 Q 94259.6 30640.4 95118.8 30640.4 L 96938 30640.4 L 96935.6 30641.6 Z M 113427.2 27618.8 Q 115835.6 29928.8 116818.4 31502 L 115662.8 32313.2 Q 114386 30370.4 112296.8 28306.4 L 113428.4 27618.8 L 113427.2 27618.8 Z M 116277.2 11498 L 116277.2 26710.4 L 114778.4 26710.4 L 114778.4 12897.2 L 109518.8 12897.2 L 109518.8 26783.6 L 108069.2 26783.6 L 108069.2 11496.8 L 116277.2 11496.8 L 116277.2 11498 Z M 123084.8 10366.4 L 123084.8 30371.6 Q 123084.8 31724 122249.6 32117.6 Q 121462.4 32462 118857.2 32412.8 Q 118733.6 31725.2 118316 30890 Q 120503.6 30939.2 121094 30890 Q 121584.8 30890 121584.8 30399.2 L 121584.8 10368.8 L 123083.6 10368.8 L 123084.8 10366.4 Z M 119692.4 12258.8 L 119692.4 26856.8 L 118242.8 26856.8 L 118242.8 12258.8 L 119692.4 12258.8 Z M 112713.2 14643.2 L 112713.2 23268.8 Q 112713.2 29906 107626.4 32460.8 Q 107356.4 31870.4 106766 31329.2 Q 109544 29904.8 110576 27618.8 Q 111314 25972.4 111314 23268.8 L 111314 14643.2 L 112714.4 14643.2 L 112713.2 14643.2 Z M 103521.2 10318.4 Q 106248.8 11768 107477.6 12873.2 L 106372.4 14322.8 Q 105020 13046 102441.2 11620.4 L 103521.2 10318.4 Z M 102416 16928 Q 104973.2 18182 106446.8 19337.6 L 105390.8 20787.2 Q 104309.6 19878.8 101385.2 18207.2 L 102417.2 16929.2 L 102416 16928 Z M 101874.8 31232 Q 103767.2 27472.4 105168.8 23417.6 L 106642.4 24376.4 Q 105192.8 28577.6 103521.2 32190.8 L 101874.8 31232 Z M 128246 31943.6 Q 131169.2 30740 131342 28331.6 Q 131194.4 28355.6 130924.4 28355.6 Q 130137.2 28355.6 129622.4 27912.8 Q 129081.2 27447.2 129081.2 26610.8 Q 129081.2 25775.6 129646.4 25284.8 Q 130163.6 24842 130949.6 24842 Q 133038.8 24842 133038.8 27669.2 Q 133038.8 31749.2 128787.2 33248 L 128246 31943.6 Z M 160612.4 24105.2 L 160612.4 20590.4 L 154565.6 20590.4 L 154565.6 24105.2 L 160612.4 24105.2 Z M 154566.8 15381.2 L 154566.8 18894.8 L 160613.6 18894.8 L 160613.6 15381.2 L 154566.8 15381.2 Z M 162530 15381.2 L 162530 18894.8 L 168845.6 18894.8 L 168845.6 15381.2 L 162530 15381.2 Z M 168844.4 24105.2 L 168844.4 20590.4 L 162528.8 20590.4 L 162528.8 24105.2 L 168844.4 24105.2 Z M 169434.8 30249.2 Q 170442.8 30249.2 170787.2 29462 Q 171105.2 28724 171254 26266.4 Q 171916.4 26783.6 173048 27077.6 Q 172802 29952.8 172163.6 30960.8 Q 171425.6 32066 169558.4 32066 L 164152.4 32066 Q 162087.2 32066 161351.6 31354.4 Q 160613.6 30616.4 160613.6 28479.2 L 160613.6 25898 L 154566.8 25898 L 154566.8 27396.8 L 152699.6 27396.8 L 152699.6 13610 L 160613.6 13610 L 160613.6 10095.2 L 162530 10095.2 L 162530 13610 L 170664.8 13610 L 170664.8 25898 L 162530 25898 L 162530 28527.2 Q 162530 29608.4 162848 29928.8 Q 163168.4 30249.2 164273.6 30249.2 L 169434.8 30249.2 Z M 197427.2 22754 L 187400 22754 L 187400 30077.6 Q 187400 31773.2 186147.2 32141.6 Q 185163.2 32486 181329.2 32486 Q 181108.4 31553.6 180543.2 30618.8 Q 183221.6 30716 184868 30642.8 Q 185531.6 30618.8 185531.6 30053.6 L 185531.6 22754 L 175404.8 22754 L 175404.8 20934.8 L 185531.6 20934.8 L 185531.6 17396 Q 188800.4 15897.2 191675.6 13512.8 L 177838.4 13512.8 L 177838.4 11718.8 L 193665.2 11718.8 L 194058.8 11621.6 L 195435.2 12653.6 Q 192117.2 15922.4 187398.8 18330.8 L 187398.8 20936 L 197426 20936 L 197426 22755.2 L 197427.2 22754 Z M 219939.2 15578 Q 219201.2 13856 217481.6 11915.6 L 218710.4 11228 Q 220480.4 13095.2 221242.4 14766.8 L 219940.4 15578 L 219939.2 15578 Z M 211214 14716.4 L 200057.6 14716.4 L 200057.6 13094 L 205290.8 13094 Q 205094 12455.6 204185.6 10415.6 L 205856 10047.2 Q 206740.4 11717.6 207159.2 13094 L 211214 13094 L 211214 14716.4 Z M 203744 24203.6 Q 202907.6 27840.8 201286.4 30150.8 Q 200696 29709.2 199958 29266.4 Q 201480.8 27251.6 202218.8 23883.2 L 203744 24203.6 Z M 202980.8 21107.6 L 208510.4 21107.6 L 208510.4 18156.8 L 202980.8 18156.8 L 202980.8 21107.6 Z M 206716.4 22581.2 L 206716.4 30544.4 Q 206716.4 31724 205978.4 32068.4 Q 205290.8 32388.8 203324 32339.6 Q 203250.8 31676 202809.2 30840.8 Q 204308 30890 204725.6 30840.8 Q 205070 30840.8 205070 30522.8 L 205070 22583.6 L 201383.6 22583.6 L 201383.6 16661.6 L 210206 16661.6 L 210206 22583.6 L 206716.4 22583.6 L 206716.4 22581.2 Z M 209445.2 28528.4 Q 209051.6 26637.2 207699.2 24203.6 L 209003.6 23613.2 Q 210428 26022.8 210821.6 27890 L 209445.2 28528.4 Z M 216252.8 18059.6 Q 215342 28307.6 210723.2 32535.2 Q 210232.4 31896.8 209396 31430 Q 213820.4 27596 214582.4 18059.6 L 211437.2 18059.6 L 211437.2 16413.2 L 214706 16413.2 Q 214805.6 14840 214853.6 10121.6 L 216573.2 10121.6 Q 216525.2 14716.4 216401.6 16412 L 222004.4 16412 L 222004.4 18058.4 L 216254 18058.4 L 216252.8 18059.6 Z M 219791.6 30520.4 Q 220356.8 30520.4 220504.4 30396.8 Q 220798.4 30273.2 220871.6 29732 Q 220947.2 29241.2 220995.2 27077.6 Q 221536.4 27594.8 222420.8 27815.6 Q 222371.6 29979.2 222150.8 30714.8 Q 221954 31404.8 221388.8 31673.6 Q 220922 31919.6 219987.2 31919.6 L 218414 31919.6 Q 217407.2 31919.6 216890 31502 Q 216324.8 31084.4 216324.8 29265.2 L 216324.8 20000 L 217947.2 20000 L 217947.2 29462 Q 217947.2 30273.2 218142.8 30396.8 Q 218388.8 30520.4 218733.2 30520.4 L 219790.4 30520.4 L 219791.6 30520.4 Z M 236134.4 19017.2 Q 234954.8 16313.6 232448 13168.4 L 233997.2 12358.4 Q 236602.4 15478.4 237782 18059.6 L 236135.6 19018.4 L 236134.4 19017.2 Z M 234881.6 23883.2 Q 234978.8 24522.8 235347.2 25604 Q 227606 29314.4 226770.8 30052.4 Q 226524.8 29388.8 225762.8 28553.6 Q 227237.6 27718.4 227237.6 26340.8 L 227237.6 11964.8 L 229178 11964.8 L 229178 26537.6 L 234880.4 23883.2 L 234881.6 23883.2 Z M 245301.2 32436.8 Q 243754.4 29954 240338 26588 Q 237977.6 30446 233135.6 32658.8 Q 232594.4 31823.6 231783.2 31085.6 Q 237362 28872.8 239573.6 23957.6 Q 241442 19829.6 241908.8 11031.2 L 243825.2 11130.8 Q 243258.8 20494.4 241194.8 24966.8 Q 245127.2 28726.4 246870.8 31257.2 L 245297.6 32438 L 245301.2 32436.8 Z M 254369.6 14422.4 Q 252944 13120.4 250142 11595.2 L 251174 10293.2 Q 254025.2 11694.8 255426.8 12947.6 L 254369.6 14422.4 Z M 253140.8 20811.2 Q 251691.2 19607.6 248816 18182 L 249872 16853.6 Q 252747.2 18182 254198 19311.2 L 253140.8 20810 L 253140.8 20811.2 Z M 254836.4 24276.8 Q 252920 28750.4 251027.6 32166.8 L 249430.4 31059.2 Q 251494.4 27693.2 253434.8 23195.6 L 254836.4 24276.8 Z M 260613.2 21254 Q 261842 24326 264053.6 26660 Q 266190.8 24350 267272 21254 L 260613.2 21254 Z M 258302 15306.8 L 258302 19607.6 L 262455.2 19607.6 L 262455.2 15306.8 L 258302 15306.8 Z M 269508.8 20075.6 Q 268280 24646.4 265355.6 27839.6 Q 268010 30003.2 271499.6 30938 Q 270836 31527.2 270294.8 32511.2 Q 266732 31379.6 264077.6 29069.6 Q 261522.8 31282.4 258057.2 32559.2 Q 257516 31600.4 256877.6 31035.2 Q 260367.2 29855.6 262800.8 27839.6 Q 260367.2 25161.2 258892.4 21254 L 258278 21254 Q 258033.2 28676 255108.8 32483.6 Q 254445.2 31869.2 253586 31551.2 Q 256534.4 27815.6 256534.4 19779.2 L 256534.4 13587.2 L 262457.6 13587.2 L 262457.6 10048.4 L 264251.6 10048.4 L 264251.6 13587.2 L 269657.6 13587.2 L 269951.6 13511.6 L 271253.6 13881.2 Q 270148.4 17076.8 269165.6 18820.4 L 267616.4 18329.6 Q 268083.2 17421.2 268870.4 15308 L 264249.2 15308 L 264249.2 19608.8 L 268032.8 19608.8 L 268377.2 19535.6 L 269508.8 20076.8 L 269508.8 20075.6 Z M 281427.2 15626 L 276267.2 15626 L 276267.2 20763.2 L 281427.2 20763.2 L 281427.2 15626 Z M 281427.2 28283.6 L 281427.2 22384.4 L 276267.2 22384.4 L 276267.2 28283.6 L 281427.2 28283.6 Z M 280298 10366.4 Q 279216.8 13463.6 279020 13978.4 L 283100 13978.4 L 283100 29928.8 L 276268.4 29928.8 L 276268.4 31869.2 L 274596.8 31869.2 L 274596.8 13978.4 L 277350.8 13978.4 Q 278088.8 11594 278333.6 9996.8 L 280300.4 10365.2 L 280298 10366.4 Z M 295116.8 14840 Q 294599.6 29585.6 293420 31035.2 Q 292732.4 31895.6 291479.6 32019.2 Q 290471.6 32140.4 287841.2 31992.8 Q 287744 30984.8 287226.8 30198.8 Q 288825.2 30346.4 290865.2 30346.4 Q 291576.8 30346.4 291870.8 29978 Q 292928 28846.4 293369.6 15599.6 L 287128.4 15599.6 Q 285996.8 18327.2 284817.2 19900.4 Q 284496.8 19606.4 283317.2 18868.4 Q 285725.6 15696.8 287078 9946.4 L 288824 10364 Q 288357.2 12280.4 287766.8 13902.8 L 295115.6 13902.8 L 295115.6 14837.6 L 295116.8 14840 Z M 289684.4 25923.2 Q 288555.2 23638.4 285950 20246 L 287375.6 19410.8 Q 290078 22851.2 291233.6 24964.4 L 289684.4 25923.2 Z M 319398.8 11177.6 Q 316744.4 14546 312394.4 16954.4 Q 311583.2 16019.6 311068.4 15675.2 Q 315344 13562 317704.4 10466 L 319400 11177.6 L 319398.8 11177.6 Z M 320086.4 17888 Q 317162 21525.2 312615.2 24080 Q 311927.6 23244.8 311338.4 22778 Q 315810.8 20517.2 318416 17175.2 L 320087.6 17889.2 L 320086.4 17888 Z M 306938 19607.6 L 306938 13290.8 L 302981.6 13290.8 L 302981.6 19607.6 L 306938 19607.6 Z M 308706.8 21304.4 L 308706.8 32484.8 L 306936.8 32484.8 L 306936.8 21304.4 L 302956.4 21304.4 Q 302783.6 28848.8 299319.2 32658.8 Q 298752.8 31896.8 297941.6 31430 Q 301062.8 28037.6 301235.6 21304.4 L 298064 21304.4 L 298064 19608.8 L 301259.6 19608.8 L 301259.6 13292 L 298433.6 13292 L 298433.6 11572.4 L 311015.6 11572.4 L 311015.6 13292 L 308705.6 13292 L 308705.6 19608.8 L 311384 19608.8 L 311384 21304.4 L 308705.6 21304.4 L 308706.8 21304.4 Z M 320675.6 24449.6 Q 317530.4 29634.8 311338.4 32484.8 Q 310772 31625.6 310060.4 31035.2 Q 316104.8 28528.4 318956 23786 L 320675.6 24449.6 Z M 342425.6 14322.8 Q 341220.8 12849.2 338936 11250.8 L 340164.8 10244 Q 342498.8 11790.8 343703.6 13167.2 L 342425.6 14322.8 Z M 330014 28553.6 L 335273.6 27448.4 L 335421.2 29069.6 Q 328762.4 30642.8 323650.4 31774.4 L 323085.2 29980.4 L 328221.2 28948.4 L 328221.2 21820.4 L 323847.2 21820.4 L 323847.2 20050.4 L 334612.4 20050.4 L 334612.4 21820.4 L 330015.2 21820.4 L 330015.2 28554.8 L 330014 28553.6 Z M 337534.4 16413.2 Q 338001.2 22704.8 339329.6 26612 Q 340706 30642.8 342500 30642.8 Q 343408.4 30642.8 343605.2 26024 Q 344244.8 26662.4 345227.6 27030.8 Q 344981.6 30202.4 344367.2 31382 Q 343752.8 32537.6 342352.4 32537.6 Q 339526.4 32537.6 337756.4 27868.4 Q 336207.2 23715.2 335666 16415.6 L 322984.4 16415.6 L 322984.4 14621.6 L 335542.4 14621.6 Q 335469.2 13170.8 335420 10172 L 337336.4 10172 Q 337336.4 12678.8 337436 14621.6 L 344709.2 14621.6 L 344709.2 16415.6 L 337533.2 16415.6 L 337534.4 16413.2 Z M 356802.8 17591.6 L 356802.8 19755.2 L 360906.8 19755.2 L 360906.8 17591.6 L 356802.8 17591.6 Z M 362553.2 17591.6 L 362553.2 19755.2 L 366828.8 19755.2 L 366828.8 17591.6 L 362553.2 17591.6 Z M 366828.8 23342 L 366828.8 21106.4 L 362553.2 21106.4 L 362553.2 23342 L 366828.8 23342 Z M 360906.8 23342 L 360906.8 21106.4 L 356802.8 21106.4 L 356802.8 23342 L 360906.8 23342 Z M 356802.8 28847.6 L 355056.8 28847.6 L 355056.8 16191.2 L 362012 16191.2 Q 359481.2 14937.2 357244.4 14102 L 358376 13070 Q 359949.2 13635.2 361940 14495.6 Q 363635.6 13684.4 365405.6 12406.4 L 355082 12406.4 L 355082 10956.8 L 367076 10956.8 L 367444.4 10859.6 L 368552 11718.8 Q 366536 13685.6 363537.2 15234.8 Q 364521.2 15676.4 365356.4 16193.6 L 368576 16193.6 L 368576 27006.8 Q 368576 28259.6 367740.8 28604 Q 367053.2 28900.4 364422.8 28900.4 Q 364299.2 28113.2 363930.8 27375.2 Q 364521.2 27400.4 366412.4 27400.4 Q 366830 27400.4 366830 26982.8 L 366830 24746 L 362554.4 24746 L 362554.4 28752.8 L 360908 28752.8 L 360908 24746 L 356804 24746 L 356804 28850 L 356802.8 28847.6 Z M 351935.6 16265.6 Q 350633.6 14570 347758.4 12063.2 L 349036.4 11031.2 Q 352035.2 13512.8 353264 15062 L 351935.6 16266.8 L 351935.6 16265.6 Z M 352452.8 27914 Q 352673.6 28037.6 353238.8 28455.2 Q 353878.4 28898 354320 29168 Q 356286.8 30371.6 360760.4 30371.6 Q 365061.2 30371.6 369827.6 29906 Q 369386 30962 369312.8 31700 Q 365085.2 31944.8 360711.2 31944.8 Q 356164.4 31944.8 353952.8 30594.8 Q 351666.8 29193.2 351569.6 29193.2 Q 350586.8 29193.2 348300.8 32241.2 L 347145.2 30742.4 Q 349332.8 28432.4 350685.2 27867.2 L 350685.2 20936 L 347244.8 20936 L 347244.8 19216.4 L 352454 19216.4 L 352454 27915.2 L 352452.8 27914 Z M 19718 52646.8 L 10281.2 52646.8 L 10281.2 50900.8 L 19718 50900.8 L 19718 46600 L 21536 46600 L 21536 50900.8 L 24928.4 50900.8 L 24928.4 52646.8 L 21536 52646.8 L 21536 62353.6 Q 21536 64024 20356.4 64393.6 Q 19373.6 64738 15711.2 64738 Q 15587.6 63877.6 15072.8 62894.8 Q 16842.8 62944 19054.4 62944 Q 19718 62918.8 19718 62353.6 L 19718 52646.8 Z M 12886.4 54587.2 Q 15515.6 57806.8 16400 59380 L 14853.2 60314.8 Q 13624.4 58030 11436.8 55375.6 L 12886.4 54588.4 L 12886.4 54587.2 Z M 7701.2 52302.4 Q 6569.6 50386 4088 48100 L 5488.4 47165.2 Q 8118.8 49574.8 9200 51245.2 L 7701.2 52302.4 Z M 8536.4 63902.8 Q 8709.2 64000 9298.4 64441.6 Q 9888.8 64860.4 10355.6 65154.4 Q 12246.8 66334 16744.4 66334 Q 21144.8 66334 25666.4 65867.2 Q 25149.2 66924.4 25101.2 67832.8 Q 21611.6 68078.8 16696.4 68078.8 Q 12051.2 68078.8 9938 66726.4 Q 7652 65276.8 7578.8 65276.8 Q 6670.4 65276.8 4334 68396.8 L 3057.2 66677.2 Q 5194.4 64367.2 6743.6 63778 L 6743.6 57388 L 3375.2 57388 L 3375.2 55668.4 L 8536.4 55668.4 L 8536.4 63901.6 L 8536.4 63902.8 Z M 36578 65770 Q 35890.4 64220.8 34365.2 61788.4 Q 32228 66310 28910 68939.2 Q 28174.4 67883.2 27584 67513.6 Q 31024.4 64982.8 33164 59970.4 Q 30803.6 56431.6 28518.8 53753.2 L 29871.2 52745.2 Q 32058.8 55350.4 33975.2 57955.6 Q 35228 54368.8 35793.2 50165.2 L 28296.8 50165.2 L 28296.8 48421.6 L 36260 48421.6 L 36554 48348.4 L 37709.6 48666.4 Q 37095.2 55056.4 35252 59750.8 Q 37244 62675.2 38127.2 64542.4 L 36580.4 65771.2 L 36578 65770 Z M 41123.6 50162.8 Q 41934.8 56110 43803.2 60190 Q 46211.6 55938.4 47146.4 50162.8 L 41123.6 50162.8 Z M 49136 48689.2 Q 48128 56873.2 44810 62156.8 Q 46923.2 65746 50168 67489.6 Q 49504.4 68006.8 48866 69013.6 Q 45720.8 67146.4 43655.6 63828.4 Q 41223.2 67000 37733.6 68940.4 Q 37216.4 67933.6 36504.8 67392.4 Q 40118 65622.4 42648.8 61984 Q 40509.2 57535.6 39353.6 50162.8 L 38764.4 50162.8 L 38764.4 48419.2 L 47636 48419.2 L 47954 48346 L 49134.8 48690.4 L 49136 48689.2 Z M 66904.4 50189.2 Q 67739.6 51392.8 69017.6 52424.8 Q 70419.2 51245.2 71278.4 49819.6 L 67198.4 49819.6 L 66904.4 50189.2 Z M 73466 48886 Q 72483.2 51416.8 70319.6 53308 Q 72359.6 54562 74547.2 55052.8 Q 73956.8 55618 73539.2 56429.2 Q 71130.8 55717.6 69090.8 54242.8 Q 67001.6 55741.6 64175.6 56576.8 Q 63782 55765.6 63291.2 55250.8 Q 65772.8 54636.4 67862 53260 Q 66953.6 52399.6 66018.8 51146.8 Q 65280.8 51884.8 64445.6 52523.2 Q 64052 51932.8 63413.6 51294.4 Q 66215.6 49378 67568 46429.6 L 69017.6 46847.2 Q 68747.6 47558.8 68157.2 48467.2 L 72113.6 48467.2 L 72434 48394 L 73466 48887.2 L 73466 48886 Z M 68182.4 66137.2 L 68182.4 63901.6 L 63734 63901.6 L 63734 62573.2 L 68182.4 62573.2 L 68182.4 61000 L 64667.6 61000 L 64667.6 59747.2 L 68182.4 59747.2 L 68182.4 58370.8 L 64199.6 58370.8 L 64199.6 57066.4 L 68182.4 57066.4 L 68182.4 55690 L 69852.8 55690 L 69852.8 57066.4 L 73539.2 57066.4 L 73539.2 58370.8 L 69852.8 58370.8 L 69852.8 59747.2 L 72950 59747.2 L 72950 61000 L 69852.8 61000 L 69852.8 62573.2 L 73982 62573.2 L 73982 63901.6 L 69852.8 63901.6 L 69852.8 66137.2 L 68182.4 66137.2 Z M 61398.8 52964.8 Q 60857.6 50974 59604.8 47927.2 L 61006.4 47460.4 Q 62259.2 50335.6 62897.6 52375.6 L 61398.8 52964.8 Z M 59555.6 59405.2 Q 59531.6 59896 59531.6 60928 Q 53535.2 62132.8 52896.8 62501.2 Q 52626.8 61592.8 52332.8 60905.2 Q 52922 60781.6 53979.2 59332 Q 54887.6 58200.4 56092.4 56087.2 Q 53141.6 56480.8 52724 56701.6 Q 52454 55742.8 52136 55031.2 Q 52602.8 54907.6 53412.8 53482 Q 55208 50360.8 56240 46526.8 L 57983.6 47264.8 Q 56460.8 51492.4 54446 54785.2 L 57024.8 54491.2 Q 58008.8 52598.8 58326.8 51836.8 L 59825.6 52672 Q 57467.6 57293.2 55181.6 60217.6 L 59555.6 59406.4 L 59555.6 59405.2 Z M 59974.4 64982.8 Q 53584.4 67048 52724 67342 L 52306.4 65572 Q 54960.8 64933.6 59679.2 63532 L 59975.6 64981.6 L 59974.4 64982.8 Z M 62897.6 64787.2 Q 63119.6 64908.4 63561.2 65252.8 Q 64078.4 65695.6 64372.4 65892.4 Q 65895.2 66924.4 68894 66924.4 Q 72162.8 66924.4 74720 66580 Q 74374.4 67538.8 74326.4 68324.8 Q 71721.2 68521.6 68844.8 68521.6 Q 65848.4 68521.6 64053.2 67318 Q 62406.8 66040 62162 66040 Q 61374.8 66040 59604.8 68791.6 L 58596.8 67292.8 Q 60170 65352.4 61325.6 64787.2 L 61325.6 56848 L 59138 56848 L 59138 55301.2 L 62897.6 55301.2 L 62897.6 64787.2 Z " fill-rule="nonzero" style="fill:#ffffff;;fill-opacity:1;"/>
</svg>