<svg version="1.1" x="0" y="0" width="100%" height="100%" viewBox="0 0 258048 40550.4" xmlns="http://www.w3.org/2000/svg">
  <path d="M 4211.6 28750.4 L 8216 28750.4 L 8216 15306.8 L 5022.8 15306.8 L 5022.8 13881.2 Q 7258.4 13463.6 8757.2 12603.2 L 10476.8 12603.2 L 10476.8 28750.4 L 14090 28750.4 L 14090 30617.6 L 4211.6 30617.6 L 4211.6 28750.4 Z M 25790.8 19706 Q 25422.4 14028.8 21857.2 14028.8 Q 20555.2 14028.8 19696 15134 Q 18811.6 16289.6 18811.6 18108.8 Q 18811.6 19976 19622.8 21033.2 Q 20458 22113.2 22031.2 22113.2 Q 24095.2 22113.2 25790.8 19704.8 L 25790.8 19706 Z M 18270.4 27693.2 Q 19499.2 29069.6 21293.2 29069.6 Q 25594 29069.6 25814.8 21549.2 Q 24020.8 23786 21662.8 23786 Q 19352.8 23786 18050.8 22336.4 Q 16698.4 20861.6 16698.4 18110 Q 16698.4 15552.8 18221.2 13882.4 Q 19696 12260 21857.2 12260 Q 24560.8 12260 26183.2 14397.2 Q 27902.8 16683.2 27902.8 20836.4 Q 27902.8 25972.4 25912 28626.8 Q 24166 30936.8 21364 30936.8 Q 18809.2 30936.8 17039.2 29093.6 L 18268 27692 L 18270.4 27693.2 Z M 29871.6 28553.6 L 30976.8 27078.8 Q 32967.6 29069.6 35401.2 29069.6 Q 37023.6 29069.6 38104.8 27940.4 Q 39234 26735.6 39234 24819.2 Q 39234 22902.8 38226 21797.6 Q 37219.2 20716.4 35499.6 20716.4 Q 34098 20716.4 32500.8 21772.4 L 31296 21036.8 L 31861.2 12606.8 L 40635.6 12606.8 L 40635.6 14523.2 L 33828 14523.2 L 33386.4 19734.8 Q 34663.2 19020.8 36064.8 19020.8 Q 38449.2 19020.8 39898.8 20397.2 Q 41496 21922.4 41496 24748.4 Q 41496 27599.6 39702 29319.2 Q 38006.4 30941.6 35598 30941.6 Q 32256 30941.6 29871.6 28557.2 L 29871.6 28553.6 Z M 47618 30617.6 Q 48035.6 21033.2 52680.8 14519.6 L 43958 14519.6 L 43958 12603.2 L 55238 12603.2 L 55238 13955.6 Q 52239.2 17813.6 51107.6 21672.8 Q 50175.2 24892.4 49953.2 30618.8 L 47619.2 30618.8 L 47618 30617.6 Z M 68928.4 25112 L 68928.4 20246 L 63422.8 20246 L 63422.8 25112 L 68928.4 25112 Z M 79667.2 26882 L 70771.6 26882 L 70771.6 32511.2 L 68928.4 32511.2 L 68928.4 26882 L 57572.8 26882 L 57572.8 25112 L 61603.6 25112 L 61603.6 18526.4 L 68928.4 18526.4 L 68928.4 14790.8 L 62956 14790.8 Q 61285.6 17642 59220.4 19632.8 Q 58237.6 18772.4 57647.2 18478.4 Q 61333.6 15258.8 63176.8 9999.2 L 65020 10440.8 Q 64554.4 11621.6 63890.8 13022 L 78536.8 13022 L 78536.8 14792 L 70771.6 14792 L 70771.6 18527.6 L 77971.6 18527.6 L 77971.6 20247.2 L 70771.6 20247.2 L 70771.6 25113.2 L 79667.2 25113.2 L 79667.2 26883.2 L 79667.2 26882 Z M 101023.6 10784 Q 99892 13538 98345.2 16044.8 L 98345.2 32460.8 L 96550 32460.8 L 96550 18674 Q 95149.6 20517.2 93650.8 21918.8 Q 93330.4 21082.4 92544.4 20075.6 Q 96918.4 16289.6 99203.2 10218.8 L 101022.4 10784 L 101023.6 10784 Z M 109255.6 18059.6 Q 111935.2 24694.4 115939.6 27939.2 Q 115031.2 28650.8 114564.4 29412.8 Q 110927.2 26022.8 108199.6 19534.4 L 108199.6 32510 L 106405.6 32510 L 106405.6 20049.2 Q 103751.2 26242.4 100015.6 29511.2 Q 99229.6 28576.4 98639.2 28109.6 Q 102840.4 24792.8 105446.8 18058.4 L 99499.6 18058.4 L 99499.6 16288.4 L 106405.6 16288.4 L 106405.6 10390.4 L 108199.6 10390.4 L 108199.6 16288.4 L 115302.4 16288.4 L 115302.4 18058.4 L 109255.6 18058.4 L 109255.6 18059.6 Z M 122184.4 22900.4 Q 121693.6 22433.6 121693.6 21695.6 Q 121693.6 20933.6 122184.4 20442.8 Q 122626 19952 123313.6 19952 Q 124001.2 19952 124468 20442.8 Q 124934.8 20933.6 124934.8 21695.6 Q 124934.8 22433.6 124468 22900.4 Q 123977.2 23391.2 123313.6 23391.2 Q 122651.2 23391.2 122184.4 22900.4  Z M 151883.2 17812.4 Q 151762 17567.6 150851.2 16166 Q 141120.4 16829.6 140406.4 17075.6 Q 140038 15797.6 139841.2 15380 Q 140431.6 15280.4 141266.8 14445.2 Q 143257.6 12651.2 144854.8 10020.8 L 146674 10635.2 Q 144854.8 13118 142790.8 15082.4 L 149746 14664.8 Q 148590.4 13215.2 147655.6 12183.2 L 148960 11322.8 Q 151859.2 14321.6 153334 16804.4 L 151883.2 17811.2 L 151883.2 17812.4 Z M 139030 25137.2 Q 136940.8 26169.2 132025.6 28406 L 131314 26586.8 Q 132592 26120 134558.8 25260.8 L 134558.8 17666 L 131560 17666 L 131560 15922.4 L 134558.8 15922.4 L 134558.8 10343.6 L 136253.2 10343.6 L 136253.2 15922.4 L 138980.8 15922.4 L 138980.8 17666 L 136253.2 17666 L 136253.2 24548 L 138637.6 23540 L 139031.2 25138.4 L 139030 25137.2 Z M 147337.6 25799.6 Q 149278 29830.4 154069.6 30938 Q 153455.2 31527.2 152964.4 32438 Q 148345.6 31085.6 146182 27078.8 Q 144583.6 30593.6 139374.4 32510 Q 138932.8 31698.8 138318.4 31157.6 Q 143503.6 29290.4 144805.6 25799.6 L 139226.8 25799.6 L 139226.8 24178.4 L 145198 24178.4 Q 145297.6 23464.4 145297.6 22580 L 145297.6 20982.8 L 142298.8 20982.8 Q 141463.6 22308.8 140552.8 23316.8 Q 140111.2 22899.2 139079.2 22358 Q 141119.2 20318 142445.2 16925.6 L 144091.6 17392.4 Q 143550.4 18720.8 143206 19359.2 L 152668 19359.2 L 152668 20981.6 L 147038.8 20981.6 L 147038.8 22604 Q 147038.8 23366 146965.6 24177.2 L 153749.2 24177.2 L 153749.2 25798.4 L 147335.2 25798.4 L 147337.6 25799.6 Z M 169111.6 23171.6 L 169111.6 19952 L 165400 19952 L 165400 20148.8 Q 165400 21695.6 165252.4 23170.4 L 169111.6 23170.4 L 169111.6 23171.6 Z M 163286.8 23171.6 Q 163483.6 21893.6 163483.6 20150 L 163483.6 19953.2 L 159920.8 19953.2 L 159379.6 23172.8 L 163286.8 23172.8 L 163286.8 23171.6 Z M 165400 18156.8 L 169111.6 18156.8 L 169111.6 14987.6 L 165400 14987.6 L 165400 18156.8 Z M 170978.8 14987.6 L 170978.8 18156.8 L 174616 18156.8 L 174616 14987.6 L 170978.8 14987.6 Z M 177787.6 23171.6 Q 177787.6 23638.4 177762.4 23908.4 Q 177517.6 28847.6 176903.2 29535.2 Q 176436.4 30076.4 175428.4 30176 Q 174396.4 30224 172774 30150.8 Q 172700.8 29266.4 172259.2 28528.4 Q 173635.6 28628 174643.6 28628 Q 175208.8 28628 175381.6 28431.2 Q 175750 28037.6 175946.8 24965.6 L 170982.4 24965.6 L 170982.4 32486 L 169115.2 32486 L 169115.2 24965.6 L 164938 24965.6 Q 163660 30177.2 157663.6 32559.2 Q 157098.4 31823.6 156187.6 31109.6 Q 161569.6 29045.6 162898 24965.6 L 157319.2 24965.6 Q 157957.6 22190 158448.4 18158 L 163487.2 18158 L 163487.2 14988.8 L 157098.4 14988.8 L 157098.4 13194.8 L 163487.2 13194.8 L 163487.2 10073.6 L 165403.6 10073.6 L 165403.6 13194.8 L 169115.2 13194.8 L 169115.2 10073.6 L 170982.4 10073.6 L 170982.4 13194.8 L 176438.8 13194.8 L 176438.8 19953.2 L 170982.4 19953.2 L 170982.4 23172.8 L 177790 23172.8 L 177787.6 23171.6 Z M 186486.4 13587.2 L 181080.4 13587.2 L 181080.4 11939.6 L 186486.4 11939.6 L 186486.4 10096.4 L 188281.6 10096.4 L 188281.6 11939.6 L 195284.8 11939.6 L 195284.8 10096.4 L 197078.8 10096.4 L 197078.8 11939.6 L 202560.4 11939.6 L 202560.4 13587.2 L 197078.8 13587.2 L 197078.8 15478.4 L 195284.8 15478.4 L 195284.8 13587.2 L 188281.6 13587.2 L 188281.6 15478.4 L 186486.4 15478.4 L 186486.4 13587.2 Z M 194056 24670.4 Q 197448.4 28650.8 203051.2 30370.4 Q 202436.8 30911.6 201798.4 31919.6 Q 196096 29830.4 192655.6 25334 L 192655.6 32484.8 L 190860.4 32484.8 L 190860.4 25358 Q 187247.2 29756 181790.8 32018 Q 181225.6 31157.6 180587.2 30567.2 Q 185969.2 28650.8 189409.6 24670.4 L 180980.8 24670.4 L 180980.8 22998.8 L 190859.2 22998.8 L 190859.2 18650 L 182405.2 18650 L 182405.2 16978.4 L 190859.2 16978.4 L 190859.2 14766.8 L 192654.4 14766.8 L 192654.4 16978.4 L 201377.2 16978.4 L 201377.2 18650 L 192654.4 18650 L 192654.4 22998.8 L 202680.4 22998.8 L 202680.4 24670.4 L 194054.8 24670.4 L 194056 24670.4 Z M 185995.6 18723.2 Q 187445.2 20566.4 188035.6 22188.8 L 186340 22803.2 Q 185749.6 21057.2 184423.6 19263.2 L 185996.8 18722 L 185995.6 18723.2 Z M 195334 22310 Q 196513.6 20763.2 197472.4 18674 L 199242.4 19288.4 Q 197719.6 21795.2 196835.2 22851.2 L 195336.4 22310 L 195334 22310 Z M 213643.6 23220.8 L 211112.8 24080 L 211112.8 32484.8 L 209342.8 32484.8 L 209342.8 24646.4 Q 207548.8 25235.6 205705.6 25800.8 L 205312 23982.8 L 209342.8 22827.2 L 209342.8 16830.8 L 207499.6 16830.8 Q 207131.2 19239.2 206516.8 20985.2 Q 205926.4 20518.4 205115.2 20224.4 Q 206147.2 17496.8 206540.8 11942 L 208090 12212 Q 207893.2 14104.4 207745.6 15087.2 L 209342.8 15087.2 L 209342.8 10074.8 L 211112.8 10074.8 L 211112.8 15087.2 L 213397.6 15087.2 L 213397.6 16833.2 L 211112.8 16833.2 L 211112.8 22289.6 L 213497.2 21551.6 L 213644.8 23223.2 L 213643.6 23220.8 Z M 216691.6 24522.8 Q 218879.2 26660 219763.6 28430 L 218338 29364.8 Q 217550.8 27642.8 215339.2 25382 L 216691.6 24522.8 Z M 224531.2 19214 L 224531.2 22138.4 L 227406.4 22138.4 L 227406.4 23834 L 224531.2 23834 L 224531.2 30248 Q 224531.2 31794.8 223571.2 32164.4 Q 222712 32482.4 219689.2 32482.4 Q 219565.6 31574 219122.8 30665.6 Q 221432.8 30738.8 222317.2 30689.6 Q 222808 30665.6 222808 30222.8 L 222808 23834 L 214058.8 23834 L 214058.8 22138.4 L 222808 22138.4 L 222808 19214 L 213691.6 19214 L 213691.6 17494.4 L 219835.6 17494.4 L 219835.6 14397.2 L 215068 14397.2 L 215068 12702.8 L 219835.6 12702.8 L 219835.6 10048.4 L 221579.2 10048.4 L 221579.2 12702.8 L 226397.2 12702.8 L 226397.2 14397.2 L 221579.2 14397.2 L 221579.2 17494.4 L 227526.4 17494.4 L 227526.4 19214 L 224530 19214 L 224531.2 19214 Z " fill-rule="nonzero" style="fill:#ffffff;;fill-opacity:1;"/>
</svg>