<svg version="1.1" x="0" y="0" width="100%" height="100%" viewBox="0 0 396800 77004.8" xmlns="http://www.w3.org/2000/svg">
  <path d="M 63305.2 24227.6 L 61561.6 24227.6 L 61561.6 11252 L 72521.2 11252 L 72521.2 24227.6 L 70727.2 24227.6 L 70727.2 12874.4 L 63305.2 12874.4 L 63305.2 24227.6 Z M 60823.6 27398 L 52492 29879.6 L 52098.4 28109.6 L 55637.2 27150.8 L 55637.2 20465.6 L 52736.8 20465.6 L 52736.8 18770 L 55637.2 18770 L 55637.2 13437.2 L 52392.4 13437.2 L 52392.4 11717.6 L 60452.8 11717.6 L 60452.8 13437.2 L 57406 13437.2 L 57406 18770 L 59960.8 18770 L 59960.8 20465.6 L 57406 20465.6 L 57406 26634.8 Q 58020.4 26487.2 60575.2 25700 L 60821.2 27395.6 L 60823.6 27398 Z M 71710 30470 Q 72349.6 30470 72570.4 29708 Q 72742 28994 72841.6 26339.6 Q 73579.6 26880.8 74315.2 27028.4 Q 74143.6 30052.4 73726 30887.6 Q 73235.2 31846.4 71710 31846.4 L 69473.2 31846.4 Q 68196.4 31846.4 67679.2 31428.8 Q 67138 30962 67138 29782.4 L 67138 24621.2 Q 65615.2 29806.4 60282.4 32558 Q 59692 31649.6 59126.8 31232 Q 63280 29118.8 64901.2 25702.4 Q 66056.8 23268.8 66056.8 19655.6 L 66056.8 14937.2 L 67778.8 14937.2 L 67778.8 19704.8 Q 67778.8 21990.8 67336 23834 L 68834.8 23834 L 68834.8 29608.4 Q 68834.8 30125.6 69031.6 30297.2 Q 69203.2 30470 69720.4 30470 L 71711.2 30470 L 71710 30470 Z M 92011.6 30200 L 98500 30200 L 98500 31919.6 L 83729.2 31919.6 L 83729.2 30200 L 90193.6 30200 L 90193.6 23294 L 84688 23294 L 84688 21574.4 L 90193.6 21574.4 L 90193.6 16880 L 92012.8 16880 L 92012.8 21574.4 L 97542.4 21574.4 L 97542.4 23294 L 92012.8 23294 L 92012.8 30200 L 92011.6 30200 Z M 98498.8 13856 L 98498.8 15602 L 85103.2 15602 Q 83726.8 18453.2 82129.6 20614.4 L 82129.6 32411.6 L 80335.6 32411.6 L 80335.6 22778 Q 79130.8 24080 77484.4 25260.8 Q 77214.4 24497.6 76550.8 23613.2 Q 80507.2 20811.2 83038 15602 L 77140 15602 L 77140 13856 L 83849.2 13856 Q 84611.2 11988.8 85152.4 10048.4 L 87019.6 10515.2 Q 86602 11939.6 85840 13856 L 98497.6 13856 L 98498.8 13856 Z M 109139.2 15626 L 103979.2 15626 L 103979.2 20763.2 L 109139.2 20763.2 L 109139.2 15626 Z M 109139.2 28283.6 L 109139.2 22384.4 L 103979.2 22384.4 L 103979.2 28283.6 L 109139.2 28283.6 Z M 108010 10366.4 Q 106928.8 13463.6 106732 13978.4 L 110812 13978.4 L 110812 29928.8 L 103980.4 29928.8 L 103980.4 31869.2 L 102308.8 31869.2 L 102308.8 13978.4 L 105062.8 13978.4 Q 105800.8 11594 106045.6 9996.8 L 108012.4 10365.2 L 108010 10366.4 Z M 122828.8 14840 Q 122311.6 29585.6 121132 31035.2 Q 120444.4 31895.6 119191.6 32019.2 Q 118183.6 32140.4 115553.2 31992.8 Q 115456 30984.8 114938.8 30198.8 Q 116537.2 30346.4 118577.2 30346.4 Q 119288.8 30346.4 119582.8 29978 Q 120640 28846.4 121081.6 15599.6 L 114840.4 15599.6 Q 113708.8 18327.2 112529.2 19900.4 Q 112208.8 19606.4 111029.2 18868.4 Q 113437.6 15696.8 114790 9946.4 L 116536 10364 Q 116069.2 12280.4 115478.8 13902.8 L 122827.6 13902.8 L 122827.6 14837.6 L 122828.8 14840 Z M 117396.4 25923.2 Q 116267.2 23638.4 113662 20246 L 115087.6 19410.8 Q 117790 22851.2 118945.6 24964.4 L 117396.4 25923.2 Z M 145758.4 16019.6 Q 144701.2 14004.8 142834 11668.4 L 144210.4 10882.4 Q 146274.4 13316 147209.2 15110 L 145759.6 16018.4 L 145758.4 16019.6 Z M 129046 18674 Q 128137.6 16781.6 125950 14127.2 L 127375.6 13242.8 Q 129611.2 15849.2 130546 17692.4 L 129047.2 18675.2 L 129046 18674 Z M 130792 10022 L 132586 10022 L 132586 32460.8 L 130792 32460.8 L 130792 23441.6 Q 128579.2 25578.8 126588.4 27372.8 L 125556.4 25826 Q 128234.8 23638.4 130792 21228.8 L 130792 10022 Z M 141211.6 19067.6 Q 143178.4 28037.6 148487.2 30938 Q 147652 31625.6 147158.8 32460.8 Q 142540 29585.6 140352.4 22139.6 Q 139074.4 28431.2 134208.4 32462 Q 133741.6 31971.2 132733.6 31307.6 Q 138239.2 26786 139001.2 19068.8 L 133422.4 19068.8 L 133422.4 17274.8 L 139124.8 17274.8 Q 139148.8 16757.6 139148.8 15774.8 L 139148.8 10096.4 L 140942.8 10096.4 L 140942.8 15774.8 Q 140942.8 16757.6 140918.8 17274.8 L 147971.2 17274.8 L 147971.2 19068.8 L 141212.8 19068.8 L 141211.6 19067.6 Z M 150649.6 30666.8 Q 152172.4 28503.2 153080.8 24669.2 L 154703.2 25210.4 Q 153523.6 29584.4 152294.8 31524.8 L 150648.4 30665.6 L 150649.6 30666.8 Z M 165074.8 30297.2 Q 166057.6 30297.2 166327.6 29806.4 Q 166597.6 29315.6 166721.2 27423.2 Q 167311.6 27866 168367.6 28110.8 Q 168170.8 30420.8 167581.6 31182.8 Q 166942 31944.8 165198.4 31944.8 L 159496 31944.8 Q 157382.8 31944.8 156644.8 31430 Q 155909.2 30939.2 155909.2 29464.4 L 155909.2 24672.8 L 157703.2 24672.8 L 157703.2 29440.4 Q 157703.2 29981.6 158047.6 30129.2 Q 158416 30300.8 159596.8 30300.8 L 165077.2 30300.8 L 165074.8 30297.2 Z M 160159.6 19582.4 Q 162814 21081.2 164214.4 22532 L 162568 23588 Q 161412.4 22211.6 158636.8 20540 L 160159.6 19581.2 L 160159.6 19582.4 Z M 160748.8 23244.8 Q 163476.4 25702.4 164705.2 27372.8 L 163231.6 28356.8 Q 161953.6 26440.4 159324.4 24080 L 160748.8 23244.8 Z M 169253.2 24300.8 Q 171514 27939.2 172276 30765.2 L 170532.4 31379.6 Q 169794.4 28380.8 167630.8 24818 L 169253.2 24300.8 Z M 163502.8 15208.4 Q 166157.2 20714 172718.8 22188.8 Q 171956.8 22950.8 171490 23883.2 Q 164411.2 21942.8 161609.2 15208.4 Q 159545.2 21819.2 151458.4 23982.8 Q 151090 23122.4 150451.6 22458.8 Q 157724.8 20640.8 159691.6 15208.4 L 150696.4 15208.4 L 150696.4 13488.8 L 160182.4 13488.8 Q 160502.8 12162.8 160723.6 9975.2 L 162590.8 9975.2 Q 162395.2 11818.4 162074.8 13488.8 L 172470.4 13488.8 L 172470.4 15208.4 L 163500.4 15208.4 L 163502.8 15208.4 Z M 188496.4 16535.6 Q 189380.8 21106.4 191124.4 24423.2 Q 192820 21227.6 193582 16288.4 L 188593.6 16288.4 L 188496.4 16534.4 L 188496.4 16535.6 Z M 195500.8 16289.6 Q 194492.8 22433.6 192232 26243.6 Q 194345.2 29439.2 197490.4 30864.8 Q 196924 31306.4 196236.4 32387.6 Q 193237.6 30838.4 191100.4 27839.6 Q 188863.6 30790.4 185129.2 32608.4 Q 184832.8 31822.4 184046.8 30938 Q 187930 29168 190043.2 26144 Q 188494 23318 187412.8 19090.4 Q 186701.2 20516 185644 22038.8 Q 184906 21179.6 184243.6 20712.8 L 184364.8 20565.2 L 177926.8 20565.2 L 177926.8 28306.4 L 184391.2 25972.4 Q 184391.2 26856.8 184636 27692 Q 176748.4 30714.8 176084.8 31329.2 Q 175814.8 30176 175348 29462 Q 176110 29117.6 176110 28085.6 L 176110 18770 L 182623.6 18770 L 182623.6 13586 L 175816 13586 L 175816 11790.8 L 184417.6 11790.8 L 184417.6 20492 Q 187072 16977.2 188473.6 10047.2 L 190241.2 10391.6 Q 189750.4 12776 189161.2 14570 L 197099.2 14570 L 197099.2 16289.6 L 195502 16289.6 L 195500.8 16289.6 Z M 206952.4 14176.4 L 200219.2 14176.4 L 200219.2 12554 L 210270.4 12554 Q 209680 11252 209017.6 10269.2 L 210785.2 9826.4 Q 211744 11228 212334.4 12554 L 221182 12554 L 221182 14176.4 L 214374.4 14176.4 L 214374.4 21574.4 L 212555.2 21574.4 L 212555.2 14176.4 L 208771.6 14176.4 L 208771.6 21598.4 L 206952.4 21598.4 L 206952.4 14176.4 Z M 216708.4 15354.8 Q 219386.8 17715.2 220936 19952 L 219510.4 20884.4 Q 217963.6 18550.4 215333.2 16142 L 216709.6 15354.8 L 216708.4 15354.8 Z M 205576 15651.2 Q 204323.2 18674 202062.4 20861.6 Q 201472 20320.4 200636.8 19878.8 Q 202824.4 17986.4 203929.6 15208.4 L 205576 15651.2 Z M 205675.6 23908.4 Q 207518.8 26266.4 210688 27888.8 Q 213980.8 26291.6 215824 23907.2 L 205675.6 23907.2 L 205675.6 23908.4 Z M 218578 23024 Q 216611.2 26414 212555.2 28750.4 Q 216390.4 30347.6 221796.4 30962 Q 221230 31527.2 220764.4 32559.2 Q 214890.4 31797.2 210637.6 29709.2 Q 206533.6 31600.4 200659.6 32559.2 Q 200315.2 31650.8 199750 30939.2 Q 204959.2 30251.6 208818.4 28726.4 Q 205622.8 26735.6 203706.4 23909.6 L 201715.6 23909.6 L 201715.6 22287.2 L 217075.6 22287.2 L 217393.6 22190 L 218574.4 23025.2 L 218578 23024 Z M 240646 16192.4 L 231209.2 16192.4 L 231209.2 14446.4 L 240646 14446.4 L 240646 10145.6 L 242464 10145.6 L 242464 14446.4 L 245856.4 14446.4 L 245856.4 16192.4 L 242464 16192.4 L 242464 25899.2 Q 242464 27569.6 241284.4 27939.2 Q 240301.6 28283.6 236639.2 28283.6 Q 236515.6 27423.2 236000.8 26440.4 Q 237770.8 26489.6 239982.4 26489.6 Q 240646 26464.4 240646 25899.2 L 240646 16192.4 Z M 233814.4 18132.8 Q 236443.6 21352.4 237328 22925.6 L 235781.2 23860.4 Q 234552.4 21575.6 232364.8 18921.2 L 233814.4 18134 L 233814.4 18132.8 Z M 228629.2 15848 Q 227497.6 13931.6 225016 11645.6 L 226416.4 10710.8 Q 229046.8 13120.4 230128 14790.8 L 228629.2 15848 Z M 229464.4 27448.4 Q 229637.2 27545.6 230226.4 27987.2 Q 230816.8 28406 231283.6 28700 Q 233174.8 29879.6 237672.4 29879.6 Q 242072.8 29879.6 246594.4 29412.8 Q 246077.2 30470 246029.2 31378.4 Q 242539.6 31624.4 237624.4 31624.4 Q 232979.2 31624.4 230866 30272 Q 228580 28822.4 228506.8 28822.4 Q 227598.4 28822.4 225262 31942.4 L 223985.2 30222.8 Q 226122.4 27912.8 227671.6 27323.6 L 227671.6 20933.6 L 224303.2 20933.6 L 224303.2 19214 L 229464.4 19214 L 229464.4 27447.2 L 229464.4 27448.4 Z M 258955.6 22163.6 Q 256326.4 26415.2 253598.8 29390 L 265738 28529.6 Q 264116.8 26220.8 262421.2 24254 L 264018.4 23516 Q 267804.4 27644 269744.8 31306.4 L 268001.2 32265.2 Q 267484 31209.2 266796.4 30128 Q 252124 31283.6 251189.2 31652 Q 250895.2 30447.2 250574.8 29858 Q 251189.2 29710.4 252370 28284.8 Q 254384.8 26195.6 256670.8 22164.8 L 248928.4 22164.8 L 248928.4 20346.8 L 258882.4 20346.8 L 258882.4 15700.4 L 250846 15700.4 L 250846 13906.4 L 258882.4 13906.4 L 258882.4 10048.4 L 260774.8 10048.4 L 260774.8 13906.4 L 269032 13906.4 L 269032 15700.4 L 260774.8 15700.4 L 260774.8 20346.8 L 270850 20346.8 L 270850 22164.8 L 258955.6 22164.8 L 258955.6 22163.6 Z M 281171.2 15626 L 276011.2 15626 L 276011.2 20763.2 L 281171.2 20763.2 L 281171.2 15626 Z M 281171.2 28283.6 L 281171.2 22384.4 L 276011.2 22384.4 L 276011.2 28283.6 L 281171.2 28283.6 Z M 280042 10366.4 Q 278960.8 13463.6 278764 13978.4 L 282844 13978.4 L 282844 29928.8 L 276012.4 29928.8 L 276012.4 31869.2 L 274340.8 31869.2 L 274340.8 13978.4 L 277094.8 13978.4 Q 277832.8 11594 278077.6 9996.8 L 280044.4 10365.2 L 280042 10366.4 Z M 294860.8 14840 Q 294343.6 29585.6 293164 31035.2 Q 292476.4 31895.6 291223.6 32019.2 Q 290215.6 32140.4 287585.2 31992.8 Q 287488 30984.8 286970.8 30198.8 Q 288569.2 30346.4 290609.2 30346.4 Q 291320.8 30346.4 291614.8 29978 Q 292672 28846.4 293113.6 15599.6 L 286872.4 15599.6 Q 285740.8 18327.2 284561.2 19900.4 Q 284240.8 19606.4 283061.2 18868.4 Q 285469.6 15696.8 286822 9946.4 L 288568 10364 Q 288101.2 12280.4 287510.8 13902.8 L 294859.6 13902.8 L 294859.6 14837.6 L 294860.8 14840 Z M 289428.4 25923.2 Q 288299.2 23638.4 285694 20246 L 287119.6 19410.8 Q 289822 22851.2 290977.6 24964.4 L 289428.4 25923.2 Z M 317790.4 16019.6 Q 316733.2 14004.8 314866 11668.4 L 316242.4 10882.4 Q 318306.4 13316 319241.2 15110 L 317791.6 16018.4 L 317790.4 16019.6 Z M 301078 18674 Q 300169.6 16781.6 297982 14127.2 L 299407.6 13242.8 Q 301643.2 15849.2 302578 17692.4 L 301079.2 18675.2 L 301078 18674 Z M 302824 10022 L 304618 10022 L 304618 32460.8 L 302824 32460.8 L 302824 23441.6 Q 300611.2 25578.8 298620.4 27372.8 L 297588.4 25826 Q 300266.8 23638.4 302824 21228.8 L 302824 10022 Z M 313243.6 19067.6 Q 315210.4 28037.6 320519.2 30938 Q 319684 31625.6 319190.8 32460.8 Q 314572 29585.6 312384.4 22139.6 Q 311106.4 28431.2 306240.4 32462 Q 305773.6 31971.2 304765.6 31307.6 Q 310271.2 26786 311033.2 19068.8 L 305454.4 19068.8 L 305454.4 17274.8 L 311156.8 17274.8 Q 311180.8 16757.6 311180.8 15774.8 L 311180.8 10096.4 L 312974.8 10096.4 L 312974.8 15774.8 Q 312974.8 16757.6 312950.8 17274.8 L 320003.2 17274.8 L 320003.2 19068.8 L 313244.8 19068.8 L 313243.6 19067.6 Z M 322681.6 30666.8 Q 324204.4 28503.2 325112.8 24669.2 L 326735.2 25210.4 Q 325555.6 29584.4 324326.8 31524.8 L 322680.4 30665.6 L 322681.6 30666.8 Z M 337106.8 30297.2 Q 338089.6 30297.2 338359.6 29806.4 Q 338629.6 29315.6 338753.2 27423.2 Q 339343.6 27866 340399.6 28110.8 Q 340202.8 30420.8 339613.6 31182.8 Q 338974 31944.8 337230.4 31944.8 L 331528 31944.8 Q 329414.8 31944.8 328676.8 31430 Q 327941.2 30939.2 327941.2 29464.4 L 327941.2 24672.8 L 329735.2 24672.8 L 329735.2 29440.4 Q 329735.2 29981.6 330079.6 30129.2 Q 330448 30300.8 331628.8 30300.8 L 337109.2 30300.8 L 337106.8 30297.2 Z M 332191.6 19582.4 Q 334846 21081.2 336246.4 22532 L 334600 23588 Q 333444.4 22211.6 330668.8 20540 L 332191.6 19581.2 L 332191.6 19582.4 Z M 332780.8 23244.8 Q 335508.4 25702.4 336737.2 27372.8 L 335263.6 28356.8 Q 333985.6 26440.4 331356.4 24080 L 332780.8 23244.8 Z M 341285.2 24300.8 Q 343546 27939.2 344308 30765.2 L 342564.4 31379.6 Q 341826.4 28380.8 339662.8 24818 L 341285.2 24300.8 Z M 335534.8 15208.4 Q 338189.2 20714 344750.8 22188.8 Q 343988.8 22950.8 343522 23883.2 Q 336443.2 21942.8 333641.2 15208.4 Q 331577.2 21819.2 323490.4 23982.8 Q 323122 23122.4 322483.6 22458.8 Q 329756.8 20640.8 331723.6 15208.4 L 322728.4 15208.4 L 322728.4 13488.8 L 332214.4 13488.8 Q 332534.8 12162.8 332755.6 9975.2 L 334622.8 9975.2 Q 334427.2 11818.4 334106.8 13488.8 L 344502.4 13488.8 L 344502.4 15208.4 L 335532.4 15208.4 L 335534.8 15208.4 Z M 135362.8 54046 L 135362.8 56209.6 L 139466.8 56209.6 L 139466.8 54046 L 135362.8 54046 Z M 141113.2 54046 L 141113.2 56209.6 L 145388.8 56209.6 L 145388.8 54046 L 141113.2 54046 Z M 145388.8 59796.4 L 145388.8 57560.8 L 141113.2 57560.8 L 141113.2 59796.4 L 145388.8 59796.4 Z M 139466.8 59796.4 L 139466.8 57560.8 L 135362.8 57560.8 L 135362.8 59796.4 L 139466.8 59796.4 Z M 135362.8 65302 L 133616.8 65302 L 133616.8 52645.6 L 140572 52645.6 Q 138041.2 51391.6 135804.4 50556.4 L 136936 49524.4 Q 138509.2 50089.6 140500 50950 Q 142195.6 50138.8 143965.6 48860.8 L 133642 48860.8 L 133642 47411.2 L 145636 47411.2 L 146004.4 47314 L 147112 48173.2 Q 145096 50140 142097.2 51689.2 Q 143081.2 52130.8 143916.4 52648 L 147136 52648 L 147136 63461.2 Q 147136 64714 146300.8 65058.4 Q 145613.2 65354.8 142982.8 65354.8 Q 142859.2 64567.6 142490.8 63829.6 Q 143081.2 63854.8 144972.4 63854.8 Q 145390 63854.8 145390 63437.2 L 145390 61200.4 L 141114.4 61200.4 L 141114.4 65207.2 L 139468 65207.2 L 139468 61200.4 L 135364 61200.4 L 135364 65304.4 L 135362.8 65302 Z M 130495.6 52720 Q 129193.6 51024.4 126318.4 48517.6 L 127596.4 47485.6 Q 130595.2 49967.2 131824 51516.4 L 130495.6 52721.2 L 130495.6 52720 Z M 131012.8 64368.4 Q 131233.6 64492 131798.8 64909.6 Q 132438.4 65352.4 132880 65622.4 Q 134846.8 66826 139320.4 66826 Q 143621.2 66826 148387.6 66360.4 Q 147946 67416.4 147872.8 68154.4 Q 143645.2 68399.2 139271.2 68399.2 Q 134724.4 68399.2 132512.8 67049.2 Q 130226.8 65647.6 130129.6 65647.6 Q 129146.8 65647.6 126860.8 68695.6 L 125705.2 67196.8 Q 127892.8 64886.8 129245.2 64321.6 L 129245.2 57390.4 L 125804.8 57390.4 L 125804.8 55670.8 L 131014 55670.8 L 131014 64369.6 L 131012.8 64368.4 Z M 166918 52646.8 L 157481.2 52646.8 L 157481.2 50900.8 L 166918 50900.8 L 166918 46600 L 168736 46600 L 168736 50900.8 L 172128.4 50900.8 L 172128.4 52646.8 L 168736 52646.8 L 168736 62353.6 Q 168736 64024 167556.4 64393.6 Q 166573.6 64738 162911.2 64738 Q 162787.6 63877.6 162272.8 62894.8 Q 164042.8 62944 166254.4 62944 Q 166918 62918.8 166918 62353.6 L 166918 52646.8 Z M 160086.4 54587.2 Q 162715.6 57806.8 163600 59380 L 162053.2 60314.8 Q 160824.4 58030 158636.8 55375.6 L 160086.4 54588.4 L 160086.4 54587.2 Z M 154901.2 52302.4 Q 153769.6 50386 151288 48100 L 152688.4 47165.2 Q 155318.8 49574.8 156400 51245.2 L 154901.2 52302.4 Z M 155736.4 63902.8 Q 155909.2 64000 156498.4 64441.6 Q 157088.8 64860.4 157555.6 65154.4 Q 159446.8 66334 163944.4 66334 Q 168344.8 66334 172866.4 65867.2 Q 172349.2 66924.4 172301.2 67832.8 Q 168811.6 68078.8 163896.4 68078.8 Q 159251.2 68078.8 157138 66726.4 Q 154852 65276.8 154778.8 65276.8 Q 153870.4 65276.8 151534 68396.8 L 150257.2 66677.2 Q 152394.4 64367.2 153943.6 63778 L 153943.6 57388 L 150575.2 57388 L 150575.2 55668.4 L 155736.4 55668.4 L 155736.4 63901.6 L 155736.4 63902.8 Z M 177928 54266.8 L 176134 54266.8 L 176134 49303.6 L 185620 49303.6 Q 185102.8 48049.6 184391.2 46920.4 L 186185.2 46355.2 Q 187266.4 48025.6 187781.2 49303.6 L 196138 49303.6 L 196138 54266.8 L 194270.8 54266.8 L 194270.8 51023.2 L 177926.8 51023.2 L 177926.8 54266.8 L 177928 54266.8 Z M 183360.4 56258.8 Q 182155.6 54833.2 179771.2 53431.6 L 180876.4 52276 Q 183334 53628.4 184514.8 54956.8 L 183359.2 56258.8 L 183360.4 56258.8 Z M 178418.8 55988.8 Q 181073.2 57438.4 182252.8 58691.2 L 181147.6 60067.6 Q 179944 58717.6 177362.8 57218.8 L 178418.8 55990 L 178418.8 55988.8 Z M 187906 63041.2 Q 193411.6 65032 196607.2 67392.4 L 195502 68792.8 Q 192330.4 66384.4 187021.6 64368.4 L 187906 63042.4 L 187906 63041.2 Z M 196704.4 60755.2 L 196704.4 62353.6 L 186553.6 62353.6 Q 184392.4 67145.2 176946.4 68864.8 Q 176576.8 67956.4 175914.4 67292.8 Q 182402.8 65916.4 184442.8 62353.6 L 175668.4 62353.6 L 175668.4 60755.2 L 185178.4 60755.2 Q 186014.8 58273.6 186186.4 52253.2 L 188078.8 52253.2 Q 187906 57954.4 187120 60756.4 L 196704.4 60756.4 L 196704.4 60755.2 Z M 205920.4 63188.8 L 199628.8 64934.8 L 199284.4 63409.6 Q 200070.4 63238 205748.8 61788.4 L 205920.4 63188.8 Z M 208574.8 57929.2 Q 208574.8 58470.4 208550.8 58691.2 Q 208033.6 66924.4 207050.8 67956.4 Q 206460.4 68594.8 205428.4 68668 Q 204641.2 68741.2 202528 68644 Q 202430.8 67735.6 202013.2 67096 Q 203462.8 67244.8 204815.2 67244.8 Q 205429.6 67244.8 205675.6 66948.4 Q 206461.6 66162.4 206879.2 59428 L 200341.6 59428 Q 200834.8 55914.4 201104.8 51023.2 L 202678 51096.4 Q 202456 54292 202063.6 57929.2 L 205086.4 57929.2 Q 205577.2 54095.2 205897.6 49204 L 200071.6 49204 L 200071.6 47606.8 L 207568 47606.8 Q 207026.8 54880 206658.4 57928 L 208574.8 57928 L 208574.8 57929.2 Z M 216341.2 46870 L 215800 47975.2 Q 218354.8 51785.2 222238 54342.4 Q 221623.6 55128.4 221329.6 56036.8 Q 217667.2 53334.4 214915.6 49500.4 Q 212482 53456.8 208747.6 56086 Q 208254.4 55324 207665.2 54636.4 Q 212531.2 51515.2 214742.8 46330 L 216341.2 46871.2 L 216341.2 46870 Z M 218772.4 55668.4 L 211499.2 55668.4 L 211499.2 54095.2 L 218772.4 54095.2 L 218772.4 55668.4 Z M 215161.6 63409.6 Q 215012.8 61100.8 214177.6 57562 L 215627.2 57365.2 Q 216438.4 60658 216684.4 63188.8 L 215161.6 63409.6 Z M 211326.4 57832 Q 212507.2 60904 212948.8 63631.6 L 211450 64049.2 Q 211205.2 61688.8 209900.8 58175.2 L 211326.4 57830.8 L 211326.4 57832 Z M 221378.8 58126 Q 219239.2 63458.8 217789.6 66162.4 L 221549.2 66162.4 L 221549.2 67759.6 L 209113.6 67759.6 L 209113.6 66162.4 L 216216.4 66162.4 Q 218232.4 62376.4 219706 57682 L 221377.6 58124.8 L 221378.8 58126 Z M 233544.4 52277.2 L 231995.2 52277.2 L 231995.2 47852.8 L 245659.6 47852.8 L 245659.6 52178.8 L 244038.4 52178.8 L 244038.4 49451.2 L 233544.4 49451.2 L 233544.4 52277.2 Z M 240890.8 50900.8 Q 244062.4 53628.4 245561.2 55816 L 244184.8 56824 Q 242686 54587.2 239588.8 51809.2 L 240890.8 50900.8 Z M 237894.4 51588.4 Q 236026 54784 233003.2 56971.6 Q 232364.8 56209.6 231674.8 55718.8 Q 234649.6 53850.4 236246.8 51024.4 L 237894.4 51589.6 L 237894.4 51588.4 Z M 231430 58618 L 230152 59108.8 Q 229316.8 59405.2 228874 59602 L 228874 66778 Q 228874 68104 228064 68473.6 Q 227374 68818 225138.4 68818 Q 224990.8 67957.6 224597.2 67195.6 Q 226292.8 67244.8 226758.4 67195.6 Q 227177.2 67195.6 227177.2 66802 L 227177.2 60240.4 L 224570.8 61223.2 L 224056 59453.2 Q 224767.6 59257.6 227177.2 58397.2 L 227177.2 53137.6 L 224276.8 53137.6 L 224276.8 51442 L 227177.2 51442 L 227177.2 46526.8 L 228871.6 46526.8 L 228871.6 51442 L 231232 51442 L 231232 53137.6 L 228871.6 53137.6 L 228871.6 57782.8 L 231084.4 56947.6 L 231428.8 58618 L 231430 58618 Z M 240744.4 60092.8 Q 243078.4 64147.6 246643.6 65990.8 Q 245905.6 66630.4 245414.8 67416.4 Q 242022.4 65303.2 239638 61051.6 L 239638 68768.8 L 237894.4 68768.8 L 237894.4 61150 Q 235484.8 65450.8 231601.6 67490.8 Q 231160 66679.6 230446 66065.2 Q 234476.8 64295.2 236813.2 60094 L 231750.4 60094 L 231750.4 58422.4 L 237894.4 58422.4 L 237894.4 55768 L 239638 55768 L 239638 58422.4 L 245954.8 58422.4 L 245954.8 60094 L 240743.2 60094 L 240744.4 60092.8 Z M 256399.6 64320.4 Q 253818.4 66826 250549.6 68473.6 Q 249984.4 67859.2 249148 67268.8 Q 252589.6 65770 254702.8 63680.8 L 256398.4 64320.4 L 256399.6 64320.4 Z M 261092.8 62402.8 L 261092.8 66824.8 Q 261092.8 68177.2 260086 68546.8 Q 259225.6 68840.8 256301.2 68840.8 Q 256177.6 68102.8 255636.4 67144 Q 258020.8 67217.2 258808 67168 Q 259322.8 67144 259322.8 66775.6 L 259322.8 62498.8 Q 251459.2 63016 250624 63260.8 Q 250378 62228.8 250133.2 61687.6 Q 251288.8 61540 253450 60655.6 Q 255072.4 60090.4 257972.8 58664.8 Q 252958 58985.2 252392.8 59206 Q 252196 58345.6 251902 57634 Q 252589.6 57534.4 253670.8 56969.2 Q 256079.2 55813.6 258266.8 54118 L 250991.2 54118 L 250991.2 57116.8 L 249271.6 57116.8 L 249271.6 52546 L 258905.2 52546 L 258905.2 50261.2 L 249517.6 50261.2 L 249517.6 48662.8 L 258905.2 48662.8 L 258905.2 46501.6 L 260773.6 46501.6 L 260773.6 48662.8 L 270161.2 48662.8 L 270161.2 50261.2 L 260773.6 50261.2 L 260773.6 52546 L 270480.4 52546 L 270480.4 57116.8 L 268686.4 57116.8 L 268686.4 54118 L 259346.8 54118 L 260084.8 54684.4 Q 257774.8 56354.8 255169.6 57607.6 L 260650 57289.6 Q 262369.6 56405.2 264089.2 55300 L 265367.2 56405.2 Q 260378.8 59404 255169.6 61344.4 L 265859.2 60779.2 Q 264655.6 59623.6 263868.4 58985.2 L 265170.4 58174 Q 268488.4 60876.4 270109.6 62965.6 L 268733.2 63924.4 Q 268144 63137.2 267112 62008 L 261089.2 62401.6 L 261092.8 62402.8 Z M 264461.2 63558.4 Q 268268.8 65522.8 270505.6 67366 L 269056 68398 Q 266992 66580 263084.8 64466.8 L 264461.2 63558.4 Z " fill-rule="nonzero" style="fill:#ffffff;;fill-opacity:1;"/>
</svg>