<svg version="1.1" x="0" y="0" width="100%" height="100%" viewBox="0 0 49049.6 54118.4" xmlns="http://www.w3.org/2000/svg">
  <path d="M 15601.2 17152.35 L 24380.95 17152.35 Q 33984.95 17152.35 33984.95 23674.6 Q 33984.95 25573.35 33018.95 27150.1 Q 32016.2 28835.35 30365.95 29409.35 L 30365.95 29589.6 Q 35348.2 30770.85 35348.2 35861.6 Q 35348.2 39695.85 32409.95 41774.85 Q 29685.2 43673.6 25063.45 43673.6 L 15601.2 43673.6 L 15601.2 17152.35 Z M 23987.2 27939.35 Q 28825.95 27939.35 28825.95 24462.1 Q 28825.95 21200.1 24058.95 21200.1 L 20903.7 21200.1 L 20903.7 27939.35 L 23985.45 27939.35 L 23987.2 27939.35 Z M 24596.2 39587.35 Q 30187.45 39587.35 30187.45 35536.1 Q 30187.45 31882.1 24596.2 31882.1 L 20905.45 31882.1 L 20905.45 39587.35 L 24596.2 39587.35 Z " fill-rule="nonzero" style="fill:#ffffff;;fill-opacity:1;"/>
</svg>